<svg xmlns="http://www.w3.org/2000/svg" width="731.496" height="759.178" viewBox="0 0 731.496 759.178">
  <g id="Grupo_5028" data-name="Grupo 5028" transform="translate(-204 -2594.303)">
    <text id="ASPECTOS_PARA_ASEGURAR_EL_ÉXITO_EN_LA_AGROINDUSTRIA_DEL_PLÁTANO" data-name="ASPECTOS  PARA ASEGURAR 
EL ÉXITO EN LA AGROINDUSTRIA
DEL PLÁTANO" transform="translate(329.785 2594.303)" fill="#142756" font-size="20" font-family="CerebriSans-Bold, Cerebri Sans" font-weight="700" letter-spacing="0.025em"><tspan x="92.247" y="19" xml:space="preserve">ASPECTOS  PARA ASEGURAR </tspan><tspan x="72.491" y="44">EL ÉXITO EN LA AGROINDUSTRIA</tspan><tspan x="170.237" y="69">DEL PLÁTANO</tspan></text>
    <text id="Debe_existir_un_suministro_suficiente_y_constante_de_frutos_frescos_a_bajos_precios_durante_el_año_para_mantener_las_fábricas_activas." data-name="Debe existir un suministro suficiente y constante de frutos frescos a bajos precios durante el año para mantener las fábricas activas." transform="translate(428.865 2725.965)" fill="#00223d" font-size="18" font-family="CerebriSans-Regular, Cerebri Sans"><tspan x="0" y="17">Debe existir un suministro suficiente y constante de frutos </tspan><tspan x="0" y="41">frescos a bajos precios durante el año para mantener las </tspan><tspan x="0" y="65">fábricas activas.</tspan></text>
    <text id="El_producto_procesado_debe_tener_una_alternativa_viable_de_mercado." data-name="El producto procesado debe tener una alternativa viable de mercado." transform="translate(314.609 2875.848)" fill="#00223d" font-size="18" font-family="CerebriSans-Regular, Cerebri Sans"><tspan x="0" y="17">El producto procesado debe tener una alternativa </tspan><tspan x="0" y="41">viable de mercado.</tspan></text>
    <text id="El_producto_debe_recibir_un_valor_agregado_en_relación_con_los_frutos_frescos_ya_que_la_inversión_de_fábrica_y_los_costos_de_producción_deben_ser_rentables." data-name="El producto debe recibir un valor agregado en relación con los frutos frescos, ya que la inversión de fábrica y los costos de producción deben ser rentables." transform="translate(421.968 2993.337)" fill="#00223d" font-size="18" font-family="CerebriSans-Regular, Cerebri Sans"><tspan x="0" y="17">El producto debe recibir un valor agregado en relación </tspan><tspan x="0" y="41">con los frutos frescos, ya que la inversión de fábrica y los </tspan><tspan x="0" y="65">costos de producción deben ser rentables.</tspan></text>
    <text id="Generar_tecnologías_en_los_procesos_para_el_desarrollo_de_nuevos_productos." data-name="Generar tecnologías en los procesos para el desarrollo de nuevos productos." transform="translate(302.826 3138.09)" fill="#00223d" font-size="18" font-family="CerebriSans-Regular, Cerebri Sans"><tspan x="0" y="17">Generar tecnologías en los procesos para el </tspan><tspan x="0" y="41">desarrollo de nuevos productos.</tspan></text>
    <text id="Generar_opciones_de_utilización_e_industrialización_de_desechos_para_dar_valor_agregado_a_estos." data-name="Generar opciones de utilización e industrialización de desechos, para dar valor agregado a estos." transform="translate(429.36 3271.016)" fill="#00223d" font-size="18" font-family="CerebriSans-Regular, Cerebri Sans"><tspan x="0" y="17">Generar opciones de utilización e industrialización de </tspan><tspan x="0" y="41">desechos, para dar valor agregado a estos.</tspan></text>
    <g id="Grupo_4861" data-name="Grupo 4861" transform="translate(204 2703.685)">
      <circle id="Elipse_1353" data-name="Elipse 1353" cx="53.049" cy="53.049" r="53.049" transform="translate(5.737 5.737)" fill="#fff"/>
      <path id="Trazado_13897" data-name="Trazado 13897" d="M59.743,188.929a58.786,58.786,0,1,1,58.786-58.785A58.852,58.852,0,0,1,59.743,188.929Zm0-106.1a47.311,47.311,0,1,0,47.312,47.312A47.364,47.364,0,0,0,59.743,82.833Z" transform="translate(-0.958 -71.358)" fill="#7fb2aa"/>
    </g>
    <line id="Línea_122" data-name="Línea 122" x2="675.717" transform="translate(259.779 2704.917)" fill="#fff" stroke="#7fb2aa" stroke-miterlimit="10" stroke-width="2"/>
    <line id="Línea_123" data-name="Línea 123" x2="675.717" transform="translate(259.779 2819.71)" fill="#fff" stroke="#7fb2aa" stroke-miterlimit="10" stroke-width="2"/>
    <line id="Línea_124" data-name="Línea 124" y2="93.922" transform="translate(404.949 2714.108)" fill="#fff" stroke="#7fb2aa" stroke-miterlimit="10" stroke-width="2"/>
    <text id="_01" data-name="01" transform="translate(336.743 2775.924)" fill="#142756" font-size="50" font-family="OpenSans-Bold, Open Sans" font-weight="700" letter-spacing="0.025em"><tspan x="0" y="0">01</tspan></text>
    <path id="Trazado_13898" data-name="Trazado 13898" d="M535.989,246.1a58.786,58.786,0,1,1,58.786,58.785A58.852,58.852,0,0,1,535.989,246.1Zm11.475,0a47.312,47.312,0,1,0,47.312-47.312A47.365,47.365,0,0,0,547.464,246.1Z" transform="translate(281.934 2649.425)" fill="#78933e"/>
    <line id="Línea_125" data-name="Línea 125" x1="675.717" transform="translate(204 2837.973)" fill="none" stroke="#78933e" stroke-miterlimit="10" stroke-width="2"/>
    <line id="Línea_126" data-name="Línea 126" x1="675.717" transform="translate(204 2952.766)" fill="none" stroke="#78933e" stroke-miterlimit="10" stroke-width="2"/>
    <line id="Línea_127" data-name="Línea 127" y2="93.922" transform="translate(734.546 2847.165)" fill="none" stroke="#78933e" stroke-miterlimit="10" stroke-width="2"/>
    <text id="_02" data-name="02" transform="translate(747.964 2908.98)" fill="#142756" font-size="50" font-family="OpenSans-Bold, Open Sans" font-weight="700" letter-spacing="0.025em"><tspan x="0" y="0">02</tspan></text>
    <path id="Trazado_13899" data-name="Trazado 13899" d="M59.743,420.845a58.786,58.786,0,1,1,58.786-58.786A58.852,58.852,0,0,1,59.743,420.845Zm0-106.1a47.311,47.311,0,1,0,47.312,47.311A47.364,47.364,0,0,0,59.743,314.749Z" transform="translate(203.042 2666.523)" fill="#4c87cd"/>
    <line id="Línea_128" data-name="Línea 128" x2="675.717" transform="translate(259.779 2971.029)" fill="none" stroke="#4c87cd" stroke-miterlimit="10" stroke-width="2"/>
    <line id="Línea_129" data-name="Línea 129" x2="675.717" transform="translate(259.779 3085.823)" fill="none" stroke="#4c87cd" stroke-miterlimit="10" stroke-width="2"/>
    <line id="Línea_130" data-name="Línea 130" y2="93.922" transform="translate(404.949 2980.221)" fill="none" stroke="#4c87cd" stroke-miterlimit="10" stroke-width="2"/>
    <text id="_03" data-name="03" transform="translate(336.743 3042.037)" fill="#142756" font-size="50" font-family="OpenSans-Bold, Open Sans" font-weight="700" letter-spacing="0.025em"><tspan x="0" y="0">03</tspan></text>
    <circle id="Elipse_1356" data-name="Elipse 1356" cx="53.049" cy="53.049" r="53.049" transform="translate(209.738 3241.646)" fill="#fff"/>
    <path id="Trazado_13900" data-name="Trazado 13900" d="M59.743,652.761a58.786,58.786,0,1,1,58.786-58.786A58.853,58.853,0,0,1,59.743,652.761Zm0-106.1a47.311,47.311,0,1,0,47.312,47.311A47.364,47.364,0,0,0,59.743,546.665Z" transform="translate(203.042 2700.72)" fill="#f6df86"/>
    <line id="Línea_131" data-name="Línea 131" x2="675.717" transform="translate(259.779 3237.141)" fill="none" stroke="#f6df86" stroke-miterlimit="10" stroke-width="2"/>
    <line id="Línea_132" data-name="Línea 132" x2="675.717" transform="translate(259.779 3351.935)" fill="none" stroke="#f6df86" stroke-miterlimit="10" stroke-width="2"/>
    <line id="Línea_133" data-name="Línea 133" y2="93.922" transform="translate(404.949 3246.333)" fill="none" stroke="#f6df86" stroke-miterlimit="10" stroke-width="2"/>
    <text id="_05" data-name="05" transform="translate(336.743 3308.149)" fill="#142756" font-size="50" font-family="OpenSans-Bold, Open Sans" font-weight="700" letter-spacing="0.025em"><tspan x="0" y="0">05</tspan></text>
    <path id="Trazado_13901" data-name="Trazado 13901" d="M535.989,478.017A58.786,58.786,0,1,1,594.775,536.8,58.852,58.852,0,0,1,535.989,478.017Zm11.475,0a47.312,47.312,0,1,0,47.312-47.311A47.365,47.365,0,0,0,547.464,478.017Z" transform="translate(281.934 2683.622)" fill="#846e63"/>
    <line id="Línea_134" data-name="Línea 134" x1="675.717" transform="translate(204 3104.085)" fill="none" stroke="#846e63" stroke-miterlimit="10" stroke-width="2"/>
    <line id="Línea_135" data-name="Línea 135" x1="675.717" transform="translate(204 3218.879)" fill="none" stroke="#846e63" stroke-miterlimit="10" stroke-width="2"/>
    <line id="Línea_136" data-name="Línea 136" y2="93.922" transform="translate(734.546 3113.277)" fill="none" stroke="#846e63" stroke-miterlimit="10" stroke-width="2"/>
    <text id="_04" data-name="04" transform="translate(747.964 3175.093)" fill="#142756" font-size="50" font-family="OpenSans-Bold, Open Sans" font-weight="700" letter-spacing="0.025em"><tspan x="0" y="0">04</tspan></text>
    <g id="Grupo_4868" data-name="Grupo 4868" transform="translate(226.592 2739.43)">
      <g id="Grupo_4867" data-name="Grupo 4867" transform="translate(0 0)">
        <g id="Grupo_4863" data-name="Grupo 4863" transform="translate(18.092 10.788)">
          <path id="Trazado_13902" data-name="Trazado 13902" d="M54.9,145.9a109.84,109.84,0,0,1-20.262-1.113.861.861,0,0,1-.743-.92.879.879,0,0,1,.874-.8c.331.007,32.662.259,39.291-25.787a.863.863,0,0,1,1.135-.6l3.562,1.319a.862.862,0,0,1,.5.474c.18.428,4.339,10.584-1.781,18.567C73.39,142.372,65.829,145.33,54.9,145.9Zm-11.575-1.926c16.553,1.207,27.8-1.5,32.768-7.968,4.927-6.414,2.334-14.748,1.7-16.521l-2.306-.853C70.421,136.528,53.708,142.189,43.326,143.976Z" transform="translate(-33.892 -111.769)" fill="#142756"/>
          <path id="Trazado_13903" data-name="Trazado 13903" d="M45.366,146.521l-.19.009a.863.863,0,0,1-.079-1.724l.064,0c1.187-.063,22.087-1.385,28.652-16.207a.863.863,0,0,1,1.578.7C68.493,144.868,47.732,146.4,45.366,146.521Z" transform="translate(-34.566 -112.511)" fill="#142756"/>
          <path id="Trazado_13904" data-name="Trazado 13904" d="M82.135,114.476a.86.86,0,0,1-.316-.042l-3.983-1.32a.863.863,0,0,1,.542-1.638l3.983,1.32a.863.863,0,0,1-.226,1.68Z" transform="translate(-36.703 -111.432)" fill="#142756"/>
        </g>
        <g id="Grupo_4864" data-name="Grupo 4864" transform="translate(32.715 2.016)">
          <path id="Trazado_13905" data-name="Trazado 13905" d="M58.01,106.193a.861.861,0,0,0-.132.69c2.937,12.579-2.194,22.5-8.349,29.428.886-.206,1.867-.469,2.92-.805,5.531-6.941,9.724-16.374,7.316-28.08l2.44-.3c1.382,1.279,7.522,7.482,6.1,15.445a15.209,15.209,0,0,1-1.5,4.318,34.617,34.617,0,0,0,3.094-3.532c.035-.166.079-.331.108-.5,1.755-9.9-6.613-17-6.971-17.3a.866.866,0,0,0-.658-.194l-3.769.47A.862.862,0,0,0,58.01,106.193Z" transform="translate(-49.529 -102.266)" fill="#142756"/>
          <path id="Trazado_13906" data-name="Trazado 13906" d="M63.794,130.113l-1.543-.771c2.677-5.359,1.672-13.364,1.662-13.445l1.711-.224C65.67,116.021,66.711,124.276,63.794,130.113Z" transform="translate(-50.354 -102.935)" fill="#142756"/>
          <rect id="Rectángulo_1419" data-name="Rectángulo 1419" width="5.087" height="1.726" transform="translate(7.509 0.874) rotate(-9.895)" fill="#142756"/>
        </g>
        <g id="Grupo_4865" data-name="Grupo 4865" transform="translate(15.649)">
          <path id="Trazado_13907" data-name="Trazado 13907" d="M34.352,105.633a.862.862,0,0,0,.4.574c11.1,6.615,14.676,17.194,15.393,26.434.467-.781.958-1.669,1.447-2.661-1.159-8.8-5.041-18.364-15.139-24.754l1.474-1.969c1.881-.108,10.608-.223,15.355,6.325a15.219,15.219,0,0,1,2.067,4.076,34.547,34.547,0,0,0-.4-4.679c-.1-.14-.183-.287-.283-.424-5.912-8.138-16.831-7.04-17.293-6.988a.864.864,0,0,0-.6.34l-2.277,3.039A.858.858,0,0,0,34.352,105.633Z" transform="translate(-31.478 -99.999)" fill="#142756"/>
          <path id="Trazado_13908" data-name="Trazado 13908" d="M55.229,118.572l-1.627.575c-2-5.647-8.46-10.479-8.525-10.528l1.026-1.387C46.385,107.441,53.051,112.42,55.229,118.572Z" transform="translate(-32.175 -100.371)" fill="#142756"/>
          <rect id="Rectángulo_1420" data-name="Rectángulo 1420" width="5.087" height="1.726" transform="translate(0 4.214) rotate(-55.945)" fill="#142756"/>
        </g>
        <g id="Grupo_4866" data-name="Grupo 4866" transform="translate(0 10.687)">
          <path id="Trazado_13909" data-name="Trazado 13909" d="M18.213,122.028a.866.866,0,0,0,.671.209c12.83-1.513,22.113,4.7,28.31,11.587-.106-.9-.257-1.907-.474-2.992-6.278-6.271-15.183-11.493-27.085-10.409l-.03-2.459c1.425-1.231,8.276-6.639,16.031-4.337a15.212,15.212,0,0,1,4.122,1.974,34.445,34.445,0,0,0-3.164-3.469c-.161-.053-.321-.116-.483-.164-9.645-2.853-17.635,4.67-17.971,4.992a.864.864,0,0,0-.265.632l.046,3.8A.858.858,0,0,0,18.213,122.028Z" transform="translate(-14.762 -111.324)" fill="#142756"/>
          <path id="Trazado_13910" data-name="Trazado 13910" d="M42.556,120.043l-.94,1.448c-5.027-3.26-13.094-3.157-13.175-3.155l-.032-1.725C28.762,116.6,37.082,116.492,42.556,120.043Z" transform="translate(-15.445 -111.666)" fill="#142756"/>
          <rect id="Rectángulo_1421" data-name="Rectángulo 1421" width="1.726" height="5.087" transform="translate(0 6.252) rotate(-3.474)" fill="#142756"/>
        </g>
      </g>
    </g>
    <g id="Grupo_4876" data-name="Grupo 4876" transform="translate(861 2862.584)">
      <g id="Grupo_4869" data-name="Grupo 4869" transform="translate(4.061 14.958)">
        <path id="Trazado_13911" data-name="Trazado 13911" d="M577.448,227.017c3.473-2.7,20.9-.353,23.441,2.953-3.565,4.874-11.8,6.889-17.841,3.7A11.06,11.06,0,0,1,577.448,227.017Z" transform="translate(-576.451 -224.943)" fill="#fff"/>
        <path id="Trazado_13912" data-name="Trazado 13912" d="M589.377,235.969a14.735,14.735,0,0,1-6.865-1.617,11.9,11.9,0,0,1-6.054-7.244l-.126-.555.449-.349c2.655-2.065,10.375-1.259,12.677-.962,4.769.613,10.431,2.006,12.02,4.078l.408.531-.4.541C598.885,233.954,594.1,235.969,589.377,235.969Zm-10.983-8.65a10.413,10.413,0,0,0,4.954,5.453c5.208,2.75,12.569,1.405,16.217-2.827-1.581-1.153-5.673-2.332-10.334-2.931C584.438,226.4,580.187,226.532,578.394,227.319Z" transform="translate(-576.332 -224.836)" fill="#142756"/>
      </g>
      <g id="Grupo_4870" data-name="Grupo 4870" transform="translate(0 0.723)">
        <path id="Trazado_13913" data-name="Trazado 13913" d="M582.293,212.423c-2.153-2.335-5.711-3.373-8.576-1.746a1.914,1.914,0,0,0,.314,3.419,1.438,1.438,0,0,0,.549.452c1.907.879,2.708,2.751,3.207,4.691a51.2,51.2,0,0,1,1.172,8.083A104.594,104.594,0,0,1,579,245.675a1.917,1.917,0,0,0,1.849,1.927,1.953,1.953,0,0,0,3.168-1.395c.3-7.807.634-15.614.9-23.422C585.039,219.2,584.865,215.211,582.293,212.423Z" transform="translate(-571.894 -209.009)" fill="#fff"/>
        <path id="Trazado_13914" data-name="Trazado 13914" d="M581.98,248.8a7.957,7.957,0,0,1-3.306-1.382,2.547,2.547,0,0,1-.672-1.92,103.9,103.9,0,0,0-.039-18.2,50.544,50.544,0,0,0-1.148-7.941c-.582-2.267-1.394-3.493-2.714-4.1a2.271,2.271,0,0,1-.736-.541,3.025,3.025,0,0,1-1.572-2.455,2.586,2.586,0,0,1,1.377-2.462,8.013,8.013,0,0,1,9.675,1.917c2.741,2.973,2.994,7.043,2.858,11-.18,5.275-.391,10.549-.6,15.822q-.152,3.8-.3,7.6a2.648,2.648,0,0,1-1.556,2.385A3.023,3.023,0,0,1,581.98,248.8Zm-5.362-38.119a5.148,5.148,0,0,0-2.566.67.819.819,0,0,0-.476.8,1.239,1.239,0,0,0,.7,1.016l.223.093.146.194a.545.545,0,0,0,.207.177c2.354,1.085,3.213,3.392,3.7,5.28a51.867,51.867,0,0,1,1.2,8.224,105.658,105.658,0,0,1,.039,18.512.808.808,0,0,0,.225.578,1.126,1.126,0,0,0,.759.38l.295.009.231.181a1.21,1.21,0,0,0,1.2.105.883.883,0,0,0,.522-.832q.146-3.8.3-7.605c.21-5.271.421-10.542.6-15.812.122-3.575-.082-7.228-2.388-9.727h0A6.923,6.923,0,0,0,576.618,210.679Z" transform="translate(-571.787 -208.904)" fill="#142756"/>
      </g>
      <g id="Grupo_4871" data-name="Grupo 4871" transform="translate(8.21)">
        <path id="Trazado_13915" data-name="Trazado 13915" d="M596.227,213.673c-1.259-2.916-4.272-5.073-7.514-4.486a1.914,1.914,0,0,0-.835,3.33,1.451,1.451,0,0,0,.368.608c1.509,1.461,1.645,3.492,1.473,5.488a51.178,51.178,0,0,1-1.569,8.015,104.616,104.616,0,0,1-6.039,17.333,1.917,1.917,0,0,0,1.107,2.43,1.952,1.952,0,0,0,3.451-.268c2.868-7.267,5.768-14.523,8.6-21.8C596.576,220.974,597.73,217.156,596.227,213.673Z" transform="translate(-581.083 -208.201)" fill="#fff"/>
        <path id="Trazado_13916" data-name="Trazado 13916" d="M584.857,248.093A3.033,3.033,0,0,1,582.526,247a2.949,2.949,0,0,1-1.339-1.478,2.551,2.551,0,0,1,0-2.033,103.907,103.907,0,0,0,5.988-17.186,50.555,50.555,0,0,0,1.546-7.873c.2-2.331-.16-3.757-1.205-4.769A2.288,2.288,0,0,1,587,212.9a3.026,3.026,0,0,1-.671-2.835,2.59,2.59,0,0,1,2.115-1.868,8.018,8.018,0,0,1,8.495,5.012h0c1.6,3.714.495,7.639-.943,11.326q-2.863,7.347-5.783,14.674-1.413,3.565-2.823,7.132a2.647,2.647,0,0,1-2.258,1.735C585.042,248.089,584.949,248.093,584.857,248.093Zm4.82-38.216a5.1,5.1,0,0,0-.914.082.819.819,0,0,0-.714.6,1.238,1.238,0,0,0,.32,1.187l.181.164.073.231a.545.545,0,0,0,.137.236c1.862,1.8,1.909,4.264,1.742,6.206a51.747,51.747,0,0,1-1.593,8.156,105.809,105.809,0,0,1-6.09,17.481.8.8,0,0,0,.021.618,1.129,1.129,0,0,0,.591.611l.276.105.158.248a1.224,1.224,0,0,0,1.1.5.88.88,0,0,0,.767-.612q1.41-3.568,2.824-7.135,2.9-7.324,5.778-14.664c1.3-3.332,2.316-6.846.968-9.968h0A6.476,6.476,0,0,0,589.678,209.878Z" transform="translate(-580.976 -208.096)" fill="#142756"/>
      </g>
      <g id="Grupo_4872" data-name="Grupo 4872" transform="translate(11.451 0.463)">
        <path id="Trazado_13917" data-name="Trazado 13917" d="M607.268,215.861c-.481-3.14-2.85-5.989-6.136-6.241a1.914,1.914,0,0,0-1.65,3.01,1.445,1.445,0,0,0,.2.682c1.091,1.8.709,3.795.038,5.682a51.163,51.163,0,0,1-3.546,7.357,104.525,104.525,0,0,1-10.227,15.241,1.917,1.917,0,0,0,.456,2.631,1.953,1.953,0,0,0,3.407.615c4.613-6.305,9.253-12.592,13.839-18.918C605.758,223.013,607.841,219.611,607.268,215.861Z" transform="translate(-584.71 -208.72)" fill="#fff"/>
        <path id="Trazado_13918" data-name="Trazado 13918" d="M588.252,246.4a2.776,2.776,0,0,1-.451-.037,3.039,3.039,0,0,1-2.251-1.7,2.955,2.955,0,0,1-.92-1.769,2.549,2.549,0,0,1,.516-1.967,104.089,104.089,0,0,0,10.14-15.111,50.54,50.54,0,0,0,3.487-7.227c.784-2.205.8-3.676.04-4.919a2.271,2.271,0,0,1-.306-.86,3.022,3.022,0,0,1,.069-2.914,2.587,2.587,0,0,1,2.518-1.272,8.012,8.012,0,0,1,6.95,7h0c.613,4-1.452,7.514-3.776,10.718q-4.588,6.329-9.224,12.621-2.311,3.15-4.619,6.3A2.658,2.658,0,0,1,588.252,246.4Zm12.6-36a.793.793,0,0,0-.738.4,1.241,1.241,0,0,0,.009,1.23l.133.2.013.24a.558.558,0,0,0,.072.264c1.347,2.216.769,4.608.116,6.446a51.765,51.765,0,0,1-3.605,7.488,105.722,105.722,0,0,1-10.315,15.371.81.81,0,0,0-.136.606,1.129,1.129,0,0,0,.417.74l.239.171.09.281a1.216,1.216,0,0,0,.939.759.871.871,0,0,0,.9-.4q2.307-3.152,4.619-6.3,4.623-6.3,9.218-12.612c2.1-2.9,3.972-6.038,3.457-9.4h0c-.391-2.554-2.343-5.257-5.32-5.486C600.921,210.4,600.885,210.4,600.851,210.4Z" transform="translate(-584.604 -208.614)" fill="#142756"/>
      </g>
      <g id="Grupo_4875" data-name="Grupo 4875" transform="translate(0.345 15.3)">
        <g id="Grupo_4873" data-name="Grupo 4873" transform="translate(13.254 2.574)">
          <path id="Trazado_13919" data-name="Trazado 13919" d="M588.226,270.888a16.334,16.334,0,0,0,9.391-1.46,182.878,182.878,0,0,1,4.42-38.966,14.66,14.66,0,0,1-10.191,2.648A154.853,154.853,0,0,1,588.226,270.888Z" transform="translate(-587.137 -228.352)" fill="#fff"/>
          <path id="Trazado_13920" data-name="Trazado 13920" d="M590.375,271.7a15.727,15.727,0,0,1-2.415-.183l-.953-.147.22-.938a153.3,153.3,0,0,0,3.6-37.552l-.026-1.03,1.024.12a13.767,13.767,0,0,0,9.563-2.485l1.92-1.387-.524,2.309a182.23,182.23,0,0,0-4.4,38.773l0,.559-.5.241A17.5,17.5,0,0,1,590.375,271.7Zm-1.187-1.836A15.453,15.453,0,0,0,596.6,268.6a184.65,184.65,0,0,1,3.983-36.524,15.666,15.666,0,0,1-7.95,1.754A155.567,155.567,0,0,1,589.189,269.867Z" transform="translate(-587.007 -228.1)" fill="#142756"/>
        </g>
        <g id="Grupo_4874" data-name="Grupo 4874">
          <path id="Trazado_13921" data-name="Trazado 13921" d="M592.172,230.408c-.634,14.283-1.33,31.14-4.522,42.3a20.72,20.72,0,0,1-14.3-4.535,83.1,83.1,0,0,0,3.66-41.016C581.11,229.555,587.426,230.579,592.172,230.408Z" transform="translate(-572.299 -225.425)" fill="#fff"/>
          <path id="Trazado_13922" data-name="Trazado 13922" d="M586.078,273.457a21.972,21.972,0,0,1-13.414-4.8l-.491-.4.212-.6a82.011,82.011,0,0,0,3.62-40.573l-.309-1.876,1.641.961c4.067,2.382,10.3,3.279,14.677,3.129l.968-.036-.079,1.783c-.637,14.363-1.36,30.643-4.519,41.693l-.169.591-.614.054C587.1,273.436,586.591,273.457,586.078,273.457Zm-11.8-5.8a20.09,20.09,0,0,0,12.553,3.995c2.95-10.8,3.657-26.573,4.277-40.542h-.067a33.547,33.547,0,0,1-13.01-2.565A83.812,83.812,0,0,1,574.282,267.659Z" transform="translate(-572.173 -225.219)" fill="#142756"/>
        </g>
      </g>
    </g>
    <g id="Grupo_4886" data-name="Grupo 4886" transform="translate(236.264 2993.082)">
      <g id="Grupo_4885" data-name="Grupo 4885">
        <g id="Grupo_4883" data-name="Grupo 4883" transform="translate(1.018)">
          <g id="Grupo_4878" data-name="Grupo 4878" transform="translate(21.9)">
            <g id="Grupo_4877" data-name="Grupo 4877">
              <path id="Trazado_13923" data-name="Trazado 13923" d="M75.506,352.409l-5.392.4a4.074,4.074,0,0,1-2.4-.441,8.194,8.194,0,0,1-1.847-2.157c-1.107-1.829-5.9-2.861-7.481-7.269-1.97-5.489-1.486-13.414-1.624-16.564-.168-3.926-1.109-3.975-1.107-5.305a4.411,4.411,0,0,0-.672-2.3s-1.318-.718-1.858-.312c-.557.416-.352.951-1.027,2.131s-1.608.613-2.95,5.932-1.98,14.036,1.613,20.558c4,7.267,9.935,8.069,12.014,7.889.6-.052,2.859-.865,3.562-.848a28.835,28.835,0,0,1,5.422.7Z" transform="translate(-48.084 -318.338)" fill="#fff" stroke="#142756" stroke-linecap="round" stroke-linejoin="round" stroke-width="2"/>
              <path id="Trazado_13924" data-name="Trazado 13924" d="M54.346,319.611c.293-.043.666-.768.956-.77-.011-.026-.022-.047-.029-.067,0,0-1.318-.718-1.858-.312C53.845,318.965,53.474,319.738,54.346,319.611Z" transform="translate(-48.375 -318.338)" fill="#fff" stroke="#142756" stroke-linecap="round" stroke-linejoin="round" stroke-width="2"/>
            </g>
            <path id="Trazado_13925" data-name="Trazado 13925" stroke="#142756" d="M54.131,318.526c-.255.217-.23-.11-.255.217s-.054.442.323.356.728.15.758-.241S54.131,318.526,54.131,318.526Z" fill="#fff" transform="translate(-48.399 -318.348)" stroke-linecap="round" stroke-linejoin="round" stroke-width="2" opacity="0.56"/>
          </g>
          <g id="Grupo_4879" data-name="Grupo 4879" transform="translate(5.071 9.63)">
            <path id="Trazado_13926" data-name="Trazado 13926" d="M62.644,357.475c-1.4,1.336-3.417,5.63-8.761,5.987s-13.6-2.845-18.56-10.041-5.52-15.754-4.757-18.064c.372-1.124,1.236-4,1.542-5.151s-.058-1.972,1.132-1.589c0,0,.46.147.814.219a.911.911,0,0,1,.742.519c.2.354.694,2.062,1.286,3.124a22.337,22.337,0,0,1,2.674,7.3c.945,4.418,4.42,12.929,11.8,14.306s10.392,1.016,11.968.567S64.041,356.138,62.644,357.475Z" transform="translate(-30.286 -328.522)" fill="#fff" stroke="#142756" stroke-linecap="round" stroke-linejoin="round" stroke-width="2"/>
            <path id="Trazado_13927" data-name="Trazado 13927" stroke-linecap="round" d="M35.443,331.96c.226,1.257,1.037,2.2,1.976,5.931s3.069,13.42,11.21,16.753c2.724,1.116,7.111.966,9.391,1.091a14.64,14.64,0,0,0,5.8-.776v0l-.036-.038a.659.659,0,0,0-.074-.072c-.015-.011-.027-.024-.043-.034a.6.6,0,0,0-.13-.067l-.049-.015a.8.8,0,0,0-.142-.028L63.3,354.7a1.253,1.253,0,0,0-.2,0c-.017,0-.035,0-.055.007a1.8,1.8,0,0,0-.246.049c-1.576.449-4.589.809-11.968-.567s-10.854-9.889-11.8-14.306a22.337,22.337,0,0,0-2.674-7.3,15.359,15.359,0,0,1-.893-2.1A4.842,4.842,0,0,0,35.443,331.96Z" fill="#fff" stroke="#142756" transform="translate(-30.565 -328.629)" stroke-linejoin="round" stroke-width="2" opacity="0.07" style="mix-blend-mode: multiply;isolation: isolate"/>
            <path id="Trazado_13928" data-name="Trazado 13928" stroke-linecap="round" d="M35.322,353.7c4.957,7.2,13.217,10.4,18.56,10.041a8.9,8.9,0,0,0,4.578-1.579h0c-6.433,1.566-14.908-.518-21.369-7.831-5.289-5.985-5.935-15.848-5.9-20.686-.242.8-.472,1.537-.622,1.991C29.8,337.946,30.366,346.5,35.322,353.7Z" fill="#fff" stroke="#142756" transform="translate(-30.286 -328.801)" stroke-linejoin="round" stroke-width="2" opacity="0.22" style="mix-blend-mode: multiply;isolation: isolate"/>
            <path id="Trazado_13929" data-name="Trazado 13929" d="M34.177,328.837c-.355-.073-.814-.219-.814-.219-.443-.142-.669-.118-.8.026.108.131.219.263.264.322a1.951,1.951,0,0,0,.832.308c.128,0,.106-.058.335.016S34.533,328.911,34.177,328.837Z" transform="translate(-30.411 -328.522)" fill="#fff" stroke="#142756" stroke-linecap="round" stroke-linejoin="round" stroke-width="2"/>
            <path id="Trazado_13930" data-name="Trazado 13930" d="M34.2,328.837c-.355-.073-.814-.219-.814-.219A1.858,1.858,0,0,0,33,328.53c-.045.04-.071.067-.071.067.064.457.337.69.556.489.252-.231.376,0,.763.183C34.381,329.334,34.395,328.878,34.2,328.837Z" transform="translate(-30.43 -328.523)" fill="#fff" stroke="#142756" stroke-linecap="round" stroke-linejoin="round" stroke-width="2"/>
          </g>
          <path id="Trazado_13931" data-name="Trazado 13931" stroke="#142756" d="M71.379,353.985l-.824.147s-3.584,2.717-5.272,3.645-5.015,2.143-13.633,2.569-14.3-8.236-16.282-12.961a24.041,24.041,0,0,0-4.529-7.511,11.434,11.434,0,0,1-1.449-2.832,6.839,6.839,0,0,0,.287,2.37c.515,1.356,1.625,2.206,3.459,6.157s6.24,14.305,16.121,15.88c3.308.526,8.233-.818,10.833-1.291a17.876,17.876,0,0,0,7.617-3.252A42.459,42.459,0,0,0,71.379,353.985Z" fill="#fff" transform="translate(-25.167 -319.356)" stroke-linecap="round" stroke-linejoin="round" stroke-width="2" opacity="0.63"/>
          <path id="Trazado_13932" data-name="Trazado 13932" stroke="#142756" d="M34.069,363.98c7.084,6.783,17.075,8.179,23.036,6.343a10.945,10.945,0,0,0,4.843-3.009h0C55,370.806,45,370.728,36.2,364.217c-7.209-5.327-9.977-16.274-10.944-21.736-.108.964-.215,1.86-.289,2.412C24.579,347.7,26.984,357.2,34.069,363.98Z" fill="#fff" transform="translate(-24.924 -319.652)" stroke-linecap="round" stroke-linejoin="round" stroke-width="2" opacity="0.44"/>
          <path id="Trazado_13933" data-name="Trazado 13933" stroke-linecap="round" d="M42.336,347,59.5,361.1l-16.748,4.03-8.373-12.014Z" fill="#fff" stroke="#142756" transform="translate(-25.438 -319.898)" stroke-linejoin="round" stroke-width="2" opacity="0.77" style="mix-blend-mode: multiply;isolation: isolate"/>
          <g id="Grupo_4880" data-name="Grupo 4880" transform="translate(0 16.914)">
            <path id="Trazado_13934" data-name="Trazado 13934" d="M74.632,357.245l-1.625.7-1.833-.144a8.918,8.918,0,0,0-5.413,3.079c-1.3,1.882-2.695,7.265-8.655,9.1s-15.951.441-23.036-6.343-9.491-16.279-9.107-19.087c.186-1.367.566-4.847.675-6.223s-.472-2.208.949-2.093c0,0,.55.043.966.03s1.068-.054,1.363.291.791,2.232,1.679,3.272a24.042,24.042,0,0,1,4.529,7.511c1.982,4.725,7.666,13.387,16.282,12.961s11.944-1.641,13.633-2.569,5.526-3.347,5.526-3.347l3.679-1Z" transform="translate(-24.924 -336.226)" fill="#fff" stroke="#142756" stroke-linecap="round" stroke-linejoin="round" stroke-width="2"/>
            <path id="Trazado_13935" data-name="Trazado 13935" d="M28.961,336.558c-.3-.345-.945-.3-1.363-.291s-.966-.03-.966-.03c-.528-.043-.778.046-.892.245.151.118.3.237.365.29a2.154,2.154,0,0,0,1.006.125c.14-.035.184.269.461.29s.361-.479.656-.433a2.369,2.369,0,0,0,.842-.018A1.148,1.148,0,0,0,28.961,336.558Z" transform="translate(-24.968 -336.226)" fill="#fff" stroke="#142756" stroke-linecap="round" stroke-linejoin="round" stroke-width="2"/>
            <path id="Trazado_13936" data-name="Trazado 13936" d="M27.62,336.267c-.416.013-.966-.03-.966-.03a2.112,2.112,0,0,0-.448,0c-.043.058-.066.095-.066.095.167.5.391.307.73.4s.422-.1.9,0c.163.036.43-.169.66-.447A4.143,4.143,0,0,0,27.62,336.267Z" transform="translate(-24.99 -336.226)" fill="#fff" stroke="#142756" stroke-linecap="round" stroke-linejoin="round" stroke-width="2"/>
          </g>
          <path id="Trazado_13937" data-name="Trazado 13937" stroke-linecap="round" d="M74.842,358.934l1.625-.7-.387-3.862-3.679,1s-3.837,2.42-5.526,3.347c-1.276.7-3.486,1.564-8.206,2.131l-.025,10.2c.1-.028.2-.055.3-.084,5.96-1.836,7.354-7.219,8.655-9.1a8.918,8.918,0,0,1,5.413-3.079Z" fill="#fff" stroke="#142756" transform="translate(-26.76 -320.3)" stroke-linejoin="round" stroke-width="2" opacity="0.77" style="mix-blend-mode: multiply;isolation: isolate"/>
          <g id="Grupo_4882" data-name="Grupo 4882" transform="translate(11.81 1.842)">
            <g id="Grupo_4881" data-name="Grupo 4881">
              <path id="Trazado_13938" data-name="Trazado 13938" d="M73.213,352.865l-2.125.317a4.863,4.863,0,0,1-2.881.4,9.79,9.79,0,0,1-2.9-1.748c-1.937-1.652-7.745-1.023-11.186-5.415-4.283-5.466-6.71-14.612-8.046-18.124-1.663-4.374-2.744-4.079-3.241-5.585a5.247,5.247,0,0,0-1.622-2.349s-1.761-.318-2.22.344c-.474.678-.041,1.207-.362,2.794s-1.589,1.3-1.112,7.818,3.024,16.613,9.532,22.641c7.253,6.719,14.263,5.4,16.546,4.418.658-.284,2.909-2.049,3.711-2.295a34.367,34.367,0,0,1,6.394-1.241Z" transform="translate(-37.414 -320.285)" fill="#fff" stroke="#142756" stroke-linecap="round" stroke-linejoin="round" stroke-width="2"/>
              <path id="Trazado_13939" data-name="Trazado 13939" d="M40.366,320.833a8.252,8.252,0,0,1,1-.408.542.542,0,0,1-.057-.062s-1.761-.318-2.22.344C40.366,320.833,39.428,321.305,40.366,320.833Z" transform="translate(-37.505 -320.285)" fill="#fff" stroke="#142756" stroke-linecap="round" stroke-linejoin="round" stroke-width="2"/>
              <path id="Trazado_13940" data-name="Trazado 13940" stroke="#142756" d="M40.106,320.567a3.717,3.717,0,0,0,1.01-.043c.088-.034.177-.069.263-.1a.543.543,0,0,1-.057-.062,3.982,3.982,0,0,0-1.928.106C39.593,320.5,39.827,320.531,40.106,320.567Z" fill="#fff" transform="translate(-37.522 -320.285)" stroke-linecap="round" stroke-linejoin="round" stroke-width="2" opacity="0.56"/>
            </g>
          </g>
          <path id="Trazado_13941" data-name="Trazado 13941" d="M76.8,354.371l-2.644.474c-.568.539-.967,1.176-.632,1.253a3.275,3.275,0,0,1,1.449.945c.317.371-3.257,1.369-3.131,1.518s2.006-.429,2.9-.29a10.349,10.349,0,0,0,2.437-.156Z" transform="translate(-27.478 -320.3)" fill="#fff" stroke="#142756" stroke-linecap="round" stroke-linejoin="round" stroke-width="2"/>
          <path id="Trazado_13942" data-name="Trazado 13942" d="M77.235,357.507l-.314-3.136-1.879.338c.1.177.128.216-.331.607-.669.57-.447.83.284,1.234s.94.8.479.937-1.552.362-1.388.48a3.228,3.228,0,0,0,1.943-.055A9.241,9.241,0,0,0,77.235,357.507Z" transform="translate(-27.6 -320.3)" fill="#fff" stroke="#142756" stroke-linecap="round" stroke-linejoin="round" stroke-width="2"/>
          <path id="Trazado_13943" data-name="Trazado 13943" stroke="#142756" d="M77.011,354.371l-.773.139c.375.152.129.687.1,1.031-.057.708-.9.62-.5.929s.662-.292,1.2-.112a.292.292,0,0,0,.171,0Z" fill="#fff" transform="translate(-27.69 -320.3)" stroke-linecap="round" stroke-linejoin="round" stroke-width="2" opacity="0.56"/>
          <path id="Trazado_13944" data-name="Trazado 13944" stroke-linecap="round" d="M74.721,356.918h0a2.623,2.623,0,0,1,.252.252c.317.371-3.257,1.369-3.131,1.518s2.006-.429,2.9-.29a10.349,10.349,0,0,0,2.437-.156L77.02,356.7Z" fill="#fff" stroke="#142756" transform="translate(-27.478 -320.427)" stroke-linejoin="round" stroke-width="2" opacity="0.3" style="mix-blend-mode: multiply;isolation: isolate"/>
        </g>
        <g id="Grupo_4884" data-name="Grupo 4884" transform="translate(0 29.953)">
          <path id="Trazado_13945" data-name="Trazado 13945" d="M78.006,351.7H24.688a.841.841,0,0,1-.841-.841h0a.841.841,0,0,1,.841-.841H78.006a.841.841,0,0,1,.841.841h0A.841.841,0,0,1,78.006,351.7Z" transform="translate(-23.847 -350.015)" fill="#fff" stroke="#142756" stroke-linecap="round" stroke-linejoin="round" stroke-width="2"/>
          <path id="Trazado_13946" data-name="Trazado 13946" d="M51.453,351.793H25.784l5.4,34.045h40.53l5.4-34.045Z" transform="translate(-23.952 -350.112)" fill="#fff" stroke="#142756" stroke-linecap="round" stroke-linejoin="round" stroke-width="2"/>
          <path id="Trazado_13947" data-name="Trazado 13947" d="M27.457,362.334l2.116,13.33H73.515l2.116-13.33Z" transform="translate(-24.044 -350.686)" fill="#fff" stroke="#142756" stroke-linecap="round" stroke-linejoin="round" stroke-width="2"/>
        </g>
      </g>
    </g>
    <g id="Grupo_4888" data-name="Grupo 4888" transform="translate(856.502 3152.145)">
      <g id="Grupo_4887" data-name="Grupo 4887">
        <path id="Trazado_13948" data-name="Trazado 13948" d="M597.817,489.509H582.3a.922.922,0,0,1-.872-.529l-8.88-22.284a.679.679,0,0,1,.125-.7.984.984,0,0,1,.747-.322H606.7a.984.984,0,0,1,.747.322.679.679,0,0,1,.125.7l-8.88,22.284A.922.922,0,0,1,597.817,489.509Zm-14.861-1.553h14.2l8.262-20.731H574.7Z" transform="translate(-569.185 -461.675)" fill="#142756"/>
        <path id="Trazado_13949" data-name="Trazado 13949" d="M596.13,489.936H581.3c-.717,0-1.3-.283-1.3-.633v-3.914c0-.349.579-.632,1.3-.632H596.13c.716,0,1.3.283,1.3.632V489.3C597.425,489.652,596.846,489.936,596.13,489.936Zm-13.539-1.266h12.243v-2.648H582.591Z" transform="translate(-568.079 -458.861)" fill="#142756"/>
        <path id="Trazado_13950" data-name="Trazado 13950" d="M607.322,467.739h-33.68a3.357,3.357,0,0,1-2.918-1.544l-.913-1.591a1.451,1.451,0,0,1,.106-1.626,2.086,2.086,0,0,1,1.687-.788h37.758a2.086,2.086,0,0,1,1.687.788,1.451,1.451,0,0,1,.106,1.626l-.913,1.591A3.357,3.357,0,0,1,607.322,467.739Zm-35.719-4a.152.152,0,0,0-.129.061.1.1,0,0,0-.008.124l.913,1.593a1.453,1.453,0,0,0,1.262.668h33.68a1.453,1.453,0,0,0,1.262-.668l.913-1.593a.1.1,0,0,0-.008-.124.152.152,0,0,0-.129-.061Z" transform="translate(-569.611 -462.189)" fill="#142756"/>
      </g>
    </g>
    <g id="Grupo_4889" data-name="Grupo 4889" transform="translate(866.128 3116.554)">
      <path id="Trazado_13951" data-name="Trazado 13951" d="M578,445.773a76.974,76.974,0,0,1,1.527-14.111.605.605,0,0,1,.671-.485.616.616,0,0,1,.524.641c-.017.231-1.39,22.8,16.557,28.4a.6.6,0,0,1,.375.816l-1.052,2.438a.61.61,0,0,1-.35.329c-.306.11-7.554,2.639-12.9-1.931C579.781,458.819,577.994,453.428,578,445.773Zm1.774-8.013c-1.455,11.517.021,19.475,4.352,23.182,4.3,3.68,10.215,2.177,11.477,1.8l.68-1.579C583.973,456.962,580.637,445.078,579.773,437.761Z" transform="translate(-577.999 -431.172)" fill="#142756"/>
      <path id="Trazado_13952" data-name="Trazado 13952" d="M578.4,437.781c0-.064,0-.108,0-.132a.6.6,0,0,1,1.207.008v.045c0,.832.149,15.478,10.259,20.613a.6.6,0,0,1-.546,1.076C578.7,454,578.4,439.439,578.4,437.781Z" transform="translate(-577.939 -430.304)" fill="#142756"/>
      <path id="Trazado_13953" data-name="Trazado 13953" d="M596.136,460.2a.592.592,0,0,1,.041-.219l1.069-2.732a.6.6,0,1,1,1.125.438l-1.069,2.733a.6.6,0,0,1-1.166-.22Z" transform="translate(-575.325 -427.384)" fill="#142756"/>
    </g>
    <g id="Grupo_4890" data-name="Grupo 4890" transform="translate(867.258 3185.633)">
      <path id="Trazado_13954" data-name="Trazado 13954" d="M588.181,493.612h8.7c0,.955-3.926,1.74-8.7,1.74s-8.7-.785-8.7-1.74,3.926-1.738,8.7-1.738c3.541,0,6.745.433,8.068,1.089Z" transform="translate(-578.91 -491.3)" fill="#fff"/>
      <path id="Trazado_13955" data-name="Trazado 13955" d="M588.254,496c-.949,0-9.27-.065-9.27-2.313s8.321-2.312,9.27-2.312c3.65,0,6.916.451,8.323,1.149a.57.57,0,0,1,.312.59h.062a.573.573,0,0,1,.574.574C597.525,495.934,589.2,496,588.254,496Zm-8.054-2.313c.594.46,3.492,1.166,8.054,1.166a30.17,30.17,0,0,0,6.435-.592h-6.435a.573.573,0,0,1-.046-1.145l4.41-.355a38,38,0,0,0-4.364-.239C583.693,492.521,580.795,493.227,580.2,493.686Z" transform="translate(-578.984 -491.374)" fill="#142756"/>
    </g>
    <g id="Grupo_4891" data-name="Grupo 4891" transform="translate(867.258 3191.141)">
      <path id="Trazado_13956" data-name="Trazado 13956" d="M588.181,498.412h8.7c0,.955-3.926,1.74-8.7,1.74s-8.7-.785-8.7-1.74,3.926-1.738,8.7-1.738c3.541,0,6.745.433,8.068,1.089Z" transform="translate(-578.91 -496.1)" fill="#fff"/>
      <path id="Trazado_13957" data-name="Trazado 13957" d="M588.254,500.8c-.949,0-9.27-.065-9.27-2.313s8.321-2.312,9.27-2.312c3.65,0,6.916.451,8.323,1.149a.57.57,0,0,1,.312.59h.062a.573.573,0,0,1,.574.574C597.525,500.734,589.2,500.8,588.254,500.8Zm-8.054-2.313c.594.46,3.492,1.166,8.054,1.166a30.165,30.165,0,0,0,6.435-.592h-6.435a.573.573,0,0,1-.046-1.145l4.41-.355a38,38,0,0,0-4.364-.239C583.693,497.321,580.795,498.027,580.2,498.486Z" transform="translate(-578.984 -496.174)" fill="#142756"/>
    </g>
    <g id="Grupo_4892" data-name="Grupo 4892" transform="translate(867.258 3196.069)">
      <path id="Trazado_13958" data-name="Trazado 13958" d="M588.181,502.708h8.7c0,.955-3.926,1.74-8.7,1.74s-8.7-.785-8.7-1.74,3.926-1.74,8.7-1.74c3.541,0,6.745.433,8.068,1.09Z" transform="translate(-578.91 -500.395)" fill="#fff"/>
      <path id="Trazado_13959" data-name="Trazado 13959" d="M588.254,505.094c-.949,0-9.27-.065-9.27-2.313s8.321-2.312,9.27-2.312c3.65,0,6.916.451,8.323,1.147a.573.573,0,0,1,.312.591h.062a.573.573,0,0,1,.574.574C597.525,505.029,589.2,505.094,588.254,505.094Zm-8.054-2.313c.594.46,3.492,1.166,8.054,1.166a30.247,30.247,0,0,0,6.435-.592h-6.435a.573.573,0,0,1-.046-1.145l4.41-.355a38,38,0,0,0-4.364-.239C583.693,501.616,580.795,502.322,580.2,502.781Z" transform="translate(-578.984 -500.469)" fill="#142756"/>
    </g>
    <g id="Grupo_4893" data-name="Grupo 4893" transform="translate(867.258 3202.011)">
      <path id="Trazado_13960" data-name="Trazado 13960" d="M588.181,507.887h8.7c0,.955-3.926,1.74-8.7,1.74s-8.7-.785-8.7-1.74,3.926-1.74,8.7-1.74c3.541,0,6.745.433,8.068,1.09Z" transform="translate(-578.91 -505.573)" fill="#fff"/>
      <path id="Trazado_13961" data-name="Trazado 13961" d="M588.254,510.272c-.949,0-9.27-.064-9.27-2.312s8.321-2.313,9.27-2.313c3.651,0,6.917.452,8.323,1.151a.573.573,0,0,1,.313.589h.061a.572.572,0,0,1,.574.574C597.525,510.208,589.2,510.272,588.254,510.272ZM580.2,507.96c.594.459,3.492,1.165,8.054,1.165a30.258,30.258,0,0,0,6.435-.591h-6.435a.573.573,0,0,1-.046-1.145l4.412-.356a38.01,38.01,0,0,0-4.366-.239C583.693,506.794,580.795,507.5,580.2,507.96Z" transform="translate(-578.984 -505.647)" fill="#142756"/>
    </g>
    <g id="Grupo_5027" data-name="Grupo 5027" transform="translate(2 3)">
      <path id="Trazado_13962" data-name="Trazado 13962" d="M85.044,589.761s-47.518,22.612-66.423-2.9c0,0,14.306,38.845,70,13.335Z" transform="translate(205.647 2702.878)" fill="none" stroke="#142756" stroke-linecap="round" stroke-linejoin="round" stroke-width="2"/>
      <path id="Trazado_13963" data-name="Trazado 13963" d="M51.687,596.754s1.785-27.159,16.87-30.794c0,0-19.555-1.309-22.061,30.316Z" transform="translate(204.501 2705.256)" fill="none" stroke="#142756" stroke-linecap="round" stroke-linejoin="round" stroke-width="2"/>
      <path id="Trazado_13964" data-name="Trazado 13964" d="M62.3,596.754s1.785-27.159,16.87-30.794c0,0-19.555-1.309-22.06,30.316Z" transform="translate(204.064 2705.256)" fill="none" stroke="#142756" stroke-linecap="round" stroke-linejoin="round" stroke-width="2"/>
    </g>
  </g>
</svg>
