<svg xmlns="http://www.w3.org/2000/svg" width="725.198" height="533.925" viewBox="0 0 725.198 533.925">
  <g id="Grupo_5026" data-name="Grupo 5026" transform="translate(-211.238 -1734.047)">
    <g id="Grupo_4950" data-name="Grupo 4950" transform="translate(417.148 1836.548)">
      <circle id="Elipse_1366" data-name="Elipse 1366" cx="103.143" cy="103.143" r="103.143" transform="translate(0 145.867) rotate(-45)" fill="#f6df86"/>
      <path id="Trazado_14019" data-name="Trazado 14019" d="M347.32,133.259A115.428,115.428,0,1,0,462.747,248.687,115.428,115.428,0,0,0,347.32,133.259Zm0,223.537A108.109,108.109,0,1,1,455.428,248.687,108.109,108.109,0,0,1,347.32,356.8Z" transform="translate(-201.453 -102.82)" fill="#f6df86"/>
    </g>
    <circle id="Elipse_1367" data-name="Elipse 1367" cx="129.576" cy="129.576" r="129.576" transform="translate(379.767 1982.414) rotate(-45)" fill="none" stroke="#f6df86" stroke-miterlimit="10" stroke-width="1.981"/>
    <g id="Grupo_4951" data-name="Grupo 4951" transform="translate(471.129 1946.736)">
      <text id="PROCESO_Y_TRANSFORMACIÓN" data-name="PROCESO Y 
TRANSFORMACIÓN" transform="translate(92 17)" fill="#2d3c56" font-size="18" font-family="Montserrat-Bold, Montserrat" font-weight="700"><tspan x="-57.861" y="0">PROCESO Y </tspan><tspan x="-91.8" y="22">TRANSFORMACIÓN</tspan></text>
      <text id="DE_LA_MATERIA_PRIMA" data-name="DE LA MATERIA
PRIMA" transform="translate(84.437 62.304)" fill="#2d3c56" font-size="18" font-family="Montserrat-Bold, Montserrat" font-weight="700"><tspan x="-74.187" y="0">DE LA MATERIA</tspan><tspan x="-31.554" y="22">PRIMA</tspan></text>
    </g>
    <g id="Grupo_4952" data-name="Grupo 4952" transform="translate(461.027 1880.426)">
      <circle id="Elipse_1368" data-name="Elipse 1368" cx="5.907" cy="5.907" r="5.907" transform="translate(4.457 4.458)" fill="#78933e"/>
      <path id="Trazado_14020" data-name="Trazado 14020" d="M254.428,166.162a10.365,10.365,0,1,1,7.333-3.033A10.336,10.336,0,0,1,254.428,166.162Zm0-18.544a8.179,8.179,0,1,0,5.787,2.392A8.163,8.163,0,0,0,254.428,147.618Z" transform="translate(-244.065 -145.433)" fill="#78933e"/>
    </g>
    <g id="Grupo_4953" data-name="Grupo 4953" transform="translate(512.592 1848.112)">
      <circle id="Elipse_1369" data-name="Elipse 1369" cx="5.907" cy="5.907" r="5.907" transform="translate(4.457 4.458)" fill="#846e63"/>
      <path id="Trazado_14021" data-name="Trazado 14021" d="M301.136,136.894a10.366,10.366,0,1,1,7.332-3.033A10.337,10.337,0,0,1,301.136,136.894Zm0-18.544a8.179,8.179,0,1,0,5.786,2.392A8.159,8.159,0,0,0,301.136,118.35Z" transform="translate(-290.772 -116.163)" fill="#846e63"/>
    </g>
    <g id="Grupo_4954" data-name="Grupo 4954" transform="translate(588.315 1844.922)">
      <circle id="Elipse_1370" data-name="Elipse 1370" cx="5.907" cy="5.907" r="5.907" transform="translate(4.458 4.458)" fill="#78933e"/>
      <path id="Trazado_14022" data-name="Trazado 14022" d="M369.725,134a10.365,10.365,0,1,1,7.333-3.033A10.339,10.339,0,0,1,369.725,134Zm0-18.543a8.179,8.179,0,1,0,5.786,2.392A8.156,8.156,0,0,0,369.725,115.46Z" transform="translate(-359.362 -113.273)" fill="#78933e"/>
    </g>
    <g id="Grupo_4955" data-name="Grupo 4955" transform="translate(643.07 1878.153)">
      <circle id="Elipse_1371" data-name="Elipse 1371" cx="5.907" cy="5.907" r="5.907" transform="translate(4.457 4.458)" fill="#846e63"/>
      <path id="Trazado_14023" data-name="Trazado 14023" d="M419.32,164.1a10.365,10.365,0,1,1,7.333-3.033A10.336,10.336,0,0,1,419.32,164.1Zm0-18.543a8.179,8.179,0,1,0,5.787,2.392A8.158,8.158,0,0,0,419.32,145.56Z" transform="translate(-408.958 -143.373)" fill="#846e63"/>
    </g>
    <g id="Grupo_4956" data-name="Grupo 4956" transform="translate(678.44 1933.924)">
      <circle id="Elipse_1372" data-name="Elipse 1372" cx="5.907" cy="5.907" r="5.907" transform="translate(4.458 4.458)" fill="#84afa7"/>
      <path id="Trazado_14024" data-name="Trazado 14024" d="M451.359,214.62a10.365,10.365,0,1,1,7.332-3.033A10.337,10.337,0,0,1,451.359,214.62Zm0-18.544a8.179,8.179,0,1,0,5.786,2.392A8.159,8.159,0,0,0,451.359,196.076Z" transform="translate(-440.995 -193.891)" fill="#84afa7"/>
    </g>
    <g id="Grupo_4957" data-name="Grupo 4957" transform="translate(678.442 2005.246)">
      <circle id="Elipse_1373" data-name="Elipse 1373" cx="5.907" cy="5.907" r="5.907" transform="translate(4.457 4.458)" fill="#78933e"/>
      <path id="Trazado_14025" data-name="Trazado 14025" d="M451.361,279.223a10.366,10.366,0,1,1,7.332-3.034A10.334,10.334,0,0,1,451.361,279.223Zm0-18.544a8.179,8.179,0,1,0,5.786,2.392A8.159,8.159,0,0,0,451.361,260.679Z" transform="translate(-440.997 -258.492)" fill="#78933e"/>
    </g>
    <g id="Grupo_4958" data-name="Grupo 4958" transform="translate(638.614 2069.793)">
      <circle id="Elipse_1374" data-name="Elipse 1374" cx="5.907" cy="5.907" r="5.907" transform="translate(4.458 4.458)" fill="#846e63"/>
      <path id="Trazado_14026" data-name="Trazado 14026" d="M415.285,337.689a10.365,10.365,0,1,1,7.332-3.033A10.337,10.337,0,0,1,415.285,337.689Zm0-18.544a8.179,8.179,0,1,0,5.786,2.392A8.163,8.163,0,0,0,415.285,319.145Z" transform="translate(-404.922 -316.959)" fill="#846e63"/>
    </g>
    <g id="Grupo_4959" data-name="Grupo 4959" transform="translate(562.276 2099.176)">
      <circle id="Elipse_1375" data-name="Elipse 1375" cx="5.907" cy="5.907" r="5.907" transform="translate(4.458 4.458)" fill="#84afa7"/>
      <path id="Trazado_14027" data-name="Trazado 14027" d="M346.139,364.3a10.366,10.366,0,1,1,7.332-3.033A10.337,10.337,0,0,1,346.139,364.3Zm0-18.544a8.179,8.179,0,1,0,5.786,2.392A8.159,8.159,0,0,0,346.139,345.76Z" transform="translate(-335.776 -343.574)" fill="#84afa7"/>
    </g>
    <g id="Grupo_4960" data-name="Grupo 4960" transform="translate(480.05 2080.159)">
      <circle id="Elipse_1376" data-name="Elipse 1376" cx="5.907" cy="5.907" r="5.907" transform="translate(4.458 4.458)" fill="#78933e"/>
      <path id="Trazado_14028" data-name="Trazado 14028" d="M271.66,347.077a10.365,10.365,0,1,1,7.333-3.033A10.339,10.339,0,0,1,271.66,347.077Zm0-18.544a8.179,8.179,0,1,0,5.786,2.392A8.159,8.159,0,0,0,271.66,328.533Z" transform="translate(-261.297 -326.348)" fill="#78933e"/>
    </g>
    <g id="Grupo_4961" data-name="Grupo 4961" transform="translate(428.127 1940.654)">
      <circle id="Elipse_1377" data-name="Elipse 1377" cx="5.907" cy="5.907" r="5.907" transform="translate(4.458 4.458)" fill="#84afa7"/>
      <path id="Trazado_14029" data-name="Trazado 14029" d="M224.629,220.716a10.365,10.365,0,1,1,7.332-3.033A10.339,10.339,0,0,1,224.629,220.716Zm0-18.544a8.179,8.179,0,1,0,5.786,2.392A8.159,8.159,0,0,0,224.629,202.172Z" transform="translate(-214.266 -199.986)" fill="#84afa7"/>
    </g>
    <g id="Grupo_4962" data-name="Grupo 4962" transform="translate(431.749 2021.924)">
      <circle id="Elipse_1378" data-name="Elipse 1378" cx="5.907" cy="5.907" r="5.907" transform="translate(4.458 4.458)" fill="#846e63"/>
      <path id="Trazado_14030" data-name="Trazado 14030" d="M227.909,294.329a10.365,10.365,0,1,1,7.333-3.033A10.336,10.336,0,0,1,227.909,294.329Zm0-18.544a8.179,8.179,0,1,0,5.786,2.392A8.161,8.161,0,0,0,227.909,275.785Z" transform="translate(-217.546 -273.599)" fill="#846e63"/>
    </g>
    <path id="Trazado_14031" data-name="Trazado 14031" d="M263.748,159.916,203.5,105.834H156.541" transform="translate(207.857 1730.875)" fill="none" stroke="#78933e" stroke-miterlimit="10" stroke-width="1"/>
    <path id="Trazado_14032" data-name="Trazado 14032" d="M64.388,85.849a23.723,23.723,0,0,1,0,31.818H170.6V85.849Z" transform="translate(198.272 1728.796)" fill="#78933e"/>
    <text id="Fruto" transform="translate(332.435 1837.715)" fill="#fff" font-size="19" font-family="OpenSans, Open Sans" letter-spacing="0.025em"><tspan x="-49.307" y="0">Fruto</tspan></text>
    <circle id="Elipse_1379" data-name="Elipse 1379" cx="20.111" cy="20.111" r="20.111" transform="translate(223.879 1810.442)" fill="#78933e"/>
    <text id="_01" data-name="01" transform="translate(255.436 1837.566)" fill="#fff" font-size="20" font-family="OpenSans-Bold, Open Sans" font-weight="700" letter-spacing="0.025em"><tspan x="-23.332" y="0">01</tspan></text>
    <text id="Fruto_pelado." data-name="Fruto pelado." transform="translate(370.284 1811.561)" fill="#142756" font-size="16" font-family="CerebriSans-Regular, Cerebri Sans" letter-spacing="0.025em"><tspan x="14.84" y="16">Fruto pelado.</tspan></text>
    <path id="Trazado_14033" data-name="Trazado 14033" d="M508.924,62.624a23.723,23.723,0,0,1,0,31.818H615.139V62.624Z" transform="translate(244.51 1726.38)" fill="#78933e"/>
    <text id="Patacón" transform="translate(842.981 1811.193)" fill="#fff" font-size="19" font-family="OpenSans, Open Sans" letter-spacing="0.025em"><tspan x="-74.313" y="0">Patacón</tspan></text>
    <circle id="Elipse_1380" data-name="Elipse 1380" cx="20.111" cy="20.111" r="20.111" transform="translate(714.653 1784.802)" fill="#78933e"/>
    <text id="_03" data-name="03" transform="translate(746.21 1811.926)" fill="#fff" font-size="20" font-family="OpenSans-Bold, Open Sans" font-weight="700" letter-spacing="0.025em"><tspan x="-23.332" y="0">03</tspan></text>
    <text id="Patacón_o_tostón_prefrito_y_congelado." data-name="Patacón o tostón prefrito y congelado." transform="translate(753.435 1822.188)" fill="#142756" font-size="16" font-family="CerebriSans-Regular, Cerebri Sans" letter-spacing="0.025em"><tspan x="0" y="16">Patacón o tostón </tspan><tspan x="0" y="35.2">prefrito y congelado.</tspan></text>
    <path id="Trazado_14034" data-name="Trazado 14034" d="M508.924,143.7a23.721,23.721,0,0,1,0,31.817H615.139V143.7Z" transform="translate(244.51 1734.813)" fill="#846e63"/>
    <text id="Tajadas" transform="translate(844.13 1900.429)" fill="#fff" font-size="19" font-family="OpenSans, Open Sans" letter-spacing="0.025em"><tspan x="-69.053" y="0">Tajadas</tspan></text>
    <circle id="Elipse_1381" data-name="Elipse 1381" cx="20.111" cy="20.111" r="20.111" transform="translate(714.653 1874.306)" fill="#846e63"/>
    <text id="_04" data-name="04" transform="translate(746.21 1901.429)" fill="#fff" font-size="20" font-family="OpenSans-Bold, Open Sans" font-weight="700" letter-spacing="0.025em"><tspan x="-23.332" y="0">04</tspan></text>
    <text id="Tajadas_maduras_refrigeradas." data-name="Tajadas maduras refrigeradas." transform="translate(753.435 1911.691)" fill="#142756" font-size="16" font-family="CerebriSans-Regular, Cerebri Sans" letter-spacing="0.025em"><tspan x="0" y="16">Tajadas maduras </tspan><tspan x="0" y="35.2">refrigeradas.</tspan></text>
    <path id="Trazado_14035" data-name="Trazado 14035" d="M508.924,307.475a23.721,23.721,0,0,1,0,31.817H615.139V307.475Z" transform="translate(244.51 1751.848)" fill="#78933e"/>
    <text id="Plátanos" transform="translate(846.505 2081.244)" fill="#fff" font-size="19" font-family="OpenSans, Open Sans" letter-spacing="0.025em"><tspan x="-79.613" y="0">Plátanos</tspan></text>
    <circle id="Elipse_1382" data-name="Elipse 1382" cx="20.111" cy="20.111" r="20.111" transform="translate(714.653 2055.12)" fill="#78933e"/>
    <text id="_06" data-name="06" transform="translate(745.21 2082.244)" fill="#fff" font-size="20" font-family="OpenSans-Bold, Open Sans" font-weight="700" letter-spacing="0.025em"><tspan x="-23.332" y="0">06</tspan></text>
    <text id="Plátanos_deshidratados_o_congelados." data-name="Plátanos deshidratados o congelados." transform="translate(753.435 2092.506)" fill="#142756" font-size="16" font-family="CerebriSans-Regular, Cerebri Sans" letter-spacing="0.025em"><tspan x="0" y="16">Plátanos deshidratados </tspan><tspan x="0" y="35.2">o congelados.</tspan></text>
    <path id="Trazado_14036" data-name="Trazado 14036" d="M412.553,402.1a23.723,23.723,0,0,1,0,31.818H518.768V402.1Z" transform="translate(234.486 1761.69)" fill="#846e63"/>
    <text id="Harinas" transform="translate(736.631 2184.608)" fill="#fff" font-size="19" font-family="OpenSans, Open Sans" letter-spacing="0.025em"><tspan x="-71.289" y="0">Harinas</tspan></text>
    <circle id="Elipse_1383" data-name="Elipse 1383" cx="20.111" cy="20.111" r="20.111" transform="translate(608.258 2159.588)" fill="#846e63"/>
    <text id="_07" data-name="07" transform="translate(639.816 2186.712)" fill="#fff" font-size="20" font-family="OpenSans-Bold, Open Sans" font-weight="700" letter-spacing="0.025em"><tspan x="-23.332" y="0">07</tspan></text>
    <text id="Harinas_para_consumo_humano." data-name="Harinas para consumo humano." transform="translate(647.041 2196.973)" fill="#142756" font-size="16" font-family="CerebriSans-Regular, Cerebri Sans" letter-spacing="0.025em"><tspan x="0" y="16">Harinas para consumo </tspan><tspan x="0" y="35.2">humano.</tspan></text>
    <path id="Trazado_14037" data-name="Trazado 14037" d="M229.691,391.154a23.721,23.721,0,0,1,0,31.817H357.686V391.154Z" transform="translate(215.466 1760.552)" fill="#84afa7"/>
    <text id="Alimentos" transform="translate(557.26 2174.73)" fill="#fff" font-size="19" font-family="OpenSans, Open Sans" letter-spacing="0.025em"><tspan x="-92.677" y="0">Alimentos</tspan></text>
    <circle id="Elipse_1384" data-name="Elipse 1384" cx="20.111" cy="20.111" r="20.111" transform="translate(406.376 2147.503)" fill="#84afa7"/>
    <text id="_08" data-name="08" transform="translate(437.933 2174.627)" fill="#fff" font-size="20" font-family="OpenSans-Bold, Open Sans" font-weight="700" letter-spacing="0.025em"><tspan x="-23.332" y="0">08</tspan></text>
    <text id="Alimentos_para_concentrados_de_animales." data-name="Alimentos para concentrados de animales." transform="translate(445.158 2184.888)" fill="#142756" font-size="16" font-family="CerebriSans-Regular, Cerebri Sans" letter-spacing="0.025em"><tspan x="0" y="16">Alimentos para </tspan><tspan x="0" y="35.2">concentrados de </tspan><tspan x="0" y="54.4">animales.</tspan></text>
    <path id="Trazado_14038" data-name="Trazado 14038" d="M52.938,391.691a23.723,23.723,0,0,1,0,31.818H199.53V391.691Z" transform="translate(197.081 1760.607)" fill="#78933e"/>
    <text id="Preparación" transform="translate(381.129 2174.221)" fill="#fff" font-size="19" font-family="OpenSans, Open Sans" letter-spacing="0.025em"><tspan x="-111.365" y="0">Preparación</tspan></text>
    <circle id="Elipse_1385" data-name="Elipse 1385" cx="20.111" cy="20.111" r="20.111" transform="translate(211.238 2148.097)" fill="#78933e"/>
    <text id="_09" data-name="09" transform="translate(242.795 2175.221)" fill="#fff" font-size="20" font-family="OpenSans-Bold, Open Sans" font-weight="700" letter-spacing="0.025em"><tspan x="-23.332" y="0">09</tspan></text>
    <text id="Preparación_de_cereales_en_hojuelas." data-name="Preparación de cereales en hojuelas." transform="translate(250.02 2185.482)" fill="#142756" font-size="16" font-family="CerebriSans-Regular, Cerebri Sans" letter-spacing="0.025em"><tspan x="0" y="16">Preparación de </tspan><tspan x="0" y="35.2">cereales en </tspan><tspan x="0" y="54.4">hojuelas.</tspan></text>
    <path id="Trazado_14039" data-name="Trazado 14039" d="M52.938,285.536a23.723,23.723,0,0,1,0,31.818H199.53V285.536Z" transform="translate(197.081 1749.566)" fill="#846e63"/>
    <text id="Preparación-2" data-name="Preparación" transform="translate(381.129 2057.024)" fill="#fff" font-size="19" font-family="OpenSans, Open Sans" letter-spacing="0.025em"><tspan x="-111.365" y="0">Preparación</tspan></text>
    <circle id="Elipse_1386" data-name="Elipse 1386" cx="20.111" cy="20.111" r="20.111" transform="translate(211.238 2030.9)" fill="#846e63"/>
    <text id="_10" data-name="10" transform="translate(240.795 2058.024)" fill="#fff" font-size="20" font-family="OpenSans-Bold, Open Sans" font-weight="700" letter-spacing="0.025em"><tspan x="-23.332" y="0">10</tspan></text>
    <text id="Preparación_de_pastas." data-name="Preparación de pastas." transform="translate(250.02 2068.285)" fill="#142756" font-size="16" font-family="CerebriSans-Regular, Cerebri Sans" letter-spacing="0.025em"><tspan x="0" y="16">Preparación de </tspan><tspan x="0" y="35.2">pastas.</tspan></text>
    <path id="Trazado_14040" data-name="Trazado 14040" d="M52.938,157.2a23.721,23.721,0,0,1,0,31.817H199.53V157.2Z" transform="translate(197.081 1736.217)" fill="#84afa7"/>
    <text id="Preparación-3" data-name="Preparación" transform="translate(381.129 1916.438)" fill="#fff" font-size="19" font-family="OpenSans, Open Sans" letter-spacing="0.025em"><tspan x="-111.365" y="0">Preparación</tspan></text>
    <circle id="Elipse_1387" data-name="Elipse 1387" cx="20.111" cy="20.111" r="20.111" transform="translate(211.238 1889.209)" fill="#84afa7"/>
    <text id="_11" data-name="11" transform="translate(241.795 1916.333)" fill="#fff" font-size="20" font-family="OpenSans-Bold, Open Sans" font-weight="700" letter-spacing="0.025em"><tspan x="-23.332" y="0">11</tspan></text>
    <text id="Preparación_de_encurtidos_entre_otros." data-name="Preparación de encurtidos, entre otros." transform="translate(221.572 1931.615)" fill="#142756" font-size="16" font-family="CerebriSans-Regular, Cerebri Sans" letter-spacing="0.025em"><tspan x="0" y="16">Preparación de encurtidos, </tspan><tspan x="0" y="35.2">entre otros.</tspan></text>
    <path id="Trazado_14041" data-name="Trazado 14041" d="M199.463,16.845a22.78,22.78,0,0,1,0,31.817H311.739V16.845Z" transform="translate(212.322 1721.619)" fill="#846e63"/>
    <text id="Snack" transform="translate(485.949 1760.127)" fill="#fff" font-size="19" font-family="OpenSans, Open Sans" letter-spacing="0.025em"><tspan x="-53.575" y="0">Snack</tspan></text>
    <circle id="Elipse_1388" data-name="Elipse 1388" cx="20.111" cy="20.111" r="20.111" transform="translate(371.9 1734.261)" fill="#846e63"/>
    <text id="_02" data-name="02" transform="translate(403.457 1761.384)" fill="#fff" font-size="20" font-family="OpenSans-Bold, Open Sans" font-weight="700" letter-spacing="0.025em"><tspan x="-23.332" y="0">02</tspan></text>
    <line id="Línea_137" data-name="Línea 137" y1="107.55" transform="translate(522.954 1747.737)" fill="none" stroke="#846e63" stroke-linecap="round" stroke-linejoin="round" stroke-width="1"/>
    <text id="Snack_maduro_y_verde." data-name="Snack maduro y verde." transform="translate(529.461 1734.047)" fill="#142756" font-size="16" font-family="CerebriSans-Regular, Cerebri Sans" letter-spacing="0.025em"><tspan x="0" y="16">Snack maduro y </tspan><tspan x="0" y="35.2">verde.</tspan></text>
    <path id="Trazado_14042" data-name="Trazado 14042" d="M368.75,127.408l39.934-50.374h76.039" transform="translate(229.93 1727.879)" fill="none" stroke="#78933e" stroke-miterlimit="10" stroke-width="1"/>
    <line id="Línea_138" data-name="Línea 138" x2="65.498" transform="translate(653.433 1888.518)" fill="none" stroke="#846e63" stroke-linecap="round" stroke-linejoin="round" stroke-width="1"/>
    <path id="Trazado_14043" data-name="Trazado 14043" d="M508.924,228.92a23.723,23.723,0,0,1,0,31.818H666.032V228.92Z" transform="translate(244.51 1743.677)" fill="#84afa7"/>
    <text id="Aborrajados." transform="translate(891.014 1994.519)" fill="#fff" font-size="19" font-family="OpenSans, Open Sans" letter-spacing="0.025em"><tspan x="-118.678" y="0">Aborrajados.</tspan></text>
    <circle id="Elipse_1389" data-name="Elipse 1389" cx="20.111" cy="20.111" r="20.111" transform="translate(714.653 1968.396)" fill="#84afa7"/>
    <text id="_05" data-name="05" transform="translate(746.21 1995.519)" fill="#fff" font-size="20" font-family="OpenSans-Bold, Open Sans" font-weight="700" letter-spacing="0.025em"><tspan x="-23.332" y="0">05</tspan></text>
    <text id="Aborrajados.-2" data-name="Aborrajados." transform="translate(753.435 2005.781)" fill="#142756" font-size="16" font-family="CerebriSans-Regular, Cerebri Sans" letter-spacing="0.025em"><tspan x="0" y="16">Aborrajados.</tspan></text>
    <path id="Trazado_14044" data-name="Trazado 14044" d="M450.383,203.278l47.713.823v27.486" transform="translate(238.421 1741.01)" fill="none" stroke="#84afa7" stroke-miterlimit="10" stroke-width="1"/>
    <path id="Trazado_14045" data-name="Trazado 14045" d="M450.385,267.881h49.37v43.712" transform="translate(238.421 1747.729)" fill="none" stroke="#78933e" stroke-miterlimit="10" stroke-width="1"/>
    <path id="Trazado_14046" data-name="Trazado 14046" d="M295.092,335.736H215.359v36.942H36.027v20.631" transform="translate(195.322 1754.788)" fill="none" stroke="#78933e" stroke-miterlimit="10" stroke-width="1"/>
    <line id="Línea_139" data-name="Línea 139" x1="191.929" y2="1.318" transform="translate(250.184 2034.497)" fill="none" stroke="#846e63" stroke-linecap="round" stroke-linejoin="round" stroke-width="1"/>
    <path id="Trazado_14047" data-name="Trazado 14047" d="M241.41,211.8,213.6,186.014l-160.662.173" transform="translate(197.081 1739.215)" fill="none" stroke="#84afa7" stroke-miterlimit="10" stroke-width="1"/>
    <line id="Línea_140" data-name="Línea 140" y2="63.616" transform="translate(572.639 2119.906)" fill="none" stroke="#84afa7" stroke-miterlimit="10" stroke-width="1"/>
    <line id="Línea_141" data-name="Línea 141" y2="73.345" transform="translate(648.977 2090.523)" fill="none" stroke="#846e63" stroke-linecap="round" stroke-linejoin="round" stroke-width="1"/>
  </g>
</svg>
