<svg xmlns="http://www.w3.org/2000/svg" viewBox="0 0 481.08 381.79"><defs><style>.cls-1{fill:#aecc53;}.cls-2{fill:#58762a;}.cls-3{fill:#fff;}.cls-4{fill:#71b84c;opacity:0.5;}.cls-5{fill:#d0d950;}.cls-6{fill:#89a6c4;}</style></defs><g id="Capa_2" data-name="Capa 2"><g id="Capa_1-2" data-name="Capa 1"><rect class="cls-1" x="178.68" y="305.79" width="123" height="76" rx="12"/><rect class="cls-1" x="23.81" y="305.79" width="123" height="76" rx="12"/><rect class="cls-1" x="23.81" y="175.59" width="123" height="76" rx="12"/><rect class="cls-1" x="178.68" y="175.59" width="123" height="76" rx="12"/><path class="cls-2" d="M8.29,5.63a4.93,4.93,0,0,1-1.4,3.78,5.72,5.72,0,0,1-4.06,1.32H0V.73H3.14A5.29,5.29,0,0,1,6.94,2,4.77,4.77,0,0,1,8.29,5.63Zm-2.2.06q0-3.23-2.84-3.22H2.12V9H3Q6.09,9,6.09,5.69Z"/><path class="cls-2" d="M10.11,1.11q0-1,1.14-1c.75,0,1.13.34,1.13,1a1,1,0,0,1-.28.75,1.2,1.2,0,0,1-.85.27Q10.11,2.13,10.11,1.11Zm2.17,9.62H10.2V3.08h2.08Z"/><path class="cls-2" d="M19.33,10.73l-.41-1h-.05a3.13,3.13,0,0,1-1.09.92,3.5,3.5,0,0,1-1.45.25,2.34,2.34,0,0,1-1.73-.63A2.41,2.41,0,0,1,14,8.44a2,2,0,0,1,.85-1.79A4.84,4.84,0,0,1,17.38,6l1.33,0V5.63a1,1,0,0,0-1.19-1.16A5.54,5.54,0,0,0,15.37,5l-.69-1.4a6.2,6.2,0,0,1,2.92-.69A3.63,3.63,0,0,1,20,3.6a2.44,2.44,0,0,1,.82,2v5.1Zm-.62-3.55-.81,0a2.62,2.62,0,0,0-1.35.33,1,1,0,0,0-.44.92c0,.58.33.88,1,.88a1.6,1.6,0,0,0,1.16-.42,1.47,1.47,0,0,0,.43-1.11Z"/><path class="cls-2" d="M29.58,3.08V4.14l-1.2.31a2.06,2.06,0,0,1,.33,1.15,2.33,2.33,0,0,1-.86,1.92,3.75,3.75,0,0,1-2.38.68l-.38,0-.3,0a.66.66,0,0,0-.32.55q0,.45,1.14.45h1.3a3,3,0,0,1,1.92.54,1.93,1.93,0,0,1,.66,1.58,2.34,2.34,0,0,1-1.12,2.08,5.82,5.82,0,0,1-3.21.74,4.45,4.45,0,0,1-2.44-.56A1.77,1.77,0,0,1,21.88,12a1.63,1.63,0,0,1,.43-1.16,2.37,2.37,0,0,1,1.26-.66A1.4,1.4,0,0,1,23,9.7a1.09,1.09,0,0,1,0-1.38,2.81,2.81,0,0,1,.73-.57,2.14,2.14,0,0,1-.95-.84,2.56,2.56,0,0,1-.35-1.35,2.4,2.4,0,0,1,.81-1.94,3.56,3.56,0,0,1,2.33-.68,5.86,5.86,0,0,1,.76.06l.56.08Zm-5.9,8.73a.76.76,0,0,0,.41.67,2.22,2.22,0,0,0,1.16.25A4.05,4.05,0,0,0,27,12.42a.93.93,0,0,0,.63-.84.58.58,0,0,0-.37-.59,3,3,0,0,0-1.16-.17H25a1.6,1.6,0,0,0-1,.27A.84.84,0,0,0,23.68,11.81Zm.76-6.23a1.55,1.55,0,0,0,.28,1,1,1,0,0,0,.87.36,1,1,0,0,0,.86-.36,1.62,1.62,0,0,0,.27-1c0-.92-.38-1.38-1.13-1.38S24.44,4.66,24.44,5.58Z"/><path class="cls-2" d="M35.1,2.94a3.55,3.55,0,0,1,.71.06l-.16,2a2.65,2.65,0,0,0-2.17.44,1.86,1.86,0,0,0-.56,1.44v3.89H30.84V3.08h1.58l.3,1.29h.11a2.74,2.74,0,0,1,1-1A2.36,2.36,0,0,1,35.1,2.94Z"/><path class="cls-2" d="M42.05,10.73l-.41-1h0a3.2,3.2,0,0,1-1.08.92,3.58,3.58,0,0,1-1.46.25,2.34,2.34,0,0,1-1.73-.63,2.41,2.41,0,0,1-.63-1.79,2,2,0,0,1,.85-1.79A4.88,4.88,0,0,1,40.11,6l1.32,0V5.63a1,1,0,0,0-1.19-1.16A5.58,5.58,0,0,0,38.09,5l-.69-1.4a6.21,6.21,0,0,1,2.93-.69,3.6,3.6,0,0,1,2.35.67,2.44,2.44,0,0,1,.82,2v5.1Zm-.62-3.55-.8,0a2.63,2.63,0,0,0-1.36.33,1,1,0,0,0-.44.92c0,.58.34.88,1,.88A1.6,1.6,0,0,0,41,8.92a1.47,1.47,0,0,0,.43-1.11Z"/><path class="cls-2" d="M52.49,10.73H50.41V6.26A2.21,2.21,0,0,0,50.13,5a1,1,0,0,0-.87-.41,1.25,1.25,0,0,0-1.16.59,3.85,3.85,0,0,0-.36,1.93v3.6H45.65V3.08h1.59l.28,1h.12a2,2,0,0,1,.89-.82,2.86,2.86,0,0,1,1.33-.3,2.41,2.41,0,0,1,2.33,1.12h.18a2.16,2.16,0,0,1,.91-.83,3.08,3.08,0,0,1,1.35-.29,2.63,2.63,0,0,1,2,.67,2.88,2.88,0,0,1,.67,2.13v5H55.17V6.26A2.3,2.3,0,0,0,54.89,5,1,1,0,0,0,54,4.61a1.32,1.32,0,0,0-1.15.54,3.16,3.16,0,0,0-.38,1.74Z"/><path class="cls-2" d="M64.25,10.73l-.4-1h-.06a3.2,3.2,0,0,1-1.08.92,3.53,3.53,0,0,1-1.45.25,2.37,2.37,0,0,1-1.74-.63,2.41,2.41,0,0,1-.63-1.79,2,2,0,0,1,.85-1.79A4.9,4.9,0,0,1,62.31,6l1.33,0V5.63a1,1,0,0,0-1.19-1.16A5.62,5.62,0,0,0,60.29,5l-.69-1.4a6.24,6.24,0,0,1,2.93-.69,3.65,3.65,0,0,1,2.36.67,2.47,2.47,0,0,1,.82,2v5.1Zm-.61-3.55-.81,0a2.56,2.56,0,0,0-1.35.33,1,1,0,0,0-.45.92c0,.58.34.88,1,.88a1.59,1.59,0,0,0,1.16-.42,1.48,1.48,0,0,0,.44-1.11Z"/><path class="cls-2" d="M73.91,10.86a2.51,2.51,0,0,1-2.12-1A4.85,4.85,0,0,1,71,6.92,4.82,4.82,0,0,1,71.81,4,2.53,2.53,0,0,1,74,2.94a2.5,2.5,0,0,1,2.21,1.12h.06a8.94,8.94,0,0,1-.15-1.52V.09h2.09V10.73h-1.6l-.4-1h-.09A2.38,2.38,0,0,1,73.91,10.86Zm.73-1.66a1.4,1.4,0,0,0,1.17-.46,2.68,2.68,0,0,0,.41-1.58V6.93a3.12,3.12,0,0,0-.38-1.76,1.39,1.39,0,0,0-1.23-.54,1.23,1.23,0,0,0-1.09.6A3.2,3.2,0,0,0,73.14,7a3,3,0,0,0,.39,1.69A1.28,1.28,0,0,0,74.64,9.2Z"/><path class="cls-2" d="M83.81,10.86a4,4,0,0,1-2.89-1,3.86,3.86,0,0,1-1-2.88,4.25,4.25,0,0,1,1-3A3.89,3.89,0,0,1,86,3.86a3.48,3.48,0,0,1,.91,2.55v1H82a2,2,0,0,0,.52,1.39,1.87,1.87,0,0,0,1.38.5,6.12,6.12,0,0,0,1.31-.14,6.94,6.94,0,0,0,1.29-.46v1.61a5.24,5.24,0,0,1-1.17.41A7.35,7.35,0,0,1,83.81,10.86Zm-.3-6.44a1.31,1.31,0,0,0-1,.42A1.92,1.92,0,0,0,82,6H85a1.75,1.75,0,0,0-.4-1.2A1.37,1.37,0,0,0,83.51,4.42Z"/><path class="cls-2" d="M96.46,10.86a2.53,2.53,0,0,1-2.12-1h-.11c.08.64.11,1,.11,1.11v3.1H92.26v-11H94l.3,1h.09a2.43,2.43,0,0,1,2.17-1.13A2.48,2.48,0,0,1,98.63,4a4.81,4.81,0,0,1,.76,2.9A5.73,5.73,0,0,1,99,9a2.92,2.92,0,0,1-1,1.37A2.56,2.56,0,0,1,96.46,10.86Zm-.62-6.25a1.35,1.35,0,0,0-1.13.47,2.72,2.72,0,0,0-.37,1.57v.23a3.13,3.13,0,0,0,.37,1.76,1.29,1.29,0,0,0,1.16.53c.93,0,1.4-.77,1.4-2.31a3.3,3.3,0,0,0-.35-1.69A1.16,1.16,0,0,0,95.84,4.61Z"/><path class="cls-2" d="M105.38,2.94a3.48,3.48,0,0,1,.71.06l-.16,2a2.65,2.65,0,0,0-2.17.44,1.86,1.86,0,0,0-.56,1.44v3.89h-2.08V3.08h1.58l.3,1.29h.11a2.74,2.74,0,0,1,1-1A2.36,2.36,0,0,1,105.38,2.94Z"/><path class="cls-2" d="M114.42,6.89a4.14,4.14,0,0,1-1,2.92,3.59,3.59,0,0,1-2.75,1,3.85,3.85,0,0,1-1.94-.48A3.19,3.19,0,0,1,107.46,9,4.71,4.71,0,0,1,107,6.89,4.08,4.08,0,0,1,108,4a3.59,3.59,0,0,1,2.75-1,3.85,3.85,0,0,1,1.94.48A3.17,3.17,0,0,1,114,4.79,4.64,4.64,0,0,1,114.42,6.89Zm-5.28,0a3.21,3.21,0,0,0,.37,1.72,1.34,1.34,0,0,0,1.21.58,1.29,1.29,0,0,0,1.2-.58,3.21,3.21,0,0,0,.37-1.72,3.2,3.2,0,0,0-.37-1.7,1.34,1.34,0,0,0-1.21-.57,1.35,1.35,0,0,0-1.21.56A3.25,3.25,0,0,0,109.14,6.89Z"/><path class="cls-2" d="M119.25,10.86q-3.57,0-3.57-3.91a4.16,4.16,0,0,1,1-3,3.62,3.62,0,0,1,2.78-1,5.27,5.27,0,0,1,2.38.52l-.62,1.61a9.14,9.14,0,0,0-.91-.32,2.79,2.79,0,0,0-.85-.13c-1.08,0-1.63.77-1.63,2.31s.55,2.24,1.63,2.24a3.68,3.68,0,0,0,2.14-.66v1.78a3.25,3.25,0,0,1-1,.45A5.93,5.93,0,0,1,119.25,10.86Z"/><path class="cls-2" d="M126.8,10.86a3.93,3.93,0,0,1-2.88-1,3.83,3.83,0,0,1-1-2.88,4.24,4.24,0,0,1,1-3A3.89,3.89,0,0,1,129,3.86a3.48,3.48,0,0,1,.91,2.55v1H125a2,2,0,0,0,.52,1.39,1.88,1.88,0,0,0,1.39.5,6,6,0,0,0,1.3-.14,6.94,6.94,0,0,0,1.29-.46v1.61a5.24,5.24,0,0,1-1.17.41A7.35,7.35,0,0,1,126.8,10.86Zm-.29-6.44a1.31,1.31,0,0,0-1,.42A1.92,1.92,0,0,0,125,6H128a1.75,1.75,0,0,0-.4-1.2A1.36,1.36,0,0,0,126.51,4.42Z"/><path class="cls-2" d="M136.94,8.46a2.11,2.11,0,0,1-.81,1.79,4.06,4.06,0,0,1-2.45.61,8.19,8.19,0,0,1-1.42-.11,6.13,6.13,0,0,1-1.1-.33V8.7a7.44,7.44,0,0,0,1.31.45,5,5,0,0,0,1.28.19q1.14,0,1.14-.66a.55.55,0,0,0-.15-.4,2.41,2.41,0,0,0-.52-.35q-.37-.2-1-.45a6,6,0,0,1-1.29-.69,2,2,0,0,1-.61-.72,2.45,2.45,0,0,1-.18-1,1.79,1.79,0,0,1,.79-1.57,3.84,3.84,0,0,1,2.24-.56,6.34,6.34,0,0,1,2.68.6L136.23,5c-.38-.16-.74-.29-1.07-.4a3.51,3.51,0,0,0-1-.16c-.61,0-.92.17-.92.5a.59.59,0,0,0,.3.49,7.47,7.47,0,0,0,1.3.61,6,6,0,0,1,1.31.67,2.13,2.13,0,0,1,.62.73A2.26,2.26,0,0,1,136.94,8.46Z"/><path class="cls-2" d="M145.52,6.89a4.1,4.1,0,0,1-1,2.92,3.56,3.56,0,0,1-2.74,1,3.85,3.85,0,0,1-1.94-.48A3.19,3.19,0,0,1,138.56,9a4.71,4.71,0,0,1-.45-2.11,4.08,4.08,0,0,1,1-2.91,3.62,3.62,0,0,1,2.75-1,3.82,3.82,0,0,1,1.94.48,3.25,3.25,0,0,1,1.3,1.37A4.64,4.64,0,0,1,145.52,6.89Zm-5.29,0a3.3,3.3,0,0,0,.37,1.72,1.36,1.36,0,0,0,1.22.58,1.32,1.32,0,0,0,1.2-.58,3.31,3.31,0,0,0,.36-1.72,3.11,3.11,0,0,0-.37-1.7,1.32,1.32,0,0,0-1.21-.57,1.35,1.35,0,0,0-1.2.56A3.24,3.24,0,0,0,140.23,6.89Z"/><path class="cls-2" d="M152.57,8.46a2.1,2.1,0,0,1-.82,1.79,4,4,0,0,1-2.44.61,8.11,8.11,0,0,1-1.42-.11,6.13,6.13,0,0,1-1.1-.33V8.7a7.17,7.17,0,0,0,1.31.45,5,5,0,0,0,1.28.19c.76,0,1.13-.22,1.13-.66a.55.55,0,0,0-.15-.4,2.17,2.17,0,0,0-.52-.35c-.24-.13-.57-.28-1-.45a6.44,6.44,0,0,1-1.3-.69,2,2,0,0,1-.6-.72,2.44,2.44,0,0,1-.19-1,1.82,1.82,0,0,1,.79-1.57,3.88,3.88,0,0,1,2.24-.56,6.38,6.38,0,0,1,2.69.6L151.86,5c-.38-.16-.74-.29-1.07-.4a3.56,3.56,0,0,0-1-.16c-.62,0-.92.17-.92.5a.58.58,0,0,0,.29.49,8.12,8.12,0,0,0,1.31.61,6.19,6.19,0,0,1,1.31.67,2,2,0,0,1,.61.73A2.25,2.25,0,0,1,152.57,8.46Z"/><path class="cls-2" d="M162,10.86a2.51,2.51,0,0,1-2.11-1h-.11c.07.64.11,1,.11,1.11v3.1h-2.09v-11h1.7l.29,1h.1a2.43,2.43,0,0,1,2.17-1.13A2.48,2.48,0,0,1,164.21,4a4.81,4.81,0,0,1,.76,2.9A5.72,5.72,0,0,1,164.61,9a3,3,0,0,1-1,1.37A2.57,2.57,0,0,1,162,10.86Zm-.61-6.25a1.33,1.33,0,0,0-1.13.47,2.72,2.72,0,0,0-.37,1.57v.23a3.13,3.13,0,0,0,.37,1.76,1.28,1.28,0,0,0,1.15.53q1.41,0,1.41-2.31a3.3,3.3,0,0,0-.35-1.69A1.16,1.16,0,0,0,161.42,4.61Z"/><path class="cls-2" d="M171.55,10.73l-.41-1h0a3.2,3.2,0,0,1-1.08.92,3.58,3.58,0,0,1-1.46.25,2.34,2.34,0,0,1-1.73-.63,2.41,2.41,0,0,1-.63-1.79A2,2,0,0,1,167,6.65,4.88,4.88,0,0,1,169.61,6l1.32,0V5.63a1,1,0,0,0-1.19-1.16,5.58,5.58,0,0,0-2.15.55l-.69-1.4a6.21,6.21,0,0,1,2.93-.69,3.6,3.6,0,0,1,2.35.67,2.44,2.44,0,0,1,.82,2v5.1Zm-.62-3.55-.8,0a2.63,2.63,0,0,0-1.36.33,1,1,0,0,0-.44.92c0,.58.34.88,1,.88a1.6,1.6,0,0,0,1.16-.42,1.47,1.47,0,0,0,.43-1.11Z"/><path class="cls-2" d="M179.42,2.94a3.44,3.44,0,0,1,.7.06L180,5a2.18,2.18,0,0,0-.61-.07,2.22,2.22,0,0,0-1.56.51,1.85,1.85,0,0,0-.55,1.44v3.89h-2.09V3.08h1.58L177,4.37h.1a2.91,2.91,0,0,1,1-1A2.37,2.37,0,0,1,179.42,2.94Z"/><path class="cls-2" d="M186.36,10.73l-.4-1h-.06a3.2,3.2,0,0,1-1.08.92,3.53,3.53,0,0,1-1.45.25,2.37,2.37,0,0,1-1.74-.63A2.41,2.41,0,0,1,181,8.44a2,2,0,0,1,.85-1.79A4.9,4.9,0,0,1,184.42,6l1.33,0V5.63a1,1,0,0,0-1.19-1.16A5.62,5.62,0,0,0,182.4,5l-.69-1.4a6.24,6.24,0,0,1,2.93-.69A3.65,3.65,0,0,1,187,3.6a2.47,2.47,0,0,1,.82,2v5.1Zm-.61-3.55-.81,0a2.56,2.56,0,0,0-1.35.33,1,1,0,0,0-.45.92c0,.58.34.88,1,.88a1.59,1.59,0,0,0,1.16-.42,1.48,1.48,0,0,0,.44-1.11Z"/><path class="cls-2" d="M195.69,10.73H193.6V.09h2.09Z"/><path class="cls-2" d="M202.73,10.73l-.41-1h0a3.2,3.2,0,0,1-1.08.92,3.58,3.58,0,0,1-1.46.25,2.34,2.34,0,0,1-1.73-.63,2.41,2.41,0,0,1-.63-1.79,2,2,0,0,1,.85-1.79A4.88,4.88,0,0,1,200.79,6l1.32,0V5.63a1,1,0,0,0-1.19-1.16,5.54,5.54,0,0,0-2.15.55l-.69-1.4A6.2,6.2,0,0,1,201,2.93a3.61,3.61,0,0,1,2.36.67,2.44,2.44,0,0,1,.82,2v5.1Zm-.62-3.55-.81,0a2.62,2.62,0,0,0-1.35.33,1,1,0,0,0-.44.92c0,.58.33.88,1,.88a1.6,1.6,0,0,0,1.16-.42,1.47,1.47,0,0,0,.43-1.11Z"/><path class="cls-2" d="M213.42,10.86a3.93,3.93,0,0,1-2.88-1,3.86,3.86,0,0,1-1-2.88,4.24,4.24,0,0,1,1-3,3.43,3.43,0,0,1,2.66-1.05,3.38,3.38,0,0,1,2.52.92,3.51,3.51,0,0,1,.9,2.55v1h-4.93a2,2,0,0,0,.53,1.39,1.87,1.87,0,0,0,1.38.5,6.12,6.12,0,0,0,1.31-.14,6.61,6.61,0,0,0,1.28-.46v1.61a4.91,4.91,0,0,1-1.17.41A7.29,7.29,0,0,1,213.42,10.86Zm-.29-6.44a1.33,1.33,0,0,0-1,.42,2,2,0,0,0-.43,1.2h2.93a1.75,1.75,0,0,0-.41-1.2A1.36,1.36,0,0,0,213.13,4.42Z"/><path class="cls-2" d="M220.32,10.73h-2.08V.09h2.08Z"/><path class="cls-2" d="M227.36,10.73l-.4-1h-.05a3.32,3.32,0,0,1-1.09.92,3.5,3.5,0,0,1-1.45.25,2.34,2.34,0,0,1-1.73-.63A2.38,2.38,0,0,1,222,8.44a2,2,0,0,1,.86-1.79A4.84,4.84,0,0,1,225.42,6l1.33,0V5.63a1,1,0,0,0-1.19-1.16,5.54,5.54,0,0,0-2.15.55l-.7-1.4a6.24,6.24,0,0,1,2.93-.69A3.63,3.63,0,0,1,228,3.6a2.44,2.44,0,0,1,.82,2v5.1Zm-.61-3.55-.81,0a2.56,2.56,0,0,0-1.35.33,1,1,0,0,0-.45.92c0,.58.34.88,1,.88a1.58,1.58,0,0,0,1.15-.42,1.48,1.48,0,0,0,.44-1.11Z"/><path class="cls-2" d="M235.22,2.94A2.47,2.47,0,0,1,237.34,4a4.82,4.82,0,0,1,.76,2.89,4.73,4.73,0,0,1-.79,2.93,2.75,2.75,0,0,1-4.26.06h-.14l-.35.85H231V.09h2.08V2.56c0,.32,0,.82-.08,1.51h.08A2.43,2.43,0,0,1,235.22,2.94Zm-.67,1.67a1.33,1.33,0,0,0-1.13.47,2.72,2.72,0,0,0-.37,1.57v.23a3.13,3.13,0,0,0,.37,1.76,1.29,1.29,0,0,0,1.16.53,1.16,1.16,0,0,0,1-.59A3.2,3.2,0,0,0,236,6.86a3,3,0,0,0-.39-1.69A1.17,1.17,0,0,0,234.55,4.61Z"/><path class="cls-2" d="M246.77,6.89a4.14,4.14,0,0,1-1,2.92,3.59,3.59,0,0,1-2.75,1,3.85,3.85,0,0,1-1.94-.48A3.19,3.19,0,0,1,239.81,9a4.71,4.71,0,0,1-.45-2.11,4.08,4.08,0,0,1,1-2.91,3.6,3.6,0,0,1,2.75-1,3.85,3.85,0,0,1,1.94.48,3.17,3.17,0,0,1,1.29,1.37A4.64,4.64,0,0,1,246.77,6.89Zm-5.28,0a3.21,3.21,0,0,0,.37,1.72,1.34,1.34,0,0,0,1.21.58,1.29,1.29,0,0,0,1.2-.58,3.21,3.21,0,0,0,.37-1.72,3.2,3.2,0,0,0-.37-1.7,1.34,1.34,0,0,0-1.21-.57,1.32,1.32,0,0,0-1.2.56A3.15,3.15,0,0,0,241.49,6.89Z"/><path class="cls-2" d="M252.76,2.94a3.37,3.37,0,0,1,.7.06l-.15,2a2.25,2.25,0,0,0-.62-.07,2.21,2.21,0,0,0-1.55.51,1.83,1.83,0,0,0-.56,1.44v3.89h-2.09V3.08h1.58l.31,1.29h.1a2.91,2.91,0,0,1,1-1A2.42,2.42,0,0,1,252.76,2.94Z"/><path class="cls-2" d="M259.7,10.73l-.4-1h-.05a3.22,3.22,0,0,1-1.09.92,3.5,3.5,0,0,1-1.45.25,2.34,2.34,0,0,1-1.73-.63,2.42,2.42,0,0,1-.64-1.79,2,2,0,0,1,.86-1.79A4.84,4.84,0,0,1,257.76,6l1.33,0V5.63a1,1,0,0,0-1.19-1.16,5.54,5.54,0,0,0-2.15.55l-.69-1.4A6.2,6.2,0,0,1,258,2.93a3.63,3.63,0,0,1,2.36.67,2.44,2.44,0,0,1,.82,2v5.1Zm-.61-3.55-.81,0a2.59,2.59,0,0,0-1.35.33,1,1,0,0,0-.45.92c0,.58.34.88,1,.88a1.6,1.6,0,0,0,1.16-.42,1.51,1.51,0,0,0,.43-1.11Z"/><path class="cls-2" d="M266.41,10.86q-3.57,0-3.57-3.91a4.21,4.21,0,0,1,1-3,3.64,3.64,0,0,1,2.78-1,5.24,5.24,0,0,1,2.38.52l-.61,1.61c-.33-.13-.64-.24-.92-.32a2.74,2.74,0,0,0-.85-.13Q265,4.62,265,6.93c0,1.5.54,2.24,1.62,2.24A3.61,3.61,0,0,0,267.71,9a3.7,3.7,0,0,0,1-.5v1.78a3.07,3.07,0,0,1-1,.45A5.87,5.87,0,0,1,266.41,10.86Z"/><path class="cls-2" d="M270.42,1.11c0-.68.37-1,1.13-1s1.14.34,1.14,1a1,1,0,0,1-.29.75,1.19,1.19,0,0,1-.85.27C270.79,2.13,270.42,1.79,270.42,1.11Zm2.17,9.62H270.5V3.08h2.09Z"/><path class="cls-2" d="M281.72,6.89a4.14,4.14,0,0,1-1,2.92,3.58,3.58,0,0,1-2.74,1,3.82,3.82,0,0,1-1.94-.48A3.21,3.21,0,0,1,274.76,9a4.71,4.71,0,0,1-.45-2.11,4.08,4.08,0,0,1,1-2.91,3.6,3.6,0,0,1,2.75-1,3.85,3.85,0,0,1,1.94.48,3.17,3.17,0,0,1,1.29,1.37A4.64,4.64,0,0,1,281.72,6.89Zm-5.28,0a3.21,3.21,0,0,0,.37,1.72,1.34,1.34,0,0,0,1.21.58,1.29,1.29,0,0,0,1.2-.58,3.21,3.21,0,0,0,.37-1.72,3.11,3.11,0,0,0-.37-1.7,1.57,1.57,0,0,0-2.41,0A3.15,3.15,0,0,0,276.44,6.89Zm.44-4.65V2.06A18.41,18.41,0,0,0,278.48,0h2.34V.14c-.24.24-.64.59-1.21,1.06s-1,.81-1.35,1Z"/><path class="cls-2" d="M290.5,10.73h-2.08V6.26a2.12,2.12,0,0,0-.3-1.24,1.09,1.09,0,0,0-.94-.41,1.4,1.4,0,0,0-1.26.58,3.64,3.64,0,0,0-.39,1.94v3.6h-2.08V3.08H285l.28,1h.11a2.3,2.3,0,0,1,1-.84,3.3,3.3,0,0,1,1.4-.28,2.68,2.68,0,0,1,2,.72,2.88,2.88,0,0,1,.69,2.08Z"/><path class="cls-2" d="M298.7,10.86a2.49,2.49,0,0,1-2.11-1,4.78,4.78,0,0,1-.77-2.9A4.82,4.82,0,0,1,296.6,4a2.54,2.54,0,0,1,2.16-1.05A2.49,2.49,0,0,1,301,4.06H301a8.11,8.11,0,0,1-.16-1.52V.09H303V10.73h-1.6l-.4-1h-.09A2.37,2.37,0,0,1,298.7,10.86Zm.73-1.66a1.42,1.42,0,0,0,1.18-.46,2.69,2.69,0,0,0,.4-1.58V6.93a3,3,0,0,0-.38-1.76,1.39,1.39,0,0,0-1.23-.54,1.21,1.21,0,0,0-1.08.6A3.11,3.11,0,0,0,297.93,7a3,3,0,0,0,.39,1.69A1.28,1.28,0,0,0,299.43,9.2Z"/><path class="cls-2" d="M308.6,10.86a3.93,3.93,0,0,1-2.88-1,3.83,3.83,0,0,1-1-2.88,4.24,4.24,0,0,1,1-3,3.9,3.9,0,0,1,5.18-.13,3.51,3.51,0,0,1,.9,2.55v1h-4.93a2,2,0,0,0,.53,1.39,1.84,1.84,0,0,0,1.38.5,6,6,0,0,0,1.3-.14,6.94,6.94,0,0,0,1.29-.46v1.61a5.24,5.24,0,0,1-1.17.41A7.35,7.35,0,0,1,308.6,10.86Zm-.29-6.44a1.33,1.33,0,0,0-1,.42,1.92,1.92,0,0,0-.43,1.2h2.92a1.75,1.75,0,0,0-.4-1.2A1.36,1.36,0,0,0,308.31,4.42Z"/><path class="cls-2" d="M321.25,10.86a2.51,2.51,0,0,1-2.11-1H319c.07.64.11,1,.11,1.11v3.1h-2.09v-11h1.7l.29,1h.1a2.41,2.41,0,0,1,2.16-1.13A2.47,2.47,0,0,1,323.42,4a4.81,4.81,0,0,1,.77,2.9A5.72,5.72,0,0,1,323.83,9a3,3,0,0,1-1,1.37A2.62,2.62,0,0,1,321.25,10.86Zm-.62-6.25a1.35,1.35,0,0,0-1.13.47,2.73,2.73,0,0,0-.36,1.57v.23a3.24,3.24,0,0,0,.36,1.76,1.3,1.3,0,0,0,1.16.53c.93,0,1.4-.77,1.4-2.31a3.31,3.31,0,0,0-.34-1.69A1.17,1.17,0,0,0,320.63,4.61Z"/><path class="cls-2" d="M328,10.73h-2.09V.09H328Z"/><path class="cls-2" d="M335,10.73l-.41-1h-.05a3.2,3.2,0,0,1-1.08.92,3.58,3.58,0,0,1-1.46.25,2.34,2.34,0,0,1-1.73-.63,2.41,2.41,0,0,1-.63-1.79,2,2,0,0,1,.85-1.79A4.84,4.84,0,0,1,333.09,6l1.33,0V5.63a1,1,0,0,0-1.19-1.16,5.54,5.54,0,0,0-2.15.55l-.69-1.4a6.2,6.2,0,0,1,2.92-.69,3.61,3.61,0,0,1,2.36.67,2.44,2.44,0,0,1,.82,2v5.1Zm-.62-3.55-.81,0a2.62,2.62,0,0,0-1.35.33,1,1,0,0,0-.44.92c0,.58.33.88,1,.88A1.6,1.6,0,0,0,334,8.92a1.47,1.47,0,0,0,.43-1.11ZM332.1,2.24V2.06A18.82,18.82,0,0,0,333.71,0h2.34V.14c-.24.24-.64.59-1.22,1.06s-1,.81-1.34,1Z"/><path class="cls-2" d="M341.86,9.2A4.52,4.52,0,0,0,343.17,9v1.55a4.56,4.56,0,0,1-1.91.35,2.33,2.33,0,0,1-1.82-.63,2.7,2.7,0,0,1-.58-1.9V4.65h-1V3.77l1.14-.7.61-1.61H341V3.08h2.14V4.65H341V8.33a.8.8,0,0,0,.25.66A1,1,0,0,0,341.86,9.2Z"/><path class="cls-2" d="M349.57,10.73l-.4-1h-.06a3.2,3.2,0,0,1-1.08.92,3.53,3.53,0,0,1-1.45.25,2.35,2.35,0,0,1-1.74-.63,2.41,2.41,0,0,1-.63-1.79,2,2,0,0,1,.85-1.79A4.88,4.88,0,0,1,347.63,6L349,6V5.63a1,1,0,0,0-1.19-1.16,5.58,5.58,0,0,0-2.15.55l-.69-1.4a6.24,6.24,0,0,1,2.93-.69,3.65,3.65,0,0,1,2.36.67,2.47,2.47,0,0,1,.82,2v5.1ZM349,7.18l-.8,0a2.63,2.63,0,0,0-1.36.33,1,1,0,0,0-.44.92c0,.58.34.88,1,.88a1.6,1.6,0,0,0,1.16-.42A1.47,1.47,0,0,0,349,7.81Z"/><path class="cls-2" d="M360.23,10.73h-2.09V6.26A2.2,2.2,0,0,0,357.85,5a1.09,1.09,0,0,0-.94-.41,1.4,1.4,0,0,0-1.26.58,3.64,3.64,0,0,0-.39,1.94v3.6h-2.09V3.08h1.59l.28,1h.12a2.18,2.18,0,0,1,1-.84,3.26,3.26,0,0,1,1.39-.28,2.69,2.69,0,0,1,2,.72,2.88,2.88,0,0,1,.69,2.08Z"/><path class="cls-2" d="M369.32,6.89a4.1,4.1,0,0,1-1,2.92,3.56,3.56,0,0,1-2.74,1,3.85,3.85,0,0,1-1.94-.48A3.19,3.19,0,0,1,362.36,9a4.71,4.71,0,0,1-.45-2.11,4,4,0,0,1,1-2.91,3.58,3.58,0,0,1,2.74-1,3.89,3.89,0,0,1,1.95.48,3.17,3.17,0,0,1,1.29,1.37A4.64,4.64,0,0,1,369.32,6.89Zm-5.29,0a3.2,3.2,0,0,0,.38,1.72,1.34,1.34,0,0,0,1.21.58,1.29,1.29,0,0,0,1.2-.58,3.3,3.3,0,0,0,.37-1.72,3.2,3.2,0,0,0-.37-1.7,1.34,1.34,0,0,0-1.21-.57,1.35,1.35,0,0,0-1.21.56A3.24,3.24,0,0,0,364,6.89Z"/><path class="cls-2" d="M376.5,10.73l-2.92-7.65h2.18l1.48,4.36A7.29,7.29,0,0,1,377.55,9h0a6.28,6.28,0,0,1,.31-1.56l1.47-4.36h2.18l-2.91,7.65Z"/><path class="cls-2" d="M386.1,10.86a3.93,3.93,0,0,1-2.88-1,3.83,3.83,0,0,1-1-2.88,4.24,4.24,0,0,1,1-3,3.9,3.9,0,0,1,5.18-.13,3.51,3.51,0,0,1,.9,2.55v1h-4.93a2,2,0,0,0,.53,1.39,1.84,1.84,0,0,0,1.38.5,6,6,0,0,0,1.3-.14,6.94,6.94,0,0,0,1.29-.46v1.61a5.24,5.24,0,0,1-1.17.41A7.35,7.35,0,0,1,386.1,10.86Zm-.29-6.44a1.31,1.31,0,0,0-1,.42,1.92,1.92,0,0,0-.43,1.2h2.92a1.75,1.75,0,0,0-.4-1.2A1.36,1.36,0,0,0,385.81,4.42Z"/><path class="cls-2" d="M395.18,2.94a3.37,3.37,0,0,1,.7.06l-.15,2a2.25,2.25,0,0,0-.62-.07,2.21,2.21,0,0,0-1.55.51A1.83,1.83,0,0,0,393,6.84v3.89h-2.09V3.08h1.58l.31,1.29h.1a2.91,2.91,0,0,1,1-1A2.42,2.42,0,0,1,395.18,2.94Z"/><path class="cls-2" d="M399.69,10.86a2.48,2.48,0,0,1-2.11-1,4.78,4.78,0,0,1-.77-2.9A4.82,4.82,0,0,1,397.59,4a2.54,2.54,0,0,1,2.16-1.05A2.49,2.49,0,0,1,402,4.06H402a8.94,8.94,0,0,1-.15-1.52V.09H404V10.73h-1.6l-.4-1h-.09A2.38,2.38,0,0,1,399.69,10.86Zm.73-1.66a1.39,1.39,0,0,0,1.17-.46A2.68,2.68,0,0,0,402,7.16V6.93a3.12,3.12,0,0,0-.38-1.76,1.39,1.39,0,0,0-1.23-.54,1.23,1.23,0,0,0-1.09.6A3.2,3.2,0,0,0,398.92,7a3,3,0,0,0,.39,1.69A1.28,1.28,0,0,0,400.42,9.2Z"/><path class="cls-2" d="M409.59,10.86a4,4,0,0,1-2.89-1,3.86,3.86,0,0,1-1-2.88,4.24,4.24,0,0,1,1-3,3.89,3.89,0,0,1,5.17-.13,3.48,3.48,0,0,1,.91,2.55v1h-4.93a2,2,0,0,0,.52,1.39,1.87,1.87,0,0,0,1.38.5A6.12,6.12,0,0,0,411,9.17a6.94,6.94,0,0,0,1.29-.46v1.61a5.24,5.24,0,0,1-1.17.41A7.35,7.35,0,0,1,409.59,10.86Zm-.3-6.44a1.31,1.31,0,0,0-1,.42,1.86,1.86,0,0,0-.43,1.2h2.92a1.75,1.75,0,0,0-.4-1.2A1.37,1.37,0,0,0,409.29,4.42Z"/><path class="cls-2" d="M421.5,10.86a4,4,0,0,1-2.89-1,3.86,3.86,0,0,1-1-2.88,4.24,4.24,0,0,1,1-3,3.43,3.43,0,0,1,2.66-1.05,3.38,3.38,0,0,1,2.52.92,3.51,3.51,0,0,1,.9,2.55v1h-4.92a2,2,0,0,0,.52,1.39,1.87,1.87,0,0,0,1.38.5,6.12,6.12,0,0,0,1.31-.14,6.61,6.61,0,0,0,1.28-.46v1.61a4.91,4.91,0,0,1-1.17.41A7.25,7.25,0,0,1,421.5,10.86Zm-.3-6.44a1.34,1.34,0,0,0-1,.42,2,2,0,0,0-.43,1.2h2.93a1.75,1.75,0,0,0-.4-1.2A1.37,1.37,0,0,0,421.2,4.42Z"/><path class="cls-2" d="M433.36,10.73h-2.08V6.26A2.2,2.2,0,0,0,431,5a1.09,1.09,0,0,0-.94-.41,1.42,1.42,0,0,0-1.27.58,3.64,3.64,0,0,0-.39,1.94v3.6h-2.08V3.08h1.59l.28,1h.12a2.18,2.18,0,0,1,1-.84,3.26,3.26,0,0,1,1.39-.28,2.66,2.66,0,0,1,2,.72,2.88,2.88,0,0,1,.69,2.08Z"/><path class="cls-2" d="M442.37,9.2A4.52,4.52,0,0,0,443.68,9v1.55a4.56,4.56,0,0,1-1.91.35,2.36,2.36,0,0,1-1.83-.63,2.75,2.75,0,0,1-.57-1.9V4.65h-1V3.77l1.14-.7.61-1.61h1.33V3.08h2.14V4.65h-2.14V8.33a.8.8,0,0,0,.25.66A1,1,0,0,0,442.37,9.2Z"/><path class="cls-2" d="M449.49,2.94a3.37,3.37,0,0,1,.7.06L450,5a2.25,2.25,0,0,0-.62-.07,2.21,2.21,0,0,0-1.55.51,1.86,1.86,0,0,0-.56,1.44v3.89h-2.09V3.08h1.58l.31,1.29h.1a2.91,2.91,0,0,1,1-1A2.42,2.42,0,0,1,449.49,2.94Z"/><path class="cls-2" d="M458.53,6.89a4.1,4.1,0,0,1-1,2.92,3.56,3.56,0,0,1-2.74,1,3.85,3.85,0,0,1-1.94-.48A3.19,3.19,0,0,1,451.57,9a4.71,4.71,0,0,1-.45-2.11,4.08,4.08,0,0,1,1-2.91,3.62,3.62,0,0,1,2.75-1,3.82,3.82,0,0,1,1.94.48,3.19,3.19,0,0,1,1.3,1.37A4.64,4.64,0,0,1,458.53,6.89Zm-5.29,0a3.2,3.2,0,0,0,.38,1.72,1.33,1.33,0,0,0,1.21.58,1.31,1.31,0,0,0,1.2-.58,3.31,3.31,0,0,0,.36-1.72,3.21,3.21,0,0,0-.36-1.7,1.34,1.34,0,0,0-1.21-.57,1.35,1.35,0,0,0-1.21.56A3.24,3.24,0,0,0,453.24,6.89Z"/><path class="cls-2" d="M465.57,10.73h-6V9.5l3.54-4.82h-3.33V3.08h5.71V4.44L462,9.13h3.57Z"/><path class="cls-2" d="M474,6.89a4.09,4.09,0,0,1-1,2.92,3.58,3.58,0,0,1-2.74,1,3.85,3.85,0,0,1-1.94-.48A3.19,3.19,0,0,1,467.07,9a4.58,4.58,0,0,1-.46-2.11,4.08,4.08,0,0,1,1-2.91,3.6,3.6,0,0,1,2.75-1,3.85,3.85,0,0,1,1.94.48,3.17,3.17,0,0,1,1.29,1.37A4.64,4.64,0,0,1,474,6.89Zm-5.28,0a3.21,3.21,0,0,0,.37,1.72,1.36,1.36,0,0,0,1.22.58,1.32,1.32,0,0,0,1.2-.58,3.31,3.31,0,0,0,.36-1.72,3.11,3.11,0,0,0-.37-1.7,1.33,1.33,0,0,0-1.21-.57,1.35,1.35,0,0,0-1.2.56A3.15,3.15,0,0,0,468.74,6.89Z"/><path class="cls-2" d="M481.08,8.46a2.1,2.1,0,0,1-.82,1.79,4,4,0,0,1-2.44.61,8.11,8.11,0,0,1-1.42-.11,5.89,5.89,0,0,1-1.1-.33V8.7a7.06,7.06,0,0,0,1.3.45,5.09,5.09,0,0,0,1.29.19c.75,0,1.13-.22,1.13-.66a.55.55,0,0,0-.15-.4,2.17,2.17,0,0,0-.52-.35c-.24-.13-.57-.28-1-.45a6.44,6.44,0,0,1-1.3-.69,2,2,0,0,1-.6-.72,2.29,2.29,0,0,1-.19-1,1.82,1.82,0,0,1,.79-1.57,3.86,3.86,0,0,1,2.24-.56,6.38,6.38,0,0,1,2.69.6L480.37,5c-.38-.16-.74-.29-1.08-.4a3.49,3.49,0,0,0-1-.16c-.62,0-.93.17-.93.5a.59.59,0,0,0,.3.49,7.88,7.88,0,0,0,1.3.61,6.07,6.07,0,0,1,1.32.67,2.09,2.09,0,0,1,.61.73A2.25,2.25,0,0,1,481.08,8.46Z"/><path class="cls-3" d="M64,353.18H59.13v-8.57H64v1.18H60.53v2.34h3.23v1.17H60.53V352H64Z"/><path class="cls-3" d="M71.14,353.18H69.76v-4a1.82,1.82,0,0,0-.28-1.11,1,1,0,0,0-.88-.36,1.36,1.36,0,0,0-1.17.51,3,3,0,0,0-.37,1.73v3.23H65.68V346.7h1.08l.19.85H67a1.82,1.82,0,0,1,.78-.72,2.53,2.53,0,0,1,1.13-.25,2,2,0,0,1,2,1H71a2,2,0,0,1,.81-.75,2.52,2.52,0,0,1,1.19-.27,2.18,2.18,0,0,1,1.69.59,2.59,2.59,0,0,1,.53,1.78v4.23H73.85v-4a1.82,1.82,0,0,0-.28-1.11,1,1,0,0,0-.88-.36,1.36,1.36,0,0,0-1.18.5,2.61,2.61,0,0,0-.37,1.53Z"/><path class="cls-3" d="M80.44,353.29a2.26,2.26,0,0,1-1.91-.88h-.08c0,.55.08.88.08,1v2.65H77.15V346.7h1.12c0,.12.09.41.19.86h.07a2.16,2.16,0,0,1,1.93-1,2.24,2.24,0,0,1,1.89.88,4.8,4.8,0,0,1,0,4.94A2.25,2.25,0,0,1,80.44,353.29Zm-.33-5.58a1.43,1.43,0,0,0-1.2.48,2.49,2.49,0,0,0-.38,1.53v.21a3,3,0,0,0,.38,1.71,1.39,1.39,0,0,0,1.22.53,1.24,1.24,0,0,0,1.1-.59,3,3,0,0,0,.39-1.67,2.92,2.92,0,0,0-.39-1.65A1.27,1.27,0,0,0,80.11,347.71Z"/><path class="cls-3" d="M88.68,353.18l-.27-.9h0a2.59,2.59,0,0,1-.94.8,3,3,0,0,1-1.22.21,2.07,2.07,0,0,1-1.49-.51,1.92,1.92,0,0,1-.54-1.46,1.7,1.7,0,0,1,.75-1.51,4.24,4.24,0,0,1,2.26-.56l1.12,0v-.35a1.3,1.3,0,0,0-.29-.93,1.19,1.19,0,0,0-.9-.31,3,3,0,0,0-1,.15,6.2,6.2,0,0,0-.88.35l-.45-1a5.32,5.32,0,0,1,1.16-.42,5.65,5.65,0,0,1,1.18-.14,2.8,2.8,0,0,1,1.87.54,2.1,2.1,0,0,1,.63,1.69v4.37Zm-2.05-.94a1.71,1.71,0,0,0,1.21-.42,1.52,1.52,0,0,0,.45-1.17v-.57l-.83,0a2.89,2.89,0,0,0-1.42.32,1,1,0,0,0-.44.89.87.87,0,0,0,.26.67A1.09,1.09,0,0,0,86.63,352.24Z"/><path class="cls-3" d="M93.76,353.29a2.24,2.24,0,0,1-1.88-.88A4,4,0,0,1,91.2,350a3.91,3.91,0,0,1,.7-2.48,2.28,2.28,0,0,1,1.9-.89,2.53,2.53,0,0,1,1.09.23,2.3,2.3,0,0,1,.87.74h0l.16-.85H97.1v9.36H95.72v-2.75a5.06,5.06,0,0,1,0-.54c0-.19,0-.34,0-.44H95.7A2.12,2.12,0,0,1,93.76,353.29Zm.4-1.1a1.43,1.43,0,0,0,1.24-.5,2.5,2.5,0,0,0,.38-1.51V350a3,3,0,0,0-.39-1.73,1.46,1.46,0,0,0-1.26-.52,1.26,1.26,0,0,0-1.12.58,3,3,0,0,0-.39,1.68C92.62,351.45,93.13,352.19,94.16,352.19Z"/><path class="cls-3" d="M103.64,353.18l-.2-.85h-.07a1.94,1.94,0,0,1-.81.71,2.79,2.79,0,0,1-1.21.25,2.38,2.38,0,0,1-1.76-.58,2.41,2.41,0,0,1-.58-1.78V346.7h1.39v4a1.76,1.76,0,0,0,.3,1.12,1.17,1.17,0,0,0,1,.37,1.5,1.5,0,0,0,1.27-.52,2.83,2.83,0,0,0,.41-1.73V346.7h1.38v6.48Z"/><path class="cls-3" d="M109.51,353.29a3.13,3.13,0,0,1-2.36-.88,3.32,3.32,0,0,1-.85-2.43,3.65,3.65,0,0,1,.79-2.49,2.72,2.72,0,0,1,2.17-.91,2.67,2.67,0,0,1,2,.78,3,3,0,0,1,.74,2.14v.75h-4.31a2.13,2.13,0,0,0,.51,1.45,1.76,1.76,0,0,0,1.35.51,5.17,5.17,0,0,0,1.07-.11,7,7,0,0,0,1.06-.36v1.12a4.22,4.22,0,0,1-1,.34A6.83,6.83,0,0,1,109.51,353.29Zm-.25-5.67a1.38,1.38,0,0,0-1.05.42,2,2,0,0,0-.47,1.21h2.94a1.79,1.79,0,0,0-.39-1.21A1.31,1.31,0,0,0,109.26,347.62Z"/><path class="cls-3" d="M197.35,338.52l-.85-2.38h-3.28l-.84,2.38h-1.47l3.2-8.6h1.52l3.21,8.6Zm-1.22-3.59-.81-2.33c0-.16-.14-.4-.24-.74s-.17-.58-.21-.74a12.88,12.88,0,0,1-.47,1.58l-.77,2.23Z"/><path class="cls-3" d="M201.2,338.52h-1.38V329.4h1.38Z"/><path class="cls-3" d="M208.63,338.52h-1.38v-4a1.85,1.85,0,0,0-.28-1.11,1.05,1.05,0,0,0-.88-.37,1.36,1.36,0,0,0-1.17.52,3,3,0,0,0-.37,1.73v3.23h-1.38V332h1.08l.19.85h.07a1.82,1.82,0,0,1,.78-.72,2.53,2.53,0,0,1,1.13-.25,2,2,0,0,1,2,1h.1a2,2,0,0,1,.8-.75,2.59,2.59,0,0,1,1.2-.27,2.18,2.18,0,0,1,1.69.58,2.64,2.64,0,0,1,.53,1.79v4.23h-1.38v-4a1.78,1.78,0,0,0-.28-1.11,1.05,1.05,0,0,0-.88-.37,1.38,1.38,0,0,0-1.18.5,2.59,2.59,0,0,0-.37,1.54Z"/><path class="cls-3" d="M218.7,338.52l-.28-.91h0a2.64,2.64,0,0,1-.95.81,3,3,0,0,1-1.22.21,2.09,2.09,0,0,1-1.49-.51,1.93,1.93,0,0,1-.53-1.46,1.7,1.7,0,0,1,.74-1.51,4.28,4.28,0,0,1,2.27-.56l1.12,0v-.35a1.35,1.35,0,0,0-.29-.93,1.23,1.23,0,0,0-.9-.31,3.06,3.06,0,0,0-1,.15,6.72,6.72,0,0,0-.88.35l-.44-1a5.05,5.05,0,0,1,1.15-.42,5.66,5.66,0,0,1,1.19-.14,2.79,2.79,0,0,1,1.86.54,2.1,2.1,0,0,1,.63,1.69v4.37Zm-2-.94a1.69,1.69,0,0,0,1.2-.42,1.52,1.52,0,0,0,.45-1.17v-.57l-.83,0a2.81,2.81,0,0,0-1.41.32,1,1,0,0,0-.44.89.87.87,0,0,0,.25.67A1.1,1.1,0,0,0,216.65,337.58Z"/><path class="cls-3" d="M224.22,338.63a2.85,2.85,0,0,1-2.24-.85,3.62,3.62,0,0,1-.76-2.47,3.55,3.55,0,0,1,.8-2.51,2.94,2.94,0,0,1,2.31-.88,4.35,4.35,0,0,1,1.84.38l-.41,1.11a4.07,4.07,0,0,0-1.44-.34c-1.12,0-1.69.74-1.69,2.23a2.68,2.68,0,0,0,.42,1.64,1.47,1.47,0,0,0,1.23.55A3.59,3.59,0,0,0,226,337v1.2a2.71,2.71,0,0,1-.79.31A4.85,4.85,0,0,1,224.22,338.63Z"/><path class="cls-3" d="M230.38,338.63a3.14,3.14,0,0,1-2.37-.88,3.35,3.35,0,0,1-.85-2.43,3.63,3.63,0,0,1,.79-2.49,2.72,2.72,0,0,1,2.17-.91,2.67,2.67,0,0,1,2,.78,3,3,0,0,1,.74,2.14v.75h-4.31a2.13,2.13,0,0,0,.51,1.45,1.76,1.76,0,0,0,1.35.5,5.19,5.19,0,0,0,1.07-.1,7,7,0,0,0,1.06-.36v1.11a3.83,3.83,0,0,1-1,.34A5.87,5.87,0,0,1,230.38,338.63Zm-.26-5.67a1.38,1.38,0,0,0-1.05.42,2,2,0,0,0-.47,1.21h2.94a1.79,1.79,0,0,0-.39-1.21A1.31,1.31,0,0,0,230.12,333Z"/><path class="cls-3" d="M240.16,338.52h-1.38v-4a1.76,1.76,0,0,0-.3-1.12,1.2,1.2,0,0,0-1-.37,1.55,1.55,0,0,0-1.28.52,2.84,2.84,0,0,0-.4,1.73v3.23h-1.38V332h1.08l.19.85h.07a2,2,0,0,1,.83-.72,2.77,2.77,0,0,1,1.2-.25,2.08,2.08,0,0,1,2.33,2.37Z"/><path class="cls-3" d="M246.13,338.52l-.27-.91h-.05a2.62,2.62,0,0,1-.94.81,3.07,3.07,0,0,1-1.22.21,2.06,2.06,0,0,1-1.49-.51,1.93,1.93,0,0,1-.54-1.46,1.72,1.72,0,0,1,.74-1.51,4.31,4.31,0,0,1,2.27-.56l1.12,0v-.35a1.35,1.35,0,0,0-.29-.93,1.19,1.19,0,0,0-.9-.31,3,3,0,0,0-.95.15,6.2,6.2,0,0,0-.88.35l-.45-1a5.14,5.14,0,0,1,1.16-.42,5.57,5.57,0,0,1,1.18-.14,2.82,2.82,0,0,1,1.87.54,2.1,2.1,0,0,1,.63,1.69v4.37Zm-2-.94a1.69,1.69,0,0,0,1.2-.42,1.49,1.49,0,0,0,.46-1.17v-.57l-.83,0a2.89,2.89,0,0,0-1.42.32,1,1,0,0,0-.44.89.84.84,0,0,0,.26.67A1.09,1.09,0,0,0,244.08,337.58Z"/><path class="cls-3" d="M254.5,338.52h-1.38v-4a1.78,1.78,0,0,0-.29-1.11A1,1,0,0,0,252,333a1.34,1.34,0,0,0-1.17.52,3,3,0,0,0-.38,1.73v3.23H249V332h1.08l.19.85h.07a1.82,1.82,0,0,1,.78-.72,2.5,2.5,0,0,1,1.13-.25,2,2,0,0,1,2,1h.09a2,2,0,0,1,.81-.75,2.59,2.59,0,0,1,1.2-.27,2.19,2.19,0,0,1,1.69.58,2.64,2.64,0,0,1,.53,1.79v4.23h-1.38v-4a1.78,1.78,0,0,0-.28-1.11A1.08,1.08,0,0,0,256,333a1.38,1.38,0,0,0-1.17.5,2.59,2.59,0,0,0-.37,1.54Z"/><path class="cls-3" d="M260.43,330.32a.77.77,0,0,1,.2-.57.8.8,0,0,1,.58-.2.77.77,0,0,1,.56.2.74.74,0,0,1,.2.57.72.72,0,0,1-.2.55.73.73,0,0,1-.56.21.71.71,0,0,1-.78-.76Zm1.46,8.2h-1.38V332h1.38Z"/><path class="cls-3" d="M266.69,338.63a3.14,3.14,0,0,1-2.37-.88,3.35,3.35,0,0,1-.85-2.43,3.63,3.63,0,0,1,.79-2.49,2.72,2.72,0,0,1,2.17-.91,2.67,2.67,0,0,1,2,.78,3,3,0,0,1,.75,2.14v.75h-4.32a2.13,2.13,0,0,0,.51,1.45,1.76,1.76,0,0,0,1.35.5,5.19,5.19,0,0,0,1.07-.1,7,7,0,0,0,1.06-.36v1.11a3.83,3.83,0,0,1-1,.34A5.87,5.87,0,0,1,266.69,338.63Zm-.26-5.67a1.39,1.39,0,0,0-1.05.42,2,2,0,0,0-.47,1.21h2.94a1.79,1.79,0,0,0-.39-1.21A1.31,1.31,0,0,0,266.43,333Z"/><path class="cls-3" d="M276.47,338.52h-1.38v-4a1.76,1.76,0,0,0-.3-1.12,1.2,1.2,0,0,0-1-.37,1.55,1.55,0,0,0-1.28.52,2.84,2.84,0,0,0-.4,1.73v3.23h-1.38V332h1.08l.19.85h.07a2,2,0,0,1,.83-.72,2.77,2.77,0,0,1,1.2-.25,2.08,2.08,0,0,1,2.33,2.37Z"/><path class="cls-3" d="M280.8,337.52a3.23,3.23,0,0,0,1-.16v1a2.83,2.83,0,0,1-.59.17,4.56,4.56,0,0,1-.75.06c-1.3,0-2-.68-2-2.06v-3.49h-.89v-.61l.95-.5.47-1.38h.85V332h1.84v1H279.9v3.47a.94.94,0,0,0,.25.73A.88.88,0,0,0,280.8,337.52Z"/><path class="cls-3" d="M288.85,335.26a3.54,3.54,0,0,1-.81,2.48,2.91,2.91,0,0,1-2.27.89,3.06,3.06,0,0,1-1.61-.41,2.7,2.7,0,0,1-1.07-1.17,4.06,4.06,0,0,1-.37-1.79,3.51,3.51,0,0,1,.81-2.46,3.29,3.29,0,0,1,4.5,0A3.5,3.5,0,0,1,288.85,335.26Zm-4.72,0c0,1.5.56,2.25,1.66,2.25s1.64-.75,1.64-2.25-.55-2.22-1.65-2.22a1.42,1.42,0,0,0-1.26.58A2.9,2.9,0,0,0,284.13,335.26Z"/><path class="cls-3" d="M200.89,346.44h1.5l1.32,3.67a7.14,7.14,0,0,1,.4,1.48h0a5.86,5.86,0,0,1,.19-.79c.09-.3.59-1.76,1.49-4.36h1.49l-2.77,7.34a2.64,2.64,0,0,1-2.52,2,3.68,3.68,0,0,1-.89-.1v-1.09a3,3,0,0,0,.7.07,1.43,1.43,0,0,0,1.4-1.15l.25-.61Z"/><path class="cls-3" d="M214,353a2.83,2.83,0,0,1-2.23-.85,4.34,4.34,0,0,1,0-5,3,3,0,0,1,2.31-.88,4.4,4.4,0,0,1,1.85.38l-.42,1.11a4.07,4.07,0,0,0-1.44-.34c-1.12,0-1.68.74-1.68,2.23a2.68,2.68,0,0,0,.42,1.64,1.47,1.47,0,0,0,1.23.55,3.59,3.59,0,0,0,1.74-.46v1.2a2.83,2.83,0,0,1-.79.31A5,5,0,0,1,214,353Z"/><path class="cls-3" d="M223.12,349.67a3.49,3.49,0,0,1-.82,2.47A2.89,2.89,0,0,1,220,353a3.06,3.06,0,0,1-1.61-.41,2.7,2.7,0,0,1-1.07-1.17,4,4,0,0,1-.38-1.78,3.52,3.52,0,0,1,.81-2.47,2.93,2.93,0,0,1,2.28-.88,2.87,2.87,0,0,1,2.23.9A3.55,3.55,0,0,1,223.12,349.67Zm-4.72,0c0,1.49.55,2.24,1.66,2.24s1.64-.75,1.64-2.24-.55-2.23-1.65-2.23a1.42,1.42,0,0,0-1.26.58A2.92,2.92,0,0,0,218.4,349.67Z"/><path class="cls-3" d="M230.4,352.92H229v-4a1.76,1.76,0,0,0-.3-1.12,1.19,1.19,0,0,0-1-.37,1.55,1.55,0,0,0-1.28.52,2.84,2.84,0,0,0-.4,1.73v3.23H224.7v-6.48h1.08l.19.85H226a2,2,0,0,1,.83-.72,2.77,2.77,0,0,1,1.2-.25,2.08,2.08,0,0,1,2.33,2.37Z"/><path class="cls-3" d="M237.79,346.44v.75l-1.11.21a1.56,1.56,0,0,1,.25.5,1.89,1.89,0,0,1,.1.63,1.94,1.94,0,0,1-.69,1.58,2.89,2.89,0,0,1-1.9.57,3.13,3.13,0,0,1-.56,0,.77.77,0,0,0-.45.64.37.37,0,0,0,.21.34,1.86,1.86,0,0,0,.76.11h1.13a2.53,2.53,0,0,1,1.63.45,1.63,1.63,0,0,1,.56,1.32,1.91,1.91,0,0,1-.91,1.7,4.75,4.75,0,0,1-2.62.6,3.61,3.61,0,0,1-2-.47,1.5,1.5,0,0,1-.7-1.33,1.4,1.4,0,0,1,.38-1,2.05,2.05,0,0,1,1.05-.57,1,1,0,0,1-.45-.37,1,1,0,0,1-.18-.55,1,1,0,0,1,.21-.62,2.43,2.43,0,0,1,.6-.49,1.84,1.84,0,0,1-.81-.71,2.09,2.09,0,0,1-.32-1.15,2.07,2.07,0,0,1,.67-1.63,2.76,2.76,0,0,1,1.89-.58,3.86,3.86,0,0,1,.58,0,2.82,2.82,0,0,1,.46.08Zm-5.09,7.48a.75.75,0,0,0,.4.69,2.21,2.21,0,0,0,1.13.24,3.42,3.42,0,0,0,1.67-.32,1,1,0,0,0,.55-.86.64.64,0,0,0-.3-.6,2.39,2.39,0,0,0-1.12-.18h-1a1.48,1.48,0,0,0-.94.28A.9.9,0,0,0,232.7,353.92Zm.59-5.39a1.3,1.3,0,0,0,.31.94,1.19,1.19,0,0,0,.9.33c.8,0,1.2-.43,1.2-1.28a1.43,1.43,0,0,0-.3-1,1.1,1.1,0,0,0-.9-.35,1.16,1.16,0,0,0-.9.34A1.42,1.42,0,0,0,233.29,348.53Z"/><path class="cls-3" d="M241.82,353a3.12,3.12,0,0,1-2.36-.88,3.35,3.35,0,0,1-.86-2.43,3.65,3.65,0,0,1,.8-2.49,3,3,0,0,1,4.2-.13,3,3,0,0,1,.74,2.14V350H240a2.13,2.13,0,0,0,.51,1.45,1.77,1.77,0,0,0,1.36.5,5.19,5.19,0,0,0,1.07-.1,7,7,0,0,0,1.06-.36v1.11a4.08,4.08,0,0,1-1,.34A6,6,0,0,1,241.82,353Zm-.25-5.67a1.36,1.36,0,0,0-1,.42,1.94,1.94,0,0,0-.47,1.21H243a1.79,1.79,0,0,0-.39-1.21A1.31,1.31,0,0,0,241.57,347.36Z"/><path class="cls-3" d="M247.28,352.92h-1.37V343.8h1.37Z"/><path class="cls-3" d="M253.31,352.92,253,352H253a2.54,2.54,0,0,1-.94.81,3,3,0,0,1-1.22.21,2.07,2.07,0,0,1-1.49-.51,1.93,1.93,0,0,1-.54-1.46,1.7,1.7,0,0,1,.75-1.51,4.26,4.26,0,0,1,2.27-.56l1.11,0v-.35a1.3,1.3,0,0,0-.29-.93,1.18,1.18,0,0,0-.89-.31,3,3,0,0,0-1,.15,6.72,6.72,0,0,0-.88.35l-.44-1a5.05,5.05,0,0,1,1.15-.42,5.65,5.65,0,0,1,1.18-.14,2.8,2.8,0,0,1,1.87.54,2.1,2.1,0,0,1,.63,1.69v4.37Zm-2.06-.94a1.71,1.71,0,0,0,1.21-.42,1.52,1.52,0,0,0,.45-1.17v-.57l-.83,0a2.81,2.81,0,0,0-1.41.32,1,1,0,0,0-.45.89.87.87,0,0,0,.26.67A1.09,1.09,0,0,0,251.25,352Z"/><path class="cls-3" d="M258.83,353a2.84,2.84,0,0,1-2.24-.85,3.62,3.62,0,0,1-.76-2.47,3.55,3.55,0,0,1,.8-2.51,2.94,2.94,0,0,1,2.31-.88,4.35,4.35,0,0,1,1.84.38l-.41,1.11a4.17,4.17,0,0,0-1.45-.34c-1.12,0-1.68.74-1.68,2.23a2.68,2.68,0,0,0,.42,1.64,1.47,1.47,0,0,0,1.23.55,3.59,3.59,0,0,0,1.74-.46v1.2a2.83,2.83,0,0,1-.79.31A4.91,4.91,0,0,1,258.83,353Z"/><path class="cls-3" d="M262.07,344.72a.77.77,0,0,1,.2-.57.82.82,0,0,1,.58-.2.81.81,0,0,1,.57.2.77.77,0,0,1,.2.57.76.76,0,0,1-.2.55.77.77,0,0,1-.57.21.78.78,0,0,1-.58-.21A.76.76,0,0,1,262.07,344.72Zm1.46,8.2h-1.38v-6.48h1.38Z"/><path class="cls-3" d="M271.25,349.67a3.49,3.49,0,0,1-.82,2.47,2.89,2.89,0,0,1-2.26.89,3,3,0,0,1-1.61-.41,2.64,2.64,0,0,1-1.07-1.17,4,4,0,0,1-.38-1.78,3.52,3.52,0,0,1,.81-2.47,2.93,2.93,0,0,1,2.28-.88,2.87,2.87,0,0,1,2.23.9A3.55,3.55,0,0,1,271.25,349.67Zm-4.72,0c0,1.49.55,2.24,1.66,2.24s1.64-.75,1.64-2.24-.55-2.23-1.65-2.23a1.42,1.42,0,0,0-1.26.58A2.92,2.92,0,0,0,266.53,349.67Zm.76-4v-.15c.22-.27.45-.58.68-.92a8.08,8.08,0,0,0,.56-.86h1.6v.13a12.47,12.47,0,0,1-.91.92,11.88,11.88,0,0,1-1,.88Z"/><path class="cls-3" d="M278.53,352.92h-1.38v-4a1.76,1.76,0,0,0-.3-1.12,1.2,1.2,0,0,0-1-.37,1.55,1.55,0,0,0-1.28.52,2.84,2.84,0,0,0-.4,1.73v3.23h-1.38v-6.48h1.08l.19.85h.07a2,2,0,0,1,.83-.72,2.77,2.77,0,0,1,1.2-.25,2.08,2.08,0,0,1,2.33,2.37Z"/><path class="cls-3" d="M220.14,364a9.19,9.19,0,0,1,.46-2.91,7.19,7.19,0,0,1,1.31-2.37h1.2a8.45,8.45,0,0,0-1.25,2.47,9.15,9.15,0,0,0-.43,2.8,9,9,0,0,0,.43,2.77,8.27,8.27,0,0,0,1.24,2.42h-1.19a6.69,6.69,0,0,1-1.31-2.32A8.62,8.62,0,0,1,220.14,364Z"/><path class="cls-3" d="M223.89,364.69v-1.18h3v1.18Z"/><path class="cls-3" d="M231.9,367.32h-1.38v-5.53c0-.66,0-1.19,0-1.58-.09.1-.2.2-.33.32l-1.32,1.07-.69-.87,2.52-2h1.15Z"/><path class="cls-3" d="M237.6,358.64a3.08,3.08,0,0,1,1.93.56,1.81,1.81,0,0,1,.71,1.5,2.36,2.36,0,0,1-1.59,2.09,4.16,4.16,0,0,1,1.44,1.06,2,2,0,0,1,.42,1.25,2.07,2.07,0,0,1-.78,1.69,3.2,3.2,0,0,1-2.11.64,3.49,3.49,0,0,1-2.16-.59,2,2,0,0,1-.77-1.7,2.23,2.23,0,0,1,.4-1.28,3.44,3.44,0,0,1,1.32-1,3.27,3.27,0,0,1-1.12-1,2.15,2.15,0,0,1-.33-1.17,1.77,1.77,0,0,1,.73-1.49A3.07,3.07,0,0,1,237.6,358.64ZM236,365.1a1.11,1.11,0,0,0,.43.94,2.14,2.14,0,0,0,2.33,0,1.17,1.17,0,0,0,.42-.95,1.23,1.23,0,0,0-.38-.86,3.63,3.63,0,0,0-1.18-.73l-.17-.08a3.14,3.14,0,0,0-1.11.75A1.45,1.45,0,0,0,236,365.1Zm1.58-5.4a1.49,1.49,0,0,0-1,.29,1,1,0,0,0-.35.79,1.08,1.08,0,0,0,.13.54,1.38,1.38,0,0,0,.37.44,4.55,4.55,0,0,0,.83.47,2.87,2.87,0,0,0,1-.65,1.23,1.23,0,0,0,.29-.8,1,1,0,0,0-.36-.79A1.5,1.5,0,0,0,237.59,359.7Z"/><path class="cls-3" d="M244.78,360.56a1.88,1.88,0,0,1,.56-1.36,1.94,1.94,0,0,1,2.74,0,1.86,1.86,0,0,1,.55,1.37,1.83,1.83,0,0,1-.56,1.37,1.86,1.86,0,0,1-1.36.55,1.92,1.92,0,0,1-1.67-1A1.93,1.93,0,0,1,244.78,360.56Zm.9,0a1,1,0,0,0,.3.72,1,1,0,0,0,1.46-1.46,1,1,0,0,0-1.76.74Z"/><path class="cls-3" d="M254.06,359.83a2.3,2.3,0,0,0-1.9.85,3.66,3.66,0,0,0-.69,2.36,3.7,3.7,0,0,0,.66,2.39,2.37,2.37,0,0,0,1.93.81,5.19,5.19,0,0,0,1.05-.11c.34-.07.7-.17,1.06-.28v1.2a6.27,6.27,0,0,1-2.28.38,3.64,3.64,0,0,1-2.89-1.14,4.77,4.77,0,0,1-1-3.26,5.3,5.3,0,0,1,.49-2.33,3.53,3.53,0,0,1,1.42-1.54,4.21,4.21,0,0,1,2.17-.53,5.38,5.38,0,0,1,2.43.55l-.51,1.16c-.29-.13-.59-.25-.91-.36A3.5,3.5,0,0,0,254.06,359.83Z"/><path class="cls-3" d="M260.21,364a8.9,8.9,0,0,1-.45,2.87,6.88,6.88,0,0,1-1.31,2.31h-1.19a8.45,8.45,0,0,0,1.24-2.43,9.1,9.1,0,0,0,0-5.56,8.31,8.31,0,0,0-1.24-2.47h1.2a7.24,7.24,0,0,1,1.31,2.38A9.17,9.17,0,0,1,260.21,364Z"/><rect class="cls-4" x="189.63" y="372.01" width="101.1" height="1.33"/><circle class="cls-5" cx="240.18" cy="308.57" r="14.22"/><path class="cls-3" d="M240.21,301.88a5.23,5.23,0,0,1,3.09.8,2.62,2.62,0,0,1,1.1,2.27,3,3,0,0,1-.52,1.75,4.23,4.23,0,0,1-1.64,1.31,6.08,6.08,0,0,1,2,1.57,2.85,2.85,0,0,1,.57,1.7,3.07,3.07,0,0,1-1.21,2.6,6.83,6.83,0,0,1-6.78,0,3.07,3.07,0,0,1-1.17-2.59,3.25,3.25,0,0,1,.52-1.86,4.65,4.65,0,0,1,1.76-1.39,4.89,4.89,0,0,1-1.46-1.44,3.29,3.29,0,0,1-.45-1.69,2.61,2.61,0,0,1,1.12-2.25A5.32,5.32,0,0,1,240.21,301.88Zm-1.49,9.3a1.06,1.06,0,0,0,.37.85,1.57,1.57,0,0,0,1,.32c1,0,1.52-.37,1.52-1.1a1.31,1.31,0,0,0-.34-.83,4.37,4.37,0,0,0-1.18-.92,3.53,3.53,0,0,0-1.09.81A1.35,1.35,0,0,0,238.72,311.18Zm1.47-6.85a1.08,1.08,0,0,0-.73.25.81.81,0,0,0-.31.66c0,.49.34.93,1,1.3a2.67,2.67,0,0,0,.83-.64,1,1,0,0,0,.23-.66.8.8,0,0,0-.3-.66A1.1,1.1,0,0,0,240.19,304.33Z"/><circle class="cls-5" cx="85.31" cy="308.57" r="14.22"/><path class="cls-3" d="M82,314.62l4.31-9.73H80.82v-2.81h9.07v2l-4.43,10.54Z"/><rect class="cls-4" x="34.76" y="362.32" width="101.1" height="1.33"/><path class="cls-3" d="M64,224.62H59.14v-8.57H64v1.19H60.54v2.33h3.23v1.17H60.54v2.69H64Z"/><path class="cls-3" d="M70,222.78a1.69,1.69,0,0,1-.69,1.45,3.29,3.29,0,0,1-2,.51,4.7,4.7,0,0,1-2.08-.39v-1.19a5.11,5.11,0,0,0,2.13.52c.84,0,1.27-.25,1.27-.76a.62.62,0,0,0-.14-.41,1.58,1.58,0,0,0-.47-.34,7.38,7.38,0,0,0-.89-.4,4.2,4.2,0,0,1-1.52-.87,1.61,1.61,0,0,1-.39-1.12,1.48,1.48,0,0,1,.67-1.3,3.22,3.22,0,0,1,1.82-.46,5.16,5.16,0,0,1,2.17.47l-.45,1a4.79,4.79,0,0,0-1.76-.43c-.73,0-1.09.21-1.09.62a.63.63,0,0,0,.28.52,6.46,6.46,0,0,0,1.24.58,5.07,5.07,0,0,1,1.17.57,1.76,1.76,0,0,1,.54.59A1.8,1.8,0,0,1,70,222.78Z"/><path class="cls-3" d="M74.14,224.74a2.83,2.83,0,0,1-2.23-.86,3.57,3.57,0,0,1-.77-2.46,3.65,3.65,0,0,1,.8-2.52,3,3,0,0,1,2.31-.88,4.4,4.4,0,0,1,1.85.38l-.42,1.11a4.31,4.31,0,0,0-1.44-.34c-1.12,0-1.68.75-1.68,2.23A2.66,2.66,0,0,0,73,223a1.44,1.44,0,0,0,1.23.55,3.49,3.49,0,0,0,1.74-.46v1.2a2.55,2.55,0,0,1-.79.31A4.29,4.29,0,0,1,74.14,224.74Z"/><path class="cls-3" d="M82,224.62l-.19-.85h-.07a2,2,0,0,1-.82.71,2.76,2.76,0,0,1-1.21.26,2.4,2.4,0,0,1-1.76-.59,2.45,2.45,0,0,1-.58-1.77v-4.24H78.8v4a1.69,1.69,0,0,0,.31,1.11,1.15,1.15,0,0,0,1,.38,1.56,1.56,0,0,0,1.28-.52,2.9,2.9,0,0,0,.4-1.74v-3.23h1.39v6.48Z"/><path class="cls-3" d="M88.38,218a3.23,3.23,0,0,1,.68.06l-.13,1.29a2.49,2.49,0,0,0-.61-.08,1.76,1.76,0,0,0-1.34.54,2,2,0,0,0-.51,1.4v3.39H85.09v-6.48h1.08l.18,1.14h.07a2.57,2.57,0,0,1,.84-.92A2.07,2.07,0,0,1,88.38,218Z"/><path class="cls-3" d="M93.55,218a3.27,3.27,0,0,1,.69.06l-.14,1.29a2.43,2.43,0,0,0-.61-.08,1.76,1.76,0,0,0-1.34.54,2,2,0,0,0-.51,1.4v3.39H90.26v-6.48h1.08l.18,1.14h.07a2.76,2.76,0,0,1,.84-.92A2.07,2.07,0,0,1,93.55,218Z"/><path class="cls-3" d="M95.35,216.42a.71.71,0,0,1,.78-.76.75.75,0,0,1,.57.2.77.77,0,0,1,.2.56.78.78,0,0,1-.2.56.79.79,0,0,1-.57.2.77.77,0,0,1-.57-.2A.75.75,0,0,1,95.35,216.42Zm1.46,8.2H95.44v-6.48h1.37Z"/><path class="cls-3" d="M101,224.74a2.24,2.24,0,0,1-1.89-.88,3.92,3.92,0,0,1-.68-2.47,4,4,0,0,1,.68-2.48A2.3,2.3,0,0,1,101,218a2.25,2.25,0,0,1,2,.95H103a7.86,7.86,0,0,1-.1-1.1V215.5h1.38v9.12h-1.08l-.24-.85h-.06A2.19,2.19,0,0,1,101,224.74Zm.37-1.11a1.48,1.48,0,0,0,1.23-.48,2.53,2.53,0,0,0,.4-1.55v-.2a2.9,2.9,0,0,0-.4-1.74,1.47,1.47,0,0,0-1.24-.51,1.24,1.24,0,0,0-1.12.59,2.94,2.94,0,0,0-.4,1.68,3,3,0,0,0,.38,1.64A1.3,1.3,0,0,0,101.34,223.63Z"/><path class="cls-3" d="M112,221.37a3.52,3.52,0,0,1-.82,2.48,2.93,2.93,0,0,1-2.27.89,3.12,3.12,0,0,1-1.6-.41,2.72,2.72,0,0,1-1.07-1.18,4,4,0,0,1-.38-1.78,3.51,3.51,0,0,1,.81-2.46A2.94,2.94,0,0,1,109,218a2.88,2.88,0,0,1,2.23.91A3.53,3.53,0,0,1,112,221.37Zm-4.72,0c0,1.5.55,2.24,1.66,2.24s1.64-.74,1.64-2.24-.55-2.22-1.65-2.22a1.42,1.42,0,0,0-1.26.57A2.94,2.94,0,0,0,107.29,221.37Z"/><rect class="cls-1" x="23.81" y="41.63" width="123" height="76" rx="12"/><path class="cls-3" d="M49.51,73.31v3.43h-1.4V68.17h2.42a4,4,0,0,1,2.45.62,2.23,2.23,0,0,1,.8,1.88,2.33,2.33,0,0,1-1.66,2.27l2.42,3.8h-1.6l-2-3.43Zm0-1.16h1a2.24,2.24,0,0,0,1.42-.36,1.32,1.32,0,0,0,.44-1.08,1.15,1.15,0,0,0-.48-1,2.59,2.59,0,0,0-1.43-.32h-.92Z"/><path class="cls-3" d="M58.46,76.85A3.12,3.12,0,0,1,56.1,76a3.35,3.35,0,0,1-.85-2.43A3.63,3.63,0,0,1,56,71.05a2.7,2.7,0,0,1,2.17-.91,2.67,2.67,0,0,1,2,.78A3,3,0,0,1,61,73.06v.75H56.66a2.15,2.15,0,0,0,.51,1.45,1.8,1.8,0,0,0,1.36.5,4.57,4.57,0,0,0,1.07-.11,5.31,5.31,0,0,0,1.06-.36v1.12a4.08,4.08,0,0,1-1,.34A6,6,0,0,1,58.46,76.85Zm-.25-5.67a1.36,1.36,0,0,0-1.05.42,1.92,1.92,0,0,0-.47,1.21h2.94a1.82,1.82,0,0,0-.39-1.22A1.33,1.33,0,0,0,58.21,71.18Z"/><path class="cls-3" d="M65.16,76.85A2.82,2.82,0,0,1,62.92,76a4.35,4.35,0,0,1,0-5,2.94,2.94,0,0,1,2.31-.88,4.28,4.28,0,0,1,1.85.38l-.42,1.11a4.07,4.07,0,0,0-1.44-.34c-1.12,0-1.68.74-1.68,2.23A2.68,2.68,0,0,0,64,75.16a1.44,1.44,0,0,0,1.22.54A3.53,3.53,0,0,0,67,75.25v1.2a2.65,2.65,0,0,1-.78.31A5,5,0,0,1,65.16,76.85Z"/><path class="cls-3" d="M71.32,76.85A3.14,3.14,0,0,1,69,76a3.35,3.35,0,0,1-.85-2.43,3.63,3.63,0,0,1,.79-2.49,2.72,2.72,0,0,1,2.18-.91,2.65,2.65,0,0,1,2,.78,3,3,0,0,1,.75,2.14v.75H69.52A2.15,2.15,0,0,0,70,75.26a1.8,1.8,0,0,0,1.35.5,4.57,4.57,0,0,0,1.07-.11,5.11,5.11,0,0,0,1.06-.36v1.12a3.88,3.88,0,0,1-1,.34A6,6,0,0,1,71.32,76.85Zm-.25-5.67A1.4,1.4,0,0,0,70,71.6a2,2,0,0,0-.47,1.21h2.94a1.76,1.76,0,0,0-.38-1.22A1.35,1.35,0,0,0,71.07,71.18Z"/><path class="cls-3" d="M78.69,76.85A2.26,2.26,0,0,1,76.78,76H76.7c0,.54.08.88.08,1v2.66H75.4V70.25h1.11c0,.13.1.42.2.87h.07a2.16,2.16,0,0,1,1.93-1A2.24,2.24,0,0,1,80.6,71a4.8,4.8,0,0,1,0,4.94A2.25,2.25,0,0,1,78.69,76.85Zm-.34-5.59a1.42,1.42,0,0,0-1.19.48,2.46,2.46,0,0,0-.38,1.54v.2a3.07,3.07,0,0,0,.37,1.72,1.41,1.41,0,0,0,1.23.53,1.26,1.26,0,0,0,1.1-.59,3,3,0,0,0,.39-1.67,2.92,2.92,0,0,0-.39-1.65A1.28,1.28,0,0,0,78.35,71.26Z"/><path class="cls-3" d="M85.49,76.85A2.8,2.8,0,0,1,83.26,76a4.33,4.33,0,0,1,0-5,2.94,2.94,0,0,1,2.31-.88,4.25,4.25,0,0,1,1.85.38L87,71.63a4.07,4.07,0,0,0-1.44-.34c-1.12,0-1.68.74-1.68,2.23a2.68,2.68,0,0,0,.42,1.64,1.46,1.46,0,0,0,1.23.54,3.58,3.58,0,0,0,1.74-.45v1.2a2.83,2.83,0,0,1-.79.31A5,5,0,0,1,85.49,76.85Z"/><path class="cls-3" d="M88.74,68.54a.74.74,0,0,1,.2-.57.8.8,0,0,1,.58-.2.77.77,0,0,1,.56.2.74.74,0,0,1,.2.57.72.72,0,0,1-.2.55.73.73,0,0,1-.56.2.76.76,0,0,1-.58-.2A.72.72,0,0,1,88.74,68.54Zm1.46,8.2H88.82V70.25H90.2Z"/><path class="cls-3" d="M97.91,73.48A3.54,3.54,0,0,1,97.1,76a2.9,2.9,0,0,1-2.27.89,3,3,0,0,1-1.6-.41,2.64,2.64,0,0,1-1.08-1.18,4,4,0,0,1-.37-1.78A3.51,3.51,0,0,1,92.59,71a2.93,2.93,0,0,1,2.28-.88,2.85,2.85,0,0,1,2.22.9A3.5,3.5,0,0,1,97.91,73.48Zm-4.71,0q0,2.25,1.65,2.25t1.65-2.25c0-1.48-.56-2.22-1.66-2.22a1.38,1.38,0,0,0-1.25.58A2.9,2.9,0,0,0,93.2,73.48Zm.75-4v-.14c.22-.28.45-.58.69-.92a10,10,0,0,0,.56-.86h1.6v.13c-.2.23-.51.54-.91.92s-.75.67-1,.87Z"/><path class="cls-3" d="M105.2,76.74h-1.39v-4a1.76,1.76,0,0,0-.3-1.12,1.19,1.19,0,0,0-1-.37,1.5,1.5,0,0,0-1.27.52,2.83,2.83,0,0,0-.41,1.73v3.23H99.5V70.25h1.07l.2.85h.07a1.94,1.94,0,0,1,.83-.71,2.76,2.76,0,0,1,1.19-.25,2.08,2.08,0,0,1,2.34,2.37Z"/><path class="cls-3" d="M112.42,76.85a2.27,2.27,0,0,1-1.9-.88,4.8,4.8,0,0,1,0-4.94,2.27,2.27,0,0,1,1.91-.89,2.22,2.22,0,0,1,1.94.94h.07a9.4,9.4,0,0,1-.1-1.1V67.62h1.39v9.12h-1.08l-.24-.85h-.07A2.19,2.19,0,0,1,112.42,76.85Zm.36-1.11a1.5,1.5,0,0,0,1.24-.48,2.51,2.51,0,0,0,.4-1.55v-.19a2.86,2.86,0,0,0-.4-1.74,1.47,1.47,0,0,0-1.25-.52,1.29,1.29,0,0,0-1.12.59,3,3,0,0,0-.39,1.68,2.94,2.94,0,0,0,.38,1.64A1.29,1.29,0,0,0,112.78,75.74Z"/><path class="cls-3" d="M120.54,76.85a3.14,3.14,0,0,1-2.37-.88,3.35,3.35,0,0,1-.85-2.43,3.63,3.63,0,0,1,.79-2.49,2.72,2.72,0,0,1,2.17-.91,2.66,2.66,0,0,1,2,.78,3,3,0,0,1,.75,2.14v.75h-4.32a2.15,2.15,0,0,0,.51,1.45,1.8,1.8,0,0,0,1.35.5,4.57,4.57,0,0,0,1.07-.11,5.31,5.31,0,0,0,1.06-.36v1.12a3.83,3.83,0,0,1-1,.34A5.87,5.87,0,0,1,120.54,76.85Zm-.26-5.67a1.39,1.39,0,0,0-1,.42,2,2,0,0,0-.47,1.21h2.94a1.82,1.82,0,0,0-.38-1.22A1.36,1.36,0,0,0,120.28,71.18Z"/><path class="cls-3" d="M50.21,91.14H48.82v-4A1.78,1.78,0,0,0,48.54,86a1.05,1.05,0,0,0-.88-.37,1.36,1.36,0,0,0-1.17.52,3.13,3.13,0,0,0-.37,1.73v3.23H44.75V84.66h1.07l.2.84h.07a1.86,1.86,0,0,1,.78-.71A2.5,2.5,0,0,1,48,84.54a2,2,0,0,1,2,1h.09a2,2,0,0,1,.81-.75,2.59,2.59,0,0,1,1.2-.27,2.19,2.19,0,0,1,1.69.58,2.62,2.62,0,0,1,.53,1.79v4.23H52.92v-4A1.78,1.78,0,0,0,52.63,86a1,1,0,0,0-.88-.37,1.38,1.38,0,0,0-1.17.5,2.59,2.59,0,0,0-.37,1.54Z"/><path class="cls-3" d="M60.27,91.14,60,90.23h0A2.62,2.62,0,0,1,59,91a3.07,3.07,0,0,1-1.22.21,2.06,2.06,0,0,1-1.49-.51,1.93,1.93,0,0,1-.54-1.46,1.72,1.72,0,0,1,.74-1.51,4.31,4.31,0,0,1,2.27-.56l1.12,0v-.34a1.35,1.35,0,0,0-.29-.93,1.19,1.19,0,0,0-.9-.31,3,3,0,0,0-1,.15,7.65,7.65,0,0,0-.88.34l-.45-1a5.14,5.14,0,0,1,1.16-.42,5.65,5.65,0,0,1,1.18-.14,2.82,2.82,0,0,1,1.87.54,2.1,2.1,0,0,1,.63,1.69v4.37Zm-2.05-.94a1.73,1.73,0,0,0,1.21-.42,1.53,1.53,0,0,0,.45-1.18V88l-.83,0a2.89,2.89,0,0,0-1.42.32,1,1,0,0,0-.44.89.87.87,0,0,0,.26.67A1.09,1.09,0,0,0,58.22,90.2Z"/><path class="cls-3" d="M65.59,90.14a3.23,3.23,0,0,0,1-.16v1a3.61,3.61,0,0,1-.59.17,4.56,4.56,0,0,1-.75.06c-1.3,0-2-.68-2-2.06V85.7h-.89v-.61l.95-.51.47-1.37h.85v1.45h1.85v1H64.69v3.47a1,1,0,0,0,.25.73A.9.9,0,0,0,65.59,90.14Z"/><path class="cls-3" d="M70.73,91.25a3.14,3.14,0,0,1-2.37-.88,3.35,3.35,0,0,1-.85-2.43,3.63,3.63,0,0,1,.79-2.49,2.72,2.72,0,0,1,2.17-.91,2.67,2.67,0,0,1,2,.78,3,3,0,0,1,.75,2.14v.75H68.93a2.15,2.15,0,0,0,.51,1.45,1.8,1.8,0,0,0,1.35.5,4.57,4.57,0,0,0,1.07-.11,5.31,5.31,0,0,0,1.06-.36v1.12a3.83,3.83,0,0,1-1,.34A5.87,5.87,0,0,1,70.73,91.25Zm-.26-5.67a1.39,1.39,0,0,0-1,.42A2,2,0,0,0,69,87.21h2.94A1.82,1.82,0,0,0,71.5,86,1.33,1.33,0,0,0,70.47,85.58Z"/><path class="cls-3" d="M78.1,84.54a3.23,3.23,0,0,1,.68.06l-.13,1.28a2.48,2.48,0,0,0-.61-.07,1.76,1.76,0,0,0-1.34.54,2,2,0,0,0-.51,1.4v3.39H74.81V84.66h1.08l.18,1.14h.07a2.41,2.41,0,0,1,.84-.92A2,2,0,0,1,78.1,84.54Z"/><path class="cls-3" d="M79.9,82.94a.77.77,0,0,1,.2-.57.82.82,0,0,1,.58-.2.81.81,0,0,1,.57.2.77.77,0,0,1,.2.57.76.76,0,0,1-.2.55.76.76,0,0,1-.57.2.77.77,0,0,1-.58-.2A.76.76,0,0,1,79.9,82.94Zm1.46,8.2H80V84.66h1.38Z"/><path class="cls-3" d="M87.38,91.14l-.27-.91h0a2.62,2.62,0,0,1-.94.81,3,3,0,0,1-1.22.21,2.07,2.07,0,0,1-1.49-.51,1.93,1.93,0,0,1-.54-1.46,1.7,1.7,0,0,1,.75-1.51,4.24,4.24,0,0,1,2.26-.56l1.12,0v-.34a1.3,1.3,0,0,0-.29-.93,1.19,1.19,0,0,0-.9-.31,3,3,0,0,0-1,.15,7.65,7.65,0,0,0-.88.34l-.45-1a5.32,5.32,0,0,1,1.16-.42,5.65,5.65,0,0,1,1.18-.14,2.8,2.8,0,0,1,1.87.54,2.1,2.1,0,0,1,.63,1.69v4.37Zm-2-.94a1.73,1.73,0,0,0,1.21-.42A1.53,1.53,0,0,0,87,88.6V88l-.83,0a2.89,2.89,0,0,0-1.42.32,1,1,0,0,0-.44.89.87.87,0,0,0,.26.67A1.09,1.09,0,0,0,85.33,90.2Z"/><path class="cls-3" d="M96.69,91.25a2.27,2.27,0,0,1-1.91-.88H94.7c.06.55.08.88.08,1V94H93.41V84.66h1.11c0,.12.1.41.19.86h.07a2.18,2.18,0,0,1,1.94-1,2.24,2.24,0,0,1,1.89.88,4,4,0,0,1,.67,2.46,4,4,0,0,1-.68,2.48A2.27,2.27,0,0,1,96.69,91.25Zm-.33-5.59a1.43,1.43,0,0,0-1.2.48,2.52,2.52,0,0,0-.38,1.54v.2a3.06,3.06,0,0,0,.38,1.72,1.4,1.4,0,0,0,1.22.53,1.26,1.26,0,0,0,1.11-.59,3.1,3.1,0,0,0,.38-1.67,3,3,0,0,0-.38-1.65A1.29,1.29,0,0,0,96.36,85.66Z"/><path class="cls-3" d="M104.17,84.54a3.27,3.27,0,0,1,.69.06l-.14,1.28a2.43,2.43,0,0,0-.61-.07,1.78,1.78,0,0,0-1.34.54,2,2,0,0,0-.51,1.4v3.39h-1.38V84.66H102l.18,1.14h.07a2.58,2.58,0,0,1,.84-.92A2,2,0,0,1,104.17,84.54Z"/><path class="cls-3" d="M106,82.94a.74.74,0,0,1,.2-.57.91.91,0,0,1,1.14,0,.74.74,0,0,1,.2.57.72.72,0,0,1-.2.55.91.91,0,0,1-1.14,0A.72.72,0,0,1,106,82.94Zm1.45,8.2h-1.37V84.66h1.37Z"/><path class="cls-3" d="M114.86,91.14h-1.38v-4A1.78,1.78,0,0,0,113.2,86a1.05,1.05,0,0,0-.88-.37,1.36,1.36,0,0,0-1.17.52,3,3,0,0,0-.37,1.73v3.23H109.4V84.66h1.08l.19.84h.08a1.8,1.8,0,0,1,.78-.71,2.5,2.5,0,0,1,1.13-.25,2,2,0,0,1,2,1h.09a2,2,0,0,1,.81-.75,2.54,2.54,0,0,1,1.19-.27,2.16,2.16,0,0,1,1.69.58,2.57,2.57,0,0,1,.53,1.79v4.23h-1.37v-4a1.78,1.78,0,0,0-.29-1.11,1.05,1.05,0,0,0-.88-.37,1.36,1.36,0,0,0-1.17.5,2.59,2.59,0,0,0-.38,1.54Z"/><path class="cls-3" d="M124.93,91.14l-.27-.91h0a2.62,2.62,0,0,1-.94.81,3.07,3.07,0,0,1-1.22.21,2.06,2.06,0,0,1-1.49-.51,1.93,1.93,0,0,1-.54-1.46,1.72,1.72,0,0,1,.74-1.51,4.31,4.31,0,0,1,2.27-.56l1.12,0v-.34a1.35,1.35,0,0,0-.29-.93,1.19,1.19,0,0,0-.9-.31,3,3,0,0,0-1,.15,7.65,7.65,0,0,0-.88.34l-.45-1a5.14,5.14,0,0,1,1.16-.42,5.57,5.57,0,0,1,1.18-.14,2.82,2.82,0,0,1,1.87.54,2.1,2.1,0,0,1,.63,1.69v4.37Zm-2.05-.94a1.69,1.69,0,0,0,1.2-.42,1.5,1.5,0,0,0,.46-1.18V88l-.83,0a2.89,2.89,0,0,0-1.42.32,1,1,0,0,0-.44.89.84.84,0,0,0,.26.67A1.09,1.09,0,0,0,122.88,90.2Z"/><circle class="cls-5" cx="85.31" cy="44.4" r="14.22"/><path class="cls-3" d="M88.24,50.46H84.8V43.81c0-.81,0-1.55,0-2.22a6.58,6.58,0,0,1-.79.81l-1.43,1.18-1.76-2.17,4.32-3.51h3Z"/><rect class="cls-4" x="34.76" y="98.16" width="101.1" height="1.33"/><rect class="cls-1" x="178.68" y="41.63" width="123" height="76" rx="12"/><circle class="cls-5" cx="240.18" cy="44.4" r="14.22"/><path class="cls-3" d="M244.66,50.46h-9.11V48.23l3.06-3.11c.88-.91,1.45-1.54,1.72-1.87a4,4,0,0,0,.56-.87,1.78,1.78,0,0,0,.16-.75,1,1,0,0,0-.31-.78,1.31,1.31,0,0,0-.9-.28,2.44,2.44,0,0,0-1.2.34,8.44,8.44,0,0,0-1.37,1l-1.86-2.18A9.59,9.59,0,0,1,237,38.49a6.11,6.11,0,0,1,1.44-.58,7.22,7.22,0,0,1,1.75-.19,5.24,5.24,0,0,1,2.18.43,3.37,3.37,0,0,1,1.48,1.22,3.1,3.1,0,0,1,.53,1.78,4.94,4.94,0,0,1-.18,1.37,5.24,5.24,0,0,1-.57,1.23,8.37,8.37,0,0,1-1,1.28c-.43.45-1.34,1.29-2.73,2.54v.09h4.75Z"/><path class="cls-3" d="M215.71,77.27V68.7h1.4v7.37h3.62v1.2Z"/><path class="cls-3" d="M226.12,77.27l-.28-.91h0a2.64,2.64,0,0,1-1,.81,3,3,0,0,1-1.22.21,2.09,2.09,0,0,1-1.49-.51,2,2,0,0,1-.53-1.46,1.7,1.7,0,0,1,.74-1.51,4.28,4.28,0,0,1,2.27-.56l1.12,0V73a1.35,1.35,0,0,0-.29-.93,1.23,1.23,0,0,0-.9-.31,3.11,3.11,0,0,0-1,.15,7.32,7.32,0,0,0-.88.35l-.44-1a5.05,5.05,0,0,1,1.15-.42,5.74,5.74,0,0,1,1.19-.14,2.79,2.79,0,0,1,1.86.54,2.1,2.1,0,0,1,.63,1.69v4.37Zm-2.05-.94a1.69,1.69,0,0,0,1.2-.42,1.53,1.53,0,0,0,.46-1.17v-.57l-.84,0a2.84,2.84,0,0,0-1.41.32,1,1,0,0,0-.44.89.87.87,0,0,0,.25.67A1.12,1.12,0,0,0,224.07,76.33Z"/><path class="cls-3" d="M230.5,77.27,228,70.79h1.45l1.32,3.76a7.6,7.6,0,0,1,.41,1.54h.05a9.75,9.75,0,0,1,.41-1.54L233,70.79h1.46L232,77.27Z"/><path class="cls-3" d="M239.5,77.27l-.27-.91h0a2.62,2.62,0,0,1-.94.81,3.07,3.07,0,0,1-1.22.21,2.06,2.06,0,0,1-1.49-.51,1.93,1.93,0,0,1-.54-1.46,1.72,1.72,0,0,1,.74-1.51,4.31,4.31,0,0,1,2.27-.56l1.12,0V73a1.35,1.35,0,0,0-.29-.93,1.19,1.19,0,0,0-.9-.31,3,3,0,0,0-1,.15,6.2,6.2,0,0,0-.88.35l-.45-1a5.14,5.14,0,0,1,1.16-.42,5.57,5.57,0,0,1,1.18-.14,2.82,2.82,0,0,1,1.87.54,2.1,2.1,0,0,1,.63,1.69v4.37Zm-2.05-.94a1.69,1.69,0,0,0,1.2-.42,1.49,1.49,0,0,0,.46-1.17v-.57l-.83,0a2.89,2.89,0,0,0-1.42.32,1,1,0,0,0-.44.89.84.84,0,0,0,.26.67A1.09,1.09,0,0,0,237.45,76.33Z"/><path class="cls-3" d="M244.59,77.38a2.24,2.24,0,0,1-1.89-.88,4.8,4.8,0,0,1,0-4.94,2.26,2.26,0,0,1,1.91-.89,2.22,2.22,0,0,1,1.94.94h.07a9.4,9.4,0,0,1-.1-1.1V68.15h1.39v9.12h-1.08l-.24-.85h-.07A2.21,2.21,0,0,1,244.59,77.38Zm.37-1.11a1.5,1.5,0,0,0,1.24-.48,2.51,2.51,0,0,0,.4-1.55v-.19a2.93,2.93,0,0,0-.4-1.74,1.5,1.5,0,0,0-1.25-.52,1.28,1.28,0,0,0-1.12.59,3,3,0,0,0-.39,1.68,3,3,0,0,0,.38,1.65A1.29,1.29,0,0,0,245,76.27Z"/><path class="cls-3" d="M255.63,74a3.54,3.54,0,0,1-.81,2.48,2.91,2.91,0,0,1-2.27.89,3.06,3.06,0,0,1-1.61-.41,2.7,2.7,0,0,1-1.07-1.17A4.06,4.06,0,0,1,249.5,74a3.51,3.51,0,0,1,.81-2.46,3.29,3.29,0,0,1,4.5,0A3.5,3.5,0,0,1,255.63,74Zm-4.71,0q0,2.25,1.65,2.25c1.1,0,1.64-.75,1.64-2.25s-.55-2.22-1.65-2.22a1.42,1.42,0,0,0-1.26.58A2.91,2.91,0,0,0,250.92,74Z"/><path class="cls-3" d="M259.35,70.79h1.5l1.32,3.67a7.08,7.08,0,0,1,.39,1.48h.05a7.92,7.92,0,0,1,.19-.79c.1-.3.59-1.76,1.49-4.36h1.49L263,78.13a2.63,2.63,0,0,1-2.52,2,3.74,3.74,0,0,1-.89-.1V79a3,3,0,0,0,.71.07,1.45,1.45,0,0,0,1.4-1.15l.24-.61Z"/><path class="cls-3" d="M207,91.78a2.26,2.26,0,0,1-1.89-.87,3.92,3.92,0,0,1-.68-2.47,4,4,0,0,1,.68-2.48,2.3,2.3,0,0,1,1.91-.89A2.24,2.24,0,0,1,209,86h.07a7.62,7.62,0,0,1-.1-1.1V82.55h1.38v9.12h-1.08l-.24-.85H209A2.21,2.21,0,0,1,207,91.78Zm.37-1.11a1.48,1.48,0,0,0,1.23-.48,2.49,2.49,0,0,0,.4-1.55v-.19a2.86,2.86,0,0,0-.4-1.74,1.48,1.48,0,0,0-1.24-.52,1.27,1.27,0,0,0-1.12.59,3.75,3.75,0,0,0,0,3.33A1.31,1.31,0,0,0,207.4,90.67Z"/><path class="cls-3" d="M215.15,91.78a3.1,3.1,0,0,1-2.36-.88,3.35,3.35,0,0,1-.86-2.43,3.7,3.7,0,0,1,.79-2.49,2.74,2.74,0,0,1,2.18-.91,2.65,2.65,0,0,1,2,.78,3,3,0,0,1,.75,2.14v.75h-4.32a2.13,2.13,0,0,0,.51,1.45,1.76,1.76,0,0,0,1.35.5,5.12,5.12,0,0,0,1.07-.1,7.09,7.09,0,0,0,1.07-.36v1.11a4.08,4.08,0,0,1-1,.34A6,6,0,0,1,215.15,91.78Zm-.25-5.67a1.36,1.36,0,0,0-1.05.42,2,2,0,0,0-.48,1.21h2.95a1.79,1.79,0,0,0-.39-1.21A1.32,1.32,0,0,0,214.9,86.11Z"/><path class="cls-3" d="M223.59,89.82a1.71,1.71,0,0,1-.69,1.46,3.33,3.33,0,0,1-2,.5,4.75,4.75,0,0,1-2.09-.39V90.2a5.2,5.2,0,0,0,2.13.53c.85,0,1.27-.26,1.27-.77a.59.59,0,0,0-.14-.41,1.7,1.7,0,0,0-.46-.34,7,7,0,0,0-.9-.4,4.15,4.15,0,0,1-1.51-.86,1.64,1.64,0,0,1-.4-1.13,1.5,1.5,0,0,1,.67-1.29,3.18,3.18,0,0,1,1.83-.46,5.14,5.14,0,0,1,2.16.46l-.44,1a4.79,4.79,0,0,0-1.77-.43c-.72,0-1.09.2-1.09.62a.62.62,0,0,0,.29.51,5.88,5.88,0,0,0,1.24.58,5.91,5.91,0,0,1,1.16.57,1.7,1.7,0,0,1,.54.6A1.66,1.66,0,0,1,223.59,89.82Z"/><path class="cls-3" d="M225,83.47a.74.74,0,0,1,.21-.57.77.77,0,0,1,.57-.2.81.81,0,0,1,.57.2.77.77,0,0,1,.2.57.76.76,0,0,1-.2.55.77.77,0,0,1-.57.21.74.74,0,0,1-.57-.21A.72.72,0,0,1,225,83.47Zm1.46,8.2h-1.37V85.19h1.37Z"/><path class="cls-3" d="M234.12,91.67h-1.38v-4a1.76,1.76,0,0,0-.3-1.12,1.19,1.19,0,0,0-1-.37,1.55,1.55,0,0,0-1.28.52,2.84,2.84,0,0,0-.4,1.73v3.23h-1.38V85.19h1.08l.19.85h.07a2,2,0,0,1,.83-.72,2.77,2.77,0,0,1,1.2-.25,2.08,2.08,0,0,1,2.33,2.37Z"/><path class="cls-3" d="M239.29,86.23h-1.58v5.44h-1.38V86.23h-1.07v-.65l1.07-.42v-.42a2.36,2.36,0,0,1,.53-1.7,2.21,2.21,0,0,1,1.65-.55,4.38,4.38,0,0,1,1.43.24l-.36,1a3.21,3.21,0,0,0-1-.17.8.8,0,0,0-.68.29,1.51,1.51,0,0,0-.21.87v.43h1.58Z"/><path class="cls-3" d="M243.22,91.78a3.12,3.12,0,0,1-2.36-.88,3.35,3.35,0,0,1-.86-2.43,3.65,3.65,0,0,1,.8-2.49,2.7,2.7,0,0,1,2.17-.91,2.67,2.67,0,0,1,2,.78,3,3,0,0,1,.74,2.14v.75h-4.32a2.13,2.13,0,0,0,.51,1.45,1.77,1.77,0,0,0,1.36.5,5.19,5.19,0,0,0,1.07-.1,7,7,0,0,0,1.06-.36v1.11a4.08,4.08,0,0,1-1,.34A6,6,0,0,1,243.22,91.78ZM243,86.11a1.36,1.36,0,0,0-1.05.42,1.94,1.94,0,0,0-.47,1.21h2.94a1.79,1.79,0,0,0-.39-1.21A1.31,1.31,0,0,0,243,86.11Z"/><path class="cls-3" d="M249.92,91.78a2.85,2.85,0,0,1-2.24-.85,4.37,4.37,0,0,1,0-5,2.94,2.94,0,0,1,2.31-.88,4.43,4.43,0,0,1,1.85.38l-.42,1.11a4.07,4.07,0,0,0-1.44-.34c-1.12,0-1.68.74-1.68,2.23a2.68,2.68,0,0,0,.42,1.64,1.45,1.45,0,0,0,1.22.55,3.54,3.54,0,0,0,1.74-.46v1.2a2.77,2.77,0,0,1-.78.31A5,5,0,0,1,249.92,91.78Z"/><path class="cls-3" d="M255.86,91.78a2.82,2.82,0,0,1-2.23-.85,4.34,4.34,0,0,1,0-5,2.94,2.94,0,0,1,2.31-.88,4.4,4.4,0,0,1,1.85.38l-.42,1.11a4.07,4.07,0,0,0-1.44-.34c-1.12,0-1.68.74-1.68,2.23a2.68,2.68,0,0,0,.42,1.64,1.46,1.46,0,0,0,1.22.55,3.6,3.6,0,0,0,1.75-.46v1.2a2.83,2.83,0,0,1-.79.31A5,5,0,0,1,255.86,91.78Z"/><path class="cls-3" d="M259.11,83.47a.74.74,0,0,1,.2-.57.8.8,0,0,1,.58-.2.77.77,0,0,1,.56.2.74.74,0,0,1,.2.57.72.72,0,0,1-.2.55.73.73,0,0,1-.56.21.76.76,0,0,1-.58-.21A.72.72,0,0,1,259.11,83.47Zm1.46,8.2h-1.38V85.19h1.38Z"/><path class="cls-3" d="M268.28,88.42a3.53,3.53,0,0,1-.81,2.47,2.91,2.91,0,0,1-2.27.89,3.06,3.06,0,0,1-1.61-.41,2.7,2.7,0,0,1-1.07-1.17,4,4,0,0,1-.37-1.78A3.52,3.52,0,0,1,263,86a2.92,2.92,0,0,1,2.28-.88,2.85,2.85,0,0,1,2.22.9A3.51,3.51,0,0,1,268.28,88.42Zm-4.71,0c0,1.49.55,2.24,1.65,2.24s1.64-.75,1.64-2.24-.55-2.23-1.65-2.23a1.39,1.39,0,0,0-1.25.58A2.92,2.92,0,0,0,263.57,88.42Zm.75-4v-.15c.22-.27.45-.58.69-.92a10,10,0,0,0,.56-.86h1.6v.13c-.2.23-.51.54-.91.92s-.75.67-1,.88Z"/><path class="cls-3" d="M275.57,91.67h-1.39v-4a1.76,1.76,0,0,0-.3-1.12,1.19,1.19,0,0,0-1-.37,1.52,1.52,0,0,0-1.27.52,2.83,2.83,0,0,0-.41,1.73v3.23h-1.38V85.19h1.08l.2.85h.07a1.89,1.89,0,0,1,.83-.72,2.76,2.76,0,0,1,1.19-.25,2.08,2.08,0,0,1,2.34,2.37Z"/><rect class="cls-4" x="189.63" y="98.16" width="101.1" height="1.33"/><rect class="cls-1" x="333.55" y="41.63" width="123" height="76" rx="12"/><circle class="cls-5" cx="395.05" cy="44.4" r="14.22"/><path class="cls-3" d="M399.11,40.62a3,3,0,0,1-.71,2,4,4,0,0,1-2.06,1.21v0q3.14.4,3.14,3a3.21,3.21,0,0,1-1.39,2.76,6.45,6.45,0,0,1-3.85,1,12.19,12.19,0,0,1-1.88-.14,10,10,0,0,1-1.87-.54V47.13a7.3,7.3,0,0,0,1.68.63,7.19,7.19,0,0,0,1.58.2,3.32,3.32,0,0,0,1.63-.31,1.25,1.25,0,0,0,.24-1.78,1.61,1.61,0,0,0-.86-.42,6.44,6.44,0,0,0-1.54-.15h-.78V42.75h.8q2.58,0,2.58-1.32a.82.82,0,0,0-.38-.74,1.94,1.94,0,0,0-1-.24,4.69,4.69,0,0,0-2.49.81L390.51,39a6.81,6.81,0,0,1,2-1,8.77,8.77,0,0,1,2.4-.29,5.22,5.22,0,0,1,3.05.77A2.47,2.47,0,0,1,399.11,40.62Z"/><path class="cls-3" d="M382.15,83a2.5,2.5,0,0,1-.88,2,3.86,3.86,0,0,1-2.5.72h-.89V89h-1.41V80.45h2.47a3.81,3.81,0,0,1,2.41.65A2.38,2.38,0,0,1,382.15,83Zm-4.27,1.59h.74a2.65,2.65,0,0,0,1.58-.37,1.36,1.36,0,0,0,.51-1.18,1.35,1.35,0,0,0-.46-1.1,2.23,2.23,0,0,0-1.4-.36h-1Z"/><path class="cls-3" d="M386.54,89.13a3.12,3.12,0,0,1-2.36-.88,3.35,3.35,0,0,1-.86-2.43,3.63,3.63,0,0,1,.8-2.49,3,3,0,0,1,4.2-.13,3,3,0,0,1,.74,2.14v.74h-4.32a2.16,2.16,0,0,0,.51,1.46,1.8,1.8,0,0,0,1.36.5,4.48,4.48,0,0,0,1.06-.11,5.39,5.39,0,0,0,1.07-.36v1.12a4.08,4.08,0,0,1-1,.34A6,6,0,0,1,386.54,89.13Zm-.25-5.67a1.36,1.36,0,0,0-1.05.42,1.92,1.92,0,0,0-.47,1.21h2.94a1.82,1.82,0,0,0-.39-1.22A1.33,1.33,0,0,0,386.29,83.46Z"/><path class="cls-3" d="M392,89h-1.37V79.9H392Z"/><path class="cls-3" d="M398,89l-.28-.9h-.05a2.54,2.54,0,0,1-.94.81,3,3,0,0,1-1.22.21,2.07,2.07,0,0,1-1.49-.51,1.93,1.93,0,0,1-.54-1.46,1.7,1.7,0,0,1,.75-1.51,4.26,4.26,0,0,1,2.27-.56l1.11,0v-.34a1.27,1.27,0,0,0-.29-.93,1.15,1.15,0,0,0-.89-.31,3,3,0,0,0-1,.15,8.44,8.44,0,0,0-.88.34l-.44-1a5.21,5.21,0,0,1,2.33-.56,2.8,2.8,0,0,1,1.87.54,2.1,2.1,0,0,1,.63,1.69V89ZM396,88.08a1.71,1.71,0,0,0,1.21-.42,1.53,1.53,0,0,0,.45-1.18v-.56l-.83,0a2.81,2.81,0,0,0-1.41.32,1,1,0,0,0-.45.89.87.87,0,0,0,.26.67A1.09,1.09,0,0,0,396,88.08Z"/><path class="cls-3" d="M403.12,89.13a2.27,2.27,0,0,1-1.9-.88,4.81,4.81,0,0,1,0-5,2.29,2.29,0,0,1,1.91-.88,2.24,2.24,0,0,1,1.95.94h.07a7.62,7.62,0,0,1-.1-1.1V79.9h1.38V89h-1.08l-.24-.84h-.06A2.21,2.21,0,0,1,403.12,89.13Zm.37-1.11a1.49,1.49,0,0,0,1.23-.48,2.51,2.51,0,0,0,.4-1.55V85.8a2.86,2.86,0,0,0-.4-1.74,1.46,1.46,0,0,0-1.25-.52,1.26,1.26,0,0,0-1.11.59,3.73,3.73,0,0,0,0,3.32A1.3,1.3,0,0,0,403.49,88Z"/><path class="cls-3" d="M414.16,85.76a3.55,3.55,0,0,1-.82,2.48,2.93,2.93,0,0,1-2.27.89,3,3,0,0,1-1.6-.41,2.62,2.62,0,0,1-1.07-1.18,4,4,0,0,1-.38-1.78,3.51,3.51,0,0,1,.81-2.46,2.93,2.93,0,0,1,2.28-.88,2.87,2.87,0,0,1,2.23.9A3.55,3.55,0,0,1,414.16,85.76Zm-4.72,0c0,1.5.55,2.25,1.66,2.25s1.64-.75,1.64-2.25-.55-2.22-1.65-2.22a1.4,1.4,0,0,0-1.26.58A2.9,2.9,0,0,0,409.44,85.76Z"/><rect class="cls-4" x="344.5" y="98.16" width="101.1" height="1.33"/><path class="cls-6" d="M175.52,79.1l-8,5.9a.38.38,0,0,1-.6-.33l.19-2.74a.38.38,0,0,0-.38-.4h-16.6a.38.38,0,0,1-.37-.38V76.44a.38.38,0,0,1,.37-.38h16.6a.38.38,0,0,0,.38-.4L167,72.92a.38.38,0,0,1,.6-.33l8,5.9A.37.37,0,0,1,175.52,79.1Z"/><path class="cls-6" d="M330.4,79.1l-8,5.9a.38.38,0,0,1-.6-.33l.19-2.74a.38.38,0,0,0-.38-.4H305.06a.38.38,0,0,1-.38-.38V76.44a.38.38,0,0,1,.38-.38h16.59a.38.38,0,0,0,.38-.4l-.19-2.74a.38.38,0,0,1,.6-.33l8,5.9A.39.39,0,0,1,330.4,79.1Z"/><path class="cls-6" d="M394.75,154.49l-5.91-8a.38.38,0,0,1,.33-.6l2.74.19a.37.37,0,0,0,.4-.38V129.15a.38.38,0,0,1,.38-.38h4.72a.38.38,0,0,1,.37.38v16.59a.38.38,0,0,0,.41.38l2.73-.19a.37.37,0,0,1,.33.6l-5.9,8A.37.37,0,0,1,394.75,154.49Z"/><path class="cls-6" d="M85,285.75l-5.9-8a.38.38,0,0,1,.33-.6l2.74.19a.37.37,0,0,0,.4-.37v-16.6A.38.38,0,0,1,83,260h4.71a.38.38,0,0,1,.38.38V277a.37.37,0,0,0,.4.37l2.74-.19a.38.38,0,0,1,.33.6l-5.9,8A.39.39,0,0,1,85,285.75Z"/><path class="cls-6" d="M175.52,344.86l-8,5.9a.38.38,0,0,1-.6-.33l.19-2.74a.38.38,0,0,0-.38-.4h-16.6a.38.38,0,0,1-.37-.38V342.2a.38.38,0,0,1,.37-.38h16.6a.38.38,0,0,0,.38-.4l-.19-2.74a.38.38,0,0,1,.6-.33l8,5.9A.37.37,0,0,1,175.52,344.86Z"/><path class="cls-6" d="M150,208.34l8-5.9a.38.38,0,0,1,.6.33l-.19,2.74a.37.37,0,0,0,.37.4h16.6a.38.38,0,0,1,.38.38V211a.38.38,0,0,1-.38.38H158.7a.37.37,0,0,0-.37.41l.19,2.73a.38.38,0,0,1-.6.33l-8-5.9A.39.39,0,0,1,150,208.34Z"/><path class="cls-6" d="M304.83,208.34l8-5.9a.38.38,0,0,1,.6.33l-.19,2.74a.37.37,0,0,0,.38.4h16.59a.38.38,0,0,1,.38.38V211a.38.38,0,0,1-.38.38H313.58a.38.38,0,0,0-.38.41l.19,2.73a.38.38,0,0,1-.6.33l-8-5.9A.39.39,0,0,1,304.83,208.34Z"/><rect class="cls-1" x="333.55" y="177.23" width="123" height="76" rx="12"/><circle class="cls-5" cx="395.05" cy="180.01" r="14.22"/><path class="cls-3" d="M399.94,183.63h-1.39v2.44H395.2v-2.44h-5v-2.49l5.23-7.64h3.13v7.6h1.39Zm-4.74-2.53v-1.46q0-.42,0-1.11a7.15,7.15,0,0,1,0-.74h-.09a9.78,9.78,0,0,1-.67,1.24l-1.39,2.07Z"/><rect class="cls-4" x="344.5" y="233.76" width="101.1" height="1.33"/><path class="cls-3" d="M211.82,224.62v-8.57h1.4v8.57Z"/><path class="cls-3" d="M221,224.62h-1.38v-4a1.74,1.74,0,0,0-.31-1.12,1.15,1.15,0,0,0-.95-.37,1.53,1.53,0,0,0-1.28.51,2.85,2.85,0,0,0-.41,1.73v3.23h-1.37v-6.48h1.08l.19.85h.07a1.81,1.81,0,0,1,.83-.71,2.78,2.78,0,0,1,1.2-.26A2.08,2.08,0,0,1,221,220.4Z"/><path class="cls-3" d="M228.42,224.62H227v-4a1.83,1.83,0,0,0-.28-1.12,1,1,0,0,0-.88-.36,1.34,1.34,0,0,0-1.17.52,3.09,3.09,0,0,0-.37,1.72v3.23H223v-6.48H224l.2.85h.07a1.74,1.74,0,0,1,.78-.71,2.5,2.5,0,0,1,1.13-.26,2,2,0,0,1,2,1h.09a2,2,0,0,1,.81-.75,2.54,2.54,0,0,1,1.19-.27,2.16,2.16,0,0,1,1.69.59,2.57,2.57,0,0,1,.53,1.79v4.22h-1.37v-4a1.83,1.83,0,0,0-.29-1.12,1,1,0,0,0-.88-.36,1.38,1.38,0,0,0-1.17.5,2.57,2.57,0,0,0-.37,1.54Z"/><path class="cls-3" d="M237.26,224.74a3.18,3.18,0,0,1-2.37-.88,3.35,3.35,0,0,1-.85-2.43,3.68,3.68,0,0,1,.79-2.5A2.75,2.75,0,0,1,237,218a2.66,2.66,0,0,1,2,.78,3,3,0,0,1,.75,2.15v.74h-4.32a2.13,2.13,0,0,0,.51,1.45,1.76,1.76,0,0,0,1.35.51,5.17,5.17,0,0,0,1.07-.11,5.11,5.11,0,0,0,1.06-.36v1.12a4.22,4.22,0,0,1-1,.34A5.87,5.87,0,0,1,237.26,224.74Zm-.26-5.67a1.42,1.42,0,0,0-1.05.41,2,2,0,0,0-.47,1.22h2.94a1.75,1.75,0,0,0-.38-1.22A1.32,1.32,0,0,0,237,219.07Z"/><path class="cls-3" d="M244.63,218a3.17,3.17,0,0,1,.68.06l-.13,1.29a2.49,2.49,0,0,0-.61-.08,1.76,1.76,0,0,0-1.34.54,2,2,0,0,0-.51,1.4v3.39h-1.38v-6.48h1.08l.18,1.14h.07a2.76,2.76,0,0,1,.84-.92A2.07,2.07,0,0,1,244.63,218Z"/><path class="cls-3" d="M250.87,222.78a1.69,1.69,0,0,1-.69,1.45,3.29,3.29,0,0,1-2,.51,4.67,4.67,0,0,1-2.08-.39v-1.19a5.1,5.1,0,0,0,2.12.52c.85,0,1.27-.25,1.27-.76a.57.57,0,0,0-.14-.41,1.4,1.4,0,0,0-.46-.34,7,7,0,0,0-.9-.4,4.14,4.14,0,0,1-1.51-.87,1.61,1.61,0,0,1-.4-1.12,1.49,1.49,0,0,1,.68-1.3,3.2,3.2,0,0,1,1.82-.46,5.15,5.15,0,0,1,2.16.47l-.44,1a4.79,4.79,0,0,0-1.77-.43c-.72,0-1.09.21-1.09.62a.64.64,0,0,0,.29.52,6.46,6.46,0,0,0,1.24.58,5,5,0,0,1,1.16.57,1.58,1.58,0,0,1,.54.59A1.67,1.67,0,0,1,250.87,222.78Z"/><path class="cls-3" d="M252.27,216.42a.71.71,0,0,1,.78-.76.75.75,0,0,1,.57.2.77.77,0,0,1,.2.56.78.78,0,0,1-.2.56.79.79,0,0,1-.57.2.77.77,0,0,1-.57-.2A.75.75,0,0,1,252.27,216.42Zm1.46,8.2h-1.37v-6.48h1.37Z"/><path class="cls-3" d="M261.45,221.37a3.56,3.56,0,0,1-.81,2.48,2.94,2.94,0,0,1-2.27.89,3.16,3.16,0,0,1-1.61-.41,2.79,2.79,0,0,1-1.07-1.18,4,4,0,0,1-.37-1.78,3.5,3.5,0,0,1,.8-2.46,2.94,2.94,0,0,1,2.28-.89,2.88,2.88,0,0,1,2.23.91A3.48,3.48,0,0,1,261.45,221.37Zm-4.72,0c0,1.5.56,2.24,1.66,2.24s1.64-.74,1.64-2.24-.55-2.22-1.65-2.22a1.42,1.42,0,0,0-1.26.57A2.94,2.94,0,0,0,256.73,221.37Zm.76-4v-.15c.22-.27.45-.57.69-.91s.42-.62.56-.86h1.6v.12a12.57,12.57,0,0,1-.91.92,13.48,13.48,0,0,1-1,.88Z"/><path class="cls-3" d="M268.73,224.62h-1.38v-4a1.74,1.74,0,0,0-.3-1.12,1.15,1.15,0,0,0-1-.37,1.54,1.54,0,0,0-1.28.51,2.86,2.86,0,0,0-.4,1.73v3.23H263v-6.48h1.08l.19.85h.07a1.89,1.89,0,0,1,.84-.71,2.73,2.73,0,0,1,1.19-.26,2.08,2.08,0,0,1,2.33,2.38Z"/><circle class="cls-5" cx="240.18" cy="178.37" r="14.22"/><path class="cls-3" d="M240.73,176.2a3.78,3.78,0,0,1,2,.5,3.45,3.45,0,0,1,1.36,1.42,4.51,4.51,0,0,1,.48,2.12,4.09,4.09,0,0,1-1.26,3.23,5.66,5.66,0,0,1-3.84,1.13,8.24,8.24,0,0,1-3.59-.68v-2.78a9.05,9.05,0,0,0,1.69.56,7.06,7.06,0,0,0,1.62.23,2.34,2.34,0,0,0,1.45-.4,1.41,1.41,0,0,0,.51-1.18,1.37,1.37,0,0,0-.52-1.13,2.49,2.49,0,0,0-1.56-.4,5.63,5.63,0,0,0-1.73.3L236,178.5l.48-6.63h7.16v2.82H239.4l-.15,1.66a7.13,7.13,0,0,1,.95-.14Z"/><rect class="cls-4" x="189.63" y="232.12" width="101.1" height="1.33"/><path class="cls-3" d="M372.18,208.88h-1.4v-7.36h-2.52v-1.2h6.44v1.2h-2.52Z"/><path class="cls-3" d="M379.15,202.29a3.27,3.27,0,0,1,.69.06l-.14,1.28a2.43,2.43,0,0,0-.61-.07,1.78,1.78,0,0,0-1.34.54,2,2,0,0,0-.51,1.4v3.38h-1.38V202.4h1.08l.18,1.15h.07a2.52,2.52,0,0,1,.85-.92A1.94,1.94,0,0,1,379.15,202.29Z"/><path class="cls-3" d="M386.79,205.63a3.55,3.55,0,0,1-.82,2.48,2.9,2.9,0,0,1-2.27.89,3,3,0,0,1-1.6-.41,2.62,2.62,0,0,1-1.07-1.18,4,4,0,0,1-.38-1.78,3.51,3.51,0,0,1,.81-2.46,2.93,2.93,0,0,1,2.28-.88,2.87,2.87,0,0,1,2.23.9A3.55,3.55,0,0,1,386.79,205.63Zm-4.72,0c0,1.5.55,2.25,1.66,2.25s1.64-.75,1.64-2.25-.55-2.22-1.65-2.22a1.4,1.4,0,0,0-1.26.58A2.9,2.9,0,0,0,382.07,205.63Z"/><path class="cls-3" d="M391,209a2.8,2.8,0,0,1-2.23-.86,4.33,4.33,0,0,1,0-5,2.94,2.94,0,0,1,2.31-.88,4.25,4.25,0,0,1,1.85.38l-.42,1.11a4.07,4.07,0,0,0-1.44-.34c-1.12,0-1.68.74-1.68,2.23a2.7,2.7,0,0,0,.42,1.64,1.46,1.46,0,0,0,1.23.54,3.58,3.58,0,0,0,1.74-.45v1.2a2.83,2.83,0,0,1-.79.31A5,5,0,0,1,391,209Z"/><path class="cls-3" d="M397.14,209a3.1,3.1,0,0,1-2.36-.88,3.35,3.35,0,0,1-.86-2.43,3.68,3.68,0,0,1,.79-2.49,2.74,2.74,0,0,1,2.18-.91,2.69,2.69,0,0,1,2,.78,3,3,0,0,1,.74,2.14V206h-4.32a2.15,2.15,0,0,0,.51,1.45,1.8,1.8,0,0,0,1.35.5,4.51,4.51,0,0,0,1.07-.11,5.39,5.39,0,0,0,1.07-.36v1.12a4.08,4.08,0,0,1-1,.34A6,6,0,0,1,397.14,209Zm-.25-5.67a1.36,1.36,0,0,0-1.05.42,2,2,0,0,0-.48,1.21h2.95a1.82,1.82,0,0,0-.39-1.22A1.33,1.33,0,0,0,396.89,203.33Z"/><path class="cls-3" d="M405.28,208.88,405,208h0a2.64,2.64,0,0,1-.95.81,3,3,0,0,1-1.22.21,2.09,2.09,0,0,1-1.49-.51,2,2,0,0,1-.53-1.46,1.7,1.7,0,0,1,.74-1.51,4.28,4.28,0,0,1,2.27-.56l1.12,0v-.34a1.31,1.31,0,0,0-.29-.93,1.19,1.19,0,0,0-.9-.31,3.11,3.11,0,0,0-1,.15,9.4,9.4,0,0,0-.88.34l-.44-1a5.24,5.24,0,0,1,1.15-.42,5.13,5.13,0,0,1,1.19-.14,2.79,2.79,0,0,1,1.86.54,2.1,2.1,0,0,1,.63,1.69v4.36Zm-2-.93a1.69,1.69,0,0,0,1.2-.42,1.54,1.54,0,0,0,.46-1.18v-.56l-.84,0a2.84,2.84,0,0,0-1.41.32,1,1,0,0,0-.44.89.87.87,0,0,0,.25.67A1.12,1.12,0,0,0,403.23,208Z"/><path class="cls-3" d="M410.37,209a2.24,2.24,0,0,1-1.89-.88,3.89,3.89,0,0,1-.68-2.46,4,4,0,0,1,.69-2.49,2.27,2.27,0,0,1,1.9-.88,2.23,2.23,0,0,1,1.95.94h.07a7.62,7.62,0,0,1-.1-1.1v-2.36h1.38v9.11h-1.08l-.24-.84h-.06A2.21,2.21,0,0,1,410.37,209Zm.37-1.11a1.5,1.5,0,0,0,1.24-.48,2.51,2.51,0,0,0,.39-1.55v-.19a2.94,2.94,0,0,0-.39-1.74,1.48,1.48,0,0,0-1.25-.52,1.27,1.27,0,0,0-1.12.59,3,3,0,0,0-.39,1.68,2.86,2.86,0,0,0,.38,1.64A1.27,1.27,0,0,0,410.74,207.89Z"/><path class="cls-3" d="M421.41,205.63a3.5,3.5,0,0,1-.82,2.48,2.87,2.87,0,0,1-2.26.89,3.06,3.06,0,0,1-1.61-.41,2.67,2.67,0,0,1-1.07-1.18,4,4,0,0,1-.38-1.78,3.51,3.51,0,0,1,.81-2.46,2.93,2.93,0,0,1,2.28-.88,2.87,2.87,0,0,1,2.23.9A3.5,3.5,0,0,1,421.41,205.63Zm-4.72,0c0,1.5.56,2.25,1.66,2.25s1.64-.75,1.64-2.25-.55-2.22-1.65-2.22a1.4,1.4,0,0,0-1.26.58A2.9,2.9,0,0,0,416.69,205.63Z"/><path class="cls-3" d="M372.68,220a9.15,9.15,0,0,1,.45-2.91,7.38,7.38,0,0,1,1.31-2.37h1.2a8.43,8.43,0,0,0-1.24,2.47A9.16,9.16,0,0,0,374,220a9,9,0,0,0,.44,2.77,8.5,8.5,0,0,0,1.23,2.42h-1.19a7,7,0,0,1-1.31-2.32A8.88,8.88,0,0,1,372.68,220Z"/><path class="cls-3" d="M380.57,223.28H379.2v-5.53c0-.66,0-1.18,0-1.57a3.39,3.39,0,0,1-.33.31c-.13.12-.57.48-1.31,1.08l-.7-.87,2.52-2h1.15Z"/><path class="cls-3" d="M383.27,220.65v-1.17h3v1.17Z"/><path class="cls-3" d="M390.15,217.93a2.94,2.94,0,0,1,2.05.69,2.41,2.41,0,0,1,.75,1.87,2.7,2.7,0,0,1-.86,2.14,3.53,3.53,0,0,1-2.44.77,4.6,4.6,0,0,1-2.25-.46v-1.25a4.13,4.13,0,0,0,1.09.42,5.37,5.37,0,0,0,1.14.14,2.18,2.18,0,0,0,1.42-.41,1.54,1.54,0,0,0,.49-1.22c0-1-.66-1.54-2-1.54a4.7,4.7,0,0,0-.68.06l-.71.12-.62-.36.33-4.18h4.46v1.22h-3.24l-.2,2.12.5-.08A4.91,4.91,0,0,1,390.15,217.93Z"/><path class="cls-3" d="M400.28,223.4a2.82,2.82,0,0,1-2.24-.86,4.35,4.35,0,0,1,0-5,2.94,2.94,0,0,1,2.31-.88,4.21,4.21,0,0,1,1.84.38l-.41,1.1a4.31,4.31,0,0,0-1.44-.34c-1.12,0-1.68.75-1.68,2.24a2.7,2.7,0,0,0,.41,1.64,1.46,1.46,0,0,0,1.23.54,3.53,3.53,0,0,0,1.74-.45V223a2.71,2.71,0,0,1-.79.31A4.85,4.85,0,0,1,400.28,223.4Z"/><path class="cls-3" d="M409.07,223.28h-1.39v-4a1.78,1.78,0,0,0-.28-1.11,1,1,0,0,0-.88-.37,1.34,1.34,0,0,0-1.17.52,3.13,3.13,0,0,0-.37,1.73v3.22h-1.37V216.8h1.07l.2.85H405a1.79,1.79,0,0,1,.78-.71,2.5,2.5,0,0,1,1.13-.25,2,2,0,0,1,2,1h.09a2,2,0,0,1,.81-.75,2.59,2.59,0,0,1,1.2-.27,2.19,2.19,0,0,1,1.69.58,2.62,2.62,0,0,1,.53,1.79v4.22h-1.38v-4a1.85,1.85,0,0,0-.28-1.11,1,1,0,0,0-.89-.37,1.38,1.38,0,0,0-1.17.5,2.59,2.59,0,0,0-.37,1.54Z"/><path class="cls-3" d="M417.42,220a9,9,0,0,1-.46,2.87,6.81,6.81,0,0,1-1.31,2.31h-1.19a8.21,8.21,0,0,0,1.24-2.43,8.85,8.85,0,0,0,.43-2.76,9.15,9.15,0,0,0-.43-2.8,8.58,8.58,0,0,0-1.25-2.47h1.2A7.07,7.07,0,0,1,417,217.1,8.86,8.86,0,0,1,417.42,220Z"/><circle class="cls-5" cx="85.31" cy="178.37" r="14.22"/><path class="cls-3" d="M80.75,179.12a10.26,10.26,0,0,1,.75-4.26,4.91,4.91,0,0,1,2.22-2.4,7.62,7.62,0,0,1,3.61-.78,12.53,12.53,0,0,1,1.79.15v2.66a9.81,9.81,0,0,0-1.86-.17,3.71,3.71,0,0,0-2.54.75,3.37,3.37,0,0,0-.91,2.44h.1a2.63,2.63,0,0,1,2.49-1.46,3.25,3.25,0,0,1,2.6,1.08,5.25,5.25,0,0,1-.25,6.27,5,5,0,0,1-6.74-.24A6,6,0,0,1,80.75,179.12Zm4.66,2.79a1.1,1.1,0,0,0,.88-.41,2,2,0,0,0,.34-1.3c0-1-.4-1.53-1.19-1.53a1.22,1.22,0,0,0-1,.4,1.36,1.36,0,0,0-.36,1,2.42,2.42,0,0,0,.35,1.35A1.09,1.09,0,0,0,85.41,181.91Z"/><rect class="cls-4" x="34.76" y="232.12" width="101.1" height="1.33"/></g></g></svg>