<svg xmlns="http://www.w3.org/2000/svg" width="859.044" height="156.228" viewBox="0 0 859.044 156.228">
  <g id="Grupo_5017" data-name="Grupo 5017" transform="translate(-3.104 -4.138)">
    <g id="Grupo_4970" data-name="Grupo 4970">
      <g id="Grupo_4967" data-name="Grupo 4967">
        <path id="Trazado_14048" data-name="Trazado 14048" d="M152.526,79.465a1.233,1.233,0,0,1-1.233-1.233V75.766a1.233,1.233,0,0,1,2.466,0v2.466A1.233,1.233,0,0,1,152.526,79.465Z" fill="#7fb2aa"/>
      </g>
      <g id="Grupo_4968" data-name="Grupo 4968">
        <path id="Trazado_14049" data-name="Trazado 14049" d="M139.75,154.793h-4.9a1.233,1.233,0,0,1,0-2.467h4.9a1.233,1.233,0,0,1,0,2.467Zm-14.714,0h-4.905a1.233,1.233,0,0,1,0-2.467h4.905a1.233,1.233,0,0,1,0,2.467Zm-14.715,0h-4.9a1.233,1.233,0,0,1,0-2.467h4.9a1.233,1.233,0,0,1,0,2.467Zm-14.714,0H90.7a1.233,1.233,0,0,1,0-2.467h4.9a1.233,1.233,0,0,1,0,2.467Zm-14.715,0h-4.9a1.233,1.233,0,0,1,0-2.467h4.9a1.233,1.233,0,0,1,0,2.467Zm-14.714,0H61.273a1.233,1.233,0,0,1,0-2.467h4.905a1.233,1.233,0,0,1,0,2.467Zm-14.714,0H46.558a1.233,1.233,0,0,1,0-2.467h4.906a1.233,1.233,0,0,1,0,2.467Zm-14.715,0H31.844a1.233,1.233,0,0,1,0-2.467h4.905a1.233,1.233,0,0,1,0,2.467Zm-14.714,0H17.13a1.233,1.233,0,1,1,0-2.467h4.905a1.233,1.233,0,0,1,0,2.467Zm-14.022-2.8a1.226,1.226,0,0,1-.82-.313q-.258-.231-.5-.475a12.173,12.173,0,0,1-2.639-3.929,1.233,1.233,0,1,1,2.275-.951,9.731,9.731,0,0,0,2.107,3.136c.13.13.264.257.4.379a1.233,1.233,0,0,1-.821,2.153Zm140.849-.011a1.233,1.233,0,0,1-.823-2.152c.134-.12.264-.243.392-.371a9.741,9.741,0,0,0,2.112-3.149,1.233,1.233,0,0,1,2.276.95,12.2,12.2,0,0,1-2.645,3.945q-.24.238-.49.462A1.232,1.232,0,0,1,148.862,151.984ZM4.337,138.34A1.234,1.234,0,0,1,3.1,137.107v-4.9a1.233,1.233,0,1,1,2.466,0v4.9A1.234,1.234,0,0,1,4.337,138.34Zm148.189-.017a1.234,1.234,0,0,1-1.233-1.233v-4.906a1.233,1.233,0,0,1,2.466,0v4.906A1.234,1.234,0,0,1,152.526,138.323ZM4.337,123.626A1.234,1.234,0,0,1,3.1,122.393v-4.906a1.233,1.233,0,1,1,2.466,0v4.906A1.234,1.234,0,0,1,4.337,123.626Zm148.189-.018a1.234,1.234,0,0,1-1.233-1.233v-4.9a1.233,1.233,0,1,1,2.466,0v4.9A1.234,1.234,0,0,1,152.526,123.608ZM4.337,108.911A1.234,1.234,0,0,1,3.1,107.678v-4.9a1.233,1.233,0,1,1,2.466,0v4.9A1.234,1.234,0,0,1,4.337,108.911Zm148.189-.017a1.234,1.234,0,0,1-1.233-1.233v-4.906a1.233,1.233,0,0,1,2.466,0v4.906A1.234,1.234,0,0,1,152.526,108.894ZM4.337,94.2A1.234,1.234,0,0,1,3.1,92.964V88.058a1.233,1.233,0,1,1,2.466,0v4.906A1.234,1.234,0,0,1,4.337,94.2Zm148.189-.018a1.234,1.234,0,0,1-1.233-1.233v-4.9a1.233,1.233,0,1,1,2.466,0v4.9A1.234,1.234,0,0,1,152.526,94.179Z" fill="#7fb2aa"/>
      </g>
      <g id="Grupo_4969" data-name="Grupo 4969">
        <path id="Trazado_14050" data-name="Trazado 14050" d="M4.337,79.465A1.233,1.233,0,0,1,3.1,78.232V75.766a1.233,1.233,0,1,1,2.466,0v2.466A1.233,1.233,0,0,1,4.337,79.465Z" fill="#7fb2aa"/>
      </g>
    </g>
    <g id="Grupo_4973" data-name="Grupo 4973">
      <g id="Grupo_4971" data-name="Grupo 4971">
        <path id="Trazado_14051" data-name="Trazado 14051" d="M170.939,80.7H151.293V16.38A9.775,9.775,0,0,0,141.517,6.6H15.346A9.775,9.775,0,0,0,5.57,16.38V79.465H3.1V16.38A12.242,12.242,0,0,1,15.346,4.138H141.517A12.242,12.242,0,0,1,153.759,16.38V78.232h17.18Z" fill="#7fb2aa"/>
      </g>
      <g id="Grupo_4972" data-name="Grupo 4972">
        <path id="Trazado_14052" data-name="Trazado 14052" d="M169.14,85.613l10.647-6.148L169.14,73.317Z" fill="#7fb2aa"/>
      </g>
    </g>
    <text id="Peso" transform="translate(27.486 105.332) rotate(0.018)" fill="#142756" font-size="16" font-family="CerebriSans-Regular, Cerebri Sans" letter-spacing="0.025em"><tspan x="33.717" y="16">Peso</tspan></text>
    <ellipse id="Elipse_1390" data-name="Elipse 1390" cx="43.76" cy="43.782" rx="43.76" ry="43.782" transform="translate(34.574 99.744) rotate(-89.935)" fill="#f6df86"/>
    <g id="Grupo_4977" data-name="Grupo 4977">
      <g id="Grupo_4974" data-name="Grupo 4974">
        <path id="Trazado_14053" data-name="Trazado 14053" d="M101.82,76.561C74.073,85.3,47.16,71.226,46.892,71.082l.94-1.765c.262.138,26.458,13.812,53.389,5.335Z" fill="#846e63"/>
        <path id="Trazado_14054" data-name="Trazado 14054" d="M105.347,75.256,96.537,85.69,95.01,84.4l7.156-8.477-7.827-3.842.882-1.8Z" fill="#846e63"/>
      </g>
      <g id="Grupo_4976" data-name="Grupo 4976">
        <g id="Grupo_4975" data-name="Grupo 4975">
          <path id="Trazado_14055" data-name="Trazado 14055" d="M72.2,74.035A127.3,127.3,0,0,1,48.72,72.746a1,1,0,0,1-.861-1.067,1.016,1.016,0,0,1,1.013-.924c.384.008,37.852.3,45.534-29.885a1,1,0,0,1,1.316-.691l4.128,1.527a1,1,0,0,1,.574.55c.209.5,5.029,12.265-2.063,21.516C93.63,69.943,84.867,73.372,72.2,74.035ZM58.788,71.8c19.184,1.4,32.221-1.742,37.976-9.234,5.709-7.434,2.7-17.092,1.965-19.146l-2.673-.988C90.189,63.17,70.82,69.731,58.788,71.8Z" fill="#846e63"/>
          <path id="Trazado_14056" data-name="Trazado 14056" d="M60.371,73.892l-.219.01a1,1,0,0,1-.091-2l.073,0c1.376-.073,25.6-1.605,33.206-18.783a1,1,0,0,1,1.828.81C87.174,71.976,63.114,73.748,60.371,73.892Z" fill="#846e63"/>
          <path id="Trazado_14057" data-name="Trazado 14057" d="M100.507,38.006a.993.993,0,0,1-.367-.05l-4.615-1.529a1,1,0,1,1,.628-1.9l4.615,1.53a1,1,0,0,1-.261,1.948Z" fill="#846e63"/>
        </g>
        <path id="Trazado_14058" data-name="Trazado 14058" d="M74.631,28.863a1,1,0,0,0-.153.8c3.4,14.579-2.543,26.075-9.675,34.1,1.026-.238,2.162-.543,3.383-.933C74.6,54.79,79.454,43.858,76.663,30.292l2.828-.354c1.6,1.483,8.718,8.671,7.073,17.9a17.606,17.606,0,0,1-1.74,5,39.854,39.854,0,0,0,3.586-4.092c.041-.193.092-.384.126-.578,2.035-11.478-7.664-19.7-8.078-20.049a1,1,0,0,0-.763-.223l-4.367.545A.991.991,0,0,0,74.631,28.863Z" fill="#846e63"/>
        <path id="Trazado_14059" data-name="Trazado 14059" d="M80.378,55.809l-1.789-.895c3.1-6.211,1.939-15.488,1.927-15.581l1.982-.26C82.552,39.477,83.758,49.044,80.378,55.809Z" fill="#846e63"/>
        <rect id="Rectángulo_1453" data-name="Rectángulo 1453" width="5.895" height="2" transform="translate(73.504 25.325) rotate(-9.895)" fill="#846e63"/>
      </g>
    </g>
    <g id="Grupo_4981" data-name="Grupo 4981">
      <g id="Grupo_4978" data-name="Grupo 4978">
        <path id="Trazado_14060" data-name="Trazado 14060" d="M329.631,79.465a1.233,1.233,0,0,1-1.233-1.233V75.766a1.233,1.233,0,0,1,2.466,0v2.466A1.233,1.233,0,0,1,329.631,79.465Z" fill="#7fb2aa"/>
      </g>
      <g id="Grupo_4979" data-name="Grupo 4979">
        <path id="Trazado_14061" data-name="Trazado 14061" d="M316.855,154.793h-4.9a1.233,1.233,0,0,1,0-2.467h4.9a1.233,1.233,0,0,1,0,2.467Zm-14.714,0h-4.9a1.233,1.233,0,0,1,0-2.467h4.9a1.233,1.233,0,0,1,0,2.467Zm-14.715,0h-4.9a1.233,1.233,0,0,1,0-2.467h4.9a1.233,1.233,0,0,1,0,2.467Zm-14.714,0h-4.9a1.233,1.233,0,0,1,0-2.467h4.9a1.233,1.233,0,0,1,0,2.467Zm-14.715,0h-4.9a1.233,1.233,0,0,1,0-2.467H258a1.233,1.233,0,0,1,0,2.467Zm-14.714,0h-4.9a1.233,1.233,0,0,1,0-2.467h4.9a1.233,1.233,0,0,1,0,2.467Zm-14.714,0h-4.9a1.233,1.233,0,0,1,0-2.467h4.9a1.233,1.233,0,0,1,0,2.467Zm-14.715,0h-4.9a1.233,1.233,0,0,1,0-2.467h4.9a1.233,1.233,0,1,1,0,2.467Zm-14.714,0h-4.9a1.233,1.233,0,0,1,0-2.467h4.9a1.233,1.233,0,0,1,0,2.467Zm-14.022-2.8a1.226,1.226,0,0,1-.82-.313q-.258-.231-.5-.475a12.173,12.173,0,0,1-2.639-3.929,1.233,1.233,0,1,1,2.275-.951,9.731,9.731,0,0,0,2.107,3.136c.131.13.265.257.4.379a1.233,1.233,0,0,1-.821,2.153Zm140.849-.011a1.233,1.233,0,0,1-.823-2.152c.134-.12.265-.243.392-.371a9.741,9.741,0,0,0,2.112-3.149,1.233,1.233,0,0,1,2.276.95,12.2,12.2,0,0,1-2.645,3.945q-.24.238-.489.462A1.234,1.234,0,0,1,325.967,151.984ZM181.442,138.34a1.234,1.234,0,0,1-1.233-1.233v-4.9a1.233,1.233,0,1,1,2.466,0v4.9A1.234,1.234,0,0,1,181.442,138.34Zm148.189-.017a1.234,1.234,0,0,1-1.233-1.233v-4.906a1.233,1.233,0,0,1,2.466,0v4.906A1.234,1.234,0,0,1,329.631,138.323Zm-148.189-14.7a1.234,1.234,0,0,1-1.233-1.233v-4.906a1.233,1.233,0,1,1,2.466,0v4.906A1.234,1.234,0,0,1,181.442,123.626Zm148.189-.018a1.234,1.234,0,0,1-1.233-1.233v-4.9a1.233,1.233,0,0,1,2.466,0v4.9A1.234,1.234,0,0,1,329.631,123.608Zm-148.189-14.7a1.234,1.234,0,0,1-1.233-1.233v-4.9a1.233,1.233,0,1,1,2.466,0v4.9A1.234,1.234,0,0,1,181.442,108.911Zm148.189-.017a1.234,1.234,0,0,1-1.233-1.233v-4.906a1.233,1.233,0,0,1,2.466,0v4.906A1.234,1.234,0,0,1,329.631,108.894ZM181.442,94.2a1.234,1.234,0,0,1-1.233-1.233V88.058a1.233,1.233,0,0,1,2.466,0v4.906A1.234,1.234,0,0,1,181.442,94.2Zm148.189-.018a1.234,1.234,0,0,1-1.233-1.233v-4.9a1.233,1.233,0,0,1,2.466,0v4.9A1.234,1.234,0,0,1,329.631,94.179Z" fill="#7fb2aa"/>
      </g>
      <g id="Grupo_4980" data-name="Grupo 4980">
        <path id="Trazado_14062" data-name="Trazado 14062" d="M181.442,79.465a1.233,1.233,0,0,1-1.233-1.233V75.766a1.233,1.233,0,0,1,2.466,0v2.466A1.233,1.233,0,0,1,181.442,79.465Z" fill="#7fb2aa"/>
      </g>
    </g>
    <g id="Grupo_4984" data-name="Grupo 4984">
      <g id="Grupo_4982" data-name="Grupo 4982">
        <path id="Trazado_14063" data-name="Trazado 14063" d="M348.044,80.7H328.4V16.38A9.775,9.775,0,0,0,318.622,6.6H192.451a9.775,9.775,0,0,0-9.776,9.776V79.465h-2.466V16.38A12.242,12.242,0,0,1,192.451,4.138H318.622A12.242,12.242,0,0,1,330.864,16.38V78.232h17.18Z" fill="#7fb2aa"/>
      </g>
      <g id="Grupo_4983" data-name="Grupo 4983">
        <path id="Trazado_14064" data-name="Trazado 14064" d="M346.245,85.613l10.647-6.148-10.647-6.148Z" fill="#7fb2aa"/>
      </g>
    </g>
    <text id="Variedad" transform="translate(204.592 105.333) rotate(0.018)" fill="#142756" font-size="16" font-family="CerebriSans-Regular, Cerebri Sans" letter-spacing="0.025em"><tspan x="18.202" y="16">Variedad</tspan></text>
    <ellipse id="Elipse_1391" data-name="Elipse 1391" cx="43.76" cy="43.782" rx="43.76" ry="43.782" transform="translate(211.679 99.744) rotate(-89.935)" fill="#f6df86"/>
    <g id="Grupo_4988" data-name="Grupo 4988">
      <g id="Grupo_4986" data-name="Grupo 4986">
        <g id="Grupo_4985" data-name="Grupo 4985">
          <path id="Trazado_14065" data-name="Trazado 14065" d="M255.164,80.753a127.376,127.376,0,0,1-23.481-1.29,1,1,0,0,1-.862-1.067,1.019,1.019,0,0,1,1.014-.924c.384.008,37.851.3,45.534-29.885a1,1,0,0,1,1.316-.691l4.127,1.528a1,1,0,0,1,.575.55c.209.5,5.029,12.265-2.063,21.516C276.593,76.661,267.83,80.089,255.164,80.753ZM241.751,78.52c19.183,1.4,32.22-1.742,37.975-9.234,5.71-7.433,2.7-17.091,1.966-19.145l-2.673-.989C273.152,69.888,253.783,76.449,241.751,78.52Z" fill="#846e63"/>
          <path id="Trazado_14066" data-name="Trazado 14066" d="M243.334,80.609l-.22.011a1,1,0,0,1-.09-2l.073,0c1.376-.072,25.6-1.6,33.205-18.783a1,1,0,0,1,1.829.81C270.137,78.693,246.076,80.466,243.334,80.609Z" fill="#846e63"/>
          <path id="Trazado_14067" data-name="Trazado 14067" d="M283.469,44.723a1,1,0,0,1-.366-.049l-4.616-1.529a1,1,0,0,1,.628-1.9l4.616,1.529a1,1,0,0,1-.262,1.948Z" fill="#846e63"/>
        </g>
        <path id="Trazado_14068" data-name="Trazado 14068" d="M257.594,35.581a1,1,0,0,0-.154.8c3.4,14.578-2.542,26.074-9.675,34.1,1.027-.238,2.163-.544,3.384-.933,6.409-8.044,11.268-18.976,8.477-32.542l2.828-.353c1.6,1.482,8.717,8.671,7.073,17.9a17.642,17.642,0,0,1-1.74,5,40.065,40.065,0,0,0,3.586-4.092c.04-.193.091-.385.126-.578,2.035-11.478-7.664-19.705-8.078-20.049a1,1,0,0,0-.763-.224l-4.368.545A1,1,0,0,0,257.594,35.581Z" fill="#846e63"/>
        <path id="Trazado_14069" data-name="Trazado 14069" d="M263.341,62.526l-1.789-.894c3.1-6.211,1.938-15.488,1.927-15.581l1.982-.26C265.515,46.194,266.721,55.762,263.341,62.526Z" fill="#846e63"/>
        <rect id="Rectángulo_1454" data-name="Rectángulo 1454" width="5.895" height="2" transform="translate(256.467 32.042) rotate(-9.895)" fill="#846e63"/>
      </g>
      <g id="Grupo_4987" data-name="Grupo 4987">
        <path id="Trazado_14070" data-name="Trazado 14070" d="M230.982,40.488a1,1,0,0,0,.305.754c10.784,10.384,12.044,23.265,10.424,33.882.731-.757,1.519-1.632,2.332-2.622,1.005-10.235-.861-22.053-10.579-31.921l2.181-1.834c2.15.374,12.031,2.538,15.668,11.177a17.606,17.606,0,0,1,1.26,5.144,39.951,39.951,0,0,0,.785-5.384c-.071-.184-.133-.372-.209-.553C248.616,38.391,236,36.761,235.468,36.7a1,1,0,0,0-.762.227l-3.368,2.832A.99.99,0,0,0,230.982,40.488Z" fill="#846e63"/>
        <path id="Trazado_14071" data-name="Trazado 14071" d="M250.456,59.977l-1.988.222c-.772-6.9-6.795-14.053-6.855-14.124l1.523-1.3C243.4,45.088,249.614,52.462,250.456,59.977Z" fill="#846e63"/>
        <rect id="Rectángulo_1455" data-name="Rectángulo 1455" width="5.895" height="2" transform="matrix(0.733, -0.68, 0.68, 0.733, 228.112, 38.13)" fill="#846e63"/>
      </g>
    </g>
    <g id="Grupo_4992" data-name="Grupo 4992">
      <g id="Grupo_4989" data-name="Grupo 4989">
        <path id="Trazado_14072" data-name="Trazado 14072" d="M506.978,79.465a1.233,1.233,0,0,1-1.233-1.233V75.766a1.234,1.234,0,0,1,2.467,0v2.466A1.233,1.233,0,0,1,506.978,79.465Z" fill="#7fb2aa"/>
      </g>
      <g id="Grupo_4990" data-name="Grupo 4990">
        <path id="Trazado_14073" data-name="Trazado 14073" d="M494.2,154.793h-4.9a1.233,1.233,0,0,1,0-2.467h4.9a1.233,1.233,0,0,1,0,2.467Zm-14.715,0h-4.9a1.233,1.233,0,1,1,0-2.467h4.9a1.233,1.233,0,0,1,0,2.467Zm-14.714,0h-4.9a1.233,1.233,0,0,1,0-2.467h4.9a1.233,1.233,0,0,1,0,2.467Zm-14.715,0h-4.9a1.233,1.233,0,1,1,0-2.467h4.9a1.233,1.233,0,0,1,0,2.467Zm-14.714,0h-4.9a1.233,1.233,0,0,1,0-2.467h4.9a1.233,1.233,0,0,1,0,2.467Zm-14.714,0h-4.9a1.233,1.233,0,1,1,0-2.467h4.9a1.233,1.233,0,0,1,0,2.467Zm-14.715,0h-4.9a1.233,1.233,0,0,1,0-2.467h4.9a1.233,1.233,0,0,1,0,2.467Zm-14.714,0h-4.9a1.233,1.233,0,1,1,0-2.467h4.9a1.233,1.233,0,0,1,0,2.467Zm-14.715,0h-4.9a1.233,1.233,0,0,1,0-2.467h4.9a1.233,1.233,0,0,1,0,2.467Zm-14.022-2.8a1.23,1.23,0,0,1-.82-.313c-.172-.154-.339-.312-.5-.475a12.154,12.154,0,0,1-2.638-3.929,1.233,1.233,0,1,1,2.275-.951,9.731,9.731,0,0,0,2.107,3.136c.13.13.264.257.4.379a1.233,1.233,0,0,1-.822,2.153Zm140.85-.011a1.233,1.233,0,0,1-.824-2.152c.134-.12.265-.243.393-.371a9.722,9.722,0,0,0,2.111-3.149,1.233,1.233,0,0,1,2.276.95,12.2,12.2,0,0,1-2.645,3.945q-.24.238-.489.462A1.231,1.231,0,0,1,503.315,151.984ZM358.79,138.34a1.234,1.234,0,0,1-1.234-1.233v-4.9a1.234,1.234,0,0,1,2.467,0v4.9A1.234,1.234,0,0,1,358.79,138.34Zm148.188-.017a1.234,1.234,0,0,1-1.233-1.233v-4.906a1.234,1.234,0,0,1,2.467,0v4.906A1.234,1.234,0,0,1,506.978,138.323Zm-148.188-14.7a1.234,1.234,0,0,1-1.234-1.233v-4.906a1.234,1.234,0,0,1,2.467,0v4.906A1.234,1.234,0,0,1,358.79,123.626Zm148.188-.018a1.234,1.234,0,0,1-1.233-1.233v-4.9a1.234,1.234,0,0,1,2.467,0v4.9A1.234,1.234,0,0,1,506.978,123.608Zm-148.188-14.7a1.234,1.234,0,0,1-1.234-1.233v-4.9a1.234,1.234,0,0,1,2.467,0v4.9A1.234,1.234,0,0,1,358.79,108.911Zm148.188-.017a1.234,1.234,0,0,1-1.233-1.233v-4.906a1.234,1.234,0,0,1,2.467,0v4.906A1.234,1.234,0,0,1,506.978,108.894ZM358.79,94.2a1.234,1.234,0,0,1-1.234-1.233V88.058a1.234,1.234,0,0,1,2.467,0v4.906A1.234,1.234,0,0,1,358.79,94.2Zm148.188-.018a1.234,1.234,0,0,1-1.233-1.233v-4.9a1.234,1.234,0,0,1,2.467,0v4.9A1.234,1.234,0,0,1,506.978,94.179Z" fill="#7fb2aa"/>
      </g>
      <g id="Grupo_4991" data-name="Grupo 4991">
        <path id="Trazado_14074" data-name="Trazado 14074" d="M358.79,79.465a1.234,1.234,0,0,1-1.234-1.233V75.766a1.234,1.234,0,0,1,2.467,0v2.466A1.233,1.233,0,0,1,358.79,79.465Z" fill="#7fb2aa"/>
      </g>
    </g>
    <g id="Grupo_4995" data-name="Grupo 4995">
      <g id="Grupo_4993" data-name="Grupo 4993">
        <path id="Trazado_14075" data-name="Trazado 14075" d="M525.392,80.7H505.745V16.38A9.775,9.775,0,0,0,495.969,6.6H369.8a9.775,9.775,0,0,0-9.776,9.776V79.465h-2.467V16.38A12.242,12.242,0,0,1,369.8,4.138h126.17A12.242,12.242,0,0,1,508.212,16.38V78.232h17.18Z" fill="#7fb2aa"/>
      </g>
      <g id="Grupo_4994" data-name="Grupo 4994">
        <path id="Trazado_14076" data-name="Trazado 14076" d="M523.593,85.613l10.647-6.148-10.647-6.148Z" fill="#7fb2aa"/>
      </g>
    </g>
    <text id="Tamaño" transform="translate(381.939 105.332) rotate(0.018)" fill="#142756" font-size="16" font-family="CerebriSans-Regular, Cerebri Sans" letter-spacing="0.025em"><tspan x="23.418" y="16">Tamaño</tspan></text>
    <ellipse id="Elipse_1392" data-name="Elipse 1392" cx="43.76" cy="43.782" rx="43.76" ry="43.782" transform="translate(389.027 99.744) rotate(-89.935)" fill="#f6df86"/>
    <g id="Grupo_4997" data-name="Grupo 4997">
      <g id="Grupo_4996" data-name="Grupo 4996">
        <path id="Trazado_14077" data-name="Trazado 14077" d="M427.431,81.131a163.312,163.312,0,0,1-30.109-1.654,1.282,1.282,0,0,1-1.1-1.368,1.306,1.306,0,0,1,1.3-1.185c.492.011,48.536.385,58.386-38.32a1.282,1.282,0,0,1,1.688-.886l5.292,1.958a1.282,1.282,0,0,1,.737.705c.268.637,6.449,15.728-2.646,27.59C454.909,75.883,443.672,80.28,427.431,81.131Zm-17.2-2.863c24.6,1.793,41.315-2.234,48.694-11.84,7.322-9.532,3.468-21.916,2.52-24.55l-3.427-1.267C450.5,67.2,425.66,75.612,410.232,78.268Z" fill="#846e63"/>
        <path id="Trazado_14078" data-name="Trazado 14078" d="M412.262,80.947l-.282.013a1.282,1.282,0,0,1-.116-2.562l.094-.005c1.764-.092,32.821-2.057,42.578-24.084a1.282,1.282,0,0,1,2.344,1.038C446.63,78.49,415.778,80.763,412.262,80.947Z" fill="#846e63"/>
        <path id="Trazado_14079" data-name="Trazado 14079" d="M463.726,34.931a1.274,1.274,0,0,1-.47-.063l-5.918-1.961a1.282,1.282,0,0,1,.8-2.435l5.918,1.961a1.282,1.282,0,0,1-.335,2.5Z" fill="#846e63"/>
      </g>
      <path id="Trazado_14080" data-name="Trazado 14080" d="M430.547,23.208a1.277,1.277,0,0,0-.2,1.025c4.365,18.693-3.26,33.434-12.406,43.73,1.316-.305,2.773-.7,4.339-1.2,8.217-10.314,14.448-24.332,10.87-41.727l3.625-.453c2.055,1.9,11.179,11.118,9.07,22.951a22.6,22.6,0,0,1-2.231,6.415,51.136,51.136,0,0,0,4.6-5.247c.052-.248.117-.493.161-.741,2.61-14.718-9.827-25.266-10.358-25.708a1.279,1.279,0,0,0-.978-.287l-5.6.7A1.276,1.276,0,0,0,430.547,23.208Z" fill="#846e63"/>
      <path id="Trazado_14081" data-name="Trazado 14081" d="M437.916,57.76l-2.294-1.147c3.98-7.965,2.486-19.861,2.471-19.979l2.542-.334C440.7,36.818,442.25,49.086,437.916,57.76Z" fill="#846e63"/>
      <rect id="Rectángulo_1456" data-name="Rectángulo 1456" width="7.559" height="2.565" transform="translate(429.102 18.671) rotate(-9.895)" fill="#846e63"/>
    </g>
    <g id="Grupo_5001" data-name="Grupo 5001">
      <g id="Grupo_4998" data-name="Grupo 4998">
        <path id="Trazado_14082" data-name="Trazado 14082" d="M683.568,79.465a1.233,1.233,0,0,1-1.233-1.233V75.766a1.233,1.233,0,1,1,2.466,0v2.466A1.233,1.233,0,0,1,683.568,79.465Z" fill="#7fb2aa"/>
      </g>
      <g id="Grupo_4999" data-name="Grupo 4999">
        <path id="Trazado_14083" data-name="Trazado 14083" d="M670.792,154.793h-4.9a1.233,1.233,0,0,1,0-2.467h4.9a1.233,1.233,0,0,1,0,2.467Zm-14.714,0h-4.905a1.233,1.233,0,0,1,0-2.467h4.905a1.233,1.233,0,0,1,0,2.467Zm-14.715,0h-4.9a1.233,1.233,0,0,1,0-2.467h4.9a1.233,1.233,0,0,1,0,2.467Zm-14.714,0h-4.9a1.233,1.233,0,0,1,0-2.467h4.9a1.233,1.233,0,0,1,0,2.467Zm-14.715,0h-4.905a1.233,1.233,0,0,1,0-2.467h4.905a1.233,1.233,0,0,1,0,2.467Zm-14.714,0h-4.9a1.233,1.233,0,0,1,0-2.467h4.9a1.233,1.233,0,0,1,0,2.467Zm-14.714,0h-4.9a1.233,1.233,0,0,1,0-2.467h4.9a1.233,1.233,0,0,1,0,2.467Zm-14.715,0h-4.905a1.233,1.233,0,0,1,0-2.467h4.905a1.233,1.233,0,0,1,0,2.467Zm-14.714,0h-4.905a1.233,1.233,0,0,1,0-2.467h4.905a1.233,1.233,0,0,1,0,2.467Zm-14.022-2.8a1.226,1.226,0,0,1-.82-.313q-.258-.231-.5-.475a12.174,12.174,0,0,1-2.639-3.929,1.233,1.233,0,1,1,2.275-.951,9.731,9.731,0,0,0,2.107,3.136c.13.13.264.257.4.379a1.233,1.233,0,0,1-.821,2.153Zm140.849-.011a1.234,1.234,0,0,1-.823-2.152c.134-.12.264-.243.392-.371a9.742,9.742,0,0,0,2.112-3.149,1.233,1.233,0,0,1,2.276.95,12.2,12.2,0,0,1-2.645,3.945q-.24.238-.49.462A1.231,1.231,0,0,1,679.9,151.984ZM535.379,138.34a1.234,1.234,0,0,1-1.233-1.233v-4.9a1.233,1.233,0,1,1,2.466,0v4.9A1.234,1.234,0,0,1,535.379,138.34Zm148.189-.017a1.234,1.234,0,0,1-1.233-1.233v-4.906a1.233,1.233,0,1,1,2.466,0v4.906A1.234,1.234,0,0,1,683.568,138.323Zm-148.189-14.7a1.234,1.234,0,0,1-1.233-1.233v-4.906a1.233,1.233,0,1,1,2.466,0v4.906A1.234,1.234,0,0,1,535.379,123.626Zm148.189-.018a1.234,1.234,0,0,1-1.233-1.233v-4.9a1.233,1.233,0,1,1,2.466,0v4.9A1.234,1.234,0,0,1,683.568,123.608Zm-148.189-14.7a1.234,1.234,0,0,1-1.233-1.233v-4.9a1.233,1.233,0,1,1,2.466,0v4.9A1.234,1.234,0,0,1,535.379,108.911Zm148.189-.017a1.234,1.234,0,0,1-1.233-1.233v-4.906a1.233,1.233,0,0,1,2.466,0v4.906A1.234,1.234,0,0,1,683.568,108.894ZM535.379,94.2a1.234,1.234,0,0,1-1.233-1.233V88.058a1.233,1.233,0,1,1,2.466,0v4.906A1.234,1.234,0,0,1,535.379,94.2Zm148.189-.018a1.234,1.234,0,0,1-1.233-1.233v-4.9a1.233,1.233,0,1,1,2.466,0v4.9A1.234,1.234,0,0,1,683.568,94.179Z" fill="#7fb2aa"/>
      </g>
      <g id="Grupo_5000" data-name="Grupo 5000">
        <path id="Trazado_14084" data-name="Trazado 14084" d="M535.379,79.465a1.233,1.233,0,0,1-1.233-1.233V75.766a1.233,1.233,0,1,1,2.466,0v2.466A1.233,1.233,0,0,1,535.379,79.465Z" fill="#7fb2aa"/>
      </g>
    </g>
    <g id="Grupo_5004" data-name="Grupo 5004">
      <g id="Grupo_5002" data-name="Grupo 5002">
        <path id="Trazado_14085" data-name="Trazado 14085" d="M701.981,80.7H682.335V16.38A9.775,9.775,0,0,0,672.559,6.6H546.388a9.775,9.775,0,0,0-9.776,9.776V79.465h-2.466V16.38A12.242,12.242,0,0,1,546.388,4.138H672.559A12.242,12.242,0,0,1,684.8,16.38V78.232h17.18Z" fill="#7fb2aa"/>
      </g>
      <g id="Grupo_5003" data-name="Grupo 5003">
        <path id="Trazado_14086" data-name="Trazado 14086" d="M700.182,85.613l10.647-6.148-10.647-6.148Z" fill="#7fb2aa"/>
      </g>
    </g>
    <text id="Olor" transform="translate(558.528 105.332) rotate(0.018)" fill="#142756" font-size="16" font-family="CerebriSans-Regular, Cerebri Sans" letter-spacing="0.025em"><tspan x="35.275" y="16">Olor</tspan></text>
    <ellipse id="Elipse_1393" data-name="Elipse 1393" cx="43.76" cy="43.782" rx="43.76" ry="43.782" transform="translate(565.616 99.744) rotate(-89.935)" fill="#f6df86"/>
    <g id="Grupo_5007" data-name="Grupo 5007">
      <g id="Grupo_5006" data-name="Grupo 5006">
        <g id="Grupo_5005" data-name="Grupo 5005">
          <path id="Trazado_14087" data-name="Trazado 14087" d="M607.93,82.041a127.377,127.377,0,0,1-23.481-1.29,1,1,0,0,1-.862-1.067,1.019,1.019,0,0,1,1.014-.924c.383.008,37.851.3,45.533-29.885a1,1,0,0,1,1.317-.691l4.127,1.528a1,1,0,0,1,.575.55c.208.5,5.029,12.265-2.064,21.516C629.359,77.949,620.595,81.377,607.93,82.041Zm-13.413-2.233c19.183,1.4,32.22-1.742,37.975-9.234,5.71-7.433,2.705-17.091,1.965-19.145l-2.672-.989C625.918,71.176,606.549,77.737,594.517,79.808Z" fill="#846e63"/>
          <path id="Trazado_14088" data-name="Trazado 14088" d="M596.1,81.9l-.22.011a1,1,0,0,1-.091-2l.074,0c1.376-.072,25.6-1.6,33.205-18.783a1,1,0,1,1,1.828.81C622.9,79.981,598.842,81.754,596.1,81.9Z" fill="#846e63"/>
          <path id="Trazado_14089" data-name="Trazado 14089" d="M636.235,46.011a1,1,0,0,1-.366-.049l-4.616-1.529a1,1,0,0,1,.628-1.9l4.616,1.529a1,1,0,0,1-.262,1.948Z" fill="#846e63"/>
        </g>
        <path id="Trazado_14090" data-name="Trazado 14090" d="M610.36,36.869a1,1,0,0,0-.154.8c3.405,14.578-2.542,26.074-9.675,34.1,1.027-.238,2.163-.544,3.384-.933,6.409-8.044,11.268-18.976,8.477-32.542l2.828-.353c1.6,1.482,8.717,8.671,7.073,17.9a17.674,17.674,0,0,1-1.74,5,40.061,40.061,0,0,0,3.586-4.092c.04-.193.091-.385.126-.578,2.034-11.478-7.664-19.7-8.078-20.049a1,1,0,0,0-.763-.224l-4.368.545A1,1,0,0,0,610.36,36.869Z" fill="#846e63"/>
        <path id="Trazado_14091" data-name="Trazado 14091" d="M616.107,63.814l-1.789-.894c3.1-6.211,1.938-15.488,1.927-15.581l1.982-.26C618.281,47.482,619.487,57.05,616.107,63.814Z" fill="#846e63"/>
        <rect id="Rectángulo_1457" data-name="Rectángulo 1457" width="5.895" height="2" transform="translate(609.233 33.33) rotate(-9.895)" fill="#846e63"/>
      </g>
      <path id="Trazado_14092" data-name="Trazado 14092" d="M604.077,56.254c-1.546-.152-2.856-1.36-3.893-3.591l-.2-.445a6.073,6.073,0,0,0-1.929-2.823,4.614,4.614,0,0,0-2.565-.312,2.657,2.657,0,0,1-2.571-.952,2.627,2.627,0,0,1-.368-1.446,9.947,9.947,0,0,1,1.005-3.848,10.159,10.159,0,0,0,.839-2.675,6.567,6.567,0,0,0-.424-2.9,6.117,6.117,0,0,1-3.281,2.272,5.645,5.645,0,0,1-4.575-.591l-.519-.328.057-.61a22.3,22.3,0,0,1,1.164-6,8.106,8.106,0,0,1,4.161-4.744l.783,1.84a6.235,6.235,0,0,0-3.077,3.621,18.618,18.618,0,0,0-.974,4.8,3.792,3.792,0,0,0,2.432.09,4.056,4.056,0,0,0,2.558-2.1,1.622,1.622,0,0,1,.884-.911c.634-.233,1.478.019,1.93,1.1a9.3,9.3,0,0,1,.869,4.685A11.8,11.8,0,0,1,595.4,43.6a8.338,8.338,0,0,0-.853,3.079.874.874,0,0,0,.045.361c.025.016.172.085.761.046a6.274,6.274,0,0,1,3.7.573,7.554,7.554,0,0,1,2.751,3.728l.2.431c.493,1.061,1.287,2.347,2.273,2.444ZM594.55,36.271Z" fill="#846e63"/>
      <path id="Trazado_14093" data-name="Trazado 14093" d="M602.137,60.125a6.806,6.806,0,0,1-3.737-1.437l-.4-.282a6.138,6.138,0,0,0-3.075-1.459h-.016a4.609,4.609,0,0,0-2.37,1.029,2.669,2.669,0,0,1-2.7.48,2.622,2.622,0,0,1-1.048-1.063,9.934,9.934,0,0,1-1.079-3.826,10.206,10.206,0,0,0-.63-2.732,6.591,6.591,0,0,0-1.834-2.29,6.13,6.13,0,0,1-1.681,3.62,5.665,5.665,0,0,1-4.246,1.8l-.613-.02-.26-.556a22.279,22.279,0,0,1-2.031-5.764,8.092,8.092,0,0,1,1.19-6.2l1.6,1.191a6.236,6.236,0,0,0-.823,4.681,18.568,18.568,0,0,0,1.588,4.632,3.777,3.777,0,0,0,2.144-1.152,4.055,4.055,0,0,0,1.143-3.1,1.626,1.626,0,0,1,.3-1.234,1.539,1.539,0,0,1,2.223-.025,9.305,9.305,0,0,1,3.119,3.6,11.773,11.773,0,0,1,.783,3.269,8.349,8.349,0,0,0,.822,3.088.872.872,0,0,0,.221.289c.041.006.187-.012.681-.347a6.391,6.391,0,0,1,3.478-1.374h.034a7.609,7.609,0,0,1,4.223,1.823l.391.273c.962.666,2.3,1.372,3.2.958l.838,1.815A3.392,3.392,0,0,1,602.137,60.125Z" fill="#846e63"/>
    </g>
    <g id="Grupo_5011" data-name="Grupo 5011">
      <g id="Grupo_5008" data-name="Grupo 5008">
        <path id="Trazado_14094" data-name="Trazado 14094" d="M860.915,79.465a1.233,1.233,0,0,1-1.233-1.233V75.766a1.233,1.233,0,1,1,2.466,0v2.466A1.233,1.233,0,0,1,860.915,79.465Z" fill="#7fb2aa"/>
      </g>
      <g id="Grupo_5009" data-name="Grupo 5009">
        <path id="Trazado_14095" data-name="Trazado 14095" d="M848.139,154.793h-4.9a1.233,1.233,0,0,1,0-2.467h4.9a1.233,1.233,0,1,1,0,2.467Zm-14.714,0h-4.9a1.233,1.233,0,0,1,0-2.467h4.9a1.233,1.233,0,0,1,0,2.467Zm-14.715,0h-4.9a1.233,1.233,0,0,1,0-2.467h4.9a1.233,1.233,0,1,1,0,2.467Zm-14.714,0h-4.9a1.233,1.233,0,0,1,0-2.467H804a1.233,1.233,0,0,1,0,2.467Zm-14.714,0h-4.9a1.233,1.233,0,0,1,0-2.467h4.9a1.233,1.233,0,0,1,0,2.467Zm-14.714,0h-4.906a1.233,1.233,0,0,1,0-2.467h4.906a1.233,1.233,0,0,1,0,2.467Zm-14.715,0h-4.905a1.233,1.233,0,0,1,0-2.467h4.905a1.233,1.233,0,0,1,0,2.467Zm-14.714,0h-4.906a1.233,1.233,0,0,1,0-2.467h4.906a1.233,1.233,0,0,1,0,2.467Zm-14.715,0h-4.905a1.233,1.233,0,0,1,0-2.467h4.905a1.233,1.233,0,0,1,0,2.467Zm-14.022-2.8a1.23,1.23,0,0,1-.82-.313c-.172-.154-.339-.312-.5-.475a12.155,12.155,0,0,1-2.638-3.929,1.233,1.233,0,1,1,2.275-.951,9.731,9.731,0,0,0,2.107,3.136c.13.13.264.257.4.379a1.233,1.233,0,0,1-.821,2.153Zm140.85-.011a1.234,1.234,0,0,1-.824-2.152c.134-.12.265-.243.393-.371a9.722,9.722,0,0,0,2.111-3.149,1.233,1.233,0,0,1,2.276.95,12.2,12.2,0,0,1-2.645,3.945q-.24.238-.489.462A1.231,1.231,0,0,1,857.252,151.984ZM712.726,138.34a1.234,1.234,0,0,1-1.233-1.233v-4.9a1.233,1.233,0,1,1,2.466,0v4.9A1.234,1.234,0,0,1,712.726,138.34Zm148.189-.017a1.234,1.234,0,0,1-1.233-1.233v-4.906a1.233,1.233,0,1,1,2.466,0v4.906A1.234,1.234,0,0,1,860.915,138.323Zm-148.189-14.7a1.234,1.234,0,0,1-1.233-1.233v-4.906a1.233,1.233,0,1,1,2.466,0v4.906A1.234,1.234,0,0,1,712.726,123.626Zm148.189-.018a1.234,1.234,0,0,1-1.233-1.233v-4.9a1.233,1.233,0,1,1,2.466,0v4.9A1.234,1.234,0,0,1,860.915,123.608Zm-148.189-14.7a1.234,1.234,0,0,1-1.233-1.233v-4.9a1.233,1.233,0,1,1,2.466,0v4.9A1.234,1.234,0,0,1,712.726,108.911Zm148.189-.017a1.234,1.234,0,0,1-1.233-1.233v-4.906a1.233,1.233,0,0,1,2.466,0v4.906A1.234,1.234,0,0,1,860.915,108.894ZM712.726,94.2a1.234,1.234,0,0,1-1.233-1.233V88.058a1.233,1.233,0,1,1,2.466,0v4.906A1.234,1.234,0,0,1,712.726,94.2Zm148.189-.018a1.234,1.234,0,0,1-1.233-1.233v-4.9a1.233,1.233,0,1,1,2.466,0v4.9A1.234,1.234,0,0,1,860.915,94.179Z" fill="#7fb2aa"/>
      </g>
      <g id="Grupo_5010" data-name="Grupo 5010">
        <path id="Trazado_14096" data-name="Trazado 14096" d="M712.726,79.465a1.233,1.233,0,0,1-1.233-1.233V75.766a1.233,1.233,0,1,1,2.466,0v2.466A1.233,1.233,0,0,1,712.726,79.465Z" fill="#7fb2aa"/>
      </g>
    </g>
    <g id="Grupo_5013" data-name="Grupo 5013">
      <g id="Grupo_5012" data-name="Grupo 5012">
        <path id="Trazado_14097" data-name="Trazado 14097" d="M859.682,80.7V16.38A9.775,9.775,0,0,0,849.906,6.6H723.735a9.777,9.777,0,0,0-9.776,9.776V79.465h-2.466V16.38A12.242,12.242,0,0,1,723.735,4.138H849.906A12.24,12.24,0,0,1,862.148,16.38V78.232" fill="#7fb2aa"/>
      </g>
    </g>
    <text id="Grado_de_madurez" data-name="Grado de madurez" transform="translate(735.876 105.332) rotate(0.018)" fill="#142756" font-size="16" font-family="CerebriSans-Regular, Cerebri Sans" letter-spacing="0.025em"><tspan x="16.26" y="16">Grado de </tspan><tspan x="20.089" y="35.2">madurez</tspan></text>
    <ellipse id="Elipse_1394" data-name="Elipse 1394" cx="43.76" cy="43.782" rx="43.76" ry="43.782" transform="translate(742.963 99.744) rotate(-89.935)" fill="#f6df86"/>
    <g id="Grupo_5016" data-name="Grupo 5016">
      <g id="Grupo_5015" data-name="Grupo 5015">
        <g id="Grupo_5014" data-name="Grupo 5014">
          <path id="Trazado_14098" data-name="Trazado 14098" d="M782.244,81.116a148.1,148.1,0,0,1-27.313-1.5,1.163,1.163,0,0,1-1-1.24,1.186,1.186,0,0,1,1.179-1.076c.447.01,44.029.35,52.964-34.761a1.164,1.164,0,0,1,1.531-.8l4.8,1.777a1.164,1.164,0,0,1,.669.64c.243.577,5.849,14.266-2.4,25.027C807.169,76.357,796.976,80.345,782.244,81.116Zm-15.6-2.6c22.313,1.626,37.478-2.026,44.172-10.741,6.641-8.647,3.146-19.88,2.286-22.27l-3.109-1.149C803.167,68.479,780.637,76.11,766.642,78.52Z" fill="#846e63"/>
          <path id="Trazado_14099" data-name="Trazado 14099" d="M768.483,80.95l-.255.012a1.163,1.163,0,0,1-.106-2.324l.085,0c1.6-.083,29.773-1.866,38.624-21.847a1.163,1.163,0,0,1,2.127.942C799.659,78.721,771.673,80.783,768.483,80.95Z" fill="#846e63"/>
          <path id="Trazado_14100" data-name="Trazado 14100" d="M815.168,39.208a1.169,1.169,0,0,1-.427-.058l-5.368-1.779a1.163,1.163,0,1,1,.73-2.208l5.369,1.779a1.163,1.163,0,0,1-.3,2.266Z" fill="#846e63"/>
        </g>
        <path id="Trazado_14101" data-name="Trazado 14101" d="M785.07,28.573a1.163,1.163,0,0,0-.179.93c3.96,16.957-2.957,30.329-11.254,39.669,1.194-.277,2.516-.632,3.936-1.086,7.455-9.355,13.107-22.072,9.861-37.851l3.289-.411c1.863,1.724,10.14,10.086,8.227,20.82a20.521,20.521,0,0,1-2.024,5.819A46.384,46.384,0,0,0,801.1,51.7c.047-.224.107-.447.147-.672,2.367-13.351-8.915-22.92-9.4-23.321a1.17,1.17,0,0,0-.888-.26l-5.08.634A1.155,1.155,0,0,0,785.07,28.573Z" fill="#846e63"/>
        <path id="Trazado_14102" data-name="Trazado 14102" d="M791.755,59.916l-2.081-1.041c3.61-7.224,2.255-18.015,2.241-18.123l2.306-.3C794.283,40.919,795.686,52.047,791.755,59.916Z" fill="#846e63"/>
        <rect id="Rectángulo_1458" data-name="Rectángulo 1458" width="6.857" height="2.327" transform="translate(783.759 24.457) rotate(-9.895)" fill="#846e63"/>
      </g>
      <circle id="Elipse_1395" data-name="Elipse 1395" cx="2.653" cy="2.653" r="2.653" transform="translate(805.351 65.343)" fill="#846e63"/>
      <circle id="Elipse_1396" data-name="Elipse 1396" cx="2.653" cy="2.653" r="2.653" transform="translate(786.593 29.343)" fill="#846e63"/>
      <circle id="Elipse_1397" data-name="Elipse 1397" cx="2.653" cy="2.653" r="2.653" transform="translate(781.755 58.712)" fill="#846e63"/>
      <circle id="Elipse_1398" data-name="Elipse 1398" cx="2.653" cy="2.653" r="2.653" transform="translate(806.961 46.017)" fill="#846e63"/>
      <circle id="Elipse_1399" data-name="Elipse 1399" cx="2.653" cy="2.653" r="2.653" transform="translate(795.119 47.343)" fill="#846e63"/>
      <circle id="Elipse_1400" data-name="Elipse 1400" cx="2.653" cy="2.653" r="2.653" transform="translate(806.305 55.075)" fill="#846e63"/>
    </g>
  </g>
</svg>
