<svg xmlns="http://www.w3.org/2000/svg" width="859.044" height="150.655" viewBox="0 0 859.044 150.655">
  <g id="Grupo_5458" data-name="Grupo 5458" transform="translate(-140 -1722)">
    <path id="Trazado_14048" data-name="Trazado 14048" d="M152.526,79.465a1.233,1.233,0,0,1-1.233-1.233V75.766a1.233,1.233,0,0,1,2.466,0v2.466A1.233,1.233,0,0,1,152.526,79.465Z" transform="translate(136.896 1717.862)" fill="#7fb2aa"/>
    <path id="Trazado_14049" data-name="Trazado 14049" d="M139.75,154.793h-4.9a1.233,1.233,0,0,1,0-2.467h4.9a1.233,1.233,0,0,1,0,2.467Zm-14.714,0h-4.905a1.233,1.233,0,0,1,0-2.467h4.905a1.233,1.233,0,0,1,0,2.467Zm-14.715,0h-4.9a1.233,1.233,0,0,1,0-2.467h4.9a1.233,1.233,0,0,1,0,2.467Zm-14.714,0H90.7a1.233,1.233,0,0,1,0-2.467h4.9a1.233,1.233,0,0,1,0,2.467Zm-14.715,0h-4.9a1.233,1.233,0,0,1,0-2.467h4.9a1.233,1.233,0,0,1,0,2.467Zm-14.714,0H61.273a1.233,1.233,0,0,1,0-2.467h4.905a1.233,1.233,0,0,1,0,2.467Zm-14.714,0H46.558a1.233,1.233,0,0,1,0-2.467h4.906a1.233,1.233,0,0,1,0,2.467Zm-14.715,0H31.844a1.233,1.233,0,0,1,0-2.467h4.905a1.233,1.233,0,0,1,0,2.467Zm-14.714,0H17.13a1.233,1.233,0,1,1,0-2.467h4.905a1.233,1.233,0,0,1,0,2.467Zm-14.022-2.8a1.226,1.226,0,0,1-.82-.313q-.258-.231-.5-.475a12.173,12.173,0,0,1-2.639-3.929,1.233,1.233,0,1,1,2.275-.951,9.731,9.731,0,0,0,2.107,3.136c.13.13.264.257.4.379a1.233,1.233,0,0,1-.821,2.153Zm140.849-.011a1.233,1.233,0,0,1-.823-2.152c.134-.12.264-.243.392-.371a9.741,9.741,0,0,0,2.112-3.149,1.233,1.233,0,0,1,2.276.95,12.2,12.2,0,0,1-2.645,3.945q-.24.238-.49.462A1.232,1.232,0,0,1,148.862,151.984ZM4.337,138.34A1.234,1.234,0,0,1,3.1,137.107v-4.9a1.233,1.233,0,1,1,2.466,0v4.9A1.234,1.234,0,0,1,4.337,138.34Zm148.189-.017a1.234,1.234,0,0,1-1.233-1.233v-4.906a1.233,1.233,0,0,1,2.466,0v4.906A1.234,1.234,0,0,1,152.526,138.323ZM4.337,123.626A1.234,1.234,0,0,1,3.1,122.393v-4.906a1.233,1.233,0,1,1,2.466,0v4.906A1.234,1.234,0,0,1,4.337,123.626Zm148.189-.018a1.234,1.234,0,0,1-1.233-1.233v-4.9a1.233,1.233,0,1,1,2.466,0v4.9A1.234,1.234,0,0,1,152.526,123.608ZM4.337,108.911A1.234,1.234,0,0,1,3.1,107.678v-4.9a1.233,1.233,0,1,1,2.466,0v4.9A1.234,1.234,0,0,1,4.337,108.911Zm148.189-.017a1.234,1.234,0,0,1-1.233-1.233v-4.906a1.233,1.233,0,0,1,2.466,0v4.906A1.234,1.234,0,0,1,152.526,108.894ZM4.337,94.2A1.234,1.234,0,0,1,3.1,92.964V88.058a1.233,1.233,0,1,1,2.466,0v4.906A1.234,1.234,0,0,1,4.337,94.2Zm148.189-.018a1.234,1.234,0,0,1-1.233-1.233v-4.9a1.233,1.233,0,1,1,2.466,0v4.9A1.234,1.234,0,0,1,152.526,94.179Z" transform="translate(136.896 1717.862)" fill="#7fb2aa"/>
    <path id="Trazado_14050" data-name="Trazado 14050" d="M4.337,79.465A1.233,1.233,0,0,1,3.1,78.232V75.766a1.233,1.233,0,1,1,2.466,0v2.466A1.233,1.233,0,0,1,4.337,79.465Z" transform="translate(136.896 1717.862)" fill="#7fb2aa"/>
    <path id="Trazado_14051" data-name="Trazado 14051" d="M170.939,80.7H151.293V16.38A9.775,9.775,0,0,0,141.517,6.6H15.346A9.775,9.775,0,0,0,5.57,16.38V79.465H3.1V16.38A12.242,12.242,0,0,1,15.346,4.138H141.517A12.242,12.242,0,0,1,153.759,16.38V78.232h17.18Z" transform="translate(136.896 1717.862)" fill="#7fb2aa"/>
    <path id="Trazado_14052" data-name="Trazado 14052" d="M169.14,85.613l10.647-6.148L169.14,73.317Z" transform="translate(136.896 1717.862)" fill="#7fb2aa"/>
    <path id="Trazado_14442" data-name="Trazado 14442" d="M39.607,5a3.257,3.257,0,0,1,1.723.457A3.087,3.087,0,0,1,42.486,6.68a3.588,3.588,0,0,1,.4,1.7,3.338,3.338,0,0,1-.91,2.395,3.123,3.123,0,0,1-2.371.957H36.842V16h-1.4V5Zm-.2,5.508a2,2,0,0,0,1.531-.59,2.183,2.183,0,0,0,.555-1.559,2.189,2.189,0,0,0-.555-1.551,1.986,1.986,0,0,0-1.531-.6H36.842v4.3Zm12.017,1.5-.016.367h-6a2.714,2.714,0,0,0,.734,1.965,2.411,2.411,0,0,0,1.75.684,2.3,2.3,0,0,0,1.273-.367,2.383,2.383,0,0,0,.875-1.016l1.219.258a3.464,3.464,0,0,1-1.312,1.648,3.581,3.581,0,0,1-2.039.6,3.71,3.71,0,0,1-2.766-1.07,3.982,3.982,0,0,1-1.055-2.922,3.962,3.962,0,0,1,1.059-2.914,3.664,3.664,0,0,1,2.723-1.07,3.467,3.467,0,0,1,2.582.984A3.889,3.889,0,0,1,51.421,12.008Zm-3.555-2.8a2.4,2.4,0,0,0-1.6.543,2.488,2.488,0,0,0-.809,1.582h4.6a2.282,2.282,0,0,0-.672-1.582A2.17,2.17,0,0,0,47.867,9.211Zm8.5,6.938a3.641,3.641,0,0,1-2.07-.555,2.294,2.294,0,0,1-1.008-1.578l1.18-.336a1.645,1.645,0,0,0,.629,1.066,2.04,2.04,0,0,0,1.262.379,2.518,2.518,0,0,0,.738-.1,1.184,1.184,0,0,0,.566-.379,1.057,1.057,0,0,0,.164-1.016,1.356,1.356,0,0,0-.125-.254.774.774,0,0,0-.219-.211A2.884,2.884,0,0,0,57.22,13a2.726,2.726,0,0,0-.348-.145q-.23-.082-.371-.125t-.43-.125q-.289-.082-.445-.129a8.33,8.33,0,0,1-.8-.281,3.5,3.5,0,0,1-.648-.371,1.493,1.493,0,0,1-.5-.605,2.049,2.049,0,0,1-.168-.859,1.986,1.986,0,0,1,.375-1.227,2.11,2.11,0,0,1,.973-.723,3.888,3.888,0,0,1,1.363-.223,3.337,3.337,0,0,1,1.871.5,2.134,2.134,0,0,1,.934,1.5l-1.109.281a1.471,1.471,0,0,0-.586-.973,1.865,1.865,0,0,0-1.1-.324,1.9,1.9,0,0,0-1.031.27.906.906,0,0,0-.43.824.82.82,0,0,0,.113.426,1.352,1.352,0,0,0,.23.3,1.417,1.417,0,0,0,.422.23q.3.121.453.164t.563.145q.078.023.117.031.453.117.738.207a4.538,4.538,0,0,1,.664.281,2.208,2.208,0,0,1,.6.418,1.936,1.936,0,0,1,.375.594,2.1,2.1,0,0,1,.156.828,2.237,2.237,0,0,1-.23,1.035,1.8,1.8,0,0,1-.629.707,3.042,3.042,0,0,1-.895.387A4.262,4.262,0,0,1,56.368,16.148Zm8.588,0a4.048,4.048,0,0,1-1.969-.477A3.47,3.47,0,0,1,61.6,14.277a4.283,4.283,0,0,1-.512-2.121,3.912,3.912,0,0,1,1.09-2.895,4.089,4.089,0,0,1,5.559,0,3.92,3.92,0,0,1,1.086,2.895,3.923,3.923,0,0,1-1.09,2.9A3.762,3.762,0,0,1,64.956,16.148Zm-.008-1.125a2.359,2.359,0,0,0,1.816-.789,2.957,2.957,0,0,0,.723-2.078,2.945,2.945,0,0,0-.723-2.07A2.359,2.359,0,0,0,64.948,9.3a2.326,2.326,0,0,0-1.8.789,2.965,2.965,0,0,0-.715,2.07,2.976,2.976,0,0,0,.715,2.078A2.326,2.326,0,0,0,64.948,15.023Z" transform="translate(164.382 1823.194) rotate(0.018)" fill="#142756"/>
    <ellipse id="Elipse_1390" data-name="Elipse 1390" cx="43.76" cy="43.782" rx="43.76" ry="43.782" transform="translate(171.47 1817.606) rotate(-89.935)" fill="#f6df86"/>
    <path id="Trazado_14053" data-name="Trazado 14053" d="M101.82,76.561C74.073,85.3,47.16,71.226,46.892,71.082l.94-1.765c.262.138,26.458,13.812,53.389,5.335Z" transform="translate(136.896 1717.862)" fill="#846e63"/>
    <path id="Trazado_14054" data-name="Trazado 14054" d="M105.347,75.256,96.537,85.69,95.01,84.4l7.156-8.477-7.827-3.842.882-1.8Z" transform="translate(136.896 1717.862)" fill="#846e63"/>
    <g id="Grupo_4975" data-name="Grupo 4975" transform="translate(136.896 1717.862)">
      <path id="Trazado_14055" data-name="Trazado 14055" d="M72.2,74.035A127.3,127.3,0,0,1,48.72,72.746a1,1,0,0,1-.861-1.067,1.016,1.016,0,0,1,1.013-.924c.384.008,37.852.3,45.534-29.885a1,1,0,0,1,1.316-.691l4.128,1.527a1,1,0,0,1,.574.55c.209.5,5.029,12.265-2.063,21.516C93.63,69.943,84.867,73.372,72.2,74.035ZM58.788,71.8c19.184,1.4,32.221-1.742,37.976-9.234,5.709-7.434,2.7-17.092,1.965-19.146l-2.673-.988C90.189,63.17,70.82,69.731,58.788,71.8Z" fill="#846e63"/>
      <path id="Trazado_14056" data-name="Trazado 14056" d="M60.371,73.892l-.219.01a1,1,0,0,1-.091-2l.073,0c1.376-.073,25.6-1.605,33.206-18.783a1,1,0,0,1,1.828.81C87.174,71.976,63.114,73.748,60.371,73.892Z" fill="#846e63"/>
      <path id="Trazado_14057" data-name="Trazado 14057" d="M100.507,38.006a.993.993,0,0,1-.367-.05l-4.615-1.529a1,1,0,1,1,.628-1.9l4.615,1.53a1,1,0,0,1-.261,1.948Z" fill="#846e63"/>
    </g>
    <path id="Trazado_14058" data-name="Trazado 14058" d="M74.631,28.863a1,1,0,0,0-.153.8c3.4,14.579-2.543,26.075-9.675,34.1,1.026-.238,2.162-.543,3.383-.933C74.6,54.79,79.454,43.858,76.663,30.292l2.828-.354c1.6,1.483,8.718,8.671,7.073,17.9a17.606,17.606,0,0,1-1.74,5,39.854,39.854,0,0,0,3.586-4.092c.041-.193.092-.384.126-.578,2.035-11.478-7.664-19.7-8.078-20.049a1,1,0,0,0-.763-.223l-4.367.545A.991.991,0,0,0,74.631,28.863Z" transform="translate(136.896 1717.862)" fill="#846e63"/>
    <path id="Trazado_14059" data-name="Trazado 14059" d="M80.378,55.809l-1.789-.895c3.1-6.211,1.939-15.488,1.927-15.581l1.982-.26C82.552,39.477,83.758,49.044,80.378,55.809Z" transform="translate(136.896 1717.862)" fill="#846e63"/>
    <rect id="Rectángulo_1453" data-name="Rectángulo 1453" width="5.895" height="2" transform="translate(210.4 1743.187) rotate(-9.895)" fill="#846e63"/>
    <path id="Trazado_14060" data-name="Trazado 14060" d="M329.631,79.465a1.233,1.233,0,0,1-1.233-1.233V75.766a1.233,1.233,0,1,1,2.466,0v2.466A1.233,1.233,0,0,1,329.631,79.465Z" transform="translate(136.896 1717.862)" fill="#7fb2aa"/>
    <path id="Trazado_14061" data-name="Trazado 14061" d="M316.855,154.793h-4.9a1.233,1.233,0,0,1,0-2.467h4.9a1.233,1.233,0,0,1,0,2.467Zm-14.714,0h-4.9a1.233,1.233,0,0,1,0-2.467h4.9a1.233,1.233,0,0,1,0,2.467Zm-14.715,0h-4.9a1.233,1.233,0,0,1,0-2.467h4.9a1.233,1.233,0,0,1,0,2.467Zm-14.714,0h-4.9a1.233,1.233,0,0,1,0-2.467h4.9a1.233,1.233,0,0,1,0,2.467Zm-14.715,0h-4.9a1.233,1.233,0,0,1,0-2.467H258a1.233,1.233,0,0,1,0,2.467Zm-14.714,0h-4.9a1.233,1.233,0,0,1,0-2.467h4.9a1.233,1.233,0,0,1,0,2.467Zm-14.714,0h-4.9a1.233,1.233,0,0,1,0-2.467h4.9a1.233,1.233,0,0,1,0,2.467Zm-14.715,0h-4.9a1.233,1.233,0,0,1,0-2.467h4.9a1.233,1.233,0,1,1,0,2.467Zm-14.714,0h-4.9a1.233,1.233,0,0,1,0-2.467h4.9a1.233,1.233,0,0,1,0,2.467Zm-14.022-2.8a1.226,1.226,0,0,1-.82-.313q-.258-.231-.5-.475a12.173,12.173,0,0,1-2.639-3.929,1.233,1.233,0,1,1,2.275-.951,9.731,9.731,0,0,0,2.107,3.136c.131.13.265.257.4.379a1.233,1.233,0,0,1-.821,2.153Zm140.849-.011a1.233,1.233,0,0,1-.823-2.152c.134-.12.265-.243.392-.371a9.741,9.741,0,0,0,2.112-3.149,1.233,1.233,0,0,1,2.276.95,12.2,12.2,0,0,1-2.645,3.945q-.24.238-.489.462A1.234,1.234,0,0,1,325.967,151.984ZM181.442,138.34a1.234,1.234,0,0,1-1.233-1.233v-4.9a1.233,1.233,0,1,1,2.466,0v4.9A1.234,1.234,0,0,1,181.442,138.34Zm148.189-.017a1.234,1.234,0,0,1-1.233-1.233v-4.906a1.233,1.233,0,1,1,2.466,0v4.906A1.234,1.234,0,0,1,329.631,138.323Zm-148.189-14.7a1.234,1.234,0,0,1-1.233-1.233v-4.906a1.233,1.233,0,1,1,2.466,0v4.906A1.234,1.234,0,0,1,181.442,123.626Zm148.189-.018a1.234,1.234,0,0,1-1.233-1.233v-4.9a1.233,1.233,0,0,1,2.466,0v4.9A1.234,1.234,0,0,1,329.631,123.608Zm-148.189-14.7a1.234,1.234,0,0,1-1.233-1.233v-4.9a1.233,1.233,0,1,1,2.466,0v4.9A1.234,1.234,0,0,1,181.442,108.911Zm148.189-.017a1.234,1.234,0,0,1-1.233-1.233v-4.906a1.233,1.233,0,0,1,2.466,0v4.906A1.234,1.234,0,0,1,329.631,108.894ZM181.442,94.2a1.234,1.234,0,0,1-1.233-1.233V88.058a1.233,1.233,0,0,1,2.466,0v4.906A1.234,1.234,0,0,1,181.442,94.2Zm148.189-.018a1.234,1.234,0,0,1-1.233-1.233v-4.9a1.233,1.233,0,1,1,2.466,0v4.9A1.234,1.234,0,0,1,329.631,94.179Z" transform="translate(136.896 1717.862)" fill="#7fb2aa"/>
    <path id="Trazado_14062" data-name="Trazado 14062" d="M181.442,79.465a1.233,1.233,0,0,1-1.233-1.233V75.766a1.233,1.233,0,0,1,2.466,0v2.466A1.233,1.233,0,0,1,181.442,79.465Z" transform="translate(136.896 1717.862)" fill="#7fb2aa"/>
    <path id="Trazado_14063" data-name="Trazado 14063" d="M348.044,80.7H328.4V16.38A9.775,9.775,0,0,0,318.622,6.6H192.451a9.775,9.775,0,0,0-9.776,9.776V79.465h-2.466V16.38A12.242,12.242,0,0,1,192.451,4.138H318.622A12.242,12.242,0,0,1,330.864,16.38V78.232h17.18Z" transform="translate(136.896 1717.862)" fill="#7fb2aa"/>
    <path id="Trazado_14064" data-name="Trazado 14064" d="M346.245,85.613l10.647-6.148-10.647-6.148Z" transform="translate(136.896 1717.862)" fill="#7fb2aa"/>
    <path id="Trazado_14443" data-name="Trazado 14443" d="M26.694,5h1.477L24.139,16H22.7L18.671,5h1.469l3.281,9.25Zm4.7,11.148a2.613,2.613,0,0,1-1.684-.527,1.894,1.894,0,0,1-.66-1.574,2.237,2.237,0,0,1,.211-1,1.77,1.77,0,0,1,.625-.7,3.749,3.749,0,0,1,.9-.434,8.341,8.341,0,0,1,1.168-.277l1.242-.2q.68-.125.68-.711a1.342,1.342,0,0,0-.48-1.145,1.958,1.958,0,0,0-1.215-.363,1.994,1.994,0,0,0-1.2.352,1.471,1.471,0,0,0-.57,1.078l-1.219-.258a2.346,2.346,0,0,1,.961-1.645,3.59,3.59,0,0,1,2.094-.551,4.247,4.247,0,0,1,1.113.137,3.025,3.025,0,0,1,.93.43,1.927,1.927,0,0,1,.664.828,3.081,3.081,0,0,1,.238,1.262v3.172a1.3,1.3,0,0,0,.176.8.759.759,0,0,0,.605.207h.125V16h-.672a1.281,1.281,0,0,1-1.453-1.039h-.062A2.935,2.935,0,0,1,31.391,16.148Zm.313-1.094a2.049,2.049,0,0,0,1.648-.742,3.056,3.056,0,0,0,.625-2.031l-2.031.391a2.734,2.734,0,0,0-1.191.426.99.99,0,0,0-.387.84.979.979,0,0,0,.371.844A1.586,1.586,0,0,0,31.7,15.055Zm8.017-5.383a2.322,2.322,0,0,1,.953-1.031,2.87,2.87,0,0,1,1.477-.406V9.508a2.53,2.53,0,0,0-1.785.57,2.382,2.382,0,0,0-.613,1.82V16H38.4V8.32h1.32Zm5.1-3.156A.92.92,0,0,1,43.91,5.6a.867.867,0,0,1,.27-.641.886.886,0,0,1,.645-.266.877.877,0,0,1,.637.266.867.867,0,0,1,.27.641.88.88,0,0,1-.27.645A.871.871,0,0,1,44.824,6.516ZM44.136,16V8.32H45.5V16Zm11.228-3.992-.016.367h-6a2.714,2.714,0,0,0,.734,1.965,2.411,2.411,0,0,0,1.75.684,2.3,2.3,0,0,0,1.273-.367,2.383,2.383,0,0,0,.875-1.016L55.2,13.9a3.464,3.464,0,0,1-1.312,1.648,3.581,3.581,0,0,1-2.039.6,3.71,3.71,0,0,1-2.766-1.07,3.982,3.982,0,0,1-1.055-2.922,3.962,3.962,0,0,1,1.059-2.914,3.664,3.664,0,0,1,2.723-1.07,3.467,3.467,0,0,1,2.582.984A3.889,3.889,0,0,1,55.364,12.008Zm-3.555-2.8a2.4,2.4,0,0,0-1.6.543,2.488,2.488,0,0,0-.809,1.582h4.6a2.282,2.282,0,0,0-.672-1.582A2.17,2.17,0,0,0,51.81,9.211ZM63.553,4h1.352V16H63.6l-.031-1.492a2.826,2.826,0,0,1-1.094,1.211,3.048,3.048,0,0,1-1.625.445,3.49,3.49,0,0,1-2.535-1.082,3.7,3.7,0,0,1-.773-1.27,4.644,4.644,0,0,1-.285-1.648A4.038,4.038,0,0,1,58.3,9.281,3.367,3.367,0,0,1,60.85,8.172a3.061,3.061,0,0,1,1.605.434,2.842,2.842,0,0,1,1.1,1.176ZM61.132,14.992a2.3,2.3,0,0,0,1.785-.809,2.919,2.919,0,0,0,.723-2.02,2.913,2.913,0,0,0-.727-2.016,2.3,2.3,0,0,0-1.781-.812,2.35,2.35,0,0,0-1.8.785,2.889,2.889,0,0,0-.727,2.043,2.889,2.889,0,0,0,.727,2.043A2.35,2.35,0,0,0,61.132,14.992Zm8.7,1.156a2.613,2.613,0,0,1-1.684-.527,1.894,1.894,0,0,1-.66-1.574,2.237,2.237,0,0,1,.211-1,1.77,1.77,0,0,1,.625-.7,3.749,3.749,0,0,1,.9-.434,8.341,8.341,0,0,1,1.168-.277l1.242-.2q.68-.125.68-.711a1.342,1.342,0,0,0-.48-1.145,1.958,1.958,0,0,0-1.215-.363,1.994,1.994,0,0,0-1.2.352,1.471,1.471,0,0,0-.57,1.078l-1.219-.258a2.346,2.346,0,0,1,.961-1.645,3.59,3.59,0,0,1,2.094-.551,4.247,4.247,0,0,1,1.113.137,3.025,3.025,0,0,1,.93.43,1.927,1.927,0,0,1,.664.828,3.081,3.081,0,0,1,.238,1.262v3.172a1.3,1.3,0,0,0,.176.8.759.759,0,0,0,.605.207h.125V16H73.86a1.281,1.281,0,0,1-1.453-1.039h-.062A2.935,2.935,0,0,1,69.828,16.148Zm.313-1.094a2.049,2.049,0,0,0,1.648-.742,3.056,3.056,0,0,0,.625-2.031l-2.031.391a2.734,2.734,0,0,0-1.191.426.99.99,0,0,0-.387.84.979.979,0,0,0,.371.844A1.586,1.586,0,0,0,70.141,15.055ZM82.353,4h1.352V16H82.4l-.031-1.492a2.826,2.826,0,0,1-1.094,1.211,3.048,3.048,0,0,1-1.625.445,3.49,3.49,0,0,1-2.535-1.082,3.7,3.7,0,0,1-.773-1.27,4.644,4.644,0,0,1-.285-1.648A4.038,4.038,0,0,1,77.1,9.281,3.367,3.367,0,0,1,79.65,8.172a3.061,3.061,0,0,1,1.605.434,2.842,2.842,0,0,1,1.1,1.176ZM79.932,14.992a2.3,2.3,0,0,0,1.785-.809,2.919,2.919,0,0,0,.723-2.02,2.913,2.913,0,0,0-.727-2.016,2.3,2.3,0,0,0-1.781-.812,2.35,2.35,0,0,0-1.8.785,2.889,2.889,0,0,0-.727,2.043,2.889,2.889,0,0,0,.727,2.043A2.35,2.35,0,0,0,79.932,14.992Z" transform="translate(341.488 1823.194) rotate(0.018)" fill="#142756"/>
    <ellipse id="Elipse_1391" data-name="Elipse 1391" cx="43.76" cy="43.782" rx="43.76" ry="43.782" transform="translate(348.575 1817.606) rotate(-89.935)" fill="#f6df86"/>
    <g id="Grupo_4985" data-name="Grupo 4985" transform="translate(136.896 1717.862)">
      <path id="Trazado_14065" data-name="Trazado 14065" d="M255.164,80.753a127.376,127.376,0,0,1-23.481-1.29,1,1,0,0,1-.862-1.067,1.019,1.019,0,0,1,1.014-.924c.384.008,37.851.3,45.534-29.885a1,1,0,0,1,1.316-.691l4.127,1.528a1,1,0,0,1,.575.55c.209.5,5.029,12.265-2.063,21.516C276.593,76.661,267.83,80.089,255.164,80.753ZM241.751,78.52c19.183,1.4,32.22-1.742,37.975-9.234,5.71-7.433,2.7-17.091,1.966-19.145l-2.673-.989C273.152,69.888,253.783,76.449,241.751,78.52Z" fill="#846e63"/>
      <path id="Trazado_14066" data-name="Trazado 14066" d="M243.334,80.609l-.22.011a1,1,0,0,1-.09-2l.073,0c1.376-.072,25.6-1.6,33.205-18.783a1,1,0,0,1,1.829.81C270.137,78.693,246.076,80.466,243.334,80.609Z" fill="#846e63"/>
      <path id="Trazado_14067" data-name="Trazado 14067" d="M283.469,44.723a1,1,0,0,1-.366-.049l-4.616-1.529a1,1,0,0,1,.628-1.9l4.616,1.529a1,1,0,0,1-.262,1.948Z" fill="#846e63"/>
    </g>
    <path id="Trazado_14068" data-name="Trazado 14068" d="M257.594,35.581a1,1,0,0,0-.154.8c3.4,14.578-2.542,26.074-9.675,34.1,1.027-.238,2.163-.544,3.384-.933,6.409-8.044,11.268-18.976,8.477-32.542l2.828-.353c1.6,1.482,8.717,8.671,7.073,17.9a17.642,17.642,0,0,1-1.74,5,40.065,40.065,0,0,0,3.586-4.092c.04-.193.091-.385.126-.578,2.035-11.478-7.664-19.705-8.078-20.049a1,1,0,0,0-.763-.224l-4.368.545A1,1,0,0,0,257.594,35.581Z" transform="translate(136.896 1717.862)" fill="#846e63"/>
    <path id="Trazado_14069" data-name="Trazado 14069" d="M263.341,62.526l-1.789-.894c3.1-6.211,1.938-15.488,1.927-15.581l1.982-.26C265.515,46.194,266.721,55.762,263.341,62.526Z" transform="translate(136.896 1717.862)" fill="#846e63"/>
    <rect id="Rectángulo_1454" data-name="Rectángulo 1454" width="5.895" height="2" transform="translate(393.363 1749.904) rotate(-9.895)" fill="#846e63"/>
    <path id="Trazado_14070" data-name="Trazado 14070" d="M230.982,40.488a1,1,0,0,0,.305.754c10.784,10.384,12.044,23.265,10.424,33.882.731-.757,1.519-1.632,2.332-2.622,1.005-10.235-.861-22.053-10.579-31.921l2.181-1.834c2.15.374,12.031,2.538,15.668,11.177a17.606,17.606,0,0,1,1.26,5.144,39.951,39.951,0,0,0,.785-5.384c-.071-.184-.133-.372-.209-.553C248.616,38.391,236,36.761,235.468,36.7a1,1,0,0,0-.762.227l-3.368,2.832A.99.99,0,0,0,230.982,40.488Z" transform="translate(136.896 1717.862)" fill="#846e63"/>
    <path id="Trazado_14071" data-name="Trazado 14071" d="M250.456,59.977l-1.988.222c-.772-6.9-6.795-14.053-6.855-14.124l1.523-1.3C243.4,45.088,249.614,52.462,250.456,59.977Z" transform="translate(136.896 1717.862)" fill="#846e63"/>
    <rect id="Rectángulo_1455" data-name="Rectángulo 1455" width="5.895" height="2" transform="matrix(0.733, -0.68, 0.68, 0.733, 365.008, 1755.992)" fill="#846e63"/>
    <path id="Trazado_14072" data-name="Trazado 14072" d="M506.978,79.465a1.233,1.233,0,0,1-1.233-1.233V75.766a1.234,1.234,0,0,1,2.467,0v2.466A1.233,1.233,0,0,1,506.978,79.465Z" transform="translate(136.896 1717.862)" fill="#7fb2aa"/>
    <path id="Trazado_14073" data-name="Trazado 14073" d="M494.2,154.793h-4.9a1.233,1.233,0,0,1,0-2.467h4.9a1.233,1.233,0,0,1,0,2.467Zm-14.715,0h-4.9a1.233,1.233,0,1,1,0-2.467h4.9a1.233,1.233,0,0,1,0,2.467Zm-14.714,0h-4.9a1.233,1.233,0,0,1,0-2.467h4.9a1.233,1.233,0,0,1,0,2.467Zm-14.715,0h-4.9a1.233,1.233,0,1,1,0-2.467h4.9a1.233,1.233,0,0,1,0,2.467Zm-14.714,0h-4.9a1.233,1.233,0,0,1,0-2.467h4.9a1.233,1.233,0,0,1,0,2.467Zm-14.714,0h-4.9a1.233,1.233,0,1,1,0-2.467h4.9a1.233,1.233,0,0,1,0,2.467Zm-14.715,0h-4.9a1.233,1.233,0,0,1,0-2.467h4.9a1.233,1.233,0,0,1,0,2.467Zm-14.714,0h-4.9a1.233,1.233,0,1,1,0-2.467h4.9a1.233,1.233,0,0,1,0,2.467Zm-14.715,0h-4.9a1.233,1.233,0,0,1,0-2.467h4.9a1.233,1.233,0,0,1,0,2.467Zm-14.022-2.8a1.23,1.23,0,0,1-.82-.313c-.172-.154-.339-.312-.5-.475a12.154,12.154,0,0,1-2.638-3.929,1.233,1.233,0,1,1,2.275-.951,9.731,9.731,0,0,0,2.107,3.136c.13.13.264.257.4.379a1.233,1.233,0,0,1-.822,2.153Zm140.85-.011a1.233,1.233,0,0,1-.824-2.152c.134-.12.265-.243.393-.371a9.722,9.722,0,0,0,2.111-3.149,1.233,1.233,0,0,1,2.276.95,12.2,12.2,0,0,1-2.645,3.945q-.24.238-.489.462A1.231,1.231,0,0,1,503.315,151.984ZM358.79,138.34a1.234,1.234,0,0,1-1.234-1.233v-4.9a1.234,1.234,0,0,1,2.467,0v4.9A1.234,1.234,0,0,1,358.79,138.34Zm148.188-.017a1.234,1.234,0,0,1-1.233-1.233v-4.906a1.234,1.234,0,0,1,2.467,0v4.906A1.234,1.234,0,0,1,506.978,138.323Zm-148.188-14.7a1.234,1.234,0,0,1-1.234-1.233v-4.906a1.234,1.234,0,0,1,2.467,0v4.906A1.234,1.234,0,0,1,358.79,123.626Zm148.188-.018a1.234,1.234,0,0,1-1.233-1.233v-4.9a1.234,1.234,0,0,1,2.467,0v4.9A1.234,1.234,0,0,1,506.978,123.608Zm-148.188-14.7a1.234,1.234,0,0,1-1.234-1.233v-4.9a1.234,1.234,0,0,1,2.467,0v4.9A1.234,1.234,0,0,1,358.79,108.911Zm148.188-.017a1.234,1.234,0,0,1-1.233-1.233v-4.906a1.234,1.234,0,0,1,2.467,0v4.906A1.234,1.234,0,0,1,506.978,108.894ZM358.79,94.2a1.234,1.234,0,0,1-1.234-1.233V88.058a1.234,1.234,0,0,1,2.467,0v4.906A1.234,1.234,0,0,1,358.79,94.2Zm148.188-.018a1.234,1.234,0,0,1-1.233-1.233v-4.9a1.234,1.234,0,0,1,2.467,0v4.9A1.234,1.234,0,0,1,506.978,94.179Z" transform="translate(136.896 1717.862)" fill="#7fb2aa"/>
    <path id="Trazado_14074" data-name="Trazado 14074" d="M358.79,79.465a1.234,1.234,0,0,1-1.234-1.233V75.766a1.234,1.234,0,0,1,2.467,0v2.466A1.233,1.233,0,0,1,358.79,79.465Z" transform="translate(136.896 1717.862)" fill="#7fb2aa"/>
    <path id="Trazado_14075" data-name="Trazado 14075" d="M525.392,80.7H505.745V16.38A9.775,9.775,0,0,0,495.969,6.6H369.8a9.775,9.775,0,0,0-9.776,9.776V79.465h-2.467V16.38A12.242,12.242,0,0,1,369.8,4.138h126.17A12.242,12.242,0,0,1,508.212,16.38V78.232h17.18Z" transform="translate(136.896 1717.862)" fill="#7fb2aa"/>
    <path id="Trazado_14076" data-name="Trazado 14076" d="M523.593,85.613l10.647-6.148-10.647-6.148Z" transform="translate(136.896 1717.862)" fill="#7fb2aa"/>
    <path id="Trazado_14444" data-name="Trazado 14444" d="M30.895,5V6.273h-2.82V16H26.684V6.273H23.856V5Zm2.7,11.148a2.613,2.613,0,0,1-1.684-.527,1.894,1.894,0,0,1-.66-1.574,2.237,2.237,0,0,1,.211-1,1.77,1.77,0,0,1,.625-.7,3.749,3.749,0,0,1,.9-.434,8.341,8.341,0,0,1,1.168-.277l1.242-.2q.68-.125.68-.711a1.342,1.342,0,0,0-.48-1.145,1.958,1.958,0,0,0-1.215-.363,1.994,1.994,0,0,0-1.2.352,1.471,1.471,0,0,0-.57,1.078L31.4,10.383a2.346,2.346,0,0,1,.961-1.645,3.59,3.59,0,0,1,2.094-.551,4.247,4.247,0,0,1,1.113.137,3.025,3.025,0,0,1,.93.43,1.927,1.927,0,0,1,.664.828,3.081,3.081,0,0,1,.238,1.262v3.172a1.3,1.3,0,0,0,.176.8.759.759,0,0,0,.605.207H38.3V16h-.672a1.281,1.281,0,0,1-1.453-1.039h-.062A2.935,2.935,0,0,1,33.6,16.148Zm.313-1.094a2.049,2.049,0,0,0,1.648-.742,3.056,3.056,0,0,0,.625-2.031l-2.031.391a2.734,2.734,0,0,0-1.191.426.99.99,0,0,0-.387.84.979.979,0,0,0,.371.844A1.586,1.586,0,0,0,33.912,15.055ZM48.46,8.172a2.476,2.476,0,0,1,1.789.652,2.42,2.42,0,0,1,.68,1.832V16H49.578V11.008a1.735,1.735,0,0,0-.422-1.266,1.436,1.436,0,0,0-1.07-.43,1.517,1.517,0,0,0-1.172.484,2.083,2.083,0,0,0-.445,1.453V16H45.093V11.063a1.815,1.815,0,0,0-.426-1.309,1.448,1.448,0,0,0-1.09-.441,1.5,1.5,0,0,0-1.168.5A2.155,2.155,0,0,0,41.96,11.3V16H40.609V8.32H41.96v.992a2.333,2.333,0,0,1,.879-.844,2.506,2.506,0,0,1,1.223-.3,2.609,2.609,0,0,1,1.313.324,2.018,2.018,0,0,1,.852.934,2.39,2.39,0,0,1,.922-.934A2.637,2.637,0,0,1,48.46,8.172Zm7.259,7.977a2.613,2.613,0,0,1-1.684-.527,1.894,1.894,0,0,1-.66-1.574,2.237,2.237,0,0,1,.211-1,1.77,1.77,0,0,1,.625-.7,3.749,3.749,0,0,1,.9-.434,8.341,8.341,0,0,1,1.168-.277l1.242-.2q.68-.125.68-.711a1.342,1.342,0,0,0-.48-1.145,1.958,1.958,0,0,0-1.215-.363,1.994,1.994,0,0,0-1.2.352,1.471,1.471,0,0,0-.57,1.078l-1.219-.258a2.346,2.346,0,0,1,.961-1.645,3.59,3.59,0,0,1,2.094-.551,4.247,4.247,0,0,1,1.113.137,3.025,3.025,0,0,1,.93.43,1.927,1.927,0,0,1,.664.828,3.081,3.081,0,0,1,.238,1.262v3.172a1.3,1.3,0,0,0,.176.8.759.759,0,0,0,.605.207h.125V16h-.672A1.281,1.281,0,0,1,58.3,14.961h-.062A2.935,2.935,0,0,1,55.72,16.148Zm.313-1.094a2.049,2.049,0,0,0,1.648-.742,3.056,3.056,0,0,0,.625-2.031l-2.031.391a2.734,2.734,0,0,0-1.191.426.99.99,0,0,0-.387.84.979.979,0,0,0,.371.844A1.586,1.586,0,0,0,56.032,15.055Zm8.853-9.148a.569.569,0,0,0-.5.289,1.4,1.4,0,0,0-.184.758h-.75a2.061,2.061,0,0,1,.383-1.289,1.231,1.231,0,0,1,1.031-.5,1.416,1.416,0,0,1,1.266.766.72.72,0,0,0,.641.383.565.565,0,0,0,.5-.277,1.374,1.374,0,0,0,.18-.754h.758a2.052,2.052,0,0,1-.383,1.277,1.228,1.228,0,0,1-1.031.5A1.453,1.453,0,0,1,65.51,6.3.754.754,0,0,0,64.885,5.906Zm1.469,2.266a2.671,2.671,0,0,1,1.934.7,2.594,2.594,0,0,1,.723,1.961V16H67.659V11.133a1.816,1.816,0,0,0-.469-1.375,1.676,1.676,0,0,0-1.2-.445,1.858,1.858,0,0,0-1.367.527,2.14,2.14,0,0,0-.539,1.566V16H62.729V8.32h1.352V9.3A2.565,2.565,0,0,1,66.354,8.172Zm8.9,7.977a4.048,4.048,0,0,1-1.969-.477A3.47,3.47,0,0,1,71.9,14.277a4.283,4.283,0,0,1-.512-2.121,3.912,3.912,0,0,1,1.09-2.895,4.089,4.089,0,0,1,5.559,0,3.92,3.92,0,0,1,1.086,2.895,3.923,3.923,0,0,1-1.09,2.9A3.762,3.762,0,0,1,75.254,16.148Zm-.008-1.125a2.359,2.359,0,0,0,1.816-.789,2.957,2.957,0,0,0,.723-2.078,2.945,2.945,0,0,0-.723-2.07A2.359,2.359,0,0,0,75.246,9.3a2.326,2.326,0,0,0-1.8.789,2.965,2.965,0,0,0-.715,2.07,2.976,2.976,0,0,0,.715,2.078A2.326,2.326,0,0,0,75.246,15.023Z" transform="translate(518.835 1823.193) rotate(0.018)" fill="#142756"/>
    <ellipse id="Elipse_1392" data-name="Elipse 1392" cx="43.76" cy="43.782" rx="43.76" ry="43.782" transform="translate(525.923 1817.606) rotate(-89.935)" fill="#f6df86"/>
    <path id="Trazado_14077" data-name="Trazado 14077" d="M427.431,81.131a163.312,163.312,0,0,1-30.109-1.654,1.282,1.282,0,0,1-1.1-1.368,1.306,1.306,0,0,1,1.3-1.185c.492.011,48.536.385,58.386-38.32a1.282,1.282,0,0,1,1.688-.886l5.292,1.958a1.282,1.282,0,0,1,.737.705c.268.637,6.449,15.728-2.646,27.59C454.909,75.883,443.672,80.28,427.431,81.131Zm-17.2-2.863c24.6,1.793,41.315-2.234,48.694-11.84,7.322-9.532,3.468-21.916,2.52-24.55l-3.427-1.267C450.5,67.2,425.66,75.612,410.232,78.268Z" transform="translate(136.896 1717.862)" fill="#846e63"/>
    <path id="Trazado_14078" data-name="Trazado 14078" d="M412.262,80.947l-.282.013a1.282,1.282,0,0,1-.116-2.562l.094-.005c1.764-.092,32.821-2.057,42.578-24.084a1.282,1.282,0,0,1,2.344,1.038C446.63,78.49,415.778,80.763,412.262,80.947Z" transform="translate(136.896 1717.862)" fill="#846e63"/>
    <path id="Trazado_14079" data-name="Trazado 14079" d="M463.726,34.931a1.274,1.274,0,0,1-.47-.063l-5.918-1.961a1.282,1.282,0,0,1,.8-2.435l5.918,1.961a1.282,1.282,0,0,1-.335,2.5Z" transform="translate(136.896 1717.862)" fill="#846e63"/>
    <path id="Trazado_14080" data-name="Trazado 14080" d="M430.547,23.208a1.277,1.277,0,0,0-.2,1.025c4.365,18.693-3.26,33.434-12.406,43.73,1.316-.305,2.773-.7,4.339-1.2,8.217-10.314,14.448-24.332,10.87-41.727l3.625-.453c2.055,1.9,11.179,11.118,9.07,22.951a22.6,22.6,0,0,1-2.231,6.415,51.136,51.136,0,0,0,4.6-5.247c.052-.248.117-.493.161-.741,2.61-14.718-9.827-25.266-10.358-25.708a1.279,1.279,0,0,0-.978-.287l-5.6.7A1.276,1.276,0,0,0,430.547,23.208Z" transform="translate(136.896 1717.862)" fill="#846e63"/>
    <path id="Trazado_14081" data-name="Trazado 14081" d="M437.916,57.76l-2.294-1.147c3.98-7.965,2.486-19.861,2.471-19.979l2.542-.334C440.7,36.818,442.25,49.086,437.916,57.76Z" transform="translate(136.896 1717.862)" fill="#846e63"/>
    <rect id="Rectángulo_1456" data-name="Rectángulo 1456" width="7.559" height="2.565" transform="translate(565.998 1736.533) rotate(-9.895)" fill="#846e63"/>
    <path id="Trazado_14082" data-name="Trazado 14082" d="M683.568,79.465a1.233,1.233,0,0,1-1.233-1.233V75.766a1.233,1.233,0,1,1,2.466,0v2.466A1.233,1.233,0,0,1,683.568,79.465Z" transform="translate(136.896 1717.862)" fill="#7fb2aa"/>
    <path id="Trazado_14083" data-name="Trazado 14083" d="M670.792,154.793h-4.9a1.233,1.233,0,0,1,0-2.467h4.9a1.233,1.233,0,0,1,0,2.467Zm-14.714,0h-4.905a1.233,1.233,0,0,1,0-2.467h4.905a1.233,1.233,0,0,1,0,2.467Zm-14.715,0h-4.9a1.233,1.233,0,0,1,0-2.467h4.9a1.233,1.233,0,0,1,0,2.467Zm-14.714,0h-4.9a1.233,1.233,0,0,1,0-2.467h4.9a1.233,1.233,0,0,1,0,2.467Zm-14.715,0h-4.905a1.233,1.233,0,0,1,0-2.467h4.905a1.233,1.233,0,0,1,0,2.467Zm-14.714,0h-4.9a1.233,1.233,0,0,1,0-2.467h4.9a1.233,1.233,0,0,1,0,2.467Zm-14.714,0h-4.9a1.233,1.233,0,0,1,0-2.467h4.9a1.233,1.233,0,0,1,0,2.467Zm-14.715,0h-4.905a1.233,1.233,0,0,1,0-2.467h4.905a1.233,1.233,0,0,1,0,2.467Zm-14.714,0h-4.905a1.233,1.233,0,0,1,0-2.467h4.905a1.233,1.233,0,0,1,0,2.467Zm-14.022-2.8a1.226,1.226,0,0,1-.82-.313q-.258-.231-.5-.475a12.174,12.174,0,0,1-2.639-3.929,1.233,1.233,0,1,1,2.275-.951,9.731,9.731,0,0,0,2.107,3.136c.13.13.264.257.4.379a1.233,1.233,0,0,1-.821,2.153Zm140.849-.011a1.234,1.234,0,0,1-.823-2.152c.134-.12.264-.243.392-.371a9.742,9.742,0,0,0,2.112-3.149,1.233,1.233,0,0,1,2.276.95,12.2,12.2,0,0,1-2.645,3.945q-.24.238-.49.462A1.231,1.231,0,0,1,679.9,151.984ZM535.379,138.34a1.234,1.234,0,0,1-1.233-1.233v-4.9a1.233,1.233,0,1,1,2.466,0v4.9A1.234,1.234,0,0,1,535.379,138.34Zm148.189-.017a1.234,1.234,0,0,1-1.233-1.233v-4.906a1.233,1.233,0,1,1,2.466,0v4.906A1.234,1.234,0,0,1,683.568,138.323Zm-148.189-14.7a1.234,1.234,0,0,1-1.233-1.233v-4.906a1.233,1.233,0,1,1,2.466,0v4.906A1.234,1.234,0,0,1,535.379,123.626Zm148.189-.018a1.234,1.234,0,0,1-1.233-1.233v-4.9a1.233,1.233,0,1,1,2.466,0v4.9A1.234,1.234,0,0,1,683.568,123.608Zm-148.189-14.7a1.234,1.234,0,0,1-1.233-1.233v-4.9a1.233,1.233,0,1,1,2.466,0v4.9A1.234,1.234,0,0,1,535.379,108.911Zm148.189-.017a1.234,1.234,0,0,1-1.233-1.233v-4.906a1.233,1.233,0,0,1,2.466,0v4.906A1.234,1.234,0,0,1,683.568,108.894ZM535.379,94.2a1.234,1.234,0,0,1-1.233-1.233V88.058a1.233,1.233,0,1,1,2.466,0v4.906A1.234,1.234,0,0,1,535.379,94.2Zm148.189-.018a1.234,1.234,0,0,1-1.233-1.233v-4.9a1.233,1.233,0,1,1,2.466,0v4.9A1.234,1.234,0,0,1,683.568,94.179Z" transform="translate(136.896 1717.862)" fill="#7fb2aa"/>
    <path id="Trazado_14084" data-name="Trazado 14084" d="M535.379,79.465a1.233,1.233,0,0,1-1.233-1.233V75.766a1.233,1.233,0,1,1,2.466,0v2.466A1.233,1.233,0,0,1,535.379,79.465Z" transform="translate(136.896 1717.862)" fill="#7fb2aa"/>
    <path id="Trazado_14085" data-name="Trazado 14085" d="M701.981,80.7H682.335V16.38A9.775,9.775,0,0,0,672.559,6.6H546.388a9.775,9.775,0,0,0-9.776,9.776V79.465h-2.466V16.38A12.242,12.242,0,0,1,546.388,4.138H672.559A12.242,12.242,0,0,1,684.8,16.38V78.232h17.18Z" transform="translate(136.896 1717.862)" fill="#7fb2aa"/>
    <path id="Trazado_14086" data-name="Trazado 14086" d="M700.182,85.613l10.647-6.148-10.647-6.148Z" transform="translate(136.896 1717.862)" fill="#7fb2aa"/>
    <path id="Trazado_14445" data-name="Trazado 14445" d="M41.713,16.148a5.844,5.844,0,0,1-2.164-.395,5.226,5.226,0,0,1-1.738-1.109,4.948,4.948,0,0,1-1.156-1.785,6.456,6.456,0,0,1-.418-2.367,6.35,6.35,0,0,1,.422-2.355,4.939,4.939,0,0,1,2.891-2.895,5.9,5.9,0,0,1,2.164-.391,5.8,5.8,0,0,1,2.148.395A5.183,5.183,0,0,1,45.6,6.355a5.024,5.024,0,0,1,1.156,1.781,6.35,6.35,0,0,1,.422,2.355,6.412,6.412,0,0,1-.422,2.363A5.011,5.011,0,0,1,45.6,14.645a5.183,5.183,0,0,1-1.734,1.109A5.8,5.8,0,0,1,41.713,16.148Zm0-1.32a3.931,3.931,0,0,0,2.91-1.16,4.308,4.308,0,0,0,1.152-3.176,5.044,5.044,0,0,0-.316-1.828A3.766,3.766,0,0,0,44.592,7.3,3.8,3.8,0,0,0,43.3,6.477a4.322,4.322,0,0,0-1.59-.289,4.374,4.374,0,0,0-1.6.289,3.838,3.838,0,0,0-1.3.828,3.739,3.739,0,0,0-.871,1.359,5.044,5.044,0,0,0-.316,1.828,5.13,5.13,0,0,0,.316,1.844,3.728,3.728,0,0,0,.871,1.367,3.888,3.888,0,0,0,1.3.832A4.323,4.323,0,0,0,41.713,14.828ZM49.91,16V4h1.367V16Zm7.752.148a4.048,4.048,0,0,1-1.969-.477,3.47,3.47,0,0,1-1.387-1.395,4.283,4.283,0,0,1-.512-2.121,3.912,3.912,0,0,1,1.09-2.895,4.089,4.089,0,0,1,5.559,0,3.92,3.92,0,0,1,1.086,2.895,3.923,3.923,0,0,1-1.09,2.9A3.762,3.762,0,0,1,57.661,16.148Zm-.008-1.125a2.359,2.359,0,0,0,1.816-.789,2.957,2.957,0,0,0,.723-2.078,2.945,2.945,0,0,0-.723-2.07A2.359,2.359,0,0,0,57.653,9.3a2.326,2.326,0,0,0-1.8.789,2.965,2.965,0,0,0-.715,2.07,2.976,2.976,0,0,0,.715,2.078A2.326,2.326,0,0,0,57.653,15.023Zm7.713-5.352a2.322,2.322,0,0,1,.953-1.031A2.87,2.87,0,0,1,67.8,8.234V9.508a2.53,2.53,0,0,0-1.785.57A2.382,2.382,0,0,0,65.4,11.9V16H64.046V8.32h1.32Z" transform="translate(695.424 1823.194) rotate(0.018)" fill="#142756"/>
    <ellipse id="Elipse_1393" data-name="Elipse 1393" cx="43.76" cy="43.782" rx="43.76" ry="43.782" transform="translate(702.512 1817.606) rotate(-89.935)" fill="#f6df86"/>
    <g id="Grupo_5005" data-name="Grupo 5005" transform="translate(136.896 1717.862)">
      <path id="Trazado_14087" data-name="Trazado 14087" d="M607.93,82.041a127.377,127.377,0,0,1-23.481-1.29,1,1,0,0,1-.862-1.067,1.019,1.019,0,0,1,1.014-.924c.383.008,37.851.3,45.533-29.885a1,1,0,0,1,1.317-.691l4.127,1.528a1,1,0,0,1,.575.55c.208.5,5.029,12.265-2.064,21.516C629.359,77.949,620.595,81.377,607.93,82.041Zm-13.413-2.233c19.183,1.4,32.22-1.742,37.975-9.234,5.71-7.433,2.705-17.091,1.965-19.145l-2.672-.989C625.918,71.176,606.549,77.737,594.517,79.808Z" fill="#846e63"/>
      <path id="Trazado_14088" data-name="Trazado 14088" d="M596.1,81.9l-.22.011a1,1,0,0,1-.091-2l.074,0c1.376-.072,25.6-1.6,33.205-18.783a1,1,0,1,1,1.828.81C622.9,79.981,598.842,81.754,596.1,81.9Z" fill="#846e63"/>
      <path id="Trazado_14089" data-name="Trazado 14089" d="M636.235,46.011a1,1,0,0,1-.366-.049l-4.616-1.529a1,1,0,0,1,.628-1.9l4.616,1.529a1,1,0,0,1-.262,1.948Z" fill="#846e63"/>
    </g>
    <path id="Trazado_14090" data-name="Trazado 14090" d="M610.36,36.869a1,1,0,0,0-.154.8c3.405,14.578-2.542,26.074-9.675,34.1,1.027-.238,2.163-.544,3.384-.933,6.409-8.044,11.268-18.976,8.477-32.542l2.828-.353c1.6,1.482,8.717,8.671,7.073,17.9a17.674,17.674,0,0,1-1.74,5,40.061,40.061,0,0,0,3.586-4.092c.04-.193.091-.385.126-.578,2.034-11.478-7.664-19.7-8.078-20.049a1,1,0,0,0-.763-.224l-4.368.545A1,1,0,0,0,610.36,36.869Z" transform="translate(136.896 1717.862)" fill="#846e63"/>
    <path id="Trazado_14091" data-name="Trazado 14091" d="M616.107,63.814l-1.789-.894c3.1-6.211,1.938-15.488,1.927-15.581l1.982-.26C618.281,47.482,619.487,57.05,616.107,63.814Z" transform="translate(136.896 1717.862)" fill="#846e63"/>
    <rect id="Rectángulo_1457" data-name="Rectángulo 1457" width="5.895" height="2" transform="translate(746.129 1751.192) rotate(-9.895)" fill="#846e63"/>
    <path id="Trazado_14092" data-name="Trazado 14092" d="M604.077,56.254c-1.546-.152-2.856-1.36-3.893-3.591l-.2-.445a6.073,6.073,0,0,0-1.929-2.823,4.614,4.614,0,0,0-2.565-.312,2.657,2.657,0,0,1-2.571-.952,2.627,2.627,0,0,1-.368-1.446,9.947,9.947,0,0,1,1.005-3.848,10.159,10.159,0,0,0,.839-2.675,6.567,6.567,0,0,0-.424-2.9,6.117,6.117,0,0,1-3.281,2.272,5.645,5.645,0,0,1-4.575-.591l-.519-.328.057-.61a22.3,22.3,0,0,1,1.164-6,8.106,8.106,0,0,1,4.161-4.744l.783,1.84a6.235,6.235,0,0,0-3.077,3.621,18.618,18.618,0,0,0-.974,4.8,3.792,3.792,0,0,0,2.432.09,4.056,4.056,0,0,0,2.558-2.1,1.622,1.622,0,0,1,.884-.911c.634-.233,1.478.019,1.93,1.1a9.3,9.3,0,0,1,.869,4.685A11.8,11.8,0,0,1,595.4,43.6a8.338,8.338,0,0,0-.853,3.079.874.874,0,0,0,.045.361c.025.016.172.085.761.046a6.274,6.274,0,0,1,3.7.573,7.554,7.554,0,0,1,2.751,3.728l.2.431c.493,1.061,1.287,2.347,2.273,2.444ZM594.55,36.271Z" transform="translate(136.896 1717.862)" fill="#846e63"/>
    <path id="Trazado_14093" data-name="Trazado 14093" d="M602.137,60.125a6.806,6.806,0,0,1-3.737-1.437l-.4-.282a6.138,6.138,0,0,0-3.075-1.459h-.016a4.609,4.609,0,0,0-2.37,1.029,2.669,2.669,0,0,1-2.7.48,2.622,2.622,0,0,1-1.048-1.063,9.934,9.934,0,0,1-1.079-3.826,10.206,10.206,0,0,0-.63-2.732,6.591,6.591,0,0,0-1.834-2.29,6.13,6.13,0,0,1-1.681,3.62,5.665,5.665,0,0,1-4.246,1.8l-.613-.02-.26-.556a22.279,22.279,0,0,1-2.031-5.764,8.092,8.092,0,0,1,1.19-6.2l1.6,1.191a6.236,6.236,0,0,0-.823,4.681,18.568,18.568,0,0,0,1.588,4.632,3.777,3.777,0,0,0,2.144-1.152,4.055,4.055,0,0,0,1.143-3.1,1.626,1.626,0,0,1,.3-1.234,1.539,1.539,0,0,1,2.223-.025,9.305,9.305,0,0,1,3.119,3.6,11.773,11.773,0,0,1,.783,3.269,8.349,8.349,0,0,0,.822,3.088.872.872,0,0,0,.221.289c.041.006.187-.012.681-.347a6.391,6.391,0,0,1,3.478-1.374h.034a7.609,7.609,0,0,1,4.223,1.823l.391.273c.962.666,2.3,1.372,3.2.958l.838,1.815A3.392,3.392,0,0,1,602.137,60.125Z" transform="translate(136.896 1717.862)" fill="#846e63"/>
    <path id="Trazado_14094" data-name="Trazado 14094" d="M860.915,79.465a1.233,1.233,0,0,1-1.233-1.233V75.766a1.233,1.233,0,1,1,2.466,0v2.466A1.233,1.233,0,0,1,860.915,79.465Z" transform="translate(136.896 1717.862)" fill="#7fb2aa"/>
    <path id="Trazado_14095" data-name="Trazado 14095" d="M848.139,154.793h-4.9a1.233,1.233,0,0,1,0-2.467h4.9a1.233,1.233,0,1,1,0,2.467Zm-14.714,0h-4.9a1.233,1.233,0,0,1,0-2.467h4.9a1.233,1.233,0,0,1,0,2.467Zm-14.715,0h-4.9a1.233,1.233,0,0,1,0-2.467h4.9a1.233,1.233,0,1,1,0,2.467Zm-14.714,0h-4.9a1.233,1.233,0,0,1,0-2.467H804a1.233,1.233,0,0,1,0,2.467Zm-14.714,0h-4.9a1.233,1.233,0,0,1,0-2.467h4.9a1.233,1.233,0,0,1,0,2.467Zm-14.714,0h-4.906a1.233,1.233,0,0,1,0-2.467h4.906a1.233,1.233,0,0,1,0,2.467Zm-14.715,0h-4.905a1.233,1.233,0,0,1,0-2.467h4.905a1.233,1.233,0,0,1,0,2.467Zm-14.714,0h-4.906a1.233,1.233,0,0,1,0-2.467h4.906a1.233,1.233,0,0,1,0,2.467Zm-14.715,0h-4.905a1.233,1.233,0,0,1,0-2.467h4.905a1.233,1.233,0,0,1,0,2.467Zm-14.022-2.8a1.23,1.23,0,0,1-.82-.313c-.172-.154-.339-.312-.5-.475a12.155,12.155,0,0,1-2.638-3.929,1.233,1.233,0,1,1,2.275-.951,9.731,9.731,0,0,0,2.107,3.136c.13.13.264.257.4.379a1.233,1.233,0,0,1-.821,2.153Zm140.85-.011a1.234,1.234,0,0,1-.824-2.152c.134-.12.265-.243.393-.371a9.722,9.722,0,0,0,2.111-3.149,1.233,1.233,0,0,1,2.276.95,12.2,12.2,0,0,1-2.645,3.945q-.24.238-.489.462A1.231,1.231,0,0,1,857.252,151.984ZM712.726,138.34a1.234,1.234,0,0,1-1.233-1.233v-4.9a1.233,1.233,0,1,1,2.466,0v4.9A1.234,1.234,0,0,1,712.726,138.34Zm148.189-.017a1.234,1.234,0,0,1-1.233-1.233v-4.906a1.233,1.233,0,1,1,2.466,0v4.906A1.234,1.234,0,0,1,860.915,138.323Zm-148.189-14.7a1.234,1.234,0,0,1-1.233-1.233v-4.906a1.233,1.233,0,1,1,2.466,0v4.906A1.234,1.234,0,0,1,712.726,123.626Zm148.189-.018a1.234,1.234,0,0,1-1.233-1.233v-4.9a1.233,1.233,0,1,1,2.466,0v4.9A1.234,1.234,0,0,1,860.915,123.608Zm-148.189-14.7a1.234,1.234,0,0,1-1.233-1.233v-4.9a1.233,1.233,0,1,1,2.466,0v4.9A1.234,1.234,0,0,1,712.726,108.911Zm148.189-.017a1.234,1.234,0,0,1-1.233-1.233v-4.906a1.233,1.233,0,0,1,2.466,0v4.906A1.234,1.234,0,0,1,860.915,108.894ZM712.726,94.2a1.234,1.234,0,0,1-1.233-1.233V88.058a1.233,1.233,0,1,1,2.466,0v4.906A1.234,1.234,0,0,1,712.726,94.2Zm148.189-.018a1.234,1.234,0,0,1-1.233-1.233v-4.9a1.233,1.233,0,1,1,2.466,0v4.9A1.234,1.234,0,0,1,860.915,94.179Z" transform="translate(136.896 1717.862)" fill="#7fb2aa"/>
    <path id="Trazado_14096" data-name="Trazado 14096" d="M712.726,79.465a1.233,1.233,0,0,1-1.233-1.233V75.766a1.233,1.233,0,1,1,2.466,0v2.466A1.233,1.233,0,0,1,712.726,79.465Z" transform="translate(136.896 1717.862)" fill="#7fb2aa"/>
    <path id="Trazado_14097" data-name="Trazado 14097" d="M859.682,80.7V16.38A9.775,9.775,0,0,0,849.906,6.6H723.735a9.777,9.777,0,0,0-9.776,9.776V79.465h-2.466V16.38A12.242,12.242,0,0,1,723.735,4.138H849.906A12.24,12.24,0,0,1,862.148,16.38V78.232" transform="translate(136.896 1717.862)" fill="#7fb2aa"/>
    <path id="Trazado_14446" data-name="Trazado 14446" d="M22.659,16.148a5.874,5.874,0,0,1-2.145-.387,5.111,5.111,0,0,1-1.727-1.094,4.93,4.93,0,0,1-1.148-1.773,6.425,6.425,0,0,1-.418-2.363,6.144,6.144,0,0,1,.727-3.039A4.881,4.881,0,0,1,19.909,5.52a6.107,6.107,0,0,1,5.531-.012,4.754,4.754,0,0,1,1.93,1.906l-1.234.664a3.516,3.516,0,0,0-1.422-1.449A4.152,4.152,0,0,0,22.7,6.141a4.374,4.374,0,0,0-1.6.289A3.628,3.628,0,0,0,18.94,8.641a5.3,5.3,0,0,0-.312,1.867,5.27,5.27,0,0,0,.309,1.852,3.787,3.787,0,0,0,.859,1.379,3.734,3.734,0,0,0,1.3.844,4.48,4.48,0,0,0,1.637.293,3.749,3.749,0,0,0,2.52-.855,3.594,3.594,0,0,0,1.184-2.441H22.729V10.391h5.078V16H26.659V13.938a3.851,3.851,0,0,1-1.574,1.637A4.893,4.893,0,0,1,22.659,16.148ZM32.09,9.672a2.322,2.322,0,0,1,.953-1.031,2.87,2.87,0,0,1,1.477-.406V9.508a2.53,2.53,0,0,0-1.785.57,2.382,2.382,0,0,0-.613,1.82V16H30.77V8.32h1.32Zm6.1,6.477a2.613,2.613,0,0,1-1.684-.527,1.894,1.894,0,0,1-.66-1.574,2.237,2.237,0,0,1,.211-1,1.77,1.77,0,0,1,.625-.7,3.749,3.749,0,0,1,.9-.434,8.341,8.341,0,0,1,1.168-.277l1.242-.2q.68-.125.68-.711a1.342,1.342,0,0,0-.48-1.145,1.958,1.958,0,0,0-1.215-.363,1.994,1.994,0,0,0-1.2.352,1.471,1.471,0,0,0-.57,1.078l-1.219-.258a2.346,2.346,0,0,1,.961-1.645,3.59,3.59,0,0,1,2.094-.551,4.247,4.247,0,0,1,1.113.137,3.025,3.025,0,0,1,.93.43,1.927,1.927,0,0,1,.664.828,3.081,3.081,0,0,1,.238,1.262v3.172a1.3,1.3,0,0,0,.176.8.759.759,0,0,0,.605.207h.125V16h-.672a1.281,1.281,0,0,1-1.453-1.039H40.7A2.935,2.935,0,0,1,38.185,16.148Zm.313-1.094a2.049,2.049,0,0,0,1.648-.742,3.056,3.056,0,0,0,.625-2.031l-2.031.391a2.734,2.734,0,0,0-1.191.426.99.99,0,0,0-.387.84.979.979,0,0,0,.371.844A1.586,1.586,0,0,0,38.5,15.055ZM50.71,4h1.352V16h-1.3l-.031-1.492a2.826,2.826,0,0,1-1.094,1.211,3.048,3.048,0,0,1-1.625.445,3.49,3.49,0,0,1-2.535-1.082,3.7,3.7,0,0,1-.773-1.27,4.644,4.644,0,0,1-.285-1.648,4.038,4.038,0,0,1,1.043-2.883,3.367,3.367,0,0,1,2.551-1.109,3.061,3.061,0,0,1,1.605.434,2.842,2.842,0,0,1,1.1,1.176ZM48.289,14.992a2.3,2.3,0,0,0,1.785-.809,2.919,2.919,0,0,0,.723-2.02,2.913,2.913,0,0,0-.727-2.016,2.3,2.3,0,0,0-1.781-.812,2.35,2.35,0,0,0-1.8.785,2.889,2.889,0,0,0-.727,2.043,2.889,2.889,0,0,0,.727,2.043A2.35,2.35,0,0,0,48.289,14.992Zm10.158,1.156a4.048,4.048,0,0,1-1.969-.477,3.47,3.47,0,0,1-1.387-1.395,4.283,4.283,0,0,1-.512-2.121,3.912,3.912,0,0,1,1.09-2.895,4.089,4.089,0,0,1,5.559,0,3.92,3.92,0,0,1,1.086,2.895,3.923,3.923,0,0,1-1.09,2.9A3.762,3.762,0,0,1,58.446,16.148Zm-.008-1.125a2.359,2.359,0,0,0,1.816-.789,2.957,2.957,0,0,0,.723-2.078,2.945,2.945,0,0,0-.723-2.07A2.359,2.359,0,0,0,58.439,9.3a2.326,2.326,0,0,0-1.8.789,2.965,2.965,0,0,0-.715,2.07,2.976,2.976,0,0,0,.715,2.078A2.326,2.326,0,0,0,58.439,15.023ZM75.059,4H76.41V16h-1.3l-.031-1.492a2.826,2.826,0,0,1-1.094,1.211,3.048,3.048,0,0,1-1.625.445,3.49,3.49,0,0,1-2.535-1.082,3.7,3.7,0,0,1-.773-1.27,4.644,4.644,0,0,1-.285-1.648,4.038,4.038,0,0,1,1.043-2.883,3.367,3.367,0,0,1,2.551-1.109,3.061,3.061,0,0,1,1.605.434,2.842,2.842,0,0,1,1.1,1.176ZM72.637,14.992a2.3,2.3,0,0,0,1.785-.809,2.919,2.919,0,0,0,.723-2.02,2.913,2.913,0,0,0-.727-2.016,2.3,2.3,0,0,0-1.781-.812,2.35,2.35,0,0,0-1.8.785,2.889,2.889,0,0,0-.727,2.043,2.889,2.889,0,0,0,.727,2.043A2.35,2.35,0,0,0,72.637,14.992Zm13.642-2.984-.016.367h-6A2.714,2.714,0,0,0,81,14.34a2.411,2.411,0,0,0,1.75.684,2.3,2.3,0,0,0,1.273-.367,2.383,2.383,0,0,0,.875-1.016l1.219.258A3.464,3.464,0,0,1,84.8,15.547a3.581,3.581,0,0,1-2.039.6A3.71,3.71,0,0,1,80,15.078a3.982,3.982,0,0,1-1.055-2.922A3.962,3.962,0,0,1,80,9.242a3.664,3.664,0,0,1,2.723-1.07,3.467,3.467,0,0,1,2.582.984A3.889,3.889,0,0,1,86.279,12.008Zm-3.555-2.8a2.4,2.4,0,0,0-1.6.543,2.488,2.488,0,0,0-.809,1.582h4.6a2.282,2.282,0,0,0-.672-1.582A2.17,2.17,0,0,0,82.725,9.211ZM29.316,27.372a2.476,2.476,0,0,1,1.789.652,2.42,2.42,0,0,1,.68,1.832V35.2H30.433V30.208a1.735,1.735,0,0,0-.422-1.266,1.436,1.436,0,0,0-1.07-.43A1.517,1.517,0,0,0,27.769,29a2.083,2.083,0,0,0-.445,1.453V35.2H25.949V30.263a1.815,1.815,0,0,0-.426-1.309,1.448,1.448,0,0,0-1.09-.441,1.5,1.5,0,0,0-1.168.5,2.155,2.155,0,0,0-.449,1.488v4.7H21.464V27.52h1.352v.992a2.333,2.333,0,0,1,.879-.844,2.506,2.506,0,0,1,1.223-.3,2.609,2.609,0,0,1,1.313.324,2.018,2.018,0,0,1,.852.934A2.39,2.39,0,0,1,28,27.7,2.637,2.637,0,0,1,29.316,27.372Zm7.259,7.977a2.613,2.613,0,0,1-1.684-.527,1.894,1.894,0,0,1-.66-1.574,2.237,2.237,0,0,1,.211-1,1.77,1.77,0,0,1,.625-.7,3.749,3.749,0,0,1,.9-.434,8.341,8.341,0,0,1,1.168-.277l1.242-.2q.68-.125.68-.711a1.342,1.342,0,0,0-.48-1.145,1.958,1.958,0,0,0-1.215-.363,1.994,1.994,0,0,0-1.2.352,1.471,1.471,0,0,0-.57,1.078l-1.219-.258a2.346,2.346,0,0,1,.961-1.645,3.59,3.59,0,0,1,2.094-.551,4.246,4.246,0,0,1,1.113.137,3.026,3.026,0,0,1,.93.43,1.927,1.927,0,0,1,.664.828,3.081,3.081,0,0,1,.238,1.262v3.172a1.3,1.3,0,0,0,.176.8.759.759,0,0,0,.605.207h.125V35.2h-.672a1.281,1.281,0,0,1-1.453-1.039h-.062A2.935,2.935,0,0,1,36.575,35.348Zm.313-1.094a2.049,2.049,0,0,0,1.648-.742,3.056,3.056,0,0,0,.625-2.031l-2.031.391a2.734,2.734,0,0,0-1.191.426.99.99,0,0,0-.387.84.979.979,0,0,0,.371.844A1.586,1.586,0,0,0,36.888,34.255ZM49.1,23.2h1.352v12h-1.3l-.031-1.492a2.826,2.826,0,0,1-1.094,1.211,3.048,3.048,0,0,1-1.625.445,3.49,3.49,0,0,1-2.535-1.082,3.7,3.7,0,0,1-.773-1.27,4.644,4.644,0,0,1-.285-1.648,4.038,4.038,0,0,1,1.043-2.883A3.367,3.367,0,0,1,46.4,27.372,3.061,3.061,0,0,1,48,27.805a2.842,2.842,0,0,1,1.1,1.176ZM46.678,34.192a2.3,2.3,0,0,0,1.785-.809,3.171,3.171,0,0,0,0-4.035,2.3,2.3,0,0,0-1.781-.812,2.35,2.35,0,0,0-1.8.785,3.236,3.236,0,0,0,0,4.086A2.35,2.35,0,0,0,46.678,34.192Zm11.7-6.672h1.352V35.2h-1.3l-.031-1.016a2.4,2.4,0,0,1-.953.863,2.932,2.932,0,0,1-1.344.3,2.671,2.671,0,0,1-1.934-.7,2.594,2.594,0,0,1-.723-1.961V27.52h1.352v4.867a1.822,1.822,0,0,0,.473,1.375,1.673,1.673,0,0,0,1.207.453,1.837,1.837,0,0,0,1.363-.531,2.164,2.164,0,0,0,.535-1.57Zm5.822,1.352a2.322,2.322,0,0,1,.953-1.031,2.87,2.87,0,0,1,1.477-.406v1.273a2.53,2.53,0,0,0-1.785.57,2.382,2.382,0,0,0-.613,1.82v4.1H62.885V27.52h1.32Zm11.041,2.336-.016.367h-6a2.714,2.714,0,0,0,.734,1.965,2.411,2.411,0,0,0,1.75.684,2.3,2.3,0,0,0,1.273-.367,2.383,2.383,0,0,0,.875-1.016l1.219.258a3.464,3.464,0,0,1-1.312,1.648,3.581,3.581,0,0,1-2.039.6,3.71,3.71,0,0,1-2.766-1.07,3.982,3.982,0,0,1-1.055-2.922,3.962,3.962,0,0,1,1.059-2.914,3.664,3.664,0,0,1,2.723-1.07,3.467,3.467,0,0,1,2.582.984A3.889,3.889,0,0,1,75.246,31.208Zm-3.555-2.8a2.4,2.4,0,0,0-1.6.543,2.488,2.488,0,0,0-.809,1.582h4.6a2.282,2.282,0,0,0-.672-1.582A2.17,2.17,0,0,0,71.691,28.411Zm6.908,5.7h4.094V35.2H76.568l4.047-6.578H76.8v-1.1h5.883Z" transform="translate(872.772 1823.194) rotate(0.018)" fill="#142756"/>
    <ellipse id="Elipse_1394" data-name="Elipse 1394" cx="43.76" cy="43.782" rx="43.76" ry="43.782" transform="translate(879.859 1817.606) rotate(-89.935)" fill="#f6df86"/>
    <g id="Grupo_5014" data-name="Grupo 5014" transform="translate(136.896 1717.862)">
      <path id="Trazado_14098" data-name="Trazado 14098" d="M782.244,81.116a148.1,148.1,0,0,1-27.313-1.5,1.163,1.163,0,0,1-1-1.24,1.186,1.186,0,0,1,1.179-1.076c.447.01,44.029.35,52.964-34.761a1.164,1.164,0,0,1,1.531-.8l4.8,1.777a1.164,1.164,0,0,1,.669.64c.243.577,5.849,14.266-2.4,25.027C807.169,76.357,796.976,80.345,782.244,81.116Zm-15.6-2.6c22.313,1.626,37.478-2.026,44.172-10.741,6.641-8.647,3.146-19.88,2.286-22.27l-3.109-1.149C803.167,68.479,780.637,76.11,766.642,78.52Z" fill="#846e63"/>
      <path id="Trazado_14099" data-name="Trazado 14099" d="M768.483,80.95l-.255.012a1.163,1.163,0,0,1-.106-2.324l.085,0c1.6-.083,29.773-1.866,38.624-21.847a1.163,1.163,0,0,1,2.127.942C799.659,78.721,771.673,80.783,768.483,80.95Z" fill="#846e63"/>
      <path id="Trazado_14100" data-name="Trazado 14100" d="M815.168,39.208a1.169,1.169,0,0,1-.427-.058l-5.368-1.779a1.163,1.163,0,1,1,.73-2.208l5.369,1.779a1.163,1.163,0,0,1-.3,2.266Z" fill="#846e63"/>
    </g>
    <path id="Trazado_14101" data-name="Trazado 14101" d="M785.07,28.573a1.163,1.163,0,0,0-.179.93c3.96,16.957-2.957,30.329-11.254,39.669,1.194-.277,2.516-.632,3.936-1.086,7.455-9.355,13.107-22.072,9.861-37.851l3.289-.411c1.863,1.724,10.14,10.086,8.227,20.82a20.521,20.521,0,0,1-2.024,5.819A46.384,46.384,0,0,0,801.1,51.7c.047-.224.107-.447.147-.672,2.367-13.351-8.915-22.92-9.4-23.321a1.17,1.17,0,0,0-.888-.26l-5.08.634A1.155,1.155,0,0,0,785.07,28.573Z" transform="translate(136.896 1717.862)" fill="#846e63"/>
    <path id="Trazado_14102" data-name="Trazado 14102" d="M791.755,59.916l-2.081-1.041c3.61-7.224,2.255-18.015,2.241-18.123l2.306-.3C794.283,40.919,795.686,52.047,791.755,59.916Z" transform="translate(136.896 1717.862)" fill="#846e63"/>
    <rect id="Rectángulo_1458" data-name="Rectángulo 1458" width="6.857" height="2.327" transform="translate(920.655 1742.319) rotate(-9.895)" fill="#846e63"/>
    <circle id="Elipse_1395" data-name="Elipse 1395" cx="2.653" cy="2.653" r="2.653" transform="translate(942.247 1783.205)" fill="#846e63"/>
    <circle id="Elipse_1396" data-name="Elipse 1396" cx="2.653" cy="2.653" r="2.653" transform="translate(923.489 1747.205)" fill="#846e63"/>
    <circle id="Elipse_1397" data-name="Elipse 1397" cx="2.653" cy="2.653" r="2.653" transform="translate(918.651 1776.574)" fill="#846e63"/>
    <circle id="Elipse_1398" data-name="Elipse 1398" cx="2.653" cy="2.653" r="2.653" transform="translate(943.857 1763.878)" fill="#846e63"/>
    <circle id="Elipse_1399" data-name="Elipse 1399" cx="2.653" cy="2.653" r="2.653" transform="translate(932.015 1765.205)" fill="#846e63"/>
    <circle id="Elipse_1400" data-name="Elipse 1400" cx="2.653" cy="2.653" r="2.653" transform="translate(943.201 1772.937)" fill="#846e63"/>
  </g>
</svg>
