<svg xmlns="http://www.w3.org/2000/svg" width="370.104" height="350.758" viewBox="0 0 370.104 350.758">
  <g id="Grupo_3553" data-name="Grupo 3553" transform="translate(-3999.427 -25.242)">
    <ellipse id="Elipse_628" data-name="Elipse 628" cx="156.126" cy="26.355" rx="156.126" ry="26.355" transform="translate(4039.958 323.289)" fill="#f7e9bf"/>
    <g id="Grupo_3546" data-name="Grupo 3546">
      <path id="Trazado_9754" data-name="Trazado 9754" d="M4366.525,199.665c-6.4-18.225-16.488-23.771-26.079-35.461-11.714-14.278-19.615-24.657-16.574-43.021,4.97-30.008,7.1-104.849-70.725-95.066-27.893,3.507-49.935,25.327-65.971,47.109-13.644,18.533-38.189,20.168-57.945,24.489-24.273,5.309-49,13.329-71.458,25.079-46.252,24.2-60.067,58.99-58.18,103.5.57,13.448,2.434,34.631,24.687,59.418,30.036,33.455,73.682,37.935,126.215,22.571,12.025-3.517,23.391-9.033,35.219-13.185a163.263,163.263,0,0,1,38.01-8.426c30.172-2.978,61.448,2.408,90.391-6.787a95.093,95.093,0,0,0,40.427-25.6C4368.367,239.51,4373.284,218.9,4366.525,199.665Z" fill="#8fcec4" opacity="0.46"/>
    </g>
    <g id="Grupo_3552" data-name="Grupo 3552">
      <g id="Grupo_3548" data-name="Grupo 3548">
        <g id="Grupo_3547" data-name="Grupo 3547">
          <path id="Trazado_9755" data-name="Trazado 9755" d="M4255.448,326.044c5.454-132.005-28.736-59.492-61.287-59.492s-66.735-69.923-56.561,59.492c1.074,13.7,26.377,24.977,58.918,24.977S4254.881,339.813,4255.448,326.044Z" fill="#846439"/>
          <path id="Trazado_9756" data-name="Trazado 9756" d="M4137.012,321.785s27.674,17.375,67.107,15.589c42.271-1.925,50.6-13.385,50.6-13.385l1.071-17.1Z" fill="#5a3e20"/>
        </g>
        <path id="Trazado_9757" data-name="Trazado 9757" d="M4330.941,195c0,76.195-61.173,137.971-136.655,137.971S4059.822,271.17,4057.635,195C4055.955,136.6,4330.947,136.6,4330.941,195Z" fill="#ae8c54"/>
        <path id="Trazado_9758" data-name="Trazado 9758" d="M4330.705,190.82c0-22.352-61.31-40.469-136.957-40.469-75.63,0-136.943,18.117-136.943,40.469s61.313,40.471,136.943,40.471C4269.4,231.291,4330.705,213.166,4330.705,190.82Z" fill="#e8e0d0"/>
        <path id="Trazado_9759" data-name="Trazado 9759" d="M4324.718,189.593c0-20.255-58.633-36.679-130.97-36.679-72.32,0-130.962,16.424-130.962,36.679s58.642,36.681,130.962,36.681C4266.085,226.274,4324.718,209.852,4324.718,189.593Z" fill="#b4a489"/>
        <path id="Trazado_9760" data-name="Trazado 9760" d="M4188.305,328.7s55.171,3.31,95.591-37.7c36.216-36.731,39.137-68.769,43.626-91.258,0,0-13.469,23.542-95.594,30.154,0,0,45.467,11.573,34.644,50.045C4254.131,324.185,4188.305,328.7,4188.305,328.7Z" fill="#846439" opacity="0.64"/>
        <path id="Trazado_9761" data-name="Trazado 9761" d="M4094.547,216.031s19.041,15.033,84.186,12.026C4178.733,228.057,4141.647,230.06,4094.547,216.031Z" fill="#fff"/>
        <path id="Trazado_9762" data-name="Trazado 9762" d="M4326.925,190.907s.814,14.344-29.5,22.412C4297.42,213.319,4335.937,205.251,4326.925,190.907Z" fill="#fff"/>
      </g>
      <path id="Trazado_9763" data-name="Trazado 9763" d="M4325.2,204.563c0-20.256-57.767-36.681-129.04-36.681-71.251,0-129.029,16.425-129.029,36.681s57.778,36.68,129.029,36.68C4267.433,241.243,4325.2,224.821,4325.2,204.563Z" fill="#e2b979"/>
      <g id="Grupo_3551" data-name="Grupo 3551">
        <g id="Grupo_3550" data-name="Grupo 3550">
          <g id="Grupo_3549" data-name="Grupo 3549">
            <path id="Trazado_9764" data-name="Trazado 9764" d="M4255.448,326.044c5.454-132.005-28.736-59.492-61.287-59.492s-66.735-69.923-56.561,59.492c1.074,13.7,26.377,24.977,58.918,24.977S4254.881,339.813,4255.448,326.044Z" fill="#b4a489"/>
            <path id="Trazado_9765" data-name="Trazado 9765" d="M4137.012,321.785s27.674,17.375,67.107,15.589c42.271-1.925,50.6-13.385,50.6-13.385l1.071-17.1Z" fill="#796b56"/>
          </g>
          <path id="Trazado_9766" data-name="Trazado 9766" d="M4059.231,183.876c.063-.108-.484,14.969,19.309,26.073,23.7,13.289,72.84,19.581,112.015,19.312,34.922-.239,87.985-6.367,114.91-19.312,25.1-12.071,21.612-27.183,21.726-27.037a19.2,19.2,0,0,1,3.75,12.091c0,76.195-61.173,137.971-136.655,137.971S4059.822,271.17,4057.635,195C4057.531,191.354,4057.306,187.069,4059.231,183.876Z" fill="#d7cbae"/>
          <path id="Trazado_9767" data-name="Trazado 9767" d="M4330.705,190.82a13.964,13.964,0,0,0-2.434-7.63c-.288-.447,7.61,14.688-42.6,31.1-24.108,7.88-67.287,11.639-94.629,11.588-30.388-.057-75.864-3.873-103.807-15.449-33.793-14-27.372-28.164-27.645-27.769a14.209,14.209,0,0,0-2.781,8.156c0,22.346,61.313,40.471,136.943,40.471C4269.4,231.291,4330.705,213.166,4330.705,190.82Z" fill="#e8e0d0"/>
          <path id="Trazado_9768" data-name="Trazado 9768" d="M4188.305,328.7s55.171,3.31,95.591-37.7c36.216-36.731,39.137-68.769,43.626-91.258,0,0-13.469,23.542-95.594,30.154,0,0,45.467,11.573,34.644,50.045C4254.131,324.185,4188.305,328.7,4188.305,328.7Z" fill="#b4a489"/>
          <path id="Trazado_9769" data-name="Trazado 9769" d="M4094.547,216.031s19.041,15.033,84.186,12.026C4178.733,228.057,4141.647,230.06,4094.547,216.031Z" fill="#fff"/>
          <path id="Trazado_9770" data-name="Trazado 9770" d="M4326.925,190.907s.814,14.344-29.5,22.412C4297.42,213.319,4335.937,205.251,4326.925,190.907Z" fill="#fff"/>
        </g>
        <path id="Trazado_9771" data-name="Trazado 9771" d="M4078.3,213.931s-2.534,69.874,74.233,109.358c0,0-57.573-27.16-61.2-103.2C4091.336,220.087,4083.008,217.551,4078.3,213.931Z" fill="#fff" opacity="0.61"/>
      </g>
    </g>
  </g>
</svg>
