<svg xmlns="http://www.w3.org/2000/svg" viewBox="0 0 435.87 516.44"><defs><style>.cls-1{fill:#58762a;}.cls-2{fill:#aecc53;}.cls-3{fill:#d0d950;}.cls-4{fill:#fff;}.cls-5{fill:#71b84c;opacity:0.5;}.cls-6{fill:#89a6c4;}</style></defs><g id="Capa_2" data-name="Capa 2"><g id="Capa_1-2" data-name="Capa 1"><path class="cls-1" d="M8.29,5.63a4.93,4.93,0,0,1-1.4,3.78,5.72,5.72,0,0,1-4.06,1.32H0V.73H3.14A5.29,5.29,0,0,1,6.94,2,4.77,4.77,0,0,1,8.29,5.63Zm-2.2.06q0-3.23-2.84-3.22H2.12V9H3Q6.09,9,6.09,5.69Z"/><path class="cls-1" d="M10.11,1.11q0-1,1.14-1c.75,0,1.13.34,1.13,1a1,1,0,0,1-.28.75,1.2,1.2,0,0,1-.85.27Q10.11,2.13,10.11,1.11Zm2.17,9.62H10.2V3.08h2.08Z"/><path class="cls-1" d="M19.33,10.73l-.41-1h-.05a3,3,0,0,1-1.09.92,3.5,3.5,0,0,1-1.45.25,2.34,2.34,0,0,1-1.73-.63A2.41,2.41,0,0,1,14,8.44a2,2,0,0,1,.85-1.79A4.84,4.84,0,0,1,17.38,6l1.33,0V5.63a1,1,0,0,0-1.19-1.16A5.54,5.54,0,0,0,15.37,5l-.69-1.4a6.2,6.2,0,0,1,2.92-.69A3.63,3.63,0,0,1,20,3.6a2.44,2.44,0,0,1,.82,2v5.1Zm-.62-3.55-.81,0a2.62,2.62,0,0,0-1.35.33,1,1,0,0,0-.44.92c0,.58.33.88,1,.88a1.6,1.6,0,0,0,1.16-.42,1.47,1.47,0,0,0,.43-1.11Z"/><path class="cls-1" d="M29.58,3.08V4.14l-1.2.31a2.06,2.06,0,0,1,.33,1.15,2.33,2.33,0,0,1-.86,1.92,3.75,3.75,0,0,1-2.38.68l-.38,0-.3,0a.68.68,0,0,0-.32.55q0,.45,1.14.45h1.3a3,3,0,0,1,1.92.54,1.93,1.93,0,0,1,.66,1.58,2.34,2.34,0,0,1-1.12,2.08,5.82,5.82,0,0,1-3.21.74,4.45,4.45,0,0,1-2.44-.56A1.77,1.77,0,0,1,21.88,12a1.65,1.65,0,0,1,.43-1.16,2.37,2.37,0,0,1,1.26-.66A1.4,1.4,0,0,1,23,9.7a1.09,1.09,0,0,1,0-1.38,2.81,2.81,0,0,1,.73-.57,2.14,2.14,0,0,1-.95-.84,2.56,2.56,0,0,1-.35-1.35,2.4,2.4,0,0,1,.81-1.94,3.56,3.56,0,0,1,2.33-.68,5.86,5.86,0,0,1,.76.06l.56.08Zm-5.9,8.73a.76.76,0,0,0,.41.67,2.22,2.22,0,0,0,1.16.25A4.05,4.05,0,0,0,27,12.42a.93.93,0,0,0,.63-.84.58.58,0,0,0-.37-.59,3,3,0,0,0-1.16-.17H25a1.6,1.6,0,0,0-1,.27A.84.84,0,0,0,23.68,11.81Zm.76-6.23a1.55,1.55,0,0,0,.28,1,1,1,0,0,0,.87.36,1,1,0,0,0,.86-.36,1.62,1.62,0,0,0,.27-1c0-.91-.38-1.38-1.13-1.38S24.44,4.67,24.44,5.58Z"/><path class="cls-1" d="M35.1,2.94a3.55,3.55,0,0,1,.71.06l-.16,2a2.65,2.65,0,0,0-2.17.44,1.86,1.86,0,0,0-.56,1.44v3.89H30.84V3.08h1.58l.3,1.29h.11a2.74,2.74,0,0,1,1-1A2.36,2.36,0,0,1,35.1,2.94Z"/><path class="cls-1" d="M42.05,10.73l-.41-1h0a3.09,3.09,0,0,1-1.08.92,3.58,3.58,0,0,1-1.46.25,2.34,2.34,0,0,1-1.73-.63,2.41,2.41,0,0,1-.63-1.79,2,2,0,0,1,.85-1.79A4.88,4.88,0,0,1,40.11,6l1.32,0V5.63a1,1,0,0,0-1.19-1.16A5.58,5.58,0,0,0,38.09,5l-.69-1.4a6.21,6.21,0,0,1,2.93-.69,3.6,3.6,0,0,1,2.35.67,2.44,2.44,0,0,1,.82,2v5.1Zm-.62-3.55-.8,0a2.63,2.63,0,0,0-1.36.33,1,1,0,0,0-.44.92c0,.58.34.88,1,.88A1.6,1.6,0,0,0,41,8.92a1.47,1.47,0,0,0,.43-1.11Z"/><path class="cls-1" d="M52.49,10.73H50.41V6.26A2.21,2.21,0,0,0,50.13,5a1,1,0,0,0-.87-.41,1.25,1.25,0,0,0-1.16.59,3.85,3.85,0,0,0-.36,1.93v3.6H45.65V3.08h1.59l.28,1h.12a2.09,2.09,0,0,1,.89-.82,2.86,2.86,0,0,1,1.33-.3,2.41,2.41,0,0,1,2.33,1.12h.18a2.16,2.16,0,0,1,.91-.83,3.08,3.08,0,0,1,1.35-.29,2.63,2.63,0,0,1,2,.67,2.88,2.88,0,0,1,.67,2.13v5H55.17V6.26A2.3,2.3,0,0,0,54.89,5,1,1,0,0,0,54,4.61a1.32,1.32,0,0,0-1.15.54,3.16,3.16,0,0,0-.38,1.74Z"/><path class="cls-1" d="M64.25,10.73l-.4-1h-.06a3.09,3.09,0,0,1-1.08.92,3.53,3.53,0,0,1-1.45.25,2.37,2.37,0,0,1-1.74-.63,2.41,2.41,0,0,1-.63-1.79,2,2,0,0,1,.85-1.79A4.9,4.9,0,0,1,62.31,6l1.33,0V5.63a1,1,0,0,0-1.19-1.16A5.62,5.62,0,0,0,60.29,5l-.69-1.4a6.24,6.24,0,0,1,2.93-.69,3.65,3.65,0,0,1,2.36.67,2.47,2.47,0,0,1,.82,2v5.1Zm-.61-3.55-.81,0a2.56,2.56,0,0,0-1.35.33,1,1,0,0,0-.45.92c0,.58.34.88,1,.88a1.59,1.59,0,0,0,1.16-.42,1.48,1.48,0,0,0,.44-1.11Z"/><path class="cls-1" d="M73.91,10.86a2.51,2.51,0,0,1-2.12-1A4.85,4.85,0,0,1,71,6.92,4.84,4.84,0,0,1,71.81,4,2.53,2.53,0,0,1,74,2.94a2.5,2.5,0,0,1,2.21,1.12h.06a8.94,8.94,0,0,1-.15-1.52V.09h2.09V10.73h-1.6l-.4-1h-.09A2.38,2.38,0,0,1,73.91,10.86Zm.73-1.66a1.4,1.4,0,0,0,1.17-.46,2.68,2.68,0,0,0,.41-1.58V6.93a3.12,3.12,0,0,0-.38-1.76,1.39,1.39,0,0,0-1.23-.54,1.23,1.23,0,0,0-1.09.6A3.2,3.2,0,0,0,73.14,7a3,3,0,0,0,.39,1.69A1.28,1.28,0,0,0,74.64,9.2Z"/><path class="cls-1" d="M83.81,10.86a4,4,0,0,1-2.89-1,3.85,3.85,0,0,1-1-2.88,4.25,4.25,0,0,1,1-3A3.89,3.89,0,0,1,86,3.86a3.48,3.48,0,0,1,.91,2.55v1H82a2,2,0,0,0,.52,1.39,1.87,1.87,0,0,0,1.38.5,6.12,6.12,0,0,0,1.31-.14,6.94,6.94,0,0,0,1.29-.46v1.61a5.24,5.24,0,0,1-1.17.41A7.35,7.35,0,0,1,83.81,10.86Zm-.3-6.44a1.31,1.31,0,0,0-1,.42A1.92,1.92,0,0,0,82,6H85a1.75,1.75,0,0,0-.4-1.2A1.37,1.37,0,0,0,83.51,4.42Z"/><path class="cls-1" d="M96.46,10.86a2.53,2.53,0,0,1-2.12-1h-.11c.08.64.11,1,.11,1.11v3.1H92.26v-11H94l.3,1h.09a2.43,2.43,0,0,1,2.17-1.13A2.48,2.48,0,0,1,98.63,4a4.81,4.81,0,0,1,.76,2.9A5.73,5.73,0,0,1,99,9a2.92,2.92,0,0,1-1,1.37A2.56,2.56,0,0,1,96.46,10.86Zm-.62-6.25a1.35,1.35,0,0,0-1.13.47,2.72,2.72,0,0,0-.37,1.57v.23a3.13,3.13,0,0,0,.37,1.76,1.29,1.29,0,0,0,1.16.53c.93,0,1.4-.77,1.4-2.31a3.3,3.3,0,0,0-.35-1.69A1.18,1.18,0,0,0,95.84,4.61Z"/><path class="cls-1" d="M105.38,2.94a3.48,3.48,0,0,1,.71.06l-.16,2a2.65,2.65,0,0,0-2.17.44,1.86,1.86,0,0,0-.56,1.44v3.89h-2.08V3.08h1.58l.3,1.29h.11a2.74,2.74,0,0,1,1-1A2.36,2.36,0,0,1,105.38,2.94Z"/><path class="cls-1" d="M114.42,6.89a4.14,4.14,0,0,1-1,2.92,3.59,3.59,0,0,1-2.75,1,3.85,3.85,0,0,1-1.94-.48A3.19,3.19,0,0,1,107.46,9,4.71,4.71,0,0,1,107,6.89,4.08,4.08,0,0,1,108,4a3.59,3.59,0,0,1,2.75-1,3.85,3.85,0,0,1,1.94.48A3.22,3.22,0,0,1,114,4.79,4.64,4.64,0,0,1,114.42,6.89Zm-5.28,0a3.21,3.21,0,0,0,.37,1.72,1.34,1.34,0,0,0,1.21.58,1.29,1.29,0,0,0,1.2-.58,3.21,3.21,0,0,0,.37-1.72,3.2,3.2,0,0,0-.37-1.7,1.57,1.57,0,0,0-2.42,0A3.19,3.19,0,0,0,109.14,6.89Z"/><path class="cls-1" d="M119.25,10.86q-3.57,0-3.57-3.91a4.16,4.16,0,0,1,1-3,3.62,3.62,0,0,1,2.78-1,5.27,5.27,0,0,1,2.38.52l-.62,1.61a9.14,9.14,0,0,0-.91-.32,2.79,2.79,0,0,0-.85-.13c-1.08,0-1.63.77-1.63,2.31s.55,2.24,1.63,2.24a3.68,3.68,0,0,0,2.14-.66v1.78a3.25,3.25,0,0,1-1,.45A5.93,5.93,0,0,1,119.25,10.86Z"/><path class="cls-1" d="M126.8,10.86a3.93,3.93,0,0,1-2.88-1,3.81,3.81,0,0,1-1-2.88,4.24,4.24,0,0,1,1-3A3.89,3.89,0,0,1,129,3.86a3.48,3.48,0,0,1,.91,2.55v1H125a2,2,0,0,0,.52,1.39,1.88,1.88,0,0,0,1.39.5,6,6,0,0,0,1.3-.14,6.94,6.94,0,0,0,1.29-.46v1.61a5.24,5.24,0,0,1-1.17.41A7.35,7.35,0,0,1,126.8,10.86Zm-.29-6.44a1.31,1.31,0,0,0-1,.42A1.92,1.92,0,0,0,125,6H128a1.75,1.75,0,0,0-.4-1.2A1.36,1.36,0,0,0,126.51,4.42Z"/><path class="cls-1" d="M136.94,8.46a2.11,2.11,0,0,1-.81,1.79,4.06,4.06,0,0,1-2.45.61,7.31,7.31,0,0,1-1.42-.11,6.13,6.13,0,0,1-1.1-.33V8.7a7.44,7.44,0,0,0,1.31.45,5,5,0,0,0,1.28.19q1.14,0,1.14-.66a.55.55,0,0,0-.15-.4,2.41,2.41,0,0,0-.52-.35q-.37-.2-1-.45a6,6,0,0,1-1.29-.69,1.89,1.89,0,0,1-.61-.72,2.45,2.45,0,0,1-.18-1,1.79,1.79,0,0,1,.79-1.57,3.84,3.84,0,0,1,2.24-.56,6.34,6.34,0,0,1,2.68.6L136.23,5c-.38-.16-.74-.29-1.07-.4a3.51,3.51,0,0,0-1-.16c-.61,0-.92.17-.92.5a.59.59,0,0,0,.3.49,7.47,7.47,0,0,0,1.3.61,6,6,0,0,1,1.31.67,2.13,2.13,0,0,1,.62.73A2.26,2.26,0,0,1,136.94,8.46Z"/><path class="cls-1" d="M145.52,6.89a4.1,4.1,0,0,1-1,2.92,3.56,3.56,0,0,1-2.74,1,3.85,3.85,0,0,1-1.94-.48A3.19,3.19,0,0,1,138.56,9a4.71,4.71,0,0,1-.45-2.11,4.08,4.08,0,0,1,1-2.91,3.62,3.62,0,0,1,2.75-1,3.82,3.82,0,0,1,1.94.48,3.31,3.31,0,0,1,1.3,1.37A4.64,4.64,0,0,1,145.52,6.89Zm-5.29,0a3.3,3.3,0,0,0,.37,1.72,1.36,1.36,0,0,0,1.22.58,1.32,1.32,0,0,0,1.2-.58,3.31,3.31,0,0,0,.36-1.72,3.11,3.11,0,0,0-.37-1.7,1.32,1.32,0,0,0-1.21-.57,1.33,1.33,0,0,0-1.2.57A3.18,3.18,0,0,0,140.23,6.89Z"/><path class="cls-1" d="M152.57,8.46a2.1,2.1,0,0,1-.82,1.79,4,4,0,0,1-2.44.61,7.24,7.24,0,0,1-1.42-.11,6.13,6.13,0,0,1-1.1-.33V8.7a7.17,7.17,0,0,0,1.31.45,5,5,0,0,0,1.28.19c.76,0,1.13-.22,1.13-.66a.55.55,0,0,0-.15-.4,2.17,2.17,0,0,0-.52-.35c-.24-.13-.57-.28-1-.45a6.44,6.44,0,0,1-1.3-.69,2,2,0,0,1-.6-.72,2.44,2.44,0,0,1-.19-1,1.82,1.82,0,0,1,.79-1.57,3.88,3.88,0,0,1,2.24-.56,6.38,6.38,0,0,1,2.69.6L151.86,5c-.38-.16-.74-.29-1.07-.4a3.56,3.56,0,0,0-1-.16c-.62,0-.92.17-.92.5a.58.58,0,0,0,.29.49,8.12,8.12,0,0,0,1.31.61,6.19,6.19,0,0,1,1.31.67,2,2,0,0,1,.61.73A2.25,2.25,0,0,1,152.57,8.46Z"/><path class="cls-1" d="M162,10.86a2.51,2.51,0,0,1-2.11-1h-.11c.07.64.11,1,.11,1.11v3.1h-2.09v-11h1.7l.29,1h.1a2.43,2.43,0,0,1,2.17-1.13A2.48,2.48,0,0,1,164.21,4a4.81,4.81,0,0,1,.76,2.9A5.72,5.72,0,0,1,164.61,9a3,3,0,0,1-1,1.37A2.57,2.57,0,0,1,162,10.86Zm-.61-6.25a1.33,1.33,0,0,0-1.13.47,2.72,2.72,0,0,0-.37,1.57v.23a3.13,3.13,0,0,0,.37,1.76,1.28,1.28,0,0,0,1.15.53q1.41,0,1.41-2.31a3.3,3.3,0,0,0-.35-1.69A1.18,1.18,0,0,0,161.42,4.61Z"/><path class="cls-1" d="M171.55,10.73l-.41-1h0a3.09,3.09,0,0,1-1.08.92,3.58,3.58,0,0,1-1.46.25,2.34,2.34,0,0,1-1.73-.63,2.41,2.41,0,0,1-.63-1.79A2,2,0,0,1,167,6.65,4.88,4.88,0,0,1,169.61,6l1.32,0V5.63a1,1,0,0,0-1.19-1.16,5.58,5.58,0,0,0-2.15.55l-.69-1.4a6.21,6.21,0,0,1,2.93-.69,3.6,3.6,0,0,1,2.35.67,2.44,2.44,0,0,1,.82,2v5.1Zm-.62-3.55-.8,0a2.63,2.63,0,0,0-1.36.33,1,1,0,0,0-.44.92c0,.58.34.88,1,.88a1.6,1.6,0,0,0,1.16-.42,1.47,1.47,0,0,0,.43-1.11Z"/><path class="cls-1" d="M179.42,2.94a3.44,3.44,0,0,1,.7.06L180,5a2.18,2.18,0,0,0-.61-.07,2.22,2.22,0,0,0-1.56.51,1.85,1.85,0,0,0-.55,1.44v3.89h-2.09V3.08h1.58L177,4.37h.1a2.91,2.91,0,0,1,1-1A2.37,2.37,0,0,1,179.42,2.94Z"/><path class="cls-1" d="M186.36,10.73l-.4-1h-.06a3.09,3.09,0,0,1-1.08.92,3.53,3.53,0,0,1-1.45.25,2.37,2.37,0,0,1-1.74-.63A2.41,2.41,0,0,1,181,8.44a2,2,0,0,1,.85-1.79A4.9,4.9,0,0,1,184.42,6l1.33,0V5.63a1,1,0,0,0-1.19-1.16A5.62,5.62,0,0,0,182.4,5l-.69-1.4a6.24,6.24,0,0,1,2.93-.69A3.65,3.65,0,0,1,187,3.6a2.47,2.47,0,0,1,.82,2v5.1Zm-.61-3.55-.81,0a2.56,2.56,0,0,0-1.35.33,1,1,0,0,0-.45.92c0,.58.34.88,1,.88a1.59,1.59,0,0,0,1.16-.42,1.48,1.48,0,0,0,.44-1.11Z"/><path class="cls-1" d="M195.69,10.73H193.6V.09h2.09Z"/><path class="cls-1" d="M202.73,10.73l-.41-1h0a3.09,3.09,0,0,1-1.08.92,3.58,3.58,0,0,1-1.46.25,2.34,2.34,0,0,1-1.73-.63,2.41,2.41,0,0,1-.63-1.79,2,2,0,0,1,.85-1.79A4.88,4.88,0,0,1,200.79,6l1.32,0V5.63a1,1,0,0,0-1.19-1.16,5.54,5.54,0,0,0-2.15.55l-.69-1.4A6.2,6.2,0,0,1,201,2.93a3.61,3.61,0,0,1,2.36.67,2.44,2.44,0,0,1,.82,2v5.1Zm-.62-3.55-.81,0a2.62,2.62,0,0,0-1.35.33,1,1,0,0,0-.44.92c0,.58.33.88,1,.88a1.6,1.6,0,0,0,1.16-.42,1.47,1.47,0,0,0,.43-1.11Z"/><path class="cls-1" d="M213.42,10.86a3.93,3.93,0,0,1-2.88-1,3.85,3.85,0,0,1-1-2.88,4.24,4.24,0,0,1,1-3,3.43,3.43,0,0,1,2.66-1.05,3.38,3.38,0,0,1,2.52.92,3.51,3.51,0,0,1,.9,2.55v1h-4.93a2,2,0,0,0,.53,1.39,1.87,1.87,0,0,0,1.38.5,6.12,6.12,0,0,0,1.31-.14,6.61,6.61,0,0,0,1.28-.46v1.61a4.91,4.91,0,0,1-1.17.41A7.29,7.29,0,0,1,213.42,10.86Zm-.29-6.44a1.33,1.33,0,0,0-1,.42,2,2,0,0,0-.43,1.2h2.93a1.75,1.75,0,0,0-.41-1.2A1.36,1.36,0,0,0,213.13,4.42Z"/><path class="cls-1" d="M220.32,10.73h-2.08V.09h2.08Z"/><path class="cls-1" d="M227.36,10.73l-.4-1h-.05a3.2,3.2,0,0,1-1.09.92,3.5,3.5,0,0,1-1.45.25,2.34,2.34,0,0,1-1.73-.63A2.38,2.38,0,0,1,222,8.44a2,2,0,0,1,.86-1.79A4.84,4.84,0,0,1,225.42,6l1.33,0V5.63a1,1,0,0,0-1.19-1.16,5.54,5.54,0,0,0-2.15.55l-.7-1.4a6.24,6.24,0,0,1,2.93-.69A3.63,3.63,0,0,1,228,3.6a2.44,2.44,0,0,1,.82,2v5.1Zm-.61-3.55-.81,0a2.56,2.56,0,0,0-1.35.33,1,1,0,0,0-.45.92c0,.58.34.88,1,.88a1.58,1.58,0,0,0,1.15-.42,1.48,1.48,0,0,0,.44-1.11Z"/><path class="cls-1" d="M235.22,2.94A2.47,2.47,0,0,1,237.34,4a4.84,4.84,0,0,1,.76,2.89,4.73,4.73,0,0,1-.79,2.93,2.75,2.75,0,0,1-4.26.06h-.14l-.35.85H231V.09h2.08V2.56c0,.32,0,.82-.08,1.51h.08A2.43,2.43,0,0,1,235.22,2.94Zm-.67,1.67a1.33,1.33,0,0,0-1.13.47,2.72,2.72,0,0,0-.37,1.57v.23a3.13,3.13,0,0,0,.37,1.76,1.29,1.29,0,0,0,1.16.53,1.16,1.16,0,0,0,1-.59A3.2,3.2,0,0,0,236,6.86a3,3,0,0,0-.39-1.69A1.2,1.2,0,0,0,234.55,4.61Z"/><path class="cls-1" d="M246.77,6.89a4.14,4.14,0,0,1-1,2.92,3.59,3.59,0,0,1-2.75,1,3.85,3.85,0,0,1-1.94-.48A3.19,3.19,0,0,1,239.81,9a4.71,4.71,0,0,1-.45-2.11,4.08,4.08,0,0,1,1-2.91,3.6,3.6,0,0,1,2.75-1,3.85,3.85,0,0,1,1.94.48,3.22,3.22,0,0,1,1.29,1.37A4.64,4.64,0,0,1,246.77,6.89Zm-5.28,0a3.21,3.21,0,0,0,.37,1.72,1.34,1.34,0,0,0,1.21.58,1.29,1.29,0,0,0,1.2-.58,3.21,3.21,0,0,0,.37-1.72,3.2,3.2,0,0,0-.37-1.7,1.34,1.34,0,0,0-1.21-.57,1.31,1.31,0,0,0-1.2.57A3.09,3.09,0,0,0,241.49,6.89Z"/><path class="cls-1" d="M252.76,2.94a3.37,3.37,0,0,1,.7.06l-.15,2a2.25,2.25,0,0,0-.62-.07,2.21,2.21,0,0,0-1.55.51,1.83,1.83,0,0,0-.56,1.44v3.89h-2.09V3.08h1.58l.31,1.29h.1a2.91,2.91,0,0,1,1-1A2.42,2.42,0,0,1,252.76,2.94Z"/><path class="cls-1" d="M259.7,10.73l-.4-1h-.05a3.11,3.11,0,0,1-1.09.92,3.5,3.5,0,0,1-1.45.25,2.34,2.34,0,0,1-1.73-.63,2.42,2.42,0,0,1-.64-1.79,2,2,0,0,1,.86-1.79A4.84,4.84,0,0,1,257.76,6l1.33,0V5.63a1,1,0,0,0-1.19-1.16,5.54,5.54,0,0,0-2.15.55l-.69-1.4A6.2,6.2,0,0,1,258,2.93a3.63,3.63,0,0,1,2.36.67,2.44,2.44,0,0,1,.82,2v5.1Zm-.61-3.55-.81,0a2.59,2.59,0,0,0-1.35.33,1,1,0,0,0-.45.92c0,.58.34.88,1,.88a1.6,1.6,0,0,0,1.16-.42,1.51,1.51,0,0,0,.43-1.11Z"/><path class="cls-1" d="M266.41,10.86q-3.57,0-3.57-3.91a4.21,4.21,0,0,1,1-3,3.64,3.64,0,0,1,2.78-1,5.24,5.24,0,0,1,2.38.52l-.61,1.61c-.33-.13-.64-.24-.92-.32a2.74,2.74,0,0,0-.85-.13Q265,4.62,265,6.93c0,1.5.54,2.24,1.62,2.24A3.61,3.61,0,0,0,267.71,9a3.7,3.7,0,0,0,1-.5v1.78a3.07,3.07,0,0,1-1,.45A5.87,5.87,0,0,1,266.41,10.86Z"/><path class="cls-1" d="M270.42,1.11c0-.68.37-1,1.13-1s1.14.34,1.14,1a1,1,0,0,1-.29.75,1.19,1.19,0,0,1-.85.27C270.79,2.13,270.42,1.79,270.42,1.11Zm2.17,9.62H270.5V3.08h2.09Z"/><path class="cls-1" d="M281.72,6.89a4.14,4.14,0,0,1-1,2.92,3.58,3.58,0,0,1-2.74,1,3.82,3.82,0,0,1-1.94-.48A3.21,3.21,0,0,1,274.76,9a4.71,4.71,0,0,1-.45-2.11,4.08,4.08,0,0,1,1-2.91,3.6,3.6,0,0,1,2.75-1,3.85,3.85,0,0,1,1.94.48,3.22,3.22,0,0,1,1.29,1.37A4.64,4.64,0,0,1,281.72,6.89Zm-5.28,0a3.21,3.21,0,0,0,.37,1.72,1.34,1.34,0,0,0,1.21.58,1.29,1.29,0,0,0,1.2-.58,3.21,3.21,0,0,0,.37-1.72,3.11,3.11,0,0,0-.37-1.7A1.34,1.34,0,0,0,278,4.62a1.32,1.32,0,0,0-1.2.57A3.09,3.09,0,0,0,276.44,6.89Zm.44-4.65V2.06A18.41,18.41,0,0,0,278.48,0h2.34V.14c-.24.24-.64.59-1.21,1.06s-1,.81-1.35,1Z"/><path class="cls-1" d="M290.5,10.73h-2.08V6.26a2.12,2.12,0,0,0-.3-1.24,1.09,1.09,0,0,0-.94-.41,1.4,1.4,0,0,0-1.26.58,3.64,3.64,0,0,0-.39,1.94v3.6h-2.08V3.08H285l.28,1h.11a2.3,2.3,0,0,1,1-.84,3.3,3.3,0,0,1,1.4-.28,2.68,2.68,0,0,1,2,.72,2.9,2.9,0,0,1,.69,2.08Z"/><path class="cls-1" d="M298.7,10.86a2.49,2.49,0,0,1-2.11-1,4.78,4.78,0,0,1-.77-2.9A4.84,4.84,0,0,1,296.6,4a2.54,2.54,0,0,1,2.16-1.05A2.49,2.49,0,0,1,301,4.06H301a8.11,8.11,0,0,1-.16-1.52V.09H303V10.73h-1.6l-.4-1h-.09A2.37,2.37,0,0,1,298.7,10.86Zm.73-1.66a1.42,1.42,0,0,0,1.18-.46,2.69,2.69,0,0,0,.4-1.58V6.93a3,3,0,0,0-.38-1.76,1.39,1.39,0,0,0-1.23-.54,1.21,1.21,0,0,0-1.08.6A3.11,3.11,0,0,0,297.93,7a3,3,0,0,0,.39,1.69A1.28,1.28,0,0,0,299.43,9.2Z"/><path class="cls-1" d="M308.6,10.86a3.93,3.93,0,0,1-2.88-1,3.81,3.81,0,0,1-1-2.88,4.24,4.24,0,0,1,1-3,3.9,3.9,0,0,1,5.18-.13,3.51,3.51,0,0,1,.9,2.55v1h-4.93a2,2,0,0,0,.53,1.39,1.84,1.84,0,0,0,1.38.5,6,6,0,0,0,1.3-.14,6.94,6.94,0,0,0,1.29-.46v1.61a5.24,5.24,0,0,1-1.17.41A7.35,7.35,0,0,1,308.6,10.86Zm-.29-6.44a1.33,1.33,0,0,0-1,.42,1.92,1.92,0,0,0-.43,1.2h2.92a1.75,1.75,0,0,0-.4-1.2A1.36,1.36,0,0,0,308.31,4.42Z"/><path class="cls-1" d="M321.25,10.86a2.51,2.51,0,0,1-2.11-1H319c.07.64.11,1,.11,1.11v3.1h-2.09v-11h1.7l.29,1h.1a2.41,2.41,0,0,1,2.16-1.13A2.47,2.47,0,0,1,323.42,4a4.81,4.81,0,0,1,.77,2.9A5.72,5.72,0,0,1,323.83,9a3,3,0,0,1-1,1.37A2.62,2.62,0,0,1,321.25,10.86Zm-.62-6.25a1.35,1.35,0,0,0-1.13.47,2.73,2.73,0,0,0-.36,1.57v.23a3.24,3.24,0,0,0,.36,1.76,1.3,1.3,0,0,0,1.16.53c.93,0,1.4-.77,1.4-2.31a3.31,3.31,0,0,0-.34-1.69A1.19,1.19,0,0,0,320.63,4.61Z"/><path class="cls-1" d="M330.76,10.73l-.4-1h-.05a3.11,3.11,0,0,1-1.09.92,3.5,3.5,0,0,1-1.45.25,2.34,2.34,0,0,1-1.73-.63,2.42,2.42,0,0,1-.64-1.79,2,2,0,0,1,.86-1.79A4.84,4.84,0,0,1,328.82,6l1.33,0V5.63A1,1,0,0,0,329,4.47a5.54,5.54,0,0,0-2.15.55l-.69-1.4A6.2,6.2,0,0,1,329,2.93a3.63,3.63,0,0,1,2.36.67,2.44,2.44,0,0,1,.82,2v5.1Zm-.61-3.55-.81,0a2.59,2.59,0,0,0-1.35.33,1,1,0,0,0-.45.92c0,.58.34.88,1,.88a1.58,1.58,0,0,0,1.15-.42,1.48,1.48,0,0,0,.44-1.11Z"/><path class="cls-1" d="M337.59,9.2A4.52,4.52,0,0,0,338.9,9v1.55a4.58,4.58,0,0,1-1.92.35,2.35,2.35,0,0,1-1.82-.63,2.75,2.75,0,0,1-.57-1.9V4.65h-1V3.77l1.15-.7.6-1.61h1.34V3.08h2.14V4.65h-2.14V8.33a.8.8,0,0,0,.25.66A1,1,0,0,0,337.59,9.2Z"/><path class="cls-1" d="M345.3,10.73l-.41-1h-.05a3.09,3.09,0,0,1-1.08.92,3.58,3.58,0,0,1-1.46.25,2.34,2.34,0,0,1-1.73-.63,2.41,2.41,0,0,1-.63-1.79,2,2,0,0,1,.85-1.79A4.88,4.88,0,0,1,343.36,6l1.32,0V5.63a1,1,0,0,0-1.19-1.16,5.54,5.54,0,0,0-2.15.55l-.69-1.4a6.2,6.2,0,0,1,2.92-.69,3.61,3.61,0,0,1,2.36.67,2.44,2.44,0,0,1,.82,2v5.1Zm-.62-3.55-.8,0a2.63,2.63,0,0,0-1.36.33,1,1,0,0,0-.44.92c0,.58.33.88,1,.88a1.6,1.6,0,0,0,1.16-.42,1.47,1.47,0,0,0,.43-1.11Z"/><path class="cls-1" d="M352,10.86q-3.57,0-3.57-3.91a4.16,4.16,0,0,1,1-3,3.61,3.61,0,0,1,2.78-1,5.3,5.3,0,0,1,2.38.52L354,5.07c-.33-.13-.63-.24-.91-.32a2.83,2.83,0,0,0-.85-.13c-1.09,0-1.63.77-1.63,2.31s.54,2.24,1.63,2.24A3.59,3.59,0,0,0,353.3,9a3.75,3.75,0,0,0,1-.5v1.78a3.25,3.25,0,0,1-1,.45A6,6,0,0,1,352,10.86Z"/><path class="cls-1" d="M363,6.89a4.14,4.14,0,0,1-1,2.92,3.58,3.58,0,0,1-2.74,1,3.82,3.82,0,0,1-1.94-.48A3.21,3.21,0,0,1,356.08,9a4.71,4.71,0,0,1-.45-2.11,4.08,4.08,0,0,1,1-2.91,3.6,3.6,0,0,1,2.75-1,3.85,3.85,0,0,1,1.94.48,3.22,3.22,0,0,1,1.29,1.37A4.64,4.64,0,0,1,363,6.89Zm-5.28,0a3.21,3.21,0,0,0,.37,1.72,1.34,1.34,0,0,0,1.21.58,1.29,1.29,0,0,0,1.2-.58,3.21,3.21,0,0,0,.37-1.72,3.11,3.11,0,0,0-.37-1.7,1.34,1.34,0,0,0-1.21-.57,1.32,1.32,0,0,0-1.2.57A3.09,3.09,0,0,0,357.76,6.89Zm.44-4.65V2.06A18.41,18.41,0,0,0,359.8,0h2.34V.14c-.24.24-.64.59-1.21,1.06s-1,.81-1.35,1Z"/><path class="cls-1" d="M371.82,10.73h-2.08V6.26a2.12,2.12,0,0,0-.3-1.24,1.08,1.08,0,0,0-.94-.41,1.4,1.4,0,0,0-1.26.58,3.64,3.64,0,0,0-.39,1.94v3.6h-2.08V3.08h1.59l.28,1h.11a2.3,2.3,0,0,1,1-.84,3.3,3.3,0,0,1,1.4-.28,2.66,2.66,0,0,1,2,.72,2.9,2.9,0,0,1,.69,2.08Z"/><path class="cls-1" d="M384.45,10.73h-2.09V6.26A2.21,2.21,0,0,0,382.08,5a1,1,0,0,0-.87-.41,1.25,1.25,0,0,0-1.16.59,3.85,3.85,0,0,0-.36,1.93v3.6H377.6V3.08h1.6l.28,1h.11a2.14,2.14,0,0,1,.89-.82,2.86,2.86,0,0,1,1.33-.3,2.4,2.4,0,0,1,2.33,1.12h.18a2.16,2.16,0,0,1,.91-.83,3.11,3.11,0,0,1,1.35-.29,2.62,2.62,0,0,1,2,.67,2.88,2.88,0,0,1,.67,2.13v5h-2.09V6.26A2.21,2.21,0,0,0,386.84,5a1,1,0,0,0-.87-.41,1.29,1.29,0,0,0-1.14.54,3.08,3.08,0,0,0-.38,1.74Z"/><path class="cls-1" d="M396.2,10.73l-.4-1h-.05a3.11,3.11,0,0,1-1.09.92,3.5,3.5,0,0,1-1.45.25,2.34,2.34,0,0,1-1.73-.63,2.42,2.42,0,0,1-.64-1.79,2,2,0,0,1,.86-1.79A4.84,4.84,0,0,1,394.26,6l1.33,0V5.63a1,1,0,0,0-1.19-1.16,5.54,5.54,0,0,0-2.15.55l-.69-1.4a6.2,6.2,0,0,1,2.92-.69,3.63,3.63,0,0,1,2.36.67,2.44,2.44,0,0,1,.82,2v5.1Zm-.61-3.55-.81,0a2.59,2.59,0,0,0-1.35.33,1,1,0,0,0-.45.92c0,.58.34.88,1,.88a1.6,1.6,0,0,0,1.16-.42,1.51,1.51,0,0,0,.43-1.11Z"/><path class="cls-1" d="M402.23,10.86a2.5,2.5,0,0,1-2.12-1,4.85,4.85,0,0,1-.77-2.9A4.77,4.77,0,0,1,400.13,4a2.53,2.53,0,0,1,2.15-1.05,2.48,2.48,0,0,1,2.2,1.12h.07a9,9,0,0,1-.16-1.52V.09h2.1V10.73h-1.6l-.41-1h-.09A2.36,2.36,0,0,1,402.23,10.86ZM403,9.2a1.41,1.41,0,0,0,1.17-.46,2.75,2.75,0,0,0,.41-1.58V6.93a3.12,3.12,0,0,0-.38-1.76,1.42,1.42,0,0,0-1.24-.54,1.22,1.22,0,0,0-1.08.6A3.11,3.11,0,0,0,401.45,7a3,3,0,0,0,.39,1.69A1.29,1.29,0,0,0,403,9.2Z"/><path class="cls-1" d="M414.08,10.73l-.28-1h-.11a2.19,2.19,0,0,1-.95.82,3.16,3.16,0,0,1-1.4.29,2.66,2.66,0,0,1-2-.72,2.87,2.87,0,0,1-.68-2.07v-5h2.08V7.55A2.2,2.2,0,0,0,411,8.79a1.09,1.09,0,0,0,.94.41,1.42,1.42,0,0,0,1.27-.58,3.75,3.75,0,0,0,.38-1.94V3.08h2.09v7.65Z"/><path class="cls-1" d="M422.13,2.94a3.48,3.48,0,0,1,.71.06l-.16,2a2.65,2.65,0,0,0-2.17.44A1.86,1.86,0,0,0,420,6.84v3.89h-2.08V3.08h1.58l.3,1.29h.11a2.74,2.74,0,0,1,1-1A2.36,2.36,0,0,1,422.13,2.94Z"/><path class="cls-1" d="M431.17,6.89a4.14,4.14,0,0,1-1,2.92,3.59,3.59,0,0,1-2.75,1,3.85,3.85,0,0,1-1.94-.48A3.19,3.19,0,0,1,424.21,9a4.71,4.71,0,0,1-.45-2.11,4.08,4.08,0,0,1,1-2.91,3.59,3.59,0,0,1,2.75-1,3.85,3.85,0,0,1,1.94.48,3.22,3.22,0,0,1,1.29,1.37A4.64,4.64,0,0,1,431.17,6.89Zm-5.28,0a3.21,3.21,0,0,0,.37,1.72,1.34,1.34,0,0,0,1.21.58,1.29,1.29,0,0,0,1.2-.58A3.21,3.21,0,0,0,429,6.89a3.2,3.2,0,0,0-.37-1.7,1.57,1.57,0,0,0-2.42,0A3.19,3.19,0,0,0,425.89,6.89Z"/><rect class="cls-2" x="312.87" y="305.79" width="123" height="76" rx="12"/><circle class="cls-3" cx="374.37" cy="308.57" r="14.22"/><path class="cls-4" d="M379,307.81c0,2.46-.53,4.23-1.59,5.33s-2.75,1.65-5.08,1.65a13.17,13.17,0,0,1-1.76-.08V312a8.32,8.32,0,0,0,1.48.14,4.56,4.56,0,0,0,2.81-.75,3,3,0,0,0,1.08-2.38h-.11a3,3,0,0,1-.66.89,2,2,0,0,1-.8.42,3.94,3.94,0,0,1-1.18.15,3.16,3.16,0,0,1-2.55-1.09,4.55,4.55,0,0,1-.92-3,4.12,4.12,0,0,1,4.45-4.46,4.36,4.36,0,0,1,3.57,1.53A6.67,6.67,0,0,1,379,307.81Zm-4.73-3.16a1.14,1.14,0,0,0-.91.4,2,2,0,0,0-.35,1.3,1.88,1.88,0,0,0,.3,1.12,1.06,1.06,0,0,0,.92.42,1.36,1.36,0,0,0,1-.41,1.32,1.32,0,0,0,.41-1,2.25,2.25,0,0,0-.38-1.31A1.14,1.14,0,0,0,374.22,304.65Z"/><rect class="cls-5" x="323.82" y="362.32" width="101.1" height="1.33"/><path class="cls-4" d="M353,353.18H348.2v-8.57H353v1.19H349.6v2.33h3.23v1.17H349.6V352H353Z"/><path class="cls-4" d="M360.21,353.18h-1.38v-4a1.82,1.82,0,0,0-.29-1.11,1,1,0,0,0-.87-.36,1.34,1.34,0,0,0-1.17.51,3.06,3.06,0,0,0-.37,1.73v3.23h-1.38V346.7h1.08l.19.85h.07a1.82,1.82,0,0,1,.78-.72,2.64,2.64,0,0,1,1.13-.25,2,2,0,0,1,2,1h.09a2.09,2.09,0,0,1,.81-.75,2.59,2.59,0,0,1,1.2-.27,2.18,2.18,0,0,1,1.69.59,2.59,2.59,0,0,1,.53,1.78v4.23h-1.38v-4a1.82,1.82,0,0,0-.28-1.11,1.06,1.06,0,0,0-.88-.36,1.36,1.36,0,0,0-1.18.5,2.55,2.55,0,0,0-.37,1.54Z"/><path class="cls-4" d="M369.51,353.3a2.27,2.27,0,0,1-1.91-.89h-.08c.05.55.08.88.08,1v2.65h-1.38V346.7h1.11c0,.12.1.41.2.87h.07a2.15,2.15,0,0,1,1.93-1,2.24,2.24,0,0,1,1.89.88,4.81,4.81,0,0,1,0,5A2.28,2.28,0,0,1,369.51,353.3Zm-.34-5.59a1.42,1.42,0,0,0-1.19.48,2.42,2.42,0,0,0-.38,1.53v.21a3,3,0,0,0,.37,1.71,1.41,1.41,0,0,0,1.23.53,1.23,1.23,0,0,0,1.1-.59,3,3,0,0,0,.39-1.66,2.87,2.87,0,0,0-.39-1.65A1.26,1.26,0,0,0,369.17,347.71Z"/><path class="cls-4" d="M377.75,353.18l-.27-.9h-.05a2.68,2.68,0,0,1-.94.8,3.06,3.06,0,0,1-1.22.22,2.06,2.06,0,0,1-1.49-.52,1.92,1.92,0,0,1-.54-1.46,1.72,1.72,0,0,1,.74-1.51,4.31,4.31,0,0,1,2.27-.56l1.12,0v-.35a1.35,1.35,0,0,0-.29-.93,1.19,1.19,0,0,0-.9-.3,3,3,0,0,0-.95.14,7.68,7.68,0,0,0-.88.35l-.45-1a5.14,5.14,0,0,1,1.16-.42,5.57,5.57,0,0,1,1.18-.14,2.82,2.82,0,0,1,1.87.54,2.1,2.1,0,0,1,.63,1.69v4.37Zm-2.05-.94a1.73,1.73,0,0,0,1.21-.42,1.52,1.52,0,0,0,.45-1.17v-.57l-.83,0a2.77,2.77,0,0,0-1.42.33,1,1,0,0,0-.44.88.86.86,0,0,0,.26.67A1.09,1.09,0,0,0,375.7,352.24Z"/><path class="cls-4" d="M382.83,353.3a2.24,2.24,0,0,1-1.88-.89,4.8,4.8,0,0,1,0-4.94,2.3,2.3,0,0,1,1.91-.89,2.56,2.56,0,0,1,1.09.23,2.21,2.21,0,0,1,.86.74h.05l.15-.85h1.15v9.36h-1.39v-2.75a5.17,5.17,0,0,1,0-.54c0-.19,0-.34,0-.44h-.08A2.12,2.12,0,0,1,382.83,353.3Zm.39-1.11a1.45,1.45,0,0,0,1.25-.5,2.5,2.5,0,0,0,.38-1.51V350a3,3,0,0,0-.39-1.73,1.46,1.46,0,0,0-1.26-.52,1.25,1.25,0,0,0-1.12.58,3,3,0,0,0-.39,1.68Q381.69,352.19,383.22,352.19Z"/><path class="cls-4" d="M392.71,353.18l-.2-.85h-.07a1.91,1.91,0,0,1-.82.71,2.73,2.73,0,0,1-1.21.26,2.36,2.36,0,0,1-1.75-.59,2.41,2.41,0,0,1-.58-1.78V346.7h1.38v4a1.76,1.76,0,0,0,.31,1.12,1.15,1.15,0,0,0,1,.37,1.52,1.52,0,0,0,1.28-.52,2.83,2.83,0,0,0,.41-1.73V346.7h1.38v6.48Z"/><path class="cls-4" d="M398.58,353.3a3.12,3.12,0,0,1-2.36-.89,3.31,3.31,0,0,1-.85-2.42,3.66,3.66,0,0,1,.79-2.5,2.7,2.7,0,0,1,2.17-.91,2.67,2.67,0,0,1,2,.78,3,3,0,0,1,.74,2.14v.75h-4.32a2.13,2.13,0,0,0,.51,1.45,1.77,1.77,0,0,0,1.36.51,5.17,5.17,0,0,0,1.07-.11,5.31,5.31,0,0,0,1.06-.36v1.12a4.53,4.53,0,0,1-1,.34A6.84,6.84,0,0,1,398.58,353.3Zm-.25-5.68a1.36,1.36,0,0,0-1.05.42,1.94,1.94,0,0,0-.47,1.21h2.94a1.79,1.79,0,0,0-.39-1.21A1.31,1.31,0,0,0,398.33,347.62Z"/><rect class="cls-2" x="312.87" y="440.44" width="123" height="76" rx="12"/><path class="cls-4" d="M331.55,473.49l-.86-2.38h-3.27l-.84,2.38H325.1l3.21-8.61h1.52l3.21,8.61Zm-1.23-3.59-.8-2.33c-.06-.16-.14-.4-.24-.74s-.18-.58-.22-.74a12.72,12.72,0,0,1-.46,1.58l-.77,2.23Z"/><path class="cls-4" d="M335.4,473.49H334v-9.12h1.38Z"/><path class="cls-4" d="M342.83,473.49h-1.39v-4a1.78,1.78,0,0,0-.28-1.11,1,1,0,0,0-.88-.37,1.36,1.36,0,0,0-1.17.52,3.13,3.13,0,0,0-.37,1.73v3.23h-1.37V467h1.07l.2.85h.07a1.86,1.86,0,0,1,.78-.71,2.5,2.5,0,0,1,1.13-.25,2,2,0,0,1,2,1h.09a2,2,0,0,1,.81-.75,2.59,2.59,0,0,1,1.2-.27,2.19,2.19,0,0,1,1.69.58,2.62,2.62,0,0,1,.53,1.79v4.23h-1.38v-4a1.78,1.78,0,0,0-.29-1.11,1,1,0,0,0-.88-.37,1.38,1.38,0,0,0-1.17.5,2.59,2.59,0,0,0-.37,1.54Z"/><path class="cls-4" d="M352.89,473.49l-.27-.91h-.05a2.62,2.62,0,0,1-.94.81,3.07,3.07,0,0,1-1.22.21,2.06,2.06,0,0,1-1.49-.51,1.93,1.93,0,0,1-.54-1.46,1.7,1.7,0,0,1,.75-1.51,4.24,4.24,0,0,1,2.26-.56l1.12,0v-.34a1.28,1.28,0,0,0-.29-.93,1.16,1.16,0,0,0-.9-.31,3,3,0,0,0-.95.15,7.65,7.65,0,0,0-.88.34l-.45-1a5.14,5.14,0,0,1,1.16-.42,5.65,5.65,0,0,1,1.18-.14,2.8,2.8,0,0,1,1.87.54,2.1,2.1,0,0,1,.63,1.69v4.37Zm-2.05-.94a1.73,1.73,0,0,0,1.21-.42,1.53,1.53,0,0,0,.45-1.18v-.56l-.83,0a2.89,2.89,0,0,0-1.42.32,1,1,0,0,0-.44.89.87.87,0,0,0,.26.67A1.09,1.09,0,0,0,350.84,472.55Z"/><path class="cls-4" d="M358.41,473.6a2.8,2.8,0,0,1-2.23-.86,4.33,4.33,0,0,1,0-5,3,3,0,0,1,2.31-.88,4.25,4.25,0,0,1,1.85.38l-.42,1.11a4.07,4.07,0,0,0-1.44-.34c-1.12,0-1.68.74-1.68,2.23a2.68,2.68,0,0,0,.42,1.64,1.46,1.46,0,0,0,1.23.54,3.58,3.58,0,0,0,1.74-.45v1.2a2.83,2.83,0,0,1-.79.31A5,5,0,0,1,358.41,473.6Z"/><path class="cls-4" d="M364.57,473.6a3.1,3.1,0,0,1-2.36-.88,3.35,3.35,0,0,1-.86-2.43,3.68,3.68,0,0,1,.79-2.49,2.74,2.74,0,0,1,2.18-.91,2.69,2.69,0,0,1,2,.78,3,3,0,0,1,.74,2.14v.75h-4.32a2.15,2.15,0,0,0,.51,1.45,1.8,1.8,0,0,0,1.35.5,4.51,4.51,0,0,0,1.07-.11,5.39,5.39,0,0,0,1.07-.36v1.12a4.08,4.08,0,0,1-1,.34A6,6,0,0,1,364.57,473.6Zm-.25-5.67a1.36,1.36,0,0,0-1.05.42,2,2,0,0,0-.48,1.21h2.95a1.82,1.82,0,0,0-.39-1.22A1.33,1.33,0,0,0,364.32,467.93Z"/><path class="cls-4" d="M374.36,473.49H373v-4a1.76,1.76,0,0,0-.3-1.12,1.19,1.19,0,0,0-1-.37,1.5,1.5,0,0,0-1.27.52,2.83,2.83,0,0,0-.41,1.73v3.23h-1.38V467h1.08l.2.85H370a1.94,1.94,0,0,1,.83-.71,2.76,2.76,0,0,1,1.19-.25,2.08,2.08,0,0,1,2.34,2.37Z"/><path class="cls-4" d="M380.33,473.49l-.28-.91H380a2.54,2.54,0,0,1-.94.81,3,3,0,0,1-1.22.21,2.09,2.09,0,0,1-1.49-.51,1.93,1.93,0,0,1-.54-1.46,1.7,1.7,0,0,1,.75-1.51,4.26,4.26,0,0,1,2.27-.56l1.12,0v-.34a1.33,1.33,0,0,0-.29-.93,1.19,1.19,0,0,0-.9-.31,3.06,3.06,0,0,0-1,.15,8.44,8.44,0,0,0-.88.34l-.44-1a5.05,5.05,0,0,1,1.15-.42,5.65,5.65,0,0,1,1.18-.14,2.8,2.8,0,0,1,1.87.54,2.1,2.1,0,0,1,.63,1.69v4.37Zm-2.05-.94a1.69,1.69,0,0,0,1.2-.42,1.53,1.53,0,0,0,.45-1.18v-.56l-.83,0a2.81,2.81,0,0,0-1.41.32,1,1,0,0,0-.45.89.87.87,0,0,0,.26.67A1.1,1.1,0,0,0,378.28,472.55Z"/><path class="cls-4" d="M388.69,473.49h-1.38v-4a1.78,1.78,0,0,0-.28-1.11,1,1,0,0,0-.88-.37,1.36,1.36,0,0,0-1.17.52,3,3,0,0,0-.37,1.73v3.23h-1.38V467h1.08l.19.85h.07a1.83,1.83,0,0,1,.79-.71,2.46,2.46,0,0,1,1.12-.25,2,2,0,0,1,2,1h.1a2,2,0,0,1,.81-.75,2.52,2.52,0,0,1,1.19-.27,2.16,2.16,0,0,1,1.69.58,2.57,2.57,0,0,1,.53,1.79v4.23h-1.37v-4a1.78,1.78,0,0,0-.29-1.11,1,1,0,0,0-.88-.37,1.36,1.36,0,0,0-1.17.5,2.59,2.59,0,0,0-.38,1.54Z"/><path class="cls-4" d="M394.62,465.29a.74.74,0,0,1,.21-.57.77.77,0,0,1,.57-.2.81.81,0,0,1,.57.2.77.77,0,0,1,.2.57.76.76,0,0,1-.2.55.76.76,0,0,1-.57.2.74.74,0,0,1-.57-.2A.72.72,0,0,1,394.62,465.29Zm1.46,8.2h-1.37V467h1.37Z"/><path class="cls-4" d="M400.88,473.6a3.1,3.1,0,0,1-2.36-.88,3.35,3.35,0,0,1-.86-2.43,3.63,3.63,0,0,1,.8-2.49,3,3,0,0,1,4.2-.13,3,3,0,0,1,.74,2.14v.75h-4.32a2.15,2.15,0,0,0,.51,1.45,1.8,1.8,0,0,0,1.36.5,4.48,4.48,0,0,0,1.06-.11,5.39,5.39,0,0,0,1.07-.36v1.12a4.08,4.08,0,0,1-1,.34A6,6,0,0,1,400.88,473.6Zm-.25-5.67a1.36,1.36,0,0,0-1.05.42,1.92,1.92,0,0,0-.47,1.21h2.94a1.82,1.82,0,0,0-.39-1.22A1.33,1.33,0,0,0,400.63,467.93Z"/><path class="cls-4" d="M410.67,473.49h-1.39v-4a1.76,1.76,0,0,0-.3-1.12,1.19,1.19,0,0,0-1-.37,1.5,1.5,0,0,0-1.27.52,2.83,2.83,0,0,0-.41,1.73v3.23H405V467H406l.2.85h.07a1.94,1.94,0,0,1,.83-.71,2.76,2.76,0,0,1,1.19-.25,2.08,2.08,0,0,1,2.34,2.37Z"/><path class="cls-4" d="M415,472.49a3.17,3.17,0,0,0,1-.16v1a3.46,3.46,0,0,1-.58.17,4.65,4.65,0,0,1-.75.06c-1.31,0-2-.68-2-2.06v-3.49h-.88v-.61l.95-.51.46-1.37h.85V467h1.85v1.05h-1.85v3.47a1,1,0,0,0,.25.73A.92.92,0,0,0,415,472.49Z"/><path class="cls-4" d="M423.05,470.23a3.5,3.5,0,0,1-.82,2.48,2.9,2.9,0,0,1-2.27.89,3,3,0,0,1-1.6-.41,2.62,2.62,0,0,1-1.07-1.18,4,4,0,0,1-.38-1.78,3.51,3.51,0,0,1,.81-2.46,2.93,2.93,0,0,1,2.28-.88,2.87,2.87,0,0,1,2.23.9A3.55,3.55,0,0,1,423.05,470.23Zm-4.72,0c0,1.5.55,2.25,1.66,2.25s1.64-.75,1.64-2.25S421.08,468,420,468a1.4,1.4,0,0,0-1.26.58A2.9,2.9,0,0,0,418.33,470.23Z"/><path class="cls-4" d="M335.09,481.4h1.5l1.32,3.68a7.06,7.06,0,0,1,.4,1.47h0a6.43,6.43,0,0,1,.2-.78c.09-.3.59-1.76,1.48-4.37h1.49l-2.77,7.35a2.63,2.63,0,0,1-2.52,2,4.41,4.41,0,0,1-.89-.1v-1.09a3,3,0,0,0,.71.07,1.46,1.46,0,0,0,1.4-1.16l.24-.61Z"/><path class="cls-4" d="M348.24,488a2.82,2.82,0,0,1-2.24-.86,4.35,4.35,0,0,1,0-5,2.94,2.94,0,0,1,2.31-.88,4.21,4.21,0,0,1,1.84.38l-.41,1.11a4.07,4.07,0,0,0-1.44-.34c-1.12,0-1.68.74-1.68,2.23a2.7,2.7,0,0,0,.41,1.64,1.46,1.46,0,0,0,1.23.54,3.53,3.53,0,0,0,1.74-.45v1.2a2.71,2.71,0,0,1-.79.31A4.85,4.85,0,0,1,348.24,488Z"/><path class="cls-4" d="M357.31,484.63a3.54,3.54,0,0,1-.81,2.48,2.9,2.9,0,0,1-2.27.89,3,3,0,0,1-1.6-.41,2.64,2.64,0,0,1-1.08-1.18,4,4,0,0,1-.37-1.78,3.51,3.51,0,0,1,.81-2.46,2.93,2.93,0,0,1,2.28-.88,2.85,2.85,0,0,1,2.22.9A3.5,3.5,0,0,1,357.31,484.63Zm-4.71,0q0,2.25,1.65,2.25t1.65-2.25c0-1.48-.56-2.22-1.66-2.22A1.39,1.39,0,0,0,353,483,2.9,2.9,0,0,0,352.6,484.63Z"/><path class="cls-4" d="M364.6,487.88h-1.39v-4a1.76,1.76,0,0,0-.3-1.12,1.19,1.19,0,0,0-1-.37,1.5,1.5,0,0,0-1.27.52,2.83,2.83,0,0,0-.41,1.73v3.22H358.9V481.4H360l.2.85h.07a1.94,1.94,0,0,1,.83-.71,2.76,2.76,0,0,1,1.19-.25,2.08,2.08,0,0,1,2.34,2.37Z"/><path class="cls-4" d="M372,481.4v.76l-1.11.21a1.79,1.79,0,0,1,.25.5,1.89,1.89,0,0,1,.1.63,1.94,1.94,0,0,1-.69,1.58,2.92,2.92,0,0,1-1.91.57,3.28,3.28,0,0,1-.56,0,.75.75,0,0,0-.44.64.35.35,0,0,0,.2.33,1.72,1.72,0,0,0,.77.12h1.13a2.55,2.55,0,0,1,1.63.45,1.63,1.63,0,0,1,.56,1.32,1.93,1.93,0,0,1-.91,1.7,4.78,4.78,0,0,1-2.63.6,3.66,3.66,0,0,1-2-.47,1.53,1.53,0,0,1-.7-1.34,1.41,1.41,0,0,1,.38-1,2.09,2.09,0,0,1,1.06-.57,1.05,1.05,0,0,1-.46-.38,1,1,0,0,1-.17-.54.92.92,0,0,1,.2-.62,2.51,2.51,0,0,1,.61-.5,1.79,1.79,0,0,1-.82-.7,2.08,2.08,0,0,1-.31-1.15,2,2,0,0,1,.66-1.63,2.8,2.8,0,0,1,1.9-.58,4,4,0,0,1,.58,0,4.38,4.38,0,0,1,.45.07Zm-5.1,7.49a.77.77,0,0,0,.4.69,2.23,2.23,0,0,0,1.13.24,3.49,3.49,0,0,0,1.68-.32,1,1,0,0,0,.55-.86.64.64,0,0,0-.3-.6,2.41,2.41,0,0,0-1.12-.18h-1.05a1.44,1.44,0,0,0-.94.28A.93.93,0,0,0,366.89,488.89Zm.6-5.39a1.3,1.3,0,0,0,.31.94,1.19,1.19,0,0,0,.9.33c.8,0,1.19-.43,1.19-1.28a1.51,1.51,0,0,0-.29-1,1.16,1.16,0,0,0-.9-.34,1.2,1.2,0,0,0-.91.34A1.46,1.46,0,0,0,367.49,483.5Z"/><path class="cls-4" d="M376,488a3.14,3.14,0,0,1-2.37-.88,3.35,3.35,0,0,1-.85-2.43,3.63,3.63,0,0,1,.79-2.49,2.72,2.72,0,0,1,2.17-.91,2.66,2.66,0,0,1,2,.78,3,3,0,0,1,.75,2.14V485h-4.32a2.15,2.15,0,0,0,.51,1.45,1.8,1.8,0,0,0,1.35.5,4.57,4.57,0,0,0,1.07-.11,5.31,5.31,0,0,0,1.06-.36v1.12a3.83,3.83,0,0,1-1,.34A5.87,5.87,0,0,1,376,488Zm-.26-5.67a1.39,1.39,0,0,0-1.05.42,2,2,0,0,0-.47,1.21h2.94a1.82,1.82,0,0,0-.38-1.22A1.36,1.36,0,0,0,375.76,482.33Z"/><path class="cls-4" d="M381.48,487.88H380.1v-9.11h1.38Z"/><path class="cls-4" d="M387.5,487.88l-.27-.9h-.05a2.62,2.62,0,0,1-.94.81A3.07,3.07,0,0,1,385,488a2.06,2.06,0,0,1-1.49-.51A1.93,1.93,0,0,1,383,486a1.72,1.72,0,0,1,.74-1.51A4.31,4.31,0,0,1,386,484l1.12,0v-.34a1.31,1.31,0,0,0-.29-.93,1.16,1.16,0,0,0-.9-.31,3,3,0,0,0-.95.15,7.65,7.65,0,0,0-.88.34l-.45-1a5.14,5.14,0,0,1,1.16-.42,5,5,0,0,1,1.18-.14,2.82,2.82,0,0,1,1.87.54,2.1,2.1,0,0,1,.63,1.69v4.36Zm-2.05-.93a1.69,1.69,0,0,0,1.2-.42,1.5,1.5,0,0,0,.46-1.18v-.56l-.83,0a2.89,2.89,0,0,0-1.42.32,1,1,0,0,0-.44.89.84.84,0,0,0,.26.67A1.09,1.09,0,0,0,385.45,487Z"/><path class="cls-4" d="M393,488a2.79,2.79,0,0,1-2.23-.86,4.33,4.33,0,0,1,0-5,2.94,2.94,0,0,1,2.31-.88,4.25,4.25,0,0,1,1.85.38l-.42,1.11a4.07,4.07,0,0,0-1.44-.34c-1.12,0-1.68.74-1.68,2.23a2.7,2.7,0,0,0,.42,1.64,1.46,1.46,0,0,0,1.22.54,3.59,3.59,0,0,0,1.75-.45v1.2a2.83,2.83,0,0,1-.79.31A5,5,0,0,1,393,488Z"/><path class="cls-4" d="M396.27,479.69a.74.74,0,0,1,.2-.57.8.8,0,0,1,.58-.2.77.77,0,0,1,.56.2.74.74,0,0,1,.2.57.72.72,0,0,1-.2.55.73.73,0,0,1-.56.2.76.76,0,0,1-.58-.2A.72.72,0,0,1,396.27,479.69Zm1.46,8.19h-1.38V481.4h1.38Z"/><path class="cls-4" d="M405.44,484.63a3.54,3.54,0,0,1-.81,2.48,2.91,2.91,0,0,1-2.27.89,3.06,3.06,0,0,1-1.61-.41,2.67,2.67,0,0,1-1.07-1.18,4,4,0,0,1-.37-1.78,3.51,3.51,0,0,1,.81-2.46,2.93,2.93,0,0,1,2.28-.88,2.85,2.85,0,0,1,2.22.9A3.5,3.5,0,0,1,405.44,484.63Zm-4.71,0q0,2.25,1.65,2.25c1.1,0,1.64-.75,1.64-2.25s-.55-2.22-1.65-2.22a1.38,1.38,0,0,0-1.25.58A2.9,2.9,0,0,0,400.73,484.63Zm.75-4v-.14c.22-.28.45-.58.69-.92a10,10,0,0,0,.56-.86h1.6v.12a12.3,12.3,0,0,1-.91.93c-.41.37-.75.67-1,.87Z"/><path class="cls-4" d="M412.73,487.88h-1.39v-4a1.76,1.76,0,0,0-.3-1.12,1.19,1.19,0,0,0-1-.37,1.5,1.5,0,0,0-1.27.52,2.83,2.83,0,0,0-.41,1.73v3.22H407V481.4h1.08l.2.85h.07a1.94,1.94,0,0,1,.83-.71,2.76,2.76,0,0,1,1.19-.25,2.08,2.08,0,0,1,2.34,2.37Z"/><path class="cls-4" d="M354.34,499a9.15,9.15,0,0,1,.45-2.91,7.38,7.38,0,0,1,1.31-2.37h1.2a8.43,8.43,0,0,0-1.24,2.47,9.16,9.16,0,0,0-.44,2.8,9,9,0,0,0,.44,2.77,8.5,8.5,0,0,0,1.23,2.42H356.1a7,7,0,0,1-1.31-2.32A8.88,8.88,0,0,1,354.34,499Z"/><path class="cls-4" d="M358.08,499.65v-1.17h3v1.17Z"/><path class="cls-4" d="M366.09,502.29h-1.37v-5.54c0-.66,0-1.18,0-1.57a3.39,3.39,0,0,1-.33.31c-.13.12-.57.48-1.31,1.08l-.69-.87,2.52-2h1.14Z"/><path class="cls-4" d="M371.79,493.61a3,3,0,0,1,1.93.56,1.78,1.78,0,0,1,.71,1.49,2.36,2.36,0,0,1-1.58,2.1,4.11,4.11,0,0,1,1.43,1.06,2,2,0,0,1,.43,1.24,2.08,2.08,0,0,1-.78,1.7,3.2,3.2,0,0,1-2.11.64,3.43,3.43,0,0,1-2.16-.6,2,2,0,0,1-.77-1.69,2.14,2.14,0,0,1,.4-1.28,3.35,3.35,0,0,1,1.32-1,3.18,3.18,0,0,1-1.12-1,2.08,2.08,0,0,1-.34-1.17,1.8,1.8,0,0,1,.73-1.49A3.09,3.09,0,0,1,371.79,493.61Zm-1.58,6.45a1.14,1.14,0,0,0,.42.95,2.16,2.16,0,0,0,2.34,0,1.17,1.17,0,0,0,.42-.95,1.2,1.2,0,0,0-.39-.86,3.52,3.52,0,0,0-1.17-.73l-.17-.08a3,3,0,0,0-1.11.75A1.39,1.39,0,0,0,370.21,500.06Zm1.57-5.39a1.41,1.41,0,0,0-.94.29,1,1,0,0,0-.36.79,1.2,1.2,0,0,0,.13.54,1.42,1.42,0,0,0,.38.44,4.22,4.22,0,0,0,.83.47,2.86,2.86,0,0,0,1-.65,1.23,1.23,0,0,0,.29-.8,1,1,0,0,0-.36-.79A1.45,1.45,0,0,0,371.78,494.67Z"/><path class="cls-4" d="M379,495.53a1.93,1.93,0,0,1,1.93-1.93,1.81,1.81,0,0,1,1.36.56,1.92,1.92,0,0,1-1.36,3.29,1.92,1.92,0,0,1-1-.25,1.88,1.88,0,0,1-.7-.7A1.83,1.83,0,0,1,379,495.53Zm.9,0a1,1,0,0,0,.29.71,1,1,0,0,0,1.77-.71,1,1,0,0,0-.31-.74,1,1,0,0,0-.72-.3,1,1,0,0,0-1,1Z"/><path class="cls-4" d="M388.25,494.8a2.29,2.29,0,0,0-1.89.85,3.61,3.61,0,0,0-.7,2.36,3.72,3.72,0,0,0,.67,2.39,2.33,2.33,0,0,0,1.92.81,5.22,5.22,0,0,0,1.06-.11c.34-.07.69-.17,1.06-.28V502a6.29,6.29,0,0,1-2.29.38,3.64,3.64,0,0,1-2.88-1.14,4.72,4.72,0,0,1-1-3.26,5.23,5.23,0,0,1,.49-2.34,3.43,3.43,0,0,1,1.41-1.53,4.24,4.24,0,0,1,2.18-.53,5.34,5.34,0,0,1,2.42.55l-.5,1.16c-.29-.13-.6-.25-.92-.36A3.4,3.4,0,0,0,388.25,494.8Z"/><path class="cls-4" d="M394.41,499a8.9,8.9,0,0,1-.46,2.87,6.72,6.72,0,0,1-1.31,2.31h-1.19a8.21,8.21,0,0,0,1.24-2.43,8.85,8.85,0,0,0,.43-2.76,9.15,9.15,0,0,0-.43-2.8,8.58,8.58,0,0,0-1.25-2.47h1.2A7.26,7.26,0,0,1,394,496.1,9.13,9.13,0,0,1,394.41,499Z"/><circle class="cls-3" cx="374.37" cy="443.22" r="14.22"/><path class="cls-4" d="M372.16,449.28h-3.45v-6.65c0-.81,0-1.55.05-2.22a6.58,6.58,0,0,1-.79.81l-1.42,1.18-1.77-2.17,4.32-3.51h3.06Z"/><path class="cls-4" d="M384.07,443A8.48,8.48,0,0,1,383,447.9a4,4,0,0,1-3.42,1.55,3.9,3.9,0,0,1-3.4-1.62A8.36,8.36,0,0,1,375,443a8.5,8.5,0,0,1,1.12-4.91,4.43,4.43,0,0,1,6.81.07A8.43,8.43,0,0,1,384.07,443Zm-5.7,0a11.2,11.2,0,0,0,.26,2.94c.18.53.48.79.9.79s.72-.27.9-.82a11.19,11.19,0,0,0,.26-2.91,10.78,10.78,0,0,0-.27-2.92c-.18-.56-.47-.84-.89-.84s-.72.27-.9.81A11.29,11.29,0,0,0,378.37,443Z"/><rect class="cls-5" x="323.82" y="506.98" width="101.1" height="1.33"/><rect class="cls-2" x="158" y="305.79" width="123" height="76" rx="12"/><circle class="cls-3" cx="219.5" cy="308.57" r="14.22"/><path class="cls-4" d="M219.54,301.88a5.23,5.23,0,0,1,3.09.8,2.64,2.64,0,0,1,1.1,2.27,3,3,0,0,1-.52,1.75,4.35,4.35,0,0,1-1.65,1.31,6.14,6.14,0,0,1,2,1.57,2.85,2.85,0,0,1,.57,1.7,3.1,3.1,0,0,1-1.21,2.6,6.83,6.83,0,0,1-6.78,0,3,3,0,0,1-1.18-2.59,3.25,3.25,0,0,1,.52-1.86,4.61,4.61,0,0,1,1.77-1.39,4.77,4.77,0,0,1-1.46-1.44,3.2,3.2,0,0,1-.46-1.69,2.61,2.61,0,0,1,1.12-2.25A5.35,5.35,0,0,1,219.54,301.88Zm-1.5,9.3a1.07,1.07,0,0,0,.38.85,1.53,1.53,0,0,0,1.05.32c1,0,1.51-.36,1.51-1.1a1.31,1.31,0,0,0-.33-.83,4.54,4.54,0,0,0-1.18-.92,3.59,3.59,0,0,0-1.1.81A1.37,1.37,0,0,0,218,311.18Zm1.48-6.85a1.11,1.11,0,0,0-.74.25.83.83,0,0,0-.3.66c0,.49.33.93,1,1.31a2.9,2.9,0,0,0,.84-.65,1,1,0,0,0,.22-.66.8.8,0,0,0-.3-.66A1.07,1.07,0,0,0,219.52,304.33Z"/><rect class="cls-5" x="168.95" y="362.32" width="101.1" height="1.33"/><rect class="cls-2" x="3.13" y="305.79" width="123" height="76" rx="12"/><circle class="cls-3" cx="64.63" cy="308.57" r="14.22"/><path class="cls-4" d="M61.27,314.62l4.31-9.73H60.14v-2.81h9.07v2l-4.42,10.54Z"/><rect class="cls-5" x="14.08" y="362.32" width="101.1" height="1.33"/><path class="cls-4" d="M43.31,353.18H38.46v-8.57h4.85v1.19H39.86v2.33h3.23v1.17H39.86V352h3.45Z"/><path class="cls-4" d="M49.37,351.33a1.7,1.7,0,0,1-.69,1.46,3.33,3.33,0,0,1-2,.51,4.53,4.53,0,0,1-2.08-.4v-1.19a5,5,0,0,0,2.12.53c.85,0,1.27-.25,1.27-.77a.59.59,0,0,0-.14-.41,1.56,1.56,0,0,0-.46-.34,7.16,7.16,0,0,0-.9-.39,4.14,4.14,0,0,1-1.51-.87,1.64,1.64,0,0,1-.4-1.13,1.5,1.5,0,0,1,.67-1.29,3.18,3.18,0,0,1,1.83-.46,5.3,5.3,0,0,1,2.16.46l-.44,1a4.79,4.79,0,0,0-1.77-.43c-.72,0-1.09.2-1.09.62a.62.62,0,0,0,.29.51,5.88,5.88,0,0,0,1.24.58,5.91,5.91,0,0,1,1.16.57,1.7,1.7,0,0,1,.54.6A1.66,1.66,0,0,1,49.37,351.33Z"/><path class="cls-4" d="M53.47,353.3a2.86,2.86,0,0,1-2.24-.86,4.37,4.37,0,0,1,0-5,2.94,2.94,0,0,1,2.31-.88,4.43,4.43,0,0,1,1.85.38L55,348.07a4.07,4.07,0,0,0-1.44-.34c-1.12,0-1.68.74-1.68,2.23a2.68,2.68,0,0,0,.42,1.64,1.44,1.44,0,0,0,1.22.55,3.43,3.43,0,0,0,1.74-.46v1.2a2.5,2.5,0,0,1-.78.31A4.88,4.88,0,0,1,53.47,353.3Z"/><path class="cls-4" d="M61.37,353.18l-.2-.85H61.1a1.94,1.94,0,0,1-.81.71,2.79,2.79,0,0,1-1.21.26,2.38,2.38,0,0,1-1.76-.59,2.41,2.41,0,0,1-.58-1.78V346.7h1.39v4a1.76,1.76,0,0,0,.3,1.12,1.15,1.15,0,0,0,1,.37,1.51,1.51,0,0,0,1.27-.52,2.83,2.83,0,0,0,.41-1.73V346.7h1.38v6.48Z"/><path class="cls-4" d="M67.7,346.58a3.27,3.27,0,0,1,.69.06l-.14,1.28a3,3,0,0,0-.61-.07,1.78,1.78,0,0,0-1.34.54,2,2,0,0,0-.51,1.4v3.39H64.41V346.7h1.08l.18,1.14h.07a2.67,2.67,0,0,1,.84-.92A2,2,0,0,1,67.7,346.58Z"/><path class="cls-4" d="M72.88,346.58a3.23,3.23,0,0,1,.68.06l-.13,1.28a3.08,3.08,0,0,0-.61-.07,1.76,1.76,0,0,0-1.34.54,2,2,0,0,0-.52,1.4v3.39H69.59V346.7h1.08l.18,1.14h.07a2.49,2.49,0,0,1,.84-.92A2,2,0,0,1,72.88,346.58Z"/><path class="cls-4" d="M74.68,345a.81.81,0,0,1,.2-.57.82.82,0,0,1,.58-.2.71.71,0,0,1,.77.77.75.75,0,0,1-.21.56.77.77,0,0,1-.56.2.82.82,0,0,1-.58-.2A.78.78,0,0,1,74.68,345Zm1.46,8.2H74.76V346.7h1.38Z"/><path class="cls-4" d="M80.29,353.3a2.26,2.26,0,0,1-1.89-.88,4.81,4.81,0,0,1,0-4.95,2.28,2.28,0,0,1,1.91-.89,2.24,2.24,0,0,1,1.94.94h.07a9.4,9.4,0,0,1-.1-1.1v-2.36h1.39v9.12H82.54l-.24-.85h-.07A2.22,2.22,0,0,1,80.29,353.3Zm.37-1.12a1.53,1.53,0,0,0,1.24-.47,2.53,2.53,0,0,0,.4-1.55V350a3,3,0,0,0-.4-1.74,1.49,1.49,0,0,0-1.25-.51,1.27,1.27,0,0,0-1.12.58,3.07,3.07,0,0,0-.39,1.68,3,3,0,0,0,.38,1.65A1.29,1.29,0,0,0,80.66,352.18Z"/><path class="cls-4" d="M91.33,349.93a3.56,3.56,0,0,1-.81,2.48,2.94,2.94,0,0,1-2.27.89,3.16,3.16,0,0,1-1.61-.41,2.79,2.79,0,0,1-1.07-1.18,4,4,0,0,1-.37-1.78,3.51,3.51,0,0,1,.81-2.46,2.91,2.91,0,0,1,2.28-.89,2.84,2.84,0,0,1,2.22.91A3.46,3.46,0,0,1,91.33,349.93Zm-4.71,0c0,1.49.55,2.24,1.65,2.24s1.64-.75,1.64-2.24-.55-2.22-1.65-2.22a1.42,1.42,0,0,0-1.26.57A3,3,0,0,0,86.62,349.93Z"/><path class="cls-4" d="M199,347.2a2.52,2.52,0,0,1-.88,2.06,3.86,3.86,0,0,1-2.5.71h-.9v3.21h-1.4v-8.57h2.47a3.74,3.74,0,0,1,2.41.66A2.36,2.36,0,0,1,199,347.2Zm-4.28,1.6h.75a2.66,2.66,0,0,0,1.58-.38,1.35,1.35,0,0,0,.5-1.17,1.33,1.33,0,0,0-.45-1.1,2.23,2.23,0,0,0-1.4-.37h-1Z"/><path class="cls-4" d="M203.81,346.58a3.23,3.23,0,0,1,.68.06l-.13,1.28a3.08,3.08,0,0,0-.61-.07,1.76,1.76,0,0,0-1.34.54,2,2,0,0,0-.51,1.4v3.39h-1.38V346.7h1.08l.18,1.14h.07a2.67,2.67,0,0,1,.84-.92A2,2,0,0,1,203.81,346.58Z"/><path class="cls-4" d="M208.52,353.3a3.14,3.14,0,0,1-2.36-.89,3.31,3.31,0,0,1-.85-2.42,3.66,3.66,0,0,1,.79-2.5,2.72,2.72,0,0,1,2.17-.91,2.67,2.67,0,0,1,2,.78,3,3,0,0,1,.74,2.14v.75h-4.31a2.13,2.13,0,0,0,.51,1.45,1.76,1.76,0,0,0,1.35.51,5.17,5.17,0,0,0,1.07-.11,5.31,5.31,0,0,0,1.06-.36v1.12a4.22,4.22,0,0,1-1,.34A6.75,6.75,0,0,1,208.52,353.3Zm-.25-5.68a1.36,1.36,0,0,0-1.05.42,2,2,0,0,0-.47,1.21h2.94a1.79,1.79,0,0,0-.39-1.21A1.31,1.31,0,0,0,208.27,347.62Z"/><path class="cls-4" d="M218.31,353.18h-1.38v-4a1.71,1.71,0,0,0-.3-1.11,1.18,1.18,0,0,0-1-.37,1.53,1.53,0,0,0-1.28.51A2.86,2.86,0,0,0,214,350v3.23h-1.38V346.7h1.08l.19.85H214a2,2,0,0,1,.83-.72,2.93,2.93,0,0,1,1.2-.25,2.08,2.08,0,0,1,2.33,2.37Z"/><path class="cls-4" d="M224.58,351.33a1.7,1.7,0,0,1-.69,1.46,3.29,3.29,0,0,1-2,.51,4.53,4.53,0,0,1-2.08-.4v-1.19a5,5,0,0,0,2.12.53c.85,0,1.28-.25,1.28-.77a.59.59,0,0,0-.15-.41,1.56,1.56,0,0,0-.46-.34,7.6,7.6,0,0,0-.89-.39,4.11,4.11,0,0,1-1.52-.87,1.63,1.63,0,0,1-.39-1.13,1.48,1.48,0,0,1,.67-1.29,3.12,3.12,0,0,1,1.82-.46,5.3,5.3,0,0,1,2.16.46l-.44,1a4.79,4.79,0,0,0-1.77-.43c-.72,0-1.09.2-1.09.62a.62.62,0,0,0,.29.51,5.88,5.88,0,0,0,1.24.58,5.91,5.91,0,0,1,1.16.57,1.53,1.53,0,0,1,.54.6A1.66,1.66,0,0,1,224.58,351.33Z"/><path class="cls-4" d="M230.12,353.18l-.27-.9h0a2.68,2.68,0,0,1-.94.8,3.06,3.06,0,0,1-1.22.22,2.06,2.06,0,0,1-1.49-.52,1.92,1.92,0,0,1-.54-1.46,1.72,1.72,0,0,1,.74-1.51,4.31,4.31,0,0,1,2.27-.56l1.12,0v-.35a1.35,1.35,0,0,0-.29-.93,1.19,1.19,0,0,0-.9-.3,3,3,0,0,0-1,.14,7.68,7.68,0,0,0-.88.35l-.45-1a5.14,5.14,0,0,1,1.16-.42,5.57,5.57,0,0,1,1.18-.14,2.82,2.82,0,0,1,1.87.54,2.1,2.1,0,0,1,.63,1.69v4.37Zm-2.05-.94a1.73,1.73,0,0,0,1.21-.42,1.52,1.52,0,0,0,.45-1.17v-.57l-.83,0a2.77,2.77,0,0,0-1.42.33,1,1,0,0,0-.44.88.86.86,0,0,0,.26.67A1.09,1.09,0,0,0,228.07,352.24Z"/><path class="cls-4" d="M235.21,353.3a2.28,2.28,0,0,1-1.89-.88,4.81,4.81,0,0,1,0-4.95,2.28,2.28,0,0,1,1.91-.89,2.24,2.24,0,0,1,1.94.94h.07a9.4,9.4,0,0,1-.1-1.1v-2.36h1.39v9.12h-1.08l-.24-.85h-.07A2.2,2.2,0,0,1,235.21,353.3Zm.37-1.12a1.53,1.53,0,0,0,1.24-.47,2.53,2.53,0,0,0,.4-1.55V350a3,3,0,0,0-.4-1.74,1.49,1.49,0,0,0-1.25-.51,1.27,1.27,0,0,0-1.12.58,3.07,3.07,0,0,0-.39,1.68,3,3,0,0,0,.38,1.65A1.3,1.3,0,0,0,235.58,352.18Z"/><path class="cls-4" d="M246.25,349.93a3.56,3.56,0,0,1-.81,2.48,2.93,2.93,0,0,1-2.27.89,3.12,3.12,0,0,1-1.6-.41,2.75,2.75,0,0,1-1.08-1.18,4,4,0,0,1-.37-1.78,3.51,3.51,0,0,1,.81-2.46,2.94,2.94,0,0,1,2.28-.89,2.82,2.82,0,0,1,2.22.91A3.46,3.46,0,0,1,246.25,349.93Zm-4.71,0c0,1.49.55,2.24,1.65,2.24s1.64-.75,1.64-2.24-.55-2.22-1.65-2.22a1.4,1.4,0,0,0-1.25.57A2.92,2.92,0,0,0,241.54,349.93Z"/><rect class="cls-2" x="3.13" y="41.63" width="123" height="76" rx="12"/><path class="cls-4" d="M28.83,73.31v3.43h-1.4V68.17h2.42a4,4,0,0,1,2.46.62,2.24,2.24,0,0,1,.79,1.88A2.35,2.35,0,0,1,31.44,73l2.42,3.79H32.27l-2.05-3.43Zm0-1.16h1a2.21,2.21,0,0,0,1.41-.36,1.29,1.29,0,0,0,.44-1.08,1.17,1.17,0,0,0-.47-1,2.61,2.61,0,0,0-1.43-.32h-.93Z"/><path class="cls-4" d="M37.79,76.85A3.14,3.14,0,0,1,35.42,76a3.35,3.35,0,0,1-.85-2.43,3.63,3.63,0,0,1,.79-2.49,2.72,2.72,0,0,1,2.17-.91,2.66,2.66,0,0,1,2,.78,3,3,0,0,1,.75,2.14v.75H36a2.13,2.13,0,0,0,.51,1.45,1.8,1.8,0,0,0,1.35.5,5.19,5.19,0,0,0,1.07-.1A6.13,6.13,0,0,0,40,75.29v1.12a3.83,3.83,0,0,1-1,.34A5.87,5.87,0,0,1,37.79,76.85Zm-.26-5.67a1.39,1.39,0,0,0-1.05.42A2,2,0,0,0,36,72.81H39a1.83,1.83,0,0,0-.38-1.22A1.36,1.36,0,0,0,37.53,71.18Z"/><path class="cls-4" d="M44.48,76.85A2.83,2.83,0,0,1,42.25,76a4.34,4.34,0,0,1,0-5,3,3,0,0,1,2.31-.88,4.4,4.4,0,0,1,1.85.38L46,71.63a4.07,4.07,0,0,0-1.44-.34c-1.12,0-1.68.74-1.68,2.23a2.68,2.68,0,0,0,.42,1.64,1.47,1.47,0,0,0,1.23.55,3.59,3.59,0,0,0,1.74-.46v1.2a2.83,2.83,0,0,1-.79.31A5,5,0,0,1,44.48,76.85Z"/><path class="cls-4" d="M50.64,76.85A3.12,3.12,0,0,1,48.28,76a3.35,3.35,0,0,1-.86-2.43,3.63,3.63,0,0,1,.8-2.49,2.7,2.7,0,0,1,2.17-.91,2.67,2.67,0,0,1,2,.78,3,3,0,0,1,.74,2.14v.75H48.84a2.13,2.13,0,0,0,.51,1.45,1.8,1.8,0,0,0,1.36.5,5.19,5.19,0,0,0,1.07-.1,6.13,6.13,0,0,0,1.06-.37v1.12a4.08,4.08,0,0,1-1,.34A6,6,0,0,1,50.64,76.85Zm-.25-5.67a1.36,1.36,0,0,0-1,.42,1.94,1.94,0,0,0-.47,1.21h2.94a1.84,1.84,0,0,0-.39-1.22A1.33,1.33,0,0,0,50.39,71.18Z"/><path class="cls-4" d="M58,76.85A2.27,2.27,0,0,1,56.1,76H56c.06.55.08.88.08,1v2.66H54.73V70.26h1.11c0,.12.09.41.19.86h.07a2.18,2.18,0,0,1,1.94-1,2.26,2.26,0,0,1,1.89.88,4.83,4.83,0,0,1,0,4.94A2.24,2.24,0,0,1,58,76.85Zm-.33-5.59a1.43,1.43,0,0,0-1.2.48,2.52,2.52,0,0,0-.38,1.54v.2a3.06,3.06,0,0,0,.38,1.72,1.4,1.4,0,0,0,1.22.53,1.23,1.23,0,0,0,1.1-.59,3.77,3.77,0,0,0,0-3.32A1.3,1.3,0,0,0,57.68,71.26Z"/><path class="cls-4" d="M64.82,76.85A2.84,2.84,0,0,1,62.58,76a3.62,3.62,0,0,1-.76-2.47,3.55,3.55,0,0,1,.8-2.51,2.94,2.94,0,0,1,2.31-.88,4.35,4.35,0,0,1,1.84.38l-.41,1.11a4.17,4.17,0,0,0-1.44-.34c-1.13,0-1.69.74-1.69,2.23a2.68,2.68,0,0,0,.42,1.64,1.47,1.47,0,0,0,1.23.55,3.59,3.59,0,0,0,1.74-.46v1.2a2.83,2.83,0,0,1-.79.31A4.91,4.91,0,0,1,64.82,76.85Z"/><path class="cls-4" d="M68.06,68.54a.77.77,0,0,1,.2-.57.82.82,0,0,1,.58-.2.81.81,0,0,1,.57.2.77.77,0,0,1,.2.57.76.76,0,0,1-.2.55.76.76,0,0,1-.57.2.77.77,0,0,1-.58-.2A.76.76,0,0,1,68.06,68.54Zm1.46,8.2H68.14V70.26h1.38Z"/><path class="cls-4" d="M77.24,73.48A3.5,3.5,0,0,1,76.42,76a2.89,2.89,0,0,1-2.26.89,3,3,0,0,1-1.61-.41,2.64,2.64,0,0,1-1.07-1.17,4.06,4.06,0,0,1-.38-1.79A3.51,3.51,0,0,1,71.91,71a2.93,2.93,0,0,1,2.28-.88,2.87,2.87,0,0,1,2.23.9A3.55,3.55,0,0,1,77.24,73.48Zm-4.72,0c0,1.5.55,2.25,1.66,2.25s1.64-.75,1.64-2.25-.55-2.22-1.65-2.22a1.42,1.42,0,0,0-1.26.58A2.9,2.9,0,0,0,72.52,73.48Zm.76-4v-.14c.22-.28.45-.58.68-.92a8.08,8.08,0,0,0,.56-.86h1.6v.13a12.47,12.47,0,0,1-.91.92,10,10,0,0,1-1,.87Z"/><path class="cls-4" d="M84.52,76.74H83.14v-4a1.76,1.76,0,0,0-.3-1.12,1.2,1.2,0,0,0-1-.37,1.55,1.55,0,0,0-1.28.52,2.84,2.84,0,0,0-.4,1.73v3.23H78.82V70.26H79.9l.19.85h.07a2,2,0,0,1,.83-.72,2.77,2.77,0,0,1,1.2-.25,2.08,2.08,0,0,1,2.33,2.37Z"/><path class="cls-4" d="M91.74,76.85A2.24,2.24,0,0,1,89.85,76a3.87,3.87,0,0,1-.68-2.46A4,4,0,0,1,89.86,71a2.48,2.48,0,0,1,3.85,0h.07a7.62,7.62,0,0,1-.1-1.1V67.62h1.38v9.12H94l-.24-.85h-.06A2.21,2.21,0,0,1,91.74,76.85Zm.37-1.11a1.48,1.48,0,0,0,1.23-.48,2.44,2.44,0,0,0,.4-1.55v-.19a2.86,2.86,0,0,0-.4-1.74,1.48,1.48,0,0,0-1.24-.52,1.27,1.27,0,0,0-1.12.59,3,3,0,0,0-.4,1.68A2.86,2.86,0,0,0,91,75.17,1.27,1.27,0,0,0,92.11,75.74Z"/><path class="cls-4" d="M99.86,76.85A3.1,3.1,0,0,1,97.5,76a3.35,3.35,0,0,1-.86-2.43,3.68,3.68,0,0,1,.79-2.49,2.74,2.74,0,0,1,2.18-.91,2.69,2.69,0,0,1,2,.78,3,3,0,0,1,.74,2.14v.75H98.06a2.13,2.13,0,0,0,.51,1.45,1.8,1.8,0,0,0,1.35.5,5.12,5.12,0,0,0,1.07-.1,6.21,6.21,0,0,0,1.07-.37v1.12a4.08,4.08,0,0,1-1,.34A6,6,0,0,1,99.86,76.85Zm-.25-5.67a1.36,1.36,0,0,0-1,.42,2,2,0,0,0-.48,1.21h3a1.84,1.84,0,0,0-.39-1.22A1.33,1.33,0,0,0,99.61,71.18Z"/><path class="cls-4" d="M29.53,91.14H28.15v-4A1.85,1.85,0,0,0,27.87,86a1.05,1.05,0,0,0-.88-.37,1.36,1.36,0,0,0-1.17.52,3,3,0,0,0-.37,1.73v3.23H24.07V84.66h1.08l.19.84h.07a1.86,1.86,0,0,1,.78-.71,2.53,2.53,0,0,1,1.13-.25,2,2,0,0,1,2,1h.1a2,2,0,0,1,.8-.75,2.59,2.59,0,0,1,1.2-.27,2.18,2.18,0,0,1,1.69.58,2.62,2.62,0,0,1,.53,1.79v4.23H32.24v-4A1.78,1.78,0,0,0,32,86a1.05,1.05,0,0,0-.88-.37,1.38,1.38,0,0,0-1.18.5,2.59,2.59,0,0,0-.37,1.54Z"/><path class="cls-4" d="M39.6,91.14l-.28-.91h0a2.54,2.54,0,0,1-.94.81,3,3,0,0,1-1.22.21,2.09,2.09,0,0,1-1.49-.51,1.93,1.93,0,0,1-.54-1.46,1.7,1.7,0,0,1,.75-1.51,4.28,4.28,0,0,1,2.27-.56l1.12,0v-.34a1.35,1.35,0,0,0-.29-.93,1.23,1.23,0,0,0-.9-.31,3.06,3.06,0,0,0-1,.15,8.44,8.44,0,0,0-.88.34l-.44-1a5.05,5.05,0,0,1,1.15-.42,5.65,5.65,0,0,1,1.18-.14,2.8,2.8,0,0,1,1.87.54,2.1,2.1,0,0,1,.63,1.69v4.37Zm-2.05-.94a1.69,1.69,0,0,0,1.2-.42,1.53,1.53,0,0,0,.45-1.18V88l-.83,0A2.81,2.81,0,0,0,37,88.4a1,1,0,0,0-.45.89.87.87,0,0,0,.26.67A1.1,1.1,0,0,0,37.55,90.2Z"/><path class="cls-4" d="M44.92,90.14a3.17,3.17,0,0,0,1-.16v1a3.46,3.46,0,0,1-.58.17,4.56,4.56,0,0,1-.75.06c-1.31,0-2-.68-2-2.06V85.7h-.88v-.61l1-.51.47-1.37H44v1.45h1.85v1H44v3.47a1,1,0,0,0,.25.73A.92.92,0,0,0,44.92,90.14Z"/><path class="cls-4" d="M50.05,91.25a3.1,3.1,0,0,1-2.36-.88,3.35,3.35,0,0,1-.86-2.43,3.68,3.68,0,0,1,.79-2.49,2.74,2.74,0,0,1,2.18-.91,2.69,2.69,0,0,1,2,.78,3,3,0,0,1,.74,2.14v.75H48.25a2.15,2.15,0,0,0,.51,1.45,1.8,1.8,0,0,0,1.35.5,4.51,4.51,0,0,0,1.07-.11,5.39,5.39,0,0,0,1.07-.36v1.12a4.08,4.08,0,0,1-1,.34A6,6,0,0,1,50.05,91.25Zm-.25-5.67a1.36,1.36,0,0,0-1,.42,2,2,0,0,0-.48,1.21h2.95A1.82,1.82,0,0,0,50.83,86,1.33,1.33,0,0,0,49.8,85.58Z"/><path class="cls-4" d="M57.42,84.54a3.27,3.27,0,0,1,.69.06L58,85.88a2.43,2.43,0,0,0-.61-.07,1.78,1.78,0,0,0-1.34.54,2,2,0,0,0-.51,1.4v3.39H54.13V84.66h1.08l.18,1.14h.07a2.58,2.58,0,0,1,.84-.92A2,2,0,0,1,57.42,84.54Z"/><path class="cls-4" d="M59.23,82.94a.74.74,0,0,1,.2-.57.91.91,0,0,1,1.14,0,.74.74,0,0,1,.2.57.72.72,0,0,1-.2.55.91.91,0,0,1-1.14,0A.72.72,0,0,1,59.23,82.94Zm1.45,8.2H59.31V84.66h1.37Z"/><path class="cls-4" d="M66.71,91.14l-.28-.91h0a2.64,2.64,0,0,1-1,.81,3,3,0,0,1-1.22.21,2.09,2.09,0,0,1-1.49-.51,2,2,0,0,1-.53-1.46,1.7,1.7,0,0,1,.74-1.51,4.28,4.28,0,0,1,2.27-.56l1.12,0v-.34A1.35,1.35,0,0,0,66,85.9a1.23,1.23,0,0,0-.9-.31,3.11,3.11,0,0,0-1,.15,8.44,8.44,0,0,0-.88.34l-.44-1A5.05,5.05,0,0,1,64,84.68a5.74,5.74,0,0,1,1.19-.14,2.79,2.79,0,0,1,1.86.54,2.1,2.1,0,0,1,.63,1.69v4.37Zm-2-.94a1.69,1.69,0,0,0,1.2-.42,1.54,1.54,0,0,0,.46-1.18V88l-.84,0a2.81,2.81,0,0,0-1.41.32,1,1,0,0,0-.44.89.87.87,0,0,0,.25.67A1.12,1.12,0,0,0,64.66,90.2Z"/><path class="cls-4" d="M76,91.25a2.26,2.26,0,0,1-1.91-.88H74c0,.55.08.88.08,1V94H72.73V84.66h1.11c0,.12.1.41.2.86h.07a2.16,2.16,0,0,1,1.93-1,2.24,2.24,0,0,1,1.89.88,4.8,4.8,0,0,1,0,4.94A2.25,2.25,0,0,1,76,91.25Zm-.34-5.59a1.42,1.42,0,0,0-1.19.48,2.46,2.46,0,0,0-.38,1.54v.2a3.07,3.07,0,0,0,.37,1.72,1.41,1.41,0,0,0,1.23.53,1.26,1.26,0,0,0,1.1-.59,3,3,0,0,0,.39-1.67,2.92,2.92,0,0,0-.39-1.65A1.28,1.28,0,0,0,75.68,85.66Z"/><path class="cls-4" d="M83.5,84.54a3.23,3.23,0,0,1,.68.06l-.13,1.28a2.48,2.48,0,0,0-.61-.07,1.76,1.76,0,0,0-1.34.54,2,2,0,0,0-.52,1.4v3.39H80.21V84.66h1.08l.18,1.14h.07a2.41,2.41,0,0,1,.84-.92A2,2,0,0,1,83.5,84.54Z"/><path class="cls-4" d="M85.3,82.94a.77.77,0,0,1,.2-.57.82.82,0,0,1,.58-.2.77.77,0,0,1,.56.2.74.74,0,0,1,.21.57.71.71,0,0,1-.77.75.77.77,0,0,1-.58-.2A.76.76,0,0,1,85.3,82.94Zm1.46,8.2H85.38V84.66h1.38Z"/><path class="cls-4" d="M94.19,91.14H92.81v-4A1.78,1.78,0,0,0,92.52,86a1,1,0,0,0-.87-.37,1.34,1.34,0,0,0-1.17.52,3,3,0,0,0-.38,1.73v3.23H88.73V84.66h1.08l.19.84h.07a1.86,1.86,0,0,1,.78-.71A2.5,2.5,0,0,1,92,84.54a2,2,0,0,1,2,1h.09a2,2,0,0,1,.81-.75,2.59,2.59,0,0,1,1.2-.27,2.19,2.19,0,0,1,1.69.58,2.62,2.62,0,0,1,.53,1.79v4.23H96.9v-4A1.78,1.78,0,0,0,96.62,86a1.07,1.07,0,0,0-.88-.37,1.38,1.38,0,0,0-1.18.5,2.59,2.59,0,0,0-.37,1.54Z"/><path class="cls-4" d="M104.25,91.14l-.27-.91h0A2.54,2.54,0,0,1,103,91a3,3,0,0,1-1.22.21,2.07,2.07,0,0,1-1.49-.51,1.93,1.93,0,0,1-.54-1.46,1.7,1.7,0,0,1,.75-1.51,4.24,4.24,0,0,1,2.26-.56l1.12,0v-.34a1.3,1.3,0,0,0-.29-.93,1.19,1.19,0,0,0-.9-.31,3,3,0,0,0-1,.15,7.65,7.65,0,0,0-.88.34l-.44-1a5.05,5.05,0,0,1,1.15-.42,5.65,5.65,0,0,1,1.18-.14,2.8,2.8,0,0,1,1.87.54,2.1,2.1,0,0,1,.63,1.69v4.37Zm-2-.94a1.71,1.71,0,0,0,1.21-.42,1.53,1.53,0,0,0,.45-1.18V88l-.83,0a2.81,2.81,0,0,0-1.41.32,1,1,0,0,0-.45.89.87.87,0,0,0,.26.67A1.09,1.09,0,0,0,102.2,90.2Z"/><circle class="cls-3" cx="64.63" cy="44.4" r="14.22"/><path class="cls-4" d="M67.57,50.46H64.12V43.81c0-.81,0-1.55,0-2.22a6.58,6.58,0,0,1-.79.81L62,43.58,60.2,41.41l4.31-3.51h3.06Z"/><rect class="cls-5" x="14.08" y="98.16" width="101.1" height="1.33"/><rect class="cls-2" x="158" y="41.63" width="123" height="76" rx="12"/><circle class="cls-3" cx="219.5" cy="44.4" r="14.22"/><path class="cls-4" d="M224,50.46h-9.12V48.23l3.07-3.11c.87-.91,1.45-1.54,1.72-1.87a4.9,4.9,0,0,0,.56-.87,1.94,1.94,0,0,0,.16-.75,1,1,0,0,0-.32-.78,1.28,1.28,0,0,0-.89-.28,2.38,2.38,0,0,0-1.2.34,8.62,8.62,0,0,0-1.37,1l-1.87-2.18a9.74,9.74,0,0,1,1.64-1.24,5.77,5.77,0,0,1,1.43-.57,6.79,6.79,0,0,1,1.75-.2,5.21,5.21,0,0,1,2.18.43,3.35,3.35,0,0,1,1.49,1.22,3.18,3.18,0,0,1,.53,1.78,4.93,4.93,0,0,1-.19,1.37,4.55,4.55,0,0,1-.57,1.23A8.37,8.37,0,0,1,222,45c-.42.45-1.33,1.29-2.73,2.54v.09H224Z"/><path class="cls-4" d="M195,77.27V68.7h1.4v7.37h3.63v1.2Z"/><path class="cls-4" d="M205.44,77.27l-.27-.9h0a2.68,2.68,0,0,1-.94.8,3.07,3.07,0,0,1-1.22.21,2.06,2.06,0,0,1-1.49-.51,1.92,1.92,0,0,1-.54-1.46,1.72,1.72,0,0,1,.74-1.51,4.31,4.31,0,0,1,2.27-.56l1.12,0V73a1.35,1.35,0,0,0-.29-.93,1.19,1.19,0,0,0-.9-.31,3,3,0,0,0-1,.15,6.2,6.2,0,0,0-.88.35l-.45-1a5.14,5.14,0,0,1,1.16-.42,5.65,5.65,0,0,1,1.18-.14,2.82,2.82,0,0,1,1.87.54,2.1,2.1,0,0,1,.63,1.69v4.37Zm-2.05-.94a1.73,1.73,0,0,0,1.21-.42,1.52,1.52,0,0,0,.45-1.17v-.57l-.83,0a2.89,2.89,0,0,0-1.42.32,1,1,0,0,0-.44.89.87.87,0,0,0,.26.67A1.09,1.09,0,0,0,203.39,76.33Z"/><path class="cls-4" d="M209.83,77.27l-2.47-6.48h1.46l1.32,3.76a8.34,8.34,0,0,1,.41,1.54h0a11.05,11.05,0,0,1,.41-1.54l1.32-3.76h1.47l-2.48,6.48Z"/><path class="cls-4" d="M218.83,77.27l-.28-.9h-.05a2.59,2.59,0,0,1-.94.8,3,3,0,0,1-1.22.21,2.07,2.07,0,0,1-1.49-.51,1.92,1.92,0,0,1-.54-1.46,1.7,1.7,0,0,1,.75-1.51,4.26,4.26,0,0,1,2.27-.56l1.11,0V73a1.3,1.3,0,0,0-.29-.93,1.19,1.19,0,0,0-.9-.31,3,3,0,0,0-.95.15,6.72,6.72,0,0,0-.88.35l-.44-1a5.05,5.05,0,0,1,1.15-.42,5.65,5.65,0,0,1,1.18-.14,2.8,2.8,0,0,1,1.87.54,2.1,2.1,0,0,1,.63,1.69v4.37Zm-2.06-.94a1.71,1.71,0,0,0,1.21-.42,1.52,1.52,0,0,0,.45-1.17v-.57l-.83,0a2.81,2.81,0,0,0-1.41.32,1,1,0,0,0-.45.89.87.87,0,0,0,.26.67A1.09,1.09,0,0,0,216.77,76.33Z"/><path class="cls-4" d="M223.92,77.38a2.29,2.29,0,0,1-1.9-.87,4.81,4.81,0,0,1,0-5,2.3,2.3,0,0,1,1.91-.89,2.24,2.24,0,0,1,1.95.94H226a7.62,7.62,0,0,1-.1-1.1V68.15h1.38v9.12h-1.08l-.24-.85h-.06A2.21,2.21,0,0,1,223.92,77.38Zm.37-1.11a1.49,1.49,0,0,0,1.23-.48,2.49,2.49,0,0,0,.4-1.55v-.19a2.86,2.86,0,0,0-.4-1.74,1.48,1.48,0,0,0-1.25-.52,1.26,1.26,0,0,0-1.11.59,3.75,3.75,0,0,0,0,3.33A1.31,1.31,0,0,0,224.29,76.27Z"/><path class="cls-4" d="M235,74a3.54,3.54,0,0,1-.82,2.47,2.9,2.9,0,0,1-2.27.89,3,3,0,0,1-1.6-.41,2.64,2.64,0,0,1-1.07-1.17,4,4,0,0,1-.38-1.78,3.52,3.52,0,0,1,.81-2.47,2.93,2.93,0,0,1,2.28-.88,2.84,2.84,0,0,1,2.23.91A3.51,3.51,0,0,1,235,74Zm-4.72,0c0,1.49.55,2.24,1.66,2.24s1.64-.75,1.64-2.24-.55-2.23-1.65-2.23a1.42,1.42,0,0,0-1.26.58A2.92,2.92,0,0,0,230.24,74Z"/><path class="cls-4" d="M238.67,70.79h1.5l1.32,3.67a7.14,7.14,0,0,1,.4,1.48h0a5.62,5.62,0,0,1,.2-.78c.09-.31.59-1.77,1.49-4.37h1.48l-2.77,7.34a2.62,2.62,0,0,1-2.52,2,3.8,3.8,0,0,1-.89-.1V79a3.11,3.11,0,0,0,.71.07,1.44,1.44,0,0,0,1.4-1.15l.24-.61Z"/><path class="cls-4" d="M186.35,91.78a2.26,2.26,0,0,1-1.89-.87,4.81,4.81,0,0,1,0-5,2.28,2.28,0,0,1,1.91-.89,2.22,2.22,0,0,1,1.94.94h.07a9.4,9.4,0,0,1-.1-1.1V82.55h1.38v9.12H188.6l-.24-.85h-.07A2.21,2.21,0,0,1,186.35,91.78Zm.37-1.11a1.5,1.5,0,0,0,1.24-.48,2.49,2.49,0,0,0,.4-1.55v-.19a2.93,2.93,0,0,0-.4-1.74,1.5,1.5,0,0,0-1.25-.52,1.28,1.28,0,0,0-1.12.59,3.07,3.07,0,0,0-.39,1.68,3,3,0,0,0,.38,1.65A1.29,1.29,0,0,0,186.72,90.67Z"/><path class="cls-4" d="M194.47,91.78a3.13,3.13,0,0,1-2.36-.88,3.35,3.35,0,0,1-.85-2.43,3.65,3.65,0,0,1,.79-2.49,2.72,2.72,0,0,1,2.17-.91,2.67,2.67,0,0,1,2,.78A3,3,0,0,1,197,88v.75h-4.32a2.13,2.13,0,0,0,.51,1.45,1.78,1.78,0,0,0,1.36.5,5.19,5.19,0,0,0,1.07-.1,7,7,0,0,0,1.06-.36v1.11a4,4,0,0,1-1,.34A5.9,5.9,0,0,1,194.47,91.78Zm-.25-5.67a1.36,1.36,0,0,0-1.05.42,2,2,0,0,0-.47,1.21h2.94a1.79,1.79,0,0,0-.39-1.21A1.31,1.31,0,0,0,194.22,86.11Z"/><path class="cls-4" d="M202.91,89.82a1.71,1.71,0,0,1-.69,1.46,3.29,3.29,0,0,1-2,.5,4.7,4.7,0,0,1-2.08-.39V90.2a5.13,5.13,0,0,0,2.13.53c.84,0,1.27-.26,1.27-.77a.64.64,0,0,0-.14-.41,1.78,1.78,0,0,0-.47-.34,7.38,7.38,0,0,0-.89-.4,4.21,4.21,0,0,1-1.52-.86,1.63,1.63,0,0,1-.39-1.13,1.48,1.48,0,0,1,.67-1.29,3.14,3.14,0,0,1,1.82-.46,5.15,5.15,0,0,1,2.17.46l-.45,1a4.79,4.79,0,0,0-1.76-.43c-.73,0-1.09.2-1.09.62a.61.61,0,0,0,.28.51,5.88,5.88,0,0,0,1.24.58,6.06,6.06,0,0,1,1.17.57,1.7,1.7,0,0,1,.54.6A1.78,1.78,0,0,1,202.91,89.82Z"/><path class="cls-4" d="M204.32,83.47a.74.74,0,0,1,.2-.57.8.8,0,0,1,.58-.2.77.77,0,0,1,.56.2.74.74,0,0,1,.2.57.72.72,0,0,1-.2.55.73.73,0,0,1-.56.21.76.76,0,0,1-.58-.21A.72.72,0,0,1,204.32,83.47Zm1.46,8.2H204.4V85.19h1.38Z"/><path class="cls-4" d="M213.45,91.67h-1.39v-4a1.76,1.76,0,0,0-.3-1.12,1.19,1.19,0,0,0-1-.37,1.52,1.52,0,0,0-1.27.52,2.83,2.83,0,0,0-.41,1.73v3.23h-1.37V85.19h1.07l.2.85h.07a1.89,1.89,0,0,1,.83-.72,2.76,2.76,0,0,1,1.19-.25,2.08,2.08,0,0,1,2.34,2.37Z"/><path class="cls-4" d="M218.61,86.23H217v5.44h-1.38V86.23h-1.07v-.65l1.07-.42v-.42a2.36,2.36,0,0,1,.54-1.7,2.2,2.2,0,0,1,1.64-.55,4.34,4.34,0,0,1,1.43.24l-.36,1a3.15,3.15,0,0,0-1-.17.8.8,0,0,0-.68.29,1.43,1.43,0,0,0-.22.87v.43h1.58Z"/><path class="cls-4" d="M222.55,91.78a3.14,3.14,0,0,1-2.37-.88,3.35,3.35,0,0,1-.85-2.43,3.65,3.65,0,0,1,.79-2.49,2.72,2.72,0,0,1,2.17-.91,2.66,2.66,0,0,1,2,.78,3,3,0,0,1,.75,2.14v.75h-4.32a2.13,2.13,0,0,0,.51,1.45,1.76,1.76,0,0,0,1.35.5,5.19,5.19,0,0,0,1.07-.1,7,7,0,0,0,1.06-.36v1.11a3.83,3.83,0,0,1-1,.34A5.87,5.87,0,0,1,222.55,91.78Zm-.26-5.67a1.39,1.39,0,0,0-1,.42,2,2,0,0,0-.47,1.21h2.94a1.79,1.79,0,0,0-.38-1.21A1.33,1.33,0,0,0,222.29,86.11Z"/><path class="cls-4" d="M229.24,91.78a2.83,2.83,0,0,1-2.23-.85,4.34,4.34,0,0,1,0-5,3,3,0,0,1,2.31-.88,4.4,4.4,0,0,1,1.85.38l-.42,1.11a4.07,4.07,0,0,0-1.44-.34c-1.12,0-1.68.74-1.68,2.23a2.68,2.68,0,0,0,.42,1.64,1.47,1.47,0,0,0,1.23.55,3.59,3.59,0,0,0,1.74-.46v1.2a2.83,2.83,0,0,1-.79.31A5,5,0,0,1,229.24,91.78Z"/><path class="cls-4" d="M235.18,91.78a2.83,2.83,0,0,1-2.23-.85,4.34,4.34,0,0,1,0-5,3,3,0,0,1,2.32-.88,4.39,4.39,0,0,1,1.84.38l-.41,1.11a4.17,4.17,0,0,0-1.45-.34c-1.12,0-1.68.74-1.68,2.23a2.68,2.68,0,0,0,.42,1.64,1.47,1.47,0,0,0,1.23.55,3.59,3.59,0,0,0,1.74-.46v1.2a2.83,2.83,0,0,1-.79.31A5,5,0,0,1,235.18,91.78Z"/><path class="cls-4" d="M238.43,83.47a.77.77,0,0,1,.2-.57.82.82,0,0,1,.58-.2.81.81,0,0,1,.57.2.77.77,0,0,1,.2.57.76.76,0,0,1-.2.55.77.77,0,0,1-.57.21.78.78,0,0,1-.58-.21A.76.76,0,0,1,238.43,83.47Zm1.46,8.2h-1.38V85.19h1.38Z"/><path class="cls-4" d="M247.61,88.42a3.54,3.54,0,0,1-.82,2.47,2.9,2.9,0,0,1-2.27.89,3,3,0,0,1-1.6-.41,2.64,2.64,0,0,1-1.07-1.17,4,4,0,0,1-.38-1.78,3.52,3.52,0,0,1,.81-2.47,2.93,2.93,0,0,1,2.28-.88,2.87,2.87,0,0,1,2.23.9A3.55,3.55,0,0,1,247.61,88.42Zm-4.72,0c0,1.49.55,2.24,1.66,2.24s1.64-.75,1.64-2.24-.55-2.23-1.65-2.23a1.42,1.42,0,0,0-1.26.58A2.92,2.92,0,0,0,242.89,88.42Zm.76-4v-.15c.22-.27.45-.58.68-.92a8.08,8.08,0,0,0,.56-.86h1.6v.13a12.47,12.47,0,0,1-.91.92,11.88,11.88,0,0,1-1,.88Z"/><path class="cls-4" d="M254.89,91.67h-1.38v-4a1.76,1.76,0,0,0-.3-1.12,1.21,1.21,0,0,0-1-.37,1.55,1.55,0,0,0-1.28.52,2.84,2.84,0,0,0-.4,1.73v3.23h-1.38V85.19h1.08l.19.85h.07a2,2,0,0,1,.83-.72,2.77,2.77,0,0,1,1.2-.25,2.08,2.08,0,0,1,2.33,2.37Z"/><rect class="cls-5" x="168.95" y="98.16" width="101.1" height="1.33"/><rect class="cls-2" x="312.87" y="41.63" width="123" height="76" rx="12"/><circle class="cls-3" cx="374.37" cy="44.4" r="14.22"/><path class="cls-4" d="M378.44,40.62a3,3,0,0,1-.72,2,4,4,0,0,1-2.06,1.21v.06q3.15.39,3.15,3a3.24,3.24,0,0,1-1.39,2.76,6.47,6.47,0,0,1-3.85,1,12.1,12.1,0,0,1-1.88-.14,9.81,9.81,0,0,1-1.87-.54V47.13a7.3,7.3,0,0,0,1.68.63,7.12,7.12,0,0,0,1.58.2,3.31,3.31,0,0,0,1.62-.31,1.24,1.24,0,0,0,.25-1.78,1.65,1.65,0,0,0-.86-.42,6.53,6.53,0,0,0-1.55-.15h-.77V42.75h.79c1.72,0,2.59-.44,2.59-1.32a.81.81,0,0,0-.39-.74,1.88,1.88,0,0,0-1-.24,4.67,4.67,0,0,0-2.49.81L369.84,39a6.59,6.59,0,0,1,2-1,8.65,8.65,0,0,1,2.39-.29,5.25,5.25,0,0,1,3.06.77A2.47,2.47,0,0,1,378.44,40.62Z"/><path class="cls-4" d="M361.47,83a2.5,2.5,0,0,1-.88,2.06,3.9,3.9,0,0,1-2.5.71h-.89V89h-1.4V80.45h2.47a3.7,3.7,0,0,1,2.4.66A2.35,2.35,0,0,1,361.47,83Zm-4.27,1.59h.74a2.7,2.7,0,0,0,1.59-.37,1.38,1.38,0,0,0,.5-1.17,1.35,1.35,0,0,0-.45-1.11,2.25,2.25,0,0,0-1.41-.36h-1Z"/><path class="cls-4" d="M365.87,89.13a3.14,3.14,0,0,1-2.37-.88,3.35,3.35,0,0,1-.85-2.43,3.63,3.63,0,0,1,.79-2.49,2.72,2.72,0,0,1,2.17-.91,2.67,2.67,0,0,1,2,.78,3,3,0,0,1,.74,2.14v.75h-4.31a2.15,2.15,0,0,0,.51,1.45,1.8,1.8,0,0,0,1.35.5,4.57,4.57,0,0,0,1.07-.11,5.31,5.31,0,0,0,1.06-.36v1.12a3.83,3.83,0,0,1-1,.34A5.87,5.87,0,0,1,365.87,89.13Zm-.26-5.67a1.39,1.39,0,0,0-1.05.42,2,2,0,0,0-.47,1.21H367a1.82,1.82,0,0,0-.39-1.22A1.33,1.33,0,0,0,365.61,83.46Z"/><path class="cls-4" d="M371.33,89H370V79.9h1.38Z"/><path class="cls-4" d="M377.35,89l-.28-.91h0a2.64,2.64,0,0,1-.95.81,3,3,0,0,1-1.21.21,2.1,2.1,0,0,1-1.5-.51,2,2,0,0,1-.53-1.46,1.72,1.72,0,0,1,.74-1.51,4.28,4.28,0,0,1,2.27-.56l1.12,0v-.34a1.33,1.33,0,0,0-.29-.93,1.19,1.19,0,0,0-.9-.31,3.11,3.11,0,0,0-1,.15A8.26,8.26,0,0,0,374,84l-.45-1a5.24,5.24,0,0,1,1.15-.42,5.74,5.74,0,0,1,1.19-.14,2.79,2.79,0,0,1,1.86.54,2.1,2.1,0,0,1,.63,1.69V89Zm-2.05-.94a1.69,1.69,0,0,0,1.2-.42,1.5,1.5,0,0,0,.46-1.18v-.56l-.83,0a2.86,2.86,0,0,0-1.42.32,1,1,0,0,0-.44.89.84.84,0,0,0,.26.67A1.09,1.09,0,0,0,375.3,88.08Z"/><path class="cls-4" d="M382.44,89.13a2.24,2.24,0,0,1-1.89-.88,4.8,4.8,0,0,1,0-4.94,2.48,2.48,0,0,1,3.85,0h.07a7.62,7.62,0,0,1-.1-1.1V79.9h1.38V89h-1.07l-.24-.85h-.07A2.21,2.21,0,0,1,382.44,89.13Zm.37-1.11a1.5,1.5,0,0,0,1.24-.48,2.57,2.57,0,0,0,.4-1.55V85.8a2.93,2.93,0,0,0-.4-1.74,1.47,1.47,0,0,0-1.25-.52,1.27,1.27,0,0,0-1.12.59,3,3,0,0,0-.39,1.68,2.86,2.86,0,0,0,.38,1.64A1.27,1.27,0,0,0,382.81,88Z"/><path class="cls-4" d="M393.48,85.76a3.54,3.54,0,0,1-.81,2.48,2.91,2.91,0,0,1-2.27.89,3.06,3.06,0,0,1-1.61-.41,2.67,2.67,0,0,1-1.07-1.18,4,4,0,0,1-.37-1.78,3.55,3.55,0,0,1,.8-2.46,2.93,2.93,0,0,1,2.28-.88,2.87,2.87,0,0,1,2.23.9A3.5,3.5,0,0,1,393.48,85.76Zm-4.72,0c0,1.5.56,2.25,1.66,2.25s1.64-.75,1.64-2.25-.55-2.22-1.65-2.22a1.4,1.4,0,0,0-1.26.58A2.9,2.9,0,0,0,388.76,85.76Z"/><rect class="cls-5" x="323.82" y="98.16" width="101.1" height="1.33"/><path class="cls-6" d="M154.85,79.1l-8,5.9a.38.38,0,0,1-.6-.33l.19-2.74a.38.38,0,0,0-.38-.4H129.51a.38.38,0,0,1-.38-.38V76.44a.38.38,0,0,1,.38-.38H146.1a.37.37,0,0,0,.38-.4l-.19-2.74a.38.38,0,0,1,.6-.33l8,5.9A.39.39,0,0,1,154.85,79.1Z"/><path class="cls-6" d="M309.72,79.1l-8,5.9a.38.38,0,0,1-.6-.33l.19-2.74a.38.38,0,0,0-.37-.4h-16.6a.38.38,0,0,1-.38-.38V76.44a.38.38,0,0,1,.38-.38H301a.37.37,0,0,0,.37-.4l-.19-2.74a.38.38,0,0,1,.6-.33l8,5.9A.39.39,0,0,1,309.72,79.1Z"/><path class="cls-6" d="M374.07,154.49l-5.9-8a.38.38,0,0,1,.33-.6l2.73.19a.38.38,0,0,0,.41-.38V129.15a.38.38,0,0,1,.38-.38h4.71a.38.38,0,0,1,.38.38v16.59a.37.37,0,0,0,.4.38l2.74-.19a.38.38,0,0,1,.33.6l-5.9,8A.39.39,0,0,1,374.07,154.49Z"/><path class="cls-6" d="M64.33,285.75l-5.9-8a.37.37,0,0,1,.33-.6l2.73.19a.37.37,0,0,0,.41-.37v-16.6a.38.38,0,0,1,.37-.38H67a.38.38,0,0,1,.38.38V277a.37.37,0,0,0,.4.37l2.74-.19a.38.38,0,0,1,.33.6l-5.91,8A.36.36,0,0,1,64.33,285.75Z"/><path class="cls-6" d="M374.07,417.7l-5.9-8a.38.38,0,0,1,.33-.6l2.73.19a.37.37,0,0,0,.41-.37v-16.6A.38.38,0,0,1,372,392h4.71a.38.38,0,0,1,.38.38V409a.37.37,0,0,0,.4.37l2.74-.19a.38.38,0,0,1,.33.6l-5.9,8A.37.37,0,0,1,374.07,417.7Z"/><path class="cls-6" d="M154.85,344.86l-8,5.9a.38.38,0,0,1-.6-.33l.19-2.74a.37.37,0,0,0-.38-.4H129.51a.38.38,0,0,1-.38-.38V342.2a.38.38,0,0,1,.38-.38H146.1a.38.38,0,0,0,.38-.4l-.19-2.74a.38.38,0,0,1,.6-.33l8,5.9A.39.39,0,0,1,154.85,344.86Z"/><path class="cls-6" d="M309.72,344.86l-8,5.9a.38.38,0,0,1-.6-.33l.19-2.74a.37.37,0,0,0-.37-.4h-16.6a.38.38,0,0,1-.38-.38V342.2a.38.38,0,0,1,.38-.38H301a.38.38,0,0,0,.37-.4l-.19-2.74a.38.38,0,0,1,.6-.33l8,5.9A.39.39,0,0,1,309.72,344.86Z"/><path class="cls-6" d="M129.28,208.34l8-5.9a.38.38,0,0,1,.6.33l-.19,2.74a.38.38,0,0,0,.38.4h16.59a.38.38,0,0,1,.38.38V211a.38.38,0,0,1-.38.38H138a.39.39,0,0,0-.38.41l.19,2.73a.38.38,0,0,1-.6.33l-8-5.9A.39.39,0,0,1,129.28,208.34Z"/><path class="cls-6" d="M284.15,208.34l8-5.9a.38.38,0,0,1,.6.33l-.19,2.74a.38.38,0,0,0,.38.4h16.6a.38.38,0,0,1,.37.38V211a.38.38,0,0,1-.37.38H292.9a.39.39,0,0,0-.38.41l.19,2.73a.38.38,0,0,1-.6.33l-8-5.9A.39.39,0,0,1,284.15,208.34Z"/><rect class="cls-2" x="312.87" y="177.23" width="123" height="76" rx="12"/><circle class="cls-3" cx="374.37" cy="180.01" r="14.22"/><path class="cls-4" d="M379.26,183.63h-1.38v2.44h-3.35v-2.44h-5v-2.49l5.22-7.64h3.14v7.6h1.38Zm-4.73-2.53v-1.46q0-.42,0-1.11a4.81,4.81,0,0,1,.05-.74h-.1a8.12,8.12,0,0,1-.66,1.24l-1.39,2.07Z"/><rect class="cls-5" x="323.82" y="233.76" width="101.1" height="1.33"/><path class="cls-4" d="M346,224.62v-8.56h1.4v8.56Z"/><path class="cls-4" d="M355.23,224.62h-1.38v-4a1.74,1.74,0,0,0-.3-1.12,1.15,1.15,0,0,0-1-.37,1.52,1.52,0,0,0-1.28.52,2.81,2.81,0,0,0-.4,1.72v3.23h-1.38v-6.48h1.08l.19.85h.07a1.89,1.89,0,0,1,.84-.71,2.73,2.73,0,0,1,1.19-.26,2.08,2.08,0,0,1,2.33,2.38Z"/><path class="cls-4" d="M362.61,224.62h-1.38v-4a1.85,1.85,0,0,0-.28-1.11,1,1,0,0,0-.88-.37,1.34,1.34,0,0,0-1.17.52,3,3,0,0,0-.37,1.72v3.23h-1.38v-6.48h1.08l.19.85h.07a1.74,1.74,0,0,1,.78-.71,2.54,2.54,0,0,1,1.13-.26,2,2,0,0,1,2,1h.1a2,2,0,0,1,.8-.75,2.59,2.59,0,0,1,1.2-.27,2.18,2.18,0,0,1,1.69.59,2.62,2.62,0,0,1,.53,1.79v4.22h-1.38v-4a1.78,1.78,0,0,0-.28-1.11,1,1,0,0,0-.88-.37,1.38,1.38,0,0,0-1.18.5,2.57,2.57,0,0,0-.37,1.54Z"/><path class="cls-4" d="M371.45,224.74a3.12,3.12,0,0,1-2.36-.88,3.35,3.35,0,0,1-.85-2.43,3.68,3.68,0,0,1,.79-2.5,2.74,2.74,0,0,1,2.17-.91,2.67,2.67,0,0,1,2,.78A3,3,0,0,1,374,221v.74h-4.32a2.13,2.13,0,0,0,.51,1.45,1.77,1.77,0,0,0,1.36.51,5.17,5.17,0,0,0,1.07-.11,5.31,5.31,0,0,0,1.06-.36v1.12a4.53,4.53,0,0,1-1,.34A6,6,0,0,1,371.45,224.74Zm-.25-5.67a1.39,1.39,0,0,0-1.05.41,2,2,0,0,0-.47,1.22h2.94a1.82,1.82,0,0,0-.39-1.22A1.33,1.33,0,0,0,371.2,219.07Z"/><path class="cls-4" d="M378.82,218a3.27,3.27,0,0,1,.69.06l-.14,1.29a2.37,2.37,0,0,0-.61-.07,1.77,1.77,0,0,0-1.33.53,1.93,1.93,0,0,0-.52,1.41v3.38h-1.37v-6.48h1.07l.19,1.14h.07a2.57,2.57,0,0,1,.84-.92A2,2,0,0,1,378.82,218Z"/><path class="cls-4" d="M385.06,222.78a1.69,1.69,0,0,1-.69,1.45,3.29,3.29,0,0,1-2,.51,4.7,4.7,0,0,1-2.08-.39v-1.19a5.11,5.11,0,0,0,2.13.52c.85,0,1.27-.25,1.27-.76a.62.62,0,0,0-.14-.41,1.52,1.52,0,0,0-.46-.34,8.49,8.49,0,0,0-.9-.4,4,4,0,0,1-1.51-.87,1.57,1.57,0,0,1-.4-1.12,1.48,1.48,0,0,1,.67-1.3,3.26,3.26,0,0,1,1.83-.46,5.15,5.15,0,0,1,2.16.47l-.45,1a5,5,0,0,0-1.76-.43c-.73,0-1.09.21-1.09.62a.62.62,0,0,0,.28.52,6.79,6.79,0,0,0,1.24.58,4.87,4.87,0,0,1,1.17.57,1.76,1.76,0,0,1,.54.59A1.83,1.83,0,0,1,385.06,222.78Z"/><path class="cls-4" d="M386.47,216.42a.77.77,0,0,1,.2-.56.77.77,0,0,1,.58-.2.71.71,0,0,1,.77.76.75.75,0,0,1-.21.56.77.77,0,0,1-.56.2.82.82,0,0,1-.58-.2A.78.78,0,0,1,386.47,216.42Zm1.46,8.2h-1.38v-6.48h1.38Z"/><path class="cls-4" d="M395.65,221.37a3.57,3.57,0,0,1-.82,2.48,2.93,2.93,0,0,1-2.27.89,3.12,3.12,0,0,1-1.6-.41,2.67,2.67,0,0,1-1.07-1.18,4,4,0,0,1-.38-1.78,3.51,3.51,0,0,1,.81-2.46,2.94,2.94,0,0,1,2.28-.89,2.88,2.88,0,0,1,2.23.91A3.53,3.53,0,0,1,395.65,221.37Zm-4.72,0c0,1.5.55,2.24,1.66,2.24s1.64-.74,1.64-2.24-.55-2.22-1.65-2.22a1.42,1.42,0,0,0-1.26.57A3,3,0,0,0,390.93,221.37Zm.75-4v-.15a10.27,10.27,0,0,0,.69-.91,9.24,9.24,0,0,0,.56-.86h1.6v.12a9.47,9.47,0,0,1-.91.92,11.88,11.88,0,0,1-1,.88Z"/><path class="cls-4" d="M402.93,224.62h-1.38v-4a1.68,1.68,0,0,0-.31-1.12,1.15,1.15,0,0,0-.95-.37,1.5,1.5,0,0,0-1.28.52,2.8,2.8,0,0,0-.41,1.72v3.23h-1.37v-6.48h1.08l.19.85h.07a1.81,1.81,0,0,1,.83-.71,2.78,2.78,0,0,1,1.2-.26,2.09,2.09,0,0,1,2.33,2.38Z"/><rect class="cls-2" x="158" y="175.59" width="123" height="76" rx="12"/><circle class="cls-3" cx="219.5" cy="178.37" r="14.22"/><path class="cls-4" d="M220.05,176.2a3.84,3.84,0,0,1,2,.5,3.43,3.43,0,0,1,1.35,1.42,4.39,4.39,0,0,1,.49,2.12,4.07,4.07,0,0,1-1.27,3.23,5.62,5.62,0,0,1-3.83,1.13,8.28,8.28,0,0,1-3.6-.68v-2.78a8.37,8.37,0,0,0,1.69.56,7.21,7.21,0,0,0,1.62.23,2.32,2.32,0,0,0,1.45-.4,1.41,1.41,0,0,0,.51-1.18,1.37,1.37,0,0,0-.51-1.13,2.54,2.54,0,0,0-1.57-.4,5.67,5.67,0,0,0-1.73.3l-1.24-.62.47-6.63H223v2.82h-4.28l-.16,1.66a7.22,7.22,0,0,1,1-.14Z"/><rect class="cls-5" x="168.95" y="232.13" width="101.1" height="1.33"/><path class="cls-4" d="M196.63,208.88h-1.4v-7.36h-2.52v-1.2h6.44v1.2h-2.52Z"/><path class="cls-4" d="M203.6,202.29a3.27,3.27,0,0,1,.69.06l-.13,1.28a2.48,2.48,0,0,0-.61-.07,1.76,1.76,0,0,0-1.34.54,2,2,0,0,0-.52,1.4v3.38h-1.37V202.4h1.08l.18,1.15h.07a2.41,2.41,0,0,1,.84-.92A2,2,0,0,1,203.6,202.29Z"/><path class="cls-4" d="M211.24,205.63a3.5,3.5,0,0,1-.82,2.48,2.87,2.87,0,0,1-2.26.89,3.06,3.06,0,0,1-1.61-.41,2.67,2.67,0,0,1-1.07-1.18,4,4,0,0,1-.38-1.78,3.51,3.51,0,0,1,.81-2.46,2.93,2.93,0,0,1,2.28-.88,2.87,2.87,0,0,1,2.23.9A3.5,3.5,0,0,1,211.24,205.63Zm-4.72,0c0,1.5.56,2.25,1.66,2.25s1.64-.75,1.64-2.25-.55-2.22-1.65-2.22a1.4,1.4,0,0,0-1.26.58A2.9,2.9,0,0,0,206.52,205.63Z"/><path class="cls-4" d="M215.43,209a2.8,2.8,0,0,1-2.23-.86,4.33,4.33,0,0,1,0-5,3,3,0,0,1,2.32-.88,4.24,4.24,0,0,1,1.84.38l-.41,1.11a4.17,4.17,0,0,0-1.45-.34c-1.12,0-1.68.74-1.68,2.23a2.7,2.7,0,0,0,.42,1.64,1.46,1.46,0,0,0,1.23.54,3.58,3.58,0,0,0,1.74-.45v1.2a2.83,2.83,0,0,1-.79.31A5,5,0,0,1,215.43,209Z"/><path class="cls-4" d="M221.59,209a3.12,3.12,0,0,1-2.36-.88,3.35,3.35,0,0,1-.85-2.43,3.63,3.63,0,0,1,.79-2.49,2.7,2.7,0,0,1,2.17-.91,2.67,2.67,0,0,1,2,.78,3,3,0,0,1,.74,2.14V206h-4.32a2.15,2.15,0,0,0,.51,1.45,1.82,1.82,0,0,0,1.36.5,4.57,4.57,0,0,0,1.07-.11,5.31,5.31,0,0,0,1.06-.36v1.12a4.08,4.08,0,0,1-1,.34A6,6,0,0,1,221.59,209Zm-.25-5.67a1.36,1.36,0,0,0-1.05.42,2,2,0,0,0-.47,1.21h2.94a1.82,1.82,0,0,0-.39-1.22A1.33,1.33,0,0,0,221.34,203.33Z"/><path class="cls-4" d="M229.73,208.88l-.27-.9h-.05a2.62,2.62,0,0,1-.94.81,3.07,3.07,0,0,1-1.22.21,2.06,2.06,0,0,1-1.49-.51,1.93,1.93,0,0,1-.54-1.46,1.72,1.72,0,0,1,.74-1.51,4.31,4.31,0,0,1,2.27-.56l1.12,0v-.34a1.31,1.31,0,0,0-.29-.93,1.16,1.16,0,0,0-.9-.31,3,3,0,0,0-.95.15,7.65,7.65,0,0,0-.88.34l-.45-1a5.14,5.14,0,0,1,1.16-.42,5,5,0,0,1,1.18-.14,2.82,2.82,0,0,1,1.87.54,2.1,2.1,0,0,1,.63,1.69v4.36Zm-2-.93a1.69,1.69,0,0,0,1.2-.42,1.5,1.5,0,0,0,.46-1.18v-.56l-.83,0a2.89,2.89,0,0,0-1.42.32,1,1,0,0,0-.44.89.87.87,0,0,0,.26.67A1.09,1.09,0,0,0,227.68,208Z"/><path class="cls-4" d="M234.82,209a2.24,2.24,0,0,1-1.89-.88,4.81,4.81,0,0,1,0-5,2.27,2.27,0,0,1,1.91-.88,2.22,2.22,0,0,1,1.94.94h.07a9.4,9.4,0,0,1-.1-1.1v-2.36h1.39v9.11h-1.08l-.24-.84h-.07A2.21,2.21,0,0,1,234.82,209Zm.37-1.11a1.5,1.5,0,0,0,1.24-.48,2.51,2.51,0,0,0,.4-1.55v-.19a2.93,2.93,0,0,0-.4-1.74,1.47,1.47,0,0,0-1.25-.52,1.28,1.28,0,0,0-1.12.59,3,3,0,0,0-.39,1.68,2.94,2.94,0,0,0,.38,1.64A1.27,1.27,0,0,0,235.19,207.89Z"/><path class="cls-4" d="M245.86,205.63a3.54,3.54,0,0,1-.81,2.48,2.91,2.91,0,0,1-2.27.89,3.06,3.06,0,0,1-1.61-.41,2.67,2.67,0,0,1-1.07-1.18,4,4,0,0,1-.37-1.78,3.51,3.51,0,0,1,.81-2.46,2.92,2.92,0,0,1,2.28-.88,2.85,2.85,0,0,1,2.22.9A3.5,3.5,0,0,1,245.86,205.63Zm-4.71,0q0,2.25,1.65,2.25c1.1,0,1.64-.75,1.64-2.25s-.55-2.22-1.65-2.22a1.37,1.37,0,0,0-1.25.58A2.9,2.9,0,0,0,241.15,205.63Z"/><path class="cls-4" d="M197.13,220a8.88,8.88,0,0,1,.46-2.91,7.19,7.19,0,0,1,1.31-2.37h1.2a8.21,8.21,0,0,0-1.25,2.47,9.15,9.15,0,0,0-.43,2.8,9,9,0,0,0,.43,2.77,8.27,8.27,0,0,0,1.24,2.42H198.9a6.81,6.81,0,0,1-1.32-2.32A8.88,8.88,0,0,1,197.13,220Z"/><path class="cls-4" d="M205,223.29h-1.38v-5.54c0-.66,0-1.18,0-1.57a2.67,2.67,0,0,1-.34.31c-.13.12-.57.48-1.31,1.08l-.69-.87,2.52-2H205Z"/><path class="cls-4" d="M207.73,220.65v-1.17h3v1.17Z"/><path class="cls-4" d="M214.6,217.94a2.92,2.92,0,0,1,2.05.68,2.42,2.42,0,0,1,.76,1.87,2.74,2.74,0,0,1-.86,2.14,3.5,3.5,0,0,1-2.44.77,4.62,4.62,0,0,1-2.26-.46v-1.25a4.27,4.27,0,0,0,1.09.42,4.79,4.79,0,0,0,1.14.14,2.09,2.09,0,0,0,1.42-.41,1.51,1.51,0,0,0,.49-1.22c0-1-.65-1.54-2-1.54a4.82,4.82,0,0,0-.68.06c-.27,0-.5.08-.71.13l-.61-.37.33-4.18h4.45v1.22h-3.24l-.19,2.12.5-.08A4.84,4.84,0,0,1,214.6,217.94Z"/><path class="cls-4" d="M224.73,223.4a2.79,2.79,0,0,1-2.23-.86,4.33,4.33,0,0,1,0-5,2.94,2.94,0,0,1,2.31-.88,4.25,4.25,0,0,1,1.85.38l-.42,1.11a4.07,4.07,0,0,0-1.44-.34c-1.12,0-1.68.74-1.68,2.23a2.7,2.7,0,0,0,.42,1.64,1.46,1.46,0,0,0,1.22.54,3.59,3.59,0,0,0,1.75-.45V223a2.83,2.83,0,0,1-.79.31A5,5,0,0,1,224.73,223.4Z"/><path class="cls-4" d="M233.52,223.29h-1.38v-4a1.85,1.85,0,0,0-.28-1.11,1,1,0,0,0-.88-.37,1.36,1.36,0,0,0-1.17.52,3,3,0,0,0-.37,1.73v3.23h-1.38V216.8h1.08l.19.85h.07a1.86,1.86,0,0,1,.78-.71,2.5,2.5,0,0,1,1.13-.25,2,2,0,0,1,2,1h.09a2.09,2.09,0,0,1,.81-.75,2.59,2.59,0,0,1,1.2-.27,2.18,2.18,0,0,1,1.69.58,2.62,2.62,0,0,1,.53,1.79v4.23h-1.38v-4a1.78,1.78,0,0,0-.28-1.11,1,1,0,0,0-.88-.37,1.38,1.38,0,0,0-1.18.5,2.59,2.59,0,0,0-.37,1.54Z"/><path class="cls-4" d="M241.87,220a8.9,8.9,0,0,1-.45,2.87,6.88,6.88,0,0,1-1.31,2.31h-1.19a8.45,8.45,0,0,0,1.24-2.43,9.1,9.1,0,0,0,0-5.56,8.33,8.33,0,0,0-1.25-2.47h1.21a7.24,7.24,0,0,1,1.31,2.38A9.13,9.13,0,0,1,241.87,220Z"/><rect class="cls-2" x="3.13" y="175.59" width="123" height="76" rx="12"/><circle class="cls-3" cx="64.63" cy="178.37" r="14.22"/><path class="cls-4" d="M60.08,179.12a10.29,10.29,0,0,1,.75-4.26,4.94,4.94,0,0,1,2.21-2.4,7.66,7.66,0,0,1,3.62-.77,12.48,12.48,0,0,1,1.79.14v2.66a10,10,0,0,0-1.87-.17,3.68,3.68,0,0,0-2.53.75,3.37,3.37,0,0,0-.92,2.44h.11a2.61,2.61,0,0,1,2.48-1.46,3.22,3.22,0,0,1,2.6,1.08,4.45,4.45,0,0,1,.92,3,4.52,4.52,0,0,1-1.16,3.27,5,5,0,0,1-6.75-.24A6,6,0,0,1,60.08,179.12Zm4.65,2.79a1.09,1.09,0,0,0,.88-.41,2,2,0,0,0,.34-1.3c0-1-.39-1.53-1.18-1.53a1.21,1.21,0,0,0-.95.4,1.33,1.33,0,0,0-.37,1,2.34,2.34,0,0,0,.36,1.35A1.06,1.06,0,0,0,64.73,181.91Z"/><rect class="cls-5" x="14.08" y="232.13" width="101.1" height="1.33"/><path class="cls-4" d="M47.46,208.88H46.07v-8.56h4.84v1.18H47.46v2.68h3.23v1.19H47.46Z"/><path class="cls-4" d="M55.6,202.29a3.27,3.27,0,0,1,.69.06l-.14,1.28a2.43,2.43,0,0,0-.61-.07,1.78,1.78,0,0,0-1.34.54,2,2,0,0,0-.51,1.4v3.38H52.31V202.4h1.08l.18,1.15h.07a2.52,2.52,0,0,1,.85-.92A1.94,1.94,0,0,1,55.6,202.29Z"/><path class="cls-4" d="M57.41,200.69a.74.74,0,0,1,.2-.57.8.8,0,0,1,.58-.2.77.77,0,0,1,.56.2.74.74,0,0,1,.2.57.72.72,0,0,1-.2.55.73.73,0,0,1-.56.2.76.76,0,0,1-.58-.2A.72.72,0,0,1,57.41,200.69Zm1.46,8.19H57.49V202.4h1.38Z"/><path class="cls-4" d="M63.25,207.89a3.27,3.27,0,0,0,1-.16v1a3.08,3.08,0,0,1-.59.16,3.67,3.67,0,0,1-.75.07c-1.3,0-2-.69-2-2.06v-3.49h-.88v-.61l1-.51L61.5,201h.85v1.44h1.84v1H62.35v3.47a1,1,0,0,0,.24.73A.92.92,0,0,0,63.25,207.89Z"/><path class="cls-4" d="M70.12,208.88l-.19-.84h-.07a2,2,0,0,1-.82.7,2.63,2.63,0,0,1-1.21.26,2.38,2.38,0,0,1-1.76-.58,2.47,2.47,0,0,1-.58-1.78V202.4h1.39v4a1.7,1.7,0,0,0,.31,1.12,1.18,1.18,0,0,0,1,.37,1.53,1.53,0,0,0,1.28-.52,2.88,2.88,0,0,0,.4-1.74V202.4h1.39v6.48Z"/><path class="cls-4" d="M76.46,202.29a3.23,3.23,0,0,1,.68.06L77,203.63a2.48,2.48,0,0,0-.61-.07,1.76,1.76,0,0,0-1.34.54,2,2,0,0,0-.52,1.4v3.38H73.17V202.4h1.08l.18,1.15h.07a2.41,2.41,0,0,1,.84-.92A2,2,0,0,1,76.46,202.29Z"/><path class="cls-4" d="M82.4,208.88l-.28-.9h-.05a2.54,2.54,0,0,1-.94.81,3,3,0,0,1-1.22.21,2.09,2.09,0,0,1-1.49-.51,1.93,1.93,0,0,1-.54-1.46,1.7,1.7,0,0,1,.75-1.51A4.28,4.28,0,0,1,80.9,205l1.12,0v-.34a1.31,1.31,0,0,0-.29-.93,1.19,1.19,0,0,0-.9-.31,3.06,3.06,0,0,0-1,.15,8.44,8.44,0,0,0-.88.34l-.44-1a5.21,5.21,0,0,1,2.33-.56,2.8,2.8,0,0,1,1.87.54,2.1,2.1,0,0,1,.63,1.69v4.36ZM80.35,208a1.69,1.69,0,0,0,1.2-.42,1.53,1.53,0,0,0,.45-1.18v-.56l-.83,0a2.81,2.81,0,0,0-1.41.32,1,1,0,0,0-.45.89.87.87,0,0,0,.26.67A1.1,1.1,0,0,0,80.35,208Z"/><path class="cls-4" d="M30.9,220a9.15,9.15,0,0,1,.45-2.91,7.38,7.38,0,0,1,1.31-2.37h1.2a8.19,8.19,0,0,0-1.24,2.47,9.16,9.16,0,0,0-.44,2.8,9,9,0,0,0,.44,2.77,8.25,8.25,0,0,0,1.23,2.42H32.66a7,7,0,0,1-1.31-2.32A8.88,8.88,0,0,1,30.9,220Z"/><path class="cls-4" d="M38.79,223.29H37.41v-5.54c0-.66,0-1.18.05-1.57a3.39,3.39,0,0,1-.33.31q-.2.18-1.32,1.08l-.69-.87,2.52-2h1.15Z"/><path class="cls-4" d="M44.5,217.94a2.9,2.9,0,0,1,2,.68,2.38,2.38,0,0,1,.76,1.87,2.74,2.74,0,0,1-.86,2.14,3.49,3.49,0,0,1-2.44.77,4.55,4.55,0,0,1-2.25-.46v-1.25a4.13,4.13,0,0,0,1.09.42,4.79,4.79,0,0,0,1.14.14,2.13,2.13,0,0,0,1.42-.41,1.54,1.54,0,0,0,.48-1.22c0-1-.65-1.54-2-1.54a4.7,4.7,0,0,0-.68.06c-.27,0-.51.08-.71.13l-.62-.37.33-4.18h4.45v1.22H43.47l-.19,2.12.5-.08A5,5,0,0,1,44.5,217.94Z"/><path class="cls-4" d="M54.25,219a6.18,6.18,0,0,1-.71,3.32,2.72,2.72,0,0,1-4.37,0,6,6,0,0,1-.73-3.28,6.12,6.12,0,0,1,.71-3.34,2.71,2.71,0,0,1,4.37.05A6.06,6.06,0,0,1,54.25,219Zm-4.42,0a6.23,6.23,0,0,0,.36,2.5,1.2,1.2,0,0,0,1.15.75,1.21,1.21,0,0,0,1.16-.76,8.56,8.56,0,0,0,0-5,1.22,1.22,0,0,0-1.16-.77,1.2,1.2,0,0,0-1.15.75A6.32,6.32,0,0,0,49.83,219Z"/><path class="cls-4" d="M55.19,220.65v-1.17h3v1.17Z"/><path class="cls-4" d="M63.2,223.29H61.82v-5.54c0-.66,0-1.18,0-1.57a3.39,3.39,0,0,1-.33.31q-.2.18-1.32,1.08l-.69-.87,2.52-2H63.2Z"/><path class="cls-4" d="M66,219.63q0-5,4.1-5a4.88,4.88,0,0,1,1.09.1v1.15a3.58,3.58,0,0,0-1-.13,2.71,2.71,0,0,0-2.07.73,3.63,3.63,0,0,0-.75,2.37h.07a1.87,1.87,0,0,1,.77-.73,2.41,2.41,0,0,1,1.17-.26,2.32,2.32,0,0,1,1.82.71,2.79,2.79,0,0,1,.65,1.94,2.94,2.94,0,0,1-.75,2.13,2.74,2.74,0,0,1-2.06.78,2.93,2.93,0,0,1-1.6-.44,2.76,2.76,0,0,1-1-1.29A5,5,0,0,1,66,219.63Zm3,2.64a1.35,1.35,0,0,0,1.09-.46,2,2,0,0,0,.39-1.31,1.73,1.73,0,0,0-.36-1.16,1.35,1.35,0,0,0-1.09-.42,1.77,1.77,0,0,0-.82.19,1.57,1.57,0,0,0-.59.52,1.26,1.26,0,0,0-.21.68,2.22,2.22,0,0,0,.44,1.39A1.4,1.4,0,0,0,69,222.27Z"/><path class="cls-4" d="M78.66,219a6.18,6.18,0,0,1-.71,3.32,2.72,2.72,0,0,1-4.37,0,6,6,0,0,1-.73-3.28,6.12,6.12,0,0,1,.71-3.34,2.71,2.71,0,0,1,4.37.05A6.06,6.06,0,0,1,78.66,219Zm-4.42,0a6.23,6.23,0,0,0,.36,2.5,1.26,1.26,0,0,0,2.31,0,8.56,8.56,0,0,0,0-5,1.21,1.21,0,0,0-1.16-.77,1.2,1.2,0,0,0-1.15.75A6.32,6.32,0,0,0,74.24,219Z"/><path class="cls-4" d="M82.94,216.53a1.87,1.87,0,0,1,.55-1.36,1.94,1.94,0,0,1,2.74,0,1.87,1.87,0,0,1,.56,1.37,1.91,1.91,0,0,1-1.93,1.92,1.91,1.91,0,0,1-1-.25,2,2,0,0,1-.71-.7A1.92,1.92,0,0,1,82.94,216.53Zm.89,0a1,1,0,0,0,.3.71,1,1,0,0,0,.73.31,1,1,0,0,0,1-1,1,1,0,0,0-.3-.74,1,1,0,0,0-.73-.3,1,1,0,0,0-1,1Z"/><path class="cls-4" d="M92.21,215.8a2.31,2.31,0,0,0-1.9.85,4.49,4.49,0,0,0,0,4.75,2.33,2.33,0,0,0,1.92.81,5.29,5.29,0,0,0,1.06-.11c.34-.07.69-.17,1.06-.28V223a6.36,6.36,0,0,1-2.29.38,3.66,3.66,0,0,1-2.89-1.14,4.77,4.77,0,0,1-1-3.26,5.37,5.37,0,0,1,.49-2.34,3.51,3.51,0,0,1,1.42-1.53,4.23,4.23,0,0,1,2.17-.53,5.35,5.35,0,0,1,2.43.55l-.51,1.16a9.58,9.58,0,0,0-.91-.36A3.4,3.4,0,0,0,92.21,215.8Z"/><path class="cls-4" d="M98.36,220a8.9,8.9,0,0,1-.45,2.87,6.72,6.72,0,0,1-1.31,2.31H95.41a8.45,8.45,0,0,0,1.24-2.43,8.85,8.85,0,0,0,.43-2.76,9.15,9.15,0,0,0-.43-2.8,8.58,8.58,0,0,0-1.25-2.47h1.2a7.24,7.24,0,0,1,1.31,2.38A9.13,9.13,0,0,1,98.36,220Z"/></g></g></svg>