<svg xmlns="http://www.w3.org/2000/svg" width="370.105" height="338.4" viewBox="0 0 370.105 338.4">
  <g id="Grupo_4354" data-name="Grupo 4354" transform="translate(-5.035 -25.242)">
    <path id="Trazado_12836" data-name="Trazado 12836" d="M372.134,199.665c-6.4-18.225-16.488-23.771-26.079-35.461-11.714-14.278-19.615-24.657-16.574-43.021,4.97-30.008,7.1-104.849-70.725-95.066-27.893,3.507-49.935,25.327-65.971,47.109C179.14,91.759,154.6,93.394,134.84,97.715c-24.273,5.309-49,13.329-71.458,25.079C17.13,146.995,3.315,181.784,5.2,226.3c.571,13.448,2.435,34.631,24.688,59.418,30.036,33.455,73.682,37.935,126.215,22.571,12.024-3.517,23.39-9.033,35.219-13.185a163.261,163.261,0,0,1,38.01-8.426c30.172-2.978,61.447,2.408,90.39-6.787a95.1,95.1,0,0,0,40.428-25.6C373.976,239.51,378.893,218.9,372.134,199.665Z" fill="#8fcec4" opacity="0.46"/>
    <path id="Trazado_12837" data-name="Trazado 12837" d="M218.237,266.137s-18.941.009-12.515,15.252,17.069,26.133,35.49,25.7,37-15.236,37-15.236S272.16,254.526,218.237,266.137Z" fill="#8db14c"/>
    <g id="Grupo_4339" data-name="Grupo 4339">
      <path id="Trazado_12838" data-name="Trazado 12838" d="M307.014,263.715s3.08,9.765-28.806,28.143c-32.477,18.72-32.319,7.136-32.319,7.136s-.256.039-.783.09c-5.27.54,4.855,23.86-85.917-30.562-64.427-38.628-51.215-45.535-54.236-50.265-.411-.643-.6-.977-.6-.977l61.125-35.292s11.387.746,30.112,6.8a239.953,239.953,0,0,1,35.421,14.806C303.4,240.594,307.014,263.715,307.014,263.715Z" fill="#9dbc65"/>
      <path id="Trazado_12839" data-name="Trazado 12839" d="M303.349,264.147a41.62,41.62,0,0,0-29.778,7.151c-19.7,13.516-28.465,27.786-28.465,27.786-5.27.54-37.066,2.056-85.917-30.562-36.358-24.278-51.215-45.535-54.236-50.265-.411-.643-.6-.977-.6-.977l61.125-35.292s3.5-6.053,22.226,0c7.672,2.892,29.592,12.061,38.82,16.778C298.916,235.767,303.349,264.147,303.349,264.147Z" fill="#fdf8f0"/>
      <path id="Trazado_12840" data-name="Trazado 12840" d="M245.889,298.994s-33.081,5.334-86.7-30.472c-36.358-24.278-51.215-45.535-54.236-50.265,4.46.81,10.26-1.9,14.575,1,37.288,25.064,72.641,44.349,83.578,50.788S245.889,298.994,245.889,298.994Z" fill="#9dbc65"/>
      <path id="Trazado_12841" data-name="Trazado 12841" d="M245.889,298.994s-.61,9.915-16.03,6.146c-14.723-3.6-42.35-17.991-69.4-34.117-65.777-39.213-52.484-48.036-55.5-52.766,4.46.81,27.637,31.33,77.55,55.92C193.882,279.783,245.889,298.994,245.889,298.994Z" fill="#8db14c"/>
      <g id="Grupo_4338" data-name="Grupo 4338">
        <g id="Grupo_4337" data-name="Grupo 4337">
          <path id="Trazado_12842" data-name="Trazado 12842" d="M226.774,253.679a138.005,138.005,0,0,1-12.716,25.091,1.294,1.294,0,0,1-1.7.386,1.271,1.271,0,0,1-.639-1.6c.192-.417,18.342-41.379-14.594-65.644a1.307,1.307,0,0,1-.534-.889,1.086,1.086,0,0,1,.322-.918l3.812-3.728a1.258,1.258,0,0,1,.939-.342c.7.031,17.255.916,25.1,13.551C231.992,228.018,231.986,239.433,226.774,253.679ZM217.7,267.228c10.806-20.318,13.193-36.272,6.846-46.517-6.3-10.166-19.43-11.934-22.271-12.2l-2.468,2.415C222.149,228.241,220.9,252.937,217.7,267.228Z" fill="#846e63"/>
          <path id="Trazado_12843" data-name="Trazado 12843" d="M220.981,266.586c-.044.12-.075.2-.091.247a1.253,1.253,0,0,1-1.658.635,1.278,1.278,0,0,1-.807-1.584l.03-.082c.566-1.548,10.213-28.93-6.993-46.292a1.148,1.148,0,0,1,.01-1.714,1.376,1.376,0,0,1,1.84.133C231.39,236.169,222.11,263.5,220.981,266.586Z" fill="#846e63"/>
          <path id="Trazado_12844" data-name="Trazado 12844" d="M196.55,203.717a1.085,1.085,0,0,1-.234.377l-4.046,4.262a1.355,1.355,0,0,1-1.833.035,1.175,1.175,0,0,1-.169-1.72l4.045-4.263a1.355,1.355,0,0,1,1.833-.034A1.218,1.218,0,0,1,196.55,203.717Z" fill="#846e63"/>
        </g>
        <path id="Trazado_12845" data-name="Trazado 12845" d="M173.179,227.316a1.435,1.435,0,0,0,.9.588c19.286,3.912,30.394,16.468,36.739,28.508.2-1.252.368-2.659.476-4.2-6.7-11.252-17.647-22.319-35.414-26.374l.914-3.288c2.558-.98,14.651-5.017,25.054,1.628a24.955,24.955,0,0,1,5.237,4.534,51.448,51.448,0,0,0-3.257-6.082c-.214-.146-.422-.3-.64-.441-12.945-8.254-27.522-1.927-28.136-1.654a1.123,1.123,0,0,0-.634.721L173,226.331A1.174,1.174,0,0,0,173.179,227.316Z" fill="#846e63"/>
        <path id="Trazado_12846" data-name="Trazado 12846" d="M208.567,235.145l-1.934,1.494c-6.053-6.664-17.851-10.252-17.969-10.288l.627-2.312C189.8,224.192,201.974,227.887,208.567,235.145Z" fill="#846e63"/>
        <path id="Trazado_12847" data-name="Trazado 12847" d="M170.905,227.352l-2.552-.657,1.533-6.9,2.552.657Z" fill="#846e63"/>
      </g>
    </g>
    <path id="Trazado_12848" data-name="Trazado 12848" d="M219.345,235.512s-18.941.009-12.515,15.253,17.069,26.132,35.49,25.7,36.995-15.235,36.995-15.235S273.268,223.9,219.345,235.512Z" fill="#8db14c"/>
    <g id="Grupo_4342" data-name="Grupo 4342">
      <path id="Trazado_12849" data-name="Trazado 12849" d="M308.122,233.09s3.079,9.765-28.807,28.144C246.839,279.954,247,268.369,247,268.369s-.257.039-.783.09c-5.27.54,4.855,23.861-85.917-30.562-64.427-38.628-51.216-45.535-54.236-50.265-.411-.643-.6-.977-.6-.977l61.125-35.291s11.387.745,30.112,6.8a240,240,0,0,1,35.421,14.806C304.51,209.969,308.122,233.09,308.122,233.09Z" fill="#9dbc65"/>
      <path id="Trazado_12850" data-name="Trazado 12850" d="M304.457,233.522a41.622,41.622,0,0,0-29.779,7.151c-19.7,13.517-28.464,27.786-28.464,27.786-5.27.54-37.066,2.056-85.917-30.562-36.358-24.278-51.216-45.535-54.236-50.265-.411-.643-.6-.977-.6-.977l61.125-35.291s3.5-6.054,22.226,0c7.672,2.891,29.592,12.06,38.82,16.777C300.024,205.142,304.457,233.522,304.457,233.522Z" fill="#fdf8f0"/>
      <path id="Trazado_12851" data-name="Trazado 12851" d="M247,268.369S213.916,273.7,160.3,237.9c-36.358-24.278-51.216-45.535-54.236-50.265,4.46.81,10.26-1.9,14.574,1,37.289,25.064,72.642,44.35,83.579,50.788S247,268.369,247,268.369Z" fill="#9dbc65"/>
      <path id="Trazado_12852" data-name="Trazado 12852" d="M247,268.369s-.61,9.915-16.03,6.146c-14.724-3.6-42.35-17.991-69.4-34.117-65.777-39.213-52.485-48.036-55.5-52.766,4.46.81,27.637,31.33,77.55,55.92C194.99,249.159,247,268.369,247,268.369Z" fill="#8db14c"/>
      <g id="Grupo_4341" data-name="Grupo 4341">
        <g id="Grupo_4340" data-name="Grupo 4340">
          <path id="Trazado_12853" data-name="Trazado 12853" d="M227.882,223.055a138.135,138.135,0,0,1-12.716,25.091,1.3,1.3,0,0,1-1.7.386,1.272,1.272,0,0,1-.638-1.6c.192-.416,18.342-41.379-14.594-65.644a1.307,1.307,0,0,1-.534-.889,1.086,1.086,0,0,1,.322-.918l3.812-3.728a1.258,1.258,0,0,1,.939-.342c.7.031,17.255.916,25.1,13.552C233.1,197.393,233.093,208.808,227.882,223.055ZM218.8,236.6c10.806-20.318,13.193-36.271,6.846-46.517-6.3-10.165-19.431-11.934-22.271-12.2l-2.468,2.414C223.257,197.616,222.009,222.313,218.8,236.6Z" fill="#846e63"/>
          <path id="Trazado_12854" data-name="Trazado 12854" d="M222.089,235.962c-.044.119-.075.2-.092.246a1.252,1.252,0,0,1-1.657.635,1.275,1.275,0,0,1-.807-1.583l.03-.083c.566-1.548,10.213-28.93-6.993-46.292a1.148,1.148,0,0,1,.009-1.714,1.379,1.379,0,0,1,1.841.133C232.5,205.544,223.217,232.877,222.089,235.962Z" fill="#846e63"/>
          <path id="Trazado_12855" data-name="Trazado 12855" d="M197.658,173.093a1.081,1.081,0,0,1-.234.376l-4.046,4.263a1.355,1.355,0,0,1-1.833.034,1.176,1.176,0,0,1-.17-1.72l4.046-4.262a1.355,1.355,0,0,1,1.833-.035A1.221,1.221,0,0,1,197.658,173.093Z" fill="#846e63"/>
        </g>
        <path id="Trazado_12856" data-name="Trazado 12856" d="M174.287,196.691a1.433,1.433,0,0,0,.9.588c19.287,3.912,30.395,16.468,36.739,28.508.2-1.251.369-2.659.476-4.2-6.7-11.252-17.646-22.319-35.414-26.374l.915-3.288c2.558-.98,14.65-5.017,25.054,1.629a24.975,24.975,0,0,1,5.237,4.533A51.448,51.448,0,0,0,204.932,192c-.214-.145-.422-.3-.641-.441-12.944-8.254-27.521-1.927-28.136-1.653a1.118,1.118,0,0,0-.633.72l-1.414,5.078A1.178,1.178,0,0,0,174.287,196.691Z" fill="#846e63"/>
        <path id="Trazado_12857" data-name="Trazado 12857" d="M209.675,204.52l-1.934,1.494c-6.054-6.664-17.851-10.252-17.969-10.288l.627-2.312C190.913,193.567,203.081,197.263,209.675,204.52Z" fill="#846e63"/>
        <path id="Trazado_12858" data-name="Trazado 12858" d="M172.013,196.727l-2.552-.657,1.533-6.9,2.552.657Z" fill="#846e63"/>
      </g>
    </g>
    <path id="Trazado_12859" data-name="Trazado 12859" d="M218.237,204.923s-18.941.009-12.515,15.253,17.069,26.132,35.49,25.7,37-15.235,37-15.235S272.16,193.313,218.237,204.923Z" fill="#8db14c"/>
    <path id="Trazado_12860" data-name="Trazado 12860" d="M307.014,202.5s3.08,9.765-28.806,28.144c-32.477,18.72-32.319,7.135-32.319,7.135s-.256.039-.783.09c-5.27.54,4.855,23.861-85.917-30.562-64.427-38.628-51.215-45.535-54.236-50.265-.411-.643-.6-.977-.6-.977l61.125-35.291s11.387.745,30.112,6.8a239.955,239.955,0,0,1,35.421,14.806C303.4,179.38,307.014,202.5,307.014,202.5Z" fill="#9dbc65"/>
    <path id="Trazado_12861" data-name="Trazado 12861" d="M303.349,202.933a41.62,41.62,0,0,0-29.778,7.151c-19.7,13.517-28.465,27.786-28.465,27.786-5.27.54-37.066,2.056-85.917-30.562-36.358-24.278-51.215-45.535-54.236-50.265-.411-.643-.6-.977-.6-.977l61.125-35.291s3.5-6.054,22.226,0c7.672,2.891,29.592,12.06,38.82,16.777C298.916,174.553,303.349,202.933,303.349,202.933Z" fill="#fdf8f0"/>
    <path id="Trazado_12862" data-name="Trazado 12862" d="M245.889,237.78s-33.081,5.334-86.7-30.472c-36.358-24.278-51.215-45.535-54.236-50.265,4.46.81,10.26-1.9,14.575,1,37.288,25.063,72.641,44.349,83.578,50.787S245.889,237.78,245.889,237.78Z" fill="#9dbc65"/>
    <path id="Trazado_12863" data-name="Trazado 12863" d="M245.889,237.78s-.61,9.915-16.03,6.146c-14.723-3.6-42.35-17.991-69.4-34.117-65.777-39.213-52.484-48.036-55.5-52.766,4.46.81,27.637,31.33,77.55,55.92C193.882,218.57,245.889,237.78,245.889,237.78Z" fill="#8db14c"/>
    <g id="Grupo_4344" data-name="Grupo 4344">
      <g id="Grupo_4343" data-name="Grupo 4343">
        <path id="Trazado_12864" data-name="Trazado 12864" d="M226.774,192.466a138.071,138.071,0,0,1-12.716,25.091,1.3,1.3,0,0,1-1.7.386,1.272,1.272,0,0,1-.639-1.6c.192-.416,18.342-41.379-14.594-65.644a1.307,1.307,0,0,1-.534-.889,1.086,1.086,0,0,1,.322-.918l3.812-3.728a1.258,1.258,0,0,1,.939-.342c.7.031,17.255.916,25.1,13.552C231.992,166.8,231.986,178.219,226.774,192.466ZM217.7,206.014C228.5,185.7,230.89,169.743,224.543,159.5c-6.3-10.165-19.43-11.934-22.271-12.2l-2.468,2.414C222.149,167.027,220.9,191.724,217.7,206.014Z" fill="#846e63"/>
        <path id="Trazado_12865" data-name="Trazado 12865" d="M220.981,205.373c-.044.119-.075.2-.091.246a1.253,1.253,0,0,1-1.658.635,1.276,1.276,0,0,1-.807-1.583l.03-.083c.566-1.548,10.213-28.93-6.993-46.292a1.148,1.148,0,0,1,.01-1.714,1.377,1.377,0,0,1,1.84.133C231.39,174.955,222.11,202.288,220.981,205.373Z" fill="#846e63"/>
        <path id="Trazado_12866" data-name="Trazado 12866" d="M196.55,142.5a1.082,1.082,0,0,1-.234.376l-4.046,4.263a1.355,1.355,0,0,1-1.833.034,1.175,1.175,0,0,1-.169-1.72l4.045-4.262a1.355,1.355,0,0,1,1.833-.035A1.219,1.219,0,0,1,196.55,142.5Z" fill="#846e63"/>
      </g>
      <path id="Trazado_12867" data-name="Trazado 12867" d="M173.179,166.1a1.435,1.435,0,0,0,.9.588c19.286,3.912,30.394,16.468,36.739,28.508.2-1.251.368-2.659.476-4.2-6.7-11.252-17.647-22.319-35.414-26.374l.914-3.288c2.558-.98,14.651-5.017,25.054,1.629a24.949,24.949,0,0,1,5.237,4.533,51.448,51.448,0,0,0-3.257-6.082c-.214-.145-.422-.3-.64-.441-12.945-8.254-27.522-1.927-28.136-1.653a1.119,1.119,0,0,0-.634.72L173,165.117A1.174,1.174,0,0,0,173.179,166.1Z" fill="#846e63"/>
      <path id="Trazado_12868" data-name="Trazado 12868" d="M208.567,173.931l-1.934,1.494c-6.053-6.664-17.851-10.252-17.969-10.288l.627-2.312C189.8,162.978,201.974,166.674,208.567,173.931Z" fill="#846e63"/>
      <path id="Trazado_12869" data-name="Trazado 12869" d="M170.905,166.138l-2.552-.657,1.533-6.9,2.552.657Z" fill="#846e63"/>
    </g>
    <g id="Grupo_4348" data-name="Grupo 4348">
      <path id="Trazado_12870" data-name="Trazado 12870" d="M142.474,322.673s-18.941.009-12.515,15.252,17.069,26.133,35.49,25.705,36.995-15.236,36.995-15.236S196.4,311.062,142.474,322.673Z" fill="#8db14c"/>
      <g id="Grupo_4347" data-name="Grupo 4347">
        <path id="Trazado_12871" data-name="Trazado 12871" d="M231.251,320.251s3.08,9.765-28.807,28.143c-32.476,18.72-32.318,7.136-32.318,7.136s-.257.038-.783.09c-5.27.54,4.855,23.86-85.917-30.562C19,286.43,32.21,279.523,29.19,274.793c-.411-.643-.6-.977-.6-.977l61.125-35.292s11.387.745,30.112,6.8a239.955,239.955,0,0,1,35.421,14.806C227.64,297.13,231.251,320.251,231.251,320.251Z" fill="#9dbc65"/>
        <path id="Trazado_12872" data-name="Trazado 12872" d="M227.586,320.683a41.622,41.622,0,0,0-29.779,7.151c-19.7,13.516-28.464,27.786-28.464,27.786-5.27.54-37.066,2.056-85.917-30.562C47.068,300.78,32.21,279.523,29.19,274.793c-.411-.643-.6-.977-.6-.977l61.125-35.292s3.5-6.053,22.226,0c7.672,2.892,29.592,12.061,38.82,16.778C223.153,292.3,227.586,320.683,227.586,320.683Z" fill="#fdf8f0"/>
        <path id="Trazado_12873" data-name="Trazado 12873" d="M170.126,355.53s-33.081,5.334-86.7-30.472C47.068,300.78,32.21,279.523,29.19,274.793c4.46.81,10.26-1.9,14.574,1,37.289,25.063,72.642,44.349,83.579,50.788S170.126,355.53,170.126,355.53Z" fill="#9dbc65"/>
        <path id="Trazado_12874" data-name="Trazado 12874" d="M170.126,355.53s-.61,9.915-16.03,6.146c-14.724-3.6-42.35-17.991-69.4-34.117-65.777-39.213-52.485-48.036-55.5-52.766,4.46.81,27.637,31.33,77.55,55.92C118.119,336.319,170.126,355.53,170.126,355.53Z" fill="#8db14c"/>
        <g id="Grupo_4346" data-name="Grupo 4346">
          <g id="Grupo_4345" data-name="Grupo 4345">
            <path id="Trazado_12875" data-name="Trazado 12875" d="M151.011,310.215a138.1,138.1,0,0,1-12.716,25.091,1.3,1.3,0,0,1-1.7.386,1.271,1.271,0,0,1-.638-1.6c.192-.417,18.342-41.379-14.594-65.644a1.307,1.307,0,0,1-.534-.889,1.086,1.086,0,0,1,.322-.918l3.812-3.728a1.254,1.254,0,0,1,.939-.342c.7.031,17.255.915,25.1,13.551C156.229,284.554,156.222,295.969,151.011,310.215Zm-9.077,13.548c10.806-20.317,13.193-36.271,6.846-46.516-6.3-10.166-19.431-11.934-22.271-12.2l-2.468,2.414C146.386,284.777,145.138,309.473,141.934,323.763Z" fill="#846e63"/>
            <path id="Trazado_12876" data-name="Trazado 12876" d="M145.218,323.122c-.044.12-.075.2-.092.247a1.252,1.252,0,0,1-1.657.635,1.277,1.277,0,0,1-.807-1.584l.03-.082c.566-1.548,10.213-28.93-6.993-46.292a1.149,1.149,0,0,1,.009-1.715,1.379,1.379,0,0,1,1.841.134C155.626,292.7,146.346,320.038,145.218,323.122Z" fill="#846e63"/>
            <path id="Trazado_12877" data-name="Trazado 12877" d="M120.787,260.253a1.085,1.085,0,0,1-.234.377l-4.046,4.262a1.355,1.355,0,0,1-1.833.035,1.176,1.176,0,0,1-.17-1.72l4.046-4.263a1.355,1.355,0,0,1,1.833-.034A1.22,1.22,0,0,1,120.787,260.253Z" fill="#846e63"/>
          </g>
          <path id="Trazado_12878" data-name="Trazado 12878" d="M97.416,283.852a1.433,1.433,0,0,0,.9.588c19.286,3.912,30.394,16.468,36.738,28.507.2-1.251.369-2.658.476-4.2-6.7-11.252-17.646-22.32-35.414-26.374l.915-3.288c2.558-.98,14.65-5.018,25.054,1.628a24.98,24.98,0,0,1,5.237,4.534,51.449,51.449,0,0,0-3.257-6.082c-.214-.146-.422-.3-.641-.441-12.944-8.255-27.521-1.927-28.136-1.654a1.122,1.122,0,0,0-.633.721l-1.414,5.078A1.179,1.179,0,0,0,97.416,283.852Z" fill="#846e63"/>
          <path id="Trazado_12879" data-name="Trazado 12879" d="M132.8,291.681l-1.934,1.494c-6.054-6.664-17.851-10.253-17.969-10.288l.627-2.312C114.042,280.728,126.21,284.423,132.8,291.681Z" fill="#846e63"/>
          <path id="Trazado_12880" data-name="Trazado 12880" d="M95.142,283.888l-2.552-.657,1.533-6.9,2.552.657Z" fill="#846e63"/>
        </g>
      </g>
    </g>
    <path id="Trazado_12881" data-name="Trazado 12881" d="M143.582,292.048s-18.942.009-12.515,15.253,17.068,26.132,35.49,25.7,36.995-15.235,36.995-15.235S197.505,280.438,143.582,292.048Z" fill="#8db14c"/>
    <g id="Grupo_4351" data-name="Grupo 4351">
      <path id="Trazado_12882" data-name="Trazado 12882" d="M232.359,289.626s3.079,9.765-28.807,28.144c-32.476,18.72-32.318,7.135-32.318,7.135s-.257.039-.784.09c-5.269.54,4.856,23.86-85.916-30.562C20.107,255.8,33.318,248.9,30.3,244.168c-.412-.643-.6-.977-.6-.977L90.819,207.9s11.387.745,30.112,6.8A240,240,0,0,1,156.352,229.5C228.747,266.505,232.359,289.626,232.359,289.626Z" fill="#9dbc65"/>
      <path id="Trazado_12883" data-name="Trazado 12883" d="M228.693,290.058a41.62,41.62,0,0,0-29.778,7.151c-19.7,13.517-28.465,27.786-28.465,27.786-5.269.54-37.065,2.056-85.916-30.562C48.175,270.155,33.318,248.9,30.3,244.168c-.412-.643-.6-.977-.6-.977L90.819,207.9s3.5-6.054,22.226,0c7.672,2.891,29.592,12.06,38.82,16.777C224.261,261.678,228.693,290.058,228.693,290.058Z" fill="#fdf8f0"/>
      <path id="Trazado_12884" data-name="Trazado 12884" d="M171.234,324.9s-33.081,5.334-86.7-30.472C48.175,270.155,33.318,248.9,30.3,244.168c4.459.81,10.26-1.9,14.574,1,37.289,25.064,72.642,44.349,83.579,50.788S171.234,324.9,171.234,324.9Z" fill="#9dbc65"/>
      <path id="Trazado_12885" data-name="Trazado 12885" d="M171.234,324.9s-.611,9.915-16.03,6.146c-14.724-3.6-42.351-17.991-69.4-34.117C20.026,257.721,33.318,248.9,30.3,244.168c4.459.81,27.636,31.33,77.55,55.92C119.227,305.694,171.234,324.9,171.234,324.9Z" fill="#8db14c"/>
      <g id="Grupo_4350" data-name="Grupo 4350">
        <g id="Grupo_4349" data-name="Grupo 4349">
          <path id="Trazado_12886" data-name="Trazado 12886" d="M152.118,279.591A138.006,138.006,0,0,1,139.4,304.682a1.3,1.3,0,0,1-1.7.385,1.272,1.272,0,0,1-.639-1.6c.193-.417,18.343-41.379-14.593-65.644a1.3,1.3,0,0,1-.534-.889,1.087,1.087,0,0,1,.322-.918l3.812-3.728a1.256,1.256,0,0,1,.939-.342c.7.031,17.255.916,25.1,13.552C157.337,253.929,157.33,265.344,152.118,279.591Zm-9.076,13.548c10.806-20.318,13.192-36.272,6.846-46.517-6.3-10.165-19.431-11.934-22.271-12.2l-2.468,2.414C147.494,254.152,146.246,278.848,143.042,293.139Z" fill="#846e63"/>
          <path id="Trazado_12887" data-name="Trazado 12887" d="M146.326,292.5c-.044.12-.075.2-.092.247a1.252,1.252,0,0,1-1.657.635,1.278,1.278,0,0,1-.808-1.584l.03-.082c.567-1.548,10.214-28.93-6.992-46.292a1.147,1.147,0,0,1,.009-1.714,1.376,1.376,0,0,1,1.84.133C156.734,262.08,147.454,289.413,146.326,292.5Z" fill="#846e63"/>
          <path id="Trazado_12888" data-name="Trazado 12888" d="M121.895,229.629a1.082,1.082,0,0,1-.234.376l-4.046,4.263a1.356,1.356,0,0,1-1.833.034,1.175,1.175,0,0,1-.17-1.72l4.046-4.263a1.356,1.356,0,0,1,1.833-.034A1.221,1.221,0,0,1,121.895,229.629Z" fill="#846e63"/>
        </g>
        <path id="Trazado_12889" data-name="Trazado 12889" d="M98.524,253.227a1.431,1.431,0,0,0,.895.588c19.286,3.912,30.395,16.468,36.739,28.508.2-1.251.369-2.659.476-4.2-6.7-11.252-17.646-22.319-35.414-26.374l.915-3.288c2.558-.98,14.65-5.017,25.054,1.629a25,25,0,0,1,5.237,4.533,51.743,51.743,0,0,0-3.257-6.082c-.215-.145-.422-.3-.641-.441-12.944-8.254-27.522-1.927-28.136-1.653a1.118,1.118,0,0,0-.633.72l-1.414,5.078A1.174,1.174,0,0,0,98.524,253.227Z" fill="#846e63"/>
        <path id="Trazado_12890" data-name="Trazado 12890" d="M133.912,261.056l-1.934,1.494c-6.054-6.664-17.851-10.252-17.969-10.288l.626-2.312C115.15,250.1,127.318,253.8,133.912,261.056Z" fill="#846e63"/>
        <path id="Trazado_12891" data-name="Trazado 12891" d="M96.25,253.263l-2.552-.657,1.533-6.9,2.552.657Z" fill="#846e63"/>
      </g>
    </g>
    <path id="Trazado_12892" data-name="Trazado 12892" d="M142.474,261.459s-18.941.009-12.515,15.253,17.069,26.132,35.49,25.7,36.995-15.235,36.995-15.235S196.4,249.849,142.474,261.459Z" fill="#8db14c"/>
    <path id="Trazado_12893" data-name="Trazado 12893" d="M231.251,259.037s3.08,9.765-28.807,28.144c-32.476,18.72-32.318,7.135-32.318,7.135s-.257.039-.783.09c-5.27.54,4.855,23.86-85.917-30.562C19,225.216,32.21,218.309,29.19,213.579c-.411-.643-.6-.977-.6-.977l61.125-35.291s11.387.745,30.112,6.8a239.957,239.957,0,0,1,35.421,14.806C227.64,235.916,231.251,259.037,231.251,259.037Z" fill="#9dbc65"/>
    <path id="Trazado_12894" data-name="Trazado 12894" d="M227.586,259.469a41.622,41.622,0,0,0-29.779,7.151c-19.7,13.517-28.464,27.786-28.464,27.786-5.27.54-37.066,2.056-85.917-30.562C47.068,239.566,32.21,218.309,29.19,213.579c-.411-.643-.6-.977-.6-.977l61.125-35.291s3.5-6.054,22.226,0c7.672,2.891,29.592,12.06,38.82,16.777C223.153,231.089,227.586,259.469,227.586,259.469Z" fill="#fdf8f0"/>
    <path id="Trazado_12895" data-name="Trazado 12895" d="M170.126,294.316s-33.081,5.334-86.7-30.472C47.068,239.566,32.21,218.309,29.19,213.579c4.46.81,10.26-1.9,14.574,1,37.289,25.064,72.642,44.349,83.579,50.788S170.126,294.316,170.126,294.316Z" fill="#9dbc65"/>
    <path id="Trazado_12896" data-name="Trazado 12896" d="M170.126,294.316s-.61,9.915-16.03,6.146c-14.724-3.6-42.35-17.991-69.4-34.117-65.777-39.213-52.485-48.036-55.5-52.766,4.46.81,27.637,31.33,77.55,55.92C118.119,275.105,170.126,294.316,170.126,294.316Z" fill="#8db14c"/>
    <g id="Grupo_4353" data-name="Grupo 4353">
      <g id="Grupo_4352" data-name="Grupo 4352">
        <path id="Trazado_12897" data-name="Trazado 12897" d="M151.3,242.353a138.1,138.1,0,0,1-12.716,25.091,1.3,1.3,0,0,1-1.7.386,1.273,1.273,0,0,1-.639-1.6c.193-.417,18.343-41.379-14.593-65.645a1.3,1.3,0,0,1-.534-.888,1.085,1.085,0,0,1,.322-.918l3.812-3.729a1.257,1.257,0,0,1,.939-.341c.7.031,17.255.915,25.1,13.551C156.515,216.692,156.508,228.107,151.3,242.353ZM142.22,255.9c10.806-20.317,13.193-36.271,6.846-46.516-6.3-10.166-19.431-11.935-22.271-12.2l-2.468,2.414C146.672,216.914,145.424,241.611,142.22,255.9Z" fill="#846e63"/>
        <path id="Trazado_12898" data-name="Trazado 12898" d="M145.5,255.26c-.044.12-.075.2-.092.246a1.251,1.251,0,0,1-1.657.635,1.275,1.275,0,0,1-.807-1.583l.03-.082c.566-1.548,10.213-28.931-6.993-46.292a1.149,1.149,0,0,1,.009-1.715,1.38,1.38,0,0,1,1.841.133C155.912,224.843,146.632,252.175,145.5,255.26Z" fill="#846e63"/>
        <path id="Trazado_12899" data-name="Trazado 12899" d="M121.073,192.391a1.082,1.082,0,0,1-.234.376l-4.046,4.263a1.355,1.355,0,0,1-1.833.034,1.174,1.174,0,0,1-.17-1.719l4.046-4.263a1.355,1.355,0,0,1,1.833-.034A1.22,1.22,0,0,1,121.073,192.391Z" fill="#846e63"/>
      </g>
      <path id="Trazado_12900" data-name="Trazado 12900" d="M97.7,215.99a1.425,1.425,0,0,0,.895.587c19.287,3.912,30.4,16.469,36.739,28.508.2-1.251.369-2.658.476-4.2-6.7-11.252-17.646-22.32-35.414-26.374l.915-3.288c2.558-.981,14.65-5.018,25.054,1.628a24.951,24.951,0,0,1,5.237,4.534,51.518,51.518,0,0,0-3.257-6.082c-.214-.146-.422-.3-.641-.442-12.944-8.254-27.521-1.926-28.136-1.653a1.12,1.12,0,0,0-.633.72l-1.414,5.079A1.175,1.175,0,0,0,97.7,215.99Z" fill="#846e63"/>
      <path id="Trazado_12901" data-name="Trazado 12901" d="M133.09,223.819l-1.934,1.494c-6.054-6.664-17.851-10.253-17.969-10.289l.626-2.311C114.328,212.865,126.5,216.561,133.09,223.819Z" fill="#846e63"/>
      <path id="Trazado_12902" data-name="Trazado 12902" d="M95.428,216.026l-2.552-.657,1.533-6.9,2.552.657Z" fill="#846e63"/>
    </g>
  </g>
</svg>
