<svg xmlns="http://www.w3.org/2000/svg" width="356" height="337.391" viewBox="0 0 356 337.391">
  <g id="Grupo_3767" data-name="Grupo 3767" transform="translate(-4446.584 -25.242)">
    <ellipse id="Elipse_1134" data-name="Elipse 1134" cx="150.177" cy="25.351" rx="150.177" ry="25.351" transform="translate(4485.571 311.931)" fill="#f7e9bf"/>
    <path id="Trazado_10279" data-name="Trazado 10279" d="M4535.454,152.914s-9.478,154.269,0,173.2h185.61s5.545-129.853,0-173.2Z" transform="translate(-3.226 -4.865)" fill="#d8d8d6"/>
    <g id="Grupo_3725" data-name="Grupo 3725" transform="translate(4446.584 25.242)">
      <path id="Trazado_10280" data-name="Trazado 10280" d="M4799.693,193.018c-6.16-17.53-15.859-22.865-25.085-34.11-11.268-13.734-18.868-23.717-15.942-41.382,4.78-28.864,6.827-100.853-68.029-91.443-26.83,3.373-48.032,24.362-63.458,45.314-13.124,17.827-36.733,19.4-55.736,23.556-23.348,5.107-47.133,12.821-68.734,24.123-44.49,23.279-57.778,56.742-55.964,99.558.549,12.936,2.342,33.311,23.747,57.154,28.892,32.18,70.874,36.489,121.4,21.711,11.566-3.383,22.5-8.689,33.877-12.683a157.043,157.043,0,0,1,36.562-8.1c29.022-2.865,59.105,2.316,86.945-6.528a91.47,91.47,0,0,0,38.888-24.621C4801.465,231.345,4806.194,211.522,4799.693,193.018Z" transform="translate(-4446.584 -25.242)" fill="#8fcec4" opacity="0.46"/>
    </g>
    <g id="Grupo_3766" data-name="Grupo 3766" transform="translate(4536.598 156.513)">
      <g id="Grupo_3727" data-name="Grupo 3727" transform="translate(0 115.064)">
        <path id="Trazado_10281" data-name="Trazado 10281" d="M4576.1,289.92s-6.619-6.251-8.457-5.883-7.722,5.883-7.722,5.883l-6.619-2.949-2.542,2.949-2.239,5.516-2.207,2.941-3.309,2.567-1.839,2.949v4.412a35.511,35.511,0,0,1,2.574,4.412c.368,1.1,3.677,6.986,3.677,6.986s2.272,4.781,3.342,5.516a29.044,29.044,0,0,0,5.115,1.838h2.758l2.758-2.207,5.148-.367,2.574.367,1.731,2.207s1.21,2.207,3.049,1.838,8.457-3.676,8.457-3.676l3.472-6.251,1.285-4.412,2.229-5.516v-6.25l-2.229-7.722-6.228-5.516Z" transform="translate(-4540.203 -281.439)" fill="#8e621f"/>
        <path id="Trazado_10282" data-name="Trazado 10282" d="M4575.1,287.235s-6.619-6.25-8.458-5.883-7.722,5.883-7.722,5.883l-6.618-2.949-2.541,2.949-2.239,5.516-2.207,2.941L4542,298.261l-1.839,2.948v4.412a35.489,35.489,0,0,1,2.574,4.413c.369,1.1,3.678,6.986,3.678,6.986s2.271,4.78,3.342,5.516a29.029,29.029,0,0,0,5.115,1.838h2.759l2.757-2.206,5.147-.368,2.574.368,1.732,2.206s1.211,2.207,3.049,1.839,8.457-3.677,8.457-3.677l3.472-6.251,1.285-4.412,2.231-5.516v-6.251l-2.231-7.722-6.227-5.515Z" transform="translate(-4540.164 -281.337)" fill="#bb9b48"/>
        <path id="Trazado_10283" data-name="Trazado 10283" d="M4574.052,313.846s2.968,8.838,7.934,7.549c0,0-9.651-1.3-11.335-3.872Z" transform="translate(-4541.326 -282.576)" fill="#c9801b"/>
        <path id="Trazado_10284" data-name="Trazado 10284" d="M4576,302.247s3.521-3.456,7.934,2.219c0,0,.68-5.368-10.508-5.535Z" transform="translate(-4541.432 -282.007)" fill="#c9801b"/>
        <path id="Trazado_10285" data-name="Trazado 10285" d="M4565.052,293.308a13.342,13.342,0,0,1-.082-7.009s-3.878,2.4-3.723,8.847Z" transform="translate(-4540.967 -281.526)" fill="#c9801b"/>
        <path id="Trazado_10286" data-name="Trazado 10286" d="M4551.457,303.635a10.19,10.19,0,0,0-8.372-2.027s6.518,2.667,9.949,5.536Z" transform="translate(-4540.275 -282.102)" fill="#c9801b"/>
        <g id="Grupo_3726" data-name="Grupo 3726" transform="translate(10.509 11.782)">
          <path id="Trazado_10287" data-name="Trazado 10287" d="M4564.666,293.586l7.905,5.141,2.574,3.316v6.251l-1.838,4.78-3.4,3.677h-9.836l-5.516-5.516-3.464-6.067,2.361-6.442s1.1-1.832,2.207-2.2,7.46-2.941,7.46-2.941Z" transform="translate(-4551.09 -293.586)" fill="#744d29"/>
          <path id="Trazado_10288" data-name="Trazado 10288" d="M4564.435,295.5l5.9,4.162,1.92,2.685V307.4l-1.372,3.87-2.537,2.976h-7.337l-4.114-4.465-2.583-4.911,1.76-5.214s.823-1.483,1.646-1.78,5.565-2.382,5.565-2.382Z" transform="translate(-4551.212 -293.659)" fill="#9d5e00"/>
          <circle id="Elipse_1135" data-name="Elipse 1135" cx="1.466" cy="1.466" r="1.466" transform="translate(12.028 8.284)" fill="#7f4817"/>
          <circle id="Elipse_1136" data-name="Elipse 1136" cx="1.466" cy="1.466" r="1.466" transform="translate(12.028 11.793)" fill="#7f4817"/>
          <circle id="Elipse_1137" data-name="Elipse 1137" cx="1.466" cy="1.466" r="1.466" transform="translate(6.84 11.793)" fill="#7f4817"/>
        </g>
        <path id="Trazado_10289" data-name="Trazado 10289" d="M4561.076,323.553s2.863-2.4-2.875-5.884c0,0,4.795-.163,5.228,5.716Z" transform="translate(-4540.852 -282.721)" fill="#c9801b"/>
        <path id="Trazado_10290" data-name="Trazado 10290" d="M4576.365,287.454s2.968,4.586-2.943,5.884c0,0,4.569.541,7.723-6.251Z" transform="translate(-4541.432 -281.556)" fill="#c9801b"/>
        <path id="Trazado_10291" data-name="Trazado 10291" d="M4559.56,287.424s3.075.763-1.4,5.894c0,0,2.022-3.192-1.123-7.019Z" transform="translate(-4540.807 -281.526)" fill="#c9801b"/>
      </g>
      <g id="Grupo_3729" data-name="Grupo 3729" transform="translate(36.499 115.064)">
        <path id="Trazado_10292" data-name="Trazado 10292" d="M4614.05,289.92s-6.619-6.251-8.457-5.883-7.723,5.883-7.723,5.883l-6.619-2.949-2.542,2.949-2.239,5.516-2.206,2.941-3.31,2.567-1.838,2.949v4.412a35.584,35.584,0,0,1,2.574,4.412c.367,1.1,3.677,6.986,3.677,6.986s2.271,4.781,3.342,5.516a29.074,29.074,0,0,0,5.116,1.838h2.758l2.758-2.207,5.148-.367,2.574.367,1.731,2.207s1.211,2.207,3.049,1.838,8.458-3.676,8.458-3.676l3.471-6.251,1.286-4.412,2.229-5.516v-6.25l-2.229-7.722-6.227-5.516Z" transform="translate(-4578.147 -281.439)" fill="#8e621f"/>
        <path id="Trazado_10293" data-name="Trazado 10293" d="M4613.041,287.235s-6.619-6.25-8.457-5.883-7.722,5.883-7.722,5.883l-6.619-2.949-2.542,2.949-2.239,5.516-2.206,2.941-3.31,2.567-1.838,2.948v4.412a35.593,35.593,0,0,1,2.575,4.413c.367,1.1,3.677,6.986,3.677,6.986s2.271,4.78,3.342,5.516a29.044,29.044,0,0,0,5.115,1.838h2.758l2.758-2.206,5.148-.368,2.574.368,1.73,2.206s1.211,2.207,3.05,1.839,8.457-3.677,8.457-3.677l3.471-6.251,1.286-4.412,2.229-5.516v-6.251l-2.229-7.722-6.228-5.515Z" transform="translate(-4578.108 -281.337)" fill="#bb9b48"/>
        <path id="Trazado_10294" data-name="Trazado 10294" d="M4612,313.846s2.968,8.838,7.933,7.549c0,0-9.65-1.3-11.335-3.872Z" transform="translate(-4579.271 -282.576)" fill="#c9801b"/>
        <path id="Trazado_10295" data-name="Trazado 10295" d="M4613.941,302.247s3.521-3.456,7.934,2.219c0,0,.679-5.368-10.507-5.535Z" transform="translate(-4579.376 -282.007)" fill="#c9801b"/>
        <path id="Trazado_10296" data-name="Trazado 10296" d="M4603,293.308a13.345,13.345,0,0,1-.083-7.009s-3.877,2.4-3.723,8.847Z" transform="translate(-4578.912 -281.526)" fill="#c9801b"/>
        <path id="Trazado_10297" data-name="Trazado 10297" d="M4589.4,303.635a10.19,10.19,0,0,0-8.372-2.027s6.519,2.667,9.95,5.536Z" transform="translate(-4578.22 -282.102)" fill="#c9801b"/>
        <g id="Grupo_3728" data-name="Grupo 3728" transform="translate(10.509 11.782)">
          <path id="Trazado_10298" data-name="Trazado 10298" d="M4602.61,293.586l7.906,5.141,2.574,3.316v6.251l-1.838,4.78-3.4,3.677h-9.835l-5.517-5.516-3.463-6.067,2.361-6.442s1.1-1.832,2.206-2.2,7.461-2.941,7.461-2.941Z" transform="translate(-4589.034 -293.586)" fill="#744d29"/>
          <path id="Trazado_10299" data-name="Trazado 10299" d="M4602.379,295.5l5.9,4.162,1.92,2.685V307.4l-1.371,3.87-2.537,2.976h-7.338l-4.114-4.465-2.583-4.911,1.761-5.214s.822-1.483,1.646-1.78,5.565-2.382,5.565-2.382Z" transform="translate(-4589.157 -293.659)" fill="#9d5e00"/>
          <circle id="Elipse_1138" data-name="Elipse 1138" cx="1.466" cy="1.466" r="1.466" transform="translate(12.028 8.284)" fill="#7f4817"/>
          <circle id="Elipse_1139" data-name="Elipse 1139" cx="1.466" cy="1.466" r="1.466" transform="translate(12.028 11.793)" fill="#7f4817"/>
          <circle id="Elipse_1140" data-name="Elipse 1140" cx="1.466" cy="1.466" r="1.466" transform="translate(6.84 11.793)" fill="#7f4817"/>
        </g>
        <path id="Trazado_10300" data-name="Trazado 10300" d="M4599.02,323.553s2.863-2.4-2.875-5.884c0,0,4.795-.163,5.228,5.716Z" transform="translate(-4578.796 -282.721)" fill="#c9801b"/>
        <path id="Trazado_10301" data-name="Trazado 10301" d="M4614.308,287.454s2.97,4.586-2.941,5.884c0,0,4.568.541,7.722-6.251Z" transform="translate(-4579.376 -281.556)" fill="#c9801b"/>
        <path id="Trazado_10302" data-name="Trazado 10302" d="M4597.5,287.424s3.075.763-1.4,5.894c0,0,2.023-3.192-1.123-7.019Z" transform="translate(-4578.752 -281.526)" fill="#c9801b"/>
      </g>
      <g id="Grupo_3731" data-name="Grupo 3731" transform="translate(78.838 114.743)">
        <path id="Trazado_10303" data-name="Trazado 10303" d="M4658.311,289.645s-6.664-6.294-8.515-5.923-7.774,5.923-7.774,5.923l-6.664-2.969-2.558,2.969-2.255,5.553-2.221,2.962-3.332,2.585-1.851,2.967v4.443a35.809,35.809,0,0,1,2.591,4.442c.371,1.111,3.7,7.033,3.7,7.033s2.287,4.813,3.365,5.553a29.2,29.2,0,0,0,5.149,1.852h2.777l2.776-2.221,5.182-.37,2.592.37,1.743,2.221s1.219,2.221,3.07,1.851,8.514-3.7,8.514-3.7l3.494-6.293,1.295-4.443,2.245-5.552V302.6l-2.245-7.774-6.27-5.553Z" transform="translate(-4622.165 -281.106)" fill="#8e621f"/>
        <path id="Trazado_10304" data-name="Trazado 10304" d="M4657.295,286.942s-6.663-6.294-8.515-5.923-7.774,5.923-7.774,5.923l-6.663-2.969-2.559,2.969-2.253,5.553-2.221,2.962-3.333,2.585-1.852,2.968v4.442a35.684,35.684,0,0,1,2.591,4.442c.371,1.111,3.7,7.034,3.7,7.034s2.287,4.812,3.364,5.553a29.26,29.26,0,0,0,5.15,1.851h2.776l2.777-2.221,5.183-.37,2.591.37,1.742,2.221s1.22,2.221,3.07,1.851,8.515-3.7,8.515-3.7l3.494-6.294,1.294-4.442,2.245-5.553V299.9l-2.245-7.774-6.27-5.553Z" transform="translate(-4622.126 -281.003)" fill="#bb9b48"/>
        <path id="Trazado_10305" data-name="Trazado 10305" d="M4656.243,313.732s2.988,8.9,7.988,7.6c0,0-9.716-1.306-11.412-3.9Z" transform="translate(-4623.295 -282.25)" fill="#c9801b"/>
        <path id="Trazado_10306" data-name="Trazado 10306" d="M4658.2,302.055s3.545-3.48,7.987,2.233c0,0,.684-5.4-10.579-5.572Z" transform="translate(-4623.402 -281.678)" fill="#c9801b"/>
        <path id="Trazado_10307" data-name="Trazado 10307" d="M4647.183,293.055A13.431,13.431,0,0,1,4647.1,286s-3.9,2.418-3.747,8.907Z" transform="translate(-4622.935 -281.193)" fill="#c9801b"/>
        <path id="Trazado_10308" data-name="Trazado 10308" d="M4633.5,303.451a10.255,10.255,0,0,0-8.429-2.039s6.563,2.685,10.017,5.572Z" transform="translate(-4622.238 -281.773)" fill="#c9801b"/>
        <g id="Grupo_3730" data-name="Grupo 3730" transform="translate(10.581 11.862)">
          <path id="Trazado_10309" data-name="Trazado 10309" d="M4646.793,293.335l7.958,5.176,2.592,3.339v6.293l-1.851,4.812-3.424,3.7h-9.9l-5.553-5.553L4633.126,305l2.377-6.485s1.11-1.844,2.221-2.214,7.511-2.962,7.511-2.962Z" transform="translate(-4633.126 -293.335)" fill="#744d29"/>
          <path id="Trazado_10310" data-name="Trazado 10310" d="M4646.561,295.259l5.937,4.19,1.933,2.7v5.094l-1.381,3.9-2.554,3h-7.386l-4.142-4.495-2.6-4.945,1.772-5.25s.829-1.493,1.657-1.792,5.6-2.4,5.6-2.4Z" transform="translate(-4633.25 -293.408)" fill="#9d5e00"/>
          <circle id="Elipse_1141" data-name="Elipse 1141" cx="1.475" cy="1.475" r="1.475" transform="translate(12.109 8.34)" fill="#7f4817"/>
          <circle id="Elipse_1142" data-name="Elipse 1142" cx="1.475" cy="1.475" r="1.475" transform="translate(12.109 11.873)" fill="#7f4817"/>
          <circle id="Elipse_1143" data-name="Elipse 1143" cx="1.475" cy="1.475" r="1.475" transform="translate(6.886 11.873)" fill="#7f4817"/>
        </g>
        <path id="Trazado_10311" data-name="Trazado 10311" d="M4643.179,323.5s2.883-2.417-2.894-5.923c0,0,4.828-.164,5.262,5.754Z" transform="translate(-4622.818 -282.397)" fill="#c9801b"/>
        <path id="Trazado_10312" data-name="Trazado 10312" d="M4658.571,287.162s2.989,4.617-2.962,5.923c0,0,4.6.544,7.774-6.294Z" transform="translate(-4623.402 -281.223)" fill="#c9801b"/>
        <path id="Trazado_10313" data-name="Trazado 10313" d="M4641.653,287.132s3.1.768-1.413,5.934c0,0,2.036-3.214-1.13-7.067Z" transform="translate(-4622.773 -281.193)" fill="#c9801b"/>
      </g>
      <g id="Grupo_3733" data-name="Grupo 3733" transform="translate(0 81.721)">
        <path id="Trazado_10314" data-name="Trazado 10314" d="M4576.1,255.256s-6.619-6.251-8.457-5.883-7.722,5.883-7.722,5.883l-6.619-2.949-2.542,2.949-2.239,5.515-2.207,2.941-3.309,2.567-1.839,2.949v4.412a35.51,35.51,0,0,1,2.574,4.412c.368,1.1,3.677,6.986,3.677,6.986s2.272,4.781,3.342,5.516a29.042,29.042,0,0,0,5.115,1.838h2.758l2.758-2.207,5.148-.367,2.574.367,1.731,2.207s1.21,2.207,3.049,1.838,8.457-3.676,8.457-3.676l3.472-6.251,1.285-4.412,2.229-5.516v-6.25l-2.229-7.722-6.228-5.515Z" transform="translate(-4540.203 -246.775)" fill="#8e621f"/>
        <path id="Trazado_10315" data-name="Trazado 10315" d="M4575.1,252.572s-6.619-6.251-8.458-5.884-7.722,5.884-7.722,5.884l-6.618-2.95-2.541,2.95-2.239,5.516-2.207,2.941L4542,263.6l-1.839,2.948v4.412a35.489,35.489,0,0,1,2.574,4.413c.369,1.1,3.678,6.986,3.678,6.986s2.271,4.78,3.342,5.516a28.95,28.95,0,0,0,5.115,1.838h2.759l2.757-2.206,5.147-.368,2.574.368,1.732,2.206s1.211,2.207,3.049,1.839,8.457-3.677,8.457-3.677l3.472-6.251,1.285-4.412,2.231-5.516v-6.251l-2.231-7.722-6.227-5.516Z" transform="translate(-4540.164 -246.673)" fill="#bb9b48"/>
        <path id="Trazado_10316" data-name="Trazado 10316" d="M4574.052,279.183s2.968,8.837,7.934,7.548c0,0-9.651-1.3-11.335-3.872Z" transform="translate(-4541.326 -247.912)" fill="#c9801b"/>
        <path id="Trazado_10317" data-name="Trazado 10317" d="M4576,267.583s3.521-3.456,7.934,2.219c0,0,.68-5.368-10.508-5.535Z" transform="translate(-4541.432 -247.343)" fill="#c9801b"/>
        <path id="Trazado_10318" data-name="Trazado 10318" d="M4565.052,258.644a13.342,13.342,0,0,1-.082-7.009s-3.878,2.4-3.723,8.848Z" transform="translate(-4540.967 -246.862)" fill="#c9801b"/>
        <path id="Trazado_10319" data-name="Trazado 10319" d="M4551.457,268.971a10.19,10.19,0,0,0-8.372-2.027s6.518,2.667,9.949,5.536Z" transform="translate(-4540.275 -247.438)" fill="#c9801b"/>
        <g id="Grupo_3732" data-name="Grupo 3732" transform="translate(10.509 11.782)">
          <path id="Trazado_10320" data-name="Trazado 10320" d="M4564.666,258.922l7.905,5.141,2.574,3.316v6.251l-1.838,4.781-3.4,3.676h-9.836l-5.516-5.516-3.464-6.067,2.361-6.442s1.1-1.832,2.207-2.2,7.46-2.941,7.46-2.941Z" transform="translate(-4551.09 -258.922)" fill="#744d29"/>
          <path id="Trazado_10321" data-name="Trazado 10321" d="M4564.435,260.833l5.9,4.162,1.92,2.685v5.061l-1.372,3.87-2.537,2.976h-7.337l-4.114-4.465-2.583-4.911,1.76-5.214s.823-1.483,1.646-1.78,5.565-2.382,5.565-2.382Z" transform="translate(-4551.212 -258.995)" fill="#9d5e00"/>
          <circle id="Elipse_1144" data-name="Elipse 1144" cx="1.466" cy="1.466" r="1.466" transform="translate(12.028 8.284)" fill="#7f4817"/>
          <circle id="Elipse_1145" data-name="Elipse 1145" cx="1.466" cy="1.466" r="1.466" transform="translate(12.028 11.793)" fill="#7f4817"/>
          <circle id="Elipse_1146" data-name="Elipse 1146" cx="1.466" cy="1.466" r="1.466" transform="translate(6.84 11.793)" fill="#7f4817"/>
        </g>
        <path id="Trazado_10322" data-name="Trazado 10322" d="M4561.076,288.889s2.863-2.4-2.875-5.884c0,0,4.795-.163,5.228,5.716Z" transform="translate(-4540.852 -248.057)" fill="#c9801b"/>
        <path id="Trazado_10323" data-name="Trazado 10323" d="M4576.365,252.791s2.968,4.585-2.943,5.883c0,0,4.569.541,7.723-6.251Z" transform="translate(-4541.432 -246.892)" fill="#c9801b"/>
        <path id="Trazado_10324" data-name="Trazado 10324" d="M4559.56,252.761s3.075.762-1.4,5.894c0,0,2.022-3.193-1.123-7.02Z" transform="translate(-4540.807 -246.862)" fill="#c9801b"/>
      </g>
      <g id="Grupo_3735" data-name="Grupo 3735" transform="translate(36.499 81.721)">
        <path id="Trazado_10325" data-name="Trazado 10325" d="M4614.05,255.256s-6.619-6.251-8.457-5.883-7.723,5.883-7.723,5.883l-6.619-2.949-2.542,2.949-2.239,5.515-2.206,2.941-3.31,2.567-1.838,2.949v4.412a35.582,35.582,0,0,1,2.574,4.412c.367,1.1,3.677,6.986,3.677,6.986s2.271,4.781,3.342,5.516a29.072,29.072,0,0,0,5.116,1.838h2.758l2.758-2.207,5.148-.367,2.574.367,1.731,2.207s1.211,2.207,3.049,1.838,8.458-3.676,8.458-3.676l3.471-6.251,1.286-4.412,2.229-5.516v-6.25l-2.229-7.722-6.227-5.515Z" transform="translate(-4578.147 -246.775)" fill="#8e621f"/>
        <path id="Trazado_10326" data-name="Trazado 10326" d="M4613.041,252.572s-6.619-6.251-8.457-5.884-7.722,5.884-7.722,5.884l-6.619-2.95-2.542,2.95-2.239,5.516-2.206,2.941-3.31,2.567-1.838,2.948v4.412a35.593,35.593,0,0,1,2.575,4.413c.367,1.1,3.677,6.986,3.677,6.986s2.271,4.78,3.342,5.516a28.966,28.966,0,0,0,5.115,1.838h2.758l2.758-2.206,5.148-.368,2.574.368,1.73,2.206s1.211,2.207,3.05,1.839,8.457-3.677,8.457-3.677l3.471-6.251,1.286-4.412,2.229-5.516v-6.251l-2.229-7.722-6.228-5.516Z" transform="translate(-4578.108 -246.673)" fill="#bb9b48"/>
        <path id="Trazado_10327" data-name="Trazado 10327" d="M4612,279.183s2.968,8.837,7.933,7.548c0,0-9.65-1.3-11.335-3.872Z" transform="translate(-4579.271 -247.912)" fill="#c9801b"/>
        <path id="Trazado_10328" data-name="Trazado 10328" d="M4613.941,267.583s3.521-3.456,7.934,2.219c0,0,.679-5.368-10.507-5.535Z" transform="translate(-4579.376 -247.343)" fill="#c9801b"/>
        <path id="Trazado_10329" data-name="Trazado 10329" d="M4603,258.644a13.345,13.345,0,0,1-.083-7.009s-3.877,2.4-3.723,8.848Z" transform="translate(-4578.912 -246.862)" fill="#c9801b"/>
        <path id="Trazado_10330" data-name="Trazado 10330" d="M4589.4,268.971a10.19,10.19,0,0,0-8.372-2.027s6.519,2.667,9.95,5.536Z" transform="translate(-4578.22 -247.438)" fill="#c9801b"/>
        <g id="Grupo_3734" data-name="Grupo 3734" transform="translate(10.509 11.782)">
          <path id="Trazado_10331" data-name="Trazado 10331" d="M4602.61,258.922l7.906,5.141,2.574,3.316v6.251l-1.838,4.781-3.4,3.676h-9.835l-5.517-5.516-3.463-6.067,2.361-6.442s1.1-1.832,2.206-2.2,7.461-2.941,7.461-2.941Z" transform="translate(-4589.034 -258.922)" fill="#744d29"/>
          <path id="Trazado_10332" data-name="Trazado 10332" d="M4602.379,260.833l5.9,4.162,1.92,2.685v5.061l-1.371,3.87-2.537,2.976h-7.338l-4.114-4.465-2.583-4.911,1.761-5.214s.822-1.483,1.646-1.78,5.565-2.382,5.565-2.382Z" transform="translate(-4589.157 -258.995)" fill="#9d5e00"/>
          <circle id="Elipse_1147" data-name="Elipse 1147" cx="1.466" cy="1.466" r="1.466" transform="translate(12.028 8.284)" fill="#7f4817"/>
          <circle id="Elipse_1148" data-name="Elipse 1148" cx="1.466" cy="1.466" r="1.466" transform="translate(12.028 11.793)" fill="#7f4817"/>
          <circle id="Elipse_1149" data-name="Elipse 1149" cx="1.466" cy="1.466" r="1.466" transform="translate(6.84 11.793)" fill="#7f4817"/>
        </g>
        <path id="Trazado_10333" data-name="Trazado 10333" d="M4599.02,288.889s2.863-2.4-2.875-5.884c0,0,4.795-.163,5.228,5.716Z" transform="translate(-4578.796 -248.057)" fill="#c9801b"/>
        <path id="Trazado_10334" data-name="Trazado 10334" d="M4614.308,252.791s2.97,4.585-2.941,5.883c0,0,4.568.541,7.722-6.251Z" transform="translate(-4579.376 -246.892)" fill="#c9801b"/>
        <path id="Trazado_10335" data-name="Trazado 10335" d="M4597.5,252.761s3.075.762-1.4,5.894c0,0,2.023-3.193-1.123-7.02Z" transform="translate(-4578.752 -246.862)" fill="#c9801b"/>
      </g>
      <g id="Grupo_3737" data-name="Grupo 3737" transform="translate(78.838 81.175)">
        <path id="Trazado_10336" data-name="Trazado 10336" d="M4658.311,254.746s-6.664-6.293-8.515-5.922-7.774,5.922-7.774,5.922l-6.664-2.969-2.558,2.969-2.255,5.553-2.221,2.962-3.332,2.585-1.851,2.968v4.443a35.736,35.736,0,0,1,2.591,4.442c.371,1.11,3.7,7.033,3.7,7.033s2.287,4.812,3.365,5.553a29.178,29.178,0,0,0,5.149,1.851h2.777l2.776-2.221,5.182-.37,2.592.37,1.743,2.221s1.219,2.222,3.07,1.852,8.514-3.7,8.514-3.7l3.494-6.294,1.295-4.442,2.245-5.553V267.7l-2.245-7.774-6.27-5.553Z" transform="translate(-4622.165 -246.208)" fill="#8e621f"/>
        <path id="Trazado_10337" data-name="Trazado 10337" d="M4657.295,252.044s-6.663-6.294-8.515-5.923-7.774,5.923-7.774,5.923l-6.663-2.969-2.559,2.969-2.253,5.553-2.221,2.962-3.333,2.585-1.852,2.967v4.443a35.683,35.683,0,0,1,2.591,4.442c.371,1.111,3.7,7.033,3.7,7.033s2.287,4.813,3.364,5.553a29.2,29.2,0,0,0,5.15,1.852h2.776l2.777-2.221,5.183-.37,2.591.37,1.742,2.221s1.22,2.221,3.07,1.851,8.515-3.7,8.515-3.7l3.494-6.293,1.294-4.443,2.245-5.552V265l-2.245-7.774-6.27-5.553Z" transform="translate(-4622.126 -246.105)" fill="#bb9b48"/>
        <path id="Trazado_10338" data-name="Trazado 10338" d="M4656.243,278.834s2.988,8.9,7.988,7.6c0,0-9.716-1.306-11.412-3.9Z" transform="translate(-4623.295 -247.352)" fill="#c9801b"/>
        <path id="Trazado_10339" data-name="Trazado 10339" d="M4658.2,267.156s3.545-3.479,7.987,2.234c0,0,.684-5.4-10.579-5.572Z" transform="translate(-4623.402 -246.78)" fill="#c9801b"/>
        <path id="Trazado_10340" data-name="Trazado 10340" d="M4647.183,258.157a13.436,13.436,0,0,1-.084-7.057s-3.9,2.419-3.747,8.908Z" transform="translate(-4622.935 -246.295)" fill="#c9801b"/>
        <path id="Trazado_10341" data-name="Trazado 10341" d="M4633.5,268.553a10.258,10.258,0,0,0-8.429-2.04s6.563,2.686,10.017,5.573Z" transform="translate(-4622.238 -246.875)" fill="#c9801b"/>
        <g id="Grupo_3736" data-name="Grupo 3736" transform="translate(10.581 11.862)">
          <path id="Trazado_10342" data-name="Trazado 10342" d="M4646.793,258.437l7.958,5.176,2.592,3.338v6.294l-1.851,4.812-3.424,3.7h-9.9l-5.553-5.553-3.487-6.108,2.377-6.485s1.11-1.845,2.221-2.215,7.511-2.961,7.511-2.961Z" transform="translate(-4633.126 -258.437)" fill="#744d29"/>
          <path id="Trazado_10343" data-name="Trazado 10343" d="M4646.561,260.361l5.937,4.19,1.933,2.7v5.094l-1.381,3.9-2.554,3h-7.386l-4.142-4.5-2.6-4.944,1.772-5.25s.829-1.493,1.657-1.793,5.6-2.4,5.6-2.4Z" transform="translate(-4633.25 -258.51)" fill="#9d5e00"/>
          <circle id="Elipse_1150" data-name="Elipse 1150" cx="1.475" cy="1.475" r="1.475" transform="translate(12.109 8.339)" fill="#7f4817"/>
          <circle id="Elipse_1151" data-name="Elipse 1151" cx="1.475" cy="1.475" r="1.475" transform="translate(12.109 11.872)" fill="#7f4817"/>
          <circle id="Elipse_1152" data-name="Elipse 1152" cx="1.475" cy="1.475" r="1.475" transform="translate(6.886 11.872)" fill="#7f4817"/>
        </g>
        <path id="Trazado_10344" data-name="Trazado 10344" d="M4643.179,288.606s2.883-2.417-2.894-5.923c0,0,4.828-.164,5.262,5.754Z" transform="translate(-4622.818 -247.499)" fill="#c9801b"/>
        <path id="Trazado_10345" data-name="Trazado 10345" d="M4658.571,252.264s2.989,4.617-2.962,5.923c0,0,4.6.544,7.774-6.294Z" transform="translate(-4623.402 -246.325)" fill="#c9801b"/>
        <path id="Trazado_10346" data-name="Trazado 10346" d="M4641.653,252.234s3.1.768-1.413,5.933c0,0,2.036-3.214-1.13-7.067Z" transform="translate(-4622.773 -246.295)" fill="#c9801b"/>
      </g>
      <g id="Grupo_3739" data-name="Grupo 3739" transform="translate(0 51.778)">
        <path id="Trazado_10347" data-name="Trazado 10347" d="M4576.1,224.126s-6.619-6.251-8.457-5.883-7.722,5.883-7.722,5.883l-6.619-2.949-2.542,2.949-2.239,5.515-2.207,2.941-3.309,2.567-1.839,2.948v4.413a35.512,35.512,0,0,1,2.574,4.412c.368,1.1,3.677,6.986,3.677,6.986s2.272,4.781,3.342,5.516a28.99,28.99,0,0,0,5.115,1.839h2.758l2.758-2.207,5.148-.367,2.574.367,1.731,2.207s1.21,2.207,3.049,1.838,8.457-3.677,8.457-3.677l3.472-6.25,1.285-4.413,2.229-5.515V237l-2.229-7.722-6.228-5.515Z" transform="translate(-4540.203 -215.645)" fill="#8e621f"/>
        <path id="Trazado_10348" data-name="Trazado 10348" d="M4575.1,221.441s-6.619-6.25-8.458-5.883-7.722,5.883-7.722,5.883l-6.618-2.949-2.541,2.949-2.239,5.516-2.207,2.941L4542,232.467l-1.839,2.948v4.412a35.487,35.487,0,0,1,2.574,4.413c.369,1.1,3.678,6.986,3.678,6.986s2.271,4.78,3.342,5.515a29.029,29.029,0,0,0,5.115,1.838h2.759l2.757-2.206,5.147-.368,2.574.368,1.732,2.206s1.211,2.207,3.049,1.839,8.457-3.677,8.457-3.677l3.472-6.251,1.285-4.412,2.231-5.515v-6.251l-2.231-7.722-6.227-5.515Z" transform="translate(-4540.164 -215.543)" fill="#bb9b48"/>
        <path id="Trazado_10349" data-name="Trazado 10349" d="M4574.052,248.052s2.968,8.838,7.934,7.549c0,0-9.651-1.3-11.335-3.872Z" transform="translate(-4541.326 -216.782)" fill="#c9801b"/>
        <path id="Trazado_10350" data-name="Trazado 10350" d="M4576,236.453s3.521-3.456,7.934,2.219c0,0,.68-5.368-10.508-5.535Z" transform="translate(-4541.432 -216.213)" fill="#c9801b"/>
        <path id="Trazado_10351" data-name="Trazado 10351" d="M4565.052,227.514a13.342,13.342,0,0,1-.082-7.009s-3.878,2.4-3.723,8.847Z" transform="translate(-4540.967 -215.732)" fill="#c9801b"/>
        <path id="Trazado_10352" data-name="Trazado 10352" d="M4551.457,237.841a10.19,10.19,0,0,0-8.372-2.027s6.518,2.667,9.949,5.536Z" transform="translate(-4540.275 -216.308)" fill="#c9801b"/>
        <g id="Grupo_3738" data-name="Grupo 3738" transform="translate(10.509 11.782)">
          <path id="Trazado_10353" data-name="Trazado 10353" d="M4564.666,227.792l7.905,5.141,2.574,3.316V242.5l-1.838,4.78-3.4,3.677h-9.836l-5.516-5.515-3.464-6.067,2.361-6.442s1.1-1.832,2.207-2.2,7.46-2.941,7.46-2.941Z" transform="translate(-4551.09 -227.792)" fill="#744d29"/>
          <path id="Trazado_10354" data-name="Trazado 10354" d="M4564.435,229.7l5.9,4.162,1.92,2.685v5.061l-1.372,3.87-2.537,2.976h-7.337l-4.114-4.465-2.583-4.911,1.76-5.214s.823-1.483,1.646-1.78,5.565-2.382,5.565-2.382Z" transform="translate(-4551.212 -227.865)" fill="#9d5e00"/>
          <circle id="Elipse_1153" data-name="Elipse 1153" cx="1.466" cy="1.466" r="1.466" transform="translate(12.028 8.284)" fill="#7f4817"/>
          <circle id="Elipse_1154" data-name="Elipse 1154" cx="1.466" cy="1.466" r="1.466" transform="translate(12.028 11.793)" fill="#7f4817"/>
          <circle id="Elipse_1155" data-name="Elipse 1155" cx="1.466" cy="1.466" r="1.466" transform="translate(6.84 11.793)" fill="#7f4817"/>
        </g>
        <path id="Trazado_10355" data-name="Trazado 10355" d="M4561.076,257.759s2.863-2.4-2.875-5.884c0,0,4.795-.163,5.228,5.716Z" transform="translate(-4540.852 -216.927)" fill="#c9801b"/>
        <path id="Trazado_10356" data-name="Trazado 10356" d="M4576.365,221.66s2.968,4.586-2.943,5.884c0,0,4.569.541,7.723-6.251Z" transform="translate(-4541.432 -215.762)" fill="#c9801b"/>
        <path id="Trazado_10357" data-name="Trazado 10357" d="M4559.56,221.63s3.075.763-1.4,5.894c0,0,2.022-3.192-1.123-7.019Z" transform="translate(-4540.807 -215.732)" fill="#c9801b"/>
      </g>
      <g id="Grupo_3741" data-name="Grupo 3741" transform="translate(36.499 51.778)">
        <path id="Trazado_10358" data-name="Trazado 10358" d="M4614.05,224.126s-6.619-6.251-8.457-5.883-7.723,5.883-7.723,5.883l-6.619-2.949-2.542,2.949-2.239,5.515-2.206,2.941-3.31,2.567-1.838,2.948v4.413a35.585,35.585,0,0,1,2.574,4.412c.367,1.1,3.677,6.986,3.677,6.986s2.271,4.781,3.342,5.516a29.019,29.019,0,0,0,5.116,1.839h2.758l2.758-2.207,5.148-.367,2.574.367,1.731,2.207s1.211,2.207,3.049,1.838,8.458-3.677,8.458-3.677l3.471-6.25,1.286-4.413,2.229-5.515V237l-2.229-7.722-6.227-5.515Z" transform="translate(-4578.147 -215.645)" fill="#8e621f"/>
        <path id="Trazado_10359" data-name="Trazado 10359" d="M4613.041,221.441s-6.619-6.25-8.457-5.883-7.722,5.883-7.722,5.883l-6.619-2.949-2.542,2.949-2.239,5.516-2.206,2.941-3.31,2.567-1.838,2.948v4.412a35.591,35.591,0,0,1,2.575,4.413c.367,1.1,3.677,6.986,3.677,6.986s2.271,4.78,3.342,5.515a29.045,29.045,0,0,0,5.115,1.838h2.758l2.758-2.206,5.148-.368,2.574.368,1.73,2.206s1.211,2.207,3.05,1.839,8.457-3.677,8.457-3.677l3.471-6.251,1.286-4.412,2.229-5.515v-6.251l-2.229-7.722-6.228-5.515Z" transform="translate(-4578.108 -215.543)" fill="#bb9b48"/>
        <path id="Trazado_10360" data-name="Trazado 10360" d="M4612,248.052s2.968,8.838,7.933,7.549c0,0-9.65-1.3-11.335-3.872Z" transform="translate(-4579.271 -216.782)" fill="#c9801b"/>
        <path id="Trazado_10361" data-name="Trazado 10361" d="M4613.941,236.453s3.521-3.456,7.934,2.219c0,0,.679-5.368-10.507-5.535Z" transform="translate(-4579.376 -216.213)" fill="#c9801b"/>
        <path id="Trazado_10362" data-name="Trazado 10362" d="M4603,227.514a13.345,13.345,0,0,1-.083-7.009s-3.877,2.4-3.723,8.847Z" transform="translate(-4578.912 -215.732)" fill="#c9801b"/>
        <path id="Trazado_10363" data-name="Trazado 10363" d="M4589.4,237.841a10.19,10.19,0,0,0-8.372-2.027s6.519,2.667,9.95,5.536Z" transform="translate(-4578.22 -216.308)" fill="#c9801b"/>
        <g id="Grupo_3740" data-name="Grupo 3740" transform="translate(10.509 11.782)">
          <path id="Trazado_10364" data-name="Trazado 10364" d="M4602.61,227.792l7.906,5.141,2.574,3.316V242.5l-1.838,4.78-3.4,3.677h-9.835l-5.517-5.515-3.463-6.067,2.361-6.442s1.1-1.832,2.206-2.2,7.461-2.941,7.461-2.941Z" transform="translate(-4589.034 -227.792)" fill="#744d29"/>
          <path id="Trazado_10365" data-name="Trazado 10365" d="M4602.379,229.7l5.9,4.162,1.92,2.685v5.061l-1.371,3.87-2.537,2.976h-7.338l-4.114-4.465-2.583-4.911,1.761-5.214s.822-1.483,1.646-1.78,5.565-2.382,5.565-2.382Z" transform="translate(-4589.157 -227.865)" fill="#9d5e00"/>
          <circle id="Elipse_1156" data-name="Elipse 1156" cx="1.466" cy="1.466" r="1.466" transform="translate(12.028 8.284)" fill="#7f4817"/>
          <circle id="Elipse_1157" data-name="Elipse 1157" cx="1.466" cy="1.466" r="1.466" transform="translate(12.028 11.793)" fill="#7f4817"/>
          <circle id="Elipse_1158" data-name="Elipse 1158" cx="1.466" cy="1.466" r="1.466" transform="translate(6.84 11.793)" fill="#7f4817"/>
        </g>
        <path id="Trazado_10366" data-name="Trazado 10366" d="M4599.02,257.759s2.863-2.4-2.875-5.884c0,0,4.795-.163,5.228,5.716Z" transform="translate(-4578.796 -216.927)" fill="#c9801b"/>
        <path id="Trazado_10367" data-name="Trazado 10367" d="M4614.308,221.66s2.97,4.586-2.941,5.884c0,0,4.568.541,7.722-6.251Z" transform="translate(-4579.376 -215.762)" fill="#c9801b"/>
        <path id="Trazado_10368" data-name="Trazado 10368" d="M4597.5,221.63s3.075.763-1.4,5.894c0,0,2.023-3.192-1.123-7.019Z" transform="translate(-4578.752 -215.732)" fill="#c9801b"/>
      </g>
      <g id="Grupo_3743" data-name="Grupo 3743" transform="translate(79.005 51.778)">
        <path id="Trazado_10369" data-name="Trazado 10369" d="M4658.24,224.126s-6.619-6.251-8.457-5.883-7.722,5.883-7.722,5.883l-6.619-2.949-2.541,2.949-2.239,5.515-2.206,2.941-3.31,2.567-1.838,2.948v4.413a35.461,35.461,0,0,1,2.574,4.412c.368,1.1,3.678,6.986,3.678,6.986s2.271,4.781,3.341,5.516a29,29,0,0,0,5.115,1.839h2.758l2.758-2.207,5.148-.367,2.574.367,1.731,2.207s1.211,2.207,3.05,1.838,8.457-3.677,8.457-3.677l3.471-6.25,1.286-4.413,2.23-5.515V237l-2.23-7.722-6.227-5.515Z" transform="translate(-4622.337 -215.645)" fill="#8e621f"/>
        <path id="Trazado_10370" data-name="Trazado 10370" d="M4657.231,221.441s-6.619-6.25-8.457-5.883-7.723,5.883-7.723,5.883l-6.619-2.949-2.542,2.949-2.238,5.516-2.207,2.941-3.309,2.567-1.839,2.948v4.412a35.539,35.539,0,0,1,2.574,4.413c.367,1.1,3.677,6.986,3.677,6.986s2.272,4.78,3.342,5.515a29.045,29.045,0,0,0,5.115,1.838h2.758l2.758-2.206,5.147-.368,2.574.368,1.731,2.206s1.21,2.207,3.049,1.839,8.457-3.677,8.457-3.677l3.472-6.251,1.285-4.412,2.229-5.515v-6.251l-2.229-7.722-6.228-5.515Z" transform="translate(-4622.299 -215.543)" fill="#bb9b48"/>
        <path id="Trazado_10371" data-name="Trazado 10371" d="M4656.187,248.052s2.969,8.838,7.934,7.549c0,0-9.65-1.3-11.335-3.872Z" transform="translate(-4623.46 -216.782)" fill="#c9801b"/>
        <path id="Trazado_10372" data-name="Trazado 10372" d="M4658.131,236.453s3.521-3.456,7.934,2.219c0,0,.68-5.368-10.507-5.535Z" transform="translate(-4623.566 -216.213)" fill="#c9801b"/>
        <path id="Trazado_10373" data-name="Trazado 10373" d="M4647.187,227.514a13.345,13.345,0,0,1-.083-7.009s-3.877,2.4-3.722,8.847Z" transform="translate(-4623.102 -215.732)" fill="#c9801b"/>
        <path id="Trazado_10374" data-name="Trazado 10374" d="M4633.591,237.841a10.188,10.188,0,0,0-8.372-2.027s6.519,2.667,9.949,5.536Z" transform="translate(-4622.41 -216.308)" fill="#c9801b"/>
        <g id="Grupo_3742" data-name="Grupo 3742" transform="translate(10.51 11.782)">
          <path id="Trazado_10375" data-name="Trazado 10375" d="M4646.8,227.792l7.906,5.141,2.574,3.316V242.5l-1.838,4.78-3.4,3.677H4642.2l-5.515-5.515-3.464-6.067,2.36-6.442s1.1-1.832,2.206-2.2,7.461-2.941,7.461-2.941Z" transform="translate(-4633.225 -227.792)" fill="#744d29"/>
          <path id="Trazado_10376" data-name="Trazado 10376" d="M4646.57,229.7l5.9,4.162,1.92,2.685v5.061l-1.372,3.87-2.537,2.976h-7.336l-4.115-4.465-2.583-4.911,1.761-5.214s.822-1.483,1.646-1.78,5.566-2.382,5.566-2.382Z" transform="translate(-4633.348 -227.865)" fill="#9d5e00"/>
          <circle id="Elipse_1159" data-name="Elipse 1159" cx="1.466" cy="1.466" r="1.466" transform="translate(12.027 8.284)" fill="#7f4817"/>
          <circle id="Elipse_1160" data-name="Elipse 1160" cx="1.466" cy="1.466" r="1.466" transform="translate(12.027 11.793)" fill="#7f4817"/>
          <circle id="Elipse_1161" data-name="Elipse 1161" cx="1.466" cy="1.466" r="1.466" transform="translate(6.839 11.793)" fill="#7f4817"/>
        </g>
        <path id="Trazado_10377" data-name="Trazado 10377" d="M4643.21,257.759s2.863-2.4-2.875-5.884c0,0,4.8-.163,5.229,5.716Z" transform="translate(-4622.986 -216.927)" fill="#c9801b"/>
        <path id="Trazado_10378" data-name="Trazado 10378" d="M4658.5,221.66s2.969,4.586-2.941,5.884c0,0,4.569.541,7.722-6.251Z" transform="translate(-4623.566 -215.762)" fill="#c9801b"/>
        <path id="Trazado_10379" data-name="Trazado 10379" d="M4641.695,221.63s3.076.763-1.4,5.894c0,0,2.023-3.192-1.122-7.019Z" transform="translate(-4622.942 -215.732)" fill="#c9801b"/>
      </g>
      <g id="Grupo_3745" data-name="Grupo 3745" transform="translate(119.774 114.743)">
        <path id="Trazado_10380" data-name="Trazado 10380" d="M4700.866,289.645s-6.663-6.294-8.514-5.923-7.774,5.923-7.774,5.923l-6.664-2.969-2.559,2.969L4673.1,295.2l-2.222,2.962-3.331,2.585-1.851,2.967v4.443a35.757,35.757,0,0,1,2.591,4.442c.37,1.111,3.7,7.033,3.7,7.033s2.287,4.813,3.364,5.553a29.186,29.186,0,0,0,5.15,1.852h2.776l2.777-2.221,5.183-.37,2.592.37,1.741,2.221s1.22,2.221,3.071,1.851,8.515-3.7,8.515-3.7l3.495-6.293,1.293-4.443,2.246-5.552V302.6l-2.246-7.774-6.269-5.553Z" transform="translate(-4664.722 -281.106)" fill="#8e621f"/>
        <path id="Trazado_10381" data-name="Trazado 10381" d="M4699.851,286.942s-6.663-6.294-8.514-5.923-7.774,5.923-7.774,5.923l-6.664-2.969-2.559,2.969-2.254,5.553-2.221,2.962-3.332,2.585-1.851,2.968v4.442a35.808,35.808,0,0,1,2.591,4.442c.37,1.111,3.7,7.034,3.7,7.034s2.288,4.812,3.365,5.553a29.286,29.286,0,0,0,5.15,1.851h2.777l2.776-2.221,5.182-.37,2.592.37,1.743,2.221s1.219,2.221,3.069,1.851,8.515-3.7,8.515-3.7l3.494-6.294,1.295-4.442,2.244-5.553V299.9l-2.244-7.774-6.27-5.553Z" transform="translate(-4664.683 -281.003)" fill="#bb9b48"/>
        <path id="Trazado_10382" data-name="Trazado 10382" d="M4698.8,313.732s2.988,8.9,7.986,7.6c0,0-9.714-1.306-11.411-3.9Z" transform="translate(-4665.853 -282.25)" fill="#c9801b"/>
        <path id="Trazado_10383" data-name="Trazado 10383" d="M4700.757,302.055s3.545-3.48,7.987,2.233c0,0,.685-5.4-10.578-5.572Z" transform="translate(-4665.959 -281.678)" fill="#c9801b"/>
        <path id="Trazado_10384" data-name="Trazado 10384" d="M4689.739,293.055a13.429,13.429,0,0,1-.083-7.056s-3.9,2.418-3.748,8.907Z" transform="translate(-4665.492 -281.193)" fill="#c9801b"/>
        <path id="Trazado_10385" data-name="Trazado 10385" d="M4676.051,303.451a10.252,10.252,0,0,0-8.428-2.039s6.562,2.685,10.017,5.572Z" transform="translate(-4664.795 -281.773)" fill="#c9801b"/>
        <g id="Grupo_3744" data-name="Grupo 3744" transform="translate(10.58 11.862)">
          <path id="Trazado_10386" data-name="Trazado 10386" d="M4689.35,293.335l7.96,5.176,2.591,3.339v6.293l-1.851,4.812-3.425,3.7h-9.9l-5.553-5.553L4675.682,305l2.377-6.485s1.11-1.844,2.221-2.214,7.512-2.962,7.512-2.962Z" transform="translate(-4675.682 -293.335)" fill="#744d29"/>
          <path id="Trazado_10387" data-name="Trazado 10387" d="M4689.117,295.259l5.937,4.19,1.934,2.7v5.094l-1.38,3.9-2.555,3h-7.386l-4.142-4.495-2.6-4.945,1.773-5.25s.828-1.493,1.656-1.792,5.6-2.4,5.6-2.4Z" transform="translate(-4675.805 -293.408)" fill="#9d5e00"/>
          <circle id="Elipse_1162" data-name="Elipse 1162" cx="1.475" cy="1.475" r="1.475" transform="translate(12.109 8.34)" fill="#7f4817"/>
          <circle id="Elipse_1163" data-name="Elipse 1163" cx="1.475" cy="1.475" r="1.475" transform="translate(12.109 11.873)" fill="#7f4817"/>
          <circle id="Elipse_1164" data-name="Elipse 1164" cx="1.475" cy="1.475" r="1.475" transform="translate(6.886 11.873)" fill="#7f4817"/>
        </g>
        <path id="Trazado_10388" data-name="Trazado 10388" d="M4685.735,323.5s2.883-2.417-2.895-5.923c0,0,4.828-.164,5.264,5.754Z" transform="translate(-4665.375 -282.397)" fill="#c9801b"/>
        <path id="Trazado_10389" data-name="Trazado 10389" d="M4701.126,287.162s2.99,4.617-2.96,5.923c0,0,4.6.544,7.774-6.294Z" transform="translate(-4665.959 -281.223)" fill="#c9801b"/>
        <path id="Trazado_10390" data-name="Trazado 10390" d="M4684.21,287.132s3.1.768-1.414,5.934c0,0,2.036-3.214-1.13-7.067Z" transform="translate(-4665.33 -281.193)" fill="#c9801b"/>
      </g>
      <g id="Grupo_3747" data-name="Grupo 3747" transform="translate(119.774 81.175)">
        <path id="Trazado_10391" data-name="Trazado 10391" d="M4700.866,254.746s-6.663-6.293-8.514-5.922-7.774,5.922-7.774,5.922l-6.664-2.969-2.559,2.969L4673.1,260.3l-2.222,2.962-3.331,2.585-1.851,2.968v4.443a35.684,35.684,0,0,1,2.591,4.442c.37,1.11,3.7,7.033,3.7,7.033s2.287,4.812,3.364,5.553a29.167,29.167,0,0,0,5.15,1.851h2.776l2.777-2.221,5.183-.37,2.592.37,1.741,2.221s1.22,2.222,3.071,1.852,8.515-3.7,8.515-3.7l3.495-6.294,1.293-4.442,2.246-5.553V267.7l-2.246-7.774-6.269-5.553Z" transform="translate(-4664.722 -246.208)" fill="#8e621f"/>
        <path id="Trazado_10392" data-name="Trazado 10392" d="M4699.851,252.044s-6.663-6.294-8.514-5.923-7.774,5.923-7.774,5.923l-6.664-2.969-2.559,2.969-2.254,5.553-2.221,2.962-3.332,2.585-1.851,2.967v4.443a35.807,35.807,0,0,1,2.591,4.442c.37,1.111,3.7,7.033,3.7,7.033s2.288,4.813,3.365,5.553a29.231,29.231,0,0,0,5.15,1.852h2.777l2.776-2.221,5.182-.37,2.592.37,1.743,2.221s1.219,2.221,3.069,1.851,8.515-3.7,8.515-3.7l3.494-6.293,1.295-4.443,2.244-5.552V265l-2.244-7.774-6.27-5.553Z" transform="translate(-4664.683 -246.105)" fill="#bb9b48"/>
        <path id="Trazado_10393" data-name="Trazado 10393" d="M4698.8,278.834s2.988,8.9,7.986,7.6c0,0-9.714-1.306-11.411-3.9Z" transform="translate(-4665.853 -247.352)" fill="#c9801b"/>
        <path id="Trazado_10394" data-name="Trazado 10394" d="M4700.757,267.156s3.545-3.479,7.987,2.234c0,0,.685-5.4-10.578-5.572Z" transform="translate(-4665.959 -246.78)" fill="#c9801b"/>
        <path id="Trazado_10395" data-name="Trazado 10395" d="M4689.739,258.157a13.434,13.434,0,0,1-.083-7.057s-3.9,2.419-3.748,8.908Z" transform="translate(-4665.492 -246.295)" fill="#c9801b"/>
        <path id="Trazado_10396" data-name="Trazado 10396" d="M4676.051,268.553a10.254,10.254,0,0,0-8.428-2.04s6.562,2.686,10.017,5.573Z" transform="translate(-4664.795 -246.875)" fill="#c9801b"/>
        <g id="Grupo_3746" data-name="Grupo 3746" transform="translate(10.58 11.862)">
          <path id="Trazado_10397" data-name="Trazado 10397" d="M4689.35,258.437l7.96,5.176,2.591,3.338v6.294l-1.851,4.812-3.425,3.7h-9.9l-5.553-5.553-3.487-6.108,2.377-6.485s1.11-1.845,2.221-2.215,7.512-2.961,7.512-2.961Z" transform="translate(-4675.682 -258.437)" fill="#744d29"/>
          <path id="Trazado_10398" data-name="Trazado 10398" d="M4689.117,260.361l5.937,4.19,1.934,2.7v5.094l-1.38,3.9-2.555,3h-7.386l-4.142-4.5-2.6-4.944,1.773-5.25s.828-1.493,1.656-1.793,5.6-2.4,5.6-2.4Z" transform="translate(-4675.805 -258.51)" fill="#9d5e00"/>
          <circle id="Elipse_1165" data-name="Elipse 1165" cx="1.475" cy="1.475" r="1.475" transform="translate(12.109 8.339)" fill="#7f4817"/>
          <circle id="Elipse_1166" data-name="Elipse 1166" cx="1.475" cy="1.475" r="1.475" transform="translate(12.109 11.872)" fill="#7f4817"/>
          <circle id="Elipse_1167" data-name="Elipse 1167" cx="1.475" cy="1.475" r="1.475" transform="translate(6.886 11.872)" fill="#7f4817"/>
        </g>
        <path id="Trazado_10399" data-name="Trazado 10399" d="M4685.735,288.606s2.883-2.417-2.895-5.923c0,0,4.828-.164,5.264,5.754Z" transform="translate(-4665.375 -247.499)" fill="#c9801b"/>
        <path id="Trazado_10400" data-name="Trazado 10400" d="M4701.126,252.264s2.99,4.617-2.96,5.923c0,0,4.6.544,7.774-6.294Z" transform="translate(-4665.959 -246.325)" fill="#c9801b"/>
        <path id="Trazado_10401" data-name="Trazado 10401" d="M4684.21,252.234s3.1.768-1.414,5.933c0,0,2.036-3.214-1.13-7.067Z" transform="translate(-4665.33 -246.295)" fill="#c9801b"/>
      </g>
      <g id="Grupo_3749" data-name="Grupo 3749" transform="translate(119.939 51.778)">
        <path id="Trazado_10402" data-name="Trazado 10402" d="M4700.8,224.126s-6.619-6.251-8.457-5.883-7.722,5.883-7.722,5.883L4678,221.177l-2.542,2.949-2.238,5.515-2.207,2.941-3.309,2.567-1.839,2.948v4.413a35.45,35.45,0,0,1,2.574,4.412c.367,1.1,3.677,6.986,3.677,6.986s2.272,4.781,3.342,5.516a29,29,0,0,0,5.115,1.839h2.758l2.758-2.207,5.148-.367,2.574.367,1.731,2.207s1.21,2.207,3.049,1.838,8.457-3.677,8.457-3.677l3.471-6.25,1.285-4.413,2.229-5.515V237l-2.229-7.722-6.228-5.515Z" transform="translate(-4664.894 -215.645)" fill="#8e621f"/>
        <path id="Trazado_10403" data-name="Trazado 10403" d="M4699.788,221.441s-6.619-6.25-8.458-5.883-7.721,5.883-7.721,5.883l-6.619-2.949-2.542,2.949-2.239,5.516L4670,229.9l-3.309,2.567-1.839,2.948v4.412a35.539,35.539,0,0,1,2.574,4.413c.369,1.1,3.677,6.986,3.677,6.986s2.272,4.78,3.343,5.515a29.014,29.014,0,0,0,5.114,1.838h2.759l2.757-2.206,5.147-.368,2.574.368,1.731,2.206s1.211,2.207,3.049,1.839,8.457-3.677,8.457-3.677l3.471-6.251,1.287-4.412,2.229-5.515v-6.251l-2.229-7.722-6.229-5.515Z" transform="translate(-4664.855 -215.543)" fill="#bb9b48"/>
        <path id="Trazado_10404" data-name="Trazado 10404" d="M4698.743,248.052s2.968,8.838,7.934,7.549c0,0-9.651-1.3-11.335-3.872Z" transform="translate(-4666.017 -216.782)" fill="#c9801b"/>
        <path id="Trazado_10405" data-name="Trazado 10405" d="M4700.687,236.453s3.521-3.456,7.934,2.219c0,0,.68-5.368-10.508-5.535Z" transform="translate(-4666.123 -216.213)" fill="#c9801b"/>
        <path id="Trazado_10406" data-name="Trazado 10406" d="M4689.744,227.514a13.333,13.333,0,0,1-.083-7.009s-3.879,2.4-3.723,8.847Z" transform="translate(-4665.659 -215.732)" fill="#c9801b"/>
        <path id="Trazado_10407" data-name="Trazado 10407" d="M4676.147,237.841a10.188,10.188,0,0,0-8.372-2.027s6.519,2.667,9.949,5.536Z" transform="translate(-4664.966 -216.308)" fill="#c9801b"/>
        <g id="Grupo_3748" data-name="Grupo 3748" transform="translate(10.509 11.782)">
          <path id="Trazado_10408" data-name="Trazado 10408" d="M4689.357,227.792l7.9,5.141,2.574,3.316V242.5L4698,247.28l-3.4,3.677h-9.836l-5.516-5.515-3.464-6.067,2.36-6.442s1.1-1.832,2.207-2.2,7.461-2.941,7.461-2.941Z" transform="translate(-4675.781 -227.792)" fill="#744d29"/>
          <path id="Trazado_10409" data-name="Trazado 10409" d="M4689.126,229.7l5.9,4.162,1.92,2.685v5.061l-1.372,3.87-2.536,2.976H4685.7l-4.113-4.465L4679,239.08l1.761-5.214s.823-1.483,1.646-1.78,5.565-2.382,5.565-2.382Z" transform="translate(-4675.903 -227.865)" fill="#9d5e00"/>
          <circle id="Elipse_1168" data-name="Elipse 1168" cx="1.466" cy="1.466" r="1.466" transform="translate(12.028 8.284)" fill="#7f4817"/>
          <circle id="Elipse_1169" data-name="Elipse 1169" cx="1.466" cy="1.466" r="1.466" transform="translate(12.028 11.793)" fill="#7f4817"/>
          <circle id="Elipse_1170" data-name="Elipse 1170" cx="1.466" cy="1.466" r="1.466" transform="translate(6.84 11.793)" fill="#7f4817"/>
        </g>
        <path id="Trazado_10410" data-name="Trazado 10410" d="M4685.767,257.759s2.863-2.4-2.875-5.884c0,0,4.795-.163,5.228,5.716Z" transform="translate(-4665.542 -216.927)" fill="#c9801b"/>
        <path id="Trazado_10411" data-name="Trazado 10411" d="M4701.055,221.66s2.968,4.586-2.942,5.884c0,0,4.569.541,7.722-6.251Z" transform="translate(-4666.123 -215.762)" fill="#c9801b"/>
        <path id="Trazado_10412" data-name="Trazado 10412" d="M4684.252,221.63s3.074.763-1.4,5.894c0,0,2.022-3.192-1.123-7.019Z" transform="translate(-4665.498 -215.732)" fill="#c9801b"/>
      </g>
      <g id="Grupo_3751" data-name="Grupo 3751" transform="translate(0 25.889)">
        <path id="Trazado_10413" data-name="Trazado 10413" d="M4576.1,197.212s-6.619-6.251-8.457-5.884-7.722,5.884-7.722,5.884l-6.619-2.95-2.542,2.95-2.239,5.515-2.207,2.941-3.309,2.567-1.839,2.948V215.6a35.54,35.54,0,0,1,2.574,4.413c.368,1.1,3.677,6.986,3.677,6.986s2.272,4.781,3.342,5.515a28.966,28.966,0,0,0,5.115,1.838h2.758l2.758-2.206,5.148-.367,2.574.367,1.731,2.206s1.21,2.207,3.049,1.839,8.457-3.677,8.457-3.677l3.472-6.251,1.285-4.412,2.229-5.515v-6.251l-2.229-7.722-6.228-5.515Z" transform="translate(-4540.203 -188.731)" fill="#8e621f"/>
        <path id="Trazado_10414" data-name="Trazado 10414" d="M4575.1,194.527s-6.619-6.251-8.458-5.883-7.722,5.883-7.722,5.883l-6.618-2.949-2.541,2.949-2.239,5.515-2.207,2.941L4542,205.552l-1.839,2.949v4.412a35.459,35.459,0,0,1,2.574,4.412c.369,1.1,3.678,6.986,3.678,6.986s2.271,4.781,3.342,5.516a29.03,29.03,0,0,0,5.115,1.838h2.759l2.757-2.207,5.147-.367,2.574.367,1.732,2.207s1.211,2.207,3.049,1.838,8.457-3.676,8.457-3.676l3.472-6.251,1.285-4.412,2.231-5.516V207.4l-2.231-7.722-6.227-5.516Z" transform="translate(-4540.164 -188.629)" fill="#bb9b48"/>
        <path id="Trazado_10415" data-name="Trazado 10415" d="M4574.052,221.138s2.968,8.838,7.934,7.549c0,0-9.651-1.3-11.335-3.872Z" transform="translate(-4541.326 -189.868)" fill="#c9801b"/>
        <path id="Trazado_10416" data-name="Trazado 10416" d="M4576,209.539s3.521-3.457,7.934,2.219c0,0,.68-5.368-10.508-5.536Z" transform="translate(-4541.432 -189.299)" fill="#c9801b"/>
        <path id="Trazado_10417" data-name="Trazado 10417" d="M4565.052,200.6a13.339,13.339,0,0,1-.082-7.008s-3.878,2.4-3.723,8.847Z" transform="translate(-4540.967 -188.818)" fill="#c9801b"/>
        <path id="Trazado_10418" data-name="Trazado 10418" d="M4551.457,210.926a10.188,10.188,0,0,0-8.372-2.026s6.518,2.667,9.949,5.535Z" transform="translate(-4540.275 -189.394)" fill="#c9801b"/>
        <g id="Grupo_3750" data-name="Grupo 3750" transform="translate(10.509 11.782)">
          <path id="Trazado_10419" data-name="Trazado 10419" d="M4564.666,200.877l7.905,5.141,2.574,3.317v6.25l-1.838,4.781-3.4,3.677h-9.836l-5.516-5.515-3.464-6.068,2.361-6.442s1.1-1.831,2.207-2.2,7.46-2.942,7.46-2.942Z" transform="translate(-4551.09 -200.877)" fill="#744d29"/>
          <path id="Trazado_10420" data-name="Trazado 10420" d="M4564.435,202.789l5.9,4.162,1.92,2.684V214.7l-1.372,3.87-2.537,2.977h-7.337l-4.114-4.465-2.583-4.911,1.76-5.214s.823-1.483,1.646-1.78,5.565-2.382,5.565-2.382Z" transform="translate(-4551.212 -200.95)" fill="#9d5e00"/>
          <circle id="Elipse_1171" data-name="Elipse 1171" cx="1.466" cy="1.466" r="1.466" transform="translate(12.028 8.284)" fill="#7f4817"/>
          <circle id="Elipse_1172" data-name="Elipse 1172" cx="1.466" cy="1.466" r="1.466" transform="translate(12.028 11.794)" fill="#7f4817"/>
          <circle id="Elipse_1173" data-name="Elipse 1173" cx="1.466" cy="1.466" r="1.466" transform="translate(6.84 11.794)" fill="#7f4817"/>
        </g>
        <path id="Trazado_10421" data-name="Trazado 10421" d="M4561.076,230.844s2.863-2.4-2.875-5.883c0,0,4.795-.163,5.228,5.716Z" transform="translate(-4540.852 -190.013)" fill="#c9801b"/>
        <path id="Trazado_10422" data-name="Trazado 10422" d="M4576.365,194.746s2.968,4.586-2.943,5.883c0,0,4.569.542,7.723-6.25Z" transform="translate(-4541.432 -188.848)" fill="#c9801b"/>
        <path id="Trazado_10423" data-name="Trazado 10423" d="M4559.56,194.716s3.075.763-1.4,5.894c0,0,2.022-3.192-1.123-7.019Z" transform="translate(-4540.807 -188.818)" fill="#c9801b"/>
      </g>
      <g id="Grupo_3753" data-name="Grupo 3753" transform="translate(36.499 25.889)">
        <path id="Trazado_10424" data-name="Trazado 10424" d="M4614.05,197.212s-6.619-6.251-8.457-5.884-7.723,5.884-7.723,5.884l-6.619-2.95-2.542,2.95-2.239,5.515-2.206,2.941-3.31,2.567-1.838,2.948V215.6a35.613,35.613,0,0,1,2.574,4.413c.367,1.1,3.677,6.986,3.677,6.986s2.271,4.781,3.342,5.515a29,29,0,0,0,5.116,1.838h2.758l2.758-2.206,5.148-.367,2.574.367,1.731,2.206s1.211,2.207,3.049,1.839,8.458-3.677,8.458-3.677l3.471-6.251,1.286-4.412,2.229-5.515v-6.251l-2.229-7.722-6.227-5.515Z" transform="translate(-4578.147 -188.731)" fill="#8e621f"/>
        <path id="Trazado_10425" data-name="Trazado 10425" d="M4613.041,194.527s-6.619-6.251-8.457-5.883-7.722,5.883-7.722,5.883l-6.619-2.949-2.542,2.949-2.239,5.515-2.206,2.941-3.31,2.567-1.838,2.949v4.412a35.563,35.563,0,0,1,2.575,4.412c.367,1.1,3.677,6.986,3.677,6.986s2.271,4.781,3.342,5.516a29.046,29.046,0,0,0,5.115,1.838h2.758l2.758-2.207,5.148-.367,2.574.367,1.73,2.207s1.211,2.207,3.05,1.838,8.457-3.676,8.457-3.676l3.471-6.251,1.286-4.412,2.229-5.516V207.4l-2.229-7.722-6.228-5.516Z" transform="translate(-4578.108 -188.629)" fill="#bb9b48"/>
        <path id="Trazado_10426" data-name="Trazado 10426" d="M4612,221.138s2.968,8.838,7.933,7.549c0,0-9.65-1.3-11.335-3.872Z" transform="translate(-4579.271 -189.868)" fill="#c9801b"/>
        <path id="Trazado_10427" data-name="Trazado 10427" d="M4613.941,209.539s3.521-3.457,7.934,2.219c0,0,.679-5.368-10.507-5.536Z" transform="translate(-4579.376 -189.299)" fill="#c9801b"/>
        <path id="Trazado_10428" data-name="Trazado 10428" d="M4603,200.6a13.342,13.342,0,0,1-.083-7.008s-3.877,2.4-3.723,8.847Z" transform="translate(-4578.912 -188.818)" fill="#c9801b"/>
        <path id="Trazado_10429" data-name="Trazado 10429" d="M4589.4,210.926a10.188,10.188,0,0,0-8.372-2.026s6.519,2.667,9.95,5.535Z" transform="translate(-4578.22 -189.394)" fill="#c9801b"/>
        <g id="Grupo_3752" data-name="Grupo 3752" transform="translate(10.509 11.782)">
          <path id="Trazado_10430" data-name="Trazado 10430" d="M4602.61,200.877l7.906,5.141,2.574,3.317v6.25l-1.838,4.781-3.4,3.677h-9.835l-5.517-5.515-3.463-6.068,2.361-6.442s1.1-1.831,2.206-2.2,7.461-2.942,7.461-2.942Z" transform="translate(-4589.034 -200.877)" fill="#744d29"/>
          <path id="Trazado_10431" data-name="Trazado 10431" d="M4602.379,202.789l5.9,4.162,1.92,2.684V214.7l-1.371,3.87-2.537,2.977h-7.338l-4.114-4.465-2.583-4.911,1.761-5.214s.822-1.483,1.646-1.78,5.565-2.382,5.565-2.382Z" transform="translate(-4589.157 -200.95)" fill="#9d5e00"/>
          <circle id="Elipse_1174" data-name="Elipse 1174" cx="1.466" cy="1.466" r="1.466" transform="translate(12.028 8.284)" fill="#7f4817"/>
          <circle id="Elipse_1175" data-name="Elipse 1175" cx="1.466" cy="1.466" r="1.466" transform="translate(12.028 11.794)" fill="#7f4817"/>
          <circle id="Elipse_1176" data-name="Elipse 1176" cx="1.466" cy="1.466" r="1.466" transform="translate(6.84 11.794)" fill="#7f4817"/>
        </g>
        <path id="Trazado_10432" data-name="Trazado 10432" d="M4599.02,230.844s2.863-2.4-2.875-5.883c0,0,4.795-.163,5.228,5.716Z" transform="translate(-4578.796 -190.013)" fill="#c9801b"/>
        <path id="Trazado_10433" data-name="Trazado 10433" d="M4614.308,194.746s2.97,4.586-2.941,5.883c0,0,4.568.542,7.722-6.25Z" transform="translate(-4579.376 -188.848)" fill="#c9801b"/>
        <path id="Trazado_10434" data-name="Trazado 10434" d="M4597.5,194.716s3.075.763-1.4,5.894c0,0,2.023-3.192-1.123-7.019Z" transform="translate(-4578.752 -188.818)" fill="#c9801b"/>
      </g>
      <g id="Grupo_3755" data-name="Grupo 3755" transform="translate(79.005 25.889)">
        <path id="Trazado_10435" data-name="Trazado 10435" d="M4658.24,197.212s-6.619-6.251-8.457-5.884-7.722,5.884-7.722,5.884l-6.619-2.95-2.541,2.95-2.239,5.515-2.206,2.941-3.31,2.567-1.838,2.948V215.6a35.488,35.488,0,0,1,2.574,4.413c.368,1.1,3.678,6.986,3.678,6.986s2.271,4.781,3.341,5.515a28.98,28.98,0,0,0,5.115,1.838h2.758l2.758-2.206,5.148-.367,2.574.367,1.731,2.206s1.211,2.207,3.05,1.839,8.457-3.677,8.457-3.677l3.471-6.251,1.286-4.412,2.23-5.515v-6.251l-2.23-7.722-6.227-5.515Z" transform="translate(-4622.337 -188.731)" fill="#8e621f"/>
        <path id="Trazado_10436" data-name="Trazado 10436" d="M4657.231,194.527s-6.619-6.251-8.457-5.883-7.723,5.883-7.723,5.883l-6.619-2.949-2.542,2.949-2.238,5.515-2.207,2.941-3.309,2.567L4622.3,208.5v4.412a35.511,35.511,0,0,1,2.574,4.412c.367,1.1,3.677,6.986,3.677,6.986s2.272,4.781,3.342,5.516a29.046,29.046,0,0,0,5.115,1.838h2.758l2.758-2.207,5.147-.367,2.574.367,1.731,2.207s1.21,2.207,3.049,1.838,8.457-3.676,8.457-3.676l3.472-6.251,1.285-4.412,2.229-5.516V207.4l-2.229-7.722-6.228-5.516Z" transform="translate(-4622.299 -188.629)" fill="#bb9b48"/>
        <path id="Trazado_10437" data-name="Trazado 10437" d="M4656.187,221.138s2.969,8.838,7.934,7.549c0,0-9.65-1.3-11.335-3.872Z" transform="translate(-4623.46 -189.868)" fill="#c9801b"/>
        <path id="Trazado_10438" data-name="Trazado 10438" d="M4658.131,209.539s3.521-3.457,7.934,2.219c0,0,.68-5.368-10.507-5.536Z" transform="translate(-4623.566 -189.299)" fill="#c9801b"/>
        <path id="Trazado_10439" data-name="Trazado 10439" d="M4647.187,200.6a13.342,13.342,0,0,1-.083-7.008s-3.877,2.4-3.722,8.847Z" transform="translate(-4623.102 -188.818)" fill="#c9801b"/>
        <path id="Trazado_10440" data-name="Trazado 10440" d="M4633.591,210.926a10.186,10.186,0,0,0-8.372-2.026s6.519,2.667,9.949,5.535Z" transform="translate(-4622.41 -189.394)" fill="#c9801b"/>
        <g id="Grupo_3754" data-name="Grupo 3754" transform="translate(10.51 11.782)">
          <path id="Trazado_10441" data-name="Trazado 10441" d="M4646.8,200.877l7.906,5.141,2.574,3.317v6.25l-1.838,4.781-3.4,3.677H4642.2l-5.515-5.515-3.464-6.068,2.36-6.442s1.1-1.831,2.206-2.2,7.461-2.942,7.461-2.942Z" transform="translate(-4633.225 -200.877)" fill="#744d29"/>
          <path id="Trazado_10442" data-name="Trazado 10442" d="M4646.57,202.789l5.9,4.162,1.92,2.684V214.7l-1.372,3.87-2.537,2.977h-7.336l-4.115-4.465-2.583-4.911,1.761-5.214s.822-1.483,1.646-1.78,5.566-2.382,5.566-2.382Z" transform="translate(-4633.348 -200.95)" fill="#9d5e00"/>
          <circle id="Elipse_1177" data-name="Elipse 1177" cx="1.466" cy="1.466" r="1.466" transform="translate(12.027 8.284)" fill="#7f4817"/>
          <circle id="Elipse_1178" data-name="Elipse 1178" cx="1.466" cy="1.466" r="1.466" transform="translate(12.027 11.794)" fill="#7f4817"/>
          <circle id="Elipse_1179" data-name="Elipse 1179" cx="1.466" cy="1.466" r="1.466" transform="translate(6.839 11.794)" fill="#7f4817"/>
        </g>
        <path id="Trazado_10443" data-name="Trazado 10443" d="M4643.21,230.844s2.863-2.4-2.875-5.883c0,0,4.8-.163,5.229,5.716Z" transform="translate(-4622.986 -190.013)" fill="#c9801b"/>
        <path id="Trazado_10444" data-name="Trazado 10444" d="M4658.5,194.746s2.969,4.586-2.941,5.883c0,0,4.569.542,7.722-6.25Z" transform="translate(-4623.566 -188.848)" fill="#c9801b"/>
        <path id="Trazado_10445" data-name="Trazado 10445" d="M4641.695,194.716s3.076.763-1.4,5.894c0,0,2.023-3.192-1.122-7.019Z" transform="translate(-4622.942 -188.818)" fill="#c9801b"/>
      </g>
      <g id="Grupo_3757" data-name="Grupo 3757" transform="translate(119.939 25.889)">
        <path id="Trazado_10446" data-name="Trazado 10446" d="M4700.8,197.212s-6.619-6.251-8.457-5.884-7.722,5.884-7.722,5.884l-6.619-2.95-2.542,2.95-2.238,5.515-2.207,2.941-3.309,2.567-1.839,2.948V215.6a35.478,35.478,0,0,1,2.574,4.413c.367,1.1,3.677,6.986,3.677,6.986s2.272,4.781,3.342,5.515a28.98,28.98,0,0,0,5.115,1.838h2.758l2.758-2.206,5.148-.367,2.574.367,1.731,2.206s1.21,2.207,3.049,1.839,8.457-3.677,8.457-3.677l3.471-6.251,1.285-4.412,2.229-5.515v-6.251l-2.229-7.722-6.228-5.515Z" transform="translate(-4664.894 -188.731)" fill="#8e621f"/>
        <path id="Trazado_10447" data-name="Trazado 10447" d="M4699.788,194.527s-6.619-6.251-8.458-5.883-7.721,5.883-7.721,5.883l-6.619-2.949-2.542,2.949-2.239,5.515L4670,202.984l-3.309,2.567-1.839,2.949v4.412a35.511,35.511,0,0,1,2.574,4.412c.369,1.1,3.677,6.986,3.677,6.986s2.272,4.781,3.343,5.516a29.014,29.014,0,0,0,5.114,1.838h2.759l2.757-2.207,5.147-.367,2.574.367,1.731,2.207s1.211,2.207,3.049,1.838,8.457-3.676,8.457-3.676l3.471-6.251,1.287-4.412,2.229-5.516V207.4l-2.229-7.722-6.229-5.516Z" transform="translate(-4664.855 -188.629)" fill="#bb9b48"/>
        <path id="Trazado_10448" data-name="Trazado 10448" d="M4698.743,221.138s2.968,8.838,7.934,7.549c0,0-9.651-1.3-11.335-3.872Z" transform="translate(-4666.017 -189.868)" fill="#c9801b"/>
        <path id="Trazado_10449" data-name="Trazado 10449" d="M4700.687,209.539s3.521-3.457,7.934,2.219c0,0,.68-5.368-10.508-5.536Z" transform="translate(-4666.123 -189.299)" fill="#c9801b"/>
        <path id="Trazado_10450" data-name="Trazado 10450" d="M4689.744,200.6a13.33,13.33,0,0,1-.083-7.008s-3.879,2.4-3.723,8.847Z" transform="translate(-4665.659 -188.818)" fill="#c9801b"/>
        <path id="Trazado_10451" data-name="Trazado 10451" d="M4676.147,210.926a10.186,10.186,0,0,0-8.372-2.026s6.519,2.667,9.949,5.535Z" transform="translate(-4664.966 -189.394)" fill="#c9801b"/>
        <g id="Grupo_3756" data-name="Grupo 3756" transform="translate(10.509 11.782)">
          <path id="Trazado_10452" data-name="Trazado 10452" d="M4689.357,200.877l7.9,5.141,2.574,3.317v6.25L4698,220.366l-3.4,3.677h-9.836l-5.516-5.515-3.464-6.068,2.36-6.442s1.1-1.831,2.207-2.2,7.461-2.942,7.461-2.942Z" transform="translate(-4675.781 -200.877)" fill="#744d29"/>
          <path id="Trazado_10453" data-name="Trazado 10453" d="M4689.126,202.789l5.9,4.162,1.92,2.684V214.7l-1.372,3.87-2.536,2.977H4685.7l-4.113-4.465L4679,212.166l1.761-5.214s.823-1.483,1.646-1.78,5.565-2.382,5.565-2.382Z" transform="translate(-4675.903 -200.95)" fill="#9d5e00"/>
          <circle id="Elipse_1180" data-name="Elipse 1180" cx="1.466" cy="1.466" r="1.466" transform="translate(12.028 8.284)" fill="#7f4817"/>
          <circle id="Elipse_1181" data-name="Elipse 1181" cx="1.466" cy="1.466" r="1.466" transform="translate(12.028 11.794)" fill="#7f4817"/>
          <circle id="Elipse_1182" data-name="Elipse 1182" cx="1.466" cy="1.466" r="1.466" transform="translate(6.84 11.794)" fill="#7f4817"/>
        </g>
        <path id="Trazado_10454" data-name="Trazado 10454" d="M4685.767,230.844s2.863-2.4-2.875-5.883c0,0,4.795-.163,5.228,5.716Z" transform="translate(-4665.542 -190.013)" fill="#c9801b"/>
        <path id="Trazado_10455" data-name="Trazado 10455" d="M4701.055,194.746s2.968,4.586-2.942,5.883c0,0,4.569.542,7.722-6.25Z" transform="translate(-4666.123 -188.848)" fill="#c9801b"/>
        <path id="Trazado_10456" data-name="Trazado 10456" d="M4684.252,194.716s3.074.763-1.4,5.894c0,0,2.022-3.192-1.123-7.019Z" transform="translate(-4665.498 -188.818)" fill="#c9801b"/>
      </g>
      <g id="Grupo_3759" data-name="Grupo 3759">
        <path id="Trazado_10457" data-name="Trazado 10457" d="M4576.1,170.3s-6.619-6.25-8.457-5.883-7.722,5.883-7.722,5.883l-6.619-2.949-2.542,2.949-2.239,5.515-2.207,2.942-3.309,2.567-1.839,2.948v4.412a35.585,35.585,0,0,1,2.574,4.412c.368,1.1,3.677,6.987,3.677,6.987s2.272,4.78,3.342,5.515a29.045,29.045,0,0,0,5.115,1.838h2.758l2.758-2.207,5.148-.367,2.574.367,1.731,2.207s1.21,2.207,3.049,1.838,8.457-3.676,8.457-3.676l3.472-6.251,1.285-4.412,2.229-5.515v-6.251l-2.229-7.722-6.228-5.515Z" transform="translate(-4540.203 -161.816)" fill="#8e621f"/>
        <path id="Trazado_10458" data-name="Trazado 10458" d="M4575.1,167.613s-6.619-6.251-8.458-5.884-7.722,5.884-7.722,5.884l-6.618-2.95-2.541,2.95-2.239,5.515-2.207,2.941L4542,178.638l-1.839,2.948V186a35.488,35.488,0,0,1,2.574,4.413c.369,1.1,3.678,6.986,3.678,6.986s2.271,4.781,3.342,5.515a28.973,28.973,0,0,0,5.115,1.839h2.759l2.757-2.207,5.147-.367,2.574.367,1.732,2.207s1.211,2.206,3.049,1.838,8.457-3.677,8.457-3.677l3.472-6.251,1.285-4.412,2.231-5.515v-6.251l-2.231-7.721-6.227-5.516Z" transform="translate(-4540.164 -161.714)" fill="#bb9b48"/>
        <path id="Trazado_10459" data-name="Trazado 10459" d="M4574.052,194.224s2.968,8.838,7.934,7.548c0,0-9.651-1.3-11.335-3.872Z" transform="translate(-4541.326 -162.953)" fill="#c9801b"/>
        <path id="Trazado_10460" data-name="Trazado 10460" d="M4576,182.624s3.521-3.456,7.934,2.219c0,0,.68-5.368-10.508-5.535Z" transform="translate(-4541.432 -162.384)" fill="#c9801b"/>
        <path id="Trazado_10461" data-name="Trazado 10461" d="M4565.052,173.685a13.342,13.342,0,0,1-.082-7.009s-3.878,2.4-3.723,8.847Z" transform="translate(-4540.967 -161.903)" fill="#c9801b"/>
        <path id="Trazado_10462" data-name="Trazado 10462" d="M4551.457,184.012a10.188,10.188,0,0,0-8.372-2.026s6.518,2.666,9.949,5.535Z" transform="translate(-4540.275 -162.479)" fill="#c9801b"/>
        <g id="Grupo_3758" data-name="Grupo 3758" transform="translate(10.509 11.782)">
          <path id="Trazado_10463" data-name="Trazado 10463" d="M4564.666,173.963l7.905,5.141,2.574,3.316v6.251l-1.838,4.781-3.4,3.676h-9.836l-5.516-5.516-3.464-6.067,2.361-6.442s1.1-1.831,2.207-2.2,7.46-2.941,7.46-2.941Z" transform="translate(-4551.09 -173.963)" fill="#744d29"/>
          <path id="Trazado_10464" data-name="Trazado 10464" d="M4564.435,175.874l5.9,4.162,1.92,2.685v5.061l-1.372,3.87-2.537,2.977h-7.337l-4.114-4.465-2.583-4.912,1.76-5.214s.823-1.482,1.646-1.78,5.565-2.382,5.565-2.382Z" transform="translate(-4551.212 -174.036)" fill="#9d5e00"/>
          <circle id="Elipse_1183" data-name="Elipse 1183" cx="1.466" cy="1.466" r="1.466" transform="translate(12.028 8.284)" fill="#7f4817"/>
          <circle id="Elipse_1184" data-name="Elipse 1184" cx="1.466" cy="1.466" r="1.466" transform="translate(12.028 11.793)" fill="#7f4817"/>
          <circle id="Elipse_1185" data-name="Elipse 1185" cx="1.466" cy="1.466" r="1.466" transform="translate(6.84 11.793)" fill="#7f4817"/>
        </g>
        <path id="Trazado_10465" data-name="Trazado 10465" d="M4561.076,203.93s2.863-2.4-2.875-5.884c0,0,4.795-.163,5.228,5.716Z" transform="translate(-4540.852 -163.098)" fill="#c9801b"/>
        <path id="Trazado_10466" data-name="Trazado 10466" d="M4576.365,167.832s2.968,4.585-2.943,5.883c0,0,4.569.542,7.723-6.251Z" transform="translate(-4541.432 -161.933)" fill="#c9801b"/>
        <path id="Trazado_10467" data-name="Trazado 10467" d="M4559.56,167.8s3.075.762-1.4,5.894c0,0,2.022-3.193-1.123-7.02Z" transform="translate(-4540.807 -161.903)" fill="#c9801b"/>
      </g>
      <g id="Grupo_3761" data-name="Grupo 3761" transform="translate(36.499)">
        <path id="Trazado_10468" data-name="Trazado 10468" d="M4614.05,170.3s-6.619-6.25-8.457-5.883-7.723,5.883-7.723,5.883l-6.619-2.949-2.542,2.949-2.239,5.515-2.206,2.942-3.31,2.567-1.838,2.948v4.412a35.659,35.659,0,0,1,2.574,4.412c.367,1.1,3.677,6.987,3.677,6.987s2.271,4.78,3.342,5.515a29.074,29.074,0,0,0,5.116,1.838h2.758l2.758-2.207,5.148-.367,2.574.367,1.731,2.207s1.211,2.207,3.049,1.838,8.458-3.676,8.458-3.676l3.471-6.251,1.286-4.412,2.229-5.515v-6.251l-2.229-7.722-6.227-5.515Z" transform="translate(-4578.147 -161.816)" fill="#8e621f"/>
        <path id="Trazado_10469" data-name="Trazado 10469" d="M4613.041,167.613s-6.619-6.251-8.457-5.884-7.722,5.884-7.722,5.884l-6.619-2.95-2.542,2.95-2.239,5.515-2.206,2.941-3.31,2.567-1.838,2.948V186a35.592,35.592,0,0,1,2.575,4.413c.367,1.1,3.677,6.986,3.677,6.986s2.271,4.781,3.342,5.515a28.988,28.988,0,0,0,5.115,1.839h2.758l2.758-2.207,5.148-.367,2.574.367,1.73,2.207s1.211,2.206,3.05,1.838,8.457-3.677,8.457-3.677l3.471-6.251,1.286-4.412,2.229-5.515v-6.251l-2.229-7.721-6.228-5.516Z" transform="translate(-4578.108 -161.714)" fill="#bb9b48"/>
        <path id="Trazado_10470" data-name="Trazado 10470" d="M4612,194.224s2.968,8.838,7.933,7.548c0,0-9.65-1.3-11.335-3.872Z" transform="translate(-4579.271 -162.953)" fill="#c9801b"/>
        <path id="Trazado_10471" data-name="Trazado 10471" d="M4613.941,182.624s3.521-3.456,7.934,2.219c0,0,.679-5.368-10.507-5.535Z" transform="translate(-4579.376 -162.384)" fill="#c9801b"/>
        <path id="Trazado_10472" data-name="Trazado 10472" d="M4603,173.685a13.345,13.345,0,0,1-.083-7.009s-3.877,2.4-3.723,8.847Z" transform="translate(-4578.912 -161.903)" fill="#c9801b"/>
        <path id="Trazado_10473" data-name="Trazado 10473" d="M4589.4,184.012a10.188,10.188,0,0,0-8.372-2.026s6.519,2.666,9.95,5.535Z" transform="translate(-4578.22 -162.479)" fill="#c9801b"/>
        <g id="Grupo_3760" data-name="Grupo 3760" transform="translate(10.509 11.782)">
          <path id="Trazado_10474" data-name="Trazado 10474" d="M4602.61,173.963l7.906,5.141,2.574,3.316v6.251l-1.838,4.781-3.4,3.676h-9.835l-5.517-5.516-3.463-6.067,2.361-6.442s1.1-1.831,2.206-2.2,7.461-2.941,7.461-2.941Z" transform="translate(-4589.034 -173.963)" fill="#744d29"/>
          <path id="Trazado_10475" data-name="Trazado 10475" d="M4602.379,175.874l5.9,4.162,1.92,2.685v5.061l-1.371,3.87-2.537,2.977h-7.338l-4.114-4.465-2.583-4.912,1.761-5.214s.822-1.482,1.646-1.78,5.565-2.382,5.565-2.382Z" transform="translate(-4589.157 -174.036)" fill="#9d5e00"/>
          <circle id="Elipse_1186" data-name="Elipse 1186" cx="1.466" cy="1.466" r="1.466" transform="translate(12.028 8.284)" fill="#7f4817"/>
          <circle id="Elipse_1187" data-name="Elipse 1187" cx="1.466" cy="1.466" r="1.466" transform="translate(12.028 11.793)" fill="#7f4817"/>
          <circle id="Elipse_1188" data-name="Elipse 1188" cx="1.466" cy="1.466" r="1.466" transform="translate(6.84 11.793)" fill="#7f4817"/>
        </g>
        <path id="Trazado_10476" data-name="Trazado 10476" d="M4599.02,203.93s2.863-2.4-2.875-5.884c0,0,4.795-.163,5.228,5.716Z" transform="translate(-4578.796 -163.098)" fill="#c9801b"/>
        <path id="Trazado_10477" data-name="Trazado 10477" d="M4614.308,167.832s2.97,4.585-2.941,5.883c0,0,4.568.542,7.722-6.251Z" transform="translate(-4579.376 -161.933)" fill="#c9801b"/>
        <path id="Trazado_10478" data-name="Trazado 10478" d="M4597.5,167.8s3.075.762-1.4,5.894c0,0,2.023-3.193-1.123-7.02Z" transform="translate(-4578.752 -161.903)" fill="#c9801b"/>
      </g>
      <g id="Grupo_3763" data-name="Grupo 3763" transform="translate(79.005)">
        <path id="Trazado_10479" data-name="Trazado 10479" d="M4658.24,170.3s-6.619-6.25-8.457-5.883-7.722,5.883-7.722,5.883l-6.619-2.949L4632.9,170.3l-2.239,5.515-2.206,2.942-3.31,2.567-1.838,2.948v4.412a35.533,35.533,0,0,1,2.574,4.412c.368,1.1,3.678,6.987,3.678,6.987s2.271,4.78,3.341,5.515a29.059,29.059,0,0,0,5.115,1.838h2.758l2.758-2.207,5.148-.367,2.574.367,1.731,2.207s1.211,2.207,3.05,1.838,8.457-3.676,8.457-3.676l3.471-6.251,1.286-4.412,2.23-5.515v-6.251l-2.23-7.722-6.227-5.515Z" transform="translate(-4622.337 -161.816)" fill="#8e621f"/>
        <path id="Trazado_10480" data-name="Trazado 10480" d="M4657.231,167.613s-6.619-6.251-8.457-5.884-7.723,5.884-7.723,5.884l-6.619-2.95-2.542,2.95-2.238,5.515-2.207,2.941-3.309,2.567-1.839,2.948V186a35.54,35.54,0,0,1,2.574,4.413c.367,1.1,3.677,6.986,3.677,6.986s2.272,4.781,3.342,5.515a28.988,28.988,0,0,0,5.115,1.839h2.758l2.758-2.207,5.147-.367,2.574.367,1.731,2.207s1.21,2.206,3.049,1.838,8.457-3.677,8.457-3.677l3.472-6.251,1.285-4.412,2.229-5.515v-6.251l-2.229-7.721-6.228-5.516Z" transform="translate(-4622.299 -161.714)" fill="#bb9b48"/>
        <path id="Trazado_10481" data-name="Trazado 10481" d="M4656.187,194.224s2.969,8.838,7.934,7.548c0,0-9.65-1.3-11.335-3.872Z" transform="translate(-4623.46 -162.953)" fill="#c9801b"/>
        <path id="Trazado_10482" data-name="Trazado 10482" d="M4658.131,182.624s3.521-3.456,7.934,2.219c0,0,.68-5.368-10.507-5.535Z" transform="translate(-4623.566 -162.384)" fill="#c9801b"/>
        <path id="Trazado_10483" data-name="Trazado 10483" d="M4647.187,173.685a13.345,13.345,0,0,1-.083-7.009s-3.877,2.4-3.722,8.847Z" transform="translate(-4623.102 -161.903)" fill="#c9801b"/>
        <path id="Trazado_10484" data-name="Trazado 10484" d="M4633.591,184.012a10.186,10.186,0,0,0-8.372-2.026s6.519,2.666,9.949,5.535Z" transform="translate(-4622.41 -162.479)" fill="#c9801b"/>
        <g id="Grupo_3762" data-name="Grupo 3762" transform="translate(10.51 11.782)">
          <path id="Trazado_10485" data-name="Trazado 10485" d="M4646.8,173.963l7.906,5.141,2.574,3.316v6.251l-1.838,4.781-3.4,3.676H4642.2l-5.515-5.516-3.464-6.067,2.36-6.442s1.1-1.831,2.206-2.2,7.461-2.941,7.461-2.941Z" transform="translate(-4633.225 -173.963)" fill="#744d29"/>
          <path id="Trazado_10486" data-name="Trazado 10486" d="M4646.57,175.874l5.9,4.162,1.92,2.685v5.061l-1.372,3.87-2.537,2.977h-7.336l-4.115-4.465-2.583-4.912,1.761-5.214s.822-1.482,1.646-1.78,5.566-2.382,5.566-2.382Z" transform="translate(-4633.348 -174.036)" fill="#9d5e00"/>
          <circle id="Elipse_1189" data-name="Elipse 1189" cx="1.466" cy="1.466" r="1.466" transform="translate(12.027 8.284)" fill="#7f4817"/>
          <circle id="Elipse_1190" data-name="Elipse 1190" cx="1.466" cy="1.466" r="1.466" transform="translate(12.027 11.793)" fill="#7f4817"/>
          <circle id="Elipse_1191" data-name="Elipse 1191" cx="1.466" cy="1.466" r="1.466" transform="translate(6.839 11.793)" fill="#7f4817"/>
        </g>
        <path id="Trazado_10487" data-name="Trazado 10487" d="M4643.21,203.93s2.863-2.4-2.875-5.884c0,0,4.8-.163,5.229,5.716Z" transform="translate(-4622.986 -163.098)" fill="#c9801b"/>
        <path id="Trazado_10488" data-name="Trazado 10488" d="M4658.5,167.832s2.969,4.585-2.941,5.883c0,0,4.569.542,7.722-6.251Z" transform="translate(-4623.566 -161.933)" fill="#c9801b"/>
        <path id="Trazado_10489" data-name="Trazado 10489" d="M4641.695,167.8s3.076.762-1.4,5.894c0,0,2.023-3.193-1.122-7.02Z" transform="translate(-4622.942 -161.903)" fill="#c9801b"/>
      </g>
      <g id="Grupo_3765" data-name="Grupo 3765" transform="translate(119.939)">
        <path id="Trazado_10490" data-name="Trazado 10490" d="M4700.8,170.3s-6.619-6.25-8.457-5.883-7.722,5.883-7.722,5.883L4678,167.348l-2.542,2.949-2.238,5.515-2.207,2.942-3.309,2.567-1.839,2.948v4.412a35.523,35.523,0,0,1,2.574,4.412c.367,1.1,3.677,6.987,3.677,6.987s2.272,4.78,3.342,5.515a29.059,29.059,0,0,0,5.115,1.838h2.758l2.758-2.207,5.148-.367,2.574.367,1.731,2.207s1.21,2.207,3.049,1.838,8.457-3.676,8.457-3.676l3.471-6.251,1.285-4.412,2.229-5.515v-6.251l-2.229-7.722-6.228-5.515Z" transform="translate(-4664.894 -161.816)" fill="#8e621f"/>
        <path id="Trazado_10491" data-name="Trazado 10491" d="M4699.788,167.613s-6.619-6.251-8.458-5.884-7.721,5.884-7.721,5.884l-6.619-2.95-2.542,2.95-2.239,5.515L4670,176.07l-3.309,2.567-1.839,2.948V186a35.54,35.54,0,0,1,2.574,4.413c.369,1.1,3.677,6.986,3.677,6.986s2.272,4.781,3.343,5.515a28.957,28.957,0,0,0,5.114,1.839h2.759l2.757-2.207,5.147-.367,2.574.367,1.731,2.207s1.211,2.206,3.049,1.838,8.457-3.677,8.457-3.677l3.471-6.251,1.287-4.412,2.229-5.515v-6.251l-2.229-7.721-6.229-5.516Z" transform="translate(-4664.855 -161.714)" fill="#bb9b48"/>
        <path id="Trazado_10492" data-name="Trazado 10492" d="M4698.743,194.224s2.968,8.838,7.934,7.548c0,0-9.651-1.3-11.335-3.872Z" transform="translate(-4666.017 -162.953)" fill="#c9801b"/>
        <path id="Trazado_10493" data-name="Trazado 10493" d="M4700.687,182.624s3.521-3.456,7.934,2.219c0,0,.68-5.368-10.508-5.535Z" transform="translate(-4666.123 -162.384)" fill="#c9801b"/>
        <path id="Trazado_10494" data-name="Trazado 10494" d="M4689.744,173.685a13.333,13.333,0,0,1-.083-7.009s-3.879,2.4-3.723,8.847Z" transform="translate(-4665.659 -161.903)" fill="#c9801b"/>
        <path id="Trazado_10495" data-name="Trazado 10495" d="M4676.147,184.012a10.186,10.186,0,0,0-8.372-2.026s6.519,2.666,9.949,5.535Z" transform="translate(-4664.966 -162.479)" fill="#c9801b"/>
        <g id="Grupo_3764" data-name="Grupo 3764" transform="translate(10.509 11.782)">
          <path id="Trazado_10496" data-name="Trazado 10496" d="M4689.357,173.963l7.9,5.141,2.574,3.316v6.251L4698,193.452l-3.4,3.676h-9.836l-5.516-5.516-3.464-6.067,2.36-6.442s1.1-1.831,2.207-2.2,7.461-2.941,7.461-2.941Z" transform="translate(-4675.781 -173.963)" fill="#744d29"/>
          <path id="Trazado_10497" data-name="Trazado 10497" d="M4689.126,175.874l5.9,4.162,1.92,2.685v5.061l-1.372,3.87-2.536,2.977H4685.7l-4.113-4.465L4679,185.251l1.761-5.214s.823-1.482,1.646-1.78,5.565-2.382,5.565-2.382Z" transform="translate(-4675.903 -174.036)" fill="#9d5e00"/>
          <circle id="Elipse_1192" data-name="Elipse 1192" cx="1.466" cy="1.466" r="1.466" transform="translate(12.028 8.284)" fill="#7f4817"/>
          <circle id="Elipse_1193" data-name="Elipse 1193" cx="1.466" cy="1.466" r="1.466" transform="translate(12.028 11.793)" fill="#7f4817"/>
          <circle id="Elipse_1194" data-name="Elipse 1194" cx="1.466" cy="1.466" r="1.466" transform="translate(6.84 11.793)" fill="#7f4817"/>
        </g>
        <path id="Trazado_10498" data-name="Trazado 10498" d="M4685.767,203.93s2.863-2.4-2.875-5.884c0,0,4.795-.163,5.228,5.716Z" transform="translate(-4665.542 -163.098)" fill="#c9801b"/>
        <path id="Trazado_10499" data-name="Trazado 10499" d="M4701.055,167.832s2.968,4.585-2.942,5.883c0,0,4.569.542,7.722-6.251Z" transform="translate(-4666.123 -161.933)" fill="#c9801b"/>
        <path id="Trazado_10500" data-name="Trazado 10500" d="M4684.252,167.8s3.074.762-1.4,5.894c0,0,2.022-3.193-1.123-7.02Z" transform="translate(-4665.498 -161.903)" fill="#c9801b"/>
      </g>
    </g>
    <path id="Trazado_10501" data-name="Trazado 10501" d="M4724.954,179.308s-12.808,131.129,0,137.444C4724.954,316.752,4732.324,299.071,4724.954,179.308Z" transform="translate(-10.391 -5.871)" fill="#fff" opacity="0.28"/>
    <rect id="Rectngulo_1017" data-name="Rectngulo 1017" width="184.881" height="19.094" transform="translate(4532.957 127.304)" fill="#fff"/>
  </g>
</svg>
