<svg xmlns="http://www.w3.org/2000/svg" width="769.483" height="286.614" viewBox="0 0 769.483 286.614">
  <g id="Grupo_5442" data-name="Grupo 5442" transform="translate(-149.659 -783.2)">
    <text id="Recepción_de_materia_prima" data-name="Recepción de
materia prima" transform="matrix(1, 0, 0, 1, 149.685, 986.752)" fill="#00223d" font-size="18" font-family="CerebriSans-Bold, Cerebri Sans" font-weight="700"><tspan x="38.715" y="17">Recepción de</tspan><tspan x="37.937" y="41">materia prima</tspan></text>
    <circle id="Elipse_1358" data-name="Elipse 1358" cx="74.102" cy="74.102" r="74.102" transform="translate(174.854 800.002)" fill="#ffe082"/>
    <g id="Grupo_4897" data-name="Grupo 4897" transform="translate(158.052 783.2)">
      <g id="Grupo_4895" data-name="Grupo 4895" transform="translate(0)">
        <path id="Trazado_13965" data-name="Trazado 13965" d="M91.722,220.357A90.928,90.928,0,1,1,156,65.173l-1.985,1.985a88.2,88.2,0,1,0,25.8,62.294v-1.4h81.345a1.4,1.4,0,0,1,1.4,1.4h0a1.4,1.4,0,0,1-1.4,1.4H182.616a90.83,90.83,0,0,1-90.895,89.5Z" transform="translate(-0.818 -38.549)" fill="#7fb2aa"/>
      </g>
      <g id="Grupo_4896" data-name="Grupo 4896" transform="translate(251.113 80.003)">
        <path id="Trazado_13966" data-name="Trazado 13966" d="M190.923,120.352h0a1.4,1.4,0,0,1,.071-1.985l8-7.438a1.4,1.4,0,0,0,0-2.057l-8-7.441a1.4,1.4,0,0,1-.071-1.985h0a1.4,1.4,0,0,1,1.983-.071l10.215,9.5a1.4,1.4,0,0,1,0,2.057l-10.215,9.5A1.4,1.4,0,0,1,190.923,120.352Z" transform="translate(-190.545 -98.995)" fill="#7fb2aa"/>
      </g>
    </g>
    <text id="Lavado_y_desinfección" data-name="Lavado y 
desinfección" transform="matrix(1, 0, 0, 1, 459.845, 989.408)" fill="#00223d" font-size="18" font-family="CerebriSans-Bold, Cerebri Sans" font-weight="700"><tspan x="38.158" y="17">Lavado y </tspan><tspan x="19.499" y="41">desinfección</tspan></text>
    <circle id="Elipse_1360" data-name="Elipse 1360" cx="74.102" cy="74.102" r="74.102" transform="translate(456.769 800.002)" fill="#ffe082"/>
    <g id="Grupo_4902" data-name="Grupo 4902" transform="translate(439.967 783.2)">
      <g id="Grupo_4900" data-name="Grupo 4900">
        <path id="Trazado_13977" data-name="Trazado 13977" d="M291.883,220.357A90.928,90.928,0,1,1,356.161,65.173l-1.985,1.985a88.193,88.193,0,1,0,25.8,62.294v-1.4h81.345a1.4,1.4,0,0,1,1.4,1.4h0a1.4,1.4,0,0,1-1.4,1.4H382.776a90.83,90.83,0,0,1-90.893,89.5Z" transform="translate(-200.978 -38.549)" fill="#7fb2aa"/>
      </g>
      <g id="Grupo_4901" data-name="Grupo 4901" transform="translate(251.113 80.003)">
        <path id="Trazado_13978" data-name="Trazado 13978" d="M391.085,120.352h0a1.4,1.4,0,0,1,.073-1.985l8-7.438a1.405,1.405,0,0,0,0-2.057l-8.006-7.441a1.405,1.405,0,0,1-.071-1.985h0a1.4,1.4,0,0,1,1.984-.071l10.215,9.5a1.405,1.405,0,0,1,0,2.057l-10.215,9.5A1.4,1.4,0,0,1,391.085,120.352Z" transform="translate(-390.706 -98.995)" fill="#7fb2aa"/>
      </g>
    </g>
    <text id="Pelado" transform="matrix(1, 0, 0, 1, 735.144, 1001.32)" fill="#00223d" font-size="18" font-family="CerebriSans-Bold, Cerebri Sans" font-weight="700"><tspan x="62.24" y="17">Pelado</tspan></text>
    <ellipse id="Elipse_1364" data-name="Elipse 1364" cx="75.862" cy="74.102" rx="75.862" ry="74.102" transform="translate(753.243 800.002)" fill="#ffe082"/>
    <g id="Grupo_4912" data-name="Grupo 4912" transform="translate(736.441 783.2)">
      <g id="Grupo_4911" data-name="Grupo 4911">
        <path id="Trazado_13992" data-name="Trazado 13992" d="M782.841,130.856a91.013,91.013,0,1,1-26.617-65.682l-1.984,1.985a88.2,88.2,0,1,0,25.8,62.294v-1.4" transform="translate(-601.043 -38.549)" fill="#7fb2aa"/>
      </g>
    </g>
    <g id="Grupo_5439" data-name="Grupo 5439" transform="translate(197.758 839.637)">
      <g id="Grupo_4837" data-name="Grupo 4837" transform="translate(0 0)">
        <path id="Trazado_13836" data-name="Trazado 13836" d="M193.258,63.459S191.435,51.791,154.9,33.118a120.994,120.994,0,0,0-17.874-7.471c-9.45-3.055-15.2-3.432-15.2-3.432L90.982,40.026s.1.168.3.492c1.525,2.388-5.142,5.873,27.371,25.367,14.58,8.742,24,13.5,30.153,15.933a16.8,16.8,0,0,0,11.241,3.533c9.3-.216,18.67-7.688,18.67-7.688C194.813,68.387,193.258,63.459,193.258,63.459Z" transform="translate(-90.982 -20.857)" fill="#f6df86" stroke="#846e63" stroke-linecap="round" stroke-linejoin="round" stroke-width="1"/>
        <g id="Grupo_4834" data-name="Grupo 4834" transform="translate(0 0)">
          <path id="Trazado_13837" data-name="Trazado 13837" d="M126.17,62.989l-.278-.116Z" transform="translate(-79.687 -7.703)" fill="#f6df86" stroke="#846e63" stroke-linecap="round" stroke-linejoin="round" stroke-width="1"/>
          <path id="Trazado_13838" data-name="Trazado 13838" d="M124.749,62.378l-.274-.122Z" transform="translate(-80.145 -7.902)" fill="#f6df86" stroke="#846e63" stroke-linecap="round" stroke-linejoin="round" stroke-width="1"/>
          <path id="Trazado_13839" data-name="Trazado 13839" d="M127.511,63.531l-.232-.09Z" transform="translate(-79.238 -7.519)" fill="#f6df86" stroke="#846e63" stroke-linecap="round" stroke-linejoin="round" stroke-width="1"/>
          <path id="Trazado_13840" data-name="Trazado 13840" d="M123.253,61.695l-.21-.1Z" transform="translate(-80.609 -8.116)" fill="#f6df86" stroke="#846e63" stroke-linecap="round" stroke-linejoin="round" stroke-width="1"/>
          <path id="Trazado_13841" data-name="Trazado 13841" d="M131.294,64.872l-.3-.1Z" transform="translate(-78.035 -7.087)" fill="#f6df86" stroke="#846e63" stroke-linecap="round" stroke-linejoin="round" stroke-width="1"/>
          <path id="Trazado_13842" data-name="Trazado 13842" d="M130.013,64.451l-.21-.074Z" transform="translate(-78.422 -7.216)" fill="#f6df86" stroke="#846e63" stroke-linecap="round" stroke-linejoin="round" stroke-width="1"/>
          <path id="Trazado_13843" data-name="Trazado 13843" d="M128.743,64l-.116-.042Z" transform="translate(-78.802 -7.352)" fill="#f6df86" stroke="#846e63" stroke-linecap="round" stroke-linejoin="round" stroke-width="1"/>
          <path id="Trazado_13844" data-name="Trazado 13844" d="M132.507,65.24l-.328-.1Z" transform="translate(-77.653 -6.968)" fill="#f6df86" stroke="#846e63" stroke-linecap="round" stroke-linejoin="round" stroke-width="1"/>
          <path id="Trazado_13845" data-name="Trazado 13845" d="M117.141,58.481l-.289-.168Z" transform="translate(-82.612 -9.178)" fill="#f6df86" stroke="#846e63" stroke-linecap="round" stroke-linejoin="round" stroke-width="1"/>
          <path id="Trazado_13846" data-name="Trazado 13846" d="M115.466,57.488l-.281-.172Z" transform="translate(-83.151 -9.501)" fill="#f6df86" stroke="#846e63" stroke-linecap="round" stroke-linejoin="round" stroke-width="1"/>
          <path id="Trazado_13847" data-name="Trazado 13847" d="M113.512,56.268" transform="translate(-83.693 -9.84)" fill="#f6df86" stroke="#846e63" stroke-linecap="round" stroke-linejoin="round" stroke-width="1"/>
          <path id="Trazado_13848" data-name="Trazado 13848" d="M121.685,60.934l-.057-.029Z" transform="translate(-81.067 -8.339)" fill="#f6df86" stroke="#846e63" stroke-linecap="round" stroke-linejoin="round" stroke-width="1"/>
          <path id="Trazado_13849" data-name="Trazado 13849" d="M118.733,59.381l-.236-.13Z" transform="translate(-82.08 -8.874)" fill="#f6df86" stroke="#846e63" stroke-linecap="round" stroke-linejoin="round" stroke-width="1"/>
          <path id="Trazado_13850" data-name="Trazado 13850" d="M120.213,60.179l-.1-.053Z" transform="translate(-81.557 -8.591)" fill="#f6df86" stroke="#846e63" stroke-linecap="round" stroke-linejoin="round" stroke-width="1"/>
          <path id="Trazado_13851" data-name="Trazado 13851" d="M140.687,66.831" transform="translate(-74.9 -6.422)" fill="#f6df86" stroke="#846e63" stroke-linecap="round" stroke-linejoin="round" stroke-width="1"/>
          <path id="Trazado_13852" data-name="Trazado 13852" d="M142.015,66.915l-.161-.007Z" transform="translate(-74.523 -6.397)" fill="#f6df86" stroke="#846e63" stroke-linecap="round" stroke-linejoin="round" stroke-width="1"/>
          <path id="Trazado_13853" data-name="Trazado 13853" d="M142.519,66.93" transform="translate(-74.307 -6.39)" fill="#f6df86" stroke="#846e63" stroke-linecap="round" stroke-linejoin="round" stroke-width="1"/>
          <path id="Trazado_13854" data-name="Trazado 13854" d="M140.1,66.775c-.086-.009-.171-.017-.258-.028C139.926,66.758,140.011,66.766,140.1,66.775Z" transform="translate(-75.175 -6.449)" fill="#f6df86" stroke="#846e63" stroke-linecap="round" stroke-linejoin="round" stroke-width="1"/>
          <path id="Trazado_13855" data-name="Trazado 13855" d="M141.4,66.884l-.191-.013Z" transform="translate(-74.73 -6.409)" fill="#f6df86" stroke="#846e63" stroke-linecap="round" stroke-linejoin="round" stroke-width="1"/>
          <path id="Trazado_13856" data-name="Trazado 13856" d="M152.637,31.014c-4.658-2.38-15.72-7.007-19.591-8.467-9.45-3.055-11.217,0-11.217,0L90.982,40.358s.1.168.3.492c2.251.409,5.178-.957,7.355.506C117.46,54,135.3,63.737,140.82,66.986c5.119,3.008,19.309,13,21.34,14.431a54.107,54.107,0,0,1,14.222-13.8,21,21,0,0,1,15.028-3.608S189.172,49.688,152.637,31.014Z" transform="translate(-90.982 -21.189)" fill="#f6df86" stroke="#846e63" stroke-linecap="round" stroke-linejoin="round" stroke-width="1"/>
          <path id="Trazado_13857" data-name="Trazado 13857" d="M142.981,66.936h0Z" transform="translate(-74.158 -6.388)" fill="#f6df86" stroke="#846e63" stroke-linecap="round" stroke-linejoin="round" stroke-width="1"/>
          <path id="Trazado_13858" data-name="Trazado 13858" d="M133.649,65.557l-.319-.085Z" transform="translate(-77.28 -6.862)" fill="#f6df86" stroke="#846e63" stroke-linecap="round" stroke-linejoin="round" stroke-width="1"/>
          <path id="Trazado_13859" data-name="Trazado 13859" d="M136.659,66.255c-.1-.019-.2-.04-.3-.061C136.46,66.215,136.561,66.236,136.659,66.255Z" transform="translate(-76.3 -6.628)" fill="#f6df86" stroke="#846e63" stroke-linecap="round" stroke-linejoin="round" stroke-width="1"/>
          <path id="Trazado_13860" data-name="Trazado 13860" d="M135.711,66.057q-.151-.032-.3-.068Q135.56,66.026,135.711,66.057Z" transform="translate(-76.608 -6.694)" fill="#f6df86" stroke="#846e63" stroke-linecap="round" stroke-linejoin="round" stroke-width="1"/>
          <path id="Trazado_13861" data-name="Trazado 13861" d="M139.345,66.689l-.283-.037Z" transform="translate(-75.426 -6.48)" fill="#f6df86" stroke="#846e63" stroke-linecap="round" stroke-linejoin="round" stroke-width="1"/>
          <path id="Trazado_13862" data-name="Trazado 13862" d="M134.72,65.828c-.094-.022-.187-.044-.281-.067C134.533,65.785,134.626,65.806,134.72,65.828Z" transform="translate(-76.922 -6.768)" fill="#f6df86" stroke="#846e63" stroke-linecap="round" stroke-linejoin="round" stroke-width="1"/>
          <path id="Trazado_13863" data-name="Trazado 13863" d="M138.443,66.564" transform="translate(-75.626 -6.508)" fill="#f6df86" stroke="#846e63" stroke-linecap="round" stroke-linejoin="round" stroke-width="1"/>
          <path id="Trazado_13864" data-name="Trazado 13864" d="M137.3,66.375" transform="translate(-75.996 -6.57)" fill="#f6df86" stroke="#846e63" stroke-linecap="round" stroke-linejoin="round" stroke-width="1"/>
        </g>
        <g id="Grupo_4836" data-name="Grupo 4836" transform="translate(34.234 8.318)">
          <g id="Grupo_4835" data-name="Grupo 4835" transform="translate(10.907)">
            <path id="Trazado_13865" data-name="Trazado 13865" d="M142.847,53.044a69.667,69.667,0,0,1-6.417,12.662.654.654,0,0,1-.859.195.643.643,0,0,1-.323-.806c.1-.21,9.257-20.883-7.364-33.128a.657.657,0,0,1-.27-.449.55.55,0,0,1,.163-.463l1.923-1.881a.636.636,0,0,1,.475-.173c.353.016,8.708.463,12.665,6.839C145.48,40.093,145.478,45.854,142.847,53.044Zm-4.579,6.836c5.453-10.252,6.657-18.3,3.454-23.474-3.178-5.13-9.806-6.022-11.24-6.157l-1.245,1.219C140.513,40.205,139.883,52.669,138.267,59.88Z" transform="translate(-124.272 -26.98)" fill="#846e63"/>
            <path id="Trazado_13866" data-name="Trazado 13866" d="M138.135,58.142c-.023.061-.038.1-.046.124a.633.633,0,0,1-.836.32.644.644,0,0,1-.408-.8l.015-.041c.286-.781,5.155-14.6-3.529-23.362a.58.58,0,0,1,.005-.866.7.7,0,0,1,.928.067C143.387,42.792,138.7,56.586,138.135,58.142Z" transform="translate(-122.483 -25.566)" fill="#846e63"/>
            <path id="Trazado_13867" data-name="Trazado 13867" d="M128.41,28.324a.54.54,0,0,1-.118.189l-2.041,2.151a.683.683,0,0,1-.925.017.591.591,0,0,1-.086-.867l2.042-2.152a.684.684,0,0,1,.924-.017A.615.615,0,0,1,128.41,28.324Z" transform="translate(-125.088 -27.474)" fill="#846e63"/>
          </g>
          <path id="Trazado_13868" data-name="Trazado 13868" d="M118.714,38.267a.728.728,0,0,0,.453.3c9.732,1.973,15.339,8.311,18.54,14.386.1-.631.185-1.341.24-2.12a27.516,27.516,0,0,0-17.872-13.31l.462-1.66c1.292-.495,7.393-2.532,12.644.822a12.614,12.614,0,0,1,2.643,2.288A25.957,25.957,0,0,0,134.18,35.9c-.109-.074-.213-.154-.323-.224-6.533-4.165-13.889-.971-14.2-.834a.568.568,0,0,0-.32.364l-.713,2.562A.6.6,0,0,0,118.714,38.267Z" transform="translate(-116.279 -25.51)" fill="#846e63"/>
          <path id="Trazado_13869" data-name="Trazado 13869" d="M134.635,41.469l-.975.753c-3.055-3.363-9.009-5.174-9.069-5.191l.316-1.167C125.168,35.941,131.308,37.806,134.635,41.469Z" transform="translate(-114.342 -24.759)" fill="#846e63"/>
          <path id="Trazado_13870" data-name="Trazado 13870" d="M118.135,38.06l-1.288-.331.774-3.484,1.288.331Z" transform="translate(-116.847 -25.283)" fill="#846e63"/>
        </g>
      </g>
    </g>
    <g id="Grupo_5440" data-name="Grupo 5440" transform="translate(489.95 832.166)">
      <g id="Grupo_4859" data-name="Grupo 4859" transform="translate(0 0)">
        <g id="Grupo_4850" data-name="Grupo 4850" transform="translate(0 0)">
          <g id="Grupo_4849" data-name="Grupo 4849">
            <g id="Grupo_4848" data-name="Grupo 4848">
              <g id="Grupo_4847" data-name="Grupo 4847">
                <path id="Trazado_13879" data-name="Trazado 13879" d="M337.913,58.608l-.025,38.4a6.025,6.025,0,0,1-3.01-.806L307.872,80.609a3.664,3.664,0,0,1-1.726-2.3L296.8,33.9Z" transform="translate(-296.797 -9.606)" fill="#f6df86" stroke="#846e63" stroke-linecap="round" stroke-linejoin="round" stroke-width="1"/>
                <g id="Grupo_4846" data-name="Grupo 4846" transform="translate(0)">
                  <path id="Trazado_13880" data-name="Trazado 13880" d="M337.028,17.186,298.712,39.308,337.3,61.583l38.316-22.121Z" transform="translate(-296.178 -15.014)" fill="#f6df86" stroke="#846e63" stroke-linecap="round" stroke-linejoin="round" stroke-width="1"/>
                  <path id="Trazado_13881" data-name="Trazado 13881" d="M336.809,15.77,297.636,38.387a1.676,1.676,0,0,0,0,2.9l39.44,22.772a1.679,1.679,0,0,0,1.677,0l39.173-22.618a1.676,1.676,0,0,0,0-2.9l-39.44-22.77A1.673,1.673,0,0,0,336.809,15.77Zm.267,45.86L301.848,41.291a1.676,1.676,0,0,1,0-2.9L336.809,18.2a1.673,1.673,0,0,1,1.677,0L373.715,38.54a1.677,1.677,0,0,1,0,2.905L338.753,61.63A1.673,1.673,0,0,1,337.076,61.63Z" transform="translate(-296.797 -15.545)" fill="#f6df86" stroke="#846e63" stroke-linecap="round" stroke-linejoin="round" stroke-width="1"/>
                </g>
                <path id="Trazado_13882" data-name="Trazado 13882" d="M304.144,41.443,335.3,23.457l31.369,18.111L335.513,59.554Z" transform="translate(-294.42 -12.985)" fill="#f6df86" stroke="#846e63" stroke-linecap="round" stroke-linejoin="round" stroke-width="1"/>
                <path id="Trazado_13883" data-name="Trazado 13883" d="M369.124,34.571,359.476,77.6a4.985,4.985,0,0,1-2.38,3.239L330.853,95.985a6.018,6.018,0,0,1-3.01.806l.025-38.4Z" transform="translate(-286.752 -9.389)" fill="#f6df86" stroke="#846e63" stroke-linecap="round" stroke-linejoin="round" stroke-width="1"/>
              </g>
            </g>
          </g>
        </g>
        <g id="Grupo_4852" data-name="Grupo 4852" transform="translate(36.501 6.402)">
          <g id="Grupo_4851" data-name="Grupo 4851">
            <path id="Trazado_13884" data-name="Trazado 13884" d="M324.375,21.749l1.355.97a3.77,3.77,0,0,1,1.824,1.331,7.613,7.613,0,0,1,.671,2.537c.189,1.967,3.767,4.752,3.315,9.057-.561,5.359-4.143,11.769-5.294,14.448-1.433,3.337-.671,3.756-1.206,4.864a4.062,4.062,0,0,0-.363,2.184s.81,1.128,1.423,1.007c.63-.123.675-.653,1.71-1.363s1.586.134,4.839-3.759,7.28-10.9,6.9-17.77c-.42-7.661-5.039-10.709-6.843-11.392-.52-.2-2.728-.428-3.309-.723a26.724,26.724,0,0,1-4.234-2.76Z" transform="translate(-324.375 -20.382)" fill="#f6df86" stroke="#846e63" stroke-linecap="round" stroke-linejoin="round" stroke-width="1"/>
            <path id="Trazado_13885" data-name="Trazado 13885" d="M325.381,48.416a6.4,6.4,0,0,1-.776-.31.346.346,0,0,1,0,.065s.81,1.128,1.423,1.007C325.381,48.416,326.159,48.658,325.381,48.416Z" transform="translate(-324.301 -11.412)" fill="#f6df86" stroke="#846e63" stroke-linecap="round" stroke-linejoin="round" stroke-width="1"/>
            <path id="Trazado_13886" data-name="Trazado 13886" stroke="#846e63" d="M325.393,48.712a2.933,2.933,0,0,0-.588-.52c-.068-.028-.135-.057-.2-.086a.346.346,0,0,1,0,.065,3.088,3.088,0,0,0,1.132.982C325.64,49.029,325.528,48.883,325.393,48.712Z" fill="#f6df86" transform="translate(-324.301 -11.412)" stroke-linecap="round" stroke-linejoin="round" stroke-width="1" opacity="0.56"/>
          </g>
        </g>
        <g id="Grupo_4854" data-name="Grupo 4854" transform="translate(36.329 10.538)">
          <g id="Grupo_4853" data-name="Grupo 4853">
            <path id="Trazado_13887" data-name="Trazado 13887" d="M341.5,24.3l.7,1.514a3.778,3.778,0,0,1,.925,2.059,7.639,7.639,0,0,1-.672,2.539c-.81,1.8.921,5.992-1.6,9.51-3.141,4.38-9.426,8.174-11.752,9.933-2.9,2.189-2.442,2.93-3.456,3.628a4.09,4.09,0,0,0-1.4,1.719s.147,1.38.74,1.579.908-.233,2.16-.337,1.31.9,6.065-.871S344.928,49.709,348,43.551c3.428-6.864.924-11.8-.306-13.286-.355-.429-2.16-1.721-2.517-2.266a26.679,26.679,0,0,1-2.314-4.492Z" transform="translate(-324.245 -23.507)" fill="#f6df86" stroke="#846e63" stroke-linecap="round" stroke-linejoin="round" stroke-width="1"/>
            <path id="Trazado_13888" data-name="Trazado 13888" d="M324.8,48.066a6.551,6.551,0,0,1-.521-.653.408.408,0,0,1-.034.056s.147,1.38.74,1.579C324.8,48.066,325.357,48.661,324.8,48.066Z" transform="translate(-324.245 -15.772)" fill="#f6df86" stroke="#846e63" stroke-linecap="round" stroke-linejoin="round" stroke-width="1"/>
            <path id="Trazado_13889" data-name="Trazado 13889" stroke="#846e63" d="M324.663,48.329a2.888,2.888,0,0,0-.253-.743c-.045-.058-.089-.116-.131-.173a.408.408,0,0,1-.034.056,3.1,3.1,0,0,0,.5,1.414C324.723,48.727,324.7,48.545,324.663,48.329Z" fill="#f6df86" transform="translate(-324.245 -15.772)" stroke-linecap="round" stroke-linejoin="round" stroke-width="1" opacity="0.56"/>
          </g>
        </g>
        <g id="Grupo_4856" data-name="Grupo 4856" transform="translate(11.287 17.43)">
          <g id="Grupo_4855" data-name="Grupo 4855">
            <path id="Trazado_13890" data-name="Trazado 13890" d="M305.939,35.387l1.59-.5a3.775,3.775,0,0,1,2.161-.654,7.611,7.611,0,0,1,2.431.993c1.684,1.034,6.061-.146,9.226,2.809,3.94,3.677,6.9,10.4,8.344,12.928,1.8,3.154,2.594,2.8,3.155,3.893a4.058,4.058,0,0,0,1.526,1.605s1.387.033,1.66-.529-.114-.93-.057-2.187,1.061-1.185-.087-6.127-4.312-12.373-10.025-16.213c-6.368-4.279-11.584-2.429-13.216-1.4-.471.3-1.984,1.92-2.57,2.205a26.6,26.6,0,0,1-4.753,1.719Z" transform="translate(-305.325 -28.714)" fill="#f6df86" stroke="#846e63" stroke-linecap="round" stroke-linejoin="round" stroke-width="1"/>
            <path id="Trazado_13891" data-name="Trazado 13891" d="M327.948,49.374a6.417,6.417,0,0,1-.715.433.471.471,0,0,1,.052.041s1.387.033,1.66-.529C327.948,49.374,328.609,48.9,327.948,49.374Z" transform="translate(-298.237 -22.098)" fill="#f6df86" stroke="#846e63" stroke-linecap="round" stroke-linejoin="round" stroke-width="1"/>
            <path id="Trazado_13892" data-name="Trazado 13892" stroke="#846e63" d="M328.191,49.453a2.928,2.928,0,0,0-.769.155c-.064.037-.127.074-.189.107a.471.471,0,0,1,.052.041,3.08,3.08,0,0,0,1.465-.312C328.594,49.445,328.41,49.448,328.191,49.453Z" fill="#f6df86" transform="translate(-298.237 -22.006)" stroke-linecap="round" stroke-linejoin="round" stroke-width="1" opacity="0.56"/>
          </g>
        </g>
        <g id="Grupo_4858" data-name="Grupo 4858" transform="translate(27.753 9.395)">
          <g id="Grupo_4857" data-name="Grupo 4857">
            <path id="Trazado_13893" data-name="Trazado 13893" d="M317.766,23.8l1.162.631a2.99,2.99,0,0,1,1.564.87,6.013,6.013,0,0,1,.777,1.932c.34,1.529,3.428,3.371,3.493,6.8.082,4.274-2.112,9.667-2.756,11.889-.8,2.765-.163,3.02-.475,3.945a3.238,3.238,0,0,0-.073,1.755s.748.807,1.219.653.467-.578,1.212-1.24,1.261-.049,3.441-3.431,4.665-9.286,3.7-14.658c-1.077-5.989-5.011-7.937-6.5-8.3-.429-.1-2.189-.07-2.675-.246a21.137,21.137,0,0,1-3.6-1.758Z" transform="translate(-317.766 -22.643)" fill="#f6df86" stroke="#846e63" stroke-linecap="round" stroke-linejoin="round" stroke-width="1"/>
            <path id="Trazado_13894" data-name="Trazado 13894" d="M321.194,44.666a4.968,4.968,0,0,1-.642-.168.267.267,0,0,1,.005.053s.748.807,1.219.653C321.194,44.666,321.829,44.781,321.194,44.666Z" transform="translate(-316.865 -15.572)" fill="#f6df86" stroke="#846e63" stroke-linecap="round" stroke-linejoin="round" stroke-width="1"/>
            <path id="Trazado_13895" data-name="Trazado 13895" stroke="#846e63" d="M321.231,44.9a2.3,2.3,0,0,0-.512-.352c-.057-.016-.113-.032-.167-.049a.267.267,0,0,1,.005.053,2.442,2.442,0,0,0,.987.66Z" fill="#f6df86" transform="translate(-316.865 -15.572)" stroke-linecap="round" stroke-linejoin="round" stroke-width="1" opacity="0.56"/>
          </g>
        </g>
        <path id="Trazado_13896" data-name="Trazado 13896" d="M312.614,39.2s13.705,4.364,21.066-1.84c0,0,5.689,4.025,10.918-2.433,0,0,3.186,9.891,8.353,7.407l-19.8,13.507-21.7-14.961Z" transform="translate(-292.055 -9.273)" fill="#f6df86"/>
      </g>
    </g>
    <g id="Grupo_5441" data-name="Grupo 5441" transform="translate(775.442 842.392)">
      <g id="Grupo_4845" data-name="Grupo 4845" transform="translate(0 0)">
        <g id="Grupo_4838" data-name="Grupo 4838" transform="translate(0 0)">
          <path id="Trazado_13871" data-name="Trazado 13871" d="M562.161,14.271l-.446,3.76a8.589,8.589,0,0,1-.655,5.086c-.463,1.2-3.609,3.633-4.316,4.116-3.709,2.527-5.334,12.7-14.4,16.513-11.282,4.749-27.961,4.632-34.552,5.274-8.211.8-8.21,2.775-11,2.922a9.263,9.263,0,0,0-4.746,1.669s-1.357,2.847-.445,3.934c.934,1.12,2.036.63,4.583,1.913s1.468,3.3,12.779,5.518,29.654,2.564,42.924-5.708c14.791-9.218,15.8-21.75,15.189-26.09-.176-1.252-2.136-5.9-2.182-7.376a60.507,60.507,0,0,1,.858-11.447Z" transform="translate(-491.285 -14.271)" fill="#f6df86" stroke="#846e63" stroke-linecap="round" stroke-linejoin="round" stroke-width="1"/>
          <path id="Trazado_13872" data-name="Trazado 13872" d="M492.411,45.826a14.793,14.793,0,0,1-.234-1.882,1.047,1.047,0,0,1-.132.068s-1.357,2.847-.445,3.934C492.411,45.826,492.779,47.641,492.411,45.826Z" transform="translate(-491.285 -4.67)" fill="#f6df86" stroke="#846e63" stroke-linecap="round" stroke-linejoin="round" stroke-width="1"/>
          <path id="Trazado_13873" data-name="Trazado 13873" stroke="#846e63" d="M491.831,46.174a6.578,6.578,0,0,0,.392-1.738c-.016-.167-.034-.332-.046-.492a1.047,1.047,0,0,1-.132.068,7.014,7.014,0,0,0-.713,3.329C491.471,47.016,491.639,46.631,491.831,46.174Z" fill="#f6df86" transform="translate(-491.284 -4.67)" stroke-linecap="round" stroke-linejoin="round" stroke-width="1" opacity="0.56"/>
        </g>
        <g id="Grupo_4844" data-name="Grupo 4844" transform="translate(43.41 16.78)">
          <g id="Grupo_4839" data-name="Grupo 4839">
            <path id="Trazado_13874" data-name="Trazado 13874" d="M524.083,26.949a93.775,93.775,0,0,0,8.49,12.185c2.093,2.415,9.782,7.175,17.381,11.563.585.338,1.2.692,1.784.994,1.231.711,2.43,1.4,3.6,2.042.953.551,1.845,1.03,2.737,1.546,5.292,2.913,9.29,5.008,9.29,5.008l-.4-2.93-.461-.232-.585-6.837c.123.07-1.191-3.346-1.191-3.346Z" transform="translate(-524.083 -26.949)" fill="#f6df86" stroke="#846e63" stroke-linecap="round" stroke-linejoin="round" stroke-width="1"/>
          </g>
          <g id="Grupo_4840" data-name="Grupo 4840">
            <path id="Trazado_13875" data-name="Trazado 13875" d="M524.083,26.949a93.775,93.775,0,0,0,8.49,12.185c2.093,2.415,9.782,7.175,17.381,11.563.585.338,1.2.692,1.784.994,1.231.711,2.43,1.4,3.6,2.042.953.551,1.845,1.03,2.737,1.546,5.292,2.913,9.29,5.008,9.29,5.008l-.4-2.93-.461-.232-.585-6.837c.123.07,0-.782,0-.782l-15.012-8.1-2.678-1.437-3.536-1.9-1.754-.942Z" transform="translate(-524.083 -26.949)" fill="#f6df86" stroke="#846e63" stroke-linecap="round" stroke-linejoin="round" stroke-width="1"/>
          </g>
          <g id="Grupo_4841" data-name="Grupo 4841" transform="translate(41.833 23.345)">
            <path id="Trazado_13876" data-name="Trazado 13876" d="M555.69,44.587l18.032,9.3c1.927.994,3.437,3.788,3.049,5.649-.283,1.347-1.4,1.759-2.738,1.069l-17.295-8.959-.472-.245Z" transform="translate(-555.69 -44.587)" fill="#f6df86" stroke="#846e63" stroke-linecap="round" stroke-linejoin="round" stroke-width="1"/>
          </g>
          <g id="Grupo_4842" data-name="Grupo 4842" transform="translate(24.148 13.02)">
            <path id="Trazado_13877" data-name="Trazado 13877" d="M542.328,36.786l7.107,13.764c.953.551,1.845,1.03,2.737,1.546l-7.167-13.872Z" transform="translate(-542.328 -36.786)" fill="#f6df86" stroke="#846e63" stroke-linecap="round" stroke-linejoin="round" stroke-width="1"/>
          </g>
          <g id="Grupo_4843" data-name="Grupo 4843" transform="translate(18.858 10.177)">
            <path id="Trazado_13878" data-name="Trazado 13878" d="M538.331,34.638l7.013,13.57c.585.338,1.2.692,1.784.994L540.085,35.58Z" transform="translate(-538.331 -34.638)" fill="#f6df86" stroke="#846e63" stroke-linecap="round" stroke-linejoin="round" stroke-width="1"/>
          </g>
        </g>
      </g>
    </g>
  </g>
</svg>
