<svg xmlns="http://www.w3.org/2000/svg" xmlns:xlink="http://www.w3.org/1999/xlink" width="232" height="251.617" viewBox="0 0 232 251.617">
  <defs>
    <linearGradient id="linear-gradient" x1="17.894" y1="57.7" x2="18.899" y2="57.7" gradientUnits="objectBoundingBox">
      <stop offset="0" stop-color="#dcddde"/>
      <stop offset="1" stop-color="#fafdff"/>
    </linearGradient>
  </defs>
  <g id="Grupo_5429" data-name="Grupo 5429" transform="translate(-165.991 -2706.259)">
    <g id="Grupo_4465" data-name="Grupo 4465" transform="translate(165.991 2706.259)">
      <g id="Grupo_4464" data-name="Grupo 4464" transform="translate(0 0)">
        <rect id="Rectángulo_1312" data-name="Rectángulo 1312" width="35.61" height="1.506" transform="translate(195.139 107.5)" fill="#b8bddd"/>
        <rect id="Rectángulo_1313" data-name="Rectángulo 1313" width="40.461" height="113.539" transform="translate(98.507 13.096)" fill="#e4effb"/>
        <rect id="Rectángulo_1314" data-name="Rectángulo 1314" width="4.916" height="55.114" transform="translate(183.386)" fill="#e1e4f2"/>
        <circle id="Elipse_1288" data-name="Elipse 1288" cx="116" cy="116" r="116" transform="translate(0 19.617)" fill="#5863a8"/>
        <g id="Grupo_4455" data-name="Grupo 4455" transform="translate(114.91 2.743)">
          <path id="Trazado_13082" data-name="Trazado 13082" d="M146.759,27.154a3.513,3.513,0,0,1-1.723-.45A123.418,123.418,0,0,0,84.849,11.051a3.534,3.534,0,0,1,0-7.069A130.516,130.516,0,0,1,148.49,20.535a3.535,3.535,0,0,1-1.732,6.619Z" transform="translate(-81.315 -3.982)" fill="#e1e4f2"/>
        </g>
        <circle id="Elipse_1289" data-name="Elipse 1289" cx="102.098" cy="102.098" r="102.098" transform="translate(13.902 33.519)" fill="#999fcd"/>
        <g id="Grupo_4456" data-name="Grupo 4456" transform="translate(26.856 77.043)">
          <path id="Trazado_13083" data-name="Trazado 13083" d="M24.629,64.153a4.34,4.34,0,1,1,4.34-4.34A4.344,4.344,0,0,1,24.629,64.153Zm0-6.8a2.46,2.46,0,1,0,2.462,2.46A2.463,2.463,0,0,0,24.629,57.353Z" transform="translate(-20.29 -55.474)" fill="#e1e4f2"/>
        </g>
        <g id="Grupo_4457" data-name="Grupo 4457" transform="translate(21.373 72.356)">
          <path id="Trazado_13084" data-name="Trazado 13084" d="M19.464,58.174A2.974,2.974,0,1,1,22.438,55.2,2.977,2.977,0,0,1,19.464,58.174Zm0-4.661A1.686,1.686,0,1,0,21.149,55.2,1.689,1.689,0,0,0,19.464,53.513Z" transform="translate(-16.49 -52.226)" fill="#e1e4f2"/>
        </g>
        <g id="Grupo_4458" data-name="Grupo 4458" transform="translate(25.58 148.583)">
          <path id="Trazado_13085" data-name="Trazado 13085" d="M22.931,112.1a3.525,3.525,0,1,1,3.524-3.525A3.529,3.529,0,0,1,22.931,112.1Zm0-5.524a2,2,0,1,0,2,2A2,2,0,0,0,22.931,106.581Z" transform="translate(-19.406 -105.054)" fill="#e1e4f2"/>
        </g>
        <g id="Grupo_4459" data-name="Grupo 4459" transform="translate(17.009 162.859)">
          <path id="Trazado_13086" data-name="Trazado 13086" d="M16.99,122a3.524,3.524,0,1,1,3.525-3.525A3.528,3.528,0,0,1,16.99,122Zm0-5.522a2,2,0,1,0,2,2A2,2,0,0,0,16.99,116.475Z" transform="translate(-13.466 -114.948)" fill="#e1e4f2"/>
        </g>
        <g id="Grupo_4460" data-name="Grupo 4460" transform="translate(30.024 171.615)">
          <path id="Trazado_13087" data-name="Trazado 13087" d="M27.9,131.844a5.414,5.414,0,1,1,5.414-5.414A5.42,5.42,0,0,1,27.9,131.844Zm0-8.483a3.069,3.069,0,1,0,3.069,3.069A3.072,3.072,0,0,0,27.9,123.361Z" transform="translate(-22.486 -121.016)" fill="#e1e4f2"/>
        </g>
        <circle id="Elipse_1290" data-name="Elipse 1290" cx="81.702" cy="81.702" r="81.702" transform="translate(34.298 53.914)" fill="#f8f0d3"/>
        <rect id="Rectángulo_1315" data-name="Rectángulo 1315" width="40.956" height="126.636" transform="translate(142.429)" fill="#fff"/>
        <rect id="Rectángulo_1316" data-name="Rectángulo 1316" width="40.956" height="126.636" transform="translate(98.011)" fill="#e4effb"/>
        <rect id="Rectángulo_1317" data-name="Rectángulo 1317" width="40.956" height="126.636" transform="translate(53.748)" fill="#fff"/>
        <g id="Grupo_4461" data-name="Grupo 4461" transform="translate(173.923 36.062)">
          <path id="Trazado_13088" data-name="Trazado 13088" d="M125.737,34.122a3.524,3.524,0,1,1,3.525-3.525A3.528,3.528,0,0,1,125.737,34.122Zm0-5.522a2,2,0,1,0,2,2A2,2,0,0,0,125.737,28.6Z" transform="translate(-122.213 -27.073)" fill="#999fcd"/>
        </g>
        <g id="Grupo_4462" data-name="Grupo 4462" transform="translate(165.036 47.849)">
          <path id="Trazado_13089" data-name="Trazado 13089" d="M119.579,42.291a3.524,3.524,0,1,1,3.524-3.525A3.529,3.529,0,0,1,119.579,42.291Zm0-5.524a2,2,0,1,0,2,2A2,2,0,0,0,119.579,36.767Z" transform="translate(-116.054 -35.242)" fill="#999fcd"/>
        </g>
        <g id="Grupo_4463" data-name="Grupo 4463" transform="translate(174.859 56.917)">
          <path id="Trazado_13090" data-name="Trazado 13090" d="M127.964,51.729a5.1,5.1,0,1,1,5.1-5.1A5.107,5.107,0,0,1,127.964,51.729Zm0-8.483a3.382,3.382,0,1,0,3.381,3.382A3.385,3.385,0,0,0,127.964,43.246Z" transform="translate(-122.862 -41.526)" fill="#999fcd"/>
        </g>
      </g>
    </g>
    <g id="Grupo_4475" data-name="Grupo 4475" transform="translate(213.333 2791.122)">
      <g id="Grupo_4467" data-name="Grupo 4467" transform="translate(58.395 41.386)">
        <rect id="Rectángulo_1318" data-name="Rectángulo 1318" width="42.806" height="43.093" transform="translate(2.482 14.635)" fill="#b8bddd"/>
        <path id="Trazado_13091" data-name="Trazado 13091" d="M116.259,90.8l-9.915,12.863v43.093l8.435-19.83Z" transform="translate(-61.055 -89.032)" fill="#999fcd"/>
        <g id="Grupo_4466" data-name="Grupo 4466">
          <path id="Trazado_13092" data-name="Trazado 13092" d="M130.578,90.168l0,.016c.006.082-.063.163-.183.193a.866.866,0,0,1-.228.02c-.5-.025-1-.053-1.5-.081l-.26-.017-1.672-.111c-.433-.027-.866-.053-1.3-.075-.626-.033-1.252-.061-1.877-.089-.088,0-.175-.009-.261-.01-1.022-.026-2.043-.043-3.065-.076-2.69-.087-5.379-.04-8.069-.027-1.639.009-3.278.035-4.917.055-.828.01-1.658.026-2.486.042q-1.578.032-3.153.069-.939.022-1.879.05c-.838.027-1.677.061-2.515.092l-.173.006c-.906.025-1.812.048-2.717.078-1.011.035-2.023.076-3.034.115-.462.017-.925.033-1.387.052-.212.009-.423.025-.649.039a1.79,1.79,0,0,1-.53.558c-.509.365-1.017.732-1.531,1.089q-3.842,2.684-7.529,5.575-1.89,1.478-3.782,2.955c-.212.166-.413.349-.619.524-.036.03-.072.063-.111.091a.144.144,0,0,1-.105.029c.03.162.18.26.361.319l-.01-.033a.177.177,0,0,1,.267-.046.559.559,0,0,0,.219.062c.143.022.286.038.43.049.606.046,1.211.092,1.817.131.528.036,1.058.063,1.587.094.048,0,.1.007.144.009.587.026,1.175.049,1.762.078.538.026,1.078.059,1.616.089l.058,0c.713.025,1.426.058,2.138.074,1.244.029,2.486.049,3.73.072.809.016,1.619.033,2.428.048q1.909.037,3.817.069l2.805.049,4.078.066q1.461.024,2.92.052,1.242.026,2.486.062.868.024,1.734.055c.742.027,1.483.058,2.225.087l.144.006c.867.026,1.734.049,2.6.078.771.026,1.541.059,2.312.089l.144.006q1.314.039,2.63.078.952.028,1.908.065a1.2,1.2,0,0,1,.283.048.153.153,0,0,1,.051.026,2.18,2.18,0,0,0,.307-.339.157.157,0,0,1-.13-.153.415.415,0,0,1,.053-.19,3,3,0,0,1,.212-.309c1.27-1.685,2.548-3.365,3.808-5.057q2.086-2.807,4.241-5.564c.059-.075.115-.153.176-.228a1.464,1.464,0,0,0,.372-.8.175.175,0,0,1,.1-.159A.563.563,0,0,0,130.578,90.168Zm-2.3,1.045a4.3,4.3,0,0,1-.345.531c-1.456,1.675-2.8,3.44-4.15,5.2-.818,1.062-1.675,2.092-2.532,3.121-.493.593-.977,1.195-1.46,1.795a1.158,1.158,0,0,1-.567.453c-.009-.035-.033-.074-.023-.1l.016-.033a.837.837,0,0,1-.511.055.2.2,0,0,1-.066.092.258.258,0,0,1-.134.046c-.328.026-.654.069-.98.063-.723-.014-1.444-.058-2.167-.082q-.606-.022-1.215-.027-3.123-.037-6.246-.071c-1.351-.016-2.7-.04-4.049-.061q-1.894-.026-3.789-.055-2-.028-3.991-.061-1.474-.024-2.949-.055-1.286-.026-2.573-.061l-2.255-.055c-1.7-.039-3.392-.072-5.089-.117-.635-.017-1.271-.058-1.906-.089-.472-.023-.944-.045-1.414-.076-.491-.035-.98-.076-1.47-.118a2.475,2.475,0,0,1-.665-.183.147.147,0,0,1-.082-.214,1.307,1.307,0,0,1,.2-.28c.209-.214.423-.423.644-.623,1.065-.965,2.183-1.867,3.319-2.747Q84.9,95.079,87.977,92.7q.8-.619,1.606-1.232c.153-.115.316-.219.478-.326a.971.971,0,0,1,.489-.156c.268-.017.538-.039.805-.072.525-.068,1.05-.137,1.58-.164.8-.042,1.6-.1,2.4-.147.038,0,.076,0,.115-.006l2.4-.072,3.208-.1.144,0c1.167-.026,2.333-.042,3.5-.078,3.1-.1,6.207-.105,9.313-.127,1.928-.013,3.855-.027,5.785-.022,1.147,0,2.293.049,3.44.076.222.006.443.01.665.017.694.022,1.388.042,2.081.071.278.012.557.045.835.069.173.014.345.03.518.042a1.923,1.923,0,0,1,.7.163.464.464,0,0,1,.137.1.115.115,0,0,1,.006.14.194.194,0,0,1,.036.114.085.085,0,0,1,.063.036.2.2,0,0,1,.03.105A.174.174,0,0,1,128.275,91.212Z" transform="translate(-74.917 -89.439)" fill="#fff"/>
          <path id="Trazado_13093" data-name="Trazado 13093" d="M123.34,90.643a.111.111,0,0,1-.062.046.576.576,0,0,1-.172.019c-.365-.016-.732-.033-1.1-.055-.644-.039-1.289-.1-1.932-.12-1.118-.036-2.237-.046-3.355-.076-2.352-.065-4.7-.048-7.057-.03-1.648.013-3.3.025-4.945.043-1.312.016-2.622.04-3.933.065-.791.014-1.58.035-2.371.052l-2.69.063L93.56,90.7c-.781.02-1.563.038-2.342.063q-1.563.05-3.121.115c-.414.017-.827.061-1.241.087-.278.019-.558.027-.837.036l-.055,0,.013.351H86c.016,0,.046.036.049.059a1.735,1.735,0,0,1,.017.229c0,.133,0,.265,0,.44A.83.83,0,0,1,86,92.024l.01.271a.37.37,0,0,1,.169-.043c.317-.013.635-.03.952-.049.5-.03,1-.063,1.5-.1L89.7,92.04c.307-.019.616-.042.923-.053.684-.026,1.368-.056,2.052-.069,1.861-.032,3.723-.048,5.583-.084,3.066-.056,6.132-.052,9.2-.02,1.234.012,2.467.038,3.7.059l3.182.053c1.118.02,2.237.039,3.355.062.626.013,1.252.027,1.879.055.548.025,1.1.066,1.645.105a.923.923,0,0,1,.224.048.128.128,0,0,1,.092.131.151.151,0,0,1-.009.058l.228.02q.476-.571.964-1.133a2.935,2.935,0,0,1,.492-.444.4.4,0,0,1,.1-.061.142.142,0,0,1,.068-.01A.194.194,0,0,0,123.34,90.643Z" transform="translate(-70.082 -89.207)" fill="#d6d6d6"/>
          <path id="Trazado_13094" data-name="Trazado 13094" d="M79.243,100.681a.1.1,0,0,1,.019-.131c.046-.048.1-.091.15-.134,1.6-1.381,3.242-2.705,4.907-4,1.353-1.056,2.7-2.115,4.06-3.164.4-.3.818-.577,1.228-.866a.981.981,0,0,0,.225-.176.353.353,0,0,1,.1-.092l-.01-.271a.466.466,0,0,1-.1-.628.117.117,0,0,1,.072-.039l-.013-.351a.393.393,0,0,0-.218.072c-.511.378-1.033.742-1.535,1.13q-3.742,2.892-7.473,5.795c-1.115.874-2.2,1.788-3.3,2.684-.087.072-.169.15-.25.222.05.088.123.082.188.088.2.016.4.035.606.043.354.014.707.03,1.059.043l.284-.214Z" transform="translate(-74.003 -89.024)" fill="#ccc"/>
          <path id="Trazado_13095" data-name="Trazado 13095" d="M124.88,91.826a.148.148,0,0,1-.072.085.647.647,0,0,1-.335.074q-.435-.009-.867-.025c-.144,0-.289-.019-.433-.023-.675-.02-1.349-.042-2.024-.053q-2.573-.043-5.148-.081l-3.876-.063c-1.668-.026-3.335-.049-4.619-.068-2.371.016-4.358.027-6.343.043q-1.838.017-3.674.048-1.374.022-2.747.061c-.626.02-1.251.068-1.877.088-1,.033-2,.12-3.006.061a.509.509,0,0,0-.367.128q-3.418,2.649-6.839,5.291-1.794,1.39-3.587,2.783a2.462,2.462,0,0,1-.238.162.112.112,0,0,1-.147-.025l-.284.214c.273.012.545.022.82.029q1.706.052,3.411.091c.809.017,1.619.016,2.43.03q1.807.03,3.615.069c.732.014,1.465.036,2.2.051q1.853.035,3.7.066,1.6.026,3.209.046l5.785.071,4.078.05c1.7.019,3.394.033,5.091.056.82.012,1.639.03,2.457.068a10.969,10.969,0,0,1,1.268.087c.123.02.251.009.375.022a1.62,1.62,0,0,1,.312.055.139.139,0,0,1,.078.1.111.111,0,0,1,0,.022.837.837,0,0,0,.511-.055,1.63,1.63,0,0,1,.1-.169,26.036,26.036,0,0,1,1.765-2.433c.436-.54.889-1.066,1.319-1.61.812-1.029,1.616-2.066,2.418-3.1q.872-1.128,1.781-2.226Z" transform="translate(-73.434 -88.648)" fill="#c2c2c2"/>
          <path id="Trazado_13096" data-name="Trazado 13096" d="M120.546,99.912a9.88,9.88,0,0,1-1.508,1.463,1.168,1.168,0,0,1-.566.2,1.364,1.364,0,0,1-.231.007c-1.475,0-2.949,0-4.424-.012-.743,0-1.485-.025-2.226-.043-1.042-.026-2.082-.059-3.122-.084-.521-.013-1.042-.019-1.561-.023q-1.751-.013-3.5-.022-3.788-.028-7.577-.058-2.067-.017-4.135-.052c-.974-.019-1.947-.056-2.919-.085l-.2-.007c-1.013-.026-2.024-.046-3.036-.078-.694-.022-1.387-.059-2.081-.091l-.144-.007c-.664-.025-1.329-.046-1.993-.076-.579-.026-1.156-.058-1.733-.091-.413-.022-.827-.042-1.239-.076-.289-.026-.574-.069-.859-.115a.518.518,0,0,1-.41-.238.089.089,0,0,0-.038-.042.511.511,0,0,1-.241-.493,4.37,4.37,0,0,1,.072-.834c.019-.143.053-.283.082-.434a.614.614,0,0,0-.3-.079c-.276-.05-.551-.089-.827-.134-.048-.007-.094-.019-.141-.027a.461.461,0,0,1-.4-.333A.177.177,0,0,1,75.557,98a.559.559,0,0,0,.219.062c.143.022.286.038.43.049.606.046,1.211.092,1.817.131.528.036,1.058.063,1.587.094.048,0,.1.007.144.009.587.026,1.175.049,1.762.078.538.026,1.078.059,1.616.089l.058,0c.713.025,1.426.058,2.138.074,1.244.029,2.486.049,3.73.072.809.016,1.619.033,2.428.048q1.909.037,3.817.069l2.805.049,4.078.066q1.461.024,2.92.052,1.242.026,2.486.062.868.024,1.734.055c.742.027,1.483.058,2.225.087l.144.006c.867.026,1.734.049,2.6.078.771.026,1.541.059,2.312.089l.144.006q1.314.039,2.63.078.952.028,1.908.065a1.2,1.2,0,0,1,.283.048.156.156,0,0,1,.11.154.172.172,0,0,1-.124.176,1.9,1.9,0,0,1-.313.045c-.192.01-.385.009-.579.013C120.631,99.9,120.592,99.908,120.546,99.912Zm-1.775,1.214c.364-.374.729-.745,1.091-1.117.032-.033.074-.065.033-.136-.136-.006-.278-.014-.423-.014a1.655,1.655,0,0,0-.468.017c-.014.113-.026.216-.04.322a.422.422,0,0,1-.133.286c-.159-.183-.108-.418-.157-.635-.273-.016-.531-.035-.791-.045l-3.323-.114-3.44-.118q-1.749-.058-3.5-.113-1.27-.037-2.544-.063-1.387-.028-2.776-.049l-4.135-.068L95.42,99.23l-3.7-.066-2.545-.049q-1.779-.035-3.557-.071-.751-.015-1.5-.049c-.973-.042-1.945-.091-2.918-.137-.058,0-.115-.006-.173-.01-.538-.032-1.078-.062-1.616-.1l-1.616-.1c-.087-.006-.173-.013-.26-.016s-.167,0-.241,0a.306.306,0,0,0-.032.071c-.019.289-.04.577-.053.866-.007.144,0,.289,0,.434a.229.229,0,0,0,.087.2.823.823,0,0,1,.092.1,13.438,13.438,0,0,0,1.625.11c1.02.055,2.042.084,3.063.123q1.574.058,3.15.113,1.069.035,2.138.064l1.734.05c.867.022,1.734.049,2.6.063q1.706.03,3.413.046,3.9.032,7.809.059c2.729.023,5.457.02,8.184.121,1.156.043,2.313.056,3.47.065C115.96,101.134,117.348,101.126,118.771,101.126Z" transform="translate(-74.81 -85.866)" fill="#c2c2c2"/>
          <path id="Trazado_13097" data-name="Trazado 13097" d="M77.231,101.047c.051.088.123.082.188.088.2.016.4.035.606.043.626.026,1.252.053,1.879.072q1.706.052,3.411.091c.809.017,1.619.016,2.43.03q1.807.03,3.615.069c.732.014,1.465.036,2.2.051q1.853.035,3.7.066,1.6.026,3.209.046l5.785.071,4.078.05c1.7.019,3.394.033,5.091.056.82.012,1.639.03,2.457.068a10.969,10.969,0,0,1,1.268.087c.123.02.251.009.375.022a1.62,1.62,0,0,1,.312.055.139.139,0,0,1,.078.1.173.173,0,0,1-.069.114.258.258,0,0,1-.134.046c-.328.026-.654.069-.98.063-.723-.014-1.444-.058-2.167-.082q-.606-.022-1.215-.027-3.123-.037-6.246-.071c-1.351-.016-2.7-.04-4.049-.061q-1.894-.026-3.789-.055-2-.028-3.991-.061-1.474-.024-2.949-.055-1.286-.026-2.573-.061l-2.255-.055c-1.7-.039-3.392-.072-5.089-.117-.635-.017-1.271-.058-1.906-.089-.472-.023-.944-.045-1.414-.076-.491-.035-.98-.076-1.47-.118a2.475,2.475,0,0,1-.665-.183.147.147,0,0,1-.082-.214,1.306,1.306,0,0,1,.2-.28c.209-.214.423-.423.644-.623,1.065-.965,2.183-1.867,3.319-2.747q3.076-2.381,6.153-4.759.8-.619,1.606-1.232c.153-.115.316-.219.478-.326a.971.971,0,0,1,.489-.156c.268-.017.538-.039.805-.072.525-.068,1.05-.137,1.58-.164.8-.042,1.6-.1,2.4-.147.038,0,.076,0,.115-.006l2.4-.072,3.208-.1.144,0c1.167-.026,2.333-.042,3.5-.078,3.1-.1,6.207-.105,9.313-.127,1.928-.013,3.856-.027,5.785-.022,1.147,0,2.293.049,3.44.076.222.006.443.01.665.017.694.022,1.388.042,2.081.071.278.012.557.045.835.069.173.014.345.03.518.042a1.923,1.923,0,0,1,.7.163.464.464,0,0,1,.137.1.117.117,0,0,1-.056.186.576.576,0,0,1-.172.019c-.365-.016-.732-.033-1.1-.055-.644-.039-1.289-.1-1.932-.12-1.118-.036-2.237-.046-3.355-.076-2.352-.065-4.7-.048-7.057-.03-1.648.013-3.3.025-4.945.043-1.312.016-2.622.04-3.933.065-.791.014-1.58.035-2.371.052l-2.69.063L97.6,90.84c-.781.02-1.563.038-2.342.063q-1.563.05-3.121.115c-.414.017-.827.061-1.241.087-.278.019-.558.027-.837.036a.437.437,0,0,0-.273.075c-.511.378-1.033.742-1.535,1.13q-3.742,2.892-7.473,5.795c-1.115.874-2.2,1.788-3.3,2.684C77.394,100.9,77.311,100.975,77.231,101.047Z" transform="translate(-74.121 -89.344)" fill="#c2c2c2"/>
          <path id="Trazado_13098" data-name="Trazado 13098" d="M89.294,90.645a1.79,1.79,0,0,1-.53.558c-.509.365-1.017.732-1.531,1.089q-3.842,2.684-7.529,5.575-1.89,1.478-3.782,2.955c-.212.166-.413.349-.619.524-.036.03-.072.063-.111.091a.146.146,0,0,1-.231-.14.493.493,0,0,1,.1-.2c.192-.2.387-.4.6-.587.3-.26.606-.508.916-.753,2.258-1.791,4.524-3.574,6.848-5.278,1.492-1.1,3.01-2.153,4.515-3.231.3-.218.6-.446.9-.672a.768.768,0,0,1,.335-.154,15.716,15.716,0,0,1,2.466-.28c.616-.019,1.232-.061,1.848-.094l.115,0c.684-.026,1.368-.049,2.052-.076s1.366-.061,2.05-.092l.115,0,2.863-.075,3.5-.092c.212-.006.424-.009.636-.012,2.42-.03,4.84-.065,7.259-.087q2.937-.028,5.871-.025c1.118,0,2.237.038,3.355.062q.853.017,1.706.049c.742.027,1.483.061,2.225.1q.693.032,1.385.076c.385.026.769.061,1.153.089.346.026.691.052,1.037.074.433.027.867.048,1.3.075a2.323,2.323,0,0,1,.315.043c.123.025.195.1.2.179s-.063.163-.183.193a.866.866,0,0,1-.228.02c-.5-.025-1-.053-1.5-.081l-.26-.017-1.672-.111c-.433-.027-.866-.053-1.3-.075-.626-.033-1.252-.061-1.877-.089-.088,0-.175-.009-.261-.01-1.022-.026-2.043-.043-3.065-.076-2.69-.087-5.379-.04-8.069-.027-1.639.009-3.278.035-4.917.055-.828.01-1.658.026-2.486.042q-1.578.032-3.153.069-.939.022-1.879.05c-.838.027-1.677.061-2.515.092l-.173.006c-.906.025-1.812.048-2.717.078-1.011.035-2.023.076-3.034.115-.462.017-.925.033-1.387.052C89.731,90.615,89.52,90.631,89.294,90.645Z" transform="translate(-74.957 -89.576)" fill="#c2c2c2"/>
          <path id="Trazado_13099" data-name="Trazado 13099" d="M107.425,91.807c-2.371.016-4.358.027-6.343.043q-1.838.017-3.674.048-1.374.022-2.747.061c-.626.02-1.251.068-1.877.088-1,.033-2,.12-3.006.061a.509.509,0,0,0-.367.128q-3.418,2.649-6.839,5.291-1.794,1.39-3.587,2.783a2.464,2.464,0,0,1-.238.162.112.112,0,0,1-.153-.032.1.1,0,0,1,.019-.131c.046-.048.1-.091.15-.134,1.6-1.381,3.242-2.705,4.907-4,1.353-1.056,2.7-2.115,4.06-3.164.4-.3.818-.577,1.228-.866a.982.982,0,0,0,.225-.176.326.326,0,0,1,.27-.136c.317-.013.635-.03.952-.049.5-.03,1-.063,1.5-.1l1.068-.068c.307-.019.616-.042.923-.053.684-.026,1.368-.056,2.052-.069,1.861-.032,3.723-.048,5.583-.084,3.066-.056,6.132-.052,9.2-.02,1.234.012,2.467.038,3.7.059l3.182.053c1.118.02,2.237.039,3.355.062.626.013,1.252.027,1.879.055.548.025,1.1.066,1.645.105a.924.924,0,0,1,.224.048.128.128,0,0,1,.092.131.152.152,0,0,1-.081.143.647.647,0,0,1-.335.074q-.435-.009-.867-.025c-.144,0-.289-.019-.433-.023-.675-.02-1.349-.042-2.024-.053q-2.573-.043-5.148-.081l-3.876-.063C110.376,91.849,108.709,91.826,107.425,91.807Z" transform="translate(-73.354 -88.783)" fill="#c2c2c2"/>
          <path id="Trazado_13100" data-name="Trazado 13100" d="M116.715,90.57a.785.785,0,0,1-.134.493c-.108.17-.219.341-.342.5-.818,1.074-1.644,2.14-2.456,3.218-1.2,1.6-2.4,3.211-3.6,4.812-.684.909-1.379,1.808-2.073,2.71a2.527,2.527,0,0,1-.255.273.331.331,0,0,1-.127.065.156.156,0,0,1-.2-.149.415.415,0,0,1,.053-.19,3,3,0,0,1,.212-.309c1.27-1.685,2.548-3.365,3.808-5.057q2.086-2.807,4.241-5.564c.059-.075.115-.153.176-.228a1.464,1.464,0,0,0,.372-.8c.009-.117.085-.179.16-.167.092.014.123.085.14.163.006.029.013.056.016.085C116.708,90.473,116.712,90.522,116.715,90.57Z" transform="translate(-60.532 -89.311)" fill="#c2c2c2"/>
          <path id="Trazado_13101" data-name="Trazado 13101" d="M105.669,101.971c-.009-.035-.033-.074-.023-.1a1.526,1.526,0,0,1,.111-.2,26.037,26.037,0,0,1,1.765-2.433c.436-.54.889-1.066,1.319-1.61.812-1.029,1.616-2.066,2.418-3.1.885-1.144,1.794-2.268,2.744-3.359a2.935,2.935,0,0,1,.492-.444.4.4,0,0,1,.1-.061.105.105,0,0,1,.131.026.2.2,0,0,1,.03.105.173.173,0,0,1-.03.081,4.294,4.294,0,0,1-.345.531c-1.456,1.675-2.8,3.44-4.15,5.2-.818,1.062-1.675,2.092-2.532,3.121-.493.593-.977,1.195-1.46,1.795A1.158,1.158,0,0,1,105.669,101.971Z" transform="translate(-61.365 -89.101)" fill="#c2c2c2"/>
          <path id="Trazado_13102" data-name="Trazado 13102" d="M86.108,91.795c-.263-.24-.3-.443-.16-.688a.126.126,0,0,1,.092-.04c.016,0,.046.036.049.059a1.736,1.736,0,0,1,.017.229C86.11,91.487,86.108,91.62,86.108,91.795Z" transform="translate(-70.125 -88.917)" fill="#c2c2c2"/>
          <path id="Trazado_13103" data-name="Trazado 13103" d="M117.3,99.595l-3.323-.114-3.44-.118q-1.749-.058-3.5-.113-1.27-.037-2.544-.063-1.387-.028-2.776-.049l-4.135-.068-2.747-.049-3.7-.066-2.545-.049q-1.779-.035-3.557-.071-.751-.015-1.5-.049c-.973-.042-1.945-.091-2.918-.137-.058,0-.115-.006-.173-.01-.538-.032-1.078-.062-1.616-.1l-1.616-.1c-.087-.006-.173-.013-.26-.016s-.167,0-.241,0a.305.305,0,0,0-.032.071c-.019.289-.04.577-.053.866-.007.144,0,.289,0,.434a.229.229,0,0,0,.087.2.822.822,0,0,1,.092.1,13.438,13.438,0,0,0,1.625.11c1.02.055,2.042.084,3.063.123q1.574.058,3.15.113,1.069.035,2.138.064l1.734.05c.867.022,1.734.049,2.6.063q1.706.03,3.413.046,3.9.032,7.809.059c2.729.023,5.457.02,8.184.121,1.156.043,2.313.056,3.47.065,1.388.012,2.776,0,4.2,0l.027-.027v-.659c-.117-.176-.079-.391-.124-.59C117.815,99.624,117.556,99.6,117.3,99.595Z" transform="translate(-74.223 -85.657)" fill="#ededed"/>
          <path id="Trazado_13104" data-name="Trazado 13104" d="M106.54,99.291c-.136-.006-.278-.014-.423-.014a1.655,1.655,0,0,0-.468.017c-.014.113-.026.216-.04.322a.422.422,0,0,1-.133.286.324.324,0,0,1-.033-.045v.659l1.063-1.089C106.538,99.393,106.58,99.362,106.54,99.291Z" transform="translate(-61.454 -85.284)" fill="#e0e0e0"/>
        </g>
      </g>
      <g id="Grupo_4469" data-name="Grupo 4469" transform="translate(48.12 36.027)">
        <path id="Trazado_13105" data-name="Trazado 13105" d="M146.462,100.364H69.591a1.878,1.878,0,0,1-1.755-1.971h0a1.878,1.878,0,0,1,1.755-1.972h76.872a1.878,1.878,0,0,1,1.755,1.972h0A1.878,1.878,0,0,1,146.462,100.364Z" transform="translate(-67.836 -81.186)" fill="#514f78"/>
        <g id="Grupo_4468" data-name="Grupo 4468" transform="translate(7.683)">
          <path id="Trazado_13106" data-name="Trazado 13106" d="M133.186,86.5l0,.017c.006.089-.069.177-.2.209a.936.936,0,0,1-.245.022c-.541-.027-1.081-.058-1.62-.088-.094,0-.188-.012-.28-.019-.6-.039-1.2-.081-1.807-.118-.466-.03-.934-.059-1.4-.082-.675-.035-1.351-.065-2.026-.1-.094,0-.188-.01-.281-.012-1.1-.027-2.2-.046-3.307-.082-2.9-.094-5.8-.043-8.708-.03-1.769.009-3.538.038-5.306.059-.895.012-1.789.029-2.684.046q-1.7.035-3.4.074-1.013.024-2.027.055c-.9.03-1.809.066-2.714.1l-.186.006c-.978.027-1.955.052-2.933.085-1.091.036-2.183.082-3.274.124-.5.019-1,.036-1.5.056-.229.01-.457.027-.7.042a1.964,1.964,0,0,1-.573.6c-.548.394-1.1.789-1.652,1.176q-4.145,2.9-8.124,6.016-2.041,1.6-4.083,3.19c-.228.179-.444.375-.667.564a1.546,1.546,0,0,1-.12.1.155.155,0,0,1-.114.032c.032.173.193.28.39.343l-.012-.035a.191.191,0,0,1,.289-.051.616.616,0,0,0,.237.068c.153.023.309.04.465.052.652.049,1.306.1,1.959.143.57.038,1.141.068,1.713.1.052,0,.1.007.156.009.633.029,1.267.053,1.9.084.583.029,1.163.063,1.745.1l.063,0c.769.027,1.538.062,2.307.081,1.342.03,2.684.052,4.026.078l2.62.05q2.061.039,4.12.074l3.026.055,4.4.071q1.576.026,3.151.056,1.342.028,2.682.066.937.026,1.871.059c.8.029,1.6.062,2.4.094l.156.006c.936.027,1.871.053,2.808.085.831.027,1.662.063,2.495.1l.156.006,2.838.084c.685.022,1.372.043,2.058.071a1.3,1.3,0,0,1,.306.05.133.133,0,0,1,.055.029,2.32,2.32,0,0,0,.332-.366.17.17,0,0,1-.14-.166.442.442,0,0,1,.058-.2,3.69,3.69,0,0,1,.229-.333c1.369-1.818,2.749-3.63,4.108-5.457q2.253-3.03,4.577-6c.063-.082.126-.166.19-.247a1.581,1.581,0,0,0,.4-.861.19.19,0,0,1,.105-.173A.623.623,0,0,0,133.186,86.5ZM130.7,87.629a4.811,4.811,0,0,1-.372.573c-1.571,1.808-3.02,3.713-4.479,5.609-.882,1.147-1.808,2.257-2.733,3.369-.532.639-1.053,1.289-1.576,1.935a1.243,1.243,0,0,1-.612.491c-.009-.039-.035-.081-.025-.107l.017-.036a.88.88,0,0,1-.551.059.215.215,0,0,1-.072.1.287.287,0,0,1-.144.052c-.354.026-.706.074-1.058.066-.781-.014-1.56-.061-2.339-.088-.436-.016-.873-.025-1.31-.029-2.248-.027-4.495-.049-6.741-.076-1.457-.019-2.913-.043-4.369-.065l-4.089-.059-4.307-.066q-1.591-.026-3.183-.059-1.387-.03-2.776-.065c-.811-.02-1.623-.042-2.434-.061-1.831-.042-3.661-.078-5.492-.126-.685-.019-1.371-.062-2.058-.1-.508-.026-1.017-.049-1.525-.084-.53-.036-1.058-.082-1.586-.128a2.719,2.719,0,0,1-.72-.2.16.16,0,0,1-.087-.232,1.494,1.494,0,0,1,.216-.3c.227-.229.456-.456.7-.672,1.149-1.042,2.355-2.014,3.581-2.964q3.318-2.569,6.639-5.137.864-.667,1.734-1.329c.165-.126.341-.238.514-.352a1.052,1.052,0,0,1,.528-.167c.29-.019.582-.042.869-.079.567-.072,1.134-.147,1.706-.176.861-.046,1.723-.105,2.584-.16l.126-.006,2.589-.078,3.463-.1.156,0c1.258-.027,2.518-.046,3.776-.085,3.349-.1,6.7-.114,10.049-.137,2.081-.013,4.161-.03,6.242-.023,1.238.006,2.476.053,3.714.082l.717.019c.749.025,1.5.045,2.245.076.3.012.6.049.9.075.186.016.372.033.56.045a2.083,2.083,0,0,1,.753.176.52.52,0,0,1,.149.107.123.123,0,0,1,.006.151.209.209,0,0,1,.039.124.085.085,0,0,1,.069.039.206.206,0,0,1,.032.114A.172.172,0,0,1,130.7,87.629Z" transform="translate(-73.118 -85.714)" fill="#fff"/>
          <path id="Trazado_13107" data-name="Trazado 13107" d="M125.373,87.014a.107.107,0,0,1-.066.051.66.66,0,0,1-.185.02c-.394-.017-.789-.036-1.183-.059-.7-.042-1.391-.105-2.086-.128-1.206-.04-2.413-.052-3.619-.084-2.538-.069-5.078-.052-7.616-.032q-2.669.019-5.337.046c-1.416.017-2.83.045-4.245.069-.853.016-1.706.038-2.558.058l-2.9.066-2.34.058c-.843.022-1.684.04-2.527.068q-1.684.054-3.368.124c-.447.019-.892.066-1.339.1-.3.019-.6.029-.9.038l-.059,0,.014.379.022,0c.017,0,.049.039.053.065a2.005,2.005,0,0,1,.019.247c0,.143,0,.287,0,.475-.025-.022-.048-.043-.068-.065l.012.293a.408.408,0,0,1,.182-.046c.343-.014.685-.033,1.029-.053.54-.033,1.079-.069,1.619-.1l1.151-.072c.333-.02.665-.045,1-.058.739-.029,1.476-.062,2.215-.074,2.007-.035,4.016-.053,6.024-.091,3.309-.062,6.617-.056,9.926-.023,1.332.013,2.664.042,4,.063l3.433.059q1.809.032,3.62.066c.675.014,1.352.029,2.027.059.593.026,1.183.072,1.775.113a1.085,1.085,0,0,1,.242.052.142.142,0,0,1,.1.143.175.175,0,0,1-.01.062l.247.022q.513-.617,1.039-1.222a3.29,3.29,0,0,1,.531-.48.472.472,0,0,1,.105-.065.16.16,0,0,1,.072-.01A.209.209,0,0,0,125.373,87.014Z" transform="translate(-67.9 -85.463)" fill="#d6d6d6"/>
          <path id="Trazado_13108" data-name="Trazado 13108" d="M77.787,97.846a.108.108,0,0,1,.019-.141c.05-.052.108-.1.163-.146,1.724-1.489,3.5-2.919,5.3-4.32,1.46-1.14,2.916-2.283,4.382-3.414.427-.33.883-.625,1.325-.936a1.021,1.021,0,0,0,.242-.189.389.389,0,0,1,.11-.1l-.012-.293a.5.5,0,0,1-.105-.677.121.121,0,0,1,.078-.042l-.014-.379a.423.423,0,0,0-.234.078c-.553.408-1.115.8-1.658,1.221-2.692,2.079-5.386,4.156-8.065,6.254-1.2.942-2.374,1.928-3.558,2.9-.094.076-.182.162-.268.24.053.094.131.088.2.094.218.017.436.038.654.046l1.143.049.307-.231Z" transform="translate(-72.131 -85.266)" fill="#ccc"/>
          <path id="Trazado_13109" data-name="Trazado 13109" d="M127.035,88.291a.164.164,0,0,1-.078.091.671.671,0,0,1-.362.079q-.468-.009-.935-.025c-.156-.006-.312-.022-.467-.026-.727-.022-1.456-.045-2.185-.058q-2.777-.048-5.555-.087-2.091-.035-4.182-.069l-4.985-.074c-2.558.017-4.7.03-6.845.048q-1.983.017-3.965.051c-.988.017-1.977.036-2.964.066-.677.022-1.351.074-2.026.1-1.082.035-2.161.128-3.245.065a.548.548,0,0,0-.4.139q-3.686,2.857-7.379,5.71-1.939,1.5-3.871,3a2.6,2.6,0,0,1-.258.173.118.118,0,0,1-.157-.025l-.307.231q.442.017.885.03,1.84.056,3.681.1c.873.019,1.747.017,2.622.032,1.3.022,2.6.049,3.9.075.791.016,1.581.039,2.372.055q2,.037,3.994.071,1.732.03,3.464.05l6.242.076,4.4.055c1.831.02,3.662.035,5.493.061.883.013,1.768.033,2.652.072a11.738,11.738,0,0,1,1.368.1c.133.022.27.009.405.022a1.909,1.909,0,0,1,.336.059.153.153,0,0,1,.084.113.113.113,0,0,1,0,.023.88.88,0,0,0,.551-.059,1.636,1.636,0,0,1,.1-.182,27.8,27.8,0,0,1,1.9-2.625c.47-.583.96-1.15,1.424-1.739q1.314-1.667,2.609-3.348.942-1.216,1.922-2.4Z" transform="translate(-71.517 -84.861)" fill="#c2c2c2"/>
          <path id="Trazado_13110" data-name="Trazado 13110" d="M122.359,97.016a10.63,10.63,0,0,1-1.628,1.579,1.252,1.252,0,0,1-.61.212,1.58,1.58,0,0,1-.248.009c-1.592,0-3.185,0-4.776-.013-.8-.006-1.6-.027-2.4-.048-1.123-.027-2.245-.062-3.369-.089-.561-.014-1.123-.02-1.685-.025-1.258-.01-2.518-.016-3.776-.025q-4.089-.028-8.177-.061-2.231-.019-4.463-.058c-1.05-.019-2.1-.059-3.15-.091l-.219-.007c-1.091-.029-2.183-.051-3.275-.085-.749-.025-1.5-.063-2.244-.1l-.156-.009c-.717-.027-1.434-.051-2.151-.082-.623-.027-1.247-.063-1.87-.1-.446-.025-.893-.045-1.339-.084-.309-.027-.618-.074-.925-.124a.558.558,0,0,1-.443-.257.1.1,0,0,0-.04-.046.55.55,0,0,1-.26-.531,4.716,4.716,0,0,1,.078-.9c.02-.153.058-.306.089-.469a.683.683,0,0,0-.32-.087c-.3-.053-.594-.1-.892-.143-.052-.009-.1-.02-.153-.03A.5.5,0,0,1,73.52,95a.191.191,0,0,1,.289-.051.616.616,0,0,0,.237.068c.153.023.309.04.465.052.652.049,1.306.1,1.959.143.57.038,1.141.068,1.713.1.052,0,.1.007.156.009.633.029,1.267.053,1.9.084.581.029,1.163.063,1.744.1l.063,0c.769.027,1.538.062,2.307.081,1.342.03,2.684.052,4.026.078l2.62.05q2.06.039,4.12.074l3.026.055,4.4.071q1.576.026,3.151.056,1.342.028,2.682.066.937.026,1.871.059c.8.029,1.6.062,2.4.094l.156.006c.936.027,1.871.053,2.808.085.831.027,1.662.063,2.495.1l.156.006,2.838.084c.685.022,1.372.043,2.058.071a1.3,1.3,0,0,1,.306.05.17.17,0,0,1,.118.167.182.182,0,0,1-.133.189,1.92,1.92,0,0,1-.339.049c-.208.01-.416.009-.623.014C122.45,97.006,122.409,97.012,122.359,97.016Zm-1.916,1.31,1.179-1.206c.035-.035.078-.069.035-.146-.146-.006-.3-.016-.456-.016a1.817,1.817,0,0,0-.505.019c-.014.123-.027.235-.043.346a.458.458,0,0,1-.143.31c-.17-.2-.117-.453-.17-.685-.294-.017-.573-.038-.853-.048q-1.792-.065-3.587-.124-1.855-.065-3.711-.127c-1.258-.042-2.516-.085-3.775-.123q-1.372-.039-2.746-.068c-1-.022-2-.038-3-.053q-2.231-.039-4.463-.074-1.483-.024-2.965-.052l-3.994-.072L88.5,96.156q-1.92-.037-3.838-.076-.812-.017-1.622-.053c-1.049-.046-2.1-.1-3.148-.147l-.186-.012c-.582-.035-1.163-.068-1.744-.1s-1.163-.072-1.743-.11c-.094-.006-.188-.013-.281-.016s-.18,0-.26,0a.3.3,0,0,0-.035.075c-.02.312-.043.623-.058.935-.007.156,0,.312,0,.468a.253.253,0,0,0,.094.219.746.746,0,0,1,.1.105,14.123,14.123,0,0,0,1.753.118c1.1.059,2.2.091,3.306.131q1.7.063,3.4.121c.769.026,1.538.048,2.307.069l1.873.055c.935.025,1.871.052,2.808.069q1.842.032,3.682.049,4.214.035,8.428.065c2.944.025,5.889.02,8.832.13,1.247.048,2.5.061,3.744.071C117.409,98.335,118.909,98.327,120.442,98.327Z" transform="translate(-73.002 -81.858)" fill="#c2c2c2"/>
          <path id="Trazado_13111" data-name="Trazado 13111" d="M75.615,98.242c.053.094.131.088.2.094.218.017.436.038.654.046.675.029,1.351.059,2.027.079q1.84.056,3.681.1c.873.019,1.747.017,2.622.032,1.3.022,2.6.049,3.9.075.791.016,1.581.039,2.372.055q2,.037,3.994.071,1.731.03,3.464.05l6.242.076,4.4.055c1.831.02,3.662.035,5.493.061.883.013,1.768.033,2.652.072a11.738,11.738,0,0,1,1.368.1c.133.022.27.009.405.022a1.909,1.909,0,0,1,.336.059.153.153,0,0,1,.084.113.181.181,0,0,1-.075.123.287.287,0,0,1-.144.052c-.354.026-.706.074-1.058.066-.781-.014-1.56-.061-2.339-.088-.436-.016-.873-.025-1.31-.029-2.248-.027-4.495-.049-6.741-.076-1.457-.019-2.913-.043-4.369-.065l-4.089-.059-4.307-.066q-1.591-.026-3.183-.059-1.387-.03-2.776-.065c-.811-.02-1.623-.042-2.434-.061-1.831-.042-3.661-.078-5.492-.126-.685-.019-1.371-.062-2.058-.1-.508-.026-1.017-.049-1.525-.084-.53-.036-1.058-.082-1.586-.128a2.719,2.719,0,0,1-.72-.2.16.16,0,0,1-.087-.232,1.493,1.493,0,0,1,.216-.3c.227-.229.456-.456.7-.672,1.149-1.042,2.355-2.014,3.581-2.964q3.318-2.569,6.639-5.137.864-.667,1.734-1.329c.165-.126.341-.238.514-.352a1.052,1.052,0,0,1,.528-.167c.29-.019.581-.042.869-.079.567-.072,1.134-.147,1.706-.176.861-.046,1.723-.105,2.584-.16l.126-.006L97,86.784l3.463-.1.156,0c1.258-.027,2.518-.046,3.776-.085,3.349-.1,6.7-.114,10.049-.137,2.081-.013,4.161-.03,6.242-.023,1.238.006,2.476.053,3.714.082l.717.019c.749.025,1.5.045,2.245.076.3.012.6.049.9.075.186.016.372.033.56.045a2.083,2.083,0,0,1,.753.176.52.52,0,0,1,.149.107.127.127,0,0,1-.061.2.66.66,0,0,1-.185.02c-.394-.017-.789-.036-1.183-.059-.7-.042-1.391-.105-2.086-.128-1.206-.04-2.413-.052-3.619-.084-2.538-.069-5.078-.052-7.616-.032q-2.669.019-5.337.046c-1.416.017-2.83.045-4.245.069-.853.016-1.706.038-2.558.058l-2.9.066-2.34.058c-.843.022-1.684.04-2.527.068q-1.684.054-3.368.124c-.447.019-.892.066-1.339.1-.3.019-.6.029-.9.038a.48.48,0,0,0-.293.081c-.553.408-1.115.8-1.658,1.221-2.693,2.079-5.386,4.156-8.065,6.254-1.2.942-2.374,1.928-3.558,2.9C75.79,98.079,75.7,98.164,75.615,98.242Z" transform="translate(-72.259 -85.611)" fill="#c2c2c2"/>
          <path id="Trazado_13112" data-name="Trazado 13112" d="M88.634,87.016a1.964,1.964,0,0,1-.573.6c-.548.394-1.1.789-1.652,1.176q-4.145,2.9-8.124,6.016Q76.244,96.408,74.2,98c-.228.179-.444.375-.667.564a1.543,1.543,0,0,1-.12.1.159.159,0,0,1-.25-.152.519.519,0,0,1,.1-.218c.208-.218.417-.437.644-.635.322-.28.655-.548.988-.812,2.437-1.932,4.881-3.857,7.389-5.7,1.61-1.18,3.249-2.323,4.873-3.486.33-.235.654-.48.975-.726a.836.836,0,0,1,.361-.166,17.014,17.014,0,0,1,2.662-.3c.665-.022,1.329-.066,1.994-.1l.124-.007q1.108-.039,2.215-.081c.737-.03,1.475-.066,2.213-.1l.124,0,3.089-.081L104.7,86c.229-.006.457-.009.687-.012,2.612-.033,5.223-.071,7.834-.094q3.169-.03,6.337-.027c1.206,0,2.413.042,3.619.068q.922.019,1.841.053c.8.029,1.6.065,2.4.1.5.023,1,.051,1.495.082.416.027.83.065,1.244.1.374.027.747.056,1.12.079.468.029.935.052,1.4.081a2.425,2.425,0,0,1,.339.046c.133.027.211.1.216.193s-.069.177-.2.209a.936.936,0,0,1-.245.022c-.541-.027-1.081-.058-1.62-.088-.094,0-.188-.012-.28-.019-.6-.039-1.2-.081-1.807-.118-.466-.03-.934-.059-1.4-.082-.675-.035-1.351-.065-2.026-.1-.094,0-.188-.01-.281-.012-1.1-.027-2.2-.046-3.307-.082-2.9-.094-5.8-.043-8.708-.03-1.769.009-3.538.038-5.306.059-.895.012-1.789.029-2.684.046q-1.7.035-3.4.074-1.013.024-2.027.055c-.9.03-1.809.066-2.714.1l-.186.006c-.978.027-1.955.052-2.933.085-1.091.036-2.183.082-3.274.124-.5.019-1,.036-1.5.056C89.1,86.984,88.876,87,88.634,87.016Z" transform="translate(-73.161 -85.862)" fill="#c2c2c2"/>
          <path id="Trazado_13113" data-name="Trazado 13113" d="M108.2,88.27c-2.558.017-4.7.03-6.845.048q-1.983.017-3.965.051c-.988.017-1.977.036-2.964.066-.677.022-1.351.074-2.026.1-1.082.035-2.162.128-3.245.065a.548.548,0,0,0-.4.139q-3.686,2.857-7.379,5.71-1.939,1.5-3.871,3a2.6,2.6,0,0,1-.258.173.116.116,0,0,1-.163-.033.108.108,0,0,1,.019-.141c.05-.052.108-.1.163-.146,1.724-1.489,3.5-2.919,5.3-4.32,1.46-1.14,2.916-2.283,4.382-3.414.427-.33.883-.625,1.325-.936a1.021,1.021,0,0,0,.242-.189.347.347,0,0,1,.291-.146c.343-.014.685-.033,1.029-.053.54-.033,1.079-.069,1.619-.1l1.151-.072c.333-.02.665-.045,1-.058.739-.029,1.476-.062,2.215-.074,2.007-.035,4.016-.053,6.024-.091,3.309-.062,6.617-.056,9.926-.023,1.332.013,2.664.042,4,.063l3.433.059q1.809.032,3.62.066c.675.014,1.352.029,2.027.059.593.026,1.183.072,1.775.113a1.086,1.086,0,0,1,.242.052.142.142,0,0,1,.1.143.164.164,0,0,1-.088.153.671.671,0,0,1-.362.079q-.468-.009-.935-.025c-.156-.006-.312-.022-.467-.026-.727-.022-1.456-.045-2.185-.058q-2.777-.048-5.555-.087-2.091-.035-4.182-.069Z" transform="translate(-71.43 -85.006)" fill="#c2c2c2"/>
          <path id="Trazado_13114" data-name="Trazado 13114" d="M118.224,86.936a.849.849,0,0,1-.144.532c-.118.183-.238.366-.369.54-.882,1.159-1.775,2.309-2.651,3.472-1.3,1.729-2.587,3.466-3.887,5.195-.739.981-1.489,1.951-2.238,2.923a2.529,2.529,0,0,1-.276.294.355.355,0,0,1-.137.071.17.17,0,0,1-.215-.162.442.442,0,0,1,.058-.2,3.693,3.693,0,0,1,.229-.333c1.369-1.818,2.749-3.63,4.108-5.457q2.253-3.03,4.577-6c.063-.082.126-.166.19-.247a1.581,1.581,0,0,0,.4-.861c.009-.127.091-.195.173-.182.1.016.131.091.15.176a.691.691,0,0,1,.017.092C118.217,86.832,118.22,86.884,118.224,86.936Z" transform="translate(-57.594 -85.576)" fill="#c2c2c2"/>
          <path id="Trazado_13115" data-name="Trazado 13115" d="M106.3,99.239c-.009-.039-.035-.081-.025-.107a1.469,1.469,0,0,1,.121-.218,27.8,27.8,0,0,1,1.9-2.625c.47-.583.96-1.15,1.424-1.739q1.314-1.667,2.609-3.348c.955-1.234,1.936-2.447,2.961-3.625a3.291,3.291,0,0,1,.531-.48.471.471,0,0,1,.105-.065.114.114,0,0,1,.141.029.206.206,0,0,1,.032.114.172.172,0,0,1-.032.087,4.814,4.814,0,0,1-.372.573c-1.571,1.808-3.02,3.713-4.479,5.609-.882,1.147-1.808,2.257-2.733,3.369-.532.639-1.053,1.289-1.576,1.935A1.243,1.243,0,0,1,106.3,99.239Z" transform="translate(-58.493 -85.349)" fill="#c2c2c2"/>
          <path id="Trazado_13116" data-name="Trazado 13116" d="M85.2,88.256c-.284-.257-.328-.478-.173-.742a.137.137,0,0,1,.1-.045c.017,0,.049.039.053.065a2.007,2.007,0,0,1,.019.247C85.2,87.925,85.2,88.069,85.2,88.256Z" transform="translate(-67.946 -85.15)" fill="#c2c2c2"/>
          <path id="Trazado_13117" data-name="Trazado 13117" d="M118.852,96.676q-1.792-.065-3.587-.124-1.855-.065-3.711-.127c-1.258-.042-2.516-.085-3.775-.123q-1.372-.039-2.746-.068c-1-.022-2-.038-3-.053q-2.231-.039-4.463-.074-1.483-.024-2.965-.052l-3.994-.072-2.746-.052q-1.92-.037-3.838-.076-.812-.017-1.622-.053c-1.049-.046-2.1-.1-3.148-.147l-.186-.012c-.582-.035-1.163-.068-1.745-.1s-1.163-.072-1.743-.11c-.094-.006-.188-.013-.281-.016s-.18,0-.26,0a.3.3,0,0,0-.035.075c-.02.312-.043.623-.058.935-.007.156,0,.312,0,.468a.253.253,0,0,0,.094.219.746.746,0,0,1,.1.105,14.123,14.123,0,0,0,1.753.118c1.1.059,2.2.091,3.306.131q1.7.063,3.4.121c.769.026,1.538.048,2.307.069l1.873.055c.935.025,1.871.052,2.808.069q1.842.032,3.682.049,4.214.035,8.428.065c2.944.025,5.889.02,8.832.13,1.247.048,2.5.061,3.744.071,1.5.012,3,0,4.531,0l.03-.03V97.36c-.127-.19-.085-.423-.134-.636C119.411,96.706,119.132,96.686,118.852,96.676Z" transform="translate(-72.368 -81.632)" fill="#ededed"/>
          <path id="Trazado_13118" data-name="Trazado 13118" d="M107.243,96.347c-.146-.006-.3-.016-.456-.016a1.817,1.817,0,0,0-.505.019c-.014.123-.027.235-.043.346a.458.458,0,0,1-.143.31.286.286,0,0,1-.036-.049v.711l1.149-1.176C107.243,96.458,107.286,96.423,107.243,96.347Z" transform="translate(-58.589 -81.23)" fill="#e0e0e0"/>
        </g>
        <ellipse id="Elipse_1291" data-name="Elipse 1291" cx="5.326" cy="2.237" rx="5.326" ry="2.237" transform="translate(19.883 5.478)" fill="#a9a9a9"/>
        <ellipse id="Elipse_1292" data-name="Elipse 1292" cx="0.959" cy="0.426" rx="0.959" ry="0.426" transform="translate(31.386 9.312)" fill="#a9a9a9"/>
        <ellipse id="Elipse_1293" data-name="Elipse 1293" cx="1.811" cy="0.959" rx="1.811" ry="0.959" transform="translate(35.007 7.182)" fill="#a9a9a9"/>
        <ellipse id="Elipse_1294" data-name="Elipse 1294" cx="2.663" cy="0.639" rx="2.663" ry="0.639" transform="translate(42.676 6.117)" fill="#a9a9a9"/>
        <ellipse id="Elipse_1295" data-name="Elipse 1295" cx="2.343" cy="0.746" rx="2.343" ry="0.746" transform="translate(47.362 9.951)" fill="#a9a9a9"/>
        <ellipse id="Elipse_1296" data-name="Elipse 1296" cx="3.089" cy="1.278" rx="3.089" ry="1.278" transform="translate(51.197 4.839)" fill="#a9a9a9"/>
        <ellipse id="Elipse_1297" data-name="Elipse 1297" cx="2.45" cy="0.426" rx="2.45" ry="0.426" transform="translate(32.238 3.774)" fill="#a9a9a9"/>
        <ellipse id="Elipse_1298" data-name="Elipse 1298" cx="3.408" cy="0.32" rx="3.408" ry="0.32" transform="translate(41.824 11.868)" fill="#a9a9a9"/>
        <ellipse id="Elipse_1299" data-name="Elipse 1299" cx="3.089" cy="0.639" rx="3.089" ry="0.639" transform="translate(21.161 10.377)" fill="#a9a9a9"/>
        <ellipse id="Elipse_1300" data-name="Elipse 1300" cx="1.243" cy="1.096" rx="1.243" ry="1.096" transform="translate(26.403 10.32)" fill="#e3dc34"/>
        <ellipse id="Elipse_1301" data-name="Elipse 1301" cx="1.243" cy="1.096" rx="1.243" ry="1.096" transform="translate(42.719 10.32)" fill="#e3dc34"/>
        <ellipse id="Elipse_1302" data-name="Elipse 1302" cx="1.243" cy="1.096" rx="1.243" ry="1.096" transform="translate(42.719 3.449)" fill="#e3dc34"/>
        <ellipse id="Elipse_1303" data-name="Elipse 1303" cx="1.243" cy="1.096" rx="1.243" ry="1.096" transform="translate(53.245 3.449)" fill="#e3dc34"/>
        <ellipse id="Elipse_1304" data-name="Elipse 1304" cx="1.243" cy="1.096" rx="1.243" ry="1.096" transform="translate(53.245 9.296)" fill="#e3dc34"/>
        <ellipse id="Elipse_1305" data-name="Elipse 1305" cx="1.243" cy="1.096" rx="1.243" ry="1.096" transform="translate(17.866 9.296)" fill="#e3dc34"/>
      </g>
      <g id="Grupo_4474" data-name="Grupo 4474" transform="translate(0 0)">
        <g id="Grupo_4472" data-name="Grupo 4472" transform="translate(0 4.639)">
          <g id="Grupo_4471" data-name="Grupo 4471">
            <path id="Trazado_13119" data-name="Trazado 13119" d="M54.387,96.464c1.965,4.284,3.174,9.037,4.157,15.9a93.861,93.861,0,0,1,12.233.137c4.212-10.906-12.233-15.545-12.233-15.545Z" transform="translate(-25.673 -49.778)" fill="#4e8a81"/>
            <path id="Trazado_13120" data-name="Trazado 13120" d="M67.44,76.139c-.027.2,5,9.6,6.77,12.291,1.935,1.075,7.2,8.816,8.278,10.428s-1.883,1.984-2.9,1.1-6.4-5.614-8.116-9.056a86.691,86.691,0,0,0-7.518-8.763Z" transform="translate(-21.437 -58.781)" fill="#f0d1b1"/>
            <path id="Trazado_13121" data-name="Trazado 13121" d="M77.509,91.8a19.9,19.9,0,0,0-2.723,1.936,37.488,37.488,0,0,0,2.958,3.818s.967,1.182,1.343,1.29a16.883,16.883,0,0,0,2.822-.407s2.607.649,2.984.313.375-.928,0-1.089a8.3,8.3,0,0,1,1.128.323s1.29,1.452,1.882,1.4,1.075,0,1.13-.215a18.361,18.361,0,0,0-1.775-2.9,22.47,22.47,0,0,0-2.775-1.935l-4.053.948a43,43,0,0,0-2.58-4.244c-.377-.253-.913.483-.913.483Z" transform="translate(-16.638 -52.207)" fill="#ca2d78"/>
            <path id="Trazado_13122" data-name="Trazado 13122" d="M36.544,133.312c1.619,0,10.284.162,12.289,0s1.514-2.271,1.514-2.271a42,42,0,0,1-7.691-2.06,2.842,2.842,0,0,1-.636-.371c-1.893-1.457-.162-4.454-.162-4.454s.371-1.563.42-1.723c0,0-4.059-1.192-4.841.58-.506,1.127-1.151,3.632-1.747,5.6a12.559,12.559,0,0,1-.934,2.482C34,132.29,34.917,133.312,36.544,133.312Z" transform="translate(-34.487 -38.45)" fill="#f0d1b1"/>
            <path id="Trazado_13123" data-name="Trazado 13123" d="M62.865,133.539a31.362,31.362,0,0,0,4.816.056c1.949-.113,6.17.323,8.392.323s3.519-1.353,2.705-2.385a27.227,27.227,0,0,1-8.44-2.883h-.009c-.007,0-.007-.007-.016-.007a5.715,5.715,0,0,1-1.12-.846,5.151,5.151,0,0,1-1.28-4s-4.994-3.8-4.558.113a19.728,19.728,0,0,1,.007,4.486,7.956,7.956,0,0,1-.821,2.972A1.841,1.841,0,0,0,62.865,133.539Z" transform="translate(-22.159 -38.403)" fill="#f0d1b1"/>
            <path id="Trazado_13124" data-name="Trazado 13124" d="M67.054,99.455c.172.714-5.213,15.4-11.585,21.192a137.053,137.053,0,0,0-14.441,15.946,8.771,8.771,0,0,1-4.659-1.284s5.454-19.661,16.592-22.39c1.592-7.16,1.251-18.961,1.251-18.961S66.714,98.036,67.054,99.455Z" transform="translate(-33.654 -50.889)" fill="#2e2f68"/>
            <path id="Trazado_13125" data-name="Trazado 13125" d="M48.733,93.958s.033,1.023.033,2.658c2.11,4.518,7.039,7.884,10.34,9.616a34.024,34.024,0,0,0,2.473-6.782C61.233,98.033,48.733,93.958,48.733,93.958Z" transform="translate(-28.178 -50.888)" fill="#211d4b"/>
            <path id="Trazado_13126" data-name="Trazado 13126" d="M61.111,88.008s13.438,16.016,16.644,24.54c.137,2.615-4.363,18.552-3.762,26.665-3.944.61-4.56.113-4.56.113s-3.929-16.311.844-27.17C57.549,105.048,49.821,100.2,48.8,96.882s2.052-9.529,2.052-9.529Z" transform="translate(-28.241 -53.814)" fill="#2e2f68"/>
            <path id="Trazado_13127" data-name="Trazado 13127" d="M75.124,73.435c.089.268-1.28,12.906-4.28,14.891s-10.7,3.389-7.044,11.057c-4.547-2.765-7.49-5.489-13.643-5.285C56.4,80.747,60.82,74.808,72.651,72.126A3.5,3.5,0,0,1,75.124,73.435Z" transform="translate(-27.547 -60.558)" fill="#ca2d78"/>
            <path id="Trazado_13128" data-name="Trazado 13128" d="M65.719,77s-2-1.216-3.059-.574S55.841,87.566,55.7,88.871s5.008,2.642,5.008,2.642Z" transform="translate(-25.091 -58.738)" fill="#a52361"/>
            <path id="Trazado_13129" data-name="Trazado 13129" d="M86.856,73.644A8.569,8.569,0,0,1,83.165,78c-2.358,1.27-3.265,2.677-3.144,4.483-.3.416-1.391-.371-1.391-.371a15.773,15.773,0,0,1-6.593.908,10.614,10.614,0,0,1-.968-4.058s-.612-.657-1.939.43a7.412,7.412,0,0,0-2.674,3.645c-.241,1.186,1.589-6.43-.71-8.607,2.964-.3,6.089-3.133,6.532-3.928C76.936,62.153,86.009,70.62,86.856,73.644Z" transform="translate(-20.642 -62.863)" fill="#f0d1b1"/>
            <path id="Trazado_13130" data-name="Trazado 13130" d="M73.129,73.352s-2.475.387-1.237-3.473c-.954.092-1.1.283-1.1.283S69.749,74.543,73.129,73.352Z" transform="translate(-18.473 -61.553)" fill="#cc9f7c"/>
            <path id="Trazado_13131" data-name="Trazado 13131" d="M36.544,131.3c1.619,0,10.284.162,12.289,0s1.514-2.271,1.514-2.271a41.994,41.994,0,0,1-7.691-2.06,2.842,2.842,0,0,1-.636-.371,8.357,8.357,0,0,0-1.28.789,3.337,3.337,0,0,1-5.05-.782,12.559,12.559,0,0,1-.934,2.482C34,130.274,34.917,131.3,36.544,131.3Z" transform="translate(-34.487 -36.433)" fill="#2e2f68"/>
            <path id="Trazado_13132" data-name="Trazado 13132" d="M62.865,131.619a31.361,31.361,0,0,0,4.816.056c1.949-.113,6.17.323,8.392.323s3.519-1.353,2.705-2.385a27.227,27.227,0,0,1-8.44-2.883h-.009c-.007,0-.007-.007-.016-.007a8.4,8.4,0,0,1-2.874,1.377c-2.788.726-3.231-1.514-4.076-1.619a7.956,7.956,0,0,1-.821,2.972A1.841,1.841,0,0,0,62.865,131.619Z" transform="translate(-22.159 -36.483)" fill="#2e2f68"/>
            <path id="Trazado_13133" data-name="Trazado 13133" d="M50.084,94.317s5.324.434,7.184,3.213c2.907,3.954,12.566,18.42,12.349,21.368s-.348,4.6-.348,4.6,6.381.367,7.622.043a10.443,10.443,0,0,0,.528-4.355c-.193-2.6-8.32-14.126-14-20.754v-.009c0-.009,0-.009-.007-.016-.4-1.4-1.974-4.532,4.187-8.236a32.961,32.961,0,0,1,3.3-1.581c2.141-1.273,2.257-4.365,2.257-4.365s-.939.429-.765-.081a49.077,49.077,0,0,0,1.283-5.1,11.765,11.765,0,0,0-.687-6.855c-.1-.025-.2-.04-.306-.058-.443.1-.581.127-1,.24a10.542,10.542,0,0,1,1,3.61c.6,3.753.1,8.417-7.925,14.079S50.849,92.8,50.849,92.8L50.2,94.1h-.007Z" transform="translate(-27.579 -60.557)" fill="#5da39a"/>
            <path id="Trazado_13134" data-name="Trazado 13134" d="M62.813,88.073c3.047-4.845,3.564-5.3,3.564-5.3s5.316-5.039,1.335-7.3-5.6,1.615-6.7,4.069S57.335,88.2,57.27,88.655s1.356,6.33,13.953,7.363l4.522.97s1.023-2.649.771-2.778S65.45,89.881,62.813,88.073Z" transform="translate(-24.397 -59.376)" fill="#f0d1b1"/>
            <path id="Trazado_13135" data-name="Trazado 13135" d="M71.806,72.742a13.671,13.671,0,0,0-.843,7.285c-.919-3.27-1.3-4.264-3.062-2.962A21.935,21.935,0,0,0,71.806,72.742Z" transform="translate(-19.688 -60.285)" fill="#cc9f7c"/>
            <path id="Trazado_13136" data-name="Trazado 13136" d="M65.794,82.8c-.235.289-1.416-1.375-6-2.944,1.583-5.672,4.322-5.672,6.356-4.775S69.221,78.619,65.794,82.8Z" transform="translate(-23.28 -59.443)" fill="#d57496"/>
            <path id="Trazado_13137" data-name="Trazado 13137" d="M76.98,67.172s-2.964-2.17-5.972-1.2-3.913,2.83-4.757,5.542-3.736,5.186-5.363,2.655c1.687,4.821,8.2,4.459,9.643-.6s4.4-6.727,5.968-6.105S76.98,67.172,76.98,67.172Z" transform="translate(-22.794 -63.396)" fill="#2e2f68"/>
            <path id="Trazado_13138" data-name="Trazado 13138" d="M75.156,77.672s1.456-2.68,2.221-2.45c1.225,1,5.053,2.45,6.737.766.766,2.068-2.527,2.985-2.527,2.985s1.454,2.3,4.287,0,0-5.741,0-5.741a9.874,9.874,0,0,0-4.728-8.039c-4.765-2.832-8.209.447-9.587,3.363s-1.991,4.369-2.756,5.057c1.607.46,3.9-1.18,3.9-1.18s1.147-2.264,2.756-1.652.918,2.267,0,3.583A3.3,3.3,0,0,0,75.156,77.672Z" transform="translate(-19.288 -64.109)" fill="#2e2f68"/>
            <g id="Grupo_4470" data-name="Grupo 4470" transform="translate(54.043 30.877)">
              <path id="Trazado_13139" data-name="Trazado 13139" d="M75.584,89.5c.462-1.286.729-2.931,1.693-3.9a2.141,2.141,0,0,1,1.023-.052,74.314,74.314,0,0,0,5.936,5.358,30.832,30.832,0,0,0-2.8,2.814,13.893,13.893,0,0,1-1.1,3.759c-.137.3-.336.632-.662.668a4.924,4.924,0,0,1-1.284.023c-2.006-1.053-3.219-2.4-5.1-3.664a1.3,1.3,0,0,1-.625-.7,1.233,1.233,0,0,1,.4-1.013,9.126,9.126,0,0,1,2.115-1.815A9.489,9.489,0,0,1,75.584,89.5Z" transform="translate(-71.627 -85.508)" fill="#5fa69b"/>
              <path id="Trazado_13140" data-name="Trazado 13140" d="M74.875,89.525a9.276,9.276,0,0,1,2.716-3.949,74.017,74.017,0,0,0,5.936,5.356,30.663,30.663,0,0,0-2.8,2.815,13.893,13.893,0,0,1-1.1,3.759c-.137.3-.336.632-.662.668a.991.991,0,0,1-.55-.16,62.767,62.767,0,0,1-5.834-3.48,1.307,1.307,0,0,1-.625-.7,1.236,1.236,0,0,1,.4-1.014A9.12,9.12,0,0,1,74.476,91,9.488,9.488,0,0,1,74.875,89.525Z" transform="translate(-71.941 -85.477)" fill="#8ac9c2"/>
              <path id="Trazado_13141" data-name="Trazado 13141" d="M72.361,92.815A9.12,9.12,0,0,1,74.476,91a9.488,9.488,0,0,1,.4-1.476,9.276,9.276,0,0,1,2.716-3.949q.805.809,1.638,1.594a4,4,0,0,0-1.2-.192c-2.136.1-2.964,3.573-2.209,5.612-.525-.218-.981-.9-1.638-.8-.594.245-1.26.955-1.118,1.506.43,2.521,3.179,3.258,5.278,3.56.685.1,1.593-.827,1.75-1.5.244-.885-.57-1.593-1.175-2.213a2.1,2.1,0,0,0,2.2.175c-.13.144-.26.289-.387.434a13.893,13.893,0,0,1-1.1,3.759c-.137.3-.336.632-.662.668a.991.991,0,0,1-.55-.16,62.767,62.767,0,0,1-5.834-3.48,1.307,1.307,0,0,1-.625-.7A1.236,1.236,0,0,1,72.361,92.815Z" transform="translate(-71.941 -85.477)" fill="#70b8af"/>
            </g>
            <path id="Trazado_13142" data-name="Trazado 13142" d="M68.715,87.4c.082.033-1.27,3.325-1.629,3.293l-.358-.03s-.636.619,1,1,4.961.994,4.961.994c.242.172,3.414,2.587,2.127,1.753-.075-.049,2.079,1.007,2.475.789a17.54,17.54,0,0,0,1.655-3.244s1.017.658,1.368.439.921-.964.351-1.314-3.724-1.358-3.636-1.665a2.638,2.638,0,0,1,.482-.745,7.108,7.108,0,0,0-2.192-.307,9.917,9.917,0,0,0-1.138.7s-5.619-2.19-5.7-2.235-.323.339-.323.339Z" transform="translate(-20.261 -54.049)" fill="#ca2d78"/>
          </g>
        </g>
        <g id="Grupo_4473" data-name="Grupo 4473" transform="translate(50.403)">
          <path id="Trazado_13143" data-name="Trazado 13143" d="M80.012,61.416c-2.042-.547-3.187-.837-5.171.016a10.239,10.239,0,0,0-3.528,2.544,6.756,6.756,0,0,0-1.879,3.616,4.937,4.937,0,0,0,1.418,3.43c.932-1.232,3.2-.2,4.35.235a27.564,27.564,0,0,1,4.047,2.195c2.794,1.649,8.818,3.628,8.871-1.423a13.9,13.9,0,0,0-1.87-6.858C84.672,62.755,82.707,62.139,80.012,61.416Z" transform="translate(-69.419 -60.894)" opacity="0.6" fill="url(#linear-gradient)"/>
          <path id="Trazado_13144" data-name="Trazado 13144" d="M79.1,69.911a29.637,29.637,0,0,0-4.368-2.368c-1.175-.447-3.7-1.19-4.809-.124-.071.462.235,1.721.961,1.234.932-1.232,2.961-.479,4.107-.043A27.563,27.563,0,0,1,79.033,70.8c2.362,1.394,7.021,3.007,8.44.424C85.442,72.725,81.321,71.225,79.1,69.911Z" transform="translate(-69.202 -58.247)" fill="#efefef"/>
          <path id="Trazado_13145" data-name="Trazado 13145" d="M74.378,65.578c.8-2.055,1.33-2.563,3.3-3.9Zm2.759,2.537.844-4.86C77.444,64.845,76.756,66.418,77.137,68.115Zm5.026.848c.056-1.935-1.007-3.075-2.052-4.754Zm-.065-4.88,2.475,4.268C84.5,67.936,83.565,65.106,82.1,64.083Zm1.8.947,2.749,7.085A14.251,14.251,0,0,0,83.9,65.03Zm-12.22,3.221,1.631-2.86C72.935,65.914,71.494,67.272,71.677,68.251Zm2.942-2.336c-.3.867-.629,1.743-.88,2.628Zm-4.235.9,4.075-5.125C72.8,63.246,70.967,64.547,70.384,66.819Zm10.152,4.84a9.768,9.768,0,0,0-.59-3.485Zm2.727.056a32.759,32.759,0,0,0-.257-3.561Zm-3.7-9.255,1.853,2.353A17.743,17.743,0,0,0,79.568,62.46Z" transform="translate(-68.991 -60.547)" fill="#fafdff" opacity="0.8"/>
        </g>
      </g>
    </g>
    <g id="Grupo_5428" data-name="Grupo 5428" transform="translate(268.307 2714.513)">
      <circle id="Elipse_1323" data-name="Elipse 1323" cx="17.289" cy="17.289" r="17.289" transform="translate(0 0)" fill="#366064"/>
      <text id="_1" data-name="1" transform="translate(10.1 24.553)" fill="#fff" font-size="25" font-family="CerebriSans-Bold, Cerebri Sans" font-weight="700"><tspan x="0" y="0">1</tspan></text>
    </g>
  </g>
</svg>
