<svg xmlns="http://www.w3.org/2000/svg" width="420.597" height="285.583" viewBox="0 0 420.597 285.583">
  <g id="Grupo_5213" data-name="Grupo 5213" transform="translate(-90 -3902)">
    <path id="Trazado_14103" data-name="Trazado 14103" d="M624.57,330.1c-8.529-7.027-23.425-1.287-32.809,5.933-11.8,9.079-8.826,15.792-23.062,14.642-3.894-.315-8.061-2.351-9.547-6.436-2.005-5.512,1.627-11.364,4.633-16.259,9.136-14.883,8.426-30.514,6.342-48.481s-19.372-29.4-33.714-37.464-33.129-5.94-44.746,6.533c-7.934,8.519-11.963,20.549-17.665,31.11s-14.693,20.6-25.629,20.355c-13.223-.3-32.092-15.107-34.548-29.811s-.466-30.022-3.022-44.7c-4.832-27.757-25.844-46.869-50.847-46.741s-50.645,20.756-51.793,49.016c-.624,15.386,8.445,45.293.845,58.07-6.868,11.547-22.49,18.13-33.312,12.226-29.043-15.843-45.858-.589-51.454,18.536-6.261,21.4-6.512,39.587-.7,61.373s18.6,39.05,32.944,55c21.847,24.286,64.217,20.975,68.856,20.882,87.5-1.763,130.816-5.3,218.278-1.912,34.675,1.345,63.65-26.167,84.657-60.309.713-1.158,0,1.36,0,0,0,0,13.963-14.314,11.354-33.726C637.957,345.486,628.252,333.13,624.57,330.1Z" transform="translate(-129.357 3725.521)" fill="#99cac3" opacity="0.1"/>
    <g id="Grupo_5035" data-name="Grupo 5035" transform="translate(-129.357 3725.521)">
      <g id="Grupo_5034" data-name="Grupo 5034">
        <g id="Grupo_5033" data-name="Grupo 5033">
          <path id="Trazado_14104" data-name="Trazado 14104" d="M242.474,336.091a2.09,2.09,0,1,1-2.09,2.09A2.09,2.09,0,0,1,242.474,336.091Z" fill="#99cac3"/>
          <path id="Trazado_14105" data-name="Trazado 14105" d="M254.107,336.11l-2.921-.548a8.97,8.97,0,0,0-.7-1.691l1.691-2.472a.629.629,0,0,0-.072-.767l-2.085-2.086a.629.629,0,0,0-.768-.071l-2.472,1.691a9.044,9.044,0,0,0-1.743-.712l-.545-2.907a.63.63,0,0,0-.594-.493h-2.947a.631.631,0,0,0-.6.493l-.551,2.935a9.12,9.12,0,0,0-1.672.7l-2.44-1.669a.63.63,0,0,0-.769.071l-2.085,2.085a.63.63,0,0,0-.071.769l1.68,2.456a9,9,0,0,0-.688,1.67l-2.921.548a.629.629,0,0,0-.493.594v2.948a.631.631,0,0,0,.494.6l2.918.547a9.017,9.017,0,0,0,.7,1.7l-1.661,2.428a.63.63,0,0,0,.071.769l2.086,2.086a.63.63,0,0,0,.767.071l2.428-1.662a9.112,9.112,0,0,0,1.655.69l.55,2.934a.629.629,0,0,0,.594.494H243.9a.63.63,0,0,0,.6-.494l.545-2.9a9.166,9.166,0,0,0,1.725-.7l2.456,1.681a.633.633,0,0,0,.771-.071l2.084-2.085a.629.629,0,0,0,.072-.767l-1.673-2.444a9.114,9.114,0,0,0,.713-1.726l2.917-.547a.631.631,0,0,0,.494-.595V336.7A.624.624,0,0,0,254.107,336.11Zm-10.644,7.036a5.062,5.062,0,1,1,3.976-3.971A5.066,5.066,0,0,1,243.463,343.146Z" fill="#99cac3"/>
        </g>
      </g>
    </g>
    <g id="Grupo_5038" data-name="Grupo 5038" transform="translate(-129.357 3725.521)">
      <g id="Grupo_5037" data-name="Grupo 5037">
        <g id="Grupo_5036" data-name="Grupo 5036">
          <path id="Trazado_14106" data-name="Trazado 14106" d="M277.28,388.877a1.655,1.655,0,1,1-2.2-.785A1.655,1.655,0,0,1,277.28,388.877Z" fill="#99cac3"/>
          <path id="Trazado_14107" data-name="Trazado 14107" d="M281.217,397.2l-.6-2.276a7.1,7.1,0,0,0,.972-1.074l2.342.37a.5.5,0,0,0,.525-.312l.783-2.2a.5.5,0,0,0-.209-.574l-2.05-1.194a7.161,7.161,0,0,0-.082-1.488l1.894-1.377a.5.5,0,0,0,.15-.592l-1-2.109a.5.5,0,0,0-.554-.257l-2.286.6a7.115,7.115,0,0,0-1.068-.959l.365-2.313a.5.5,0,0,0-.312-.526l-2.2-.783a.5.5,0,0,0-.574.21l-1.186,2.036a7.14,7.14,0,0,0-1.428.076l-1.384-1.9a.5.5,0,0,0-.593-.151l-2.108,1a.5.5,0,0,0-.258.556l.6,2.273a7.153,7.153,0,0,0-.981,1.081l-2.3-.363a.5.5,0,0,0-.525.312l-.783,2.2a.5.5,0,0,0,.209.573l2.013,1.172a7.264,7.264,0,0,0,.069,1.418l-1.912,1.39a.5.5,0,0,0-.151.593l1,2.109a.5.5,0,0,0,.555.257l2.263-.6a7.2,7.2,0,0,0,1.089,1l-.369,2.328a.5.5,0,0,0,.313.527l2.2.783a.5.5,0,0,0,.573-.209l1.18-2.027a7.188,7.188,0,0,0,1.477-.076l1.381,1.9a.5.5,0,0,0,.594.151l2.108-1A.5.5,0,0,0,281.217,397.2Zm-8.648-5.223a4.009,4.009,0,1,1,4.191,1.494A4.012,4.012,0,0,1,272.569,391.981Z" fill="#99cac3"/>
        </g>
      </g>
    </g>
    <g id="Grupo_5041" data-name="Grupo 5041" transform="translate(-129.357 3725.521)">
      <g id="Grupo_5040" data-name="Grupo 5040">
        <g id="Grupo_5039" data-name="Grupo 5039">
          <path id="Trazado_14108" data-name="Trazado 14108" d="M457.933,249.321a4.425,4.425,0,1,1-6.131,1.25A4.424,4.424,0,0,1,457.933,249.321Z" fill="#99cac3"/>
          <path id="Trazado_14109" data-name="Trazado 14109" d="M478.449,262.937l-4.518-4.378a19.1,19.1,0,0,0,.741-3.8l5.87-2.39a1.33,1.33,0,0,0,.77-1.438l-1.245-6.117a1.332,1.332,0,0,0-1.273-1.023l-6.34.1a19.123,19.123,0,0,0-2.245-3.293l2.432-5.767a1.333,1.333,0,0,0-.473-1.564l-5.2-3.442a1.335,1.335,0,0,0-1.625.177l-4.4,4.538a19.1,19.1,0,0,0-3.768-.72l-2.359-5.8a1.335,1.335,0,0,0-1.441-.772l-6.115,1.247a1.334,1.334,0,0,0-1.024,1.274l.1,6.3a19.169,19.169,0,0,0-3.165,2.147l-5.795-2.444a1.332,1.332,0,0,0-1.565.473l-3.442,5.2a1.335,1.335,0,0,0,.177,1.627l4.513,4.373a19.132,19.132,0,0,0-.75,3.831l-5.768,2.348a1.332,1.332,0,0,0-.771,1.44l1.247,6.118a1.329,1.329,0,0,0,1.271,1.021l6.226-.1a19.265,19.265,0,0,0,2.117,3.15l-2.456,5.823a1.335,1.335,0,0,0,.474,1.566l5.2,3.442a1.335,1.335,0,0,0,1.627-.177l4.354-4.493a19.334,19.334,0,0,0,3.866.773l2.374,5.837a1.335,1.335,0,0,0,1.443.773l6.115-1.247a1.328,1.328,0,0,0,1.021-1.27l-.1-6.269a19.163,19.163,0,0,0,3.275-2.213l5.787,2.44a1.336,1.336,0,0,0,1.568-.475l3.442-5.2A1.324,1.324,0,0,0,478.449,262.937Zm-27.008-.005a10.716,10.716,0,1,1,11.656-2.37A10.726,10.726,0,0,1,451.441,262.932Z" fill="#99cac3"/>
        </g>
      </g>
    </g>
    <g id="Grupo_5044" data-name="Grupo 5044" transform="translate(-129.357 3725.521)">
      <g id="Grupo_5043" data-name="Grupo 5043">
        <g id="Grupo_5042" data-name="Grupo 5042">
          <path id="Trazado_14110" data-name="Trazado 14110" d="M599.941,272.846c-.861.765-2.085.43-2.085-1.061V268.2a1.979,1.979,0,0,0-1.969-1.969h-2.514a4.185,4.185,0,0,1,.44,1.845,4.017,4.017,0,0,1-4.092,3.976h-.153a4.017,4.017,0,0,1-4.091-3.976,4.121,4.121,0,0,1,.44-1.845H583.25a1.932,1.932,0,0,0-1.931,1.931v3.623c0,1.491-1.243,1.816-2.1,1.061a2.236,2.236,0,1,0-.009,3.4c.86-.765,2.113-.43,2.113,1.061v3.547a1.932,1.932,0,0,0,1.931,1.931h3.594c1.491,0,1.816,1.252,1.061,2.112a2.245,2.245,0,1,0,3.4,0c-.765-.86-.43-2.122,1.061-2.122h3.576a1.932,1.932,0,0,0,1.931-1.931V277.3c0-1.491,1.214-1.816,2.074-1.061a2.229,2.229,0,1,0-.009-3.393Z" fill="#99cac3"/>
        </g>
      </g>
      <path id="Trazado_14111" data-name="Trazado 14111" d="M515.666,181.593l1.286-1.286-1.287-1.286a1.489,1.489,0,1,1,2.106-2.106l1.287,1.287,1.286-1.287a1.489,1.489,0,0,1,2.106,2.106l-1.287,1.286,1.286,1.286a1.489,1.489,0,1,1-2.106,2.106l-1.285-1.286-1.286,1.286a1.489,1.489,0,0,1-2.106-2.106Z" fill="#99cac3"/>
      <path id="Trazado_14112" data-name="Trazado 14112" d="M259.241,273.381l1.285-1.285-1.286-1.286a1.489,1.489,0,0,1,2.106-2.106l1.286,1.286,1.286-1.286a1.489,1.489,0,1,1,2.106,2.106l-1.286,1.286,1.285,1.285a1.489,1.489,0,0,1-2.106,2.106l-1.285-1.285-1.285,1.285a1.489,1.489,0,0,1-2.106-2.106Z" fill="#99cac3"/>
      <path id="Trazado_14113" data-name="Trazado 14113" d="M612.645,376.991l1.286-1.286-1.287-1.285a1.49,1.49,0,0,1,2.106-2.107l1.287,1.287,1.286-1.287a1.49,1.49,0,0,1,2.106,2.107l-1.287,1.285,1.286,1.286a1.489,1.489,0,1,1-2.106,2.106l-1.285-1.286-1.286,1.286a1.489,1.489,0,1,1-2.106-2.106Z" fill="#99cac3"/>
      <path id="Trazado_14114" data-name="Trazado 14114" d="M239.557,376.61l1.286-1.285-1.286-1.286a1.489,1.489,0,1,1,2.106-2.106l1.286,1.287,1.286-1.287a1.489,1.489,0,1,1,2.106,2.106l-1.286,1.286,1.285,1.285a1.49,1.49,0,0,1-2.106,2.107l-1.285-1.286-1.285,1.286a1.49,1.49,0,0,1-2.107-2.107Z" fill="#99cac3"/>
    </g>
    <g id="Grupo_5212" data-name="Grupo 5212" transform="translate(0 -300)">
      <g id="Grupo_5147" data-name="Grupo 5147" transform="translate(-174.508 4029.521)">
        <g id="Grupo_5144" data-name="Grupo 5144">
          <path id="Trazado_14174" data-name="Trazado 14174" d="M563.992,432.015l8.337,19.947H526.211l15.45-41.628h13.265l9.067,21.682Z" fill="#99c4a7"/>
        </g>
        <g id="Grupo_5145" data-name="Grupo 5145">
          <rect id="Rectángulo_2660" data-name="Rectángulo 2660" width="13.486" height="33.442" transform="translate(541.504 392.605)" fill="#99c4a7"/>
        </g>
        <g id="Grupo_5146" data-name="Grupo 5146">
          <path id="Trazado_14175" data-name="Trazado 14175" d="M557.505,393.851A2.385,2.385,0,0,1,554.936,396H540.927a2.384,2.384,0,0,1-2.567-2.145v-1.163a2.385,2.385,0,0,1,2.567-2.146h14.009a2.386,2.386,0,0,1,2.569,2.146Z" fill="#99c4a7"/>
        </g>
      </g>
      <g id="Grupo_5151" data-name="Grupo 5151" transform="translate(-174.508 4029.521)">
        <g id="Grupo_5148" data-name="Grupo 5148">
          <path id="Trazado_14176" data-name="Trazado 14176" d="M438.5,398.824l18.19,53.867H356.1l33.7-112.427h28.941l19.773,58.56Z" fill="#99c4a7"/>
        </g>
        <g id="Grupo_5149" data-name="Grupo 5149">
          <rect id="Rectángulo_2661" data-name="Rectángulo 2661" width="29.422" height="90.314" transform="translate(389.453 292.388)" fill="#99c4a7"/>
        </g>
        <g id="Grupo_5150" data-name="Grupo 5150">
          <path id="Trazado_14177" data-name="Trazado 14177" d="M424.358,295.752a5.7,5.7,0,0,1-5.6,5.792H388.2a5.7,5.7,0,0,1-5.605-5.792v-3.138a5.7,5.7,0,0,1,5.605-5.8h30.558a5.7,5.7,0,0,1,5.6,5.8Z" fill="#99c4a7"/>
        </g>
      </g>
      <g id="Grupo_5153" data-name="Grupo 5153" transform="translate(-174.508 4029.521)">
        <g id="Grupo_5152" data-name="Grupo 5152">
          <path id="Trazado_14178" data-name="Trazado 14178" d="M402.4,332.565h-4.5V251.908c0-9.81,11.394-17.616,25.938-17.772l13.469-.144c8.372-.082,16.041,2.6,20.676,7.182a13.2,13.2,0,0,1,4.261,9.418v44.2h-4.5v-44.2a8.96,8.96,0,0,0-2.926-6.216c-3.742-3.7-10.462-5.9-17.459-5.882l-13.47.145c-11.846.126-21.482,6.079-21.482,13.269Z" fill="#30345c"/>
        </g>
      </g>
      <g id="Grupo_5154" data-name="Grupo 5154" transform="translate(-174.508 4029.521)">
        <path id="Trazado_14179" data-name="Trazado 14179" d="M513.425,401.1a53.514,53.514,0,1,1-53.519-53.516A53.517,53.517,0,0,1,513.425,401.1Z" fill="#fff"/>
      </g>
      <g id="Grupo_5155" data-name="Grupo 5155" transform="translate(-174.508 4029.521)">
        <rect id="Rectángulo_2662" data-name="Rectángulo 2662" width="37.278" height="110.634" transform="translate(441.273 290.44)" fill="#fff"/>
      </g>
      <g id="Grupo_5156" data-name="Grupo 5156" transform="translate(-174.508 4029.521)">
        <path id="Rectángulo_2663" data-name="Rectángulo 2663" d="M7.1,0H45.816a7.1,7.1,0,0,1,7.1,7.1v3.842a7.1,7.1,0,0,1-7.1,7.1H7.1a7.1,7.1,0,0,1-7.1-7.1V7.1A7.1,7.1,0,0,1,7.1,0Z" transform="translate(433.455 283.617)" fill="#8db14c"/>
      </g>
      <g id="Grupo_5157" data-name="Grupo 5157" transform="translate(-174.508 4029.521)">
        <path id="Trazado_14180" data-name="Trazado 14180" d="M459.909,442.014a40.94,40.94,0,0,0,40.94-40.94c0-.2-.026-.388-.028-.585H419c0,.2-.03.388-.03.585A40.936,40.936,0,0,0,459.909,442.014Z" fill="#e5a2cb"/>
      </g>
      <g id="Grupo_5158" data-name="Grupo 5158" transform="translate(-174.508 4029.521)">
        <path id="Trazado_14181" data-name="Trazado 14181" d="M448.027,402.327a8.256,8.256,0,1,1-8.255-8.258A8.257,8.257,0,0,1,448.027,402.327Z" fill="#8db14c"/>
      </g>
      <g id="Grupo_5159" data-name="Grupo 5159" transform="translate(-174.508 4029.521)">
        <path id="Trazado_14182" data-name="Trazado 14182" d="M459.914,374.622a4.8,4.8,0,1,1-4.8-4.8A4.8,4.8,0,0,1,459.914,374.622Z" fill="#8db14c"/>
      </g>
      <g id="Grupo_5160" data-name="Grupo 5160" transform="translate(-174.508 4029.521)">
        <path id="Trazado_14183" data-name="Trazado 14183" d="M464.7,347.585a4.8,4.8,0,1,1-4.8-4.8A4.8,4.8,0,0,1,464.7,347.585Z" fill="#8db14c"/>
      </g>
      <g id="Grupo_5161" data-name="Grupo 5161" transform="translate(-174.508 4029.521)">
        <path id="Trazado_14184" data-name="Trazado 14184" d="M466.708,422.524a4.8,4.8,0,1,1-4.8-4.8A4.8,4.8,0,0,1,466.708,422.524Z" fill="#8db14c"/>
      </g>
      <g id="Grupo_5162" data-name="Grupo 5162" transform="translate(-174.508 4029.521)">
        <path id="Trazado_14185" data-name="Trazado 14185" d="M490.108,412.228a6.667,6.667,0,1,1-6.665-6.667A6.667,6.667,0,0,1,490.108,412.228Z" fill="#8db14c"/>
      </g>
      <g id="Grupo_5163" data-name="Grupo 5163" transform="translate(-174.508 4029.521)">
        <path id="Trazado_14186" data-name="Trazado 14186" d="M443.435,424.785a3.665,3.665,0,1,1-3.661-3.667A3.664,3.664,0,0,1,443.435,424.785Z" fill="#8db14c"/>
      </g>
      <g id="Grupo_5164" data-name="Grupo 5164" transform="translate(-174.508 4029.521)">
        <path id="Trazado_14187" data-name="Trazado 14187" d="M391.171,453.581h10.562a13.259,13.259,0,0,0,13.259-13.259V334.491H377.915V440.322A13.259,13.259,0,0,0,391.171,453.581Z" fill="#8db14c"/>
      </g>
      <g id="Grupo_5165" data-name="Grupo 5165" transform="translate(-174.508 4029.521)">
        <path id="Trazado_14188" data-name="Trazado 14188" d="M392.931,443.2h7.045a8.843,8.843,0,0,0,8.842-8.846v-70.61H384.083v70.61A8.847,8.847,0,0,0,392.931,443.2Z" fill="#efc330"/>
      </g>
      <g id="Grupo_5166" data-name="Grupo 5166" transform="translate(-174.508 4029.521)">
        <path id="Rectángulo_2664" data-name="Rectángulo 2664" d="M6.63,0H42.805a6.63,6.63,0,0,1,6.63,6.63v3.6a6.628,6.628,0,0,1-6.628,6.628H6.629A6.629,6.629,0,0,1,0,10.223V6.63A6.63,6.63,0,0,1,6.63,0Z" transform="translate(371.735 326.064)" fill="#40457f"/>
      </g>
      <g id="Grupo_5167" data-name="Grupo 5167" transform="translate(-174.508 4029.521)">
        <path id="Trazado_14189" data-name="Trazado 14189" d="M399.362,364.437a4.889,4.889,0,1,1-4.89-4.889A4.89,4.89,0,0,1,399.362,364.437Z" fill="#f1da7a"/>
      </g>
      <g id="Grupo_5168" data-name="Grupo 5168" transform="translate(-174.508 4029.521)">
        <path id="Trazado_14190" data-name="Trazado 14190" d="M404.251,397.43a4.89,4.89,0,1,1-4.889-4.889A4.888,4.888,0,0,1,404.251,397.43Z" fill="#f1da7a"/>
      </g>
      <g id="Grupo_5169" data-name="Grupo 5169" transform="translate(-174.508 4029.521)">
        <path id="Trazado_14191" data-name="Trazado 14191" d="M396.452,419.289a4.889,4.889,0,1,1-4.888-4.891A4.888,4.888,0,0,1,396.452,419.289Z" fill="#f1da7a"/>
      </g>
      <g id="Grupo_5170" data-name="Grupo 5170" transform="translate(-174.508 4029.521)">
        <path id="Trazado_14192" data-name="Trazado 14192" d="M409.14,438.31a4.889,4.889,0,1,1-4.889-4.889A4.89,4.89,0,0,1,409.14,438.31Z" fill="#f1da7a"/>
      </g>
      <g id="Grupo_5171" data-name="Grupo 5171" transform="translate(-174.508 4029.521)">
        <path id="Trazado_14193" data-name="Trazado 14193" d="M404.569,427.784a2.6,2.6,0,1,1-2.6-2.6A2.6,2.6,0,0,1,404.569,427.784Z" fill="#f1da7a"/>
      </g>
      <g id="Grupo_5172" data-name="Grupo 5172" transform="translate(-174.508 4029.521)">
        <path id="Trazado_14194" data-name="Trazado 14194" d="M394.167,382.245a2.6,2.6,0,1,1-2.6-2.6A2.6,2.6,0,0,1,394.167,382.245Z" fill="#f1da7a"/>
      </g>
      <g id="Grupo_5176" data-name="Grupo 5176" transform="translate(-174.508 4029.521)">
        <path id="Trazado_14197" data-name="Trazado 14197" d="M378.363,342.917H414.54a6.629,6.629,0,0,0,6.63-6.629v-1.8H371.735v1.8A6.629,6.629,0,0,0,378.363,342.917Z" fill="#30345c"/>
      </g>
      <g id="Grupo_5178" data-name="Grupo 5178" transform="translate(-174.508 4029.521)">
        <g id="Grupo_5177" data-name="Grupo 5177">
          <rect id="Rectángulo_2665" data-name="Rectángulo 2665" width="230.163" height="6.802" transform="translate(349.525 451.259)" fill="#5f648f"/>
        </g>
      </g>
      <g id="Grupo_5211" data-name="Grupo 5211" transform="translate(-174.508 4029.521)">
        <g id="Grupo_5180" data-name="Grupo 5180">
          <g id="Grupo_5179" data-name="Grupo 5179">
            <path id="Trazado_14198" data-name="Trazado 14198" d="M515.429,442.951l1.991.637-.368,3.2.413,1.538,4.566,5.886-9.381-5.649Z" fill="#1e2128"/>
          </g>
        </g>
        <g id="Grupo_5182" data-name="Grupo 5182">
          <g id="Grupo_5181" data-name="Grupo 5181">
            <path id="Trazado_14199" data-name="Trazado 14199" d="M514.078,439.7l-2.084.173-.363,3.2-.749,1.4-5.776,4.7,10.413-3.385Z" fill="#1e2128"/>
          </g>
        </g>
        <g id="Grupo_5184" data-name="Grupo 5184">
          <g id="Grupo_5183" data-name="Grupo 5183">
            <path id="Trazado_14200" data-name="Trazado 14200" d="M529.813,353.855l1.354,48.559L517.6,446.627l-4.07-1.9,7.056-39.335-14.782-50.058Z" fill="#1e2128"/>
          </g>
        </g>
        <g id="Grupo_5186" data-name="Grupo 5186">
          <g id="Grupo_5185" data-name="Grupo 5185">
            <path id="Trazado_14201" data-name="Trazado 14201" d="M515.978,356.134,511.157,403.5l4.822,39.335h-4.822L501.6,402.889l-8.679-49.034Z" fill="#1e2128"/>
          </g>
        </g>
        <g id="Grupo_5188" data-name="Grupo 5188">
          <g id="Grupo_5187" data-name="Grupo 5187">
            <path id="Trazado_14202" data-name="Trazado 14202" d="M531.167,361.094l-39.582-3.407,3.224-29.116-7.718-29,17.559-6.119h27.608l-1.264,40.176Z" fill="#f6df86"/>
          </g>
        </g>
        <g id="Grupo_5197" data-name="Grupo 5197">
          <g id="Grupo_5190" data-name="Grupo 5190">
            <g id="Grupo_5189" data-name="Grupo 5189">
              <path id="Trazado_14203" data-name="Trazado 14203" d="M513.144,286.588l1.182,7.8s-10.1,5.7-8.766,2.005a88.067,88.067,0,0,0,2.52-10.368Z" fill="#e17947"/>
            </g>
          </g>
          <g id="Grupo_5192" data-name="Grupo 5192">
            <g id="Grupo_5191" data-name="Grupo 5191">
              <path id="Trazado_14204" data-name="Trazado 14204" d="M514.106,277.85c.446,1.621,1.342,4.777.246,6.726s-2.819,5.457-5.251,6.074-3.585-1.609-3.854-2.588c-.435-1.571,0-10.087,3.983-11.733C512.24,275.083,513.764,276.619,514.106,277.85Z" fill="#e28058"/>
            </g>
          </g>
          <g id="Grupo_5194" data-name="Grupo 5194">
            <g id="Grupo_5193" data-name="Grupo 5193">
              <path id="Trazado_14205" data-name="Trazado 14205" d="M507.551,277.712a4.688,4.688,0,0,0,4.143,1.461c2.67-.354,2.06,2.177,2.029,2.46s-.889,3.9.005,4.054,2.612-4.269,1.63-7.482A4.238,4.238,0,0,0,507.551,277.712Z" fill="#1e2128"/>
            </g>
          </g>
          <g id="Grupo_5196" data-name="Grupo 5196">
            <g id="Grupo_5195" data-name="Grupo 5195">
              <path id="Trazado_14206" data-name="Trazado 14206" d="M512.986,286.966s-2.914,2.253-5.586,1.621c-1.7-.4-2.25-3.495-2.173-4.134s-1.457,5.605,2.3,6.24S512.986,286.966,512.986,286.966Z" fill="#1e2128"/>
            </g>
          </g>
        </g>
        <g id="Grupo_5198" data-name="Grupo 5198">
          <path id="Trazado_14207" data-name="Trazado 14207" d="M500.426,294.924l8.558,38.728-3.176,48.821-20.985,1.646,5.348-51.873-3.081-32.673Z" fill="#e1f6f5"/>
        </g>
        <g id="Grupo_5199" data-name="Grupo 5199">
          <path id="Trazado_14208" data-name="Trazado 14208" d="M518.488,293.452l-2.836,39.636L520,377.452l17.169-4.487V321.878l-4.915-28.425Z" fill="#e1f6f5"/>
        </g>
        <g id="Grupo_5200" data-name="Grupo 5200">
          <path id="Trazado_14209" data-name="Trazado 14209" d="M518.488,293.452l-2.836,39.636L520,377.452l-1.515-45.021,6.921-22.349-3.9-2.793,4.7-13.838Z" fill="#b6c4c3"/>
        </g>
        <g id="Grupo_5201" data-name="Grupo 5201">
          <path id="Trazado_14210" data-name="Trazado 14210" d="M500.426,294.924l8.558,38.728-3.176,48.821-.838-48.164-9.816-22.338,3.085-1.679-5.32-13.2Z" fill="#b6c4c3"/>
        </g>
        <g id="Grupo_5203" data-name="Grupo 5203">
          <g id="Grupo_5202" data-name="Grupo 5202">
            <path id="Trazado_14211" data-name="Trazado 14211" d="M526.211,344.769s4.273,1.711,5.126,1.082c.718-.528,2.348-3.542-4.864-2.922Z" fill="#e17947"/>
          </g>
        </g>
        <g id="Grupo_5205" data-name="Grupo 5205">
          <g id="Grupo_5204" data-name="Grupo 5204">
            <path id="Trazado_14212" data-name="Trazado 14212" d="M491.154,297.769l-5.2,1.878L492.26,336.2l34.754,9.3v-2.558L500.372,330.5Z" fill="#fff"/>
          </g>
        </g>
        <g id="Grupo_5210" data-name="Grupo 5210">
          <g id="Grupo_5207" data-name="Grupo 5207">
            <g id="Grupo_5206" data-name="Grupo 5206">
              <path id="Trazado_14213" data-name="Trazado 14213" d="M508.679,295.328s-1.717-6.227-3.144-6.648c-1.2-.351-5.958.375.866,7.927Z" fill="#e17947"/>
            </g>
          </g>
          <g id="Grupo_5209" data-name="Grupo 5209">
            <g id="Grupo_5208" data-name="Grupo 5208">
              <path id="Trazado_14214" data-name="Trazado 14214" d="M536.344,308.436l-3.516-15.318-2.9.223-6.109,25.974-14.952-25.8-3.9,1.9,19.949,41.358Z" fill="#fff"/>
            </g>
          </g>
        </g>
      </g>
    </g>
  </g>
</svg>
