<svg xmlns="http://www.w3.org/2000/svg" width="420.597" height="277.65" viewBox="0 0 420.597 277.65">
  <g id="Grupo_5314" data-name="Grupo 5314" transform="translate(-609.403 -4091)">
    <g id="Grupo_5214" data-name="Grupo 5214" transform="translate(390.046 3914.521)">
      <path id="Trazado_14103" data-name="Trazado 14103" d="M624.57,330.1c-8.529-7.027-23.425-1.287-32.809,5.933-11.8,9.079-8.826,15.792-23.062,14.642-3.894-.315-8.061-2.351-9.547-6.436-2.005-5.512,1.627-11.364,4.633-16.259,9.136-14.883,8.426-30.514,6.342-48.481s-19.372-29.4-33.714-37.464-33.129-5.94-44.746,6.533c-7.934,8.519-11.963,20.549-17.665,31.11s-14.693,20.6-25.629,20.355c-13.223-.3-32.092-15.107-34.548-29.811s-.466-30.022-3.022-44.7c-4.832-27.757-25.844-46.869-50.847-46.741s-50.645,20.756-51.793,49.016c-.624,15.386,8.445,45.293.845,58.07-6.868,11.547-22.49,18.13-33.312,12.226-29.043-15.843-45.858-.589-51.454,18.536-6.261,21.4-6.512,39.587-.7,61.373s18.6,39.05,32.944,55c21.847,24.286,64.217,20.975,68.856,20.882,87.5-1.763,130.816-5.3,218.278-1.912,34.675,1.345,63.65-26.167,84.657-60.309.713-1.158,0,1.36,0,0,0,0,13.963-14.314,11.354-33.726C637.957,345.486,628.252,333.13,624.57,330.1Z" fill="#99cac3" opacity="0.1"/>
      <g id="Grupo_5035" data-name="Grupo 5035">
        <g id="Grupo_5034" data-name="Grupo 5034">
          <g id="Grupo_5033" data-name="Grupo 5033">
            <path id="Trazado_14104" data-name="Trazado 14104" d="M242.474,336.091a2.09,2.09,0,1,1-2.09,2.09A2.09,2.09,0,0,1,242.474,336.091Z" fill="#99cac3"/>
            <path id="Trazado_14105" data-name="Trazado 14105" d="M254.107,336.11l-2.921-.548a8.97,8.97,0,0,0-.7-1.691l1.691-2.472a.629.629,0,0,0-.072-.767l-2.085-2.086a.629.629,0,0,0-.768-.071l-2.472,1.691a9.044,9.044,0,0,0-1.743-.712l-.545-2.907a.63.63,0,0,0-.594-.493h-2.947a.631.631,0,0,0-.6.493l-.551,2.935a9.12,9.12,0,0,0-1.672.7l-2.44-1.669a.63.63,0,0,0-.769.071l-2.085,2.085a.63.63,0,0,0-.071.769l1.68,2.456a9,9,0,0,0-.688,1.67l-2.921.548a.629.629,0,0,0-.493.594v2.948a.631.631,0,0,0,.494.6l2.918.547a9.017,9.017,0,0,0,.7,1.7l-1.661,2.428a.63.63,0,0,0,.071.769l2.086,2.086a.63.63,0,0,0,.767.071l2.428-1.662a9.112,9.112,0,0,0,1.655.69l.55,2.934a.629.629,0,0,0,.594.494H243.9a.63.63,0,0,0,.6-.494l.545-2.9a9.166,9.166,0,0,0,1.725-.7l2.456,1.681a.633.633,0,0,0,.771-.071l2.084-2.085a.629.629,0,0,0,.072-.767l-1.673-2.444a9.114,9.114,0,0,0,.713-1.726l2.917-.547a.631.631,0,0,0,.494-.595V336.7A.624.624,0,0,0,254.107,336.11Zm-10.644,7.036a5.062,5.062,0,1,1,3.976-3.971A5.066,5.066,0,0,1,243.463,343.146Z" fill="#99cac3"/>
          </g>
        </g>
      </g>
      <g id="Grupo_5038" data-name="Grupo 5038">
        <g id="Grupo_5037" data-name="Grupo 5037">
          <g id="Grupo_5036" data-name="Grupo 5036">
            <path id="Trazado_14106" data-name="Trazado 14106" d="M277.28,388.877a1.655,1.655,0,1,1-2.2-.785A1.655,1.655,0,0,1,277.28,388.877Z" fill="#99cac3"/>
            <path id="Trazado_14107" data-name="Trazado 14107" d="M281.217,397.2l-.6-2.276a7.1,7.1,0,0,0,.972-1.074l2.342.37a.5.5,0,0,0,.525-.312l.783-2.2a.5.5,0,0,0-.209-.574l-2.05-1.194a7.161,7.161,0,0,0-.082-1.488l1.894-1.377a.5.5,0,0,0,.15-.592l-1-2.109a.5.5,0,0,0-.554-.257l-2.286.6a7.115,7.115,0,0,0-1.068-.959l.365-2.313a.5.5,0,0,0-.312-.526l-2.2-.783a.5.5,0,0,0-.574.21l-1.186,2.036a7.14,7.14,0,0,0-1.428.076l-1.384-1.9a.5.5,0,0,0-.593-.151l-2.108,1a.5.5,0,0,0-.258.556l.6,2.273a7.153,7.153,0,0,0-.981,1.081l-2.3-.363a.5.5,0,0,0-.525.312l-.783,2.2a.5.5,0,0,0,.209.573l2.013,1.172a7.264,7.264,0,0,0,.069,1.418l-1.912,1.39a.5.5,0,0,0-.151.593l1,2.109a.5.5,0,0,0,.555.257l2.263-.6a7.2,7.2,0,0,0,1.089,1l-.369,2.328a.5.5,0,0,0,.313.527l2.2.783a.5.5,0,0,0,.573-.209l1.18-2.027a7.188,7.188,0,0,0,1.477-.076l1.381,1.9a.5.5,0,0,0,.594.151l2.108-1A.5.5,0,0,0,281.217,397.2Zm-8.648-5.223a4.009,4.009,0,1,1,4.191,1.494A4.012,4.012,0,0,1,272.569,391.981Z" fill="#99cac3"/>
          </g>
        </g>
      </g>
      <g id="Grupo_5041" data-name="Grupo 5041">
        <g id="Grupo_5040" data-name="Grupo 5040">
          <g id="Grupo_5039" data-name="Grupo 5039">
            <path id="Trazado_14108" data-name="Trazado 14108" d="M457.933,249.321a4.425,4.425,0,1,1-6.131,1.25A4.424,4.424,0,0,1,457.933,249.321Z" fill="#99cac3"/>
            <path id="Trazado_14109" data-name="Trazado 14109" d="M478.449,262.937l-4.518-4.378a19.1,19.1,0,0,0,.741-3.8l5.87-2.39a1.33,1.33,0,0,0,.77-1.438l-1.245-6.117a1.332,1.332,0,0,0-1.273-1.023l-6.34.1a19.123,19.123,0,0,0-2.245-3.293l2.432-5.767a1.333,1.333,0,0,0-.473-1.564l-5.2-3.442a1.335,1.335,0,0,0-1.625.177l-4.4,4.538a19.1,19.1,0,0,0-3.768-.72l-2.359-5.8a1.335,1.335,0,0,0-1.441-.772l-6.115,1.247a1.334,1.334,0,0,0-1.024,1.274l.1,6.3a19.169,19.169,0,0,0-3.165,2.147l-5.795-2.444a1.332,1.332,0,0,0-1.565.473l-3.442,5.2a1.335,1.335,0,0,0,.177,1.627l4.513,4.373a19.132,19.132,0,0,0-.75,3.831l-5.768,2.348a1.332,1.332,0,0,0-.771,1.44l1.247,6.118a1.329,1.329,0,0,0,1.271,1.021l6.226-.1a19.265,19.265,0,0,0,2.117,3.15l-2.456,5.823a1.335,1.335,0,0,0,.474,1.566l5.2,3.442a1.335,1.335,0,0,0,1.627-.177l4.354-4.493a19.334,19.334,0,0,0,3.866.773l2.374,5.837a1.335,1.335,0,0,0,1.443.773l6.115-1.247a1.328,1.328,0,0,0,1.021-1.27l-.1-6.269a19.163,19.163,0,0,0,3.275-2.213l5.787,2.44a1.336,1.336,0,0,0,1.568-.475l3.442-5.2A1.324,1.324,0,0,0,478.449,262.937Zm-27.008-.005a10.716,10.716,0,1,1,11.656-2.37A10.726,10.726,0,0,1,451.441,262.932Z" fill="#99cac3"/>
          </g>
        </g>
      </g>
      <g id="Grupo_5044" data-name="Grupo 5044">
        <g id="Grupo_5043" data-name="Grupo 5043">
          <g id="Grupo_5042" data-name="Grupo 5042">
            <path id="Trazado_14110" data-name="Trazado 14110" d="M599.941,272.846c-.861.765-2.085.43-2.085-1.061V268.2a1.979,1.979,0,0,0-1.969-1.969h-2.514a4.185,4.185,0,0,1,.44,1.845,4.017,4.017,0,0,1-4.092,3.976h-.153a4.017,4.017,0,0,1-4.091-3.976,4.121,4.121,0,0,1,.44-1.845H583.25a1.932,1.932,0,0,0-1.931,1.931v3.623c0,1.491-1.243,1.816-2.1,1.061a2.236,2.236,0,1,0-.009,3.4c.86-.765,2.113-.43,2.113,1.061v3.547a1.932,1.932,0,0,0,1.931,1.931h3.594c1.491,0,1.816,1.252,1.061,2.112a2.245,2.245,0,1,0,3.4,0c-.765-.86-.43-2.122,1.061-2.122h3.576a1.932,1.932,0,0,0,1.931-1.931V277.3c0-1.491,1.214-1.816,2.074-1.061a2.229,2.229,0,1,0-.009-3.393Z" fill="#99cac3"/>
          </g>
        </g>
        <path id="Trazado_14111" data-name="Trazado 14111" d="M515.666,181.593l1.286-1.286-1.287-1.286a1.489,1.489,0,1,1,2.106-2.106l1.287,1.287,1.286-1.287a1.489,1.489,0,0,1,2.106,2.106l-1.287,1.286,1.286,1.286a1.489,1.489,0,1,1-2.106,2.106l-1.285-1.286-1.286,1.286a1.489,1.489,0,0,1-2.106-2.106Z" fill="#99cac3"/>
        <path id="Trazado_14112" data-name="Trazado 14112" d="M259.241,273.381l1.285-1.285-1.286-1.286a1.489,1.489,0,0,1,2.106-2.106l1.286,1.286,1.286-1.286a1.489,1.489,0,1,1,2.106,2.106l-1.286,1.286,1.285,1.285a1.489,1.489,0,0,1-2.106,2.106l-1.285-1.285-1.285,1.285a1.489,1.489,0,0,1-2.106-2.106Z" fill="#99cac3"/>
        <path id="Trazado_14113" data-name="Trazado 14113" d="M612.645,376.991l1.286-1.286-1.287-1.285a1.49,1.49,0,0,1,2.106-2.107l1.287,1.287,1.286-1.287a1.49,1.49,0,0,1,2.106,2.107l-1.287,1.285,1.286,1.286a1.489,1.489,0,1,1-2.106,2.106l-1.285-1.286-1.286,1.286a1.489,1.489,0,1,1-2.106-2.106Z" fill="#99cac3"/>
        <path id="Trazado_14114" data-name="Trazado 14114" d="M239.557,376.61l1.286-1.285-1.286-1.286a1.489,1.489,0,1,1,2.106-2.106l1.286,1.287,1.286-1.287a1.489,1.489,0,1,1,2.106,2.106l-1.286,1.286,1.285,1.285a1.49,1.49,0,0,1-2.106,2.107l-1.285-1.286-1.285,1.286a1.49,1.49,0,0,1-2.107-2.107Z" fill="#99cac3"/>
      </g>
    </g>
    <g id="Grupo_5313" data-name="Grupo 5313" transform="translate(340.142 3909.151)">
      <g id="Grupo_5218" data-name="Grupo 5218">
        <g id="Grupo_5215" data-name="Grupo 5215">
          <path id="Trazado_14218" data-name="Trazado 14218" d="M606.5,398.138,619.089,452h-69.6L572.8,339.577h20.023L606.5,398.138Z" fill="#99c4a7"/>
        </g>
        <g id="Grupo_5216" data-name="Grupo 5216">
          <rect id="Rectángulo_2666" data-name="Rectángulo 2666" width="20.355" height="90.314" transform="translate(572.567 291.7)" fill="#99c4a7"/>
        </g>
        <g id="Grupo_5217" data-name="Grupo 5217">
          <path id="Trazado_14219" data-name="Trazado 14219" d="M596.717,295.065c0,3.2-1.736,5.792-3.878,5.792H571.7c-2.139,0-3.878-2.593-3.878-5.792v-3.138c0-3.2,1.739-5.8,3.878-5.8h21.142c2.142,0,3.878,2.593,3.878,5.8Z" fill="#99c4a7"/>
        </g>
      </g>
      <g id="Grupo_5222" data-name="Grupo 5222">
        <g id="Grupo_5219" data-name="Grupo 5219">
          <path id="Trazado_14220" data-name="Trazado 14220" d="M501.155,408.521a46.873,46.873,0,1,1-46.873-46.872A46.876,46.876,0,0,1,501.155,408.521Z" fill="#99c4a7"/>
        </g>
        <g id="Grupo_5220" data-name="Grupo 5220">
          <rect id="Rectángulo_2667" data-name="Rectángulo 2667" width="32.656" height="96.907" transform="translate(437.955 311.593)" fill="#99c4a7"/>
        </g>
        <g id="Grupo_5221" data-name="Grupo 5221">
          <path id="Trazado_14221" data-name="Trazado 14221" d="M476.693,315.2a6.218,6.218,0,0,1-6.214,6.215H436.561a6.221,6.221,0,0,1-6.22-6.215v-3.373a6.216,6.216,0,0,1,6.22-6.211h33.918a6.213,6.213,0,0,1,6.214,6.211Z" fill="#99c4a7"/>
        </g>
      </g>
      <g id="Grupo_5224" data-name="Grupo 5224">
        <g id="Grupo_5223" data-name="Grupo 5223">
          <rect id="Rectángulo_2668" data-name="Rectángulo 2668" width="340.437" height="6.803" transform="translate(313.858 451.878)" fill="#5f648f"/>
        </g>
      </g>
      <g id="Grupo_5257" data-name="Grupo 5257">
        <g id="Grupo_5226" data-name="Grupo 5226">
          <g id="Grupo_5225" data-name="Grupo 5225">
            <path id="Trazado_14222" data-name="Trazado 14222" d="M360.546,448.008l-2.03.656.376,3.259-.423,1.569-4.657,6.007,9.568-5.768Z" fill="#8090ca"/>
          </g>
        </g>
        <g id="Grupo_5228" data-name="Grupo 5228">
          <g id="Grupo_5227" data-name="Grupo 5227">
            <path id="Trazado_14223" data-name="Trazado 14223" d="M361.922,444.7l2.129.174.369,3.265.768,1.432,5.89,4.793-10.619-3.45Z" fill="#8090ca"/>
          </g>
        </g>
        <g id="Grupo_5230" data-name="Grupo 5230">
          <g id="Grupo_5229" data-name="Grupo 5229">
            <path id="Trazado_14224" data-name="Trazado 14224" d="M345.87,357.13l-1.378,49.531,13.835,45.1,4.15-1.938-7.2-40.12,12.732-41.782Z" fill="#191b21"/>
          </g>
        </g>
        <g id="Grupo_5232" data-name="Grupo 5232">
          <g id="Grupo_5231" data-name="Grupo 5231">
            <path id="Trazado_14225" data-name="Trazado 14225" d="M364.9,366.411v41.36l-4.916,40.117H364.9l9.749-40.738,8.849-50.02Z" fill="#1e2128"/>
          </g>
        </g>
        <g id="Grupo_5237" data-name="Grupo 5237">
          <g id="Grupo_5234" data-name="Grupo 5234">
            <g id="Grupo_5233" data-name="Grupo 5233">
              <path id="Trazado_14226" data-name="Trazado 14226" d="M441.031,331.964s5.817-3.107,7.127-2.344c1.109.64,3.9,4.67-6.473,4.924Z" fill="#e17947"/>
            </g>
          </g>
          <g id="Grupo_5236" data-name="Grupo 5236">
            <g id="Grupo_5235" data-name="Grupo 5235">
              <path id="Trazado_14227" data-name="Trazado 14227" d="M390.721,320l13.7,26.453,38.113-11.643-.841-3.237-30.7,4.37-13.44-22.854s-3.917-8.049-9.075-5.012A25.985,25.985,0,0,0,390.721,320Z" fill="#fff"/>
            </g>
          </g>
        </g>
        <g id="Grupo_5239" data-name="Grupo 5239">
          <g id="Grupo_5238" data-name="Grupo 5238">
            <path id="Trazado_14228" data-name="Trazado 14228" d="M377.971,302.682c-4.963-.086-16.275,3.838-19.468,10.135s-4.75,22.255-4.75,22.255l-7.649,19.9s14.972,21.129,37.422,7.4c0,0,5.466-20.421,9.168-29.033,2.159-5.018,9.106-18.645,3.068-23.549C386.929,302.625,383.02,302.77,377.971,302.682Z" fill="#f6df86"/>
          </g>
        </g>
        <g id="Grupo_5241" data-name="Grupo 5241">
          <g id="Grupo_5240" data-name="Grupo 5240">
            <path id="Trazado_14229" data-name="Trazado 14229" d="M384.222,296.386l-3.749,7.128s7.837,8.868,7.78,4.859a89.782,89.782,0,0,1,1.035-10.832Z" fill="#e17947"/>
          </g>
        </g>
        <g id="Grupo_5243" data-name="Grupo 5243">
          <g id="Grupo_5242" data-name="Grupo 5242">
            <path id="Trazado_14230" data-name="Trazado 14230" d="M386.21,287.644c-.968,1.411-2.889,4.16-2.482,6.4s.9,6.2,3.035,7.609,3.987-.358,4.573-1.207c.95-1.37,3.372-9.723.081-12.64C388.935,285.6,386.952,286.571,386.21,287.644Z" fill="#e28058"/>
          </g>
        </g>
        <g id="Grupo_5245" data-name="Grupo 5245">
          <g id="Grupo_5244" data-name="Grupo 5244">
            <path id="Trazado_14231" data-name="Trazado 14231" d="M392.577,289.7a4.791,4.791,0,0,1-4.485.025c-2.451-1.237-2.708,1.408-2.772,1.7s-.452,4.045-1.366,3.9-1.085-4.984.935-7.753A4.323,4.323,0,0,1,392.577,289.7Z" fill="#1e2128"/>
          </g>
        </g>
        <g id="Grupo_5247" data-name="Grupo 5247">
          <g id="Grupo_5246" data-name="Grupo 5246">
            <path id="Trazado_14232" data-name="Trazado 14232" d="M384.25,296.8s2.053,3.143,4.841,3.43c1.768.182,3.333-2.615,3.473-3.259s-.472,5.89-4.3,5.246S384.25,296.8,384.25,296.8Z" fill="#1e2128"/>
          </g>
        </g>
        <g id="Grupo_5248" data-name="Grupo 5248">
          <path id="Trazado_14233" data-name="Trazado 14233" d="M377.971,302.682s-1.184,22.288-10.105,41.377a356.116,356.116,0,0,0-15.424,40.3l-17.827-9.442,15.105-37.793S356.333,301.365,377.971,302.682Z" fill="#e1f6f5"/>
        </g>
        <g id="Grupo_5249" data-name="Grupo 5249">
          <path id="Trazado_14234" data-name="Trazado 14234" d="M389.426,305.363s-.672,22.792-7.992,40.187-16.26,40.651-16.26,40.651l15.245-2.432,15.294-47.415S407.64,312.277,389.426,305.363Z" fill="#e1f6f5"/>
        </g>
        <g id="Grupo_5250" data-name="Grupo 5250">
          <path id="Trazado_14235" data-name="Trazado 14235" d="M377.971,302.682a109.053,109.053,0,0,1-11.532,44.494l-7.326,17.939,9.449-35.282,2.5-.213.631-26.226h0a29.565,29.565,0,0,1,3.156-.764C375.734,302.615,377.971,302.682,377.971,302.682Z" fill="#b6c4c3"/>
        </g>
        <g id="Grupo_5251" data-name="Grupo 5251">
          <path id="Trazado_14236" data-name="Trazado 14236" d="M389.426,305.363s-1.77,21.756-5.8,32.389-10.767,28.859-10.767,28.859l16.776-30.55-1.744-1.577a53.8,53.8,0,0,0,6.276-12.892c1.451-4.765.6-9.616.548-13.105A13.761,13.761,0,0,0,389.426,305.363Z" fill="#b6c4c3"/>
        </g>
        <g id="Grupo_5256" data-name="Grupo 5256">
          <g id="Grupo_5253" data-name="Grupo 5253">
            <g id="Grupo_5252" data-name="Grupo 5252">
              <path id="Trazado_14237" data-name="Trazado 14237" d="M374.192,360.69s5.63,3.432,5.64,4.95c.011,1.275-2.04,5.737-7.527-3.077Z" fill="#e17947"/>
            </g>
          </g>
          <g id="Grupo_5255" data-name="Grupo 5255">
            <g id="Grupo_5254" data-name="Grupo 5254">
              <path id="Trazado_14238" data-name="Trazado 14238" d="M358.958,311.272l-15.831,25.24,29.383,26.921,2.354-2.369-19.351-24.231,12.867-23.18s5.7-10.212-.285-10.36C365.06,303.222,362.3,306.146,358.958,311.272Z" fill="#fff"/>
            </g>
          </g>
        </g>
      </g>
      <g id="Grupo_5288" data-name="Grupo 5288">
        <g id="Grupo_5259" data-name="Grupo 5259">
          <g id="Grupo_5258" data-name="Grupo 5258">
            <path id="Trazado_14239" data-name="Trazado 14239" d="M619.585,297s4.607,1.813,4.789,5.116,1.132,5.285,4.338,8.4,8.16,8.516,6.862,12.151c-2.068,5.782,1.459,9.633-.742,12.57s-6.066.64-7.024-1.282-8.838-11.839-9.666-15.142-5.2-1.978-6.479-4.365.319-5.512-.228-6.831c-2.017-4.816.579-8.156,3.506-10.228S619.585,297,619.585,297Z" fill="#191b21"/>
          </g>
        </g>
        <g id="Grupo_5261" data-name="Grupo 5261">
          <g id="Grupo_5260" data-name="Grupo 5260">
            <path id="Trazado_14240" data-name="Trazado 14240" d="M596.146,355.961l16.864,2.866-7.566,38.646s4.934,9.485,4.836,30.111L610.8,445.7l-3.109.625L598.2,397.859S594.21,374.294,596.146,355.961Z" fill="#262a30"/>
          </g>
        </g>
        <g id="Grupo_5263" data-name="Grupo 5263">
          <g id="Grupo_5262" data-name="Grupo 5262">
            <path id="Trazado_14241" data-name="Trazado 14241" d="M605.675,358.827l16.9,3.435-8.4,35.325s6.491,8.5,9.928,28.831l3.632,17.761-2.965,1.141L607.11,399.209S602.812,373.433,605.675,358.827Z" fill="#262a30"/>
          </g>
        </g>
        <g id="Grupo_5268" data-name="Grupo 5268">
          <g id="Grupo_5265" data-name="Grupo 5265">
            <g id="Grupo_5264" data-name="Grupo 5264">
              <path id="Trazado_14242" data-name="Trazado 14242" d="M563.3,301.863s-2.749-5.593-4.174-5.739c-1.2-.118-5.573,1.422,2.245,7.356Z" fill="#e17947"/>
            </g>
          </g>
          <g id="Grupo_5267" data-name="Grupo 5267">
            <g id="Grupo_5266" data-name="Grupo 5266">
              <path id="Trazado_14243" data-name="Trazado 14243" d="M606.978,322.361l-25.531,11.95L560.523,303.2l2.6-2.432,19.65,21.9,23.384-8.987s7.629-3.656,9.653,1.629A27.489,27.489,0,0,1,606.978,322.361Z" fill="#fff"/>
            </g>
          </g>
        </g>
        <g id="Grupo_5270" data-name="Grupo 5270">
          <g id="Grupo_5269" data-name="Grupo 5269">
            <path id="Trazado_14244" data-name="Trazado 14244" d="M626.573,315.964s2.829,3.657,3.278,11.734-4.493,17.961-4.493,17.961l-3.079,17.869-26.133-7.567.75-18.873,4.467-4.791-1.588-5.942L610.3,310.616Z" fill="#f6df86"/>
          </g>
        </g>
        <g id="Grupo_5272" data-name="Grupo 5272">
          <g id="Grupo_5271" data-name="Grupo 5271">
            <path id="Trazado_14245" data-name="Trazado 14245" d="M611.6,444.528l-4.883-.479-.234,3.8-1.02,1.529-7.6,4.952,1.809-.039L606.9,453l.592.531,2.663-.091Z" fill="#8090ca"/>
          </g>
        </g>
        <g id="Grupo_5274" data-name="Grupo 5274">
          <g id="Grupo_5273" data-name="Grupo 5273">
            <path id="Trazado_14246" data-name="Trazado 14246" d="M627.709,441.156l-5.074,2.4,1.664,3.431-.252,1.908-5.059,8.674,1.776-1.076,6.51-5.284.859.119,2.59-1.616Z" fill="#8090ca"/>
          </g>
        </g>
        <g id="Grupo_5276" data-name="Grupo 5276">
          <g id="Grupo_5275" data-name="Grupo 5275">
            <path id="Trazado_14247" data-name="Trazado 14247" d="M618.682,306.931l1.845,6.926s-8.563,6.153-7.719,2.68a79.412,79.412,0,0,0,1.246-9.606Z" fill="#e17947"/>
          </g>
        </g>
        <g id="Grupo_5278" data-name="Grupo 5278">
          <g id="Grupo_5277" data-name="Grupo 5277">
            <path id="Trazado_14248" data-name="Trazado 14248" d="M620.244,297.925c.582,1.462,1.745,4.311.919,6.241s-2.063,5.367-4.267,6.192-2.775-1.654-3.25-2.478-1.635-8.93,1.9-10.875C618.222,295.539,619.8,296.812,620.244,297.925Z" fill="#e28058"/>
          </g>
        </g>
        <g id="Grupo_5280" data-name="Grupo 5280">
          <g id="Grupo_5279" data-name="Grupo 5279">
            <path id="Trazado_14249" data-name="Trazado 14249" d="M616.852,298.817s2.027,4.3,4.955,5.185c0,0,.465-6.789-3.665-7.637,0,0-4.974-.308-5.425,5.849C612.717,302.214,616.579,300.931,616.852,298.817Z" fill="#191b21"/>
          </g>
        </g>
        <g id="Grupo_5281" data-name="Grupo 5281">
          <path id="Trazado_14250" data-name="Trazado 14250" d="M626.573,315.964l5.446,12.343-14.754,67.829-11.351-5.76,4.807-47.777,12.532-27.724Z" fill="#e1f6f5"/>
        </g>
        <g id="Grupo_5282" data-name="Grupo 5282">
          <path id="Trazado_14251" data-name="Trazado 14251" d="M610.3,310.616l3.3,1.082-8.9,22.494-4.711,52.9-9.4-2.034,2.8-49.575,4.576-5.085-.509-7.882Z" fill="#e1f6f5"/>
        </g>
        <g id="Grupo_5287" data-name="Grupo 5287">
          <g id="Grupo_5284" data-name="Grupo 5284">
            <g id="Grupo_5283" data-name="Grupo 5283">
              <path id="Trazado_14252" data-name="Trazado 14252" d="M595.269,361.016s-6.225.262-6.926,1.516c-.589,1.052-.937,5.674,7.637.9Z" fill="#e17947"/>
            </g>
          </g>
          <g id="Grupo_5286" data-name="Grupo 5286">
            <g id="Grupo_5285" data-name="Grupo 5285">
              <path id="Trazado_14253" data-name="Trazado 14253" d="M630.469,327.115l1.549,28.111-36.609,8.828-.867-3.038,27.078-11.183-.031-25.056s-.683-8.435,4.968-8.437A24.536,24.536,0,0,1,630.469,327.115Z" fill="#fff"/>
            </g>
          </g>
        </g>
      </g>
      <g id="Grupo_5289" data-name="Grupo 5289">
        <path id="Trazado_14254" data-name="Trazado 14254" d="M507.223,396.134h-1.43c-11.086,0-20.1-9.714-20.1-21.655V302.511c0-10.491-7.644-19.025-17.04-19.025H450.93c-9.4,0-17.037,8.534-17.037,19.025v42.87h-7.637v-42.87c0-14.7,11.068-26.662,24.674-26.662h17.719c13.609,0,24.677,11.961,24.677,26.662v71.968c0,7.731,5.593,14.019,12.467,14.019h1.43c6.718,0,12.184-6.147,12.184-13.7v-65.23c0-10.272,7.777-18.769,17.334-18.942l7.72-.138a15.783,15.783,0,0,1,11.478,4.657,18.476,18.476,0,0,1,5.391,13.141v27.709h-7.636V308.282a10.788,10.788,0,0,0-3.1-7.692,8.452,8.452,0,0,0-5.991-2.472l-7.716.14c-5.428.1-9.841,5.17-9.841,11.306v65.23C527.041,386.562,518.151,396.134,507.223,396.134Z" fill="#fff"/>
      </g>
      <g id="Grupo_5290" data-name="Grupo 5290">
        <rect id="Rectángulo_2669" data-name="Rectángulo 2669" width="23.577" height="76.626" transform="translate(416.496 319.638)" fill="#8db14c"/>
      </g>
      <g id="Grupo_5291" data-name="Grupo 5291">
        <path id="Trazado_14255" data-name="Trazado 14255" d="M444.465,322.494a4.713,4.713,0,0,1-4.486,4.911H415.484A4.71,4.71,0,0,1,411,322.494v-2.666a4.712,4.712,0,0,1,4.483-4.915h24.495a4.715,4.715,0,0,1,4.486,4.915Z" fill="#efc330"/>
      </g>
      <g id="Grupo_5295" data-name="Grupo 5295">
        <g id="Grupo_5292" data-name="Grupo 5292">
          <path id="Trazado_14256" data-name="Trazado 14256" d="M595.422,415.69a39.112,39.112,0,1,1-39.112-39.108A39.113,39.113,0,0,1,595.422,415.69Z" fill="#8db14c"/>
        </g>
        <g id="Grupo_5293" data-name="Grupo 5293">
          <rect id="Rectángulo_2670" data-name="Rectángulo 2670" width="27.247" height="80.857" transform="translate(542.688 334.817)" fill="#8db14c"/>
        </g>
        <g id="Grupo_5294" data-name="Grupo 5294">
          <path id="Rectángulo_2671" data-name="Rectángulo 2671" d="M5.186,0h28.3A5.186,5.186,0,0,1,38.67,5.186V8a5.184,5.184,0,0,1-5.184,5.184H5.184A5.184,5.184,0,0,1,0,8V5.186A5.186,5.186,0,0,1,5.186,0Z" transform="translate(536.336 329.833)" fill="#30345c"/>
        </g>
      </g>
      <g id="Grupo_5296" data-name="Grupo 5296">
        <path id="Trazado_14257" data-name="Trazado 14257" d="M556.31,444.222a29.133,29.133,0,0,0,29.134-29.135c0-.142-.016-.277-.018-.417H527.2c0,.14-.021.275-.021.417A29.133,29.133,0,0,0,556.31,444.222Z" fill="#efc330"/>
      </g>
      <g id="Grupo_5306" data-name="Grupo 5306">
        <g id="Grupo_5297" data-name="Grupo 5297">
          <path id="Trazado_14258" data-name="Trazado 14258" d="M550.623,393.016a7.311,7.311,0,1,1-7.312-7.31A7.314,7.314,0,0,1,550.623,393.016Z" fill="#f1da7a"/>
        </g>
        <g id="Grupo_5298" data-name="Grupo 5298">
          <path id="Trazado_14259" data-name="Trazado 14259" d="M549.484,395.366a6.742,6.742,0,1,1-6.742-6.745A6.745,6.745,0,0,1,549.484,395.366Z" fill="#efc330"/>
        </g>
        <g id="Grupo_5299" data-name="Grupo 5299">
          <path id="Trazado_14260" data-name="Trazado 14260" d="M575.344,404.081a7.312,7.312,0,1,1-7.307-7.312A7.309,7.309,0,0,1,575.344,404.081Z" fill="#f1da7a"/>
        </g>
        <g id="Grupo_5300" data-name="Grupo 5300">
          <path id="Trazado_14261" data-name="Trazado 14261" d="M552.6,419.089a4.645,4.645,0,1,1-4.646-4.645A4.642,4.642,0,0,1,552.6,419.089Z" fill="#f1da7a"/>
        </g>
        <g id="Grupo_5301" data-name="Grupo 5301">
          <path id="Trazado_14262" data-name="Trazado 14262" d="M566.425,388.471a4.642,4.642,0,1,1-4.635-4.643A4.636,4.636,0,0,1,566.425,388.471Z" fill="#f1da7a"/>
        </g>
        <g id="Grupo_5302" data-name="Grupo 5302">
          <path id="Trazado_14263" data-name="Trazado 14263" d="M564.653,423.731a2.866,2.866,0,1,1-2.863-2.865A2.867,2.867,0,0,1,564.653,423.731Z" fill="#f1da7a"/>
        </g>
        <g id="Grupo_5303" data-name="Grupo 5303">
          <path id="Trazado_14264" data-name="Trazado 14264" d="M545.608,406.947a2.864,2.864,0,1,1-2.866-2.866A2.862,2.862,0,0,1,545.608,406.947Z" fill="#f1da7a"/>
        </g>
        <g id="Grupo_5304" data-name="Grupo 5304">
          <path id="Trazado_14265" data-name="Trazado 14265" d="M574.508,433.521a4.4,4.4,0,1,1-4.41-4.4A4.4,4.4,0,0,1,574.508,433.521Z" fill="#f1da7a"/>
        </g>
        <g id="Grupo_5305" data-name="Grupo 5305">
          <path id="Trazado_14266" data-name="Trazado 14266" d="M573.821,434.937a4.06,4.06,0,1,1-4.065-4.063A4.065,4.065,0,0,1,573.821,434.937Z" fill="#efc330"/>
        </g>
      </g>
      <g id="Grupo_5307" data-name="Grupo 5307">
        <path id="Trazado_14267" data-name="Trazado 14267" d="M455.8,409.946l14.582,45.7H389.763l27-95.389h23.195L455.8,409.946Z" fill="#8db14c"/>
      </g>
      <g id="Grupo_5308" data-name="Grupo 5308">
        <path id="Trazado_14268" data-name="Trazado 14268" d="M446.357,414.348l9.228,28.922H404.559l17.09-60.365H436.33l10.027,31.443Z" fill="#e5a2cb"/>
      </g>
      <g id="Grupo_5309" data-name="Grupo 5309">
        <path id="Trazado_14269" data-name="Trazado 14269" d="M431.914,426.378c0,3.749-2.777,6.789-6.2,6.789s-6.2-3.04-6.2-6.789,2.775-6.792,6.2-6.792S431.914,422.625,431.914,426.378Z" fill="#817aa9"/>
      </g>
      <g id="Grupo_5310" data-name="Grupo 5310">
        <path id="Trazado_14270" data-name="Trazado 14270" d="M444.14,435.319a3.616,3.616,0,1,1-3.6-3.945A3.784,3.784,0,0,1,444.14,435.319Z" fill="#817aa9"/>
      </g>
      <g id="Grupo_5311" data-name="Grupo 5311">
        <path id="Trazado_14271" data-name="Trazado 14271" d="M431.865,394.944a3.619,3.619,0,1,1-3.6-3.946A3.784,3.784,0,0,1,431.865,394.944Z" fill="#817aa9"/>
      </g>
      <g id="Grupo_5312" data-name="Grupo 5312">
        <path id="Trazado_14272" data-name="Trazado 14272" d="M435.463,372.707a3.618,3.618,0,1,1-3.605-3.945A3.788,3.788,0,0,1,435.463,372.707Z" fill="#817aa9"/>
      </g>
    </g>
  </g>
</svg>
