<svg xmlns="http://www.w3.org/2000/svg" width="420.597" height="277.596" viewBox="0 0 420.597 277.596">
  <g id="Grupo_5423" data-name="Grupo 5423" transform="translate(-609.403 -5020)">
    <g id="Grupo_5384" data-name="Grupo 5384" transform="translate(0 929)">
      <g id="Grupo_5214" data-name="Grupo 5214" transform="translate(390.046 3914.521)">
        <path id="Trazado_14103" data-name="Trazado 14103" d="M624.57,330.1c-8.529-7.027-23.425-1.287-32.809,5.933-11.8,9.079-8.826,15.792-23.062,14.642-3.894-.315-8.061-2.351-9.547-6.436-2.005-5.512,1.627-11.364,4.633-16.259,9.136-14.883,8.426-30.514,6.342-48.481s-19.372-29.4-33.714-37.464-33.129-5.94-44.746,6.533c-7.934,8.519-11.963,20.549-17.665,31.11s-14.693,20.6-25.629,20.355c-13.223-.3-32.092-15.107-34.548-29.811s-.466-30.022-3.022-44.7c-4.832-27.757-25.844-46.869-50.847-46.741s-50.645,20.756-51.793,49.016c-.624,15.386,8.445,45.293.845,58.07-6.868,11.547-22.49,18.13-33.312,12.226-29.043-15.843-45.858-.589-51.454,18.536-6.261,21.4-6.512,39.587-.7,61.373s18.6,39.05,32.944,55c21.847,24.286,64.217,20.975,68.856,20.882,87.5-1.763,130.816-5.3,218.278-1.912,34.675,1.345,63.65-26.167,84.657-60.309.713-1.158,0,1.36,0,0,0,0,13.963-14.314,11.354-33.726C637.957,345.486,628.252,333.13,624.57,330.1Z" fill="#99cac3" opacity="0.1"/>
        <g id="Grupo_5035" data-name="Grupo 5035">
          <g id="Grupo_5034" data-name="Grupo 5034">
            <g id="Grupo_5033" data-name="Grupo 5033">
              <path id="Trazado_14104" data-name="Trazado 14104" d="M242.474,336.091a2.09,2.09,0,1,1-2.09,2.09A2.09,2.09,0,0,1,242.474,336.091Z" fill="#99cac3"/>
              <path id="Trazado_14105" data-name="Trazado 14105" d="M254.107,336.11l-2.921-.548a8.97,8.97,0,0,0-.7-1.691l1.691-2.472a.629.629,0,0,0-.072-.767l-2.085-2.086a.629.629,0,0,0-.768-.071l-2.472,1.691a9.044,9.044,0,0,0-1.743-.712l-.545-2.907a.63.63,0,0,0-.594-.493h-2.947a.631.631,0,0,0-.6.493l-.551,2.935a9.12,9.12,0,0,0-1.672.7l-2.44-1.669a.63.63,0,0,0-.769.071l-2.085,2.085a.63.63,0,0,0-.071.769l1.68,2.456a9,9,0,0,0-.688,1.67l-2.921.548a.629.629,0,0,0-.493.594v2.948a.631.631,0,0,0,.494.6l2.918.547a9.017,9.017,0,0,0,.7,1.7l-1.661,2.428a.63.63,0,0,0,.071.769l2.086,2.086a.63.63,0,0,0,.767.071l2.428-1.662a9.112,9.112,0,0,0,1.655.69l.55,2.934a.629.629,0,0,0,.594.494H243.9a.63.63,0,0,0,.6-.494l.545-2.9a9.166,9.166,0,0,0,1.725-.7l2.456,1.681a.633.633,0,0,0,.771-.071l2.084-2.085a.629.629,0,0,0,.072-.767l-1.673-2.444a9.114,9.114,0,0,0,.713-1.726l2.917-.547a.631.631,0,0,0,.494-.595V336.7A.624.624,0,0,0,254.107,336.11Zm-10.644,7.036a5.062,5.062,0,1,1,3.976-3.971A5.066,5.066,0,0,1,243.463,343.146Z" fill="#99cac3"/>
            </g>
          </g>
        </g>
        <g id="Grupo_5038" data-name="Grupo 5038">
          <g id="Grupo_5037" data-name="Grupo 5037">
            <g id="Grupo_5036" data-name="Grupo 5036">
              <path id="Trazado_14106" data-name="Trazado 14106" d="M277.28,388.877a1.655,1.655,0,1,1-2.2-.785A1.655,1.655,0,0,1,277.28,388.877Z" fill="#99cac3"/>
              <path id="Trazado_14107" data-name="Trazado 14107" d="M281.217,397.2l-.6-2.276a7.1,7.1,0,0,0,.972-1.074l2.342.37a.5.5,0,0,0,.525-.312l.783-2.2a.5.5,0,0,0-.209-.574l-2.05-1.194a7.161,7.161,0,0,0-.082-1.488l1.894-1.377a.5.5,0,0,0,.15-.592l-1-2.109a.5.5,0,0,0-.554-.257l-2.286.6a7.115,7.115,0,0,0-1.068-.959l.365-2.313a.5.5,0,0,0-.312-.526l-2.2-.783a.5.5,0,0,0-.574.21l-1.186,2.036a7.14,7.14,0,0,0-1.428.076l-1.384-1.9a.5.5,0,0,0-.593-.151l-2.108,1a.5.5,0,0,0-.258.556l.6,2.273a7.153,7.153,0,0,0-.981,1.081l-2.3-.363a.5.5,0,0,0-.525.312l-.783,2.2a.5.5,0,0,0,.209.573l2.013,1.172a7.264,7.264,0,0,0,.069,1.418l-1.912,1.39a.5.5,0,0,0-.151.593l1,2.109a.5.5,0,0,0,.555.257l2.263-.6a7.2,7.2,0,0,0,1.089,1l-.369,2.328a.5.5,0,0,0,.313.527l2.2.783a.5.5,0,0,0,.573-.209l1.18-2.027a7.188,7.188,0,0,0,1.477-.076l1.381,1.9a.5.5,0,0,0,.594.151l2.108-1A.5.5,0,0,0,281.217,397.2Zm-8.648-5.223a4.009,4.009,0,1,1,4.191,1.494A4.012,4.012,0,0,1,272.569,391.981Z" fill="#99cac3"/>
            </g>
          </g>
        </g>
        <g id="Grupo_5041" data-name="Grupo 5041">
          <g id="Grupo_5040" data-name="Grupo 5040">
            <g id="Grupo_5039" data-name="Grupo 5039">
              <path id="Trazado_14108" data-name="Trazado 14108" d="M457.933,249.321a4.425,4.425,0,1,1-6.131,1.25A4.424,4.424,0,0,1,457.933,249.321Z" fill="#99cac3"/>
              <path id="Trazado_14109" data-name="Trazado 14109" d="M478.449,262.937l-4.518-4.378a19.1,19.1,0,0,0,.741-3.8l5.87-2.39a1.33,1.33,0,0,0,.77-1.438l-1.245-6.117a1.332,1.332,0,0,0-1.273-1.023l-6.34.1a19.123,19.123,0,0,0-2.245-3.293l2.432-5.767a1.333,1.333,0,0,0-.473-1.564l-5.2-3.442a1.335,1.335,0,0,0-1.625.177l-4.4,4.538a19.1,19.1,0,0,0-3.768-.72l-2.359-5.8a1.335,1.335,0,0,0-1.441-.772l-6.115,1.247a1.334,1.334,0,0,0-1.024,1.274l.1,6.3a19.169,19.169,0,0,0-3.165,2.147l-5.795-2.444a1.332,1.332,0,0,0-1.565.473l-3.442,5.2a1.335,1.335,0,0,0,.177,1.627l4.513,4.373a19.132,19.132,0,0,0-.75,3.831l-5.768,2.348a1.332,1.332,0,0,0-.771,1.44l1.247,6.118a1.329,1.329,0,0,0,1.271,1.021l6.226-.1a19.265,19.265,0,0,0,2.117,3.15l-2.456,5.823a1.335,1.335,0,0,0,.474,1.566l5.2,3.442a1.335,1.335,0,0,0,1.627-.177l4.354-4.493a19.334,19.334,0,0,0,3.866.773l2.374,5.837a1.335,1.335,0,0,0,1.443.773l6.115-1.247a1.328,1.328,0,0,0,1.021-1.27l-.1-6.269a19.163,19.163,0,0,0,3.275-2.213l5.787,2.44a1.336,1.336,0,0,0,1.568-.475l3.442-5.2A1.324,1.324,0,0,0,478.449,262.937Zm-27.008-.005a10.716,10.716,0,1,1,11.656-2.37A10.726,10.726,0,0,1,451.441,262.932Z" fill="#99cac3"/>
            </g>
          </g>
        </g>
        <g id="Grupo_5044" data-name="Grupo 5044">
          <g id="Grupo_5043" data-name="Grupo 5043">
            <g id="Grupo_5042" data-name="Grupo 5042">
              <path id="Trazado_14110" data-name="Trazado 14110" d="M599.941,272.846c-.861.765-2.085.43-2.085-1.061V268.2a1.979,1.979,0,0,0-1.969-1.969h-2.514a4.185,4.185,0,0,1,.44,1.845,4.017,4.017,0,0,1-4.092,3.976h-.153a4.017,4.017,0,0,1-4.091-3.976,4.121,4.121,0,0,1,.44-1.845H583.25a1.932,1.932,0,0,0-1.931,1.931v3.623c0,1.491-1.243,1.816-2.1,1.061a2.236,2.236,0,1,0-.009,3.4c.86-.765,2.113-.43,2.113,1.061v3.547a1.932,1.932,0,0,0,1.931,1.931h3.594c1.491,0,1.816,1.252,1.061,2.112a2.245,2.245,0,1,0,3.4,0c-.765-.86-.43-2.122,1.061-2.122h3.576a1.932,1.932,0,0,0,1.931-1.931V277.3c0-1.491,1.214-1.816,2.074-1.061a2.229,2.229,0,1,0-.009-3.393Z" fill="#99cac3"/>
            </g>
          </g>
          <path id="Trazado_14111" data-name="Trazado 14111" d="M515.666,181.593l1.286-1.286-1.287-1.286a1.489,1.489,0,1,1,2.106-2.106l1.287,1.287,1.286-1.287a1.489,1.489,0,0,1,2.106,2.106l-1.287,1.286,1.286,1.286a1.489,1.489,0,1,1-2.106,2.106l-1.285-1.286-1.286,1.286a1.489,1.489,0,0,1-2.106-2.106Z" fill="#99cac3"/>
          <path id="Trazado_14112" data-name="Trazado 14112" d="M259.241,273.381l1.285-1.285-1.286-1.286a1.489,1.489,0,0,1,2.106-2.106l1.286,1.286,1.286-1.286a1.489,1.489,0,1,1,2.106,2.106l-1.286,1.286,1.285,1.285a1.489,1.489,0,0,1-2.106,2.106l-1.285-1.285-1.285,1.285a1.489,1.489,0,0,1-2.106-2.106Z" fill="#99cac3"/>
          <path id="Trazado_14113" data-name="Trazado 14113" d="M612.645,376.991l1.286-1.286-1.287-1.285a1.49,1.49,0,0,1,2.106-2.107l1.287,1.287,1.286-1.287a1.49,1.49,0,0,1,2.106,2.107l-1.287,1.285,1.286,1.286a1.489,1.489,0,1,1-2.106,2.106l-1.285-1.286-1.286,1.286a1.489,1.489,0,1,1-2.106-2.106Z" fill="#99cac3"/>
          <path id="Trazado_14114" data-name="Trazado 14114" d="M239.557,376.61l1.286-1.285-1.286-1.286a1.489,1.489,0,1,1,2.106-2.106l1.286,1.287,1.286-1.287a1.489,1.489,0,1,1,2.106,2.106l-1.286,1.286,1.285,1.285a1.49,1.49,0,0,1-2.106,2.107l-1.285-1.286-1.285,1.286a1.49,1.49,0,0,1-2.107-2.107Z" fill="#99cac3"/>
        </g>
      </g>
    </g>
    <g id="Grupo_5422" data-name="Grupo 5422" transform="translate(353.05 4839.731)">
      <g id="Grupo_5388" data-name="Grupo 5388">
        <g id="Grupo_5385" data-name="Grupo 5385">
          <path id="Trazado_14313" data-name="Trazado 14313" d="M423,450.743h45.1a8.057,8.057,0,0,0,8.057-8.057v-72.4H414.94v72.4A8.055,8.055,0,0,0,423,450.743Z" fill="#366064"/>
        </g>
        <g id="Grupo_5386" data-name="Grupo 5386">
          <path id="Trazado_14314" data-name="Trazado 14314" d="M427.8,442.594h36.316c3.585,0,6.487-2.362,6.487-5.28V389.868H421.31v47.446C421.31,440.232,424.214,442.594,427.8,442.594Z" fill="#8db14c"/>
        </g>
        <g id="Grupo_5387" data-name="Grupo 5387">
          <path id="Trazado_14315" data-name="Trazado 14315" d="M482.6,375.878c0,3.536-3.87,6.4-8.641,6.4H416.733c-4.773,0-8.638-2.865-8.638-6.4h0c0-3.534,3.865-6.4,8.638-6.4h57.225c4.771,0,8.641,2.865,8.641,6.4Z" fill="#8db14c"/>
        </g>
      </g>
      <g id="Grupo_5390" data-name="Grupo 5390">
        <g id="Grupo_5389" data-name="Grupo 5389">
          <rect id="Rectángulo_2681" data-name="Rectángulo 2681" width="167.115" height="6.803" transform="translate(367.95 450.576)" fill="#5f648f"/>
        </g>
      </g>
      <g id="Grupo_5421" data-name="Grupo 5421">
        <g id="Grupo_5392" data-name="Grupo 5392">
          <g id="Grupo_5391" data-name="Grupo 5391">
            <path id="Trazado_14316" data-name="Trazado 14316" d="M508.766,412.47l3-2.692,5.064,3.6,3.006.759,14.359-2.025L515.6,422.289Z" fill="#8090ca"/>
          </g>
        </g>
        <g id="Grupo_5394" data-name="Grupo 5394">
          <g id="Grupo_5393" data-name="Grupo 5393">
            <path id="Trazado_14317" data-name="Trazado 14317" d="M454.4,404.009l2.772,1.917-2.152,4.64-.117,2.515,4.161,11.056-11.727-13.013Z" fill="#8090ca"/>
          </g>
        </g>
        <g id="Grupo_5396" data-name="Grupo 5396">
          <g id="Grupo_5395" data-name="Grupo 5395">
            <path id="Trazado_14318" data-name="Trazado 14318" d="M445.834,341.833s29.276,7.125,39.659,12.172c3.131,1.527,5.111,6.031,1.1,13-5.036,8.754-30.99,42.777-30.99,42.777l-4.007-3.413,19.293-41.809-42.932-10.078Z" fill="#1e2128"/>
          </g>
        </g>
        <g id="Grupo_5398" data-name="Grupo 5398">
          <g id="Grupo_5397" data-name="Grupo 5397">
            <path id="Trazado_14319" data-name="Trazado 14319" d="M426,354.983s-.384,10.175,11.081,13.19c0,0,10.578-.406,29.77.2l43.283,45.7,4.171-2.714-28.812-46.125s-4.2-7.066-6.51-8.439c-7.917-4.7-39.1-9.045-39.1-9.045Z" fill="#1e2128"/>
          </g>
        </g>
        <g id="Grupo_5403" data-name="Grupo 5403">
          <g id="Grupo_5400" data-name="Grupo 5400">
            <g id="Grupo_5399" data-name="Grupo 5399">
              <path id="Trazado_14320" data-name="Trazado 14320" d="M500.46,289.977s2.422-5.5,3.787-5.695c1.152-.162,5.43,1.146-1.861,7.174Z" fill="#e17947"/>
            </g>
          </g>
          <g id="Grupo_5402" data-name="Grupo 5402">
            <g id="Grupo_5401" data-name="Grupo 5401">
              <path id="Trazado_14321" data-name="Trazado 14321" d="M457.675,309.735l24.716,11.237,20.753-29.8-2.427-1.847L481.182,309.74l-22.5-8.8s-9.915-3.908-9.326,1.514C449.662,305.2,452.637,307.342,457.675,309.735Z" fill="#fff"/>
            </g>
          </g>
        </g>
        <g id="Grupo_5405" data-name="Grupo 5405">
          <g id="Grupo_5404" data-name="Grupo 5404">
            <path id="Trazado_14322" data-name="Trazado 14322" d="M424.168,307.969s24.324-8.128,27.163-7.8-.031,14.147.421,17.621c.659,5.086,2.38,12.263,1.1,18.226s1.612,9.1,1.612,9.1l-31.078,16.265.353-26.251Z" fill="#f6df86"/>
          </g>
        </g>
        <g id="Grupo_5407" data-name="Grupo 5407">
          <g id="Grupo_5406" data-name="Grupo 5406">
            <path id="Trazado_14323" data-name="Trazado 14323" d="M436.422,298.025l-1.039,6.835s8.857,4.994,7.684,1.759a77.606,77.606,0,0,1-2.209-9.083Z" fill="#e17947"/>
          </g>
        </g>
        <g id="Grupo_5409" data-name="Grupo 5409">
          <g id="Grupo_5408" data-name="Grupo 5408">
            <path id="Trazado_14324" data-name="Trazado 14324" d="M435.581,290.367c-.395,1.424-1.181,4.191-.218,5.9s2.471,4.778,4.6,5.319,3.139-1.41,3.377-2.267c.382-1.377,0-8.837-3.491-10.279C437.211,287.943,435.877,289.292,435.581,290.367Z" fill="#e28058"/>
          </g>
        </g>
        <g id="Grupo_5411" data-name="Grupo 5411">
          <g id="Grupo_5410" data-name="Grupo 5410">
            <path id="Trazado_14325" data-name="Trazado 14325" d="M441.322,290.245a4.119,4.119,0,0,1-3.634,1.284c-2.336-.312-1.8,1.9-1.77,2.155s.771,3.41-.01,3.548-2.284-3.737-1.425-6.548A3.712,3.712,0,0,1,441.322,290.245Z" fill="#d0b09a"/>
          </g>
        </g>
        <g id="Grupo_5413" data-name="Grupo 5413">
          <g id="Grupo_5412" data-name="Grupo 5412">
            <path id="Trazado_14326" data-name="Trazado 14326" d="M436.562,298.352s2.554,1.977,4.895,1.426c1.488-.354,1.971-3.063,1.9-3.625s1.272,4.914-2.02,5.467S436.562,298.352,436.562,298.352Z" fill="#e4cab7"/>
          </g>
        </g>
        <g id="Grupo_5414" data-name="Grupo 5414">
          <path id="Trazado_14327" data-name="Trazado 14327" d="M434.223,304.713l9.236,40.739,34.478,15.93-15.281,14.424s-38.452-1.876-40.113-16.3c-1.892-16.444.841-51.8.841-51.8Z" fill="#e1f6f5"/>
        </g>
        <g id="Grupo_5415" data-name="Grupo 5415">
          <path id="Trazado_14328" data-name="Trazado 14328" d="M443.57,301.674l6.336,41.182,28.031,12.067,10.9-.916-29.772-18.026-4.607-37.087Z" fill="#e1f6f5"/>
        </g>
        <g id="Grupo_5420" data-name="Grupo 5420">
          <g id="Grupo_5417" data-name="Grupo 5417">
            <g id="Grupo_5416" data-name="Grupo 5416">
              <path id="Trazado_14329" data-name="Trazado 14329" d="M453.517,350.412s6,.3,6.671,1.512c.561,1.023.856,5.48-7.372.81Z" fill="#e17947"/>
            </g>
          </g>
          <g id="Grupo_5419" data-name="Grupo 5419">
            <g id="Grupo_5418" data-name="Grupo 5418">
              <path id="Trazado_14330" data-name="Trazado 14330" d="M419.828,317.453l-1.706,27.094,35.234,8.793.864-2.92-26.032-11,.221-24.16s.127-10.657-4.729-8.173C421.221,308.35,420.277,311.893,419.828,317.453Z" fill="#fff"/>
            </g>
          </g>
        </g>
      </g>
    </g>
  </g>
</svg>
