<svg xmlns="http://www.w3.org/2000/svg" width="792.379" height="216.843" viewBox="0 0 792.379 216.843">
  <g id="Grupo_5025" data-name="Grupo 5025" transform="translate(-144 -957.2)">
    <g id="Grupo_5022" data-name="Grupo 5022">
      <text id="Producción_Primaria" data-name="Producción
Primaria" transform="matrix(1, 0, 0, 1, 158.678, 1111)" fill="#00223d" font-size="18" font-family="CerebriSans-Bold, Cerebri Sans" font-weight="700"><tspan x="2.891" y="17">Producción</tspan><tspan x="17.103" y="41">Primaria</tspan></text>
      <g id="Grupo_5021" data-name="Grupo 5021" transform="translate(-30)">
        <circle id="Elipse_1358" data-name="Elipse 1358" cx="55.988" cy="55.988" r="55.988" transform="translate(186.695 969.895)" fill="#ffe082"/>
        <g id="Grupo_4897" data-name="Grupo 4897" transform="translate(173.182 918.651)">
          <g id="Grupo_4895" data-name="Grupo 4895">
            <path id="Trazado_13965" data-name="Trazado 13965" d="M69.5,175.913A68.7,68.7,0,1,1,118.066,58.665l-1.5,1.5a66.635,66.635,0,1,0,19.5,47.066V106.17h61.46a1.061,1.061,0,0,1,1.061,1.061h0a1.06,1.06,0,0,1-1.061,1.06H138.175A68.626,68.626,0,0,1,69.5,175.913Z" fill="#7fb2aa"/>
          </g>
          <g id="Grupo_4896" data-name="Grupo 4896">
            <path id="Trazado_13966" data-name="Trazado 13966" d="M190.831,115.131h0a1.061,1.061,0,0,1,.054-1.5l6.048-5.62a1.06,1.06,0,0,0,0-1.554l-6.048-5.622a1.061,1.061,0,0,1-.054-1.5h0a1.059,1.059,0,0,1,1.5-.054l7.718,7.177a1.06,1.06,0,0,1,0,1.554l-7.718,7.175A1.059,1.059,0,0,1,190.831,115.131Z" fill="#7fb2aa"/>
          </g>
        </g>
        <g id="Grupo_4899" data-name="Grupo 4899" transform="translate(113.182 979.651)">
          <path id="Trazado_13967" data-name="Trazado 13967" d="M129.373,58.921a15.6,15.6,0,0,1-15.581-15.58V30.332a.924.924,0,0,1,.924-.924h29.313a.924.924,0,0,1,.924.924V43.341A15.6,15.6,0,0,1,129.373,58.921ZM115.641,31.257V43.341a13.732,13.732,0,1,0,27.464,0V31.257Z" fill="#846e63"/>
          <path id="Trazado_13968" data-name="Trazado 13968" d="M144.744,44.9a4.355,4.355,0,0,1-.9-.108.924.924,0,0,1-.734-.9V33.7a.924.924,0,0,1,.735-.905,4.409,4.409,0,0,1,.9-.108c2.842,0,5.154,2.74,5.154,6.108S147.586,44.9,144.744,44.9Zm.209-10.358v8.5c1.726-.139,3.1-1.992,3.1-4.25S146.679,34.681,144.953,34.542Z" fill="#846e63"/>
          <path id="Trazado_13969" data-name="Trazado 13969" d="M114,44.9c-2.842,0-5.154-2.739-5.154-6.107s2.312-6.108,5.154-6.108a4.408,4.408,0,0,1,.9.108.924.924,0,0,1,.736.905v10.19a.924.924,0,0,1-.734.9A4.366,4.366,0,0,1,114,44.9Zm-.209-10.358c-1.726.139-3.1,1.993-3.1,4.251s1.371,4.111,3.1,4.25Z" fill="#846e63"/>
          <path id="Trazado_13970" data-name="Trazado 13970" d="M151.775,77.908a.925.925,0,0,1-.925-.925V72.008a6.9,6.9,0,0,0-6.89-6.89H114.786a6.9,6.9,0,0,0-6.891,6.89v4.975a.924.924,0,1,1-1.849,0V72.008a8.749,8.749,0,0,1,8.74-8.739H143.96a8.749,8.749,0,0,1,8.739,8.739v4.975A.925.925,0,0,1,151.775,77.908Z" fill="#846e63"/>
          <path id="Trazado_13971" data-name="Trazado 13971" d="M118.455,77.908a.925.925,0,0,1-.925-.925v-4.17a.924.924,0,1,1,1.849,0v4.17A.925.925,0,0,1,118.455,77.908Z" fill="#846e63"/>
          <path id="Trazado_13972" data-name="Trazado 13972" d="M140.291,77.908a.925.925,0,0,1-.925-.925v-4.17a.924.924,0,1,1,1.849,0v4.17A.925.925,0,0,1,140.291,77.908Z" fill="#846e63"/>
          <path id="Trazado_13973" data-name="Trazado 13973" d="M135.315,65.118H123.429a.925.925,0,0,1-.924-.925V56.731a.925.925,0,0,1,1.3-.845,13.719,13.719,0,0,0,11.135,0,.925.925,0,0,1,1.3.845v7.462A.925.925,0,0,1,135.315,65.118Zm-10.961-1.849h10.037V58.086a15.543,15.543,0,0,1-10.037,0Z" fill="#846e63"/>
          <path id="Trazado_13974" data-name="Trazado 13974" d="M151.8,31.257H106.942a2.737,2.737,0,0,1,0-5.474h9.116l1.509-9.269a7.027,7.027,0,0,1,6.961-5.919h1.136a.924.924,0,0,1,.924.924c0,.747,1.144,1.578,2.785,1.578s2.784-.831,2.784-1.578a.924.924,0,0,1,.924-.924h1.136a7.026,7.026,0,0,1,6.961,5.919l1.509,9.269H151.8a2.737,2.737,0,0,1,0,5.474Zm-44.861-3.625a.888.888,0,0,0,0,1.776H151.8a.888.888,0,0,0,0-1.776h-9.9a.924.924,0,0,1-.912-.776l-1.635-10.045a5.184,5.184,0,0,0-5.137-4.367h-.375c-.533,1.458-2.306,2.5-4.469,2.5s-3.936-1.043-4.469-2.5h-.376a5.183,5.183,0,0,0-5.136,4.367l-1.636,10.045a.923.923,0,0,1-.911.776Z" fill="#846e63"/>
          <path id="Trazado_13975" data-name="Trazado 13975" d="M136.523,27.632H116.845a.924.924,0,1,1,0-1.849h19.678a.924.924,0,0,1,0,1.849Z" fill="#846e63"/>
          <path id="Trazado_13976" data-name="Trazado 13976" d="M141.406,24.59H117.34a.925.925,0,0,1-.913-1.073l.463-2.838a.924.924,0,0,1,.912-.776h23.142a.925.925,0,0,1,.912.776l.462,2.838a.923.923,0,0,1-.912,1.073Zm-22.98-1.848h21.893l-.161-.991h-21.57Z" fill="#846e63"/>
        </g>
      </g>
    </g>
    <g id="Grupo_5023" data-name="Grupo 5023">
      <text id="Cosecha_y_Poscosecha" data-name="Cosecha y 
Poscosecha" transform="matrix(1, 0, 0, 1, 372.019, 1113)" fill="#00223d" font-size="18" font-family="CerebriSans-Bold, Cerebri Sans" font-weight="700"><tspan x="12.113" y="17">Cosecha y </tspan><tspan x="5.609" y="41">Poscosecha</tspan></text>
      <g id="Grupo_5020" data-name="Grupo 5020" transform="translate(-17.16)">
        <circle id="Elipse_1360" data-name="Elipse 1360" cx="55.988" cy="55.988" r="55.988" transform="translate(386.855 969.895)" fill="#ffe082"/>
        <g id="Grupo_4902" data-name="Grupo 4902" transform="translate(173.182 918.651)">
          <g id="Grupo_4900" data-name="Grupo 4900">
            <path id="Trazado_13977" data-name="Trazado 13977" d="M269.661,175.913A68.7,68.7,0,1,1,318.226,58.665l-1.5,1.5a66.634,66.634,0,1,0,19.5,47.066V106.17h61.46a1.06,1.06,0,0,1,1.06,1.061h0a1.059,1.059,0,0,1-1.06,1.06H338.335a68.626,68.626,0,0,1-68.674,67.622Z" fill="#7fb2aa"/>
          </g>
          <g id="Grupo_4901" data-name="Grupo 4901">
            <path id="Trazado_13978" data-name="Trazado 13978" d="M390.992,115.131h0a1.061,1.061,0,0,1,.055-1.5l6.048-5.62a1.062,1.062,0,0,0,0-1.554l-6.049-5.622a1.062,1.062,0,0,1-.054-1.5h0a1.061,1.061,0,0,1,1.5-.054l7.718,7.177a1.062,1.062,0,0,1,0,1.554l-7.718,7.175A1.059,1.059,0,0,1,390.992,115.131Z" fill="#7fb2aa"/>
          </g>
        </g>
        <g id="Grupo_4905" data-name="Grupo 4905" transform="translate(113.182 984.651)">
          <g id="Grupo_4904" data-name="Grupo 4904">
            <path id="Trazado_13979" data-name="Trazado 13979" d="M324.293,67.963a153.146,153.146,0,0,1-28.25-1.552,1.2,1.2,0,0,1-1.037-1.283,1.224,1.224,0,0,1,1.22-1.112c.462.01,45.538.361,54.78-35.954a1.2,1.2,0,0,1,1.584-.831l4.966,1.837a1.207,1.207,0,0,1,.691.662c.251.6,6.05,14.756-2.482,25.885C350.073,63.04,339.53,67.165,324.293,67.963Zm-16.137-2.686c23.079,1.682,38.764-2.1,45.687-11.109,6.869-8.944,3.254-20.563,2.364-23.034l-3.215-1.189C345.934,54.891,322.631,62.785,308.156,65.277Z" fill="#846e63"/>
            <path id="Trazado_13980" data-name="Trazado 13980" d="M310.06,67.79l-.264.013a1.2,1.2,0,0,1-.109-2.4l.088,0c1.655-.087,30.8-1.931,39.949-22.6a1.2,1.2,0,0,1,2.2.975C342.306,65.485,313.359,67.617,310.06,67.79Z" fill="#846e63"/>
            <path id="Trazado_13981" data-name="Trazado 13981" d="M358.346,24.616a1.184,1.184,0,0,1-.441-.059l-5.552-1.84a1.2,1.2,0,1,1,.755-2.284l5.553,1.84a1.2,1.2,0,0,1-.315,2.343Z" fill="#846e63"/>
          </g>
          <path id="Trazado_13982" data-name="Trazado 13982" d="M327.216,13.617a1.2,1.2,0,0,0-.185.962c4.1,17.539-3.058,31.369-11.64,41.029,1.235-.286,2.6-.653,4.071-1.122,7.71-9.677,13.556-22.829,10.2-39.15l3.4-.426c1.927,1.784,10.488,10.433,8.509,21.535a21.2,21.2,0,0,1-2.093,6.019,48.031,48.031,0,0,0,4.314-4.924c.049-.232.11-.462.152-.695,2.448-13.809-9.221-23.706-9.719-24.12a1.2,1.2,0,0,0-.918-.269l-5.254.655A1.2,1.2,0,0,0,327.216,13.617Z" fill="#846e63"/>
          <path id="Trazado_13983" data-name="Trazado 13983" d="M334.13,46.035l-2.152-1.076c3.734-7.473,2.332-18.634,2.318-18.746l2.385-.312C336.746,26.386,338.2,37.9,334.13,46.035Z" fill="#846e63"/>
          <rect id="Rectángulo_1422" data-name="Rectángulo 1422" width="7.092" height="2.407" transform="translate(325.861 9.36) rotate(-9.895)" fill="#846e63"/>
        </g>
      </g>
    </g>
    <g id="Grupo_5024" data-name="Grupo 5024">
      <text id="Proceso_de_transformación" data-name="Proceso de
transformación" transform="matrix(1, 0, 0, 1, 580.02, 1112)" fill="#00223d" font-size="18" font-family="CerebriSans-Bold, Cerebri Sans" font-weight="700"><tspan x="21.068" y="17">Proceso de</tspan><tspan x="3.516" y="41">transformación</tspan></text>
      <g id="Grupo_5019" data-name="Grupo 5019" transform="translate(-3.321)">
        <circle id="Elipse_1362" data-name="Elipse 1362" cx="55.988" cy="55.988" r="55.988" transform="translate(587.016 969.895)" fill="#ffe082"/>
        <g id="Grupo_4908" data-name="Grupo 4908" transform="translate(173.182 918.651)">
          <g id="Grupo_4906" data-name="Grupo 4906">
            <path id="Trazado_13984" data-name="Trazado 13984" d="M469.821,175.913A68.7,68.7,0,1,1,518.387,58.665l-1.5,1.5a66.63,66.63,0,1,0,19.5,47.066V106.17h61.459a1.061,1.061,0,0,1,1.061,1.061h0a1.06,1.06,0,0,1-1.061,1.06H538.5a68.626,68.626,0,0,1-68.675,67.622Z" fill="#7fb2aa"/>
          </g>
          <g id="Grupo_4907" data-name="Grupo 4907">
            <path id="Trazado_13985" data-name="Trazado 13985" d="M591.152,115.131h0a1.061,1.061,0,0,1,.054-1.5l6.048-5.62a1.06,1.06,0,0,0,0-1.554l-6.048-5.622a1.061,1.061,0,0,1-.054-1.5h0a1.059,1.059,0,0,1,1.5-.054l7.719,7.177a1.061,1.061,0,0,1,0,1.554l-7.718,7.175A1.059,1.059,0,0,1,591.152,115.131Z" fill="#7fb2aa"/>
          </g>
        </g>
        <g id="Grupo_4910" data-name="Grupo 4910" transform="translate(111.382 980.651)">
          <path id="Trazado_13986" data-name="Trazado 13986" d="M547.474,79.682H515.023a7.665,7.665,0,0,1-7.656-7.657V68.054a.924.924,0,0,1,1.849,0v3.971a5.814,5.814,0,0,0,5.807,5.808h32.451a5.814,5.814,0,0,0,5.808-5.808v-23.2a.924.924,0,0,1,1.849,0v23.2A7.666,7.666,0,0,1,547.474,79.682Z" fill="#846e63"/>
          <path id="Trazado_13987" data-name="Trazado 13987" d="M508.291,63.6a.924.924,0,0,1-.924-.924V35.442a.925.925,0,0,1,1.193-.884,7.348,7.348,0,0,0,6.057-1.1c4.828-2.931,8.181-3.607,9.961-2l.183.172c1.033.99,4.176,4,10,.658,7.157-4.113,11.049-1.653,13.053,1.133.48.668,2.833,1.08,6.246.53a.925.925,0,0,1,1.072.912v4.377a.924.924,0,0,1-1.849,0v-3.32c-2.071.229-5.7.344-6.97-1.42-2.3-3.2-5.776-3.4-10.631-.61-3.2,1.84-7.921,3.173-12.2-.926l-.141-.133c-.389-.35-2.1-1.23-7.765,2.211a9.574,9.574,0,0,1-6.36,1.553V62.678A.925.925,0,0,1,508.291,63.6Z" fill="#846e63"/>
          <path id="Trazado_13988" data-name="Trazado 13988" d="M510.326,36.663a8.04,8.04,0,0,1-5.739-2.445.924.924,0,0,1-.222-.621,19.756,19.756,0,0,1,2.428-8.08,2.793,2.793,0,0,1-1.872-2.633.937.937,0,0,1,.038-.262l2.678-9.075a2.79,2.79,0,0,1,2.783-2.641h41.658a2.791,2.791,0,0,1,2.783,2.641l2.677,9.075a.9.9,0,0,1,.038.262,2.785,2.785,0,0,1-1.342,2.382,18.334,18.334,0,0,1,2.383,8.308c.046.99-1.143,1.4-1.651,1.581-2.316.806-8.889,1.8-10.654-.659-2.3-3.2-5.776-3.4-10.631-.61-3.2,1.84-7.921,3.173-12.2-.926l-.141-.133c-.389-.35-2.1-1.23-7.765,2.211A10.068,10.068,0,0,1,510.326,36.663Zm-4.1-3.407c.839.776,3.821,2.974,8.388.2,4.828-2.931,8.181-3.607,9.961-2l.183.172c1.033.99,4.176,4,10,.658,7.157-4.113,11.049-1.653,13.053,1.133.108.15.5.517,1.79.693a17.064,17.064,0,0,0,7.144-.846,15.6,15.6,0,0,0-2.682-7.946.924.924,0,0,1,.725-1.5.94.94,0,0,0,.932-.827l-2.668-9.04a.937.937,0,0,1-.038-.262.94.94,0,0,0-.938-.939H510.42a.939.939,0,0,0-.938.939.938.938,0,0,1-.038.262L506.776,23a.94.94,0,0,0,.932.827h.583a.925.925,0,0,1,.783,1.417C509.047,25.282,506.476,29.411,506.229,33.256Z" fill="#846e63"/>
          <path id="Trazado_13989" data-name="Trazado 13989" d="M531.159,66.484c-8.645,0-15.679-4.881-15.679-10.881s7.034-10.88,15.679-10.88S546.837,49.6,546.837,55.6,539.8,66.484,531.159,66.484Zm0-19.369c-6.744,0-12.232,3.808-12.232,8.488s5.488,8.489,12.232,8.489S543.39,60.284,543.39,55.6,537.9,47.115,531.159,47.115Z" fill="#846e63"/>
          <path id="Trazado_13990" data-name="Trazado 13990" d="M557.694,79.682h-52.4a.924.924,0,0,1,0-1.849h52.4a.924.924,0,0,1,0,1.849Z" fill="#846e63"/>
          <path id="Trazado_13991" data-name="Trazado 13991" d="M554.79,25.67H515.653a.924.924,0,1,1,0-1.848H554.79a.924.924,0,1,1,0,1.848Z" fill="#846e63"/>
        </g>
      </g>
    </g>
    <text id="Comercialización" transform="matrix(1, 0, 0, 1, 778.38, 1128)" fill="#00223d" font-size="18" font-family="CerebriSans-Bold, Cerebri Sans" font-weight="700"><tspan x="4.055" y="17">Comercialización</tspan></text>
    <g id="Grupo_5018" data-name="Grupo 5018" transform="translate(-0.214)">
      <ellipse id="Elipse_1364" data-name="Elipse 1364" cx="57.317" cy="55.988" rx="57.317" ry="55.988" transform="translate(796.908 969.895)" fill="#ffe082"/>
      <g id="Grupo_4912" data-name="Grupo 4912" transform="translate(183.171 918.651)">
        <g id="Grupo_4911" data-name="Grupo 4911">
          <path id="Trazado_13992" data-name="Trazado 13992" d="M738.4,108.291a68.764,68.764,0,1,1-20.11-49.626l-1.5,1.5a66.636,66.636,0,1,0,19.495,47.066V106.17" fill="#7fb2aa"/>
        </g>
      </g>
      <g id="Grupo_4914" data-name="Grupo 4914" transform="translate(124.171 981.651)">
        <path id="Trazado_13993" data-name="Trazado 13993" d="M742.841,67.125H720.494a1.32,1.32,0,0,1-1.255-.811L706.453,32.155a1.089,1.089,0,0,1,.18-1.073,1.379,1.379,0,0,1,1.075-.5h47.919a1.381,1.381,0,0,1,1.076.5,1.091,1.091,0,0,1,.179,1.073L744.1,66.314A1.323,1.323,0,0,1,742.841,67.125Zm-21.4-2.379H741.89l11.895-31.78H709.55Z" fill="#846e63"/>
        <path id="Trazado_13994" data-name="Trazado 13994" d="M742.005,72.092H720.646c-1.031,0-1.866-.434-1.866-.97v-6c0-.536.835-.97,1.866-.97h21.359c1.032,0,1.866.434,1.866.97v6C743.871,71.658,743.037,72.092,742.005,72.092Zm-19.493-1.939h17.627V66.092H722.512Z" fill="#846e63"/>
        <path id="Trazado_13995" data-name="Trazado 13995" d="M755.914,32.966H707.421a4.767,4.767,0,0,1-4.2-2.366l-1.315-2.441a2.338,2.338,0,0,1,.152-2.491,2.938,2.938,0,0,1,2.429-1.208H758.85a2.94,2.94,0,0,1,2.429,1.208,2.34,2.34,0,0,1,.151,2.491L760.115,30.6A4.765,4.765,0,0,1,755.914,32.966Zm-51.428-6.127a.21.21,0,0,0-.185.093.166.166,0,0,0-.012.19l1.315,2.441a2.061,2.061,0,0,0,1.817,1.024h48.493a2.063,2.063,0,0,0,1.818-1.024l1.314-2.441a.164.164,0,0,0-.011-.19.212.212,0,0,0-.185-.093Z" fill="#846e63"/>
      </g>
    </g>
  </g>
</svg>
