<svg xmlns="http://www.w3.org/2000/svg" width="786.801" height="197.009" viewBox="0 0 786.801 197.009">
  <g id="Grupo_5025" data-name="Grupo 5025" transform="translate(-144 -957.2)">
    <g id="Grupo_5022" data-name="Grupo 5022">
      <path id="Trazado_14337" data-name="Trazado 14337" d="M9.817,4.3a3.822,3.822,0,0,1,2.927,1.182A4.112,4.112,0,0,1,13.851,8.4a4.011,4.011,0,0,1-1.1,2.9,3.891,3.891,0,0,1-2.936,1.138H7.171V17H4.535V4.3Zm-.439,5.941a1.938,1.938,0,0,0,1.45-.5,1.889,1.889,0,0,0,.483-1.375,1.873,1.873,0,0,0-.488-1.358,1.92,1.92,0,0,0-1.446-.505H7.171v3.735Zm8.78-.844a2.933,2.933,0,0,1,1.187-1.085,3.62,3.62,0,0,1,1.767-.453v2.259a3.423,3.423,0,0,0-2.162.545,2.379,2.379,0,0,0-.668,1.934V17H15.732V7.965h2.426Zm8.6,7.778a5.681,5.681,0,0,1-2.558-.554A4.138,4.138,0,0,1,22.442,15a4.846,4.846,0,0,1-.637-2.522,4.42,4.42,0,0,1,1.371-3.428,5.086,5.086,0,0,1,3.577-1.257,5.1,5.1,0,0,1,3.586,1.257,4.42,4.42,0,0,1,1.371,3.428,4.444,4.444,0,0,1-1.371,3.441A5.088,5.088,0,0,1,26.753,17.176Zm-.026-2.013a2.319,2.319,0,0,0,1.789-.738,2.764,2.764,0,0,0,.681-1.951,2.764,2.764,0,0,0-.681-1.951,2.319,2.319,0,0,0-1.789-.738,2.234,2.234,0,0,0-1.736.743,2.789,2.789,0,0,0-.672,1.947,2.789,2.789,0,0,0,.672,1.947A2.234,2.234,0,0,0,26.727,15.163ZM40,3.5H42.53V17h-2.4l-.062-1.178a2.58,2.58,0,0,1-1.147,1.024,3.861,3.861,0,0,1-1.692.365,4.394,4.394,0,0,1-1.687-.325,4.064,4.064,0,0,1-2.32-2.408,5.5,5.5,0,0,1-.343-1.978,5.137,5.137,0,0,1,.6-2.518,4.1,4.1,0,0,1,1.578-1.639,4.345,4.345,0,0,1,2.175-.554,3.957,3.957,0,0,1,1.639.33A2.559,2.559,0,0,1,40,9.055ZM37.81,15.11a2.253,2.253,0,0,0,1.709-.721A2.638,2.638,0,0,0,40.2,12.5a2.644,2.644,0,0,0-.686-1.894,2.251,2.251,0,0,0-1.705-.725,2.277,2.277,0,0,0-1.718.712,2.644,2.644,0,0,0-.681,1.907,2.631,2.631,0,0,0,.681,1.9A2.277,2.277,0,0,0,37.81,15.11ZM51.134,7.965h2.531V17h-2.4L51.2,15.91a3.45,3.45,0,0,1-2.874,1.266,3.522,3.522,0,0,1-2.5-.813,3.014,3.014,0,0,1-.87-2.316V7.965H47.5V13.5a1.562,1.562,0,0,0,.453,1.239,1.718,1.718,0,0,0,1.173.4,2.038,2.038,0,0,0,1.437-.514,2.209,2.209,0,0,0,.567-1.674Zm9.237,9.2a4.827,4.827,0,0,1-3.489-1.3,4.493,4.493,0,0,1-1.354-3.393,4.483,4.483,0,0,1,1.349-3.393,5.364,5.364,0,0,1,6.42-.422,3.885,3.885,0,0,1,1.512,2.452l-2.338.255a2,2,0,0,0-.756-1.187,2.3,2.3,0,0,0-1.371-.4,2.072,2.072,0,0,0-1.652.738,2.894,2.894,0,0,0-.633,1.951,2.9,2.9,0,0,0,.633,1.947,2.067,2.067,0,0,0,1.652.743,2.278,2.278,0,0,0,1.367-.4,2.05,2.05,0,0,0,.76-1.187l2.338.255a3.9,3.9,0,0,1-1.525,2.452A4.8,4.8,0,0,1,60.372,17.167Zm10.327,0a4.827,4.827,0,0,1-3.489-1.3,4.493,4.493,0,0,1-1.354-3.393,4.483,4.483,0,0,1,1.349-3.393,5.364,5.364,0,0,1,6.42-.422,3.885,3.885,0,0,1,1.512,2.452l-2.338.255a2,2,0,0,0-.756-1.187,2.3,2.3,0,0,0-1.371-.4,2.072,2.072,0,0,0-1.652.738,2.894,2.894,0,0,0-.633,1.951,2.9,2.9,0,0,0,.633,1.947,2.067,2.067,0,0,0,1.652.743,2.278,2.278,0,0,0,1.367-.4,2.05,2.05,0,0,0,.76-1.187l2.338.255a3.9,3.9,0,0,1-1.525,2.452A4.8,4.8,0,0,1,70.7,17.167ZM78.231,6.611a1.421,1.421,0,0,1-1.037-.426,1.4,1.4,0,0,1-.431-1.033A1.382,1.382,0,0,1,77.2,4.128,1.425,1.425,0,0,1,78.231,3.7a1.463,1.463,0,0,1,1.45,1.45,1.463,1.463,0,0,1-1.45,1.459ZM76.939,17V7.965h2.549V17Zm8.6-10.266,2.3-3.234,1.248.879-2,2.355Zm.782,10.441a5.681,5.681,0,0,1-2.558-.554A4.138,4.138,0,0,1,82.006,15a4.846,4.846,0,0,1-.637-2.522A4.42,4.42,0,0,1,82.74,9.046a5.731,5.731,0,0,1,7.163,0,4.42,4.42,0,0,1,1.371,3.428A4.444,4.444,0,0,1,89.9,15.915,5.088,5.088,0,0,1,86.317,17.176Zm-.026-2.013a2.319,2.319,0,0,0,1.789-.738,2.764,2.764,0,0,0,.681-1.951,2.764,2.764,0,0,0-.681-1.951,2.319,2.319,0,0,0-1.789-.738,2.234,2.234,0,0,0-1.736.743,2.789,2.789,0,0,0-.672,1.947,2.789,2.789,0,0,0,.672,1.947A2.234,2.234,0,0,0,86.291,15.163Zm12.2-7.374a3.522,3.522,0,0,1,2.5.813,3.014,3.014,0,0,1,.87,2.316V17h-2.54V11.463a1.574,1.574,0,0,0-.453-1.248,1.705,1.705,0,0,0-1.165-.4,2.379,2.379,0,0,0-.756.114,1.942,1.942,0,0,0-.633.356,1.573,1.573,0,0,0-.453.681,3.15,3.15,0,0,0-.171,1.046V17H93.155V7.965h2.531v1A3.481,3.481,0,0,1,98.49,7.789ZM24.029,28.3a3.822,3.822,0,0,1,2.927,1.182A4.112,4.112,0,0,1,28.063,32.4a4.011,4.011,0,0,1-1.1,2.9,3.891,3.891,0,0,1-2.936,1.138H21.383V41H18.747V28.3Zm-.439,5.941a1.938,1.938,0,0,0,1.45-.5,2.166,2.166,0,0,0,0-2.733,1.92,1.92,0,0,0-1.446-.505H21.383v3.735Zm8.78-.844a2.933,2.933,0,0,1,1.187-1.085,3.62,3.62,0,0,1,1.767-.453v2.259a3.423,3.423,0,0,0-2.162.545,2.379,2.379,0,0,0-.668,1.934V41H29.944V31.965H32.37Zm5.73-2.786a1.421,1.421,0,0,1-1.037-.426,1.4,1.4,0,0,1-.431-1.033,1.382,1.382,0,0,1,.435-1.024A1.425,1.425,0,0,1,38.1,27.7a1.455,1.455,0,0,1,0,2.909ZM36.808,41V31.965h2.549V41Zm15.873-9.211a3.452,3.452,0,0,1,2.329.734,2.626,2.626,0,0,1,.853,2.1V41H53.332V35.349a1.509,1.509,0,0,0-.4-1.143,1.416,1.416,0,0,0-1.02-.387,1.633,1.633,0,0,0-1.23.492A2.235,2.235,0,0,0,50.2,35.9V41H47.645V35.375a1.549,1.549,0,0,0-.4-1.165,1.441,1.441,0,0,0-1.046-.391,1.581,1.581,0,0,0-1.222.519,2.476,2.476,0,0,0-.475,1.7V41H41.976V31.965H44.5v1.063a3.072,3.072,0,0,1,2.619-1.239,3.863,3.863,0,0,1,1.7.347,2.315,2.315,0,0,1,1.068,1.006A3.2,3.2,0,0,1,52.681,31.789Zm13.052,6.759a8.453,8.453,0,0,0,.22,2.206V41H63.588l-.2-.984a2.938,2.938,0,0,1-1.266.87,4.664,4.664,0,0,1-1.635.29,4.3,4.3,0,0,1-.844-.079,2.868,2.868,0,0,1-.76-.268,2.307,2.307,0,0,1-.628-.47,2.062,2.062,0,0,1-.422-.716,2.853,2.853,0,0,1-.158-.98,2.718,2.718,0,0,1,.167-.98,2.3,2.3,0,0,1,.439-.734,2.666,2.666,0,0,1,.712-.536,5.447,5.447,0,0,1,.9-.387,10.712,10.712,0,0,1,1.072-.281l1.485-.334a1.638,1.638,0,0,0,.672-.286.57.57,0,0,0,.2-.453.932.932,0,0,0-.444-.87,2.072,2.072,0,0,0-1.077-.264,1.549,1.549,0,0,0-1.767,1.38l-2.241-.4a3.034,3.034,0,0,1,1.31-2.061,5.2,5.2,0,0,1,2.839-.664q3.8,0,3.8,3.261Zm-4.456.914a2.036,2.036,0,0,0,1.564-.655,2.759,2.759,0,0,0,.606-1.938l-2.145.606a2.534,2.534,0,0,0-.9.369.758.758,0,0,0-.312.65.842.842,0,0,0,.334.716A1.382,1.382,0,0,0,61.277,39.462ZM70.62,33.4a2.933,2.933,0,0,1,1.187-1.085,3.62,3.62,0,0,1,1.767-.453v2.259a3.423,3.423,0,0,0-2.162.545,2.379,2.379,0,0,0-.668,1.934V41H68.194V31.965H70.62Zm5.73-2.786a1.421,1.421,0,0,1-1.037-.426,1.4,1.4,0,0,1-.431-1.033,1.382,1.382,0,0,1,.435-1.024A1.425,1.425,0,0,1,76.35,27.7a1.455,1.455,0,0,1,0,2.909ZM75.058,41V31.965h2.549V41Zm12.577-2.452a8.453,8.453,0,0,0,.22,2.206V41H85.491l-.2-.984a2.938,2.938,0,0,1-1.266.87,4.664,4.664,0,0,1-1.635.29,4.3,4.3,0,0,1-.844-.079,2.868,2.868,0,0,1-.76-.268,2.307,2.307,0,0,1-.628-.47,2.062,2.062,0,0,1-.422-.716,2.853,2.853,0,0,1-.158-.98,2.718,2.718,0,0,1,.167-.98,2.3,2.3,0,0,1,.439-.734,2.666,2.666,0,0,1,.712-.536,5.447,5.447,0,0,1,.9-.387,10.712,10.712,0,0,1,1.072-.281l1.485-.334a1.638,1.638,0,0,0,.672-.286.57.57,0,0,0,.2-.453.932.932,0,0,0-.444-.87,2.072,2.072,0,0,0-1.077-.264,1.549,1.549,0,0,0-1.767,1.38l-2.241-.4A3.034,3.034,0,0,1,81,32.453a5.2,5.2,0,0,1,2.839-.664q3.8,0,3.8,3.261Zm-4.456.914a2.036,2.036,0,0,0,1.564-.655,2.759,2.759,0,0,0,.606-1.938l-2.145.606a2.534,2.534,0,0,0-.9.369.758.758,0,0,0-.312.65.842.842,0,0,0,.334.716A1.382,1.382,0,0,0,83.179,39.462Z" transform="matrix(1, 0, 0, 1, 158.678, 1111)" fill="#00223d"/>
      <g id="Grupo_5021" data-name="Grupo 5021" transform="translate(-30)">
        <circle id="Elipse_1358" data-name="Elipse 1358" cx="55.988" cy="55.988" r="55.988" transform="translate(186.695 969.895)" fill="#ffe082"/>
        <g id="Grupo_4897" data-name="Grupo 4897" transform="translate(173.182 918.651)">
          <g id="Grupo_4895" data-name="Grupo 4895">
            <path id="Trazado_13965" data-name="Trazado 13965" d="M69.5,175.913A68.7,68.7,0,1,1,118.066,58.665l-1.5,1.5a66.635,66.635,0,1,0,19.5,47.066V106.17h61.46a1.061,1.061,0,0,1,1.061,1.061h0a1.06,1.06,0,0,1-1.061,1.06H138.175A68.626,68.626,0,0,1,69.5,175.913Z" fill="#7fb2aa"/>
          </g>
          <g id="Grupo_4896" data-name="Grupo 4896">
            <path id="Trazado_13966" data-name="Trazado 13966" d="M190.831,115.131h0a1.061,1.061,0,0,1,.054-1.5l6.048-5.62a1.06,1.06,0,0,0,0-1.554l-6.048-5.622a1.061,1.061,0,0,1-.054-1.5h0a1.059,1.059,0,0,1,1.5-.054l7.718,7.177a1.06,1.06,0,0,1,0,1.554l-7.718,7.175A1.059,1.059,0,0,1,190.831,115.131Z" fill="#7fb2aa"/>
          </g>
        </g>
        <g id="Grupo_4899" data-name="Grupo 4899" transform="translate(113.182 979.651)">
          <path id="Trazado_13967" data-name="Trazado 13967" d="M129.373,58.921a15.6,15.6,0,0,1-15.581-15.58V30.332a.924.924,0,0,1,.924-.924h29.313a.924.924,0,0,1,.924.924V43.341A15.6,15.6,0,0,1,129.373,58.921ZM115.641,31.257V43.341a13.732,13.732,0,1,0,27.464,0V31.257Z" fill="#846e63"/>
          <path id="Trazado_13968" data-name="Trazado 13968" d="M144.744,44.9a4.355,4.355,0,0,1-.9-.108.924.924,0,0,1-.734-.9V33.7a.924.924,0,0,1,.735-.905,4.409,4.409,0,0,1,.9-.108c2.842,0,5.154,2.74,5.154,6.108S147.586,44.9,144.744,44.9Zm.209-10.358v8.5c1.726-.139,3.1-1.992,3.1-4.25S146.679,34.681,144.953,34.542Z" fill="#846e63"/>
          <path id="Trazado_13969" data-name="Trazado 13969" d="M114,44.9c-2.842,0-5.154-2.739-5.154-6.107s2.312-6.108,5.154-6.108a4.408,4.408,0,0,1,.9.108.924.924,0,0,1,.736.905v10.19a.924.924,0,0,1-.734.9A4.366,4.366,0,0,1,114,44.9Zm-.209-10.358c-1.726.139-3.1,1.993-3.1,4.251s1.371,4.111,3.1,4.25Z" fill="#846e63"/>
          <path id="Trazado_13970" data-name="Trazado 13970" d="M151.775,77.908a.925.925,0,0,1-.925-.925V72.008a6.9,6.9,0,0,0-6.89-6.89H114.786a6.9,6.9,0,0,0-6.891,6.89v4.975a.924.924,0,1,1-1.849,0V72.008a8.749,8.749,0,0,1,8.74-8.739H143.96a8.749,8.749,0,0,1,8.739,8.739v4.975A.925.925,0,0,1,151.775,77.908Z" fill="#846e63"/>
          <path id="Trazado_13971" data-name="Trazado 13971" d="M118.455,77.908a.925.925,0,0,1-.925-.925v-4.17a.924.924,0,1,1,1.849,0v4.17A.925.925,0,0,1,118.455,77.908Z" fill="#846e63"/>
          <path id="Trazado_13972" data-name="Trazado 13972" d="M140.291,77.908a.925.925,0,0,1-.925-.925v-4.17a.924.924,0,1,1,1.849,0v4.17A.925.925,0,0,1,140.291,77.908Z" fill="#846e63"/>
          <path id="Trazado_13973" data-name="Trazado 13973" d="M135.315,65.118H123.429a.925.925,0,0,1-.924-.925V56.731a.925.925,0,0,1,1.3-.845,13.719,13.719,0,0,0,11.135,0,.925.925,0,0,1,1.3.845v7.462A.925.925,0,0,1,135.315,65.118Zm-10.961-1.849h10.037V58.086a15.543,15.543,0,0,1-10.037,0Z" fill="#846e63"/>
          <path id="Trazado_13974" data-name="Trazado 13974" d="M151.8,31.257H106.942a2.737,2.737,0,0,1,0-5.474h9.116l1.509-9.269a7.027,7.027,0,0,1,6.961-5.919h1.136a.924.924,0,0,1,.924.924c0,.747,1.144,1.578,2.785,1.578s2.784-.831,2.784-1.578a.924.924,0,0,1,.924-.924h1.136a7.026,7.026,0,0,1,6.961,5.919l1.509,9.269H151.8a2.737,2.737,0,0,1,0,5.474Zm-44.861-3.625a.888.888,0,0,0,0,1.776H151.8a.888.888,0,0,0,0-1.776h-9.9a.924.924,0,0,1-.912-.776l-1.635-10.045a5.184,5.184,0,0,0-5.137-4.367h-.375c-.533,1.458-2.306,2.5-4.469,2.5s-3.936-1.043-4.469-2.5h-.376a5.183,5.183,0,0,0-5.136,4.367l-1.636,10.045a.923.923,0,0,1-.911.776Z" fill="#846e63"/>
          <path id="Trazado_13975" data-name="Trazado 13975" d="M136.523,27.632H116.845a.924.924,0,1,1,0-1.849h19.678a.924.924,0,0,1,0,1.849Z" fill="#846e63"/>
          <path id="Trazado_13976" data-name="Trazado 13976" d="M141.406,24.59H117.34a.925.925,0,0,1-.913-1.073l.463-2.838a.924.924,0,0,1,.912-.776h23.142a.925.925,0,0,1,.912.776l.462,2.838a.923.923,0,0,1-.912,1.073Zm-22.98-1.848h21.893l-.161-.991h-21.57Z" fill="#846e63"/>
        </g>
      </g>
    </g>
    <g id="Grupo_5023" data-name="Grupo 5023">
      <path id="Trazado_14336" data-name="Trazado 14336" d="M19.381,17.176a7.089,7.089,0,0,1-2.588-.466,6.087,6.087,0,0,1-2.061-1.3,5.864,5.864,0,0,1-1.354-2.065,7.2,7.2,0,0,1-.492-2.7A6.879,6.879,0,0,1,13.73,7.2a5.744,5.744,0,0,1,2.316-2.281,6.935,6.935,0,0,1,3.335-.791,6.739,6.739,0,0,1,3.727,1.028,5.629,5.629,0,0,1,2.276,2.83l-2.461.9a3.479,3.479,0,0,0-1.362-1.714,3.891,3.891,0,0,0-2.18-.615A3.73,3.73,0,0,0,16.6,7.657a4.075,4.075,0,0,0-1.09,2.988,4.081,4.081,0,0,0,1.094,2.993,3.726,3.726,0,0,0,2.773,1.112,3.876,3.876,0,0,0,2.175-.62,3.5,3.5,0,0,0,1.367-1.718l2.461.9a5.652,5.652,0,0,1-2.276,2.834A6.718,6.718,0,0,1,19.381,17.176Zm12.041,0a5.681,5.681,0,0,1-2.558-.554A4.138,4.138,0,0,1,27.111,15a4.846,4.846,0,0,1-.637-2.522,4.42,4.42,0,0,1,1.371-3.428,5.086,5.086,0,0,1,3.577-1.257,5.1,5.1,0,0,1,3.586,1.257,4.42,4.42,0,0,1,1.371,3.428,4.444,4.444,0,0,1-1.371,3.441A5.088,5.088,0,0,1,31.422,17.176ZM31.4,15.163a2.319,2.319,0,0,0,1.789-.738,2.764,2.764,0,0,0,.681-1.951,2.764,2.764,0,0,0-.681-1.951A2.319,2.319,0,0,0,31.4,9.784a2.234,2.234,0,0,0-1.736.743,2.789,2.789,0,0,0-.672,1.947,2.789,2.789,0,0,0,.672,1.947A2.234,2.234,0,0,0,31.4,15.163Zm10.046,2.013a5.049,5.049,0,0,1-2.637-.633,2.675,2.675,0,0,1-1.292-1.881l2.118-.6a1.7,1.7,0,0,0,1.811,1.345,1.87,1.87,0,0,0,.923-.207.719.719,0,0,0,.36-.7.739.739,0,0,0-.149-.466,1.183,1.183,0,0,0-.461-.334,5.749,5.749,0,0,0-.615-.237q-.3-.1-.8-.233t-.835-.259a5.593,5.593,0,0,1-.8-.338,3.393,3.393,0,0,1-.659-.466,1.878,1.878,0,0,1-.492-.708,2.552,2.552,0,0,1-.171-.967,2.308,2.308,0,0,1,.98-2.021,4.379,4.379,0,0,1,2.562-.686,4.489,4.489,0,0,1,2.364.58,2.625,2.625,0,0,1,1.213,1.811l-1.96.439a1.535,1.535,0,0,0-1.608-1.143,1.761,1.761,0,0,0-.888.2.649.649,0,0,0-.352.6.685.685,0,0,0,.053.272.539.539,0,0,0,.185.22,2.692,2.692,0,0,0,.255.167,1.923,1.923,0,0,0,.36.145q.237.075.4.114l.461.119.47.123q.483.132.848.264a4.967,4.967,0,0,1,.778.369,2.792,2.792,0,0,1,.681.532,2.372,2.372,0,0,1,.444.747,2.759,2.759,0,0,1,.176,1.006,2.718,2.718,0,0,1-.3,1.31,2.276,2.276,0,0,1-.831.883,4.043,4.043,0,0,1-1.173.475A6.087,6.087,0,0,1,41.442,17.176Zm14.036-4.825-.026.606h-6.7a2.339,2.339,0,0,0,.721,1.652,2.3,2.3,0,0,0,1.591.571,2.221,2.221,0,0,0,1.191-.312,1.918,1.918,0,0,0,.76-.91l2.32.343a3.945,3.945,0,0,1-1.582,2.118,4.7,4.7,0,0,1-2.672.756,4.891,4.891,0,0,1-3.52-1.244,4.538,4.538,0,0,1-1.305-3.45,4.565,4.565,0,0,1,1.31-3.45A4.746,4.746,0,0,1,51,7.771a4.536,4.536,0,0,1,3.243,1.151A4.517,4.517,0,0,1,55.478,12.351ZM51.022,9.564a2,2,0,0,0-2.2,1.74h4.148a1.9,1.9,0,0,0-.624-1.292A1.978,1.978,0,0,0,51.022,9.564Zm10.468,7.6A4.827,4.827,0,0,1,58,15.866a4.493,4.493,0,0,1-1.354-3.393A4.483,4.483,0,0,1,58,9.081a5.364,5.364,0,0,1,6.42-.422,3.885,3.885,0,0,1,1.512,2.452l-2.338.255a2,2,0,0,0-.756-1.187,2.3,2.3,0,0,0-1.371-.4,2.072,2.072,0,0,0-1.652.738,2.894,2.894,0,0,0-.633,1.951,2.9,2.9,0,0,0,.633,1.947,2.067,2.067,0,0,0,1.652.743,2.278,2.278,0,0,0,1.367-.4,2.05,2.05,0,0,0,.76-1.187l2.338.255A3.9,3.9,0,0,1,64.4,16.288,4.8,4.8,0,0,1,61.489,17.167ZM73.2,7.789a3.207,3.207,0,0,1,2.386.857,3.448,3.448,0,0,1,.848,2.527V17h-2.54V11.586a1.77,1.77,0,0,0-.448-1.349,1.684,1.684,0,0,0-1.2-.417,2.309,2.309,0,0,0-.708.105,2.024,2.024,0,0,0-.628.338,1.53,1.53,0,0,0-.47.681,3.129,3.129,0,0,0-.18,1.072V17H67.73V3.5h2.531V9.046A3.576,3.576,0,0,1,73.2,7.789Zm13.078,6.759a8.453,8.453,0,0,0,.22,2.206V17H84.13l-.2-.984a2.938,2.938,0,0,1-1.266.87,4.664,4.664,0,0,1-1.635.29,4.3,4.3,0,0,1-.844-.079,2.868,2.868,0,0,1-.76-.268,2.307,2.307,0,0,1-.628-.47,2.062,2.062,0,0,1-.422-.716,2.853,2.853,0,0,1-.158-.98,2.718,2.718,0,0,1,.167-.98,2.3,2.3,0,0,1,.439-.734,2.666,2.666,0,0,1,.712-.536,5.447,5.447,0,0,1,.9-.387,10.712,10.712,0,0,1,1.072-.281l1.485-.334a1.638,1.638,0,0,0,.672-.286.57.57,0,0,0,.2-.453.932.932,0,0,0-.444-.87,2.073,2.073,0,0,0-1.077-.264,1.549,1.549,0,0,0-1.767,1.38l-2.241-.4a3.034,3.034,0,0,1,1.31-2.061,5.2,5.2,0,0,1,2.839-.664q3.8,0,3.8,3.261Zm-4.456.914a2.036,2.036,0,0,0,1.564-.655,2.759,2.759,0,0,0,.606-1.938l-2.145.606a2.534,2.534,0,0,0-.9.369.758.758,0,0,0-.312.65.842.842,0,0,0,.334.716A1.382,1.382,0,0,0,81.819,15.462Zm17.508-7.5h2.593L96.347,21.254H93.78l2.065-4.623L92.128,7.965h2.76l2.153,5.941ZM12.534,28.3a3.822,3.822,0,0,1,2.927,1.182A4.112,4.112,0,0,1,16.569,32.4a4.011,4.011,0,0,1-1.1,2.9,3.891,3.891,0,0,1-2.936,1.138H9.889V41H7.252V28.3Zm-.439,5.941a1.938,1.938,0,0,0,1.45-.5,2.166,2.166,0,0,0,0-2.733,1.92,1.92,0,0,0-1.446-.505H9.889v3.735Zm10.257,6.935a5.681,5.681,0,0,1-2.558-.554A4.138,4.138,0,0,1,18.041,39a4.846,4.846,0,0,1-.637-2.522,4.42,4.42,0,0,1,1.371-3.428,5.086,5.086,0,0,1,3.577-1.257,5.1,5.1,0,0,1,3.586,1.257,4.42,4.42,0,0,1,1.371,3.428,4.444,4.444,0,0,1-1.371,3.441A5.088,5.088,0,0,1,22.352,41.176Zm-.026-2.013a2.319,2.319,0,0,0,1.789-.738,3.135,3.135,0,0,0,0-3.9,2.319,2.319,0,0,0-1.789-.738,2.234,2.234,0,0,0-1.736.743,3.155,3.155,0,0,0,0,3.894A2.234,2.234,0,0,0,22.325,39.163Zm10.046,2.013a5.049,5.049,0,0,1-2.637-.633,2.675,2.675,0,0,1-1.292-1.881l2.118-.6a1.7,1.7,0,0,0,1.811,1.345,1.87,1.87,0,0,0,.923-.207.719.719,0,0,0,.36-.7.739.739,0,0,0-.149-.466,1.183,1.183,0,0,0-.461-.334,5.749,5.749,0,0,0-.615-.237q-.3-.1-.8-.233t-.835-.259a5.593,5.593,0,0,1-.8-.338,3.393,3.393,0,0,1-.659-.466,1.878,1.878,0,0,1-.492-.708,2.552,2.552,0,0,1-.171-.967,2.308,2.308,0,0,1,.98-2.021,4.379,4.379,0,0,1,2.562-.686,4.489,4.489,0,0,1,2.364.58A2.625,2.625,0,0,1,35.79,34.18l-1.96.439a1.535,1.535,0,0,0-1.608-1.143,1.761,1.761,0,0,0-.888.2.649.649,0,0,0-.352.6.685.685,0,0,0,.053.272.539.539,0,0,0,.185.22,2.692,2.692,0,0,0,.255.167,1.923,1.923,0,0,0,.36.145q.237.075.4.114l.461.119.47.123q.483.132.848.264a4.967,4.967,0,0,1,.778.369,2.792,2.792,0,0,1,.681.532,2.372,2.372,0,0,1,.444.747,2.759,2.759,0,0,1,.176,1.006,2.718,2.718,0,0,1-.3,1.31,2.276,2.276,0,0,1-.831.883,4.043,4.043,0,0,1-1.173.475A6.087,6.087,0,0,1,32.371,41.176ZM42,41.167a4.827,4.827,0,0,1-3.489-1.3,4.934,4.934,0,0,1,0-6.785,5.364,5.364,0,0,1,6.42-.422,3.885,3.885,0,0,1,1.512,2.452l-2.338.255a2,2,0,0,0-.756-1.187,2.3,2.3,0,0,0-1.371-.4,2.072,2.072,0,0,0-1.652.738,3.318,3.318,0,0,0,0,3.9,2.067,2.067,0,0,0,1.652.743,2.278,2.278,0,0,0,1.367-.4,2.05,2.05,0,0,0,.76-1.187l2.338.255a3.9,3.9,0,0,1-1.525,2.452A4.8,4.8,0,0,1,42,41.167Zm10.45.009a5.681,5.681,0,0,1-2.558-.554A4.138,4.138,0,0,1,48.134,39a4.846,4.846,0,0,1-.637-2.522,4.42,4.42,0,0,1,1.371-3.428,5.731,5.731,0,0,1,7.163,0A4.42,4.42,0,0,1,57.4,36.474a4.444,4.444,0,0,1-1.371,3.441A5.088,5.088,0,0,1,52.446,41.176Zm-.026-2.013a2.319,2.319,0,0,0,1.789-.738,3.135,3.135,0,0,0,0-3.9,2.319,2.319,0,0,0-1.789-.738,2.234,2.234,0,0,0-1.736.743,3.155,3.155,0,0,0,0,3.894A2.234,2.234,0,0,0,52.419,39.163Zm10.046,2.013a5.049,5.049,0,0,1-2.637-.633,2.675,2.675,0,0,1-1.292-1.881l2.118-.6a1.7,1.7,0,0,0,1.811,1.345,1.87,1.87,0,0,0,.923-.207.719.719,0,0,0,.36-.7.739.739,0,0,0-.149-.466,1.183,1.183,0,0,0-.461-.334,5.749,5.749,0,0,0-.615-.237q-.3-.1-.8-.233t-.835-.259a5.593,5.593,0,0,1-.8-.338,3.393,3.393,0,0,1-.659-.466,1.878,1.878,0,0,1-.492-.708,2.552,2.552,0,0,1-.171-.967,2.308,2.308,0,0,1,.98-2.021,4.379,4.379,0,0,1,2.562-.686,4.489,4.489,0,0,1,2.364.58,2.625,2.625,0,0,1,1.213,1.811l-1.96.439a1.535,1.535,0,0,0-1.608-1.143,1.761,1.761,0,0,0-.888.2.649.649,0,0,0-.352.6.685.685,0,0,0,.053.272.539.539,0,0,0,.185.22,2.692,2.692,0,0,0,.255.167,1.923,1.923,0,0,0,.36.145q.237.075.4.114l.461.119.47.123q.483.132.848.264a4.967,4.967,0,0,1,.778.369,2.792,2.792,0,0,1,.681.532,2.372,2.372,0,0,1,.444.747,2.759,2.759,0,0,1,.176,1.006,2.718,2.718,0,0,1-.3,1.31,2.276,2.276,0,0,1-.831.883,4.043,4.043,0,0,1-1.173.475A6.087,6.087,0,0,1,62.465,41.176ZM76.5,36.351l-.026.606h-6.7a2.339,2.339,0,0,0,.721,1.652,2.3,2.3,0,0,0,1.591.571,2.221,2.221,0,0,0,1.191-.312,1.918,1.918,0,0,0,.76-.91l2.32.343a3.945,3.945,0,0,1-1.582,2.118,4.7,4.7,0,0,1-2.672.756,4.891,4.891,0,0,1-3.52-1.244,4.538,4.538,0,0,1-1.305-3.45,4.565,4.565,0,0,1,1.31-3.45,4.746,4.746,0,0,1,3.437-1.261A4.136,4.136,0,0,1,76.5,36.351Zm-4.456-2.786a2,2,0,0,0-2.2,1.74H74a1.9,1.9,0,0,0-.624-1.292A1.978,1.978,0,0,0,72.045,33.564Zm10.468,7.6a4.827,4.827,0,0,1-3.489-1.3,4.934,4.934,0,0,1,0-6.785,5.364,5.364,0,0,1,6.42-.422,3.885,3.885,0,0,1,1.512,2.452l-2.338.255a2,2,0,0,0-.756-1.187,2.3,2.3,0,0,0-1.371-.4,2.072,2.072,0,0,0-1.652.738,3.318,3.318,0,0,0,0,3.9,2.067,2.067,0,0,0,1.652.743,2.278,2.278,0,0,0,1.367-.4,2.05,2.05,0,0,0,.76-1.187l2.338.255a3.9,3.9,0,0,1-1.525,2.452A4.8,4.8,0,0,1,82.513,41.167ZM94.22,31.789a3.207,3.207,0,0,1,2.386.857,3.448,3.448,0,0,1,.848,2.527V41h-2.54V35.586a1.77,1.77,0,0,0-.448-1.349,1.684,1.684,0,0,0-1.2-.417,2.309,2.309,0,0,0-.708.105,2.024,2.024,0,0,0-.628.338,1.53,1.53,0,0,0-.47.681,3.129,3.129,0,0,0-.18,1.072V41H88.753V27.5h2.531v5.546A3.576,3.576,0,0,1,94.22,31.789ZM107.3,38.548a8.453,8.453,0,0,0,.22,2.206V41h-2.364l-.2-.984a2.938,2.938,0,0,1-1.266.87,4.664,4.664,0,0,1-1.635.29,4.3,4.3,0,0,1-.844-.079,2.868,2.868,0,0,1-.76-.268,2.307,2.307,0,0,1-.628-.47,2.062,2.062,0,0,1-.422-.716,2.853,2.853,0,0,1-.158-.98,2.718,2.718,0,0,1,.167-.98,2.3,2.3,0,0,1,.439-.734,2.666,2.666,0,0,1,.712-.536,5.447,5.447,0,0,1,.9-.387,10.712,10.712,0,0,1,1.072-.281l1.485-.334a1.638,1.638,0,0,0,.672-.286.57.57,0,0,0,.2-.453.932.932,0,0,0-.444-.87,2.072,2.072,0,0,0-1.077-.264,1.549,1.549,0,0,0-1.767,1.38l-2.241-.4a3.034,3.034,0,0,1,1.31-2.061,5.2,5.2,0,0,1,2.839-.664q3.8,0,3.8,3.261Zm-4.456.914a2.036,2.036,0,0,0,1.564-.655,2.759,2.759,0,0,0,.606-1.938l-2.145.606a2.534,2.534,0,0,0-.9.369.758.758,0,0,0-.312.65.842.842,0,0,0,.334.716A1.382,1.382,0,0,0,102.842,39.462Z" transform="matrix(1, 0, 0, 1, 372.019, 1113)" fill="#00223d"/>
      <g id="Grupo_5020" data-name="Grupo 5020" transform="translate(-17.16)">
        <circle id="Elipse_1360" data-name="Elipse 1360" cx="55.988" cy="55.988" r="55.988" transform="translate(386.855 969.895)" fill="#ffe082"/>
        <g id="Grupo_4902" data-name="Grupo 4902" transform="translate(173.182 918.651)">
          <g id="Grupo_4900" data-name="Grupo 4900">
            <path id="Trazado_13977" data-name="Trazado 13977" d="M269.661,175.913A68.7,68.7,0,1,1,318.226,58.665l-1.5,1.5a66.634,66.634,0,1,0,19.5,47.066V106.17h61.46a1.06,1.06,0,0,1,1.06,1.061h0a1.059,1.059,0,0,1-1.06,1.06H338.335a68.626,68.626,0,0,1-68.674,67.622Z" fill="#7fb2aa"/>
          </g>
          <g id="Grupo_4901" data-name="Grupo 4901">
            <path id="Trazado_13978" data-name="Trazado 13978" d="M390.992,115.131h0a1.061,1.061,0,0,1,.055-1.5l6.048-5.62a1.062,1.062,0,0,0,0-1.554l-6.049-5.622a1.062,1.062,0,0,1-.054-1.5h0a1.061,1.061,0,0,1,1.5-.054l7.718,7.177a1.062,1.062,0,0,1,0,1.554l-7.718,7.175A1.059,1.059,0,0,1,390.992,115.131Z" fill="#7fb2aa"/>
          </g>
        </g>
        <g id="Grupo_4905" data-name="Grupo 4905" transform="translate(113.182 984.651)">
          <g id="Grupo_4904" data-name="Grupo 4904">
            <path id="Trazado_13979" data-name="Trazado 13979" d="M324.293,67.963a153.146,153.146,0,0,1-28.25-1.552,1.2,1.2,0,0,1-1.037-1.283,1.224,1.224,0,0,1,1.22-1.112c.462.01,45.538.361,54.78-35.954a1.2,1.2,0,0,1,1.584-.831l4.966,1.837a1.207,1.207,0,0,1,.691.662c.251.6,6.05,14.756-2.482,25.885C350.073,63.04,339.53,67.165,324.293,67.963Zm-16.137-2.686c23.079,1.682,38.764-2.1,45.687-11.109,6.869-8.944,3.254-20.563,2.364-23.034l-3.215-1.189C345.934,54.891,322.631,62.785,308.156,65.277Z" fill="#846e63"/>
            <path id="Trazado_13980" data-name="Trazado 13980" d="M310.06,67.79l-.264.013a1.2,1.2,0,0,1-.109-2.4l.088,0c1.655-.087,30.8-1.931,39.949-22.6a1.2,1.2,0,0,1,2.2.975C342.306,65.485,313.359,67.617,310.06,67.79Z" fill="#846e63"/>
            <path id="Trazado_13981" data-name="Trazado 13981" d="M358.346,24.616a1.184,1.184,0,0,1-.441-.059l-5.552-1.84a1.2,1.2,0,1,1,.755-2.284l5.553,1.84a1.2,1.2,0,0,1-.315,2.343Z" fill="#846e63"/>
          </g>
          <path id="Trazado_13982" data-name="Trazado 13982" d="M327.216,13.617a1.2,1.2,0,0,0-.185.962c4.1,17.539-3.058,31.369-11.64,41.029,1.235-.286,2.6-.653,4.071-1.122,7.71-9.677,13.556-22.829,10.2-39.15l3.4-.426c1.927,1.784,10.488,10.433,8.509,21.535a21.2,21.2,0,0,1-2.093,6.019,48.031,48.031,0,0,0,4.314-4.924c.049-.232.11-.462.152-.695,2.448-13.809-9.221-23.706-9.719-24.12a1.2,1.2,0,0,0-.918-.269l-5.254.655A1.2,1.2,0,0,0,327.216,13.617Z" fill="#846e63"/>
          <path id="Trazado_13983" data-name="Trazado 13983" d="M334.13,46.035l-2.152-1.076c3.734-7.473,2.332-18.634,2.318-18.746l2.385-.312C336.746,26.386,338.2,37.9,334.13,46.035Z" fill="#846e63"/>
          <rect id="Rectángulo_1422" data-name="Rectángulo 1422" width="7.092" height="2.407" transform="translate(325.861 9.36) rotate(-9.895)" fill="#846e63"/>
        </g>
      </g>
    </g>
    <g id="Grupo_5024" data-name="Grupo 5024">
      <path id="Trazado_14335" data-name="Trazado 14335" d="M27.994,4.3a3.822,3.822,0,0,1,2.927,1.182A4.112,4.112,0,0,1,32.028,8.4a4.011,4.011,0,0,1-1.1,2.9,3.891,3.891,0,0,1-2.936,1.138H25.348V17H22.712V4.3Zm-.439,5.941a1.938,1.938,0,0,0,1.45-.5,1.888,1.888,0,0,0,.483-1.375A1.873,1.873,0,0,0,29,7.011a1.92,1.92,0,0,0-1.446-.505H25.348v3.735Zm8.78-.844a2.933,2.933,0,0,1,1.187-1.085,3.62,3.62,0,0,1,1.767-.453v2.259a3.423,3.423,0,0,0-2.162.545,2.379,2.379,0,0,0-.668,1.934V17H33.909V7.965h2.426Zm8.6,7.778a5.681,5.681,0,0,1-2.558-.554A4.138,4.138,0,0,1,40.619,15a4.846,4.846,0,0,1-.637-2.522,4.42,4.42,0,0,1,1.371-3.428A5.086,5.086,0,0,1,44.93,7.789a5.1,5.1,0,0,1,3.586,1.257,4.42,4.42,0,0,1,1.371,3.428,4.444,4.444,0,0,1-1.371,3.441A5.088,5.088,0,0,1,44.93,17.176ZM44.9,15.163a2.319,2.319,0,0,0,1.789-.738,2.764,2.764,0,0,0,.681-1.951,2.764,2.764,0,0,0-.681-1.951A2.319,2.319,0,0,0,44.9,9.784a2.234,2.234,0,0,0-1.736.743,2.789,2.789,0,0,0-.672,1.947,2.789,2.789,0,0,0,.672,1.947A2.234,2.234,0,0,0,44.9,15.163Zm10.951,2a4.827,4.827,0,0,1-3.489-1.3,4.493,4.493,0,0,1-1.354-3.393,4.483,4.483,0,0,1,1.349-3.393,5.364,5.364,0,0,1,6.42-.422,3.885,3.885,0,0,1,1.512,2.452l-2.338.255A2,2,0,0,0,57.2,10.18a2.3,2.3,0,0,0-1.371-.4,2.072,2.072,0,0,0-1.652.738,2.894,2.894,0,0,0-.633,1.951,2.9,2.9,0,0,0,.633,1.947,2.067,2.067,0,0,0,1.652.743,2.278,2.278,0,0,0,1.367-.4,2.05,2.05,0,0,0,.76-1.187l2.338.255a3.9,3.9,0,0,1-1.525,2.452A4.8,4.8,0,0,1,55.855,17.167Zm14.739-4.816-.026.606h-6.7a2.339,2.339,0,0,0,.721,1.652,2.3,2.3,0,0,0,1.591.571,2.221,2.221,0,0,0,1.191-.312,1.918,1.918,0,0,0,.76-.91l2.32.343a3.945,3.945,0,0,1-1.582,2.118,4.7,4.7,0,0,1-2.672.756,4.891,4.891,0,0,1-3.52-1.244,4.538,4.538,0,0,1-1.305-3.45,4.565,4.565,0,0,1,1.31-3.45,4.746,4.746,0,0,1,3.437-1.261,4.536,4.536,0,0,1,3.243,1.151A4.517,4.517,0,0,1,70.594,12.351ZM66.138,9.564a2,2,0,0,0-2.2,1.74H68.09a1.9,1.9,0,0,0-.624-1.292A1.978,1.978,0,0,0,66.138,9.564ZM75.7,17.176a5.049,5.049,0,0,1-2.637-.633,2.675,2.675,0,0,1-1.292-1.881l2.118-.6A1.7,1.7,0,0,0,75.7,15.409a1.87,1.87,0,0,0,.923-.207.719.719,0,0,0,.36-.7.739.739,0,0,0-.149-.466,1.183,1.183,0,0,0-.461-.334,5.749,5.749,0,0,0-.615-.237q-.3-.1-.8-.233t-.835-.259a5.593,5.593,0,0,1-.8-.338,3.393,3.393,0,0,1-.659-.466,1.878,1.878,0,0,1-.492-.708A2.552,2.552,0,0,1,72,10.5a2.308,2.308,0,0,1,.98-2.021,4.379,4.379,0,0,1,2.562-.686,4.489,4.489,0,0,1,2.364.58A2.625,2.625,0,0,1,79.12,10.18l-1.96.439a1.535,1.535,0,0,0-1.608-1.143,1.761,1.761,0,0,0-.888.2.649.649,0,0,0-.352.6.685.685,0,0,0,.053.272.539.539,0,0,0,.185.22,2.692,2.692,0,0,0,.255.167,1.923,1.923,0,0,0,.36.145q.237.075.4.114l.461.119.47.123q.483.132.848.264a4.967,4.967,0,0,1,.778.369,2.792,2.792,0,0,1,.681.532,2.372,2.372,0,0,1,.444.747,2.759,2.759,0,0,1,.176,1.006,2.718,2.718,0,0,1-.3,1.31,2.276,2.276,0,0,1-.831.883,4.043,4.043,0,0,1-1.173.475A6.087,6.087,0,0,1,75.7,17.176Zm9.747,0a5.681,5.681,0,0,1-2.558-.554A4.138,4.138,0,0,1,81.137,15a4.846,4.846,0,0,1-.637-2.522,4.42,4.42,0,0,1,1.371-3.428,5.731,5.731,0,0,1,7.163,0A4.42,4.42,0,0,1,90.4,12.474a4.444,4.444,0,0,1-1.371,3.441A5.088,5.088,0,0,1,85.448,17.176Zm-.026-2.013a2.319,2.319,0,0,0,1.789-.738,2.764,2.764,0,0,0,.681-1.951,2.764,2.764,0,0,0-.681-1.951,2.319,2.319,0,0,0-1.789-.738,2.234,2.234,0,0,0-1.736.743,2.789,2.789,0,0,0-.672,1.947,2.789,2.789,0,0,0,.672,1.947A2.234,2.234,0,0,0,85.422,15.163ZM103.369,3.5H105.9V17h-2.4l-.062-1.178a2.58,2.58,0,0,1-1.147,1.024,3.861,3.861,0,0,1-1.692.365,4.394,4.394,0,0,1-1.688-.325,4.064,4.064,0,0,1-2.32-2.408A5.5,5.5,0,0,1,96.25,12.5a5.137,5.137,0,0,1,.6-2.518,4.1,4.1,0,0,1,1.578-1.639,4.345,4.345,0,0,1,2.175-.554,3.957,3.957,0,0,1,1.639.33,2.559,2.559,0,0,1,1.129.936ZM101.18,15.11a2.253,2.253,0,0,0,1.709-.721,2.638,2.638,0,0,0,.681-1.89,2.644,2.644,0,0,0-.686-1.894,2.251,2.251,0,0,0-1.705-.725,2.277,2.277,0,0,0-1.718.712,2.644,2.644,0,0,0-.681,1.907,2.631,2.631,0,0,0,.681,1.9A2.277,2.277,0,0,0,101.18,15.11Zm15.838-2.76-.026.606h-6.7a2.339,2.339,0,0,0,.721,1.652,2.3,2.3,0,0,0,1.591.571,2.221,2.221,0,0,0,1.191-.312,1.918,1.918,0,0,0,.76-.91l2.32.343A3.945,3.945,0,0,1,115.3,16.42a4.7,4.7,0,0,1-2.672.756,4.891,4.891,0,0,1-3.52-1.244,4.538,4.538,0,0,1-1.305-3.45,4.565,4.565,0,0,1,1.31-3.45,4.746,4.746,0,0,1,3.437-1.261,4.536,4.536,0,0,1,3.243,1.151A4.517,4.517,0,0,1,117.018,12.351Zm-4.456-2.786a2,2,0,0,0-2.2,1.74h4.148a1.9,1.9,0,0,0-.624-1.292A1.978,1.978,0,0,0,112.562,9.564ZM8.192,41a2.729,2.729,0,0,1-2.039-.734,2.854,2.854,0,0,1-.721-2.087V33.907H3.657V31.965h.571a1.491,1.491,0,0,0,1.125-.378,1.946,1.946,0,0,0,.36-1.345v-1.2H8v2.918H9.862v1.942H8v4q0,1.169,1.046,1.169h.817V41Zm6.056-7.6a2.933,2.933,0,0,1,1.187-1.085,3.62,3.62,0,0,1,1.767-.453v2.259a3.423,3.423,0,0,0-2.162.545,2.379,2.379,0,0,0-.668,1.934V41H11.822V31.965h2.426Zm11.795,5.15a8.453,8.453,0,0,0,.22,2.206V41H23.9l-.2-.984a2.938,2.938,0,0,1-1.266.87,4.664,4.664,0,0,1-1.635.29,4.3,4.3,0,0,1-.844-.079,2.868,2.868,0,0,1-.76-.268,2.307,2.307,0,0,1-.628-.47,2.062,2.062,0,0,1-.422-.716,2.853,2.853,0,0,1-.158-.98,2.718,2.718,0,0,1,.167-.98,2.3,2.3,0,0,1,.439-.734,2.666,2.666,0,0,1,.712-.536,5.447,5.447,0,0,1,.9-.387,10.712,10.712,0,0,1,1.072-.281l1.485-.334a1.638,1.638,0,0,0,.672-.286.57.57,0,0,0,.2-.453.932.932,0,0,0-.444-.87,2.072,2.072,0,0,0-1.077-.264,1.549,1.549,0,0,0-1.767,1.38l-2.241-.4a3.034,3.034,0,0,1,1.31-2.061,5.2,5.2,0,0,1,2.839-.664q3.8,0,3.8,3.261Zm-4.456.914a2.036,2.036,0,0,0,1.564-.655,2.759,2.759,0,0,0,.606-1.938l-2.145.606a2.534,2.534,0,0,0-.9.369.758.758,0,0,0-.312.65.842.842,0,0,0,.334.716A1.382,1.382,0,0,0,21.587,39.462Zm12.252-7.673a3.522,3.522,0,0,1,2.5.813,3.014,3.014,0,0,1,.87,2.316V41h-2.54V35.463a1.574,1.574,0,0,0-.453-1.248,1.705,1.705,0,0,0-1.165-.4,2.379,2.379,0,0,0-.756.114,1.942,1.942,0,0,0-.633.356,1.573,1.573,0,0,0-.453.681,3.15,3.15,0,0,0-.171,1.046V41H28.5V31.965h2.531v1A3.481,3.481,0,0,1,33.839,31.789Zm9,9.387a5.049,5.049,0,0,1-2.637-.633,2.675,2.675,0,0,1-1.292-1.881l2.118-.6a1.7,1.7,0,0,0,1.811,1.345,1.87,1.87,0,0,0,.923-.207.719.719,0,0,0,.36-.7.739.739,0,0,0-.149-.466,1.183,1.183,0,0,0-.461-.334,5.749,5.749,0,0,0-.615-.237q-.3-.1-.8-.233t-.835-.259a5.593,5.593,0,0,1-.8-.338,3.393,3.393,0,0,1-.659-.466,1.878,1.878,0,0,1-.492-.708,2.552,2.552,0,0,1-.171-.967,2.308,2.308,0,0,1,.98-2.021,4.379,4.379,0,0,1,2.562-.686,4.489,4.489,0,0,1,2.364.58,2.625,2.625,0,0,1,1.213,1.811l-1.96.439a1.535,1.535,0,0,0-1.608-1.143,1.761,1.761,0,0,0-.888.2.649.649,0,0,0-.352.6.685.685,0,0,0,.053.272.539.539,0,0,0,.185.22,2.692,2.692,0,0,0,.255.167,1.923,1.923,0,0,0,.36.145q.237.075.4.114l.461.119.47.123q.483.132.848.264a4.967,4.967,0,0,1,.778.369,2.792,2.792,0,0,1,.681.532,2.372,2.372,0,0,1,.444.747,2.759,2.759,0,0,1,.176,1.006,2.718,2.718,0,0,1-.3,1.31,2.276,2.276,0,0,1-.831.883,4.043,4.043,0,0,1-1.173.475A6.087,6.087,0,0,1,42.839,41.176ZM53.473,29.521h-.053q-.246,0-.374,0t-.36.031a1.459,1.459,0,0,0-.365.079,1.859,1.859,0,0,0-.3.163.809.809,0,0,0-.264.264,1.593,1.593,0,0,0-.158.391,2.042,2.042,0,0,0-.066.545v.967h1.942v1.942H51.531V41H49.009V33.907H47.242V31.965h1.767v-.976a5.284,5.284,0,0,1,.114-1.151,3.5,3.5,0,0,1,.308-.875,2.047,2.047,0,0,1,.514-.628,3.034,3.034,0,0,1,.668-.422,3.817,3.817,0,0,1,.831-.255,7.285,7.285,0,0,1,.954-.127q.47-.031,1.077-.031Zm5.607,11.654a5.681,5.681,0,0,1-2.558-.554A4.138,4.138,0,0,1,54.77,39a4.846,4.846,0,0,1-.637-2.522A4.42,4.42,0,0,1,55.5,33.046a5.731,5.731,0,0,1,7.163,0,4.42,4.42,0,0,1,1.371,3.428,4.444,4.444,0,0,1-1.371,3.441A5.088,5.088,0,0,1,59.081,41.176Zm-.026-2.013a2.319,2.319,0,0,0,1.789-.738,3.135,3.135,0,0,0,0-3.9,2.319,2.319,0,0,0-1.789-.738,2.234,2.234,0,0,0-1.736.743,3.155,3.155,0,0,0,0,3.894A2.234,2.234,0,0,0,59.054,39.163Zm9.29-5.766a2.933,2.933,0,0,1,1.187-1.085,3.62,3.62,0,0,1,1.767-.453v2.259a3.423,3.423,0,0,0-2.162.545,2.379,2.379,0,0,0-.668,1.934V41H65.919V31.965h2.426Zm15.144-1.608a3.452,3.452,0,0,1,2.329.734,2.626,2.626,0,0,1,.853,2.1V41H84.138V35.349a1.509,1.509,0,0,0-.4-1.143,1.416,1.416,0,0,0-1.02-.387,1.633,1.633,0,0,0-1.23.492,2.235,2.235,0,0,0-.475,1.591V41H78.452V35.375a1.549,1.549,0,0,0-.4-1.165A1.441,1.441,0,0,0,77,33.819a1.581,1.581,0,0,0-1.222.519,2.476,2.476,0,0,0-.475,1.7V41H72.783V31.965h2.522v1.063a3.072,3.072,0,0,1,2.619-1.239,3.863,3.863,0,0,1,1.7.347,2.315,2.315,0,0,1,1.068,1.006A3.2,3.2,0,0,1,83.488,31.789ZM96.54,38.548a8.453,8.453,0,0,0,.22,2.206V41H94.4l-.2-.984a2.938,2.938,0,0,1-1.266.87,4.664,4.664,0,0,1-1.635.29,4.3,4.3,0,0,1-.844-.079,2.868,2.868,0,0,1-.76-.268,2.307,2.307,0,0,1-.628-.47,2.062,2.062,0,0,1-.422-.716,2.853,2.853,0,0,1-.158-.98,2.718,2.718,0,0,1,.167-.98,2.3,2.3,0,0,1,.439-.734,2.666,2.666,0,0,1,.712-.536,5.447,5.447,0,0,1,.9-.387,10.712,10.712,0,0,1,1.072-.281l1.485-.334a1.638,1.638,0,0,0,.672-.286.57.57,0,0,0,.2-.453.932.932,0,0,0-.444-.87,2.072,2.072,0,0,0-1.077-.264,1.549,1.549,0,0,0-1.767,1.38l-2.241-.4a3.034,3.034,0,0,1,1.31-2.061,5.2,5.2,0,0,1,2.839-.664q3.8,0,3.8,3.261Zm-4.456.914a2.036,2.036,0,0,0,1.564-.655,2.759,2.759,0,0,0,.606-1.938l-2.145.606a2.534,2.534,0,0,0-.9.369.758.758,0,0,0-.312.65.842.842,0,0,0,.334.716A1.382,1.382,0,0,0,92.084,39.462Zm10.8,1.705a4.827,4.827,0,0,1-3.489-1.3,4.934,4.934,0,0,1,0-6.785,5.364,5.364,0,0,1,6.42-.422,3.885,3.885,0,0,1,1.512,2.452l-2.338.255a2,2,0,0,0-.756-1.187,2.3,2.3,0,0,0-1.371-.4,2.072,2.072,0,0,0-1.652.738,3.318,3.318,0,0,0,0,3.9,2.067,2.067,0,0,0,1.652.743,2.278,2.278,0,0,0,1.367-.4,2.05,2.05,0,0,0,.76-1.187l2.338.255a3.9,3.9,0,0,1-1.525,2.452A4.8,4.8,0,0,1,102.885,41.167Zm7.532-10.556a1.421,1.421,0,0,1-1.037-.426,1.4,1.4,0,0,1-.431-1.033,1.382,1.382,0,0,1,.435-1.024,1.425,1.425,0,0,1,1.033-.426,1.455,1.455,0,0,1,0,2.909ZM109.126,41V31.965h2.549V41Zm8.6-10.266,2.3-3.234,1.248.879-2,2.355Zm.782,10.441a5.681,5.681,0,0,1-2.558-.554A4.138,4.138,0,0,1,114.193,39a4.846,4.846,0,0,1-.637-2.522,4.42,4.42,0,0,1,1.371-3.428,5.731,5.731,0,0,1,7.163,0,4.42,4.42,0,0,1,1.371,3.428,4.444,4.444,0,0,1-1.371,3.441A5.088,5.088,0,0,1,118.5,41.176Zm-.026-2.013a2.319,2.319,0,0,0,1.789-.738,3.135,3.135,0,0,0,0-3.9,2.319,2.319,0,0,0-1.789-.738,2.234,2.234,0,0,0-1.736.743,3.155,3.155,0,0,0,0,3.894A2.234,2.234,0,0,0,118.477,39.163Zm12.2-7.374a3.522,3.522,0,0,1,2.5.813,3.014,3.014,0,0,1,.87,2.316V41H131.5V35.463a1.574,1.574,0,0,0-.453-1.248,1.705,1.705,0,0,0-1.165-.4,2.379,2.379,0,0,0-.756.114,1.942,1.942,0,0,0-.633.356,1.573,1.573,0,0,0-.453.681,3.15,3.15,0,0,0-.171,1.046V41h-2.531V31.965h2.531v1A3.481,3.481,0,0,1,130.676,31.789Z" transform="matrix(1, 0, 0, 1, 580.02, 1112)" fill="#00223d"/>
      <g id="Grupo_5019" data-name="Grupo 5019" transform="translate(-3.321)">
        <circle id="Elipse_1362" data-name="Elipse 1362" cx="55.988" cy="55.988" r="55.988" transform="translate(587.016 969.895)" fill="#ffe082"/>
        <g id="Grupo_4908" data-name="Grupo 4908" transform="translate(173.182 918.651)">
          <g id="Grupo_4906" data-name="Grupo 4906">
            <path id="Trazado_13984" data-name="Trazado 13984" d="M469.821,175.913A68.7,68.7,0,1,1,518.387,58.665l-1.5,1.5a66.63,66.63,0,1,0,19.5,47.066V106.17h61.459a1.061,1.061,0,0,1,1.061,1.061h0a1.06,1.06,0,0,1-1.061,1.06H538.5a68.626,68.626,0,0,1-68.675,67.622Z" fill="#7fb2aa"/>
          </g>
          <g id="Grupo_4907" data-name="Grupo 4907">
            <path id="Trazado_13985" data-name="Trazado 13985" d="M591.152,115.131h0a1.061,1.061,0,0,1,.054-1.5l6.048-5.62a1.06,1.06,0,0,0,0-1.554l-6.048-5.622a1.061,1.061,0,0,1-.054-1.5h0a1.059,1.059,0,0,1,1.5-.054l7.719,7.177a1.061,1.061,0,0,1,0,1.554l-7.718,7.175A1.059,1.059,0,0,1,591.152,115.131Z" fill="#7fb2aa"/>
          </g>
        </g>
        <g id="Grupo_4910" data-name="Grupo 4910" transform="translate(111.382 980.651)">
          <path id="Trazado_13986" data-name="Trazado 13986" d="M547.474,79.682H515.023a7.665,7.665,0,0,1-7.656-7.657V68.054a.924.924,0,0,1,1.849,0v3.971a5.814,5.814,0,0,0,5.807,5.808h32.451a5.814,5.814,0,0,0,5.808-5.808v-23.2a.924.924,0,0,1,1.849,0v23.2A7.666,7.666,0,0,1,547.474,79.682Z" fill="#846e63"/>
          <path id="Trazado_13987" data-name="Trazado 13987" d="M508.291,63.6a.924.924,0,0,1-.924-.924V35.442a.925.925,0,0,1,1.193-.884,7.348,7.348,0,0,0,6.057-1.1c4.828-2.931,8.181-3.607,9.961-2l.183.172c1.033.99,4.176,4,10,.658,7.157-4.113,11.049-1.653,13.053,1.133.48.668,2.833,1.08,6.246.53a.925.925,0,0,1,1.072.912v4.377a.924.924,0,0,1-1.849,0v-3.32c-2.071.229-5.7.344-6.97-1.42-2.3-3.2-5.776-3.4-10.631-.61-3.2,1.84-7.921,3.173-12.2-.926l-.141-.133c-.389-.35-2.1-1.23-7.765,2.211a9.574,9.574,0,0,1-6.36,1.553V62.678A.925.925,0,0,1,508.291,63.6Z" fill="#846e63"/>
          <path id="Trazado_13988" data-name="Trazado 13988" d="M510.326,36.663a8.04,8.04,0,0,1-5.739-2.445.924.924,0,0,1-.222-.621,19.756,19.756,0,0,1,2.428-8.08,2.793,2.793,0,0,1-1.872-2.633.937.937,0,0,1,.038-.262l2.678-9.075a2.79,2.79,0,0,1,2.783-2.641h41.658a2.791,2.791,0,0,1,2.783,2.641l2.677,9.075a.9.9,0,0,1,.038.262,2.785,2.785,0,0,1-1.342,2.382,18.334,18.334,0,0,1,2.383,8.308c.046.99-1.143,1.4-1.651,1.581-2.316.806-8.889,1.8-10.654-.659-2.3-3.2-5.776-3.4-10.631-.61-3.2,1.84-7.921,3.173-12.2-.926l-.141-.133c-.389-.35-2.1-1.23-7.765,2.211A10.068,10.068,0,0,1,510.326,36.663Zm-4.1-3.407c.839.776,3.821,2.974,8.388.2,4.828-2.931,8.181-3.607,9.961-2l.183.172c1.033.99,4.176,4,10,.658,7.157-4.113,11.049-1.653,13.053,1.133.108.15.5.517,1.79.693a17.064,17.064,0,0,0,7.144-.846,15.6,15.6,0,0,0-2.682-7.946.924.924,0,0,1,.725-1.5.94.94,0,0,0,.932-.827l-2.668-9.04a.937.937,0,0,1-.038-.262.94.94,0,0,0-.938-.939H510.42a.939.939,0,0,0-.938.939.938.938,0,0,1-.038.262L506.776,23a.94.94,0,0,0,.932.827h.583a.925.925,0,0,1,.783,1.417C509.047,25.282,506.476,29.411,506.229,33.256Z" fill="#846e63"/>
          <path id="Trazado_13989" data-name="Trazado 13989" d="M531.159,66.484c-8.645,0-15.679-4.881-15.679-10.881s7.034-10.88,15.679-10.88S546.837,49.6,546.837,55.6,539.8,66.484,531.159,66.484Zm0-19.369c-6.744,0-12.232,3.808-12.232,8.488s5.488,8.489,12.232,8.489S543.39,60.284,543.39,55.6,537.9,47.115,531.159,47.115Z" fill="#846e63"/>
          <path id="Trazado_13990" data-name="Trazado 13990" d="M557.694,79.682h-52.4a.924.924,0,0,1,0-1.849h52.4a.924.924,0,0,1,0,1.849Z" fill="#846e63"/>
          <path id="Trazado_13991" data-name="Trazado 13991" d="M554.79,25.67H515.653a.924.924,0,1,1,0-1.848H554.79a.924.924,0,1,1,0,1.848Z" fill="#846e63"/>
        </g>
      </g>
    </g>
    <path id="Trazado_14334" data-name="Trazado 14334" d="M11.324,17.176a7.089,7.089,0,0,1-2.588-.466,6.087,6.087,0,0,1-2.061-1.3,5.864,5.864,0,0,1-1.354-2.065,7.2,7.2,0,0,1-.492-2.7A6.879,6.879,0,0,1,5.672,7.2,5.744,5.744,0,0,1,7.988,4.915a6.935,6.935,0,0,1,3.335-.791A6.739,6.739,0,0,1,15.05,5.152a5.629,5.629,0,0,1,2.276,2.83l-2.461.9A3.479,3.479,0,0,0,13.5,7.165a3.891,3.891,0,0,0-2.18-.615A3.73,3.73,0,0,0,8.547,7.657a4.075,4.075,0,0,0-1.09,2.988,4.081,4.081,0,0,0,1.094,2.993,3.726,3.726,0,0,0,2.773,1.112,3.876,3.876,0,0,0,2.175-.62,3.5,3.5,0,0,0,1.367-1.718l2.461.9a5.652,5.652,0,0,1-2.276,2.834A6.718,6.718,0,0,1,11.324,17.176Zm12.041,0a5.681,5.681,0,0,1-2.558-.554A4.138,4.138,0,0,1,19.054,15a4.846,4.846,0,0,1-.637-2.522,4.42,4.42,0,0,1,1.371-3.428,5.086,5.086,0,0,1,3.577-1.257,5.1,5.1,0,0,1,3.586,1.257,4.42,4.42,0,0,1,1.371,3.428,4.444,4.444,0,0,1-1.371,3.441A5.088,5.088,0,0,1,23.365,17.176Zm-.026-2.013a2.319,2.319,0,0,0,1.789-.738,2.764,2.764,0,0,0,.681-1.951,2.764,2.764,0,0,0-.681-1.951,2.319,2.319,0,0,0-1.789-.738,2.234,2.234,0,0,0-1.736.743,2.789,2.789,0,0,0-.672,1.947A2.789,2.789,0,0,0,21.6,14.42,2.234,2.234,0,0,0,23.339,15.163ZM40.908,7.789a3.452,3.452,0,0,1,2.329.734,2.626,2.626,0,0,1,.853,2.1V17H41.558V11.349a1.509,1.509,0,0,0-.4-1.143,1.416,1.416,0,0,0-1.02-.387,1.633,1.633,0,0,0-1.23.492,2.235,2.235,0,0,0-.475,1.591V17H35.872V11.375a1.549,1.549,0,0,0-.4-1.165,1.441,1.441,0,0,0-1.046-.391,1.581,1.581,0,0,0-1.222.519,2.476,2.476,0,0,0-.475,1.7V17H30.2V7.965h2.522V9.028a3.072,3.072,0,0,1,2.619-1.239,3.863,3.863,0,0,1,1.7.347,2.315,2.315,0,0,1,1.068,1.006A3.2,3.2,0,0,1,40.908,7.789Zm14.142,4.562-.026.606h-6.7a2.339,2.339,0,0,0,.721,1.652,2.3,2.3,0,0,0,1.591.571,2.221,2.221,0,0,0,1.191-.312,1.918,1.918,0,0,0,.76-.91l2.32.343a3.945,3.945,0,0,1-1.582,2.118,4.7,4.7,0,0,1-2.672.756,4.891,4.891,0,0,1-3.52-1.244,4.538,4.538,0,0,1-1.305-3.45,4.565,4.565,0,0,1,1.31-3.45,4.746,4.746,0,0,1,3.437-1.261,4.536,4.536,0,0,1,3.243,1.151A4.517,4.517,0,0,1,55.049,12.351ZM50.593,9.564a2,2,0,0,0-2.2,1.74h4.148a1.9,1.9,0,0,0-.624-1.292A1.978,1.978,0,0,0,50.593,9.564ZM59.4,9.4a2.933,2.933,0,0,1,1.187-1.085,3.62,3.62,0,0,1,1.767-.453v2.259a3.423,3.423,0,0,0-2.162.545,2.379,2.379,0,0,0-.668,1.934V17H56.974V7.965H59.4Zm8.473,7.77a4.827,4.827,0,0,1-3.489-1.3,4.493,4.493,0,0,1-1.354-3.393,4.483,4.483,0,0,1,1.349-3.393,5.364,5.364,0,0,1,6.42-.422,3.885,3.885,0,0,1,1.512,2.452l-2.338.255a2,2,0,0,0-.756-1.187,2.3,2.3,0,0,0-1.371-.4,2.072,2.072,0,0,0-1.652.738,2.894,2.894,0,0,0-.633,1.951,2.9,2.9,0,0,0,.633,1.947,2.067,2.067,0,0,0,1.652.743,2.278,2.278,0,0,0,1.367-.4,2.05,2.05,0,0,0,.76-1.187l2.338.255a3.9,3.9,0,0,1-1.525,2.452A4.8,4.8,0,0,1,67.873,17.167ZM75.4,6.611a1.421,1.421,0,0,1-1.037-.426,1.4,1.4,0,0,1-.431-1.033,1.382,1.382,0,0,1,.435-1.024A1.425,1.425,0,0,1,75.4,3.7a1.463,1.463,0,0,1,1.45,1.45A1.463,1.463,0,0,1,75.4,6.611ZM74.113,17V7.965h2.549V17ZM86.69,14.548a8.453,8.453,0,0,0,.22,2.206V17H84.546l-.2-.984a2.938,2.938,0,0,1-1.266.87,4.664,4.664,0,0,1-1.635.29A4.3,4.3,0,0,1,80.6,17.1a2.868,2.868,0,0,1-.76-.268,2.307,2.307,0,0,1-.628-.47,2.062,2.062,0,0,1-.422-.716,2.853,2.853,0,0,1-.158-.98,2.718,2.718,0,0,1,.167-.98,2.3,2.3,0,0,1,.439-.734,2.666,2.666,0,0,1,.712-.536,5.447,5.447,0,0,1,.9-.387,10.712,10.712,0,0,1,1.072-.281L83.4,11.41a1.638,1.638,0,0,0,.672-.286.57.57,0,0,0,.2-.453.932.932,0,0,0-.444-.87,2.073,2.073,0,0,0-1.077-.264,1.549,1.549,0,0,0-1.767,1.38l-2.241-.4a3.034,3.034,0,0,1,1.31-2.061,5.2,5.2,0,0,1,2.839-.664q3.8,0,3.8,3.261Zm-4.456.914a2.036,2.036,0,0,0,1.564-.655,2.759,2.759,0,0,0,.606-1.938l-2.145.606a2.534,2.534,0,0,0-.9.369.758.758,0,0,0-.312.65.842.842,0,0,0,.334.716A1.382,1.382,0,0,0,82.234,15.462ZM89.151,17V3.5h2.558V17ZM95.62,6.611a1.421,1.421,0,0,1-1.037-.426,1.4,1.4,0,0,1-.431-1.033,1.382,1.382,0,0,1,.435-1.024A1.425,1.425,0,0,1,95.62,3.7a1.463,1.463,0,0,1,1.45,1.45,1.463,1.463,0,0,1-1.45,1.459ZM94.328,17V7.965h2.549V17Zm11.76-9.035-3.973,7.084h3.85V17H98.52l3.955-7.084H98.828V7.965Zm8.833,6.583a8.453,8.453,0,0,0,.22,2.206V17h-2.364l-.2-.984a2.938,2.938,0,0,1-1.266.87,4.664,4.664,0,0,1-1.635.29,4.3,4.3,0,0,1-.844-.079,2.868,2.868,0,0,1-.76-.268,2.307,2.307,0,0,1-.628-.47,2.062,2.062,0,0,1-.422-.716,2.853,2.853,0,0,1-.158-.98,2.718,2.718,0,0,1,.167-.98,2.3,2.3,0,0,1,.439-.734,2.666,2.666,0,0,1,.712-.536,5.447,5.447,0,0,1,.9-.387,10.712,10.712,0,0,1,1.072-.281l1.485-.334a1.638,1.638,0,0,0,.672-.286.57.57,0,0,0,.2-.453.932.932,0,0,0-.444-.87,2.073,2.073,0,0,0-1.077-.264,1.549,1.549,0,0,0-1.767,1.38l-2.241-.4a3.034,3.034,0,0,1,1.31-2.061,5.2,5.2,0,0,1,2.839-.664q3.8,0,3.8,3.261Zm-4.456.914a2.036,2.036,0,0,0,1.564-.655,2.759,2.759,0,0,0,.606-1.938l-2.145.606a2.534,2.534,0,0,0-.9.369.758.758,0,0,0-.312.65.842.842,0,0,0,.334.716A1.382,1.382,0,0,0,110.464,15.462Zm10.8,1.705a4.827,4.827,0,0,1-3.489-1.3,4.493,4.493,0,0,1-1.354-3.393,4.483,4.483,0,0,1,1.349-3.393,5.364,5.364,0,0,1,6.42-.422,3.885,3.885,0,0,1,1.512,2.452l-2.338.255a2,2,0,0,0-.756-1.187,2.3,2.3,0,0,0-1.371-.4,2.072,2.072,0,0,0-1.652.738,2.894,2.894,0,0,0-.633,1.951,2.9,2.9,0,0,0,.633,1.947,2.067,2.067,0,0,0,1.652.743,2.278,2.278,0,0,0,1.367-.4,2.05,2.05,0,0,0,.76-1.187l2.338.255a3.9,3.9,0,0,1-1.525,2.452A4.8,4.8,0,0,1,121.266,17.167ZM128.8,6.611a1.421,1.421,0,0,1-1.037-.426,1.4,1.4,0,0,1-.431-1.033,1.382,1.382,0,0,1,.435-1.024A1.425,1.425,0,0,1,128.8,3.7a1.463,1.463,0,0,1,1.45,1.45,1.463,1.463,0,0,1-1.45,1.459ZM127.506,17V7.965h2.549V17Zm8.6-10.266L138.4,3.5l1.248.879-2,2.355Zm.782,10.441a5.681,5.681,0,0,1-2.558-.554A4.138,4.138,0,0,1,132.573,15a4.846,4.846,0,0,1-.637-2.522,4.42,4.42,0,0,1,1.371-3.428,5.731,5.731,0,0,1,7.163,0,4.42,4.42,0,0,1,1.371,3.428,4.444,4.444,0,0,1-1.371,3.441A5.088,5.088,0,0,1,136.884,17.176Zm-.026-2.013a2.319,2.319,0,0,0,1.789-.738,2.764,2.764,0,0,0,.681-1.951,2.764,2.764,0,0,0-.681-1.951,2.319,2.319,0,0,0-1.789-.738,2.234,2.234,0,0,0-1.736.743,2.789,2.789,0,0,0-.672,1.947,2.789,2.789,0,0,0,.672,1.947A2.234,2.234,0,0,0,136.858,15.163Zm12.2-7.374a3.522,3.522,0,0,1,2.5.813,3.014,3.014,0,0,1,.87,2.316V17h-2.54V11.463a1.574,1.574,0,0,0-.453-1.248,1.705,1.705,0,0,0-1.165-.4,2.379,2.379,0,0,0-.756.114,1.942,1.942,0,0,0-.633.356,1.573,1.573,0,0,0-.453.681,3.15,3.15,0,0,0-.171,1.046V17h-2.531V7.965h2.531v1A3.481,3.481,0,0,1,149.057,7.789Z" transform="matrix(1, 0, 0, 1, 778.38, 1128)" fill="#00223d"/>
    <g id="Grupo_5018" data-name="Grupo 5018" transform="translate(-0.214)">
      <ellipse id="Elipse_1364" data-name="Elipse 1364" cx="57.317" cy="55.988" rx="57.317" ry="55.988" transform="translate(796.908 969.895)" fill="#ffe082"/>
      <g id="Grupo_4912" data-name="Grupo 4912" transform="translate(183.171 918.651)">
        <g id="Grupo_4911" data-name="Grupo 4911">
          <path id="Trazado_13992" data-name="Trazado 13992" d="M738.4,108.291a68.764,68.764,0,1,1-20.11-49.626l-1.5,1.5a66.636,66.636,0,1,0,19.495,47.066V106.17" fill="#7fb2aa"/>
        </g>
      </g>
      <g id="Grupo_4914" data-name="Grupo 4914" transform="translate(124.171 981.651)">
        <path id="Trazado_13993" data-name="Trazado 13993" d="M742.841,67.125H720.494a1.32,1.32,0,0,1-1.255-.811L706.453,32.155a1.089,1.089,0,0,1,.18-1.073,1.379,1.379,0,0,1,1.075-.5h47.919a1.381,1.381,0,0,1,1.076.5,1.091,1.091,0,0,1,.179,1.073L744.1,66.314A1.323,1.323,0,0,1,742.841,67.125Zm-21.4-2.379H741.89l11.895-31.78H709.55Z" fill="#846e63"/>
        <path id="Trazado_13994" data-name="Trazado 13994" d="M742.005,72.092H720.646c-1.031,0-1.866-.434-1.866-.97v-6c0-.536.835-.97,1.866-.97h21.359c1.032,0,1.866.434,1.866.97v6C743.871,71.658,743.037,72.092,742.005,72.092Zm-19.493-1.939h17.627V66.092H722.512Z" fill="#846e63"/>
        <path id="Trazado_13995" data-name="Trazado 13995" d="M755.914,32.966H707.421a4.767,4.767,0,0,1-4.2-2.366l-1.315-2.441a2.338,2.338,0,0,1,.152-2.491,2.938,2.938,0,0,1,2.429-1.208H758.85a2.94,2.94,0,0,1,2.429,1.208,2.34,2.34,0,0,1,.151,2.491L760.115,30.6A4.765,4.765,0,0,1,755.914,32.966Zm-51.428-6.127a.21.21,0,0,0-.185.093.166.166,0,0,0-.012.19l1.315,2.441a2.061,2.061,0,0,0,1.817,1.024h48.493a2.063,2.063,0,0,0,1.818-1.024l1.314-2.441a.164.164,0,0,0-.011-.19.212.212,0,0,0-.185-.093Z" fill="#846e63"/>
      </g>
    </g>
  </g>
</svg>
