<svg xmlns="http://www.w3.org/2000/svg" width="356" height="299.262" viewBox="0 0 356 299.262">
  <g id="Grupo_3800" data-name="Grupo 3800" transform="translate(-1456.322 -2727.064)">
    <g id="Grupo_3771" data-name="Grupo 3771" transform="translate(1711.408 2913.422)">
      <path id="Trazado_10502" data-name="Trazado 10502" d="M1730.185,2973.645c-17.5-4.237-10.54-33.828-2.766-38.742,2.882-1.822,6.928-.7,9.98-2.951,1.915-1.409,3.573-5.589,5.439-7.419,5.943-5.827,13.1-6.943,20.508-3.2,33.875,17.111-11.874,69.762-29.473,55.078C1732.987,2975.672,1731.3,2973.916,1730.185,2973.645Z" transform="translate(-1719.262 -2919.161)" fill="#846e63"/>
      <path id="Trazado_10503" data-name="Trazado 10503" d="M1741.316,2973.066c-.921-.172-3.948-1.283-4.187-2.421-.475-2.265,4.018-5.089,6.067-4.6,3.361.8,7.915,6.905,2.076,7.248A29.545,29.545,0,0,1,1741.316,2973.066Z" transform="translate(-1719.795 -2920.559)" fill="#846e63"/>
      <path id="Trazado_10504" data-name="Trazado 10504" d="M1728.843,2948.537c-.187-3.145,3.344-3.632,5.788-3.772a10.31,10.31,0,0,1,8.3,2.8,7.124,7.124,0,0,1,1.9,5.794c-.2,2.693-2.656,4.785-5.055,6.06-1.494.794-4.859,2.345-6.625,1.672C1729.331,2959.641,1728.971,2950.678,1728.843,2948.537Z" transform="translate(-1719.548 -2919.925)" fill="#846e63"/>
      <path id="Trazado_10505" data-name="Trazado 10505" d="M1759.845,2941.65a2.977,2.977,0,0,1-.022-4.485c3.143-2.688,8.937,2.244,5.384,4.243C1765.207,2941.408,1761.585,2943.151,1759.845,2941.65Z" transform="translate(-1720.444 -2919.675)" fill="#846e63"/>
    </g>
    <g id="Grupo_3772" data-name="Grupo 3772" transform="translate(1532.306 2865.584)">
      <path id="Trazado_10506" data-name="Trazado 10506" d="M1534.646,2915.625c0-11.895,11.353-22.733,29.96-30.874v15.5a6.5,6.5,0,1,0,12.992,0v-20.356c4.112-1.314,8.449-2.526,13-3.607v23.963a6.5,6.5,0,1,0,12.995,0v-26.625c4.206-.731,8.546-1.362,12.992-1.886v28.511a6.5,6.5,0,0,0,13,0V2870.53c4.259-.294,8.585-.5,12.995-.6v30.316a6.5,6.5,0,1,0,13,0v-30.316c4.406.1,8.735.3,12.995.6v29.719a6.5,6.5,0,1,0,12.995,0v-28.511q6.68.786,12.993,1.886v26.625a6.5,6.5,0,0,0,13,0v-23.963c4.549,1.081,8.883,2.292,12.994,3.607v20.356a6.5,6.5,0,0,0,13,0v-15.5c18.6,8.143,29.957,18.978,29.957,30.873,0,.316-.048.627-.06.944.026.29.033.584.044.878a12.29,12.29,0,0,1-12.282,12H1546.944a12.291,12.291,0,0,1-12.285-12c.007-.294.017-.588.047-.878C1534.69,2916.252,1534.646,2915.941,1534.646,2915.625Z" transform="translate(-1534.646 -2869.852)" fill="#f6df86"/>
      <path id="Trazado_10507" data-name="Trazado 10507" d="M1652.4,2906.745a6.5,6.5,0,0,1-6.5-6.5v-30.316q3.225-.076,6.5-.08t6.5.08v30.316A6.5,6.5,0,0,1,1652.4,2906.745Z" transform="translate(-1537.969 -2869.849)" fill="#f6df86"/>
      <path id="Trazado_10508" data-name="Trazado 10508" d="M1679.195,2906.766a6.5,6.5,0,0,1-6.5-6.5v-29.719q6.634.456,12.995,1.208v28.511A6.5,6.5,0,0,1,1679.195,2906.766Z" transform="translate(-1538.77 -2869.87)" fill="#f6df86"/>
      <path id="Trazado_10509" data-name="Trazado 10509" d="M1598.819,2906.861a6.5,6.5,0,0,1-6.5-6.5V2876.4q6.249-1.488,12.995-2.662v26.625A6.5,6.5,0,0,1,1598.819,2906.861Z" transform="translate(-1536.369 -2869.965)" fill="#f6df86"/>
      <path id="Trazado_10510" data-name="Trazado 10510" d="M1625.61,2906.766a6.5,6.5,0,0,1-6.5-6.5v-28.511q6.355-.749,13-1.208v29.719A6.5,6.5,0,0,1,1625.61,2906.766Z" transform="translate(-1537.169 -2869.87)" fill="#f6df86"/>
      <path id="Trazado_10511" data-name="Trazado 10511" d="M1572.025,2907.054a6.5,6.5,0,0,1-6.5-6.5v-15.5a135.97,135.97,0,0,1,12.992-4.859v20.356A6.5,6.5,0,0,1,1572.025,2907.054Z" transform="translate(-1535.568 -2870.158)" fill="#f6df86"/>
      <path id="Trazado_10512" data-name="Trazado 10512" d="M1705.987,2906.861a6.5,6.5,0,0,1-6.5-6.5v-26.625q6.739,1.167,13,2.662v23.963A6.494,6.494,0,0,1,1705.987,2906.861Z" transform="translate(-1539.57 -2869.965)" fill="#f6df86"/>
      <path id="Trazado_10513" data-name="Trazado 10513" d="M1732.777,2907.054a6.5,6.5,0,0,1-6.5-6.5V2880.2a136.322,136.322,0,0,1,13,4.86v15.5A6.5,6.5,0,0,1,1732.777,2907.054Z" transform="translate(-1540.37 -2870.158)" fill="#f6df86"/>
    </g>
    <g id="Grupo_3774" data-name="Grupo 3774" transform="translate(1634.649 2763.296)">
      <path id="Trazado_10514" data-name="Trazado 10514" d="M1670.452,2764.412s8.845,2.57,13.319,8.153c3.489,4.344,5.386,11.485,3.731,11.972-2.108.612-9.2-3.225-12.586-7.832C1671.555,2772.146,1670.452,2764.412,1670.452,2764.412Z" transform="translate(-1641.045 -2764.412)" fill="#8db14c"/>
      <g id="Grupo_3773" data-name="Grupo 3773" transform="translate(44.893 14.18)">
        <path id="Trazado_10515" data-name="Trazado 10515" d="M1687.217,2786.075l-.014,0a1.273,1.273,0,0,1-.7-1.651c.031-.08,3.323-7.962,13.948-4.521a1.277,1.277,0,0,1-.783,2.432c-8.295-2.688-10.7,2.81-10.795,3.048A1.286,1.286,0,0,1,1687.217,2786.075Z" transform="translate(-1686.415 -2779.029)" fill="#8db14c"/>
      </g>
      <path id="Trazado_10516" data-name="Trazado 10516" d="M1692.919,2814.643a24.222,24.222,0,0,0,2.239-4.266c4.3-10.746.453-22.4-8.587-26.014s-19.862,2.155-24.165,12.9a25,25,0,0,0-1.336,4.628,28.424,28.424,0,1,0,31.848,12.752Z" transform="translate(-1640.14 -2764.976)" fill="#8db14c"/>
      <path id="Trazado_10517" data-name="Trazado 10517" d="M1652.389,2823.7a28.157,28.157,0,0,1,19.085-16.745,24.147,24.147,0,0,1,1.322-4.627c2.808-7.011,8.462-11.856,14.619-13.358-7.833-2.036-16.57,2.986-20.142,11.908a21.589,21.589,0,0,0-1.181,4.124,25.006,25.006,0,0,0-13.792,39.257A27.957,27.957,0,0,1,1652.389,2823.7Z" transform="translate(-1640.353 -2765.132)" fill="#8db14c"/>
    </g>
    <g id="Grupo_3775" data-name="Grupo 3775" transform="translate(1512.59 2859.625)">
      <path id="Trazado_10518" data-name="Trazado 10518" d="M1514.519,2917.635s-1.7-12.918,4.888-19.875c8.781-9.272,31.1-18.3,42.032-24.906a28.458,28.458,0,0,0,8.8-9.147s2.107,14.317-7.539,22.683c-7.9,6.843-26.737,16.214-36.4,21.579A41.172,41.172,0,0,0,1514.519,2917.635Z" transform="translate(-1514.323 -2863.707)" fill="#99cac3"/>
      <path id="Trazado_10519" data-name="Trazado 10519" d="M1558.619,2879.713a3.171,3.171,0,1,1,1.645,4.175A3.176,3.176,0,0,1,1558.619,2879.713Z" transform="translate(-1515.638 -2864.128)" fill="#99cac3"/>
      <path id="Trazado_10520" data-name="Trazado 10520" d="M1549.338,2885.122a3.173,3.173,0,1,1,1.646,4.172A3.173,3.173,0,0,1,1549.338,2885.122Z" transform="translate(-1515.361 -2864.29)" fill="#99cac3"/>
      <path id="Trazado_10521" data-name="Trazado 10521" d="M1540.112,2889.954a3.173,3.173,0,1,1,1.643,4.172A3.172,3.172,0,0,1,1540.112,2889.954Z" transform="translate(-1515.086 -2864.434)" fill="#99cac3"/>
      <path id="Trazado_10522" data-name="Trazado 10522" d="M1530.743,2895.933a3.173,3.173,0,1,1,1.647,4.17A3.171,3.171,0,0,1,1530.743,2895.933Z" transform="translate(-1514.806 -2864.613)" fill="#99cac3"/>
      <path id="Trazado_10523" data-name="Trazado 10523" d="M1521.053,2901.83a3.173,3.173,0,1,1,1.647,4.176A3.175,3.175,0,0,1,1521.053,2901.83Z" transform="translate(-1514.516 -2864.789)" fill="#99cac3"/>
    </g>
    <g id="Grupo_3776" data-name="Grupo 3776" transform="translate(1509.227 2883.574)">
      <path id="Trazado_10524" data-name="Trazado 10524" d="M1563.886,2984.936l-6.373-15.99-22.534-24.753s11.131-3.175,12-2.938,10.232,18.991,15.424,15.994c3.947-2.275-5.458-17.129-4.684-17.632s10.674-6.982,10.674-6.982,3.587,18.4,8.286,17.365c4.64-1.016.228-19,.228-19l12.49-6.341-1.992,27.313,5.927,21.234Z" transform="translate(-1511.577 -2889.476)" fill="#4c87cd"/>
      <path id="Trazado_10525" data-name="Trazado 10525" d="M1596.438,2896.061a8.059,8.059,0,0,0-10.473-4.506,8.173,8.173,0,0,0-1.479.779,8.037,8.037,0,0,0-13.58-.392,17.746,17.746,0,0,0-26.854,9.457,12.87,12.87,0,0,0-20.355,13.948,13.459,13.459,0,0,0-2.353,26.568,8,8,0,0,0,14.352,4.309,12.789,12.789,0,0,0,16.858-5.651,12.826,12.826,0,0,0,15.989-7.093,54.191,54.191,0,0,1,22.5-7.383,12.956,12.956,0,0,0,7.242-16.83,12.738,12.738,0,0,0-3.405-4.8A8.03,8.03,0,0,0,1596.438,2896.061Z" transform="translate(-1510.856 -2888.393)" fill="#4c87cd"/>
      <path id="Trazado_10526" data-name="Trazado 10526" d="M1522.854,2919.616a10.187,10.187,0,0,0-2.129,19.179A16.534,16.534,0,0,1,1522.854,2919.616Z" transform="translate(-1510.976 -2889.326)" fill="#4c87cd"/>
      <path id="Trazado_10527" data-name="Trazado 10527" d="M1535.8,2903.007a10.185,10.185,0,0,0-2.125,19.177A16.528,16.528,0,0,1,1535.8,2903.007Z" transform="translate(-1511.363 -2888.83)" fill="#4c87cd"/>
      <path id="Trazado_10528" data-name="Trazado 10528" d="M1584.811,2906.159a8.36,8.36,0,0,0-1.745,15.734A13.575,13.575,0,0,1,1584.811,2906.159Z" transform="translate(-1512.87 -2888.924)" fill="#4c87cd"/>
      <path id="Trazado_10529" data-name="Trazado 10529" d="M1559.544,2893.572a15.391,15.391,0,0,0-3.209,28.973A24.98,24.98,0,0,1,1559.544,2893.572Z" transform="translate(-1511.951 -2888.548)" fill="#4c87cd"/>
    </g>
    <g id="Grupo_3777" data-name="Grupo 3777" transform="translate(1697.462 2965.029)">
      <path id="Trazado_10530" data-name="Trazado 10530" d="M1734.746,3006.4v-3.444a12.236,12.236,0,1,1,0-24.472v-3.054h-28.328a1.623,1.623,0,0,1-.2-.019v31.009a1.448,1.448,0,0,1,.2-.021Z" transform="translate(-1704.927 -2972.447)" fill="#4c87cd"/>
      <path id="Trazado_10531" data-name="Trazado 10531" d="M1706.378,2972.356a1.488,1.488,0,0,0-.2,2.963,1.623,1.623,0,0,0,.2.019h28.328v-2.982Z" transform="translate(-1704.887 -2972.356)" fill="#4c87cd"/>
      <path id="Trazado_10532" data-name="Trazado 10532" d="M1706.378,3007.353a1.448,1.448,0,0,0-.2.021,1.487,1.487,0,0,0,.2,2.962h28.328v-2.982Z" transform="translate(-1704.887 -2973.401)" fill="#4c87cd"/>
      <path id="Trazado_10533" data-name="Trazado 10533" d="M1723.011,2990.813a12.236,12.236,0,0,0,12.236,12.236v-24.472A12.236,12.236,0,0,0,1723.011,2990.813Z" transform="translate(-1705.428 -2972.542)" fill="#4c87cd"/>
      <path id="Trazado_10534" data-name="Trazado 10534" d="M1735.624,2975.429v3.054a12.236,12.236,0,0,1,0,24.472v3.444h28.327a1.448,1.448,0,0,1,.2.021V2975.41a1.623,1.623,0,0,1-.2.019Z" transform="translate(-1705.805 -2972.447)" fill="#4c87cd"/>
      <path id="Trazado_10535" data-name="Trazado 10535" d="M1763.951,2972.356h-28.327v2.982h28.327a1.623,1.623,0,0,0,.2-.019,1.488,1.488,0,0,0-.2-2.963Z" transform="translate(-1705.805 -2972.356)" fill="#4c87cd"/>
      <path id="Trazado_10536" data-name="Trazado 10536" d="M1764.147,3007.374a1.448,1.448,0,0,0-.2-.021h-28.327v2.982h28.327a1.487,1.487,0,0,0,.2-2.962Z" transform="translate(-1705.805 -2973.401)" fill="#4c87cd"/>
      <path id="Trazado_10537" data-name="Trazado 10537" d="M1747.859,2990.813a12.236,12.236,0,0,0-12.235-12.235v24.472A12.236,12.236,0,0,0,1747.859,2990.813Z" transform="translate(-1705.805 -2972.542)" fill="#4c87cd"/>
    </g>
    <path id="Trazado_10538" data-name="Trazado 10538" d="M1586.214,2953.262c-9.024,6.182-16.762,3.6-21.3-3.021s-4.147-14.766,4.876-20.948,22.085-7.246,26.619-.627S1595.237,2947.08,1586.214,2953.262Z" transform="translate(-3.159 -5.887)" fill="#e7ad6e"/>
    <path id="Trazado_10539" data-name="Trazado 10539" d="M1659.821,2923.025c9.024,6.182,16.762,3.6,21.3-3.021s4.148-14.766-4.876-20.948-22.085-7.246-26.619-.627S1650.8,2916.843,1659.821,2923.025Z" transform="translate(-5.727 -4.985)" fill="#e7ad6e"/>
    <g id="Grupo_3780" data-name="Grupo 3780" transform="translate(1673.778 2746.779)">
      <path id="Trazado_10540" data-name="Trazado 10540" d="M1723.7,2770.689v-7.007h-25.455v7.007s-17.771,34.406-17.771,42.574v106.223a4.437,4.437,0,0,0,4.437,4.437h52.121a4.437,4.437,0,0,0,4.436-4.437V2813.263C1741.469,2805.095,1723.7,2770.689,1723.7,2770.689Z" transform="translate(-1680.474 -2747.873)" fill="#846e63"/>
      <g id="Grupo_3779" data-name="Grupo 3779" transform="translate(15.894)">
        <g id="Grupo_3778" data-name="Grupo 3778" transform="translate(0)">
          <path id="Trazado_10541" data-name="Trazado 10541" d="M1721.755,2747.738v11.542h-2.964v-11.894h-2.964v11.894h-2.965v-11.894H1709.9v11.894h-2.964v-11.894h-2.964v11.894h-2.964V2747.8a6.384,6.384,0,0,0-4.149,5.976v5.592h29.206v-5.592A6.385,6.385,0,0,0,1721.755,2747.738Z" transform="translate(-1696.858 -2747.386)" fill="#846e63"/>
          <path id="Trazado_10542" data-name="Trazado 10542" d="M1704.1,2759.28v-11.894h-.726a6.373,6.373,0,0,0-2.238.411v11.482Z" transform="translate(-1696.986 -2747.386)" fill="#846e63"/>
          <rect id="Rectángulo_1044" data-name="Rectángulo 1044" width="2.964" height="11.893" transform="translate(10.077 0)" fill="#846e63"/>
          <rect id="Rectángulo_1045" data-name="Rectángulo 1045" width="2.964" height="11.893" transform="translate(16.005 0)" fill="#846e63"/>
          <path id="Trazado_10543" data-name="Trazado 10543" d="M1722.43,2759.28v-11.542a6.377,6.377,0,0,0-2.078-.352h-.886v11.894Z" transform="translate(-1697.533 -2747.386)" fill="#846e63"/>
        </g>
        <rect id="Rectángulo_1046" data-name="Rectángulo 1046" width="29.206" height="4.838" transform="translate(0 10.972)" fill="#846e63"/>
      </g>
      <path id="Trazado_10544" data-name="Trazado 10544" d="M1691.742,2814.652v-1.674c0-7.333,15.225-37.149,16.617-39.86v-5.825h-5.141v3.447s-17.627,34.129-17.627,42.233v100.82h6.241a4.206,4.206,0,0,1-.09-.863v-98.278Z" transform="translate(-1680.627 -2747.981)" fill="#846e63"/>
      <rect id="Rectángulo_1047" data-name="Rectángulo 1047" width="60.995" height="63.786" transform="translate(0 78.236)" fill="#846e63"/>
      <path id="Trazado_10545" data-name="Trazado 10545" d="M1726.561,2767.249a1.462,1.462,0,0,1-1.463,1.462h-27.306a1.462,1.462,0,0,1-1.462-1.462h0a1.462,1.462,0,0,1,1.462-1.462H1725.1a1.462,1.462,0,0,1,1.463,1.462Z" transform="translate(-1680.948 -2747.936)" fill="#846e63"/>
    </g>
    <g id="Grupo_3781" data-name="Grupo 3781" transform="translate(1593.844 2946.876)">
      <path id="Trazado_10546" data-name="Trazado 10546" d="M1724.779,2981.735a28.09,28.09,0,0,1-28.09,28.09h-63.982a28.09,28.09,0,0,1-28.09-28.09h0a28.091,28.091,0,0,1,28.09-28.09h63.982a28.09,28.09,0,0,1,28.09,28.09Z" transform="translate(-1598.274 -2953.645)" fill="#f6df86"/>
      <rect id="Rectángulo_1048" data-name="Rectángulo 1048" width="51.895" height="56.18" transform="translate(40.476)" fill="#f6df86"/>
      <path id="Trazado_10547" data-name="Trazado 10547" d="M1607.53,2979.45l-9.452-5.35,2.5,5.35-2.5,2.9,1.961,2.632.357,3.567,7.133-2.5Z" transform="translate(-1598.078 -2954.256)" fill="#f6df86"/>
      <path id="Trazado_10548" data-name="Trazado 10548" d="M1724.734,2979.1l9.63-4.636-2.14,4.636,2.853,3.656-2.853,1.024,1.248,4.415-8.738-1.6Z" transform="translate(-1601.862 -2954.267)" fill="#f6df86"/>
      <rect id="Rectángulo_1049" data-name="Rectángulo 1049" width="3.745" height="56.18" transform="translate(44.048)" fill="#f6df86"/>
      <rect id="Rectángulo_1050" data-name="Rectángulo 1050" width="3.745" height="56.18" transform="translate(84.709)" fill="#f6df86"/>
    </g>
    <g id="Grupo_3782" data-name="Grupo 3782" transform="translate(1591.427 2731.788)">
      <path id="Trazado_10549" data-name="Trazado 10549" d="M1607.23,2757.239l-11.644-13.94,6.739-4.7,8.065,17.332Z" transform="translate(-1595.587 -2732.132)" fill="#99cac3"/>
      <path id="Trazado_10550" data-name="Trazado 10550" d="M1610.286,2759.533l-11.553-24.313,11.745-3.287,4.252,24.876Z" transform="translate(-1595.681 -2731.933)" fill="#99cac3"/>
      <path id="Trazado_10551" data-name="Trazado 10551" d="M1614.682,2761.3l-4.718-19.36,8.778.052-.574,16.647Z" transform="translate(-1596.016 -2732.232)" fill="#99cac3"/>
      <path id="Trazado_10552" data-name="Trazado 10552" d="M1638.1,2824.978c-.13-1.459-.275-2.962-.431-4.49l-7.414,4.491Z" transform="translate(-1596.622 -2734.579)" fill="#99cac3"/>
      <path id="Trazado_10553" data-name="Trazado 10553" d="M1636.018,2807.284q-.381-2.728-.814-5.485l-9.058,5.489Z" transform="translate(-1596.5 -2734.02)" fill="#99cac3"/>
      <path id="Trazado_10554" data-name="Trazado 10554" d="M1633.125,2789.7q-.495-2.611-1.026-5.151l-8.506,5.152Z" transform="translate(-1596.423 -2733.505)" fill="#99cac3"/>
      <path id="Trazado_10555" data-name="Trazado 10555" d="M1629.36,2772.924c-.493-1.881-1.005-3.665-1.522-5.371l-8.868,5.374Z" transform="translate(-1596.285 -2732.997)" fill="#99cac3"/>
      <path id="Trazado_10556" data-name="Trazado 10556" d="M1605.192,2783.606c.43,1.581.887,3.181,1.387,4.816l7.631-5.665Z" transform="translate(-1595.874 -2733.451)" fill="#99cac3"/>
      <path id="Trazado_10557" data-name="Trazado 10557" d="M1610.872,2752.305s-7.822,1.76-8.691,8.759a29.24,29.24,0,0,0-.116,4.957l8.429.4-7.97,4.328a100.775,100.775,0,0,0,2.573,11.936l9.018-.849-7.631,5.665c1.187,3.875,2.559,7.874,4.049,11.885l9.16-.867-7.386,5.487c1.587,4.044,3.268,8.046,4.984,11.894l6.47-.611-5.047,3.75c2.072,4.512,4.152,8.738,6.132,12.483l4.906-.462-3.684,2.731c4.558,8.332,8.395,13.722,9.957,13.362,2.2-.507,2.394-10.674,1.236-24.222h-7.844l7.414-4.491c-.411-4.046-.926-8.3-1.533-12.645l-9.872,0,9.058-5.489c-.605-3.887-1.276-7.779-2-11.588h-9.532l8.506-5.152c-.816-3.89-1.683-7.64-2.6-11.114l-10.39,0,8.868-5.374a68.736,68.736,0,0,0-4.036-10.63C1619.852,2749.662,1610.872,2752.305,1610.872,2752.305Z" transform="translate(-1595.779 -2732.527)" fill="#99cac3"/>
      <path id="Trazado_10558" data-name="Trazado 10558" d="M1602.066,2766.46q.112,2.228.46,4.724l7.97-4.328Z" transform="translate(-1595.78 -2732.965)" fill="#99cac3"/>
      <path id="Trazado_10559" data-name="Trazado 10559" d="M1610.8,2800.82c.573,1.541,1.169,3.081,1.774,4.62l7.386-5.487Z" transform="translate(-1596.041 -2733.965)" fill="#99cac3"/>
      <path id="Trazado_10560" data-name="Trazado 10560" d="M1617.762,2817.85q.706,1.588,1.422,3.139l5.047-3.75Z" transform="translate(-1596.249 -2734.481)" fill="#99cac3"/>
      <path id="Trazado_10561" data-name="Trazado 10561" d="M1625.549,2833.958c.414.78.818,1.537,1.221,2.269l3.684-2.731Z" transform="translate(-1596.482 -2734.967)" fill="#99cac3"/>
    </g>
    <g id="Grupo_3783" data-name="Grupo 3783" transform="translate(1520.28 2940.731)">
      <path id="Trazado_10562" data-name="Trazado 10562" d="M1588.545,2947.31c30.072,6.39,33.15,22.49,33.15,22.49h-99.446Z" transform="translate(-1522.249 -2947.31)" fill="#846e63"/>
      <path id="Trazado_10563" data-name="Trazado 10563" d="M1621.695,2970.492h-99.446v24.085a6.378,6.378,0,0,1,0,12.444v6.091h72.039a8.837,8.837,0,0,1,17.64,0h9.767Zm-82.705,23.442a9.353,9.353,0,1,1,9.355-9.351A9.349,9.349,0,0,1,1538.99,2993.934Zm25.4,11.84a5.684,5.684,0,1,1,5.684-5.684A5.683,5.683,0,0,1,1564.394,3005.774Zm17.759-10.422a7.34,7.34,0,1,1,7.34-7.337A7.339,7.339,0,0,1,1582.154,2995.352Zm26.4,0a3.432,3.432,0,1,1,3.436-3.431A3.434,3.434,0,0,1,1608.55,2995.352Z" transform="translate(-1522.249 -2948.003)" fill="#846e63"/>
      <path id="Trazado_10564" data-name="Trazado 10564" d="M1605.324,3005.879a8.853,8.853,0,0,0-8.818,8.29h17.64A8.864,8.864,0,0,0,1605.324,3005.879Z" transform="translate(-1524.467 -2949.06)" fill="#846e63"/>
      <path id="Trazado_10565" data-name="Trazado 10565" d="M1527.224,3001.54a6.389,6.389,0,0,0-4.975-6.221v12.444A6.389,6.389,0,0,0,1527.224,3001.54Z" transform="translate(-1522.249 -2948.744)" fill="#846e63"/>
      <path id="Trazado_10566" data-name="Trazado 10566" d="M1539.217,2975.375a9.353,9.353,0,1,0,9.355,9.354A9.347,9.347,0,0,0,1539.217,2975.375Z" transform="translate(-1522.477 -2948.148)" fill="#846e63"/>
      <path id="Trazado_10567" data-name="Trazado 10567" d="M1565.517,2995.143a5.684,5.684,0,1,0,5.684,5.683A5.682,5.682,0,0,0,1565.517,2995.143Z" transform="translate(-1523.372 -2948.739)" fill="#846e63"/>
      <path id="Trazado_10568" data-name="Trazado 10568" d="M1611.1,2989.041a3.432,3.432,0,1,0,3.436,3.433A3.435,3.435,0,0,0,1611.1,2989.041Z" transform="translate(-1524.801 -2948.557)" fill="#846e63"/>
      <path id="Trazado_10569" data-name="Trazado 10569" d="M1583.772,2980.984a7.34,7.34,0,1,0,7.34,7.344A7.343,7.343,0,0,0,1583.772,2980.984Z" transform="translate(-1523.868 -2948.316)" fill="#846e63"/>
    </g>
    <g id="Grupo_3784" data-name="Grupo 3784" transform="translate(1540.383 2727.064)">
      <path id="Trazado_10570" data-name="Trazado 10570" d="M1558.939,2745.139c6.773-7.243,19.142-4.915,28.616,5.411,11.969,13.048,26.814,36.491,26.2,60.057-.5,19.128-7.21,33.512-21.089,34.832-23.434,2.221-24.208-19.221-23.617-33.92.443-11.047.229-32.272-4.6-42.221C1559.774,2759.674,1552.488,2752.031,1558.939,2745.139Z" transform="translate(-1543.372 -2727.479)" fill="#846e63"/>
      <path id="Trazado_10571" data-name="Trazado 10571" d="M1556.831,2737.069l-11.577-10.005-2.284,3.155,13.02,11.713s-7.291-2.132-11.034,2.329c-1.5,1.789,9.039,2.394,9.039,2.394s-4.732,5.317.166,14.584c1.766,3.345,4.59-12.641,4.59-12.641s13.2,10.506,12.986,7.32c-.23-3.461-7.566-14.387-7.566-14.387s17.356,1.5,17.24,1.02c-2.551-10.582-17.88-5.1-17.88-5.1s9.364-5.96,8.5-6.324C1561.255,2726.625,1556.831,2737.069,1556.831,2737.069Z" transform="translate(-1542.971 -2727.064)" fill="#846e63"/>
      <path id="Trazado_10572" data-name="Trazado 10572" d="M1577.407,2823.278c.564,8.431,4.744,15.526,10.459,19.035-6.714-.254-12.424-6.907-13-15.46a18.49,18.49,0,0,1,3.29-12.141A27.666,27.666,0,0,0,1577.407,2823.278Z" transform="translate(-1543.922 -2729.682)" fill="#846e63"/>
      <path id="Trazado_10573" data-name="Trazado 10573" d="M1562.9,2739.459c1.024-.306,1.875-.6,2.115-.658,11.589-2.844,16.338,2.479,15.709,1.722-.221-.265-2.608-7.3-17.393-4.1a10.658,10.658,0,0,0-4.3,1.732l-13.734-11.093-.758,1.047,12.982,10.968c-1.208.675-2.246,2.476-2.983,4.132-6.149,13.822-.028,18.218.186,18.489.613.769-3.35-5.59,1.8-16.356.132-.277.819-1.416,1.458-2.667a14.107,14.107,0,0,0,1.143,2.314c2.382,3.435,12.517,11.9,12.656,10.928a46.88,46.88,0,0,0-6.905-15.036A4.856,4.856,0,0,0,1562.9,2739.459Z" transform="translate(-1543.018 -2727.064)" fill="#846e63"/>
    </g>
    <g id="Grupo_3788" data-name="Grupo 3788" transform="translate(1456.322 2760.765)">
      <g id="Grupo_3785" data-name="Grupo 3785" transform="translate(0 46.932)">
        <path id="Trazado_10574" data-name="Trazado 10574" d="M1460.8,2814.026l.12-1.022s40.192-13.429,82.841,18.279c37.771,28.082,36.97,75.568,36.97,75.568l-2.307.878c-2.429-12.278-11.451-44.775-41.563-67.172C1505.821,2817.481,1475.188,2814.14,1460.8,2814.026Z" transform="translate(-1456.456 -2810.179)" fill="#f2d432"/>
        <path id="Trazado_10575" data-name="Trazado 10575" d="M1529.707,2850.287a212.974,212.974,0,0,0-69.177-33.909l.261-2.234c14.389.114,45.022,3.456,76.061,26.531,30.113,22.4,39.134,54.894,41.563,67.172l-2.252.859C1570.361,2895.608,1556.507,2870.207,1529.707,2850.287Z" transform="translate(-1456.448 -2810.297)" fill="#e29e30"/>
        <path id="Trazado_10576" data-name="Trazado 10576" d="M1526.382,2856.839c-23.027-17.115-66.387-36.014-66.387-36.014l.519-4.378a212.974,212.974,0,0,1,69.177,33.909c26.8,19.92,40.654,45.322,46.457,58.419l-1.623.617S1550.7,2874.917,1526.382,2856.839Z" transform="translate(-1456.432 -2810.366)" fill="#f2d432"/>
        <path id="Trazado_10577" data-name="Trazado 10577" d="M1460.752,2813.025l-.561,7.835a6.324,6.324,0,0,1-2.18-.822,3.99,3.99,0,0,1-.952-5.552A3.865,3.865,0,0,1,1460.752,2813.025Z" transform="translate(-1456.322 -2810.263)" fill="#4c542c"/>
        <path id="Trazado_10578" data-name="Trazado 10578" d="M1579.221,2910.406l1.64,4.484,3.37-1.78-1.973-4.114Z" transform="translate(-1459.993 -2813.131)" fill="#f2d432"/>
      </g>
      <g id="Grupo_3786" data-name="Grupo 3786" transform="translate(32.705 19.316)">
        <path id="Trazado_10579" data-name="Trazado 10579" d="M1495.276,2783.132l.409-.945s42.357-1.272,74.056,41.385c28.071,37.776,13.615,83.018,13.615,83.018l-2.462.174c1.214-12.456,1.943-46.175-20.435-76.3C1537.39,2799.419,1509.021,2787.39,1495.276,2783.132Z" transform="translate(-1490.191 -2781.727)" fill="#f2d432"/>
        <path id="Trazado_10580" data-name="Trazado 10580" d="M1550.819,2837.637a212.945,212.945,0,0,0-56.466-52.412l.9-2.063c13.745,4.258,42.114,16.287,65.183,47.332,22.378,30.126,21.648,63.845,20.435,76.3l-2.4.174C1576.682,2892.752,1570.739,2864.436,1550.819,2837.637Z" transform="translate(-1490.164 -2781.756)" fill="#e29e30"/>
        <path id="Trazado_10581" data-name="Trazado 10581" d="M1545.727,2842.954c-17.115-23.028-53.186-53.623-53.186-53.623l1.758-4.043a212.949,212.949,0,0,1,56.466,52.412c19.92,26.8,25.863,55.116,27.642,69.331l-1.731.122S1563.8,2867.277,1545.727,2842.954Z" transform="translate(-1490.109 -2781.82)" fill="#f2d432"/>
        <path id="Trazado_10582" data-name="Trazado 10582" d="M1495.514,2782.1l-2.795,7.341a6.32,6.32,0,0,1-1.851-1.416,3.989,3.989,0,0,1,.69-5.59A3.865,3.865,0,0,1,1495.514,2782.1Z" transform="translate(-1490.034 -2781.713)" fill="#4c542c"/>
        <path id="Trazado_10583" data-name="Trazado 10583" d="M1580.593,2910.136l.278,4.767,3.74-.733-.7-4.508Z" transform="translate(-1492.74 -2785.535)" fill="#f2d432"/>
      </g>
      <g id="Grupo_3787" data-name="Grupo 3787" transform="translate(74.274)">
        <path id="Trazado_10584" data-name="Trazado 10584" d="M1538.79,2763.721l.662-.79s40.973,10.809,59.254,60.711c16.188,44.193-10.521,83.467-10.521,83.467l-2.411-.531c4.7-11.6,14.976-43.724,2.075-78.964C1574.545,2791.3,1550.76,2771.706,1538.79,2763.721Z" transform="translate(-1533.06 -2761.836)" fill="#f2d432"/>
        <path id="Trazado_10585" data-name="Trazado 10585" d="M1576.559,2831.759a212.949,212.949,0,0,0-39.257-66.29l1.444-1.724c11.97,7.985,35.755,27.576,49.059,63.894,12.9,35.24,2.626,67.364-2.075,78.964l-2.354-.517C1585.706,2891.949,1588.048,2863.11,1576.559,2831.759Z" transform="translate(-1533.015 -2761.86)" fill="#e29e30"/>
        <path id="Trazado_10586" data-name="Trazado 10586" d="M1570.15,2835.419c-9.871-26.939-35.77-66.519-35.77-66.519l2.835-3.378a212.949,212.949,0,0,1,39.257,66.29c11.489,31.352,9.146,60.191,6.816,74.326l-1.695-.375S1580.576,2863.873,1570.15,2835.419Z" transform="translate(-1532.928 -2761.913)" fill="#f2d432"/>
        <path id="Trazado_10587" data-name="Trazado 10587" d="M1539.281,2762.826l-4.764,6.244a6.281,6.281,0,0,1-1.373-1.882,3.988,3.988,0,0,1,2.249-5.164A3.865,3.865,0,0,1,1539.281,2762.826Z" transform="translate(-1532.883 -2761.802)" fill="#4c542c"/>
        <path id="Trazado_10588" data-name="Trazado 10588" d="M1584.5,2909.734l-1.088,4.649,3.794.359.605-4.521Z" transform="translate(-1534.393 -2766.221)" fill="#f2d432"/>
      </g>
    </g>
    <g id="Grupo_3789" data-name="Grupo 3789" transform="translate(1522.041 2916.436)">
      <path id="Trazado_10589" data-name="Trazado 10589" d="M1537.934,2923.594s2,7.446.214,11.2c-2.415,5.076-12.283,9.408-13.7,16.833-2.091,10.927,4.831,17.563,8.857,19.047,1.469.542,2.444,2.376,5.665,2.667a9.31,9.31,0,0,0,6.1-1.656,8.568,8.568,0,0,0,7.205,1.132,7.481,7.481,0,0,0,4.491-3.521,13.261,13.261,0,0,0,6.98-1.824,14.33,14.33,0,0,0,2.692-3.34c1.72-2.494,4.778-2.9,5.411-10.514.4-4.828-2.6-10.687-5.245-13.156-6.065-5.674-14.4-5.4-18-8.9-1.789-1.742-3.677-9.291-3.677-9.291Z" transform="translate(-1524.064 -2922.267)" fill="#8db14c"/>
      <path id="Trazado_10590" data-name="Trazado 10590" d="M1542.433,2956.085c-.747-5.415-.015-10.669.308-14.917-3.08,2.21-5.621,8.563-4.662,15.516s4.208,12.455,7.774,13.751A70.7,70.7,0,0,1,1542.433,2956.085Z" transform="translate(-1524.477 -2922.832)" fill="#8db14c"/>
      <path id="Trazado_10591" data-name="Trazado 10591" d="M1564.49,2950.194a42.4,42.4,0,0,0-4.905-9.225,12.781,12.781,0,0,1,8.269,7.965c1.879,4.895,1.569,9.715-.526,11.915A48.623,48.623,0,0,0,1564.49,2950.194Z" transform="translate(-1525.125 -2922.826)" fill="#8db14c"/>
      <path id="Trazado_10592" data-name="Trazado 10592" d="M1532.05,2957.375a48.185,48.185,0,0,1,1.066-10.994,14.533,14.533,0,0,0-4.663,11.053c.047,5.242,2.1,9.616,4.856,10.894A48.647,48.647,0,0,1,1532.05,2957.375Z" transform="translate(-1524.195 -2922.987)" fill="#8db14c"/>
      <path id="Trazado_10593" data-name="Trazado 10593" d="M1554.653,2952.317a70.728,70.728,0,0,0-5.2-13.806c3.7.834,7.614,5.885,9.439,12.665s.968,13.111-1.813,15.691A71.066,71.066,0,0,0,1554.653,2952.317Z" transform="translate(-1524.823 -2922.753)" fill="#8db14c"/>
    </g>
    <g id="Grupo_3793" data-name="Grupo 3793" transform="translate(1560.457 2786.124)">
      <rect id="Rectángulo_1051" data-name="Rectángulo 1051" width="3.26" height="19.324" transform="translate(30.527 5.085) rotate(-11.862)" fill="#4c87cd"/>
      <path id="Trazado_10594" data-name="Trazado 10594" d="M1595.556,2799.524l-8.376-2.65c.069-4.133-4.069-7.162-6.77-8.253-5.952-2.4-16.746,2.338-16.746,2.338s4.887,9.73,10.263,11.77c4.988,1.886,10.852,1.165,12.726-3.425l9.524,3.176Z" transform="translate(-1563.664 -2787.942)" fill="#4c87cd"/>
      <g id="Grupo_3790" data-name="Grupo 3790" transform="translate(8.248 14.066)">
        <path id="Trazado_10595" data-name="Trazado 10595" d="M1600.257,2807.067l0,.012Z" transform="translate(-1573.005 -2802.58)" fill="#4c87cd"/>
        <path id="Trazado_10596" data-name="Trazado 10596" d="M1599.388,2807.262l0-.013Z" transform="translate(-1572.979 -2802.585)" fill="#4c87cd"/>
        <path id="Trazado_10597" data-name="Trazado 10597" d="M1608.071,2803.68a66.306,66.306,0,0,1-9.454,3.641c-1.059.228-3.523.45-9.271.293-8.95-.244-19.909,9.878-16.565,25.964,2.579,12.421,18.56,30.594,28.358,28.535,2.267-.476,6.36-5.5,8.2-5.885s7.6,2.566,9.873,2.089c9.8-2.059,17.109-25.125,14.478-37.535C1630.273,2804.711,1616.167,2799.855,1608.071,2803.68Z" transform="translate(-1572.166 -2802.442)" fill="#4c87cd"/>
      </g>
      <g id="Grupo_3791" data-name="Grupo 3791" transform="translate(15.82 29.38)">
        <path id="Trazado_10598" data-name="Trazado 10598" d="M1588.364,2818.227c-4.884,1.144-9.793,6.885-8.024,15.417.97,4.665,5.079,10.671,9.462,14.236a38.751,38.751,0,0,1-3.686-9.729C1584.469,2830.214,1585.648,2823.458,1588.364,2818.227Z" transform="translate(-1579.971 -2818.227)" fill="#4c87cd"/>
      </g>
      <g id="Grupo_3792" data-name="Grupo 3792" transform="translate(3.307 2.063)">
        <path id="Trazado_10599" data-name="Trazado 10599" d="M1567.167,2792.209c-.057-.016-.089-.026-.094-.026A.67.67,0,0,0,1567.167,2792.209Z" transform="translate(-1567.072 -2790.132)" fill="#4c87cd"/>
        <path id="Trazado_10600" data-name="Trazado 10600" d="M1584.753,2797.88c6.038,1.979,11.235,3.265,11.235,3.265l-.464-2.207-10.646-2.54-2.026-3.977.608,3.638-4.111-.982-1.336-5.008.333,4.767h0c-1.926-.461-3.777-.9-5.4-1.293l-.743-3.474.173,3.337c-2.759-.663-4.763-1.147-5.2-1.26.446.136,2.457.787,5.224,1.69h0l-3.074,2.048,3.645-1.863c1.457.475,3.1,1.011,4.811,1.573l-4.547,2.889,5.7-2.514,4.575,1.5-4.151,4.117Z" transform="translate(-1567.075 -2790.069)" fill="#4c87cd"/>
      </g>
    </g>
    <g id="Grupo_3794" data-name="Grupo 3794" transform="translate(1686.77 2752.299)">
      <path id="Trazado_10601" data-name="Trazado 10601" d="M1708.071,2959.417c-10.617-5.369-15.162-20.386-14.038-40.664l13.836,6.992a6.5,6.5,0,1,0,5.859-11.6l-18.165-9.186c.677-4.26,1.555-8.677,2.636-13.223l21.394,10.809a6.5,6.5,0,1,0,5.858-11.6l-23.763-12.01q1.873-6.125,4.179-12.45l25.451,12.857a6.5,6.5,0,1,0,5.856-11.6l-26.519-13.4c1.659-3.934,3.423-7.894,5.328-11.872l27.06,13.681a6.5,6.5,0,0,0,5.861-11.6l-27.057-13.679q3.108-5.832,6.392-11.328l26.524,13.406a6.5,6.5,0,1,0,5.861-11.6l-25.446-12.861q3.715-5.6,7.55-10.753l23.76,12.011a6.5,6.5,0,1,0,5.865-11.6l-21.391-10.811q4.527-5.357,9.084-9.967l18.166,9.176a6.5,6.5,0,1,0,5.866-11.593l-13.832-6.992c15.656-12.932,30.447-18.176,41.068-12.811.282.144.535.324.812.477.273.1.54.232.8.359a12.286,12.286,0,0,1,5.168,16.372l-10.723,21.22-70.692,139.866-10.726,21.222a12.286,12.286,0,0,1-16.244,5.549c-.257-.136-.518-.282-.766-.438C1708.653,2959.661,1708.363,2959.557,1708.071,2959.417Z" transform="translate(-1693.866 -2753.076)" fill="#99cac3"/>
      <path id="Trazado_10602" data-name="Trazado 10602" d="M1752.451,2855.679a6.5,6.5,0,0,1-8.728,2.873l-27.06-13.681c.93-1.943,1.873-3.883,2.858-5.829s1.987-3.87,3.005-5.77l27.057,13.679A6.491,6.491,0,0,1,1752.451,2855.679Z" transform="translate(-1694.547 -2755.472)" fill="#99cac3"/>
      <path id="Trazado_10603" data-name="Trazado 10603" d="M1764.553,2831.793a6.5,6.5,0,0,1-8.733,2.868l-26.524-13.406q3.4-5.723,6.939-11.051l25.446,12.861A6.5,6.5,0,0,1,1764.553,2831.793Z" transform="translate(-1694.924 -2754.783)" fill="#99cac3"/>
      <path id="Trazado_10604" data-name="Trazado 10604" d="M1728.456,2903.552a6.5,6.5,0,0,1-8.73,2.87l-21.394-10.809q1.5-6.256,3.489-12.8l23.763,12.01A6.493,6.493,0,0,1,1728.456,2903.552Z" transform="translate(-1693.999 -2756.952)" fill="#99cac3"/>
      <path id="Trazado_10605" data-name="Trazado 10605" d="M1740.413,2879.6a6.491,6.491,0,0,1-8.725,2.86l-25.451-12.857c1.466-4.006,3.062-8.063,4.788-12.141l26.519,13.4A6.5,6.5,0,0,1,1740.413,2879.6Z" transform="translate(-1694.236 -2756.195)" fill="#99cac3"/>
      <path id="Trazado_10606" data-name="Trazado 10606" d="M1716.6,2927.554a6.5,6.5,0,0,1-8.729,2.868l-13.836-6.992a136.188,136.188,0,0,1,1.53-13.793l18.165,9.186A6.5,6.5,0,0,1,1716.6,2927.554Z" transform="translate(-1693.871 -2757.753)" fill="#99cac3"/>
      <path id="Trazado_10607" data-name="Trazado 10607" d="M1776.722,2807.946a6.5,6.5,0,0,1-8.731,2.865l-23.76-12.011q4.073-5.482,8.234-10.4l21.391,10.811A6.5,6.5,0,0,1,1776.722,2807.946Z" transform="translate(-1695.37 -2754.132)" fill="#99cac3"/>
      <path id="Trazado_10608" data-name="Trazado 10608" d="M1788.98,2784.148a6.492,6.492,0,0,1-8.732,2.867l-18.166-9.176a135.315,135.315,0,0,1,10.2-9.409l13.832,6.992A6.489,6.489,0,0,1,1788.98,2784.148Z" transform="translate(-1695.904 -2753.535)" fill="#99cac3"/>
    </g>
    <g id="Grupo_3796" data-name="Grupo 3796" transform="translate(1493.8 2841.156)">
      <g id="Grupo_3795" data-name="Grupo 3795" transform="translate(26.888 26.894)">
        <rect id="Rectángulo_1052" data-name="Rectángulo 1052" width="238.592" height="6.019" transform="translate(0 94.567)" fill="#2c49b8"/>
        <rect id="Rectángulo_1053" data-name="Rectángulo 1053" width="238.277" height="2.099" transform="translate(0.315 94.567)" fill="#3b60d8"/>
        <rect id="Rectángulo_1054" data-name="Rectángulo 1054" width="238.592" height="6.018" transform="translate(0 73.176)" fill="#2c49b8"/>
        <rect id="Rectángulo_1055" data-name="Rectángulo 1055" width="238.277" height="2.099" transform="translate(0.315 73.176)" fill="#3b60d8"/>
        <rect id="Rectángulo_1056" data-name="Rectángulo 1056" width="128.583" height="58.181" transform="translate(55.005 42.405)" fill="#2c49b8"/>
        <rect id="Rectángulo_1057" data-name="Rectángulo 1057" width="128.583" height="2.899" transform="translate(55.005 42.307)" fill="#3b60d8"/>
        <rect id="Rectángulo_1058" data-name="Rectángulo 1058" width="5.548" height="139.725" transform="translate(18.886)" fill="#2c49b8"/>
        <rect id="Rectángulo_1059" data-name="Rectángulo 1059" width="5.548" height="139.725" transform="translate(35.533)" fill="#2c49b8"/>
        <rect id="Rectángulo_1060" data-name="Rectángulo 1060" width="5.548" height="139.725" transform="translate(55.005)" fill="#2c49b8"/>
        <rect id="Rectángulo_1061" data-name="Rectángulo 1061" width="5.548" height="139.725" transform="translate(178.04)" fill="#2c49b8"/>
        <rect id="Rectángulo_1062" data-name="Rectángulo 1062" width="5.549" height="139.725" transform="translate(196.652)" fill="#2c49b8"/>
        <rect id="Rectángulo_1063" data-name="Rectángulo 1063" width="5.548" height="139.725" transform="translate(213.298)" fill="#2c49b8"/>
        <rect id="Rectángulo_1064" data-name="Rectángulo 1064" width="5.548" height="139.725" transform="translate(71.651)" fill="#2c49b8"/>
        <rect id="Rectángulo_1065" data-name="Rectángulo 1065" width="5.548" height="139.725" transform="translate(88.297)" fill="#2c49b8"/>
        <rect id="Rectángulo_1066" data-name="Rectángulo 1066" width="5.548" height="139.725" transform="translate(104.943)" fill="#2c49b8"/>
        <rect id="Rectángulo_1067" data-name="Rectángulo 1067" width="5.548" height="139.725" transform="translate(124.415)" fill="#2c49b8"/>
        <rect id="Rectángulo_1068" data-name="Rectángulo 1068" width="5.549" height="139.725" transform="translate(141.061)" fill="#2c49b8"/>
        <rect id="Rectángulo_1069" data-name="Rectángulo 1069" width="5.549" height="139.725" transform="translate(160.533)" fill="#2c49b8"/>
      </g>
      <path id="Trazado_10609" data-name="Trazado 10609" d="M1504.951,2868.382l7.567,137.819a15.013,15.013,0,0,0,15.013,15.014h227.812a15.014,15.014,0,0,0,15.013-15.014l7.567-137.819Zm248.69,130.5a4.29,4.29,0,0,1-4.29,4.289h-215.83a4.29,4.29,0,0,1-4.29-4.289v-115.6a4.29,4.29,0,0,1,4.29-4.29h215.83a4.29,4.29,0,0,1,4.29,4.29Z" transform="translate(-1495.253 -2845.377)" fill="#2c49b8"/>
      <path id="Trazado_10610" data-name="Trazado 10610" d="M1732.793,3025.921H1529.1l1.513,9.333h69.891l2.167-5.042h78.967l2.167,5.042H1753.7l1.513-9.333Z" transform="translate(-1495.974 -2850.084)" fill="#1d2f6e"/>
      <path id="Trazado_10611" data-name="Trazado 10611" d="M1494.954,2849.945v29.09a4.29,4.29,0,0,0,4.29,4.289h283.789a4.29,4.29,0,0,0,4.29-4.289v-29.09Z" transform="translate(-1494.954 -2844.827)" fill="#496fd3"/>
      <rect id="Rectángulo_1070" data-name="Rectángulo 1070" width="292.368" height="5.118" transform="translate(0)" fill="#679ffb"/>
    </g>
    <g id="Grupo_3799" data-name="Grupo 3799" transform="translate(1626.616 2727.13)">
      <g id="Grupo_3797" data-name="Grupo 3797">
        <path id="Trazado_10612" data-name="Trazado 10612" d="M1642.723,2729.214l-2.656,0h-3.918a4.294,4.294,0,0,0-4.288,4.292l.051,130.691a4.289,4.289,0,0,0,4.291,4.288l9.155,0-.054-139.271Z" transform="translate(-1631.86 -2727.194)" fill="#383938"/>
        <path id="Trazado_10613" data-name="Trazado 10613" d="M1656.582,2729.565a4.274,4.274,0,0,0-1.709-.355H1648.3l-2.582,0,.054,139.271,9.156,0a4.291,4.291,0,0,0,4.288-4.292l-.052-130.691A4.289,4.289,0,0,0,1656.582,2729.565Z" transform="translate(-1632.274 -2727.194)" fill="#272425"/>
        <path id="Trazado_10614" data-name="Trazado 10614" d="M1637.3,2728.479a1.34,1.34,0,0,0-1.341-1.339h0a1.339,1.339,0,0,0-1.339,1.34l0,11.811a1.341,1.341,0,0,0,1.341,1.339h0a1.339,1.339,0,0,0,1.339-1.341Z" transform="translate(-1631.943 -2727.132)" fill="#272425"/>
        <path id="Trazado_10615" data-name="Trazado 10615" d="M1642.827,2728.477a1.342,1.342,0,0,0-1.341-1.339h0a1.339,1.339,0,0,0-1.34,1.34l0,11.809a1.34,1.34,0,0,0,1.341,1.34h0a1.34,1.34,0,0,0,1.34-1.34Z" transform="translate(-1632.108 -2727.132)" fill="#272425"/>
        <path id="Trazado_10616" data-name="Trazado 10616" d="M1651.183,2728.474a1.34,1.34,0,0,0-1.34-1.34h0a1.34,1.34,0,0,0-1.34,1.341l0,11.809a1.341,1.341,0,0,0,1.341,1.34h0a1.341,1.341,0,0,0,1.34-1.341Z" transform="translate(-1632.357 -2727.132)" fill="#1a1819"/>
        <path id="Trazado_10617" data-name="Trazado 10617" d="M1656.708,2728.472a1.34,1.34,0,0,0-1.341-1.34h0a1.34,1.34,0,0,0-1.339,1.341l0,11.81a1.339,1.339,0,0,0,1.341,1.339h0a1.34,1.34,0,0,0,1.34-1.34Z" transform="translate(-1632.522 -2727.132)" fill="#1a1819"/>
      </g>
      <g id="Grupo_3798" data-name="Grupo 3798" transform="translate(8.099 123.74)">
        <path id="Trazado_10618" data-name="Trazado 10618" d="M1640.208,2860.079a5.394,5.394,0,0,0,5.4,5.393l0-10.79A5.394,5.394,0,0,0,1640.208,2860.079Z" transform="translate(-1640.208 -2854.682)" fill="#babcbe"/>
        <path id="Trazado_10619" data-name="Trazado 10619" d="M1651.164,2860.075a5.394,5.394,0,0,0-5.4-5.393l0,10.79A5.4,5.4,0,0,0,1651.164,2860.075Z" transform="translate(-1640.374 -2854.682)" fill="#59595b"/>
        <path id="Trazado_10620" data-name="Trazado 10620" d="M1641.858,2860.111a4.761,4.761,0,0,1,2.854-4.363,4.452,4.452,0,0,0,0,8.719A4.761,4.761,0,0,1,1641.858,2860.111Z" transform="translate(-1640.236 -2854.714)" fill="#cfd1d2"/>
      </g>
    </g>
  </g>
</svg>
