<svg xmlns="http://www.w3.org/2000/svg" width="420.597" height="282.862" viewBox="0 0 420.597 282.862">
  <g id="Grupo_5130" data-name="Grupo 5130" transform="translate(-219.357 -176.479)">
    <path id="Trazado_14103" data-name="Trazado 14103" d="M624.57,330.1c-8.529-7.027-23.425-1.287-32.809,5.933-11.8,9.079-8.826,15.792-23.062,14.642-3.894-.315-8.061-2.351-9.547-6.436-2.005-5.512,1.627-11.364,4.633-16.259,9.136-14.883,8.426-30.514,6.342-48.481s-19.372-29.4-33.714-37.464-33.129-5.94-44.746,6.533c-7.934,8.519-11.963,20.549-17.665,31.11s-14.693,20.6-25.629,20.355c-13.223-.3-32.092-15.107-34.548-29.811s-.466-30.022-3.022-44.7c-4.832-27.757-25.844-46.869-50.847-46.741s-50.645,20.756-51.793,49.016c-.624,15.386,8.445,45.293.845,58.07-6.868,11.547-22.49,18.13-33.312,12.226-29.043-15.843-45.858-.589-51.454,18.536-6.261,21.4-6.512,39.587-.7,61.373s18.6,39.05,32.944,55c21.847,24.286,64.217,20.975,68.856,20.882,87.5-1.763,130.816-5.3,218.278-1.912,34.675,1.345,63.65-26.167,84.657-60.309.713-1.158,0,1.36,0,0,0,0,13.963-14.314,11.354-33.726C637.957,345.486,628.252,333.13,624.57,330.1Z" fill="#99cac3" opacity="0.1"/>
    <g id="Grupo_5035" data-name="Grupo 5035">
      <g id="Grupo_5034" data-name="Grupo 5034">
        <g id="Grupo_5033" data-name="Grupo 5033">
          <path id="Trazado_14104" data-name="Trazado 14104" d="M242.474,336.091a2.09,2.09,0,1,1-2.09,2.09A2.09,2.09,0,0,1,242.474,336.091Z" fill="#99cac3"/>
          <path id="Trazado_14105" data-name="Trazado 14105" d="M254.107,336.11l-2.921-.548a8.97,8.97,0,0,0-.7-1.691l1.691-2.472a.629.629,0,0,0-.072-.767l-2.085-2.086a.629.629,0,0,0-.768-.071l-2.472,1.691a9.044,9.044,0,0,0-1.743-.712l-.545-2.907a.63.63,0,0,0-.594-.493h-2.947a.631.631,0,0,0-.6.493l-.551,2.935a9.12,9.12,0,0,0-1.672.7l-2.44-1.669a.63.63,0,0,0-.769.071l-2.085,2.085a.63.63,0,0,0-.071.769l1.68,2.456a9,9,0,0,0-.688,1.67l-2.921.548a.629.629,0,0,0-.493.594v2.948a.631.631,0,0,0,.494.6l2.918.547a9.017,9.017,0,0,0,.7,1.7l-1.661,2.428a.63.63,0,0,0,.071.769l2.086,2.086a.63.63,0,0,0,.767.071l2.428-1.662a9.112,9.112,0,0,0,1.655.69l.55,2.934a.629.629,0,0,0,.594.494H243.9a.63.63,0,0,0,.6-.494l.545-2.9a9.166,9.166,0,0,0,1.725-.7l2.456,1.681a.633.633,0,0,0,.771-.071l2.084-2.085a.629.629,0,0,0,.072-.767l-1.673-2.444a9.114,9.114,0,0,0,.713-1.726l2.917-.547a.631.631,0,0,0,.494-.595V336.7A.624.624,0,0,0,254.107,336.11Zm-10.644,7.036a5.062,5.062,0,1,1,3.976-3.971A5.066,5.066,0,0,1,243.463,343.146Z" fill="#99cac3"/>
        </g>
      </g>
    </g>
    <g id="Grupo_5038" data-name="Grupo 5038">
      <g id="Grupo_5037" data-name="Grupo 5037">
        <g id="Grupo_5036" data-name="Grupo 5036">
          <path id="Trazado_14106" data-name="Trazado 14106" d="M277.28,388.877a1.655,1.655,0,1,1-2.2-.785A1.655,1.655,0,0,1,277.28,388.877Z" fill="#99cac3"/>
          <path id="Trazado_14107" data-name="Trazado 14107" d="M281.217,397.2l-.6-2.276a7.1,7.1,0,0,0,.972-1.074l2.342.37a.5.5,0,0,0,.525-.312l.783-2.2a.5.5,0,0,0-.209-.574l-2.05-1.194a7.161,7.161,0,0,0-.082-1.488l1.894-1.377a.5.5,0,0,0,.15-.592l-1-2.109a.5.5,0,0,0-.554-.257l-2.286.6a7.115,7.115,0,0,0-1.068-.959l.365-2.313a.5.5,0,0,0-.312-.526l-2.2-.783a.5.5,0,0,0-.574.21l-1.186,2.036a7.14,7.14,0,0,0-1.428.076l-1.384-1.9a.5.5,0,0,0-.593-.151l-2.108,1a.5.5,0,0,0-.258.556l.6,2.273a7.153,7.153,0,0,0-.981,1.081l-2.3-.363a.5.5,0,0,0-.525.312l-.783,2.2a.5.5,0,0,0,.209.573l2.013,1.172a7.264,7.264,0,0,0,.069,1.418l-1.912,1.39a.5.5,0,0,0-.151.593l1,2.109a.5.5,0,0,0,.555.257l2.263-.6a7.2,7.2,0,0,0,1.089,1l-.369,2.328a.5.5,0,0,0,.313.527l2.2.783a.5.5,0,0,0,.573-.209l1.18-2.027a7.188,7.188,0,0,0,1.477-.076l1.381,1.9a.5.5,0,0,0,.594.151l2.108-1A.5.5,0,0,0,281.217,397.2Zm-8.648-5.223a4.009,4.009,0,1,1,4.191,1.494A4.012,4.012,0,0,1,272.569,391.981Z" fill="#99cac3"/>
        </g>
      </g>
    </g>
    <g id="Grupo_5041" data-name="Grupo 5041">
      <g id="Grupo_5040" data-name="Grupo 5040">
        <g id="Grupo_5039" data-name="Grupo 5039">
          <path id="Trazado_14108" data-name="Trazado 14108" d="M457.933,249.321a4.425,4.425,0,1,1-6.131,1.25A4.424,4.424,0,0,1,457.933,249.321Z" fill="#99cac3"/>
          <path id="Trazado_14109" data-name="Trazado 14109" d="M478.449,262.937l-4.518-4.378a19.1,19.1,0,0,0,.741-3.8l5.87-2.39a1.33,1.33,0,0,0,.77-1.438l-1.245-6.117a1.332,1.332,0,0,0-1.273-1.023l-6.34.1a19.123,19.123,0,0,0-2.245-3.293l2.432-5.767a1.333,1.333,0,0,0-.473-1.564l-5.2-3.442a1.335,1.335,0,0,0-1.625.177l-4.4,4.538a19.1,19.1,0,0,0-3.768-.72l-2.359-5.8a1.335,1.335,0,0,0-1.441-.772l-6.115,1.247a1.334,1.334,0,0,0-1.024,1.274l.1,6.3a19.169,19.169,0,0,0-3.165,2.147l-5.795-2.444a1.332,1.332,0,0,0-1.565.473l-3.442,5.2a1.335,1.335,0,0,0,.177,1.627l4.513,4.373a19.132,19.132,0,0,0-.75,3.831l-5.768,2.348a1.332,1.332,0,0,0-.771,1.44l1.247,6.118a1.329,1.329,0,0,0,1.271,1.021l6.226-.1a19.265,19.265,0,0,0,2.117,3.15l-2.456,5.823a1.335,1.335,0,0,0,.474,1.566l5.2,3.442a1.335,1.335,0,0,0,1.627-.177l4.354-4.493a19.334,19.334,0,0,0,3.866.773l2.374,5.837a1.335,1.335,0,0,0,1.443.773l6.115-1.247a1.328,1.328,0,0,0,1.021-1.27l-.1-6.269a19.163,19.163,0,0,0,3.275-2.213l5.787,2.44a1.336,1.336,0,0,0,1.568-.475l3.442-5.2A1.324,1.324,0,0,0,478.449,262.937Zm-27.008-.005a10.716,10.716,0,1,1,11.656-2.37A10.726,10.726,0,0,1,451.441,262.932Z" fill="#99cac3"/>
        </g>
      </g>
    </g>
    <g id="Grupo_5044" data-name="Grupo 5044">
      <g id="Grupo_5043" data-name="Grupo 5043">
        <g id="Grupo_5042" data-name="Grupo 5042">
          <path id="Trazado_14110" data-name="Trazado 14110" d="M599.941,272.846c-.861.765-2.085.43-2.085-1.061V268.2a1.979,1.979,0,0,0-1.969-1.969h-2.514a4.185,4.185,0,0,1,.44,1.845,4.017,4.017,0,0,1-4.092,3.976h-.153a4.017,4.017,0,0,1-4.091-3.976,4.121,4.121,0,0,1,.44-1.845H583.25a1.932,1.932,0,0,0-1.931,1.931v3.623c0,1.491-1.243,1.816-2.1,1.061a2.236,2.236,0,1,0-.009,3.4c.86-.765,2.113-.43,2.113,1.061v3.547a1.932,1.932,0,0,0,1.931,1.931h3.594c1.491,0,1.816,1.252,1.061,2.112a2.245,2.245,0,1,0,3.4,0c-.765-.86-.43-2.122,1.061-2.122h3.576a1.932,1.932,0,0,0,1.931-1.931V277.3c0-1.491,1.214-1.816,2.074-1.061a2.229,2.229,0,1,0-.009-3.393Z" fill="#99cac3"/>
        </g>
      </g>
      <path id="Trazado_14111" data-name="Trazado 14111" d="M515.666,181.593l1.286-1.286-1.287-1.286a1.489,1.489,0,1,1,2.106-2.106l1.287,1.287,1.286-1.287a1.489,1.489,0,0,1,2.106,2.106l-1.287,1.286,1.286,1.286a1.489,1.489,0,1,1-2.106,2.106l-1.285-1.286-1.286,1.286a1.489,1.489,0,0,1-2.106-2.106Z" fill="#99cac3"/>
      <path id="Trazado_14112" data-name="Trazado 14112" d="M259.241,273.381l1.285-1.285-1.286-1.286a1.489,1.489,0,0,1,2.106-2.106l1.286,1.286,1.286-1.286a1.489,1.489,0,1,1,2.106,2.106l-1.286,1.286,1.285,1.285a1.489,1.489,0,0,1-2.106,2.106l-1.285-1.285-1.285,1.285a1.489,1.489,0,0,1-2.106-2.106Z" fill="#99cac3"/>
      <path id="Trazado_14113" data-name="Trazado 14113" d="M612.645,376.991l1.286-1.286-1.287-1.285a1.49,1.49,0,0,1,2.106-2.107l1.287,1.287,1.286-1.287a1.49,1.49,0,0,1,2.106,2.107l-1.287,1.285,1.286,1.286a1.489,1.489,0,1,1-2.106,2.106l-1.285-1.286-1.286,1.286a1.489,1.489,0,1,1-2.106-2.106Z" fill="#99cac3"/>
      <path id="Trazado_14114" data-name="Trazado 14114" d="M239.557,376.61l1.286-1.285-1.286-1.286a1.489,1.489,0,1,1,2.106-2.106l1.286,1.287,1.286-1.287a1.489,1.489,0,1,1,2.106,2.106l-1.286,1.286,1.285,1.285a1.49,1.49,0,0,1-2.106,2.107l-1.285-1.286-1.285,1.286a1.49,1.49,0,0,1-2.107-2.107Z" fill="#99cac3"/>
    </g>
    <g id="Grupo_5129" data-name="Grupo 5129">
      <g id="Grupo_5049" data-name="Grupo 5049">
        <g id="Grupo_5045" data-name="Grupo 5045">
          <path id="Trazado_14115" data-name="Trazado 14115" d="M351.487,455.714h7.943a9.983,9.983,0,0,0,9.983-9.978v-79.63h-27.9v79.63A9.974,9.974,0,0,0,351.487,455.714Z" fill="#99c4a7"/>
        </g>
        <g id="Grupo_5046" data-name="Grupo 5046">
          <rect id="Rectángulo_2645" data-name="Rectángulo 2645" width="27.898" height="14.83" transform="translate(341.514 351.276)" fill="#99c4a7"/>
        </g>
        <g id="Grupo_5047" data-name="Grupo 5047">
          <path id="Trazado_14116" data-name="Trazado 14116" d="M373.641,364.928a3.634,3.634,0,0,1-3.636,3.636H340.7a3.637,3.637,0,0,1-3.637-3.636h0a3.639,3.639,0,0,1,3.637-3.637h29.3a3.635,3.635,0,0,1,3.636,3.637Z" fill="#99c4a7"/>
        </g>
        <g id="Grupo_5048" data-name="Grupo 5048">
          <path id="Trazado_14117" data-name="Trazado 14117" d="M373.641,350.963a3.634,3.634,0,0,1-3.636,3.636H340.7a3.637,3.637,0,0,1-3.637-3.636h0a3.634,3.634,0,0,1,3.637-3.635h29.3a3.631,3.631,0,0,1,3.636,3.635Z" fill="#99c4a7"/>
        </g>
      </g>
      <g id="Grupo_5054" data-name="Grupo 5054">
        <g id="Grupo_5050" data-name="Grupo 5050">
          <path id="Trazado_14118" data-name="Trazado 14118" d="M351.487,455.714h7.943a9.983,9.983,0,0,0,9.983-9.978v-79.63h-27.9v79.63A9.974,9.974,0,0,0,351.487,455.714Z" fill="#99c4a7"/>
        </g>
        <g id="Grupo_5051" data-name="Grupo 5051">
          <rect id="Rectángulo_2646" data-name="Rectángulo 2646" width="27.898" height="14.83" transform="translate(341.514 351.276)" fill="#99c4a7"/>
        </g>
        <g id="Grupo_5052" data-name="Grupo 5052">
          <path id="Trazado_14119" data-name="Trazado 14119" d="M373.641,364.928a3.634,3.634,0,0,1-3.636,3.636H340.7a3.637,3.637,0,0,1-3.637-3.636h0a3.639,3.639,0,0,1,3.637-3.637h29.3a3.635,3.635,0,0,1,3.636,3.637Z" fill="#99c4a7"/>
        </g>
        <g id="Grupo_5053" data-name="Grupo 5053">
          <path id="Trazado_14120" data-name="Trazado 14120" d="M373.641,350.963a3.634,3.634,0,0,1-3.636,3.636H340.7a3.637,3.637,0,0,1-3.637-3.636h0a3.634,3.634,0,0,1,3.637-3.635h29.3a3.631,3.631,0,0,1,3.636,3.635Z" fill="#99c4a7"/>
        </g>
      </g>
      <g id="Grupo_5058" data-name="Grupo 5058">
        <g id="Grupo_5055" data-name="Grupo 5055">
          <path id="Trazado_14121" data-name="Trazado 14121" d="M513.084,413.933a39.87,39.87,0,1,1-39.87-39.867A39.872,39.872,0,0,1,513.084,413.933Z" fill="#99c4a7"/>
        </g>
        <g id="Grupo_5056" data-name="Grupo 5056">
          <rect id="Rectángulo_2647" data-name="Rectángulo 2647" width="27.779" height="82.423" transform="translate(459.327 331.491)" fill="#99c4a7"/>
        </g>
        <g id="Grupo_5057" data-name="Grupo 5057">
          <path id="Trazado_14122" data-name="Trazado 14122" d="M492.274,334.562a5.287,5.287,0,0,1-5.285,5.286H458.138a5.291,5.291,0,0,1-5.287-5.286V331.7a5.286,5.286,0,0,1,5.287-5.284h28.851a5.283,5.283,0,0,1,5.285,5.284Z" fill="#99c4a7"/>
        </g>
      </g>
      <g id="Grupo_5059" data-name="Grupo 5059">
        <path id="Trazado_14123" data-name="Trazado 14123" d="M381.906,378.731a8.933,8.933,0,1,1-8.932-8.933A8.933,8.933,0,0,1,381.906,378.731Z" fill="#efc330"/>
      </g>
      <g id="Grupo_5060" data-name="Grupo 5060">
        <path id="Trazado_14124" data-name="Trazado 14124" d="M402.521,380.7a12.95,12.95,0,1,1-12.948-12.95A12.947,12.947,0,0,1,402.521,380.7Z" fill="#efc330"/>
      </g>
      <g id="Grupo_5061" data-name="Grupo 5061">
        <path id="Trazado_14125" data-name="Trazado 14125" d="M425.267,377.321a12.949,12.949,0,1,1-12.948-12.95A12.945,12.945,0,0,1,425.267,377.321Z" fill="#efc330"/>
      </g>
      <g id="Grupo_5062" data-name="Grupo 5062">
        <rect id="Rectángulo_2648" data-name="Rectángulo 2648" width="87.615" height="5.597" transform="translate(418.845 292.699)" fill="#30345c"/>
      </g>
      <g id="Grupo_5063" data-name="Grupo 5063">
        <rect id="Rectángulo_2649" data-name="Rectángulo 2649" width="100.912" height="11.129" transform="translate(435.909 443.435)" fill="#eed2c9"/>
      </g>
      <g id="Grupo_5064" data-name="Grupo 5064">
        <rect id="Rectángulo_2650" data-name="Rectángulo 2650" width="9.643" height="95.518" transform="translate(510.106 272.037)" fill="#fff"/>
      </g>
      <g id="Grupo_5065" data-name="Grupo 5065">
        <rect id="Rectángulo_2651" data-name="Rectángulo 2651" width="4.823" height="95.518" transform="translate(510.106 272.037)" fill="#f3f3f3"/>
      </g>
      <g id="Grupo_5066" data-name="Grupo 5066">
        <path id="Trazado_14126" data-name="Trazado 14126" d="M525.691,432.3a7.421,7.421,0,0,1-7.421,7.422h-5.934a7.424,7.424,0,0,1-7.424-7.422V357.421a7.422,7.422,0,0,1,7.424-7.42h5.934a7.42,7.42,0,0,1,7.421,7.42Z" fill="#30345c"/>
      </g>
      <g id="Grupo_5067" data-name="Grupo 5067">
        <rect id="Rectángulo_2652" data-name="Rectángulo 2652" width="16.947" height="5.912" transform="translate(506.46 270.01)" fill="#30345c"/>
      </g>
      <g id="Grupo_5069" data-name="Grupo 5069">
        <g id="Grupo_5068" data-name="Grupo 5068">
          <path id="Trazado_14127" data-name="Trazado 14127" d="M522.008,360.825a6.706,6.706,0,1,1-6.708-6.705A6.705,6.705,0,0,1,522.008,360.825Z" fill="#fff"/>
        </g>
      </g>
      <g id="Grupo_5070" data-name="Grupo 5070">
        <path id="Trazado_14128" data-name="Trazado 14128" d="M518.151,360.825a2.9,2.9,0,1,1-2.9-2.9A2.9,2.9,0,0,1,518.151,360.825Z" fill="#5c498f"/>
      </g>
      <g id="Grupo_5071" data-name="Grupo 5071">
        <rect id="Rectángulo_2653" data-name="Rectángulo 2653" width="78.652" height="14.65" transform="translate(452.233 428.785)" fill="#5f648f"/>
      </g>
      <g id="Grupo_5072" data-name="Grupo 5072">
        <rect id="Rectángulo_2654" data-name="Rectángulo 2654" width="78.652" height="7.326" transform="translate(452.233 436.109)" fill="#4b527a"/>
      </g>
      <g id="Grupo_5073" data-name="Grupo 5073">
        <rect id="Rectángulo_2655" data-name="Rectángulo 2655" width="31.906" height="9.94" transform="translate(498.979 290.529)" fill="#fff"/>
      </g>
      <g id="Grupo_5074" data-name="Grupo 5074">
        <rect id="Rectángulo_2656" data-name="Rectángulo 2656" width="31.906" height="4.971" transform="translate(498.979 295.498)" fill="#f3f3f3"/>
      </g>
      <g id="Grupo_5075" data-name="Grupo 5075">
        <path id="Trazado_14129" data-name="Trazado 14129" d="M422.487,453.375h-61.8V388.368l-5.337-11.046h72.466l-5.334,11.046Z" fill="#fff"/>
      </g>
      <g id="Grupo_5076" data-name="Grupo 5076">
        <rect id="Rectángulo_2657" data-name="Rectángulo 2657" width="47.42" height="52.165" transform="translate(367.858 394.708)" fill="#efc330"/>
      </g>
      <g id="Grupo_5077" data-name="Grupo 5077">
        <path id="Trazado_14130" data-name="Trazado 14130" d="M387.593,399.253a7.309,7.309,0,1,1-7.309-7.31A7.31,7.31,0,0,1,387.593,399.253Z" fill="#f1da7a"/>
      </g>
      <g id="Grupo_5078" data-name="Grupo 5078">
        <path id="Trazado_14131" data-name="Trazado 14131" d="M386.456,401.6a6.741,6.741,0,1,1-6.741-6.745A6.744,6.744,0,0,1,386.456,401.6Z" fill="#efc330"/>
      </g>
      <g id="Grupo_5079" data-name="Grupo 5079">
        <path id="Trazado_14132" data-name="Trazado 14132" d="M412.317,410.32a7.311,7.311,0,1,1-7.307-7.314A7.309,7.309,0,0,1,412.317,410.32Z" fill="#f1da7a"/>
      </g>
      <g id="Grupo_5080" data-name="Grupo 5080">
        <path id="Trazado_14133" data-name="Trazado 14133" d="M389.573,425.328a4.645,4.645,0,1,1-4.646-4.645A4.639,4.639,0,0,1,389.573,425.328Z" fill="#f1da7a"/>
      </g>
      <g id="Grupo_5081" data-name="Grupo 5081">
        <path id="Trazado_14134" data-name="Trazado 14134" d="M403.4,394.708a4.645,4.645,0,1,1-4.638-4.642A4.64,4.64,0,0,1,403.4,394.708Z" fill="#f1da7a"/>
      </g>
      <g id="Grupo_5082" data-name="Grupo 5082">
        <path id="Trazado_14135" data-name="Trazado 14135" d="M400.558,381.766A2.864,2.864,0,1,1,397.7,378.9,2.863,2.863,0,0,1,400.558,381.766Z" fill="#f1da7a"/>
      </g>
      <g id="Grupo_5083" data-name="Grupo 5083">
        <path id="Trazado_14136" data-name="Trazado 14136" d="M401.623,429.968a2.864,2.864,0,1,1-2.861-2.863A2.867,2.867,0,0,1,401.623,429.968Z" fill="#f1da7a"/>
      </g>
      <g id="Grupo_5084" data-name="Grupo 5084">
        <path id="Trazado_14137" data-name="Trazado 14137" d="M382.581,413.184a2.866,2.866,0,1,1-2.866-2.864A2.864,2.864,0,0,1,382.581,413.184Z" fill="#f1da7a"/>
      </g>
      <g id="Grupo_5085" data-name="Grupo 5085">
        <path id="Trazado_14138" data-name="Trazado 14138" d="M411.478,439.76a4.4,4.4,0,1,1-4.41-4.4A4.4,4.4,0,0,1,411.478,439.76Z" fill="#f1da7a"/>
      </g>
      <g id="Grupo_5086" data-name="Grupo 5086">
        <path id="Trazado_14139" data-name="Trazado 14139" d="M410.793,441.175a4.061,4.061,0,1,1-4.067-4.063A4.062,4.062,0,0,1,410.793,441.175Z" fill="#efc330"/>
      </g>
      <g id="Grupo_5088" data-name="Grupo 5088">
        <g id="Grupo_5087" data-name="Grupo 5087">
          <rect id="Rectángulo_2658" data-name="Rectángulo 2658" width="230.165" height="6.802" transform="translate(330.496 452.538)" fill="#5f648f"/>
        </g>
      </g>
      <g id="Grupo_5093" data-name="Grupo 5093">
        <g id="Grupo_5090" data-name="Grupo 5090">
          <g id="Grupo_5089" data-name="Grupo 5089">
            <path id="Trazado_14140" data-name="Trazado 14140" d="M404.122,253.562s-5.674-2.583-6.863-1.787c-1,.669-3.4,4.634,6.393,4.257Z" fill="#e17947"/>
          </g>
        </g>
        <g id="Grupo_5092" data-name="Grupo 5092">
          <g id="Grupo_5091" data-name="Grupo 5091">
            <path id="Trazado_14141" data-name="Trazado 14141" d="M450.839,239.291l-11.346,25.752-36.625-8.708.6-3.1,29.2,2.295,11.315-22.344s5.872-9.7,8.914-4.933C454.4,230.619,453.079,233.957,450.839,239.291Z" fill="#fff"/>
          </g>
        </g>
      </g>
      <g id="Grupo_5095" data-name="Grupo 5095">
        <g id="Grupo_5094" data-name="Grupo 5094">
          <path id="Trazado_14142" data-name="Trazado 14142" d="M453.248,213.325s4.784.392,5.874,3.41,2.531,4.586,6.385,6.582,9.96,5.622,9.768,9.358c-.3,5.944,4.054,8.531,2.835,11.873s-5.451,2.3-6.882.776-11.519-8.513-13.214-11.345-5.376-.381-7.226-2.237-1.247-5.211-2.129-6.274c-3.219-3.9-1.747-7.736.389-10.475S453.248,213.325,453.248,213.325Z" fill="#191b21"/>
        </g>
      </g>
      <g id="Grupo_5097" data-name="Grupo 5097">
        <g id="Grupo_5096" data-name="Grupo 5096">
          <path id="Trazado_14143" data-name="Trazado 14143" d="M477.39,267.743l-31.161,2.492-36.487,5.23s-8.008.215-7.465,20.745l-.532,37.006,4.2-.062s7.523-25.913,9.361-44.364c0,0,32.292,1.982,43.184-2.85S479.843,269.112,477.39,267.743Z" fill="#191b21"/>
        </g>
      </g>
      <g id="Grupo_5099" data-name="Grupo 5099">
        <g id="Grupo_5098" data-name="Grupo 5098">
          <path id="Trazado_14144" data-name="Trazado 14144" d="M477.445,267.937l-56.9,17.168s-7.689,1.917-1.267,22.368l9.78,37.9,4.2-1.266s.006-27.4-2.751-46.775c0,0,30.439-1.362,43.478-6.555C485.543,286.171,481.442,273.6,477.445,267.937Z" fill="#1e2128"/>
        </g>
      </g>
      <g id="Grupo_5101" data-name="Grupo 5101">
        <g id="Grupo_5100" data-name="Grupo 5100">
          <path id="Trazado_14145" data-name="Trazado 14145" d="M466.5,227.9s3.761,2.684,6.528,10.288.888,18.48.888,18.48l5.389,14.525-33.075-.953-2.03-13.55,2.892-5.875-3.239-5.233,5.523-18.1Z" fill="#4c87cd"/>
        </g>
      </g>
      <g id="Grupo_5103" data-name="Grupo 5103">
        <g id="Grupo_5102" data-name="Grupo 5102">
          <path id="Trazado_14146" data-name="Trazado 14146" d="M433.848,342.711,427.6,343.92l.862,4.235-.815,2.027-8,8.1,2.256-.683,8.633-3.96.906.366,3.3-1.046Z" fill="#8090ca"/>
        </g>
      </g>
      <g id="Grupo_5105" data-name="Grupo 5105">
        <g id="Grupo_5104" data-name="Grupo 5104">
          <path id="Trazado_14147" data-name="Trazado 14147" d="M406.539,331.58l-5.98-1.2-.779,4.066-1.461,1.5-10.037,4.262,2.248.218,9.093-.371.67.654,3.309.276Z" fill="#8090ca"/>
        </g>
      </g>
      <g id="Grupo_5107" data-name="Grupo 5107">
        <g id="Grupo_5106" data-name="Grupo 5106">
          <path id="Trazado_14148" data-name="Trazado 14148" d="M435.584,297.034l-7.221-4.618.833,2.772.428,10.235,2.181,3.664-1.3-11.753Z" fill="#131416"/>
        </g>
      </g>
      <g id="Grupo_5109" data-name="Grupo 5109">
        <g id="Grupo_5108" data-name="Grupo 5108">
          <path id="Trazado_14149" data-name="Trazado 14149" d="M415.873,288.821l-.563-.031-1.568,11.063-1.184-9.173-.449-5.281,5.383,3.268Z" fill="#131416"/>
        </g>
      </g>
      <g id="Grupo_5111" data-name="Grupo 5111">
        <g id="Grupo_5110" data-name="Grupo 5110">
          <path id="Trazado_14150" data-name="Trazado 14150" d="M456.42,221.637l3.769,6.1s-6.417,8.359-6.609,4.795A80.9,80.9,0,0,0,452,222.974Z" fill="#e17947"/>
        </g>
      </g>
      <g id="Grupo_5113" data-name="Grupo 5113">
        <g id="Grupo_5112" data-name="Grupo 5112">
          <path id="Trazado_14151" data-name="Trazado 14151" d="M454.118,214c.952,1.194,2.826,3.512,2.6,5.53s-.416,5.56-2.228,6.942-3.042-.755-3.709-1.388-4.021-7.83-1.277-10.625C451.579,212.348,453.4,213.091,454.118,214Z" fill="#e28058"/>
        </g>
      </g>
      <g id="Grupo_5115" data-name="Grupo 5115">
        <g id="Grupo_5114" data-name="Grupo 5114">
          <path id="Trazado_14152" data-name="Trazado 14152" d="M451.221,215.774s3.086,3.42,6.048,3.424c0,0-1.469-6.426-5.545-6.058,0,0-4.7,1.1-3.39,6.945C448.334,220.085,451.556,217.813,451.221,215.774Z" fill="#20222a"/>
        </g>
      </g>
      <g id="Grupo_5116" data-name="Grupo 5116">
        <path id="Trazado_14153" data-name="Trazado 14153" d="M466.5,227.9s8.763,9.879,11.252,21.778,9.057,24.656,3.8,37.415c-3.159,7.669-37.7,9.268-37.7,9.268l-11.881-14.7,28.218-8.514-2.92-28.084Z" fill="#e1f6f5"/>
      </g>
      <g id="Grupo_5117" data-name="Grupo 5117">
        <path id="Trazado_14154" data-name="Trazado 14154" d="M452,227.539l-3.556,17.708.7,7.692-.7,17.36-16.469,1.978,8.68-15.209-.9-11.444,9.625-18.149Z" fill="#e1f6f5"/>
      </g>
      <g id="Grupo_5118" data-name="Grupo 5118">
        <path id="Trazado_14155" data-name="Trazado 14155" d="M388.745,377.339l-7.636-.035c.005-1.022.449-102.279.1-112.125-.247-6.872,2.474-10.529,4.8-12.386,5.832-4.658,14.3-2.593,15.252-2.343l-1.939,7.387c-1.461-.375-6.16-1-8.561.935-1.378,1.111-2.024,3.174-1.918,6.135C389.194,274.9,388.761,373.16,388.745,377.339Z" fill="#efc330"/>
      </g>
      <g id="Grupo_5123" data-name="Grupo 5123">
        <g id="Grupo_5119" data-name="Grupo 5119">
          <path id="Trazado_14156" data-name="Trazado 14156" d="M462.618,288.2l2.4-4.951a6.909,6.909,0,0,0-3.2-9.232L412.2,249.96l-8.429,17.382L453.383,291.4A6.913,6.913,0,0,0,462.618,288.2Z" fill="#8db14c"/>
        </g>
        <g id="Grupo_5120" data-name="Grupo 5120">
          <rect id="Rectángulo_2659" data-name="Rectángulo 2659" width="19.316" height="10.269" transform="translate(394.535 262.859) rotate(-64.13)" fill="#b85327"/>
        </g>
        <g id="Grupo_5121" data-name="Grupo 5121">
          <path id="Trazado_14157" data-name="Trazado 14157" d="M412.748,246.967a2.521,2.521,0,0,1,1.168,3.365l-8.854,18.256a2.518,2.518,0,0,1-3.364,1.168h0a2.52,2.52,0,0,1-1.171-3.366l8.857-18.255a2.519,2.519,0,0,1,3.364-1.168Z" fill="#de5c16"/>
        </g>
        <g id="Grupo_5122" data-name="Grupo 5122">
          <path id="Trazado_14158" data-name="Trazado 14158" d="M404.047,242.748a2.512,2.512,0,0,1,1.165,3.364l-8.851,18.257a2.52,2.52,0,0,1-3.366,1.167h0a2.519,2.519,0,0,1-1.169-3.365l8.857-18.256a2.517,2.517,0,0,1,3.364-1.167Z" fill="#de5c16"/>
        </g>
      </g>
      <g id="Grupo_5128" data-name="Grupo 5128">
        <g id="Grupo_5125" data-name="Grupo 5125">
          <g id="Grupo_5124" data-name="Grupo 5124">
            <path id="Trazado_14159" data-name="Trazado 14159" d="M445.64,278.75s-5.713,2.486-5.921,3.9c-.171,1.193,1.171,5.631,7.442-1.9Z" fill="#e17947"/>
          </g>
        </g>
        <g id="Grupo_5127" data-name="Grupo 5127">
          <g id="Grupo_5126" data-name="Grupo 5126">
            <path id="Trazado_14160" data-name="Trazado 14160" d="M474.078,240.009l6.593,27.391L445.69,281.371l-1.034-2.14,24.877-15.456-4.122-24.7s-2.053-8.207,3.525-9.133A27.525,27.525,0,0,1,474.078,240.009Z" fill="#fff"/>
          </g>
        </g>
      </g>
    </g>
  </g>
</svg>
