<svg xmlns="http://www.w3.org/2000/svg" width="420.597" height="277.684" viewBox="0 0 420.597 277.684">
  <g id="Grupo_5383" data-name="Grupo 5383" transform="translate(-90 -4555)">
    <g id="Grupo_5315" data-name="Grupo 5315" transform="translate(0 653)">
      <path id="Trazado_14103" data-name="Trazado 14103" d="M624.57,330.1c-8.529-7.027-23.425-1.287-32.809,5.933-11.8,9.079-8.826,15.792-23.062,14.642-3.894-.315-8.061-2.351-9.547-6.436-2.005-5.512,1.627-11.364,4.633-16.259,9.136-14.883,8.426-30.514,6.342-48.481s-19.372-29.4-33.714-37.464-33.129-5.94-44.746,6.533c-7.934,8.519-11.963,20.549-17.665,31.11s-14.693,20.6-25.629,20.355c-13.223-.3-32.092-15.107-34.548-29.811s-.466-30.022-3.022-44.7c-4.832-27.757-25.844-46.869-50.847-46.741s-50.645,20.756-51.793,49.016c-.624,15.386,8.445,45.293.845,58.07-6.868,11.547-22.49,18.13-33.312,12.226-29.043-15.843-45.858-.589-51.454,18.536-6.261,21.4-6.512,39.587-.7,61.373s18.6,39.05,32.944,55c21.847,24.286,64.217,20.975,68.856,20.882,87.5-1.763,130.816-5.3,218.278-1.912,34.675,1.345,63.65-26.167,84.657-60.309.713-1.158,0,1.36,0,0,0,0,13.963-14.314,11.354-33.726C637.957,345.486,628.252,333.13,624.57,330.1Z" transform="translate(-129.357 3725.521)" fill="#99cac3" opacity="0.1"/>
      <g id="Grupo_5035" data-name="Grupo 5035" transform="translate(-129.357 3725.521)">
        <g id="Grupo_5034" data-name="Grupo 5034">
          <g id="Grupo_5033" data-name="Grupo 5033">
            <path id="Trazado_14104" data-name="Trazado 14104" d="M242.474,336.091a2.09,2.09,0,1,1-2.09,2.09A2.09,2.09,0,0,1,242.474,336.091Z" fill="#99cac3"/>
            <path id="Trazado_14105" data-name="Trazado 14105" d="M254.107,336.11l-2.921-.548a8.97,8.97,0,0,0-.7-1.691l1.691-2.472a.629.629,0,0,0-.072-.767l-2.085-2.086a.629.629,0,0,0-.768-.071l-2.472,1.691a9.044,9.044,0,0,0-1.743-.712l-.545-2.907a.63.63,0,0,0-.594-.493h-2.947a.631.631,0,0,0-.6.493l-.551,2.935a9.12,9.12,0,0,0-1.672.7l-2.44-1.669a.63.63,0,0,0-.769.071l-2.085,2.085a.63.63,0,0,0-.071.769l1.68,2.456a9,9,0,0,0-.688,1.67l-2.921.548a.629.629,0,0,0-.493.594v2.948a.631.631,0,0,0,.494.6l2.918.547a9.017,9.017,0,0,0,.7,1.7l-1.661,2.428a.63.63,0,0,0,.071.769l2.086,2.086a.63.63,0,0,0,.767.071l2.428-1.662a9.112,9.112,0,0,0,1.655.69l.55,2.934a.629.629,0,0,0,.594.494H243.9a.63.63,0,0,0,.6-.494l.545-2.9a9.166,9.166,0,0,0,1.725-.7l2.456,1.681a.633.633,0,0,0,.771-.071l2.084-2.085a.629.629,0,0,0,.072-.767l-1.673-2.444a9.114,9.114,0,0,0,.713-1.726l2.917-.547a.631.631,0,0,0,.494-.595V336.7A.624.624,0,0,0,254.107,336.11Zm-10.644,7.036a5.062,5.062,0,1,1,3.976-3.971A5.066,5.066,0,0,1,243.463,343.146Z" fill="#99cac3"/>
          </g>
        </g>
      </g>
      <g id="Grupo_5038" data-name="Grupo 5038" transform="translate(-129.357 3725.521)">
        <g id="Grupo_5037" data-name="Grupo 5037">
          <g id="Grupo_5036" data-name="Grupo 5036">
            <path id="Trazado_14106" data-name="Trazado 14106" d="M277.28,388.877a1.655,1.655,0,1,1-2.2-.785A1.655,1.655,0,0,1,277.28,388.877Z" fill="#99cac3"/>
            <path id="Trazado_14107" data-name="Trazado 14107" d="M281.217,397.2l-.6-2.276a7.1,7.1,0,0,0,.972-1.074l2.342.37a.5.5,0,0,0,.525-.312l.783-2.2a.5.5,0,0,0-.209-.574l-2.05-1.194a7.161,7.161,0,0,0-.082-1.488l1.894-1.377a.5.5,0,0,0,.15-.592l-1-2.109a.5.5,0,0,0-.554-.257l-2.286.6a7.115,7.115,0,0,0-1.068-.959l.365-2.313a.5.5,0,0,0-.312-.526l-2.2-.783a.5.5,0,0,0-.574.21l-1.186,2.036a7.14,7.14,0,0,0-1.428.076l-1.384-1.9a.5.5,0,0,0-.593-.151l-2.108,1a.5.5,0,0,0-.258.556l.6,2.273a7.153,7.153,0,0,0-.981,1.081l-2.3-.363a.5.5,0,0,0-.525.312l-.783,2.2a.5.5,0,0,0,.209.573l2.013,1.172a7.264,7.264,0,0,0,.069,1.418l-1.912,1.39a.5.5,0,0,0-.151.593l1,2.109a.5.5,0,0,0,.555.257l2.263-.6a7.2,7.2,0,0,0,1.089,1l-.369,2.328a.5.5,0,0,0,.313.527l2.2.783a.5.5,0,0,0,.573-.209l1.18-2.027a7.188,7.188,0,0,0,1.477-.076l1.381,1.9a.5.5,0,0,0,.594.151l2.108-1A.5.5,0,0,0,281.217,397.2Zm-8.648-5.223a4.009,4.009,0,1,1,4.191,1.494A4.012,4.012,0,0,1,272.569,391.981Z" fill="#99cac3"/>
          </g>
        </g>
      </g>
      <g id="Grupo_5041" data-name="Grupo 5041" transform="translate(-129.357 3725.521)">
        <g id="Grupo_5040" data-name="Grupo 5040">
          <g id="Grupo_5039" data-name="Grupo 5039">
            <path id="Trazado_14108" data-name="Trazado 14108" d="M457.933,249.321a4.425,4.425,0,1,1-6.131,1.25A4.424,4.424,0,0,1,457.933,249.321Z" fill="#99cac3"/>
            <path id="Trazado_14109" data-name="Trazado 14109" d="M478.449,262.937l-4.518-4.378a19.1,19.1,0,0,0,.741-3.8l5.87-2.39a1.33,1.33,0,0,0,.77-1.438l-1.245-6.117a1.332,1.332,0,0,0-1.273-1.023l-6.34.1a19.123,19.123,0,0,0-2.245-3.293l2.432-5.767a1.333,1.333,0,0,0-.473-1.564l-5.2-3.442a1.335,1.335,0,0,0-1.625.177l-4.4,4.538a19.1,19.1,0,0,0-3.768-.72l-2.359-5.8a1.335,1.335,0,0,0-1.441-.772l-6.115,1.247a1.334,1.334,0,0,0-1.024,1.274l.1,6.3a19.169,19.169,0,0,0-3.165,2.147l-5.795-2.444a1.332,1.332,0,0,0-1.565.473l-3.442,5.2a1.335,1.335,0,0,0,.177,1.627l4.513,4.373a19.132,19.132,0,0,0-.75,3.831l-5.768,2.348a1.332,1.332,0,0,0-.771,1.44l1.247,6.118a1.329,1.329,0,0,0,1.271,1.021l6.226-.1a19.265,19.265,0,0,0,2.117,3.15l-2.456,5.823a1.335,1.335,0,0,0,.474,1.566l5.2,3.442a1.335,1.335,0,0,0,1.627-.177l4.354-4.493a19.334,19.334,0,0,0,3.866.773l2.374,5.837a1.335,1.335,0,0,0,1.443.773l6.115-1.247a1.328,1.328,0,0,0,1.021-1.27l-.1-6.269a19.163,19.163,0,0,0,3.275-2.213l5.787,2.44a1.336,1.336,0,0,0,1.568-.475l3.442-5.2A1.324,1.324,0,0,0,478.449,262.937Zm-27.008-.005a10.716,10.716,0,1,1,11.656-2.37A10.726,10.726,0,0,1,451.441,262.932Z" fill="#99cac3"/>
          </g>
        </g>
      </g>
      <g id="Grupo_5044" data-name="Grupo 5044" transform="translate(-129.357 3725.521)">
        <g id="Grupo_5043" data-name="Grupo 5043">
          <g id="Grupo_5042" data-name="Grupo 5042">
            <path id="Trazado_14110" data-name="Trazado 14110" d="M599.941,272.846c-.861.765-2.085.43-2.085-1.061V268.2a1.979,1.979,0,0,0-1.969-1.969h-2.514a4.185,4.185,0,0,1,.44,1.845,4.017,4.017,0,0,1-4.092,3.976h-.153a4.017,4.017,0,0,1-4.091-3.976,4.121,4.121,0,0,1,.44-1.845H583.25a1.932,1.932,0,0,0-1.931,1.931v3.623c0,1.491-1.243,1.816-2.1,1.061a2.236,2.236,0,1,0-.009,3.4c.86-.765,2.113-.43,2.113,1.061v3.547a1.932,1.932,0,0,0,1.931,1.931h3.594c1.491,0,1.816,1.252,1.061,2.112a2.245,2.245,0,1,0,3.4,0c-.765-.86-.43-2.122,1.061-2.122h3.576a1.932,1.932,0,0,0,1.931-1.931V277.3c0-1.491,1.214-1.816,2.074-1.061a2.229,2.229,0,1,0-.009-3.393Z" fill="#99cac3"/>
          </g>
        </g>
        <path id="Trazado_14111" data-name="Trazado 14111" d="M515.666,181.593l1.286-1.286-1.287-1.286a1.489,1.489,0,1,1,2.106-2.106l1.287,1.287,1.286-1.287a1.489,1.489,0,0,1,2.106,2.106l-1.287,1.286,1.286,1.286a1.489,1.489,0,1,1-2.106,2.106l-1.285-1.286-1.286,1.286a1.489,1.489,0,0,1-2.106-2.106Z" fill="#99cac3"/>
        <path id="Trazado_14112" data-name="Trazado 14112" d="M259.241,273.381l1.285-1.285-1.286-1.286a1.489,1.489,0,0,1,2.106-2.106l1.286,1.286,1.286-1.286a1.489,1.489,0,1,1,2.106,2.106l-1.286,1.286,1.285,1.285a1.489,1.489,0,0,1-2.106,2.106l-1.285-1.285-1.285,1.285a1.489,1.489,0,0,1-2.106-2.106Z" fill="#99cac3"/>
        <path id="Trazado_14113" data-name="Trazado 14113" d="M612.645,376.991l1.286-1.286-1.287-1.285a1.49,1.49,0,0,1,2.106-2.107l1.287,1.287,1.286-1.287a1.49,1.49,0,0,1,2.106,2.107l-1.287,1.285,1.286,1.286a1.489,1.489,0,1,1-2.106,2.106l-1.285-1.286-1.286,1.286a1.489,1.489,0,1,1-2.106-2.106Z" fill="#99cac3"/>
        <path id="Trazado_14114" data-name="Trazado 14114" d="M239.557,376.61l1.286-1.285-1.286-1.286a1.489,1.489,0,1,1,2.106-2.106l1.286,1.287,1.286-1.287a1.489,1.489,0,1,1,2.106,2.106l-1.286,1.286,1.285,1.285a1.49,1.49,0,0,1-2.106,2.107l-1.285-1.286-1.285,1.286a1.49,1.49,0,0,1-2.107-2.107Z" fill="#99cac3"/>
      </g>
    </g>
    <g id="Grupo_5382" data-name="Grupo 5382" transform="translate(-147.103 4374.489)">
      <g id="Grupo_5320" data-name="Grupo 5320">
        <g id="Grupo_5316" data-name="Grupo 5316">
          <path id="Trazado_14273" data-name="Trazado 14273" d="M592.472,453.764h7.942a9.98,9.98,0,0,0,9.982-9.978v-79.63H582.5v79.63A9.975,9.975,0,0,0,592.472,453.764Z" fill="#99c4a7"/>
        </g>
        <g id="Grupo_5317" data-name="Grupo 5317">
          <rect id="Rectángulo_2672" data-name="Rectángulo 2672" width="27.897" height="14.829" transform="translate(582.499 349.326)" fill="#99c4a7"/>
        </g>
        <g id="Grupo_5318" data-name="Grupo 5318">
          <path id="Trazado_14274" data-name="Trazado 14274" d="M614.626,362.977a3.635,3.635,0,0,1-3.637,3.637h-29.3a3.635,3.635,0,0,1-3.637-3.637h0a3.637,3.637,0,0,1,3.637-3.636h29.3a3.638,3.638,0,0,1,3.637,3.636Z" fill="#99c4a7"/>
        </g>
        <g id="Grupo_5319" data-name="Grupo 5319">
          <path id="Trazado_14275" data-name="Trazado 14275" d="M614.626,349.012a3.635,3.635,0,0,1-3.637,3.637h-29.3a3.635,3.635,0,0,1-3.637-3.637h0a3.634,3.634,0,0,1,3.637-3.635h29.3a3.634,3.634,0,0,1,3.637,3.635Z" fill="#99c4a7"/>
        </g>
      </g>
      <g id="Grupo_5324" data-name="Grupo 5324">
        <g id="Grupo_5321" data-name="Grupo 5321">
          <path id="Trazado_14276" data-name="Trazado 14276" d="M529.223,407.06l16.39,48.534H454.971l30.36-101.3h26.078l17.814,52.765Z" fill="#99c4a7"/>
        </g>
        <g id="Grupo_5322" data-name="Grupo 5322">
          <rect id="Rectángulo_2673" data-name="Rectángulo 2673" width="26.511" height="81.375" transform="translate(485.026 311.157)" fill="#99c4a7"/>
        </g>
        <g id="Grupo_5323" data-name="Grupo 5323">
          <path id="Trazado_14277" data-name="Trazado 14277" d="M516.476,314.189a5.138,5.138,0,0,1-5.047,5.219H483.894a5.14,5.14,0,0,1-5.05-5.219v-2.83a5.142,5.142,0,0,1,5.05-5.22h27.535a5.139,5.139,0,0,1,5.047,5.22Z" fill="#99c4a7"/>
        </g>
      </g>
      <g id="Grupo_5328" data-name="Grupo 5328">
        <g id="Grupo_5325" data-name="Grupo 5325">
          <path id="Trazado_14278" data-name="Trazado 14278" d="M391.641,400.535a56.9,56.9,0,1,1-56.9-56.9A56.9,56.9,0,0,1,391.641,400.535Z" fill="#99c4a7"/>
        </g>
        <g id="Grupo_5326" data-name="Grupo 5326">
          <rect id="Rectángulo_2674" data-name="Rectángulo 2674" width="39.643" height="117.632" transform="translate(314.922 282.877)" fill="#99c4a7"/>
        </g>
        <g id="Grupo_5327" data-name="Grupo 5327">
          <path id="Trazado_14279" data-name="Trazado 14279" d="M361.943,287.26A7.545,7.545,0,0,1,354.4,294.8H313.227a7.546,7.546,0,0,1-7.546-7.541v-4.1a7.542,7.542,0,0,1,7.546-7.539H354.4a7.541,7.541,0,0,1,7.545,7.539Z" fill="#99c4a7"/>
        </g>
      </g>
      <g id="Grupo_5333" data-name="Grupo 5333">
        <g id="Grupo_5330" data-name="Grupo 5330">
          <g id="Grupo_5329" data-name="Grupo 5329">
            <path id="Trazado_14280" data-name="Trazado 14280" d="M543.734,381.042s-6.1-2.765-7.383-1.907c-1.074.719-3.643,4.993,6.888,4.561Z" fill="#e17947"/>
          </g>
        </g>
        <g id="Grupo_5332" data-name="Grupo 5332">
          <g id="Grupo_5331" data-name="Grupo 5331">
            <path id="Trazado_14281" data-name="Trazado 14281" d="M593.912,365.567l-12.127,27.717-39.395-9.262.647-3.333,31.389,2.384,12.1-24.048s5.311-10.625,8.857-5.684C597.179,355.842,596.3,359.834,593.912,365.567Z" fill="#fff"/>
          </g>
        </g>
      </g>
      <g id="Grupo_5334" data-name="Grupo 5334">
        <path id="Trazado_14282" data-name="Trazado 14282" d="M442.622,288.046a42.535,42.535,0,1,0-85.069,0c0,13.923,11.251,22.48,17.032,34.045,1.936,3.87,0,17.306,0,17.306h51.567s-1.952-13.763,0-17.748C431.727,310.254,442.622,301.712,442.622,288.046Z" fill="#efc330"/>
      </g>
      <g id="Grupo_5335" data-name="Grupo 5335">
        <path id="Trazado_14283" data-name="Trazado 14283" d="M431.478,291.254c0-19.78-14.054-35.815-31.392-35.815S368.7,271.474,368.7,291.254c0,11.724,8.3,18.928,12.572,28.665,1.428,3.258,0,14.571,0,14.571h38.057s-1.442-11.589,0-14.945C423.438,309.951,431.478,302.76,431.478,291.254Z" fill="#f2d05f"/>
      </g>
      <g id="Grupo_5336" data-name="Grupo 5336">
        <rect id="Rectángulo_2675" data-name="Rectángulo 2675" width="188.889" height="78.843" transform="translate(314.789 373.275)" fill="#fff"/>
      </g>
      <g id="Grupo_5337" data-name="Grupo 5337">
        <rect id="Rectángulo_2676" data-name="Rectángulo 2676" width="57.219" height="78.843" transform="translate(446.459 373.275)" fill="#e3e1e1"/>
      </g>
      <g id="Grupo_5338" data-name="Grupo 5338">
        <path id="Trazado_14284" data-name="Trazado 14284" d="M425.585,412.7a25.5,25.5,0,1,1-25.5-25.5A25.5,25.5,0,0,1,425.585,412.7Z" fill="#bfbdc2"/>
      </g>
      <g id="Grupo_5339" data-name="Grupo 5339">
        <path id="Trazado_14285" data-name="Trazado 14285" d="M416.918,412.7a16.833,16.833,0,1,1-16.832-16.831A16.832,16.832,0,0,1,416.918,412.7Z" fill="#5f648f"/>
      </g>
      <g id="Grupo_5340" data-name="Grupo 5340">
        <path id="Trazado_14286" data-name="Trazado 14286" d="M358.427,394.856A14.852,14.852,0,1,1,343.575,380,14.849,14.849,0,0,1,358.427,394.856Z" fill="#bfbdc2"/>
      </g>
      <g id="Grupo_5341" data-name="Grupo 5341">
        <path id="Trazado_14287" data-name="Trazado 14287" d="M358.427,432.166a14.852,14.852,0,1,1-14.852-14.852A14.851,14.851,0,0,1,358.427,432.166Z" fill="#bfbdc2"/>
      </g>
      <g id="Grupo_5342" data-name="Grupo 5342">
        <rect id="Rectángulo_2677" data-name="Rectángulo 2677" width="52.092" height="40.62" transform="translate(374.06 332.656)" fill="#bfbdc2"/>
      </g>
      <g id="Grupo_5343" data-name="Grupo 5343">
        <path id="Trazado_14288" data-name="Trazado 14288" d="M432.892,339.4a6.74,6.74,0,0,1-6.74,6.742H374.06a6.738,6.738,0,0,1-6.739-6.742h0a6.74,6.74,0,0,1,6.739-6.741h52.092a6.741,6.741,0,0,1,6.74,6.741Z" fill="#5f648f"/>
      </g>
      <g id="Grupo_5344" data-name="Grupo 5344">
        <path id="Trazado_14289" data-name="Trazado 14289" d="M432.892,366.532a6.743,6.743,0,0,1-6.74,6.743H374.06a6.742,6.742,0,0,1-6.739-6.743h0a6.739,6.739,0,0,1,6.739-6.742h52.092a6.74,6.74,0,0,1,6.74,6.742Z" fill="#5f648f"/>
      </g>
      <g id="Grupo_5345" data-name="Grupo 5345">
        <path id="Trazado_14290" data-name="Trazado 14290" d="M470.2,433.639c0,2.722-2.53,4.932-5.652,4.932h0c-3.122,0-5.655-2.21-5.655-4.932V385.78c0-2.724,2.533-4.93,5.655-4.93h0c3.122,0,5.652,2.206,5.652,4.93Z" fill="#bfbdc2"/>
      </g>
      <g id="Grupo_5346" data-name="Grupo 5346">
        <rect id="Rectángulo_2678" data-name="Rectángulo 2678" width="2.545" height="34.647" transform="translate(392.548 298.009)" fill="#fff"/>
      </g>
      <g id="Grupo_5347" data-name="Grupo 5347">
        <rect id="Rectángulo_2679" data-name="Rectángulo 2679" width="2.546" height="34.647" transform="translate(407.212 298.009)" fill="#fff"/>
      </g>
      <g id="Grupo_5349" data-name="Grupo 5349">
        <g id="Grupo_5348" data-name="Grupo 5348">
          <path id="Trazado_14291" data-name="Trazado 14291" d="M572.643,452.086H565.31v-31.75c0-15.435-8.654-27.993-19.295-27.993H509.424v-9.911h36.591c14.683,0,26.628,17,26.628,37.9Z" fill="#e5a2cb"/>
        </g>
      </g>
      <g id="Grupo_5354" data-name="Grupo 5354">
        <g id="Grupo_5350" data-name="Grupo 5350">
          <path id="Trazado_14292" data-name="Trazado 14292" d="M521.947,399.718V376.769a11.3,11.3,0,0,0-11.3-11.306H488.6v45.56h22.048A11.3,11.3,0,0,0,521.947,399.718Z" fill="#4c87cd"/>
        </g>
        <g id="Grupo_5351" data-name="Grupo 5351">
          <path id="Trazado_14293" data-name="Trazado 14293" d="M493.682,412.679a5.089,5.089,0,0,1-5.087,5.09h0a5.089,5.089,0,0,1-5.086-5.09V365.134a5.085,5.085,0,0,1,5.086-5.086h0a5.085,5.085,0,0,1,5.087,5.086Z" fill="#32335f"/>
        </g>
        <g id="Grupo_5352" data-name="Grupo 5352">
          <path id="Trazado_14294" data-name="Trazado 14294" d="M493.682,375.773a4.952,4.952,0,0,1-4.951,4.953h-8.71a4.953,4.953,0,0,1-4.952-4.953h0a4.951,4.951,0,0,1,4.952-4.949h8.71a4.95,4.95,0,0,1,4.951,4.949Z" fill="#32335f"/>
        </g>
        <g id="Grupo_5353" data-name="Grupo 5353">
          <path id="Trazado_14295" data-name="Trazado 14295" d="M493.682,402.908a4.952,4.952,0,0,1-4.951,4.952h-8.71a4.953,4.953,0,0,1-4.952-4.952h0a4.951,4.951,0,0,1,4.952-4.95h8.71a4.95,4.95,0,0,1,4.951,4.95Z" fill="#32335f"/>
        </g>
      </g>
      <g id="Grupo_5355" data-name="Grupo 5355">
        <path id="Trazado_14296" data-name="Trazado 14296" d="M348.605,394.376a5.194,5.194,0,1,1-5.194-5.193A5.193,5.193,0,0,1,348.605,394.376Z" fill="#fff"/>
      </g>
      <g id="Grupo_5356" data-name="Grupo 5356">
        <path id="Trazado_14297" data-name="Trazado 14297" d="M348.605,433.484a5.194,5.194,0,1,1-5.194-5.194A5.194,5.194,0,0,1,348.605,433.484Z" fill="#fff"/>
      </g>
      <g id="Grupo_5358" data-name="Grupo 5358">
        <g id="Grupo_5357" data-name="Grupo 5357">
          <rect id="Rectángulo_2680" data-name="Rectángulo 2680" width="349.34" height="6.802" transform="translate(283.763 451.36)" fill="#5f648f"/>
        </g>
      </g>
      <g id="Grupo_5360" data-name="Grupo 5360">
        <g id="Grupo_5359" data-name="Grupo 5359">
          <path id="Trazado_14298" data-name="Trazado 14298" d="M582,399.738l-30.285,49.553-4.2-.736,13.051-46.685Z" fill="#1e2128"/>
        </g>
      </g>
      <g id="Grupo_5362" data-name="Grupo 5362">
        <g id="Grupo_5361" data-name="Grupo 5361">
          <path id="Trazado_14299" data-name="Trazado 14299" d="M601.17,392.416s11.326,20.634-11.481,20.419-27.815.7-27.815.7l17.249,25.842-1.494,3.9S543.547,407,543.056,402.761,536.283,394.349,601.17,392.416Z" fill="#262a30"/>
        </g>
      </g>
      <g id="Grupo_5364" data-name="Grupo 5364">
        <g id="Grupo_5363" data-name="Grupo 5363">
          <path id="Trazado_14300" data-name="Trazado 14300" d="M579.3,437.591l-4.091,4.119,2.819,2.753.428,1.941-1.877,10.209,1.35-1.668,4.476-7.42.869-.188,1.953-2.481Z" fill="#4c272a"/>
        </g>
      </g>
      <g id="Grupo_5366" data-name="Grupo 5366">
        <g id="Grupo_5365" data-name="Grupo 5365">
          <path id="Trazado_14301" data-name="Trazado 14301" d="M552.636,448.889l-5.747-.806-.513,3.905-1.3,1.508-9.293,4.622,2.147.077,8.62-.864.674.587,3.156.071Z" fill="#4c272a"/>
        </g>
      </g>
      <g id="Grupo_5368" data-name="Grupo 5368">
        <g id="Grupo_5367" data-name="Grupo 5367">
          <path id="Trazado_14302" data-name="Trazado 14302" d="M612.654,433.085l-40.359,4.2L569.8,382.025l-4.563-24.044,13.156-5.342,17.2-1.658,4.4,23.2Z" fill="#e1f6f5"/>
        </g>
      </g>
      <g id="Grupo_5375" data-name="Grupo 5375">
        <g id="Grupo_5370" data-name="Grupo 5370">
          <g id="Grupo_5369" data-name="Grupo 5369">
            <path id="Trazado_14303" data-name="Trazado 14303" d="M581.538,353.557c.3,1.2-4.557,2.117-4.835.919a25.183,25.183,0,0,1-.689-6.175l3.339-2.009S580.906,351.054,581.538,353.557Z" fill="#e17947"/>
          </g>
        </g>
        <g id="Grupo_5372" data-name="Grupo 5372">
          <g id="Grupo_5371" data-name="Grupo 5371">
            <path id="Trazado_14304" data-name="Trazado 14304" d="M577.009,350.135c-.322.093-3.247,1.182-4-.213s-1.63-6.882-1.18-8.341a4.045,4.045,0,0,1,3.824-2.428c1.18.262,4.727,2.839,4.118,8.527A5.382,5.382,0,0,1,577.009,350.135Z" fill="#e17947"/>
          </g>
        </g>
        <g id="Grupo_5374" data-name="Grupo 5374">
          <g id="Grupo_5373" data-name="Grupo 5373">
            <path id="Trazado_14305" data-name="Trazado 14305" d="M571.171,341.7s.623,1.821,1.921,1.414,3.484-1.227,3.909-.26.13,4.592,1.011,5.308,2.85,1.4,3,.077-.533-9.194-4.929-10.221C576.085,338.022,571.872,337.931,571.171,341.7Z" fill="#1e2128"/>
          </g>
        </g>
      </g>
      <g id="Grupo_5380" data-name="Grupo 5380">
        <g id="Grupo_5377" data-name="Grupo 5377">
          <g id="Grupo_5376" data-name="Grupo 5376">
            <path id="Trazado_14306" data-name="Trazado 14306" d="M528.885,384.494s-5.215-1.773-6.2-.969c-.821.676-2.588,4.38,6,3.186Z" fill="#e17947"/>
          </g>
        </g>
        <g id="Grupo_5379" data-name="Grupo 5379">
          <g id="Grupo_5378" data-name="Grupo 5378">
            <path id="Trazado_14307" data-name="Trazado 14307" d="M568.765,367.823,561.036,391.5l-33.007-4.45.257-2.784,25.91-.548,8-20.663s3.508-9.125,6.807-5.361C570.671,359.6,570.269,362.936,568.765,367.823Z" fill="#fff"/>
          </g>
        </g>
      </g>
      <g id="Grupo_5381" data-name="Grupo 5381">
        <path id="Trazado_14308" data-name="Trazado 14308" d="M595.594,350.982l17.06,82.1-28.362,2.952,11.3-85.055Z" fill="#f5fffd"/>
      </g>
    </g>
  </g>
</svg>
