<svg xmlns="http://www.w3.org/2000/svg" width="921.908" height="1004.145" viewBox="0 0 921.908 1004.145">
  <g id="Grupo_5032" data-name="Grupo 5032" transform="translate(-111.425 -1944.441)">
    <text id="Deben_estar_enteros_y_sanos._" data-name="Deben estar enteros 
y sanos. " transform="translate(223.575 2007.826)" fill="#142756" font-size="16" font-family="CerebriSans-Regular, Cerebri Sans" letter-spacing="0.025em"><tspan x="0" y="16">Deben estar enteros </tspan><tspan x="0" y="35.2">y sanos. </tspan></text>
    <text id="_01" data-name="01" transform="translate(155 2040.404)" fill="#142756" font-size="42" font-family="OpenSans-Bold, Open Sans" font-weight="700" letter-spacing="0.025em"><tspan x="0" y="0">01</tspan></text>
    <text id="Deben_estar_limpios_libres_de_toda_suciedad_contaminación_y_daños_causados_por_las_plagas." data-name="Deben estar limpios, libres de toda suciedad, contaminación y daños causados por las plagas." transform="translate(224.846 2223.211)" fill="#142756" font-size="16" font-family="CerebriSans-Regular, Cerebri Sans" letter-spacing="0.025em"><tspan x="0" y="16">Deben estar limpios, </tspan><tspan x="0" y="35.2">libres de toda suciedad, </tspan><tspan x="0" y="54.4">contaminación y daños </tspan><tspan x="0" y="73.6">causados por las plagas.</tspan></text>
    <text id="_03" data-name="03" transform="translate(158.941 2282.79)" fill="#142756" font-size="42" font-family="OpenSans-Bold, Open Sans" font-weight="700" letter-spacing="0.025em"><tspan x="0" y="0">03</tspan></text>
    <text id="El_plátano_debe_ser_de_buena_calidad_el_pedúnculo_no_debe_estar_desecado_o_dañado_por_hongos." data-name="El plátano debe ser de buena calidad, el pedúnculo no debe estar desecado o dañado por hongos." transform="translate(223.575 2460.598)" fill="#142756" font-size="16" font-family="CerebriSans-Regular, Cerebri Sans" letter-spacing="0.025em"><tspan x="0" y="16">El plátano debe ser de </tspan><tspan x="0" y="35.2">buena calidad, el </tspan><tspan x="0" y="54.4">pedúnculo no debe </tspan><tspan x="0" y="73.6">estar desecado o </tspan><tspan x="0" y="92.8">dañado por hongos.</tspan></text>
    <text id="_05" data-name="05" transform="translate(155 2521.176)" fill="#142756" font-size="42" font-family="OpenSans-Bold, Open Sans" font-weight="700" letter-spacing="0.025em"><tspan x="0" y="0">05</tspan></text>
    <text id="Libres_de_deterioros_causados_por_bajas_temperaturas." data-name="Libres de deterioros causados por bajas temperaturas." transform="translate(223.575 2711.984)" fill="#142756" font-size="16" font-family="CerebriSans-Regular, Cerebri Sans" letter-spacing="0.025em"><tspan x="0" y="16">Libres de deterioros </tspan><tspan x="0" y="35.2">causados por bajas </tspan><tspan x="0" y="54.4">temperaturas.</tspan></text>
    <text id="_07" data-name="07" transform="translate(155 2756.563)" fill="#142756" font-size="42" font-family="OpenSans-Bold, Open Sans" font-weight="700" letter-spacing="0.025em"><tspan x="0" y="0">07</tspan></text>
    <text id="Se_deben_excluir_todos_los_productos_que_se_estén_deteriorando_o_aquellos_afectados_por_la_podredumbre._" data-name="Se deben excluir todos los productos que se estén deteriorando o aquellos afectados por la podredumbre. " transform="translate(732.439 2097.264)" fill="#142756" font-size="16" font-family="CerebriSans-Regular, Cerebri Sans" letter-spacing="0.025em"><tspan x="0" y="16">Se deben excluir todos </tspan><tspan x="0" y="35.2">los productos que se </tspan><tspan x="0" y="54.4">estén deteriorando o </tspan><tspan x="0" y="73.6">aquellos afectados por </tspan><tspan x="0" y="92.8">la podredumbre. </tspan></text>
    <text id="_02" data-name="02" transform="translate(930.521 2163.302)" fill="#142756" font-size="42" font-family="OpenSans-Bold, Open Sans" font-weight="700" letter-spacing="0.025em"><tspan x="0" y="0">02</tspan></text>
    <text id="Estar_exentos_de_magulladuras_olores_o_sabores_extraños." data-name="Estar exentos de magulladuras, olores
o sabores extraños." transform="translate(732.439 2355.109)" fill="#142756" font-size="16" font-family="CerebriSans-Regular, Cerebri Sans" letter-spacing="0.025em"><tspan x="0" y="16">Estar exentos de </tspan><tspan x="0" y="35.2">magulladuras, olores</tspan><tspan x="0" y="54.4">o sabores extraños.</tspan></text>
    <text id="_04" data-name="04" transform="translate(930.521 2400.146)" fill="#142756" font-size="42" font-family="OpenSans-Bold, Open Sans" font-weight="700" letter-spacing="0.025em"><tspan x="0" y="0">04</tspan></text>
    <text id="Los_productos_deben_estar_exentos_de_malformaciones_o_curvas_anormales_en_los_dedos." data-name="Los productos deben estar exentos de malformaciones o curvas anormales en los dedos." transform="translate(732.439 2568.955)" fill="#142756" font-size="16" font-family="CerebriSans-Regular, Cerebri Sans" letter-spacing="0.025em"><tspan x="0" y="16">Los productos deben </tspan><tspan x="0" y="35.2">estar exentos de </tspan><tspan x="0" y="54.4">malformaciones o </tspan><tspan x="0" y="73.6">curvas anormales en los </tspan><tspan x="0" y="92.8">dedos.</tspan></text>
    <text id="_06" data-name="06" transform="translate(930.521 2638.992)" fill="#142756" font-size="42" font-family="OpenSans-Bold, Open Sans" font-weight="700" letter-spacing="0.025em"><tspan x="0" y="0">06</tspan></text>
    <text id="Para_evitar_cualquier_tipo_de_contaminación_de_la_materia_prima_las_condiciones_de_transporte_deben_ser_higiénicas._" data-name="Para evitar cualquier tipo de contaminación de la materia prima, las condiciones de transporte deben ser higiénicas. " transform="translate(732.439 2803.554)" fill="#142756" font-size="16" font-family="CerebriSans-Regular, Cerebri Sans" letter-spacing="0.025em"><tspan x="0" y="16">Para evitar cualquier </tspan><tspan x="0" y="35.2">tipo de contaminación </tspan><tspan x="0" y="54.4">de la materia prima, las </tspan><tspan x="0" y="73.6">condiciones de </tspan><tspan x="0" y="92.8">transporte deben ser </tspan><tspan x="0" y="112">higiénicas. </tspan></text>
    <text id="_08" data-name="08" transform="translate(930.521 2883.592)" fill="#142756" font-size="42" font-family="OpenSans-Bold, Open Sans" font-weight="700" letter-spacing="0.025em"><tspan x="0" y="0">08</tspan></text>
    <path id="Trazado_13725" data-name="Trazado 13725" d="M469.264,772.463,360.577,881.15A76.884,76.884,0,0,1,469.264,772.463Z" transform="translate(96.546 1911.895)" fill="#d39711"/>
    <path id="Trazado_13726" data-name="Trazado 13726" d="M494.287,829.286A76.883,76.883,0,0,1,364.6,885.173L473.287,776.487A76.614,76.614,0,0,1,494.287,829.286Z" transform="translate(95.612 1910.96)" fill="#d39711"/>
    <path id="Trazado_13727" data-name="Trazado 13727" d="M484.013,652.142,592.7,760.829A76.884,76.884,0,0,1,484.013,652.142Z" transform="translate(91.936 1915.604)" fill="#9e8d85"/>
    <path id="Trazado_13728" data-name="Trazado 13728" d="M540.836,627.12a76.883,76.883,0,0,1,55.886,129.686L488.037,648.121A76.614,76.614,0,0,1,540.836,627.12Z" transform="translate(91.001 1916.539)" fill="#9e8d85"/>
    <path id="Trazado_13729" data-name="Trazado 13729" d="M596.722,511.321,488.037,402.634A76.883,76.883,0,0,1,596.722,511.321Z" transform="translate(91.001 1925.709)" fill="#79b2e2"/>
    <path id="Trazado_13730" data-name="Trazado 13730" d="M539.9,536.344a76.883,76.883,0,0,1-55.888-129.685L592.7,515.345A76.612,76.612,0,0,1,539.9,536.344Z" transform="translate(91.936 1924.774)" fill="#79b2e2"/>
    <path id="Trazado_13731" data-name="Trazado 13731" d="M469.264,524.683,360.577,633.37A76.884,76.884,0,0,1,469.264,524.683Z" transform="translate(96.546 1921.15)" fill="#846e63"/>
    <path id="Trazado_13732" data-name="Trazado 13732" d="M494.287,581.505A76.883,76.883,0,0,1,364.6,637.393L473.287,528.707A76.617,76.617,0,0,1,494.287,581.505Z" transform="translate(95.612 1920.215)" fill="#846e63"/>
    <g id="Grupo_4782" data-name="Grupo 4782" transform="translate(436.124 2188.518)">
      <path id="Trazado_13733" data-name="Trazado 13733" d="M469.264,279.2,360.577,387.885A76.884,76.884,0,0,1,469.264,279.2Z" transform="translate(-339.578 -258.199)" fill="#4c87cd"/>
      <path id="Trazado_13734" data-name="Trazado 13734" d="M494.287,336.021A76.884,76.884,0,0,1,364.6,391.908L473.287,283.222A76.619,76.619,0,0,1,494.287,336.021Z" transform="translate(-340.513 -259.134)" fill="#4c87cd"/>
    </g>
    <path id="Trazado_13735" data-name="Trazado 13735" d="M484.013,158.879,592.7,267.565A76.884,76.884,0,0,1,484.013,158.879Z" transform="translate(91.936 1934.029)" fill="#78933e"/>
    <path id="Trazado_13736" data-name="Trazado 13736" d="M540.836,133.856a76.882,76.882,0,0,1,55.886,129.685L488.037,154.855A76.617,76.617,0,0,1,540.836,133.856Z" transform="translate(91.001 1934.963)" fill="#78933e"/>
    <path id="Trazado_13737" data-name="Trazado 13737" d="M469.264,31.419,360.577,140.105A76.884,76.884,0,0,1,469.264,31.419Z" transform="translate(96.546 1939.574)" fill="#7fb2aa"/>
    <path id="Trazado_13738" data-name="Trazado 13738" d="M494.287,88.241A76.884,76.884,0,0,1,364.6,144.129L473.287,35.442A76.619,76.619,0,0,1,494.287,88.241Z" transform="translate(95.612 1938.64)" fill="#7fb2aa"/>
    <path id="Trazado_13739" data-name="Trazado 13739" d="M597.631,1011.147,488.945,904.977a77.6,77.6,0,0,1,52.8-20.514c42.462,0,76.888,33.628,76.888,75.108A73.922,73.922,0,0,1,597.631,1011.147Z" transform="translate(90.967 1906.927)" fill="#f6df86"/>
    <path id="Trazado_13740" data-name="Trazado 13740" d="M540.809,1035.592c-42.462,0-76.887-33.627-76.887-75.108a73.923,73.923,0,0,1,21-51.576l108.687,106.17A77.592,77.592,0,0,1,540.809,1035.592Z" transform="translate(91.902 1906.015)" fill="#f6df86"/>
    <circle id="Elipse_1334" data-name="Elipse 1334" cx="61.915" cy="61.915" r="61.915" transform="translate(570.796 2802.803)" fill="#fff"/>
    <path id="Trazado_13741" data-name="Trazado 13741" d="M478.96,87.888a61.914,61.914,0,1,1-61.915-61.915A61.914,61.914,0,0,1,478.96,87.888Z" transform="translate(95.965 1938.993)" fill="#fff"/>
    <circle id="Elipse_1335" data-name="Elipse 1335" cx="61.914" cy="61.914" r="61.914" transform="translate(546.619 2165.823) rotate(-58.283)" fill="#fff"/>
    <circle id="Elipse_1336" data-name="Elipse 1336" cx="61.914" cy="61.914" r="61.914" transform="matrix(0.022, -1, 1, 0.022, 449.722, 2325.914)" fill="#fff"/>
    <path id="Trazado_13742" data-name="Trazado 13742" d="M540.482,521.017A61.914,61.914,0,1,1,602.4,459.1,61.913,61.913,0,0,1,540.482,521.017Z" transform="translate(91.355 1925.127)" fill="#fff"/>
    <circle id="Elipse_1337" data-name="Elipse 1337" cx="61.914" cy="61.914" r="61.914" transform="translate(451.097 2439.807)" fill="#fff"/>
    <circle id="Elipse_1338" data-name="Elipse 1338" cx="58.539" cy="58.539" r="58.539" transform="matrix(0.973, -0.23, 0.23, 0.973, 561.414, 2577.023)" fill="#fff"/>
    <path id="Trazado_13743" data-name="Trazado 13743" d="M478.96,828.933a61.914,61.914,0,1,1-61.915-61.915A61.914,61.914,0,0,1,478.96,828.933Z" transform="translate(95.965 1911.314)" fill="#fff"/>
    <path id="Trazado_13744" data-name="Trazado 13744" d="M481.908,143.609l3,11.21-11.21-3Z" transform="translate(91.537 1934.599)" fill="#4e4e4e"/>
    <path id="Trazado_13745" data-name="Trazado 13745" d="M489.174,277.011l-11.21,3,3-11.21Z" transform="translate(91.377 1929.923)" fill="#4e4e4e"/>
    <path id="Trazado_13746" data-name="Trazado 13746" d="M481.908,392.074l3,11.21-11.21-3Z" transform="translate(91.537 1925.318)" fill="#4e4e4e"/>
    <path id="Trazado_13747" data-name="Trazado 13747" d="M487.248,523.55l-11.21,3,3-11.21Z" transform="translate(91.449 1920.714)" fill="#4e4e4e"/>
    <path id="Trazado_13748" data-name="Trazado 13748" d="M481.908,637.65l3,11.21-11.21-3Z" transform="translate(91.537 1916.146)" fill="#4e4e4e"/>
    <path id="Trazado_13749" data-name="Trazado 13749" d="M481.908,890.029l3,11.21-11.21-3Z" transform="translate(91.537 1906.72)" fill="#4e4e4e"/>
    <path id="Trazado_13750" data-name="Trazado 13750" d="M489.174,771.052l-11.21,3,3-11.21Z" transform="translate(91.377 1911.47)" fill="#4e4e4e"/>
    <path id="Trazado_13751" data-name="Trazado 13751" d="M864.764,1039.32H611.15v-.927H864.764c36.941,0,68.4-26.7,74.808-63.482l.914.159C934,1012.3,902.156,1039.32,864.764,1039.32Z" transform="translate(86.403 1903.549)" fill="#f6df86"/>
    <g id="Grupo_4787" data-name="Grupo 4787" transform="translate(697.552 2788.048)">
      <rect id="Rectángulo_1411" data-name="Rectángulo 1411" width="2.781" height="0.927" transform="translate(0 0)" fill="#f6df86"/>
      <path id="Trazado_13752" data-name="Trazado 13752" d="M939.809,944.078c-.328-1.816-.726-3.638-1.183-5.415l.9-.231c.463,1.8.865,3.643,1.2,5.481Zm-2.759-10.729c-.586-1.742-1.245-3.485-1.958-5.18l.855-.36c.721,1.716,1.389,3.481,1.982,5.244Zm-4.292-10.2c-.837-1.639-1.744-3.268-2.7-4.839l.793-.48c.964,1.59,1.882,3.238,2.73,4.9Zm-5.743-9.468c-1.068-1.5-2.2-2.978-3.377-4.395l.713-.592c1.188,1.433,2.338,2.93,3.418,4.448Zm-7.069-8.529c-1.275-1.328-2.615-2.624-3.984-3.854l.62-.69c1.386,1.246,2.743,2.559,4.034,3.9Zm-8.241-7.407c-1.455-1.126-2.971-2.214-4.506-3.231l.512-.773c1.555,1.03,3.089,2.13,4.562,3.27Zm-9.238-6.122c-1.607-.9-3.266-1.756-4.933-2.536l.394-.84c1.687.791,3.366,1.655,4.992,2.567Zm-10.038-4.7c-1.718-.656-3.484-1.255-5.248-1.784l.267-.889c1.786.535,3.573,1.143,5.312,1.807Zm-10.612-3.18c-1.793-.4-3.627-.734-5.451-1l.134-.917c1.846.271,3.7.611,5.518,1.014Zm-10.962-1.607c-1.828-.135-3.692-.206-5.539-.212l0-.927c1.869.006,3.755.078,5.6.215Zm-10.927-.212h-5.562v-.927h5.562Zm-11.124,0h-6.026v-.927H848.8Zm-11.588,0h-5.563v-.927h5.563Zm-11.125,0h-5.562v-.927h5.562Zm-11.124,0H809.4v-.927h5.563Zm-11.125,0h-5.562v-.927h5.562Zm-11.124,0h-5.563v-.927h5.563Zm-11.125,0h-5.562v-.927h5.562Zm-11.124,0H764.9v-.927h5.563Zm-11.125,0h-5.562v-.927h5.562Zm-11.124,0h-5.563v-.927h5.563Zm-11.125,0H731.53v-.927h5.562Zm-11.124,0H720.4v-.927h5.563Zm-11.125,0H709.28v-.927h5.562Zm-11.125,0h-5.562v-.927h5.562Zm-11.588,0h-5.562v-.927h5.562Zm-11.124,0h-5.562v-.927H681Zm-11.125,0h-5.562v-.927h5.562Zm-11.124,0h-5.562v-.927h5.562Zm-11.125,0h-5.562v-.927h5.562Zm-11.124,0h-5.562v-.927H636.5Zm-11.125,0h-5.562v-.927h5.562Z" transform="translate(-611.473 -880.991)" fill="#f6df86"/>
      <path id="Trazado_13753" data-name="Trazado 13753" d="M953.3,955.029c-.065-.906-.146-1.833-.244-2.754l.921-.1c.1.932.182,1.87.246,2.787Z" transform="translate(-623.92 -883.65)" fill="#f6df86"/>
    </g>
    <path id="Trazado_13754" data-name="Trazado 13754" d="M953.348,975.054a6.135,6.135,0,1,1,6.135-6.135A6.142,6.142,0,0,1,953.348,975.054Zm0-11.342a5.207,5.207,0,1,0,5.208,5.207A5.213,5.213,0,0,0,953.348,963.712Z" transform="translate(73.85 1904.002)" fill="#f6df86"/>
    <path id="Trazado_13755" data-name="Trazado 13755" d="M605.208,1047.282a6.135,6.135,0,1,1,6.135-6.135A6.142,6.142,0,0,1,605.208,1047.282Zm0-11.342a5.208,5.208,0,1,0,5.208,5.207A5.214,5.214,0,0,0,605.208,1035.94Z" transform="translate(86.854 1901.304)" fill="#f6df86"/>
    <circle id="Elipse_1339" data-name="Elipse 1339" cx="5.671" cy="5.671" r="5.671" transform="translate(686.391 2782.886)" fill="#f6df86"/>
    <path id="Trazado_13756" data-name="Trazado 13756" d="M864.764,291.651H611.15v-.927H864.764c36.941,0,68.4-26.7,74.808-63.482l.914.159C934,264.63,902.156,291.651,864.764,291.651Z" transform="translate(86.403 1931.476)" fill="#78933e"/>
    <g id="Grupo_4789" data-name="Grupo 4789" transform="translate(697.552 2068.306)">
      <rect id="Rectángulo_1412" data-name="Rectángulo 1412" width="2.781" height="0.927" fill="#78933e"/>
      <path id="Trazado_13757" data-name="Trazado 13757" d="M939.809,196.409c-.328-1.816-.726-3.638-1.183-5.415l.9-.231c.463,1.8.865,3.643,1.2,5.48Zm-2.759-10.73c-.586-1.741-1.245-3.485-1.958-5.18l.855-.359c.721,1.715,1.389,3.48,1.982,5.244Zm-4.292-10.2c-.837-1.64-1.744-3.268-2.7-4.839l.793-.48c.964,1.59,1.882,3.238,2.73,4.9Zm-5.743-9.469c-1.068-1.5-2.2-2.978-3.377-4.394l.713-.592c1.188,1.433,2.338,2.929,3.418,4.448Zm-7.069-8.529c-1.275-1.327-2.615-2.623-3.984-3.854l.62-.689c1.386,1.246,2.743,2.559,4.034,3.9Zm-8.241-7.407c-1.455-1.126-2.971-2.213-4.506-3.231l.512-.772c1.555,1.029,3.089,2.129,4.562,3.27Zm-9.238-6.121c-1.607-.9-3.266-1.756-4.933-2.537l.394-.839c1.687.79,3.366,1.654,4.992,2.567Zm-10.038-4.7c-1.718-.656-3.484-1.256-5.248-1.785l.267-.888c1.786.535,3.573,1.143,5.312,1.807Zm-10.612-3.18c-1.793-.4-3.627-.734-5.451-1l.134-.917c1.846.271,3.7.611,5.518,1.014Zm-10.962-1.607c-1.828-.136-3.692-.206-5.539-.212l0-.927c1.869.006,3.755.077,5.6.214Zm-10.927-.212h-5.562v-.927h5.562Zm-11.124,0h-6.026v-.927H848.8Zm-11.588,0h-5.563v-.927h5.563Zm-11.125,0h-5.562v-.927h5.562Zm-11.124,0H809.4v-.927h5.563Zm-11.125,0h-5.562v-.927h5.562Zm-11.124,0h-5.563v-.927h5.563Zm-11.125,0h-5.562v-.927h5.562Zm-11.124,0H764.9v-.927h5.563Zm-11.125,0h-5.562v-.927h5.562Zm-11.124,0h-5.563v-.927h5.563Zm-11.125,0H731.53v-.927h5.562Zm-11.124,0H720.4v-.927h5.563Zm-11.125,0H709.28v-.927h5.562Zm-11.125,0h-5.562v-.927h5.562Zm-11.588,0h-5.562v-.927h5.562Zm-11.124,0h-5.562v-.927H681Zm-11.125,0h-5.562v-.927h5.562Zm-11.124,0h-5.562v-.927h5.562Zm-11.125,0h-5.562v-.927h5.562Zm-11.124,0h-5.562v-.927H636.5Zm-11.125,0h-5.562v-.927h5.562Z" transform="translate(-611.473 -133.322)" fill="#78933e"/>
      <path id="Trazado_13758" data-name="Trazado 13758" d="M953.3,207.36c-.065-.907-.146-1.834-.244-2.754l.921-.1c.1.932.182,1.869.246,2.788Z" transform="translate(-623.92 -135.981)" fill="#78933e"/>
    </g>
    <path id="Trazado_13759" data-name="Trazado 13759" d="M953.348,227.385a6.135,6.135,0,1,1,6.135-6.135A6.142,6.142,0,0,1,953.348,227.385Zm0-11.343a5.207,5.207,0,1,0,5.208,5.208A5.214,5.214,0,0,0,953.348,216.042Z" transform="translate(73.85 1931.929)" fill="#78933e"/>
    <path id="Trazado_13760" data-name="Trazado 13760" d="M605.208,299.613a6.135,6.135,0,1,1,6.135-6.135A6.142,6.142,0,0,1,605.208,299.613Zm0-11.342a5.207,5.207,0,1,0,5.208,5.207A5.213,5.213,0,0,0,605.208,288.271Z" transform="translate(86.854 1929.231)" fill="#78933e"/>
    <circle id="Elipse_1340" data-name="Elipse 1340" cx="5.671" cy="5.671" r="5.671" transform="translate(686.391 2063.144)" fill="#78933e"/>
    <path id="Trazado_13761" data-name="Trazado 13761" d="M864.764,538.671H611.15v-.927H864.764c36.941,0,68.4-26.7,74.808-63.482l.914.16C934,511.65,902.156,538.671,864.764,538.671Z" transform="translate(86.403 1922.249)" fill="#79b2e2"/>
    <g id="Grupo_4791" data-name="Grupo 4791" transform="translate(697.552 2306.099)">
      <rect id="Rectángulo_1413" data-name="Rectángulo 1413" width="2.781" height="0.927" transform="translate(0 0)" fill="#79b2e2"/>
      <path id="Trazado_13762" data-name="Trazado 13762" d="M939.81,443.429c-.328-1.816-.727-3.638-1.183-5.415l.9-.231c.462,1.8.864,3.643,1.2,5.481ZM937.051,432.7c-.587-1.743-1.246-3.487-1.958-5.18l.854-.36c.721,1.715,1.389,3.479,1.982,5.244Zm-4.292-10.2c-.837-1.638-1.743-3.267-2.7-4.839l.793-.48c.965,1.591,1.883,3.239,2.73,4.9Zm-5.743-9.468c-1.068-1.5-2.2-2.977-3.377-4.395l.713-.591c1.188,1.433,2.338,2.93,3.418,4.447Zm-7.069-8.529c-1.275-1.327-2.615-2.624-3.984-3.854l.62-.689c1.385,1.245,2.743,2.558,4.033,3.9Zm-8.241-7.407c-1.455-1.126-2.971-2.213-4.506-3.231l.512-.773c1.555,1.03,3.089,2.13,4.562,3.27Zm-9.238-6.122c-1.607-.9-3.266-1.756-4.933-2.536l.394-.84c1.687.79,3.366,1.655,4.993,2.567Zm-10.038-4.7c-1.718-.656-3.484-1.256-5.248-1.785l.267-.889c1.786.535,3.573,1.143,5.312,1.807Zm-10.612-3.181c-1.793-.4-3.627-.734-5.451-1l.134-.917c1.846.271,3.7.611,5.518,1.014Zm-10.962-1.607c-1.828-.135-3.692-.206-5.539-.211l0-.928c1.869.006,3.755.078,5.6.215Zm-10.927-.212h-5.562v-.927h5.562Zm-11.124,0h-6.026v-.927H848.8Zm-11.588,0h-5.563v-.927h5.563Zm-11.125,0h-5.562v-.927h5.562Zm-11.124,0H809.4v-.927h5.563Zm-11.125,0h-5.562v-.927h5.562Zm-11.124,0h-5.563v-.927h5.563Zm-11.125,0h-5.562v-.927h5.562Zm-11.124,0H764.9v-.927h5.563Zm-11.125,0h-5.562v-.927h5.562Zm-11.124,0h-5.563v-.927h5.563Zm-11.125,0H731.53v-.927h5.562Zm-11.124,0H720.4v-.927h5.563Zm-11.125,0H709.28v-.927h5.562Zm-11.125,0h-5.562v-.927h5.562Zm-11.588,0h-5.562v-.927h5.562Zm-11.124,0h-5.562v-.927H681Zm-11.125,0h-5.562v-.927h5.562Zm-11.124,0h-5.562v-.927h5.562Zm-11.125,0h-5.562v-.927h5.562Zm-11.124,0h-5.562v-.927H636.5Zm-11.125,0h-5.562v-.927h5.562Z" transform="translate(-611.473 -380.342)" fill="#79b2e2"/>
      <path id="Trazado_13763" data-name="Trazado 13763" d="M953.3,454.381c-.065-.907-.146-1.834-.244-2.755l.921-.1c.1.932.182,1.869.246,2.787Z" transform="translate(-623.92 -383.001)" fill="#79b2e2"/>
    </g>
    <path id="Trazado_13764" data-name="Trazado 13764" d="M953.348,474.4a6.134,6.134,0,1,1,6.135-6.134A6.141,6.141,0,0,1,953.348,474.4Zm0-11.342a5.207,5.207,0,1,0,5.208,5.208A5.214,5.214,0,0,0,953.348,463.063Z" transform="translate(73.85 1922.702)" fill="#79b2e2"/>
    <path id="Trazado_13765" data-name="Trazado 13765" d="M605.208,546.634a6.135,6.135,0,1,1,6.135-6.135A6.142,6.142,0,0,1,605.208,546.634Zm0-11.343a5.207,5.207,0,1,0,5.208,5.208A5.214,5.214,0,0,0,605.208,535.291Z" transform="translate(86.854 1920.004)" fill="#79b2e2"/>
    <circle id="Elipse_1341" data-name="Elipse 1341" cx="5.671" cy="5.671" r="5.671" transform="translate(686.391 2300.938)" fill="#79b2e2"/>
    <path id="Trazado_13766" data-name="Trazado 13766" d="M864.764,785.692H611.15v-.927H864.764c36.941,0,68.4-26.7,74.808-63.482l.914.16C934,758.671,902.156,785.692,864.764,785.692Z" transform="translate(86.403 1913.022)" fill="#9e8d85"/>
    <g id="Grupo_4793" data-name="Grupo 4793" transform="translate(697.552 2543.893)">
      <rect id="Rectángulo_1414" data-name="Rectángulo 1414" width="2.781" height="0.927" fill="#9e8d85"/>
      <path id="Trazado_13767" data-name="Trazado 13767" d="M939.81,690.45c-.328-1.817-.727-3.639-1.183-5.415l.9-.231c.462,1.8.864,3.643,1.2,5.48Zm-2.759-10.73c-.587-1.743-1.246-3.486-1.958-5.18l.854-.359c.721,1.714,1.389,3.479,1.982,5.244Zm-4.292-10.2c-.837-1.639-1.743-3.267-2.7-4.839l.793-.481c.965,1.591,1.883,3.239,2.73,4.9Zm-5.743-9.469c-1.068-1.5-2.2-2.977-3.377-4.394l.713-.592c1.188,1.434,2.338,2.93,3.418,4.447Zm-7.069-8.529c-1.276-1.328-2.616-2.625-3.984-3.854l.62-.689c1.384,1.245,2.742,2.558,4.033,3.9Zm-8.241-7.407c-1.456-1.127-2.972-2.214-4.506-3.231l.512-.773c1.553,1.029,3.087,2.129,4.562,3.271Zm-9.238-6.121c-1.607-.9-3.266-1.756-4.933-2.537l.394-.839c1.687.79,3.366,1.655,4.992,2.567Zm-10.038-4.7c-1.719-.656-3.485-1.256-5.248-1.785l.267-.888c1.785.534,3.572,1.143,5.312,1.806Zm-10.612-3.18c-1.8-.4-3.629-.734-5.451-1l.134-.917c1.844.271,3.7.611,5.518,1.014ZM870.856,628.5c-1.828-.135-3.692-.206-5.539-.212l0-.927c1.869.006,3.755.078,5.6.215Zm-10.927-.212h-5.562v-.927h5.562Zm-11.124,0h-6.026v-.927H848.8Zm-11.588,0h-5.563v-.927h5.563Zm-11.125,0h-5.562v-.927h5.562Zm-11.124,0H809.4v-.927h5.563Zm-11.125,0h-5.562v-.927h5.562Zm-11.124,0h-5.563v-.927h5.563Zm-11.125,0h-5.562v-.927h5.562Zm-11.124,0H764.9v-.927h5.563Zm-11.125,0h-5.562v-.927h5.562Zm-11.124,0h-5.563v-.927h5.563Zm-11.125,0H731.53v-.927h5.562Zm-11.124,0H720.4v-.927h5.563Zm-11.125,0H709.28v-.927h5.562Zm-11.125,0h-5.562v-.927h5.562Zm-11.588,0h-5.562v-.927h5.562Zm-11.124,0h-5.562v-.927H681Zm-11.125,0h-5.562v-.927h5.562Zm-11.124,0h-5.562v-.927h5.562Zm-11.125,0h-5.562v-.927h5.562Zm-11.124,0h-5.562v-.927H636.5Zm-11.125,0h-5.562v-.927h5.562Z" transform="translate(-611.473 -627.363)" fill="#9e8d85"/>
      <path id="Trazado_13768" data-name="Trazado 13768" d="M953.3,701.4c-.065-.907-.146-1.834-.244-2.754l.921-.1c.1.932.182,1.87.246,2.788Z" transform="translate(-623.92 -630.022)" fill="#9e8d85"/>
    </g>
    <path id="Trazado_13769" data-name="Trazado 13769" d="M953.348,721.426a6.134,6.134,0,1,1,6.135-6.135A6.142,6.142,0,0,1,953.348,721.426Zm0-11.342a5.207,5.207,0,1,0,5.208,5.207A5.213,5.213,0,0,0,953.348,710.084Z" transform="translate(73.85 1913.475)" fill="#9e8d85"/>
    <path id="Trazado_13770" data-name="Trazado 13770" d="M605.208,793.654a6.134,6.134,0,1,1,6.135-6.135A6.142,6.142,0,0,1,605.208,793.654Zm0-11.342a5.207,5.207,0,1,0,5.208,5.207A5.214,5.214,0,0,0,605.208,782.312Z" transform="translate(86.854 1910.777)" fill="#9e8d85"/>
    <circle id="Elipse_1342" data-name="Elipse 1342" cx="5.671" cy="5.671" r="5.671" transform="translate(686.391 2538.731)" fill="#9e8d85"/>
    <path id="Trazado_13771" data-name="Trazado 13771" d="M338.832,168.863H85.217c-37.392,0-69.238-27.021-75.721-64.25l.914-.159c6.405,36.784,37.867,63.482,74.807,63.482H338.832Z" transform="translate(108.875 1936.062)" fill="none" stroke="#7fb2aa" stroke-miterlimit="10" stroke-width="1"/>
    <g id="Grupo_4795" data-name="Grupo 4795" transform="translate(117.4 1950.104)">
      <rect id="Rectángulo_1415" data-name="Rectángulo 1415" width="2.781" height="0.927" transform="translate(327.525)" fill="none" stroke="#7fb2aa" stroke-miterlimit="10" stroke-width="1"/>
      <path id="Trazado_13772" data-name="Trazado 13772" d="M10.5,73.621l-.912-.166c.331-1.835.735-3.678,1.2-5.48l.9.231C11.223,69.986,10.826,71.808,10.5,73.621Zm2.759-10.73-.879-.3c.595-1.765,1.261-3.528,1.983-5.244l.855.359C14.5,59.406,13.844,61.149,13.257,62.892Zm4.293-10.2-.826-.422c.845-1.658,1.765-3.306,2.73-4.9l.792.48C19.292,49.422,18.385,51.051,17.55,52.688Zm5.742-9.469-.755-.537c1.08-1.517,2.23-3.014,3.419-4.448l.713.592C25.5,40.243,24.36,41.721,23.292,43.22Zm7.069-8.529-.669-.642c1.292-1.344,2.648-2.656,4.033-3.9l.62.689C32.976,32.067,31.636,33.363,30.361,34.691ZM38.6,27.284l-.568-.733c1.475-1.142,3.009-2.242,4.562-3.27l.512.772C41.575,25.07,40.059,26.157,38.6,27.284Zm9.239-6.121-.454-.809c1.625-.913,3.3-1.776,4.993-2.567l.394.839C51.105,19.408,49.445,20.261,47.841,21.163Zm10.039-4.7-.331-.865c1.74-.664,3.526-1.272,5.313-1.807l.266.888C61.363,15.2,59.6,15.8,57.879,16.459Zm10.612-3.18-.2-.9c1.816-.4,3.672-.743,5.518-1.014l.135.917C72.119,12.545,70.284,12.882,68.491,13.279Zm10.961-1.607-.068-.925c1.85-.137,3.736-.208,5.606-.214l0,.927C83.144,11.467,81.28,11.537,79.452,11.673Zm251.039-.212h-5.562v-.927h5.562Zm-11.124,0H313.8v-.927h5.563Zm-11.125,0h-5.562v-.927h5.562Zm-11.124,0h-5.563v-.927h5.563Zm-11.125,0h-5.562v-.927h5.562Zm-11.124,0H269.3v-.927h5.563Zm-11.125,0H258.18v-.927h5.562Zm-11.588,0h-5.562v-.927h5.562Zm-11.124,0h-5.563v-.927h5.563Zm-11.125,0h-5.562v-.927H229.9Zm-11.124,0h-5.563v-.927h5.563Zm-11.125,0h-5.562v-.927h5.562Zm-11.124,0h-5.563v-.927h5.563Zm-11.125,0h-5.562v-.927H185.4Zm-11.124,0h-5.563v-.927h5.563Zm-11.125,0h-5.562v-.927h5.562Zm-11.125,0h-5.562v-.927h5.562Zm-11.124,0h-5.562v-.927H140.9Zm-11.125,0h-5.562v-.927h5.562Zm-11.124,0h-5.562v-.927h5.562Zm-11.125,0H101.5v-.927h6.025Zm-11.588,0H90.379v-.927h5.562Z" transform="translate(-8.528 -10.534)" fill="none" stroke="#7fb2aa" stroke-miterlimit="10" stroke-width="1"/>
      <path id="Trazado_13773" data-name="Trazado 13773" d="M9.412,84.572l-.925-.064c.065-.933.148-1.87.246-2.788l.921.1C9.558,82.724,9.477,83.651,9.412,84.572Z" transform="translate(-8.487 -13.193)" fill="none" stroke="#7fb2aa" stroke-miterlimit="10" stroke-width="1"/>
    </g>
    <path id="Trazado_13774" data-name="Trazado 13774" d="M8.935,104.6a6.135,6.135,0,1,1,6.135-6.135A6.142,6.142,0,0,1,8.935,104.6Zm0-11.343a5.208,5.208,0,1,0,5.208,5.208A5.214,5.214,0,0,0,8.935,93.254Z" transform="translate(109.125 1936.515)" fill="none" stroke="#7fb2aa" stroke-miterlimit="10" stroke-width="1"/>
    <path id="Trazado_13775" data-name="Trazado 13775" d="M357.075,176.825a6.135,6.135,0,1,1,6.135-6.135A6.142,6.142,0,0,1,357.075,176.825Zm0-11.342a5.207,5.207,0,1,0,5.208,5.207A5.213,5.213,0,0,0,357.075,165.483Z" transform="translate(96.122 1933.816)" fill="none" stroke="#7fb2aa" stroke-miterlimit="10" stroke-width="1"/>
    <circle id="Elipse_1343" data-name="Elipse 1343" cx="5.671" cy="5.671" r="5.671" transform="translate(447.526 1944.941)" fill="none" stroke="#7fb2aa" stroke-miterlimit="10" stroke-width="1"/>
    <path id="Trazado_13776" data-name="Trazado 13776" d="M338.832,415.883H85.217c-37.392,0-69.238-27.021-75.721-64.249l.914-.16c6.405,36.785,37.867,63.482,74.807,63.482H338.832Z" transform="translate(108.875 1926.835)" fill="#4c87cd"/>
    <g id="Grupo_4797" data-name="Grupo 4797" transform="translate(117.4 2187.897)">
      <rect id="Rectángulo_1416" data-name="Rectángulo 1416" width="2.781" height="0.927" transform="translate(327.525 0)" fill="#4c87cd"/>
      <path id="Trazado_13777" data-name="Trazado 13777" d="M10.5,320.641l-.912-.165c.331-1.835.735-3.679,1.2-5.481l.9.231C11.223,317.006,10.826,318.829,10.5,320.641Zm2.759-10.729-.879-.3c.595-1.765,1.261-3.529,1.983-5.245l.855.36C14.5,306.427,13.844,308.169,13.257,309.912Zm4.293-10.2-.826-.422c.845-1.658,1.765-3.306,2.73-4.9l.792.48C19.292,296.443,18.385,298.071,17.55,299.709Zm5.742-9.469-.755-.538c1.08-1.517,2.23-3.013,3.419-4.447l.713.591C25.5,287.263,24.36,288.742,23.292,290.241Zm7.069-8.529-.669-.642c1.292-1.344,2.648-2.657,4.033-3.9l.62.689C32.976,279.087,31.636,280.384,30.361,281.712Zm8.241-7.407-.568-.734c1.475-1.141,3.009-2.241,4.562-3.27l.512.773C41.575,272.091,40.059,273.178,38.6,274.305Zm9.239-6.122-.454-.808c1.625-.913,3.3-1.777,4.993-2.567l.394.839C51.105,266.428,49.445,267.282,47.841,268.183Zm10.039-4.7-.331-.866c1.74-.664,3.526-1.272,5.313-1.807l.266.888C61.363,262.224,59.6,262.824,57.879,263.48ZM68.491,260.3l-.2-.9c1.816-.4,3.672-.743,5.518-1.014l.135.917C72.119,259.566,70.284,259.9,68.491,260.3Zm10.961-1.607-.068-.924c1.85-.137,3.736-.209,5.606-.214l0,.927C83.144,258.487,81.28,258.558,79.452,258.693Zm251.039-.212h-5.562v-.927h5.562Zm-11.124,0H313.8v-.927h5.563Zm-11.125,0h-5.562v-.927h5.562Zm-11.124,0h-5.563v-.927h5.563Zm-11.125,0h-5.562v-.927h5.562Zm-11.124,0H269.3v-.927h5.563Zm-11.125,0H258.18v-.927h5.562Zm-11.588,0h-5.562v-.927h5.562Zm-11.124,0h-5.563v-.927h5.563Zm-11.125,0h-5.562v-.927H229.9Zm-11.124,0h-5.563v-.927h5.563Zm-11.125,0h-5.562v-.927h5.562Zm-11.124,0h-5.563v-.927h5.563Zm-11.125,0h-5.562v-.927H185.4Zm-11.124,0h-5.563v-.927h5.563Zm-11.125,0h-5.562v-.927h5.562Zm-11.125,0h-5.562v-.927h5.562Zm-11.124,0h-5.562v-.927H140.9Zm-11.125,0h-5.562v-.927h5.562Zm-11.124,0h-5.562v-.927h5.562Zm-11.125,0H101.5v-.927h6.025Zm-11.588,0H90.379v-.927h5.562Z" transform="translate(-8.528 -257.554)" fill="#4c87cd"/>
      <path id="Trazado_13778" data-name="Trazado 13778" d="M9.412,331.593l-.925-.065c.065-.933.148-1.87.246-2.787l.921.1C9.558,329.745,9.477,330.672,9.412,331.593Z" transform="translate(-8.487 -260.213)" fill="#4c87cd"/>
    </g>
    <path id="Trazado_13779" data-name="Trazado 13779" d="M8.935,351.617a6.134,6.134,0,1,1,6.135-6.135A6.142,6.142,0,0,1,8.935,351.617Zm0-11.342a5.207,5.207,0,1,0,5.208,5.207A5.213,5.213,0,0,0,8.935,340.275Z" transform="translate(109.125 1927.288)" fill="#4c87cd"/>
    <path id="Trazado_13780" data-name="Trazado 13780" d="M357.075,423.846a6.135,6.135,0,1,1,6.135-6.135A6.142,6.142,0,0,1,357.075,423.846Zm0-11.343a5.207,5.207,0,1,0,5.208,5.208A5.214,5.214,0,0,0,357.075,412.5Z" transform="translate(96.122 1924.59)" fill="#4c87cd"/>
    <circle id="Elipse_1344" data-name="Elipse 1344" cx="5.671" cy="5.671" r="5.671" transform="translate(447.526 2182.735)" fill="#4c87cd"/>
    <path id="Trazado_13781" data-name="Trazado 13781" d="M338.832,662.9H85.217c-37.392,0-69.238-27.021-75.721-64.249l.914-.16c6.405,36.784,37.867,63.482,74.807,63.482H338.832Z" transform="translate(108.875 1917.608)" fill="#846e63"/>
    <g id="Grupo_4799" data-name="Grupo 4799" transform="translate(117.4 2425.691)">
      <rect id="Rectángulo_1417" data-name="Rectángulo 1417" width="2.781" height="0.927" transform="translate(327.525)" fill="#846e63"/>
      <path id="Trazado_13782" data-name="Trazado 13782" d="M10.5,567.662l-.912-.166c.331-1.835.735-3.679,1.2-5.48l.9.231C11.223,564.027,10.826,565.849,10.5,567.662Zm2.759-10.73-.878-.3c.594-1.766,1.261-3.53,1.982-5.244l.855.359C14.5,553.446,13.844,555.188,13.257,556.932Zm4.293-10.2-.826-.422c.845-1.657,1.764-3.3,2.73-4.9l.792.481C19.291,543.464,18.385,545.093,17.55,546.729Zm5.742-9.469-.755-.538c1.079-1.515,2.229-3.012,3.418-4.447l.714.592C25.495,534.284,24.359,535.763,23.292,537.261Zm7.069-8.529-.669-.642c1.293-1.345,2.65-2.658,4.033-3.9l.62.689C32.978,526.107,31.637,527.4,30.361,528.732Zm8.241-7.407-.568-.733c1.477-1.143,3.011-2.243,4.562-3.271l.512.773C41.576,519.11,40.06,520.2,38.6,521.325Zm9.239-6.121-.454-.809c1.625-.913,3.3-1.776,4.993-2.567l.394.839C51.105,513.449,49.445,514.3,47.841,515.2Zm10.039-4.7-.331-.866c1.74-.663,3.528-1.272,5.313-1.806l.266.889C61.363,509.244,59.6,509.845,57.879,510.5Zm10.612-3.18-.2-.9c1.817-.4,3.673-.744,5.518-1.014l.135.917C72.121,506.586,70.287,506.923,68.491,507.32Zm10.961-1.607-.068-.924c1.85-.137,3.736-.209,5.606-.215l0,.927C83.144,505.508,81.28,505.579,79.452,505.714Zm251.039-.212h-5.562v-.927h5.562Zm-11.124,0H313.8v-.927h5.563Zm-11.125,0h-5.562v-.927h5.562Zm-11.124,0h-5.563v-.927h5.563Zm-11.125,0h-5.562v-.927h5.562Zm-11.124,0H269.3v-.927h5.563Zm-11.125,0H258.18v-.927h5.562Zm-11.588,0h-5.562v-.927h5.562Zm-11.124,0h-5.563v-.927h5.563Zm-11.125,0h-5.562v-.927H229.9Zm-11.124,0h-5.563v-.927h5.563Zm-11.125,0h-5.562v-.927h5.562Zm-11.124,0h-5.563v-.927h5.563Zm-11.125,0h-5.562v-.927H185.4Zm-11.124,0h-5.563v-.927h5.563Zm-11.125,0h-5.562v-.927h5.562Zm-11.125,0h-5.562v-.927h5.562Zm-11.124,0h-5.562v-.927H140.9Zm-11.125,0h-5.562v-.927h5.562Zm-11.124,0h-5.562v-.927h5.562Zm-11.125,0H101.5v-.927h6.025Zm-11.588,0H90.379v-.927h5.562Z" transform="translate(-8.528 -504.575)" fill="#846e63"/>
      <path id="Trazado_13783" data-name="Trazado 13783" d="M9.412,578.613l-.925-.065c.065-.933.148-1.87.246-2.788l.921.1C9.558,576.765,9.477,577.692,9.412,578.613Z" transform="translate(-8.487 -507.234)" fill="#846e63"/>
    </g>
    <path id="Trazado_13784" data-name="Trazado 13784" d="M8.935,598.638A6.134,6.134,0,1,1,15.07,592.5,6.142,6.142,0,0,1,8.935,598.638Zm0-11.342a5.207,5.207,0,1,0,5.208,5.207A5.213,5.213,0,0,0,8.935,587.3Z" transform="translate(109.125 1918.062)" fill="#846e63"/>
    <path id="Trazado_13785" data-name="Trazado 13785" d="M357.075,670.866a6.134,6.134,0,1,1,6.135-6.135A6.141,6.141,0,0,1,357.075,670.866Zm0-11.342a5.207,5.207,0,1,0,5.208,5.207A5.214,5.214,0,0,0,357.075,659.524Z" transform="translate(96.122 1915.364)" fill="#846e63"/>
    <circle id="Elipse_1345" data-name="Elipse 1345" cx="5.671" cy="5.671" r="5.671" transform="translate(447.526 2420.53)" fill="#846e63"/>
    <path id="Trazado_13786" data-name="Trazado 13786" d="M338.832,909.924H85.217c-37.392,0-69.238-27.021-75.721-64.249l.914-.16C16.815,882.3,48.276,909,85.217,909H338.832Z" transform="translate(108.875 1908.382)" fill="#d39711"/>
    <g id="Grupo_4801" data-name="Grupo 4801" transform="translate(117.4 2663.485)">
      <rect id="Rectángulo_1418" data-name="Rectángulo 1418" width="2.781" height="0.927" transform="translate(327.525 0)" fill="#d39711"/>
      <path id="Trazado_13787" data-name="Trazado 13787" d="M10.5,814.682l-.912-.165c.331-1.835.735-3.679,1.2-5.481l.9.231C11.223,811.047,10.826,812.87,10.5,814.682Zm2.759-10.729-.878-.3c.594-1.766,1.261-3.529,1.982-5.244l.855.36C14.5,800.466,13.844,802.209,13.257,803.953Zm4.293-10.2-.826-.421c.845-1.657,1.764-3.306,2.73-4.9l.792.48C19.291,790.485,18.385,792.113,17.55,793.749Zm5.742-9.468-.755-.538c1.079-1.516,2.229-3.012,3.418-4.448l.714.591C25.495,781.305,24.359,782.784,23.292,784.282Zm7.069-8.529-.669-.643c1.293-1.345,2.65-2.657,4.033-3.9l.62.69C32.978,773.127,31.637,774.423,30.361,775.753Zm8.241-7.407-.568-.734c1.477-1.142,3.011-2.242,4.562-3.27l.512.773C41.576,766.131,40.06,767.218,38.6,768.346Zm9.239-6.122-.454-.808c1.625-.913,3.3-1.777,4.993-2.567l.394.839C51.105,760.47,49.445,761.323,47.841,762.224Zm10.039-4.7-.331-.866c1.74-.664,3.528-1.272,5.313-1.807l.266.889C61.363,756.265,59.6,756.865,57.879,757.521Zm10.612-3.18-.2-.906c1.817-.4,3.673-.743,5.518-1.014l.135.917C72.121,753.607,70.287,753.943,68.491,754.341Zm10.961-1.608-.068-.924c1.85-.137,3.736-.209,5.606-.214l0,.927C83.144,752.528,81.28,752.6,79.452,752.734Zm251.039-.212h-5.562v-.927h5.562Zm-11.124,0H313.8v-.927h5.563Zm-11.125,0h-5.562v-.927h5.562Zm-11.124,0h-5.563v-.927h5.563Zm-11.125,0h-5.562v-.927h5.562Zm-11.124,0H269.3v-.927h5.563Zm-11.125,0H258.18v-.927h5.562Zm-11.588,0h-5.562v-.927h5.562Zm-11.124,0h-5.563v-.927h5.563Zm-11.125,0h-5.562v-.927H229.9Zm-11.124,0h-5.563v-.927h5.563Zm-11.125,0h-5.562v-.927h5.562Zm-11.124,0h-5.563v-.927h5.563Zm-11.125,0h-5.562v-.927H185.4Zm-11.124,0h-5.563v-.927h5.563Zm-11.125,0h-5.562v-.927h5.562Zm-11.125,0h-5.562v-.927h5.562Zm-11.124,0h-5.562v-.927H140.9Zm-11.125,0h-5.562v-.927h5.562Zm-11.124,0h-5.562v-.927h5.562Zm-11.125,0H101.5v-.927h6.025Zm-11.588,0H90.379v-.927h5.562Z" transform="translate(-8.528 -751.595)" fill="#d39711"/>
      <path id="Trazado_13788" data-name="Trazado 13788" d="M9.412,825.634l-.925-.065c.065-.932.148-1.87.246-2.787l.921.1C9.558,823.786,9.477,824.713,9.412,825.634Z" transform="translate(-8.487 -754.254)" fill="#d39711"/>
    </g>
    <path id="Trazado_13789" data-name="Trazado 13789" d="M8.935,845.658a6.134,6.134,0,1,1,6.135-6.134A6.141,6.141,0,0,1,8.935,845.658Zm0-11.342a5.207,5.207,0,1,0,5.208,5.208A5.214,5.214,0,0,0,8.935,834.316Z" transform="translate(109.125 1908.835)" fill="#d39711"/>
    <path id="Trazado_13790" data-name="Trazado 13790" d="M357.075,917.887a6.135,6.135,0,1,1,6.135-6.135A6.142,6.142,0,0,1,357.075,917.887Zm0-11.343a5.208,5.208,0,1,0,5.208,5.208A5.214,5.214,0,0,0,357.075,906.544Z" transform="translate(96.122 1906.137)" fill="#d39711"/>
    <circle id="Elipse_1346" data-name="Elipse 1346" cx="5.671" cy="5.671" r="5.671" transform="translate(447.526 2658.324)" fill="#d39711"/>
    <g id="Grupo_4803" data-name="Grupo 4803" transform="translate(461.433 1992.4)">
      <path id="Trazado_13791" data-name="Trazado 13791" d="M406.229,120.412q-16.739.876-38.928-2.137a1.656,1.656,0,0,1-1.428-1.768,1.687,1.687,0,0,1,1.68-1.533c.636.013,62.749.5,75.485-49.543a1.657,1.657,0,0,1,2.181-1.146l6.842,2.533a1.657,1.657,0,0,1,.953.912c.346.823,8.337,20.333-3.42,35.669C441.753,113.629,427.225,119.313,406.229,120.412Zm-22.236-3.7c31.8,2.318,53.414-2.888,62.954-15.307,9.466-12.324,4.483-28.335,3.258-31.739l-4.43-1.638C436.048,102.4,403.939,113.278,383.993,116.712Z" transform="translate(-365.869 -54.834)" fill="#7fb2aa"/>
      <path id="Trazado_13792" data-name="Trazado 13792" d="M387.341,120.973l-.364.017a1.658,1.658,0,0,1-.151-3.312l.121-.006c2.281-.12,42.434-2.66,55.048-31.138a1.657,1.657,0,0,1,3.03,1.342C431.774,117.8,391.887,120.735,387.341,120.973Z" transform="translate(-366.593 -55.632)" fill="#7fb2aa"/>
      <path id="Trazado_13793" data-name="Trazado 13793" d="M456.174,60.321a1.635,1.635,0,0,1-.607-.082L447.915,57.7a1.658,1.658,0,1,1,1.042-3.148l7.652,2.535a1.658,1.658,0,0,1-.434,3.23Z" transform="translate(-368.891 -54.472)" fill="#7fb2aa"/>
    </g>
    <g id="Grupo_4805" data-name="Grupo 4805" transform="translate(582.544 2347.709)">
      <path id="Trazado_13794" data-name="Trazado 13794" d="M532.039,489.507q-16.737.876-38.927-2.137a1.658,1.658,0,0,1-1.429-1.768,1.688,1.688,0,0,1,1.681-1.533c.636.013,62.749.5,75.484-49.543a1.658,1.658,0,0,1,2.182-1.146l6.843,2.533a1.657,1.657,0,0,1,.952.911c.347.824,8.338,20.334-3.42,35.669C567.563,482.723,553.035,488.408,532.039,489.507Zm-22.236-3.7c31.8,2.318,53.414-2.888,62.954-15.308,9.466-12.323,4.484-28.334,3.259-31.739l-4.431-1.639C561.859,471.5,529.75,482.373,509.8,485.807Z" transform="translate(-491.679 -423.929)" fill="#79b2e2"/>
      <path id="Trazado_13795" data-name="Trazado 13795" d="M513.151,490.067l-.364.018a1.658,1.658,0,0,1-.15-3.312l.121-.007c2.281-.119,42.434-2.66,55.047-31.137a1.657,1.657,0,1,1,3.03,1.342C557.584,486.892,517.7,489.83,513.151,490.067Z" transform="translate(-492.403 -424.727)" fill="#79b2e2"/>
      <path id="Trazado_13796" data-name="Trazado 13796" d="M581.984,429.416a1.638,1.638,0,0,1-.607-.082l-7.651-2.536a1.657,1.657,0,1,1,1.042-3.147l7.651,2.535a1.658,1.658,0,0,1-.434,3.23Z" transform="translate(-494.701 -423.567)" fill="#79b2e2"/>
    </g>
    <g id="Grupo_4807" data-name="Grupo 4807" transform="translate(462.892 2464.443)">
      <path id="Trazado_13797" data-name="Trazado 13797" d="M407.745,610.77q-16.739.877-38.928-2.137a1.658,1.658,0,0,1-1.429-1.768,1.689,1.689,0,0,1,1.681-1.533c.636.014,62.749.5,75.484-49.543a1.658,1.658,0,0,1,2.182-1.146l6.842,2.533a1.653,1.653,0,0,1,.952.912c.347.823,8.337,20.333-3.42,35.669C443.269,603.987,428.74,609.671,407.745,610.77Zm-22.237-3.7c31.8,2.318,53.414-2.888,62.955-15.308,9.466-12.323,4.483-28.334,3.258-31.739l-4.43-1.638C437.564,592.759,405.455,603.636,385.508,607.07Z" transform="translate(-367.384 -545.192)" fill="#846e63"/>
      <path id="Trazado_13798" data-name="Trazado 13798" d="M388.857,611.331l-.364.017a1.658,1.658,0,0,1-.151-3.312l.121-.007c2.281-.119,42.434-2.66,55.048-31.137a1.657,1.657,0,1,1,3.03,1.342C433.289,608.155,393.4,611.093,388.857,611.331Z" transform="translate(-368.108 -545.99)" fill="#846e63"/>
      <path id="Trazado_13799" data-name="Trazado 13799" d="M457.69,550.679a1.635,1.635,0,0,1-.607-.082l-7.652-2.535a1.658,1.658,0,0,1,1.042-3.148l7.651,2.535a1.658,1.658,0,0,1-.433,3.23Z" transform="translate(-370.406 -544.83)" fill="#846e63"/>
    </g>
    <g id="Grupo_4809" data-name="Grupo 4809" transform="translate(581.814 2583.365)">
      <path id="Trazado_13800" data-name="Trazado 13800" d="M531.281,734.307q-16.737.877-38.927-2.137a1.658,1.658,0,0,1-1.429-1.768,1.688,1.688,0,0,1,1.681-1.533c.076,0,1.039.01,2.7-.064,12.144-.535,61.583-5.447,72.789-49.479a1.658,1.658,0,0,1,2.182-1.146l6.843,2.533a1.657,1.657,0,0,1,.952.911c.347.824,8.338,20.334-3.42,35.669a34.1,34.1,0,0,1-9.413,8.325Q552.874,733.172,531.281,734.307Zm-22.236-3.7c31.8,2.318,53.414-2.888,62.954-15.308,9.466-12.323,4.484-28.334,3.259-31.738l-4.43-1.639C561.1,716.3,528.992,727.173,509.045,730.607Z" transform="translate(-490.921 -668.729)" fill="#846e63"/>
      <path id="Trazado_13801" data-name="Trazado 13801" d="M512.393,734.867l-.364.018a1.658,1.658,0,0,1-.15-3.312l.121-.007c2.281-.119,42.434-2.66,55.047-31.137a1.658,1.658,0,0,1,3.031,1.342C556.826,731.692,516.94,734.63,512.393,734.867Z" transform="translate(-491.645 -669.527)" fill="#846e63"/>
      <path id="Trazado_13802" data-name="Trazado 13802" d="M581.226,674.216a1.639,1.639,0,0,1-.607-.082l-7.651-2.536a1.657,1.657,0,1,1,1.042-3.147l7.651,2.535a1.658,1.658,0,0,1-.434,3.23Z" transform="translate(-493.943 -668.367)" fill="#846e63"/>
    </g>
    <path id="Trazado_13803" data-name="Trazado 13803" d="M570.463,190.737" transform="translate(87.922 1932.839)" fill="#78933e"/>
    <path id="Trazado_13804" data-name="Trazado 13804" d="M571.013,227.533l3.123,1.486c.453-.517.9-1.04,1.314-1.582.391-.509.756-1.023,1.1-1.54l-.837-5.23a26.12,26.12,0,0,1-2.914,4.775A27.257,27.257,0,0,1,571.013,227.533Z" transform="translate(87.902 1931.721)" fill="#78933e"/>
    <path id="Trazado_13805" data-name="Trazado 13805" d="M566.042,235.854l.238-4.207a40.242,40.242,0,0,1-8.2,4.522l4.53,1.624C563.81,237.183,564.956,236.539,566.042,235.854Z" transform="translate(88.385 1931.311)" fill="#78933e"/>
    <path id="Trazado_13806" data-name="Trazado 13806" d="M507.311,241.379a1.658,1.658,0,0,1,1.57-1.719l.121-.007.118-.006c-.779-.049-1.559-.1-2.35-.156,19.947-3.434,52.056-14.311,61.783-48.685l4.43,1.638a41.559,41.559,0,0,1,2.079,18.666l3.393.077a43.881,43.881,0,0,0-2.662-20.679,1.659,1.659,0,0,0-.953-.911L568,187.065a1.657,1.657,0,0,0-2.181,1.146c-12.736,50.04-74.849,49.556-75.485,49.543a1.687,1.687,0,0,0-1.68,1.533,1.656,1.656,0,0,0,1.428,1.768c6.567.893,12.758,1.515,18.613,1.9A1.66,1.66,0,0,1,507.311,241.379Z" transform="translate(90.978 1932.979)" fill="#78933e"/>
    <path id="Trazado_13807" data-name="Trazado 13807" d="M550.206,238.534a94.84,94.84,0,0,1-21.782,3.262,92.178,92.178,0,0,1-18.243,3.084l-.364.017a1.438,1.438,0,0,1-.145-.01,173.829,173.829,0,0,0,20.121.229,98.24,98.24,0,0,0,19.491-2.812Z" transform="translate(90.193 1931.053)" fill="#78933e"/>
    <g id="Grupo_4812" data-name="Grupo 4812" transform="translate(598.288 2110.593)">
      <path id="Trazado_13808" data-name="Trazado 13808" d="M510.12,243.752l-.364.017a1.658,1.658,0,0,1-.151-3.312l.121-.007c2.281-.119,42.434-2.66,55.048-31.137a1.657,1.657,0,1,1,3.03,1.342C554.553,240.576,514.666,243.514,510.12,243.752Z" transform="translate(-508.034 -178.411)" fill="#78933e"/>
      <path id="Trazado_13809" data-name="Trazado 13809" d="M578.953,183.1a1.635,1.635,0,0,1-.607-.082l-7.652-2.535a1.658,1.658,0,1,1,1.042-3.148l7.651,2.535a1.658,1.658,0,0,1-.433,3.23Z" transform="translate(-510.332 -177.251)" fill="#78933e"/>
    </g>
    <g id="Grupo_4814" data-name="Grupo 4814" transform="translate(463.621 2236.675)">
      <path id="Trazado_13810" data-name="Trazado 13810" d="M450.507,348.8l3.124,1.487c.453-.517.9-1.041,1.314-1.583.39-.509.756-1.022,1.1-1.54l-.837-5.23a26.109,26.109,0,0,1-2.914,4.776A26.628,26.628,0,0,1,450.507,348.8Z" transform="translate(-371.218 -309.483)" fill="#4c87cd"/>
      <path id="Trazado_13811" data-name="Trazado 13811" d="M445.537,357.117l.238-4.207a40.194,40.194,0,0,1-8.2,4.522l4.53,1.624C443.3,358.446,444.451,357.8,445.537,357.117Z" transform="translate(-370.735 -309.893)" fill="#4c87cd"/>
      <path id="Trazado_13812" data-name="Trazado 13812" d="M386.806,362.642a1.658,1.658,0,0,1,1.57-1.719l.121-.006.118-.007c-.779-.048-1.559-.1-2.35-.156,19.947-3.434,52.056-14.311,61.783-48.685l4.43,1.638a41.573,41.573,0,0,1,2.079,18.666l3.393.077a43.867,43.867,0,0,0-2.663-20.678,1.655,1.655,0,0,0-.952-.912l-6.842-2.533a1.66,1.66,0,0,0-2.182,1.146c-12.735,50.04-74.848,49.556-75.484,49.543a1.689,1.689,0,0,0-1.681,1.533,1.658,1.658,0,0,0,1.429,1.768c6.566.893,12.758,1.515,18.612,1.9A1.66,1.66,0,0,1,386.806,362.642Z" transform="translate(-368.142 -308.224)" fill="#4c87cd"/>
      <path id="Trazado_13813" data-name="Trazado 13813" d="M429.7,359.8a94.882,94.882,0,0,1-21.781,3.261,92.178,92.178,0,0,1-18.244,3.084l-.364.017c-.049,0-.1-.007-.145-.009a174.026,174.026,0,0,0,20.121.228,98.318,98.318,0,0,0,19.492-2.811Z" transform="translate(-368.927 -310.15)" fill="#4c87cd"/>
    </g>
    <g id="Grupo_4816" data-name="Grupo 4816" transform="translate(482.284 2227.327)">
      <g id="Grupo_4815" data-name="Grupo 4815">
        <path id="Trazado_13814" data-name="Trazado 13814" d="M389.614,365.015l-.364.017a1.658,1.658,0,0,1-.15-3.312l.121-.006c2.281-.119,42.434-2.66,55.047-31.138a1.658,1.658,0,1,1,3.031,1.343C434.047,361.839,394.161,364.778,389.614,365.015Z" transform="translate(-387.529 -299.674)" fill="#4c87cd"/>
        <path id="Trazado_13815" data-name="Trazado 13815" d="M458.447,304.363a1.632,1.632,0,0,1-.606-.082l-7.652-2.535a1.658,1.658,0,0,1,1.042-3.148l7.651,2.536a1.657,1.657,0,0,1-.434,3.229Z" transform="translate(-389.827 -298.514)" fill="#4c87cd"/>
      </g>
    </g>
    <path id="Trazado_13816" data-name="Trazado 13816" d="M441.621,370.611" transform="translate(92.735 1926.12)" fill="#4c87cd"/>
    <path id="Trazado_13817" data-name="Trazado 13817" d="M415.419,343.634c.082-.112,2.586.968,2.881,1a4.59,4.59,0,0,0,2.52-.476c2.2-1.114,2.992-3.52,3.566-5.751l-2.4.632c1.959,1.543,4.082,2.732,6.441,1.287,1.57-.962.133-3.441-1.446-2.474a2.713,2.713,0,0,1-2.969-.839,1.454,1.454,0,0,0-2.4.632c-.442,1.721-.9,4.589-3.722,3.819-.63-.172-.991-.76-1.729-.883a3.249,3.249,0,0,0-3.228,1.607c-1.1,1.485,1.39,2.916,2.475,1.446Z" transform="translate(93.816 1927.39)" fill="#4c87cd"/>
    <path id="Trazado_13818" data-name="Trazado 13818" d="M427.567,324.846c.083-.113,2.586.968,2.882,1a4.585,4.585,0,0,0,2.519-.476c2.2-1.115,2.992-3.521,3.566-5.751l-2.4.632c1.959,1.543,4.083,2.732,6.442,1.286,1.57-.962.132-3.441-1.447-2.474a2.713,2.713,0,0,1-2.969-.838,1.452,1.452,0,0,0-2.394.632c-.443,1.72-.9,4.588-3.722,3.818-.631-.172-.992-.759-1.73-.883a3.25,3.25,0,0,0-3.227,1.607c-1.1,1.485,1.39,2.916,2.474,1.447Z" transform="translate(93.362 1928.091)" fill="#4c87cd"/>
    <path id="Trazado_13819" data-name="Trazado 13819" d="M457.553,343.634c.083-.112,2.587.968,2.882,1a4.585,4.585,0,0,0,2.519-.476c2.2-1.114,2.993-3.52,3.566-5.751l-2.394.632c1.958,1.543,4.082,2.732,6.441,1.287,1.57-.962.132-3.441-1.446-2.474a2.715,2.715,0,0,1-2.97-.839,1.453,1.453,0,0,0-2.394.632c-.443,1.721-.9,4.589-3.722,3.819-.631-.172-.992-.76-1.729-.883a3.248,3.248,0,0,0-3.228,1.607c-1.1,1.485,1.39,2.916,2.474,1.446Z" transform="translate(92.242 1927.39)" fill="#4c87cd"/>
    <path id="Trazado_13820" data-name="Trazado 13820" d="M427.872,368.823c.083-.113,2.586.968,2.882,1a4.584,4.584,0,0,0,2.519-.475c2.2-1.115,2.992-3.521,3.566-5.751l-2.4.632c1.959,1.543,4.083,2.732,6.442,1.286,1.57-.962.132-3.44-1.447-2.474a2.713,2.713,0,0,1-2.969-.838,1.452,1.452,0,0,0-2.394.632c-.443,1.72-.9,4.588-3.722,3.818-.631-.172-.992-.759-1.73-.883a3.25,3.25,0,0,0-3.227,1.607c-1.1,1.485,1.39,2.916,2.474,1.447Z" transform="translate(93.351 1926.449)" fill="#4c87cd"/>
    <path id="Trazado_13821" data-name="Trazado 13821" d="M569.705,477.524s.73-14.592,12.4-18.24C582.108,459.284,582.837,471.687,569.705,477.524Z" transform="translate(87.951 1922.808)" fill="#79b2e2"/>
    <path id="Trazado_13822" data-name="Trazado 13822" d="M449.762,554.326l-1.38-8.314,10.8,3.577-1.624,8.181Z" transform="translate(92.482 1919.569)" fill="#846e63"/>
    <path id="Trazado_13823" data-name="Trazado 13823" d="M498.463,732.856s26.995,25.536,53.26-.73Z" transform="translate(90.612 1912.617)" fill="#846e63"/>
    <path id="Trazado_13824" data-name="Trazado 13824" d="M452.2,800.356l-5.212-3.43s-.365,36.115-66.757,49.977c0,0,84.631,16.781,73.688-43.046" transform="translate(95.028 1910.197)" fill="#edd2a4"/>
    <g id="Grupo_4818" data-name="Grupo 4818" transform="translate(462.892 2695.721)">
      <path id="Trazado_13825" data-name="Trazado 13825" d="M407.745,851.023q-16.739.876-38.928-2.138a1.657,1.657,0,0,1-1.429-1.768,1.69,1.69,0,0,1,1.681-1.533c.636.014,62.749.5,75.484-49.542a1.658,1.658,0,0,1,2.182-1.146l6.842,2.532a1.659,1.659,0,0,1,.952.912c.347.823,8.337,20.334-3.42,35.669C443.269,844.239,428.74,849.924,407.745,851.023Zm-22.237-3.7c31.8,2.317,53.414-2.888,62.955-15.308,9.466-12.324,4.483-28.334,3.258-31.739l-4.43-1.639C437.564,833.012,405.455,843.888,385.508,847.323Z" transform="translate(-367.384 -785.445)" fill="#d39711"/>
      <path id="Trazado_13826" data-name="Trazado 13826" d="M388.857,851.583c-.177.01-.3.014-.364.017a1.658,1.658,0,0,1-.151-3.312l.121-.007c2.281-.119,42.434-2.66,55.048-31.138a1.657,1.657,0,0,1,3.03,1.343C433.289,848.408,393.4,851.346,388.857,851.583Z" transform="translate(-368.108 -786.243)" fill="#d39711"/>
      <path id="Trazado_13827" data-name="Trazado 13827" d="M457.69,790.932a1.635,1.635,0,0,1-.607-.082l-7.652-2.536a1.658,1.658,0,0,1,1.042-3.148l7.651,2.536a1.658,1.658,0,0,1-.433,3.23Z" transform="translate(-370.406 -785.082)" fill="#d39711"/>
    </g>
    <g id="Grupo_4820" data-name="Grupo 4820" transform="translate(579.626 2827.264)">
      <path id="Trazado_13828" data-name="Trazado 13828" d="M529.008,987.669q-16.738.876-38.928-2.137a1.657,1.657,0,0,1-1.428-1.769,1.686,1.686,0,0,1,1.68-1.532c.636.013,62.749.5,75.485-49.543A1.657,1.657,0,0,1,568,931.543l6.842,2.532a1.663,1.663,0,0,1,.953.912c.346.823,8.336,20.334-3.42,35.669C564.532,980.885,550,986.57,529.008,987.669Zm-22.237-3.7c31.8,2.318,53.414-2.888,62.955-15.308,9.466-12.323,4.483-28.334,3.258-31.739l-4.43-1.639C558.827,969.658,526.718,980.535,506.771,983.969Z" transform="translate(-488.648 -922.091)" fill="#f6df86"/>
      <path id="Trazado_13829" data-name="Trazado 13829" d="M510.12,988.229l-.364.018a1.658,1.658,0,0,1-.151-3.312l.121-.007c2.281-.119,42.434-2.66,55.048-31.137a1.657,1.657,0,1,1,3.03,1.342C554.553,985.054,514.666,987.992,510.12,988.229Z" transform="translate(-489.372 -922.889)" fill="#f6df86"/>
      <path id="Trazado_13830" data-name="Trazado 13830" d="M578.953,927.578a1.635,1.635,0,0,1-.607-.082l-7.652-2.536a1.657,1.657,0,1,1,1.042-3.147l7.651,2.535a1.658,1.658,0,0,1-.433,3.23Z" transform="translate(-491.67 -921.729)" fill="#f6df86"/>
    </g>
    <line id="Línea_114" data-name="Línea 114" y1="5.107" x2="81.714" transform="translate(568.646 2857.053)" fill="none" stroke="#f6df86" stroke-miterlimit="10" stroke-width="2"/>
    <line id="Línea_115" data-name="Línea 115" y1="2.189" x2="34.291" transform="translate(668.6 2853.405)" fill="none" stroke="#f6df86" stroke-miterlimit="10" stroke-width="2"/>
    <line id="Línea_116" data-name="Línea 116" x1="75.877" y2="5.837" transform="translate(568.646 2865.079)" fill="none" stroke="#f6df86" stroke-miterlimit="10" stroke-width="2"/>
    <line id="Línea_117" data-name="Línea 117" y1="2.189" x2="31.372" transform="translate(668.6 2862.16)" fill="none" stroke="#f6df86" stroke-miterlimit="10" stroke-width="2"/>
    <line id="Línea_118" data-name="Línea 118" y1="1.265" x2="38.809" transform="translate(663.352 2874.563)" fill="none" stroke="#f6df86" stroke-miterlimit="10" stroke-width="2"/>
    <line id="Línea_119" data-name="Línea 119" y1="1.459" x2="53.989" transform="translate(648.171 2882.589)" fill="none" stroke="#f6df86" stroke-miterlimit="10" stroke-width="2"/>
    <line id="Línea_120" data-name="Línea 120" x1="58.367" y2="4.378" transform="translate(570.106 2875.293)" fill="none" stroke="#f6df86" stroke-miterlimit="10" stroke-width="2"/>
    <line id="Línea_121" data-name="Línea 121" x1="13.862" y2="0.73" transform="translate(572.294 2889.155)" fill="none" stroke="#f6df86" stroke-miterlimit="10" stroke-width="2"/>
  </g>
</svg>
