<svg xmlns="http://www.w3.org/2000/svg" xmlns:xlink="http://www.w3.org/1999/xlink" width="232" height="251.617" viewBox="0 0 232 251.617">
  <defs>
    <linearGradient id="linear-gradient" x1="199.981" y1="149.39" x2="200.952" y2="149.39" gradientUnits="objectBoundingBox">
      <stop offset="0" stop-color="#dcddde"/>
      <stop offset="1" stop-color="#fafdff"/>
    </linearGradient>
  </defs>
  <g id="Grupo_5431" data-name="Grupo 5431" transform="translate(-412 2748.388)">
    <g id="Grupo_4531" data-name="Grupo 4531" transform="translate(412 -2748.388)">
      <g id="Grupo_4527" data-name="Grupo 4527" transform="translate(0 0)">
        <g id="Grupo_4518" data-name="Grupo 4518">
          <rect id="Rectángulo_1337" data-name="Rectángulo 1337" width="35.61" height="1.506" transform="translate(195.139 107.5)" fill="#b8bddd"/>
          <rect id="Rectángulo_1338" data-name="Rectángulo 1338" width="40.461" height="113.539" transform="translate(98.507 13.096)" fill="#e4effb"/>
          <rect id="Rectángulo_1339" data-name="Rectángulo 1339" width="4.916" height="55.114" transform="translate(183.386)" fill="#e1e4f2"/>
          <circle id="Elipse_1309" data-name="Elipse 1309" cx="116" cy="116" r="116" transform="translate(0 19.617)" fill="#5863a8"/>
          <g id="Grupo_4508" data-name="Grupo 4508" transform="translate(114.911 2.743)">
            <path id="Trazado_13236" data-name="Trazado 13236" d="M145.768,212.508a3.524,3.524,0,0,1-1.724-.452A123.428,123.428,0,0,0,83.858,196.4a3.534,3.534,0,0,1,0-7.069A130.512,130.512,0,0,1,147.5,205.89a3.534,3.534,0,0,1-1.73,6.619Z" transform="translate(-80.324 -189.335)" fill="#e1e4f2"/>
          </g>
          <circle id="Elipse_1310" data-name="Elipse 1310" cx="102.098" cy="102.098" r="102.098" transform="translate(13.902 33.519)" fill="#999fcd"/>
          <g id="Grupo_4509" data-name="Grupo 4509" transform="translate(26.855 77.042)">
            <path id="Trazado_13237" data-name="Trazado 13237" d="M23.638,249.508a4.34,4.34,0,1,1,4.34-4.34A4.346,4.346,0,0,1,23.638,249.508Zm0-6.8a2.46,2.46,0,1,0,2.46,2.46A2.463,2.463,0,0,0,23.638,242.707Z" transform="translate(-19.298 -240.827)" fill="#e1e4f2"/>
          </g>
          <g id="Grupo_4510" data-name="Grupo 4510" transform="translate(21.372 72.355)">
            <path id="Trazado_13238" data-name="Trazado 13238" d="M18.472,243.528a2.975,2.975,0,1,1,2.974-2.975A2.978,2.978,0,0,1,18.472,243.528Zm0-4.661a1.686,1.686,0,1,0,1.687,1.685A1.687,1.687,0,0,0,18.472,238.868Z" transform="translate(-15.498 -237.579)" fill="#e1e4f2"/>
          </g>
          <g id="Grupo_4511" data-name="Grupo 4511" transform="translate(25.581 148.583)">
            <path id="Trazado_13239" data-name="Trazado 13239" d="M21.939,297.457a3.524,3.524,0,1,1,3.525-3.524A3.527,3.527,0,0,1,21.939,297.457Zm0-5.522a2,2,0,1,0,2,2A2,2,0,0,0,21.939,291.935Z" transform="translate(-18.415 -290.408)" fill="#e1e4f2"/>
          </g>
          <g id="Grupo_4512" data-name="Grupo 4512" transform="translate(17.008 162.858)">
            <path id="Trazado_13240" data-name="Trazado 13240" d="M16,307.351a3.525,3.525,0,1,1,3.525-3.525A3.529,3.529,0,0,1,16,307.351Zm0-5.524a2,2,0,1,0,2,2A2,2,0,0,0,16,301.828Z" transform="translate(-12.474 -300.301)" fill="#e1e4f2"/>
          </g>
          <g id="Grupo_4513" data-name="Grupo 4513" transform="translate(30.025 171.615)">
            <path id="Trazado_13241" data-name="Trazado 13241" d="M26.909,317.2a5.414,5.414,0,1,1,5.414-5.414A5.42,5.42,0,0,1,26.909,317.2Zm0-8.483a3.069,3.069,0,1,0,3.069,3.069A3.072,3.072,0,0,0,26.909,308.715Z" transform="translate(-21.495 -306.37)" fill="#e1e4f2"/>
          </g>
          <circle id="Elipse_1311" data-name="Elipse 1311" cx="81.702" cy="81.702" r="81.702" transform="translate(34.298 53.914)" fill="#f8f0d3"/>
          <rect id="Rectángulo_1340" data-name="Rectángulo 1340" width="40.956" height="126.636" transform="translate(142.429)" fill="#fff"/>
          <rect id="Rectángulo_1341" data-name="Rectángulo 1341" width="40.956" height="126.636" transform="translate(98.011)" fill="#e4effb"/>
          <rect id="Rectángulo_1342" data-name="Rectángulo 1342" width="40.956" height="126.636" transform="translate(53.748)" fill="#fff"/>
          <g id="Grupo_4514" data-name="Grupo 4514" transform="translate(173.922 36.061)">
            <path id="Trazado_13242" data-name="Trazado 13242" d="M124.746,219.476a3.525,3.525,0,1,1,3.525-3.525A3.529,3.529,0,0,1,124.746,219.476Zm0-5.524a2,2,0,1,0,2,2A2,2,0,0,0,124.746,213.953Z" transform="translate(-121.221 -212.426)" fill="#999fcd"/>
          </g>
          <g id="Grupo_4515" data-name="Grupo 4515" transform="translate(165.036 47.848)">
            <path id="Trazado_13243" data-name="Trazado 13243" d="M118.588,227.644a3.524,3.524,0,1,1,3.524-3.524A3.527,3.527,0,0,1,118.588,227.644Zm0-5.522a2,2,0,1,0,2,2A2,2,0,0,0,118.588,222.122Z" transform="translate(-115.063 -220.595)" fill="#999fcd"/>
          </g>
          <g id="Grupo_4516" data-name="Grupo 4516" transform="translate(174.86 56.917)">
            <path id="Trazado_13244" data-name="Trazado 13244" d="M126.972,237.083a5.1,5.1,0,1,1,5.1-5.1A5.107,5.107,0,0,1,126.972,237.083Zm0-8.483a3.381,3.381,0,1,0,3.382,3.381A3.384,3.384,0,0,0,126.972,228.6Z" transform="translate(-121.871 -226.88)" fill="#999fcd"/>
          </g>
          <g id="Grupo_4517" data-name="Grupo 4517" transform="translate(35.125 45.4)">
            <path id="Trazado_13245" data-name="Trazado 13245" d="M31.058,218.9l.676,3.16,2.476.676-2.476.676-.676,3.16-.676-3.16-2.476-.676,2.476-.676Z" transform="translate(-23.756 -218.898)" fill="#d4d6eb"/>
            <path id="Trazado_13246" data-name="Trazado 13246" d="M28.182,225.248l.676,3.16,2.476.676-2.476.676-.676,3.16-.676-3.16-2.476-.676,2.476-.676Z" transform="translate(-25.03 -216.085)" fill="#d4d6eb"/>
          </g>
        </g>
        <g id="Grupo_4520" data-name="Grupo 4520" transform="translate(106.439 126.249)">
          <rect id="Rectángulo_1343" data-name="Rectángulo 1343" width="73.44" height="43.093" transform="translate(83.203 57.729) rotate(-180)" fill="#b8bddd"/>
          <path id="Trazado_13247" data-name="Trazado 13247" d="M74.453,276.158l9.915,12.863v43.093l-8.435-19.831Z" transform="translate(-74.453 -274.385)" fill="#999fcd"/>
          <g id="Grupo_4519" data-name="Grupo 4519" transform="translate(29.499)">
            <path id="Trazado_13248" data-name="Trazado 13248" d="M95.058,275.669a.174.174,0,0,1,.1.159,1.464,1.464,0,0,0,.372.8l.176.229q2.149,2.76,4.241,5.564c1.258,1.693,2.538,3.371,3.806,5.057a3.267,3.267,0,0,1,.214.309.447.447,0,0,1,.053.189.156.156,0,0,1-.13.153,2.185,2.185,0,0,0,.307.341.12.12,0,0,1,.051-.026,1.185,1.185,0,0,1,.283-.048q.955-.037,1.908-.066l2.63-.076.144-.006c.771-.03,1.541-.063,2.312-.089.867-.03,1.734-.053,2.6-.079.048,0,.1,0,.144-.006.742-.029,1.483-.059,2.225-.085q.866-.032,1.734-.055,1.242-.035,2.486-.062,1.459-.03,2.92-.052l4.076-.066,2.805-.051,3.817-.068c.809-.014,1.62-.032,2.43-.048,1.242-.025,2.486-.043,3.73-.072.713-.017,1.426-.049,2.138-.074l.058,0c.538-.029,1.076-.062,1.616-.088.587-.029,1.175-.052,1.762-.078.048,0,.1-.006.144-.009.53-.032,1.059-.058,1.587-.094.606-.04,1.211-.087,1.817-.133.143-.01.287-.026.43-.048a.57.57,0,0,0,.218-.062.178.178,0,0,1,.268.046l-.012.033a.471.471,0,0,0,.362-.32.138.138,0,0,1-.105-.029,1.109,1.109,0,0,1-.113-.091c-.2-.175-.405-.356-.618-.522q-1.89-1.48-3.783-2.955-3.688-2.889-7.528-5.576c-.514-.358-1.023-.724-1.531-1.089a1.826,1.826,0,0,1-.531-.558c-.225-.014-.436-.03-.648-.039-.462-.02-.925-.035-1.387-.053-1.011-.038-2.023-.081-3.034-.114-.906-.032-1.812-.053-2.717-.079l-.175-.006c-.838-.03-1.675-.064-2.514-.091-.626-.022-1.252-.038-1.88-.052q-1.576-.037-3.151-.068c-.828-.016-1.658-.032-2.488-.042-1.638-.022-3.277-.048-4.916-.055-2.69-.013-5.381-.061-8.07.027-1.02.033-2.043.051-3.065.075l-.26.012c-.626.029-1.251.056-1.877.088-.433.022-.866.049-1.3.077-.558.035-1.115.074-1.672.11-.087.006-.173.013-.26.017q-.751.043-1.5.081a.759.759,0,0,1-.228-.02c-.12-.029-.189-.11-.185-.193l0-.016A.57.57,0,0,0,95.058,275.669Zm2.566.817a.217.217,0,0,1,.029-.105.086.086,0,0,1,.065-.036.2.2,0,0,1,.036-.115.113.113,0,0,1,.006-.14.459.459,0,0,1,.137-.1,1.94,1.94,0,0,1,.7-.165c.173-.01.346-.027.519-.042.278-.023.556-.058.834-.069.694-.029,1.388-.048,2.082-.069.221-.007.443-.013.664-.017,1.147-.027,2.294-.072,3.441-.076,1.928-.007,3.857.009,5.785.022,3.1.022,6.209.03,9.313.126,1.166.036,2.332.053,3.5.079l.144,0,3.209.1,2.4.072c.039,0,.076,0,.115.006.8.049,1.6.105,2.4.147.53.027,1.055.1,1.58.163.267.035.537.056.805.074a.975.975,0,0,1,.489.156c.16.105.323.209.478.326q.805.61,1.606,1.231l6.151,4.76c1.137.879,2.255,1.781,3.319,2.747.222.2.436.41.645.622a1.375,1.375,0,0,1,.2.28.148.148,0,0,1-.081.215,2.554,2.554,0,0,1-.667.182c-.489.043-.978.085-1.469.118-.47.032-.942.055-1.414.078-.636.032-1.271.072-1.906.088-1.7.045-3.394.078-5.089.117-.752.017-1.5.037-2.255.056q-1.288.03-2.574.061-1.474.03-2.949.055-2,.032-3.991.061l-3.788.055c-1.349.02-2.7.043-4.049.061q-3.123.039-6.248.071c-.4,0-.809.012-1.214.026-.723.026-1.444.069-2.167.082-.326.007-.654-.038-.98-.062a.26.26,0,0,1-.134-.048.2.2,0,0,1-.066-.091.835.835,0,0,1-.511-.055l.014.032c.012.025-.013.063-.022.1a1.153,1.153,0,0,1-.567-.455c-.485-.6-.967-1.2-1.46-1.794-.857-1.03-1.714-2.059-2.532-3.121-1.352-1.757-2.694-3.522-4.15-5.2a4.152,4.152,0,0,1-.345-.532A.155.155,0,0,1,97.624,276.486Z" transform="translate(-94.825 -274.793)" fill="#6f6f69"/>
            <path id="Trazado_13249" data-name="Trazado 13249" d="M96.937,276a.107.107,0,0,0,.062.048.617.617,0,0,0,.17.019c.367-.016.732-.033,1.1-.056.644-.038,1.287-.1,1.932-.118,1.118-.038,2.237-.048,3.355-.078,2.352-.063,4.7-.048,7.056-.029q2.474.017,4.946.043c1.31.016,2.622.04,3.933.065.789.014,1.58.033,2.371.052l2.688.062,2.169.053c.781.02,1.561.038,2.342.062q1.561.052,3.121.115c.414.019.827.062,1.239.088.28.017.558.027.838.035l.055,0-.014.352-.02,0c-.016,0-.045.037-.049.061a1.992,1.992,0,0,0-.017.228c0,.134,0,.267,0,.442l.062-.062-.01.273a.37.37,0,0,0-.169-.043q-.478-.019-.954-.05c-.5-.03-1-.063-1.5-.1l-1.066-.066c-.309-.019-.616-.042-.925-.053-.684-.027-1.368-.058-2.052-.069-1.86-.032-3.721-.049-5.581-.084-3.066-.056-6.132-.052-9.2-.022-1.234.013-2.467.039-3.7.059l-3.18.055q-1.677.028-3.355.062c-.626.013-1.254.026-1.88.055-.548.023-1.1.066-1.643.1a1.084,1.084,0,0,0-.224.048.131.131,0,0,0-.094.133.193.193,0,0,0,.009.058l-.228.02q-.474-.571-.962-1.133a3.068,3.068,0,0,0-.492-.446.377.377,0,0,0-.1-.059.134.134,0,0,0-.066-.01A.2.2,0,0,1,96.937,276Z" transform="translate(-94.009 -274.56)" fill="#6f6f69"/>
            <path id="Trazado_13250" data-name="Trazado 13250" d="M133.484,286.035a.1.1,0,0,0-.017-.133c-.048-.048-.1-.089-.151-.134-1.6-1.379-3.241-2.705-4.906-4-1.353-1.055-2.7-2.114-4.062-3.163-.4-.306-.818-.579-1.226-.867a.916.916,0,0,1-.225-.176.367.367,0,0,0-.1-.091l.01-.273a.463.463,0,0,0,.1-.626.11.11,0,0,0-.072-.039l.014-.352a.4.4,0,0,1,.216.072c.512.378,1.033.743,1.537,1.131,2.495,1.928,4.991,3.851,7.473,5.795,1.115.873,2.2,1.788,3.3,2.684.088.071.169.15.251.222-.051.087-.123.082-.189.087-.2.017-.4.035-.6.043l-1.061.045-.284-.214Z" transform="translate(-82.54 -274.377)" fill="#6f6f69"/>
            <path id="Trazado_13251" data-name="Trazado 13251" d="M98.251,277.18a.167.167,0,0,0,.074.085.629.629,0,0,0,.335.072c.289,0,.579-.013.867-.023.144,0,.289-.02.433-.025.675-.019,1.349-.04,2.024-.052,1.716-.03,3.431-.053,5.148-.081q1.937-.033,3.874-.064c1.668-.026,3.336-.049,4.62-.068,2.371.016,4.356.026,6.343.043q1.838.015,3.674.048c.915.014,1.831.032,2.747.061.626.019,1.251.068,1.877.088,1,.032,2,.12,3.006.059a.515.515,0,0,1,.366.128q3.418,2.649,6.839,5.291,1.794,1.39,3.586,2.785a2.667,2.667,0,0,0,.24.16.109.109,0,0,0,.146-.023l.284.214c-.273.012-.545.02-.818.029q-1.706.052-3.411.091c-.809.017-1.62.016-2.43.029-1.2.02-2.41.046-3.615.071-.733.014-1.465.035-2.2.049q-1.851.037-3.7.066-1.606.028-3.211.048l-5.783.069q-2.039.026-4.079.052c-1.7.019-3.392.032-5.089.056-.82.012-1.639.03-2.457.066a10.957,10.957,0,0,0-1.268.088c-.123.02-.251.009-.375.02a1.739,1.739,0,0,0-.312.055.138.138,0,0,0-.078.105.038.038,0,0,0,0,.022.835.835,0,0,1-.511-.055,1.5,1.5,0,0,0-.1-.169,25.829,25.829,0,0,0-1.763-2.433c-.437-.54-.89-1.066-1.32-1.612q-1.216-1.543-2.417-3.1-.872-1.128-1.782-2.226Z" transform="translate(-93.512 -274.001)" fill="#6f6f69"/>
            <path id="Trazado_13252" data-name="Trazado 13252" d="M102.364,285.256c-.192,0-.385,0-.577-.013a1.781,1.781,0,0,1-.315-.046.169.169,0,0,1-.123-.175.156.156,0,0,1,.11-.154,1.185,1.185,0,0,1,.283-.048q.955-.037,1.908-.066l2.63-.076.144-.006c.771-.03,1.541-.063,2.312-.089.867-.03,1.734-.053,2.6-.079.048,0,.1,0,.144-.006.742-.029,1.483-.059,2.225-.085q.866-.032,1.734-.055,1.242-.035,2.486-.062,1.459-.03,2.92-.052l4.076-.066,2.805-.051,3.817-.068c.809-.014,1.62-.032,2.43-.048,1.242-.025,2.486-.043,3.73-.072.713-.017,1.426-.049,2.138-.074l.058,0c.538-.029,1.076-.062,1.616-.088.587-.029,1.175-.052,1.762-.078.048,0,.1-.006.144-.009.53-.032,1.059-.058,1.587-.094.606-.04,1.211-.087,1.817-.133.143-.01.287-.026.43-.048a.569.569,0,0,0,.218-.062.178.178,0,0,1,.268.046.461.461,0,0,1-.4.333c-.048.009-.094.02-.141.027-.276.045-.553.084-.827.133a.62.62,0,0,0-.3.081c.03.151.065.291.082.434a4.372,4.372,0,0,1,.074.834.514.514,0,0,1-.241.492.105.105,0,0,0-.038.042.522.522,0,0,1-.41.24c-.284.046-.571.089-.859.114-.413.036-.827.055-1.239.078-.579.032-1.156.065-1.733.091-.664.029-1.329.052-1.994.076-.048,0-.1.006-.144.007-.693.03-1.387.068-2.079.089-1.012.033-2.024.053-3.036.079-.068,0-.134.006-.2.007-.973.029-1.947.066-2.919.084-1.379.026-2.757.04-4.135.053q-3.79.032-7.578.056c-1.166.009-2.333.013-3.5.023-.521,0-1.042.009-1.561.022-1.04.026-2.082.059-3.122.085-.742.017-1.485.037-2.226.043-1.475.009-2.949.009-4.425.012a1.372,1.372,0,0,1-.231-.009,1.162,1.162,0,0,1-.564-.195,9.946,9.946,0,0,1-1.508-1.463C102.441,285.262,102.4,285.256,102.364,285.256Zm6.1,1.221c1.157-.009,2.314-.022,3.47-.065,2.727-.1,5.456-.1,8.184-.121q3.9-.032,7.809-.061,1.706-.015,3.413-.045c.867-.016,1.734-.042,2.6-.065.579-.014,1.157-.033,1.734-.049.714-.022,1.427-.04,2.14-.065q1.576-.052,3.15-.113c1.022-.037,2.043-.066,3.063-.121a13.451,13.451,0,0,0,1.625-.11.814.814,0,0,1,.091-.1.236.236,0,0,0,.088-.2c0-.144,0-.289,0-.433-.014-.289-.035-.577-.053-.866a.348.348,0,0,0-.032-.071c-.074,0-.157,0-.241,0s-.173.009-.26.014l-1.616.1-1.616.1-.173.01c-.973.046-1.945.094-2.918.137q-.751.033-1.5.049-1.779.039-3.557.071l-2.545.048-3.7.068q-1.374.024-2.747.048l-4.135.068c-.926.016-1.851.03-2.776.05q-1.273.026-2.545.064-1.749.052-3.5.112-1.721.056-3.44.117c-1.108.039-2.216.075-3.323.115-.26.009-.518.029-.791.045-.049.215,0,.452-.157.635a.421.421,0,0,1-.133-.287c-.014-.1-.026-.208-.04-.32a1.606,1.606,0,0,0-.467-.017c-.144,0-.289.009-.423.013-.04.071,0,.1.032.137l1.092,1.117C105.686,286.48,107.074,286.487,108.462,286.477Z" transform="translate(-92.038 -271.219)" fill="#6f6f69"/>
            <path id="Trazado_13253" data-name="Trazado 13253" d="M147.082,286.4c-.051.087-.123.082-.189.087-.2.017-.4.035-.6.043-.626.027-1.252.055-1.879.074q-1.706.052-3.411.091c-.809.017-1.62.016-2.43.029-1.2.02-2.41.046-3.615.071-.733.014-1.465.035-2.2.049q-1.851.037-3.7.066-1.606.028-3.211.048l-5.783.069q-2.039.026-4.079.052c-1.7.019-3.392.032-5.089.056-.82.012-1.639.03-2.457.066a10.957,10.957,0,0,0-1.268.088c-.123.02-.251.009-.375.02a1.739,1.739,0,0,0-.312.055.138.138,0,0,0-.078.105.165.165,0,0,0,.069.113.26.26,0,0,0,.134.048c.326.025.654.069.98.062.723-.013,1.444-.056,2.167-.082.4-.014.809-.022,1.214-.026q3.125-.037,6.248-.071c1.349-.017,2.7-.04,4.049-.061l3.788-.055q2-.03,3.991-.061,1.476-.026,2.949-.055,1.288-.028,2.574-.061c.752-.019,1.5-.039,2.255-.056,1.7-.039,3.392-.072,5.089-.117.635-.016,1.27-.056,1.906-.088.472-.023.944-.046,1.414-.078.491-.033.98-.075,1.469-.118a2.554,2.554,0,0,0,.667-.182.148.148,0,0,0,.081-.215,1.375,1.375,0,0,0-.2-.28c-.209-.212-.423-.421-.645-.622-1.063-.967-2.182-1.869-3.319-2.747l-6.151-4.76q-.8-.619-1.606-1.231c-.154-.117-.317-.221-.478-.326a.975.975,0,0,0-.489-.156c-.268-.017-.538-.039-.805-.074-.525-.066-1.05-.136-1.58-.163-.8-.042-1.6-.1-2.4-.147-.039,0-.076-.006-.115-.006l-2.4-.072-3.209-.1-.144,0c-1.166-.026-2.332-.043-3.5-.079-3.1-.1-6.209-.1-9.313-.126-1.928-.013-3.857-.029-5.785-.022-1.147,0-2.294.049-3.441.076-.221,0-.443.01-.664.017-.694.022-1.388.04-2.082.069-.278.012-.556.046-.834.069-.173.014-.346.032-.519.042a1.94,1.94,0,0,0-.7.165.459.459,0,0,0-.137.1.118.118,0,0,0,.056.188.617.617,0,0,0,.17.019c.367-.016.732-.033,1.1-.056.644-.038,1.287-.1,1.932-.118,1.118-.038,2.237-.048,3.355-.078,2.352-.063,4.7-.048,7.056-.029q2.474.017,4.946.043c1.31.016,2.622.04,3.933.065.789.014,1.58.033,2.371.052l2.688.062,2.169.053c.781.02,1.561.038,2.342.062q1.561.052,3.121.115c.414.019.827.062,1.239.088.28.017.558.027.838.035a.453.453,0,0,1,.271.075c.512.378,1.033.743,1.537,1.131,2.495,1.928,4.991,3.851,7.473,5.795,1.115.873,2.2,1.788,3.3,2.684C146.919,286.25,147,286.329,147.082,286.4Z" transform="translate(-94.005 -274.697)" fill="#6f6f69"/>
            <path id="Trazado_13254" data-name="Trazado 13254" d="M136.585,276a1.826,1.826,0,0,0,.531.558c.508.365,1.017.732,1.531,1.089q3.842,2.684,7.528,5.576,1.892,1.478,3.783,2.955c.212.166.413.348.618.522a1.107,1.107,0,0,0,.113.091.146.146,0,0,0,.231-.139.493.493,0,0,0-.1-.2c-.193-.2-.387-.4-.6-.589-.3-.26-.606-.507-.915-.752-2.26-1.791-4.524-3.574-6.848-5.28-1.492-1.094-3.01-2.153-4.515-3.229-.306-.219-.6-.446-.9-.674a.768.768,0,0,0-.333-.153,15.57,15.57,0,0,0-2.466-.28c-.616-.02-1.232-.062-1.848-.094l-.115-.006c-.684-.025-1.368-.048-2.052-.076s-1.368-.061-2.05-.091l-.115,0-2.863-.075-3.5-.092c-.211-.006-.423-.009-.635-.012-2.42-.03-4.84-.065-7.261-.088q-2.935-.026-5.871-.025c-1.118,0-2.237.039-3.353.062q-.855.02-1.706.051-1.112.041-2.225.094-.693.033-1.385.078c-.385.025-.769.061-1.153.089-.346.026-.693.052-1.039.074-.433.026-.866.048-1.3.075a2.318,2.318,0,0,0-.315.042c-.123.026-.195.1-.2.179s.065.164.185.193a.759.759,0,0,0,.228.02q.751-.037,1.5-.081c.087,0,.173-.012.26-.017.557-.036,1.114-.075,1.672-.11.433-.027.866-.055,1.3-.077.626-.032,1.251-.059,1.877-.088l.26-.012c1.022-.025,2.045-.042,3.065-.075,2.69-.088,5.381-.04,8.07-.027,1.639.007,3.278.033,4.916.055.83.01,1.659.026,2.488.042q1.576.033,3.151.068c.628.014,1.254.03,1.88.052.838.027,1.675.061,2.514.091l.175.006c.9.026,1.811.048,2.717.079,1.011.033,2.023.076,3.034.114.462.019.925.033,1.387.053C136.149,275.969,136.36,275.985,136.585,276Z" transform="translate(-94.737 -274.93)" fill="#6f6f69"/>
            <path id="Trazado_13255" data-name="Trazado 13255" d="M115.559,277.161c2.371.016,4.356.026,6.343.043q1.838.015,3.674.048c.915.014,1.831.032,2.747.061.626.019,1.251.068,1.877.088,1,.032,2,.12,3.006.059a.515.515,0,0,1,.367.128q3.418,2.649,6.839,5.291,1.794,1.39,3.586,2.785a2.665,2.665,0,0,0,.24.16.108.108,0,0,0,.152-.03.1.1,0,0,0-.017-.133c-.048-.048-.1-.089-.152-.134-1.6-1.379-3.241-2.705-4.906-4-1.353-1.055-2.7-2.114-4.062-3.163-.4-.306-.818-.579-1.226-.867a.916.916,0,0,1-.225-.176.325.325,0,0,0-.27-.134q-.478-.019-.954-.05c-.5-.03-1-.064-1.5-.1l-1.066-.066c-.309-.019-.616-.042-.925-.053-.684-.027-1.368-.058-2.052-.069-1.86-.032-3.721-.049-5.581-.084-3.066-.056-6.132-.052-9.2-.022-1.234.013-2.467.039-3.7.059l-3.18.055q-1.677.028-3.355.062c-.626.013-1.254.026-1.88.055-.548.023-1.1.066-1.643.1a1.082,1.082,0,0,0-.224.048.131.131,0,0,0-.094.133.157.157,0,0,0,.082.143.629.629,0,0,0,.335.072c.289,0,.579-.013.867-.023.144,0,.289-.02.433-.025.675-.019,1.349-.04,2.024-.052,1.716-.03,3.431-.053,5.148-.081q1.937-.033,3.874-.064C112.607,277.2,114.275,277.18,115.559,277.161Z" transform="translate(-93.445 -274.136)" fill="#6f6f69"/>
            <path id="Trazado_13256" data-name="Trazado 13256" d="M94.9,275.924a.8.8,0,0,0,.136.493c.108.17.219.339.342.5.817,1.074,1.643,2.14,2.454,3.216,1.206,1.6,2.4,3.212,3.6,4.814.682.909,1.379,1.808,2.072,2.708a2.553,2.553,0,0,0,.255.274.349.349,0,0,0,.128.065.158.158,0,0,0,.2-.15.447.447,0,0,0-.053-.189,3.267,3.267,0,0,0-.214-.309c-1.268-1.687-2.548-3.365-3.806-5.057q-2.089-2.807-4.241-5.564L95.6,276.5a1.464,1.464,0,0,1-.372-.8c-.009-.117-.085-.179-.162-.167s-.121.084-.139.163a.553.553,0,0,0-.016.085C94.906,275.827,94.9,275.875,94.9,275.924Z" transform="translate(-94.897 -274.664)" fill="#6f6f69"/>
            <path id="Trazado_13257" data-name="Trazado 13257" d="M105.921,287.325c.009-.036.033-.075.022-.1a1.306,1.306,0,0,0-.111-.2,25.829,25.829,0,0,0-1.763-2.433c-.437-.54-.89-1.066-1.32-1.612q-1.216-1.543-2.417-3.1c-.885-1.144-1.795-2.268-2.744-3.359a3.067,3.067,0,0,0-.492-.446.377.377,0,0,0-.1-.059.106.106,0,0,0-.131.026.217.217,0,0,0-.029.105.155.155,0,0,0,.03.079,4.152,4.152,0,0,0,.345.532c1.456,1.675,2.8,3.44,4.15,5.2.818,1.062,1.675,2.091,2.532,3.121.493.593.975,1.195,1.46,1.794A1.153,1.153,0,0,0,105.921,287.325Z" transform="translate(-94.038 -274.454)" fill="#6f6f69"/>
            <path id="Trazado_13258" data-name="Trazado 13258" d="M122.759,277.149c.263-.24.3-.443.159-.688a.124.124,0,0,0-.092-.042c-.016,0-.045.038-.049.061a1.993,1.993,0,0,0-.017.228C122.758,276.842,122.759,276.975,122.759,277.149Z" transform="translate(-82.556 -274.27)" fill="#6f6f69"/>
            <path id="Trazado_13259" data-name="Trazado 13259" d="M104.265,284.949c1.107-.04,2.215-.076,3.323-.115q1.719-.058,3.44-.117,1.749-.058,3.5-.112,1.273-.039,2.545-.064c.925-.02,1.85-.035,2.776-.051l4.135-.068q1.372-.022,2.747-.048l3.7-.068,2.545-.048q1.777-.035,3.557-.071.751-.017,1.5-.049c.973-.043,1.945-.091,2.918-.137l.173-.01,1.616-.1,1.616-.1c.087-.006.173-.013.26-.014s.167,0,.241,0a.348.348,0,0,1,.032.071c.019.289.039.577.053.866.007.144,0,.289,0,.433a.236.236,0,0,1-.088.2.814.814,0,0,0-.091.1,13.452,13.452,0,0,1-1.625.11c-1.02.055-2.042.084-3.063.121q-1.576.058-3.15.113c-.713.025-1.426.043-2.14.065-.577.016-1.156.035-1.734.049-.867.023-1.734.049-2.6.065q-1.706.03-3.413.045-3.9.035-7.809.061c-2.729.023-5.457.019-8.184.121-1.156.043-2.313.056-3.47.065-1.388.01-2.776,0-4.2,0l-.027-.029v-.658c.117-.176.079-.392.124-.59C103.747,284.978,104.005,284.958,104.265,284.949Z" transform="translate(-91.152 -271.01)" fill="#6f6f69"/>
            <path id="Trazado_13260" data-name="Trazado 13260" d="M102.6,284.644c.134,0,.278-.013.423-.013a1.607,1.607,0,0,1,.467.017c.014.113.026.216.04.32a.421.421,0,0,0,.133.287.447.447,0,0,0,.033-.045v.658l-1.065-1.088C102.6,284.748,102.555,284.714,102.6,284.644Z" transform="translate(-91.494 -270.637)" fill="#6f6f69"/>
          </g>
          <path id="Trazado_13261" data-name="Trazado 13261" d="M74.453,276.409l9.915,12.863,37.786-.318-17.268-13.36Z" transform="translate(-74.453 -274.636)" fill="#6f6f69"/>
        </g>
        <g id="Grupo_4526" data-name="Grupo 4526" transform="translate(101.728 109.578)">
          <g id="Grupo_4521" data-name="Grupo 4521" transform="translate(3.74 11.014)">
            <path id="Trazado_13262" data-name="Trazado 13262" d="M73.96,271.834a.2.2,0,0,1,.11.177,1.635,1.635,0,0,0,.416.892c.066.085.13.172.2.257q2.4,3.082,4.737,6.213c1.407,1.892,2.835,3.768,4.252,5.651a3.571,3.571,0,0,1,.238.345.468.468,0,0,1,.059.212.172.172,0,0,1-.144.17,2.413,2.413,0,0,0,.342.379.167.167,0,0,1,.058-.029,1.377,1.377,0,0,1,.316-.053q1.065-.041,2.131-.072,1.467-.045,2.938-.087l.162-.007c.86-.033,1.72-.071,2.581-.1.968-.033,1.938-.059,2.906-.088l.162-.006q1.242-.05,2.485-.1.967-.035,1.936-.062c.926-.025,1.851-.049,2.778-.068,1.088-.023,2.174-.04,3.262-.059q2.277-.037,4.554-.074,1.567-.026,3.133-.056l4.264-.075,2.713-.053c1.39-.027,2.778-.049,4.167-.081.8-.019,1.592-.055,2.388-.082l.065,0c.6-.033,1.2-.069,1.805-.1.657-.032,1.313-.058,1.968-.087.055,0,.108-.007.162-.01.592-.035,1.182-.065,1.773-.1.675-.045,1.352-.1,2.027-.149.162-.012.322-.029.482-.053a.628.628,0,0,0,.244-.069.2.2,0,0,1,.3.052l-.012.036a.521.521,0,0,0,.4-.356.161.161,0,0,1-.117-.032c-.045-.03-.084-.068-.126-.1-.229-.195-.453-.4-.69-.584q-2.11-1.654-4.226-3.3-4.121-3.227-8.409-6.228c-.573-.4-1.141-.81-1.71-1.218a2.012,2.012,0,0,1-.592-.623c-.253-.016-.488-.033-.724-.043-.517-.022-1.033-.039-1.55-.059-1.13-.043-2.26-.089-3.389-.128-1.011-.035-2.023-.059-3.034-.088l-.195-.006c-.936-.035-1.871-.072-2.808-.1q-1.05-.035-2.1-.058-1.76-.041-3.521-.075-1.39-.028-2.778-.048c-1.831-.023-3.662-.052-5.493-.062-3-.014-6.008-.066-9.013.032-1.141.036-2.283.056-3.424.085-.1,0-.193.006-.29.012q-1.05.048-2.1.1c-.483.025-.967.055-1.45.085-.623.039-1.245.082-1.869.124l-.29.019c-.558.03-1.118.062-1.677.089a.892.892,0,0,1-.255-.022c-.134-.033-.211-.124-.2-.216l0-.017A.634.634,0,0,0,73.96,271.834Zm2.866.913a.221.221,0,0,1,.033-.118.093.093,0,0,1,.071-.04.224.224,0,0,1,.04-.128.126.126,0,0,1,.007-.156.526.526,0,0,1,.153-.111,2.137,2.137,0,0,1,.781-.182c.193-.012.387-.03.579-.048.312-.026.622-.064.934-.076.775-.033,1.55-.053,2.325-.079.247-.007.495-.013.743-.019,1.28-.03,2.561-.081,3.843-.085,2.154-.007,4.307.009,6.461.025,3.467.023,6.935.033,10.4.14,1.3.04,2.6.059,3.907.088l.162.006,3.584.107,2.68.081.13.007c.892.055,1.783.117,2.675.164.592.03,1.177.108,1.765.183.3.038.6.062.9.081a1.088,1.088,0,0,1,.547.173c.179.12.362.235.532.365q.9.684,1.795,1.375,3.437,2.658,6.871,5.317c1.27.983,2.518,1.99,3.707,3.068.248.225.486.459.72.7a1.5,1.5,0,0,1,.225.312.165.165,0,0,1-.091.24,2.781,2.781,0,0,1-.745.2c-.547.048-1.094.1-1.641.133-.527.036-1.053.061-1.58.087-.71.035-1.42.081-2.13.1-1.895.049-3.789.087-5.684.13l-2.519.062c-.958.023-1.916.048-2.874.068q-1.647.032-3.3.061-2.227.037-4.457.069l-4.232.061c-1.508.022-3.014.049-4.522.068q-3.489.041-6.978.078c-.453.006-.9.014-1.356.03-.807.029-1.613.076-2.421.092-.364.007-.73-.042-1.094-.071a.288.288,0,0,1-.15-.052.219.219,0,0,1-.075-.1.928.928,0,0,1-.57-.062l.017.038c.012.027-.016.071-.026.11a1.285,1.285,0,0,1-.632-.506c-.541-.67-1.081-1.342-1.632-2-.958-1.15-1.915-2.3-2.828-3.488-1.511-1.962-3.01-3.933-4.636-5.8a4.859,4.859,0,0,1-.385-.593A.184.184,0,0,1,76.826,272.748Z" transform="translate(-73.701 -270.857)" fill="#fff"/>
            <path id="Trazado_13263" data-name="Trazado 13263" d="M76.058,272.2a.124.124,0,0,0,.069.052.664.664,0,0,0,.192.022q.613-.026,1.225-.062c.72-.043,1.439-.108,2.159-.133,1.248-.04,2.5-.052,3.747-.087,2.626-.071,5.254-.052,7.881-.033,1.843.014,3.684.027,5.525.049,1.465.017,2.929.045,4.394.072.883.016,1.765.039,2.648.059q1.5.032,3,.069l2.421.059c.873.022,1.744.042,2.616.069,1.163.039,2.325.079,3.486.13.463.019.923.068,1.385.1.312.019.623.03.936.038l.061,0-.014.392-.023,0c-.019,0-.052.04-.055.066a1.9,1.9,0,0,0-.02.257c0,.149,0,.3,0,.491.025-.022.048-.045.069-.068l-.012.3a.4.4,0,0,0-.189-.048q-.532-.024-1.065-.056c-.558-.033-1.117-.071-1.675-.107l-1.192-.075c-.345-.02-.688-.046-1.032-.059-.765-.03-1.528-.063-2.293-.078-2.078-.035-4.157-.053-6.235-.092-3.426-.064-6.85-.058-10.275-.025-1.378.014-2.756.043-4.135.066q-1.775.03-3.552.061-1.874.033-3.747.069c-.7.014-1.4.03-2.1.061-.613.027-1.225.075-1.837.117a1.151,1.151,0,0,0-.25.053.144.144,0,0,0-.1.147.191.191,0,0,0,.01.065l-.255.023q-.53-.638-1.075-1.265a3.4,3.4,0,0,0-.55-.5.508.508,0,0,0-.11-.066.153.153,0,0,0-.075-.012A.224.224,0,0,1,76.058,272.2Z" transform="translate(-72.789 -270.596)" fill="#d6d6d6"/>
            <path id="Trazado_13264" data-name="Trazado 13264" d="M116.882,283.414a.114.114,0,0,0-.019-.149c-.053-.053-.113-.1-.169-.149-1.786-1.543-3.622-3.023-5.482-4.473-1.511-1.179-3.019-2.362-4.535-3.534-.443-.342-.915-.645-1.372-.968a1.1,1.1,0,0,1-.251-.2.371.371,0,0,0-.113-.1l.012-.3a.518.518,0,0,0,.108-.7.123.123,0,0,0-.079-.043L105,272.4a.432.432,0,0,1,.242.081c.571.421,1.154.828,1.716,1.263q4.179,3.229,8.347,6.473c1.247.975,2.456,2,3.682,3,.1.081.189.167.278.25-.055.1-.136.091-.209.1-.225.019-.45.039-.677.048l-1.183.05-.317-.24Z" transform="translate(-59.978 -270.392)" fill="#ccc"/>
            <path id="Trazado_13265" data-name="Trazado 13265" d="M77.527,273.523a.173.173,0,0,0,.081.1.7.7,0,0,0,.374.081q.485-.009.97-.026c.16-.006.322-.022.483-.026.753-.022,1.506-.046,2.261-.059q2.874-.05,5.75-.091,2.164-.035,4.329-.071c1.863-.029,3.726-.055,5.16-.077,2.648.019,4.867.03,7.086.049q2.052.019,4.1.053c1.023.016,2.046.036,3.069.068.7.022,1.4.075,2.1.1,1.12.036,2.238.133,3.358.066a.577.577,0,0,1,.41.144q3.816,2.959,7.639,5.91,2.006,1.552,4.007,3.11a2.889,2.889,0,0,0,.267.18.123.123,0,0,0,.163-.027l.317.24c-.3.012-.609.023-.915.032-1.27.039-2.54.075-3.811.1-.9.02-1.808.019-2.713.033q-2.019.035-4.037.078c-.818.017-1.636.04-2.454.056q-2.069.039-4.135.074-1.792.03-3.586.052l-6.461.079q-2.277.028-4.554.056c-1.9.022-3.791.036-5.687.064-.915.013-1.831.035-2.744.075a12.257,12.257,0,0,0-1.417.1c-.137.022-.28.009-.418.023a1.77,1.77,0,0,0-.349.061.155.155,0,0,0-.087.117.161.161,0,0,0,0,.025.928.928,0,0,1-.57-.062,1.847,1.847,0,0,0-.107-.188,29.082,29.082,0,0,0-1.971-2.718c-.488-.6-.994-1.19-1.473-1.8q-1.361-1.723-2.7-3.464-.974-1.26-1.99-2.486Z" transform="translate(-72.234 -269.973)" fill="#c2c2c2"/>
            <path id="Trazado_13266" data-name="Trazado 13266" d="M82.122,282.544c-.215-.006-.431,0-.646-.016a2.075,2.075,0,0,1-.351-.051.188.188,0,0,1-.137-.195.174.174,0,0,1,.123-.173,1.379,1.379,0,0,1,.316-.053q1.065-.041,2.131-.072,1.467-.045,2.938-.087l.162-.007c.86-.033,1.72-.071,2.581-.1.968-.033,1.938-.059,2.906-.088l.162-.006q1.242-.05,2.485-.1.967-.035,1.936-.062c.926-.025,1.851-.049,2.778-.068,1.088-.023,2.174-.04,3.262-.059q2.277-.037,4.554-.074,1.567-.026,3.133-.056l4.264-.075,2.713-.053c1.39-.027,2.778-.049,4.167-.081.8-.019,1.592-.055,2.388-.082l.065,0c.6-.033,1.2-.069,1.805-.1.657-.032,1.313-.058,1.968-.087.055,0,.108-.007.162-.01.592-.035,1.182-.065,1.773-.1.675-.045,1.352-.1,2.027-.149.162-.012.322-.029.482-.053a.628.628,0,0,0,.244-.069.2.2,0,0,1,.3.052.514.514,0,0,1-.449.372c-.052.01-.1.022-.157.03-.307.049-.616.094-.923.149a.669.669,0,0,0-.33.091c.032.167.071.325.091.485a4.916,4.916,0,0,1,.082.931c-.014.219-.042.434-.27.55a.112.112,0,0,0-.042.048.581.581,0,0,1-.457.267c-.319.052-.638.1-.96.128-.46.039-.923.061-1.385.087-.645.036-1.29.072-1.935.1-.742.033-1.485.058-2.226.085l-.162.009c-.775.035-1.548.076-2.323.1-1.13.035-2.261.059-3.391.088l-.225.007c-1.088.032-2.174.074-3.261.094q-2.309.043-4.62.059-4.231.037-8.464.063c-1.3.01-2.606.014-3.909.025-.581,0-1.163.012-1.744.026-1.162.027-2.325.065-3.486.094-.83.02-1.658.043-2.488.048-1.648.012-3.3.01-4.942.014a1.532,1.532,0,0,1-.258-.01,1.3,1.3,0,0,1-.632-.218,11.1,11.1,0,0,1-1.684-1.635C82.207,282.55,82.164,282.544,82.122,282.544Zm6.811,1.364c1.291-.01,2.584-.025,3.876-.074,3.046-.114,6.093-.11,9.141-.134q4.363-.037,8.724-.068,1.907-.017,3.812-.05c.968-.017,1.938-.046,2.906-.072l1.938-.055c.8-.025,1.593-.045,2.389-.072q1.76-.061,3.518-.126c1.141-.042,2.283-.075,3.421-.136a14.824,14.824,0,0,0,1.815-.124,1.009,1.009,0,0,1,.1-.108.257.257,0,0,0,.1-.227c0-.162,0-.323,0-.485-.016-.323-.039-.645-.061-.967a.3.3,0,0,0-.036-.079c-.081,0-.175-.006-.268,0s-.193.01-.29.016q-.9.059-1.805.114c-.6.037-1.2.071-1.805.107-.065,0-.128.009-.193.012-1.087.052-2.173.105-3.258.153q-.84.037-1.68.055-1.985.043-3.972.079l-2.843.053q-2.067.039-4.135.075l-3.068.055-4.62.075q-1.55.026-3.1.056-1.42.028-2.841.071c-1.3.038-2.6.082-3.907.126l-3.841.131q-1.857.063-3.713.128c-.29.01-.579.032-.883.051-.055.24,0,.5-.176.708a.476.476,0,0,1-.149-.32c-.016-.117-.029-.232-.045-.359a1.832,1.832,0,0,0-.522-.019c-.16,0-.322.01-.472.016-.045.079,0,.115.036.152l1.219,1.247C85.831,283.909,87.382,283.919,88.933,283.908Z" transform="translate(-70.588 -266.864)" fill="#c2c2c2"/>
            <path id="Trazado_13267" data-name="Trazado 13267" d="M132.069,283.823c-.055.1-.136.091-.209.1-.225.019-.45.039-.677.048-.7.03-1.4.062-2.1.082-1.27.039-2.54.075-3.811.1-.9.02-1.808.019-2.713.033q-2.019.035-4.037.078c-.818.017-1.636.04-2.454.056q-2.069.039-4.135.074-1.792.03-3.586.052-3.229.041-6.461.079-2.277.028-4.554.056c-1.9.022-3.791.036-5.687.064-.915.013-1.831.035-2.744.075a12.25,12.25,0,0,0-1.417.1c-.137.022-.28.009-.418.023a1.77,1.77,0,0,0-.349.061.155.155,0,0,0-.087.117.192.192,0,0,0,.078.127.288.288,0,0,0,.15.052c.364.029.73.078,1.094.071.808-.016,1.615-.064,2.421-.092.452-.016.9-.025,1.356-.03q3.489-.041,6.978-.078c1.508-.019,3.014-.046,4.522-.068l4.232-.061q2.229-.035,4.457-.069,1.649-.028,3.3-.061c.958-.02,1.916-.045,2.874-.068l2.519-.062c1.895-.043,3.789-.081,5.684-.13.71-.019,1.42-.065,2.13-.1.527-.026,1.053-.051,1.58-.087.547-.037,1.094-.085,1.641-.133a2.78,2.78,0,0,0,.745-.2.165.165,0,0,0,.091-.24,1.453,1.453,0,0,0-.225-.312c-.234-.238-.472-.472-.72-.7-1.189-1.078-2.437-2.085-3.707-3.068q-3.435-2.66-6.871-5.317-.9-.69-1.795-1.375c-.17-.13-.354-.245-.532-.365a1.088,1.088,0,0,0-.547-.173c-.3-.019-.6-.043-.9-.081-.587-.075-1.173-.153-1.765-.183-.892-.048-1.783-.11-2.675-.164l-.13-.007-2.68-.081-3.584-.107-.162-.006c-1.3-.029-2.606-.048-3.907-.088-3.467-.107-6.935-.117-10.4-.14-2.154-.016-4.307-.032-6.461-.025-1.281,0-2.563.055-3.843.085-.248.006-.5.012-.743.019-.775.026-1.55.046-2.325.079-.312.013-.622.05-.934.076-.192.017-.385.036-.579.048a2.136,2.136,0,0,0-.781.182.526.526,0,0,0-.153.111.13.13,0,0,0,.062.208.665.665,0,0,0,.192.022q.613-.026,1.225-.062c.72-.043,1.439-.108,2.159-.133,1.248-.04,2.5-.052,3.747-.087,2.626-.071,5.254-.052,7.881-.033,1.843.014,3.684.027,5.525.049,1.465.017,2.929.045,4.394.072.883.016,1.765.039,2.648.059q1.5.033,3,.069l2.421.059c.873.022,1.744.042,2.616.069,1.163.039,2.325.079,3.486.13.463.019.923.068,1.385.1.312.019.623.03.936.038a.5.5,0,0,1,.3.085c.571.421,1.154.828,1.716,1.263q4.179,3.229,8.347,6.473c1.247.975,2.456,2,3.682,3C131.889,283.655,131.98,283.741,132.069,283.823Z" transform="translate(-72.784 -270.75)" fill="#c2c2c2"/>
            <path id="Trazado_13268" data-name="Trazado 13268" d="M120.346,272.2a2.012,2.012,0,0,0,.592.623c.569.408,1.137.817,1.71,1.218q4.292,3,8.409,6.228,2.112,1.651,4.226,3.3c.237.185.46.388.69.583.042.035.081.072.126.1a.151.151,0,0,0,.18.007.148.148,0,0,0,.076-.163.538.538,0,0,0-.107-.228c-.215-.225-.433-.452-.667-.657-.332-.29-.677-.567-1.023-.841-2.524-2-5.052-3.991-7.649-5.9-1.667-1.222-3.362-2.4-5.043-3.607-.342-.244-.675-.5-1.01-.752a.849.849,0,0,0-.372-.172,17.5,17.5,0,0,0-2.756-.313c-.688-.022-1.375-.069-2.063-.1l-.13-.007c-.763-.027-1.528-.053-2.291-.085s-1.528-.068-2.291-.1l-.128-.006-3.2-.084-3.907-.1c-.237-.006-.473-.01-.711-.013-2.7-.033-5.405-.072-8.108-.1q-3.279-.03-6.56-.027c-1.248,0-2.5.042-3.746.069q-.955.019-1.906.055-1.242.048-2.485.107c-.515.023-1.032.052-1.547.087-.43.027-.859.066-1.289.1-.387.03-.772.059-1.159.082-.483.03-.968.055-1.452.085a2.457,2.457,0,0,0-.352.048c-.137.027-.216.107-.222.2s.071.183.2.216a.892.892,0,0,0,.255.022c.558-.027,1.118-.059,1.677-.089l.29-.019c.623-.042,1.245-.085,1.869-.124.483-.03.967-.061,1.45-.085q1.05-.052,2.1-.1c.1-.006.193-.01.29-.012,1.141-.029,2.283-.049,3.424-.085,3-.1,6.008-.046,9.013-.032,1.831.01,3.662.039,5.493.062q1.39.017,2.778.048,1.762.035,3.521.075,1.05.024,2.1.058c.936.03,1.871.068,2.808.1l.195.006c1.011.029,2.023.053,3.034.088,1.13.039,2.26.085,3.389.128.517.02,1.033.038,1.55.059C119.858,272.17,120.094,272.188,120.346,272.2Z" transform="translate(-73.601 -271.009)" fill="#c2c2c2"/>
            <path id="Trazado_13269" data-name="Trazado 13269" d="M96.859,273.5c2.648.019,4.867.03,7.086.049q2.052.019,4.1.053c1.023.016,2.046.036,3.069.068.7.022,1.4.075,2.1.1,1.12.036,2.238.133,3.358.066a.577.577,0,0,1,.41.144q3.816,2.959,7.639,5.91,2.006,1.552,4.007,3.11a2.889,2.889,0,0,0,.267.18.123.123,0,0,0,.169-.035.114.114,0,0,0-.019-.149c-.053-.053-.113-.1-.169-.149-1.786-1.543-3.622-3.023-5.482-4.473-1.511-1.179-3.019-2.362-4.535-3.534-.443-.341-.915-.645-1.372-.968a1.1,1.1,0,0,1-.251-.2.354.354,0,0,0-.3-.15q-.532-.024-1.065-.056c-.558-.033-1.117-.071-1.675-.107L113,273.288c-.345-.02-.688-.046-1.032-.059-.765-.03-1.528-.063-2.293-.078-2.078-.035-4.157-.053-6.235-.092-3.426-.064-6.85-.058-10.275-.025-1.378.014-2.756.043-4.135.066q-1.775.03-3.552.061-1.874.033-3.747.069c-.7.014-1.4.03-2.1.061-.613.027-1.225.075-1.837.117a1.151,1.151,0,0,0-.25.053.144.144,0,0,0-.1.147.174.174,0,0,0,.091.16.7.7,0,0,0,.374.081q.485-.009.97-.026c.16-.006.322-.022.483-.026.753-.022,1.506-.046,2.261-.059q2.874-.05,5.75-.091,2.164-.035,4.329-.071C93.562,273.548,95.425,273.522,96.859,273.5Z" transform="translate(-72.158 -270.123)" fill="#c2c2c2"/>
            <path id="Trazado_13270" data-name="Trazado 13270" d="M73.783,272.119a.882.882,0,0,0,.15.553c.121.189.245.379.382.558.912,1.2,1.835,2.389,2.742,3.594,1.348,1.788,2.68,3.587,4.026,5.375.763,1.016,1.541,2.02,2.314,3.026a2.86,2.86,0,0,0,.286.306.382.382,0,0,0,.143.072.174.174,0,0,0,.222-.166.468.468,0,0,0-.059-.212,3.571,3.571,0,0,0-.238-.345c-1.417-1.883-2.845-3.759-4.252-5.651q-2.331-3.134-4.737-6.213c-.066-.085-.13-.172-.2-.257a1.635,1.635,0,0,1-.416-.892c-.01-.13-.1-.2-.18-.186-.1.016-.136.094-.156.182q-.011.048-.017.1C73.79,272.012,73.787,272.065,73.783,272.119Z" transform="translate(-73.78 -270.712)" fill="#c2c2c2"/>
            <path id="Trazado_13271" data-name="Trazado 13271" d="M86.093,284.855c.01-.039.038-.082.026-.11a1.623,1.623,0,0,0-.124-.225,29.082,29.082,0,0,0-1.971-2.718c-.488-.6-.994-1.19-1.473-1.8q-1.361-1.723-2.7-3.464c-.988-1.277-2-2.534-3.065-3.752a3.4,3.4,0,0,0-.55-.5.508.508,0,0,0-.11-.066.117.117,0,0,0-.146.029.221.221,0,0,0-.033.118.184.184,0,0,0,.033.089,4.858,4.858,0,0,0,.385.593c1.626,1.871,3.125,3.842,4.636,5.8.913,1.188,1.87,2.338,2.828,3.488.551.662,1.091,1.335,1.632,2A1.285,1.285,0,0,0,86.093,284.855Z" transform="translate(-72.821 -270.478)" fill="#c2c2c2"/>
            <path id="Trazado_13272" data-name="Trazado 13272" d="M104.9,273.487c.293-.267.338-.493.177-.768a.137.137,0,0,0-.1-.046c-.019,0-.052.04-.055.066a1.9,1.9,0,0,0-.02.257C104.9,273.145,104.9,273.292,104.9,273.487Z" transform="translate(-59.996 -270.273)" fill="#c2c2c2"/>
            <path id="Trazado_13273" data-name="Trazado 13273" d="M84.244,282.2q1.855-.067,3.713-.128l3.841-.131c1.3-.043,2.6-.088,3.907-.126q1.42-.043,2.841-.071,1.552-.032,3.1-.056l4.62-.075,3.068-.055,4.135-.075,2.843-.053q1.987-.039,3.972-.079.84-.017,1.68-.055c1.085-.048,2.172-.1,3.258-.153.065,0,.128-.007.193-.012.6-.036,1.2-.069,1.805-.107s1.2-.075,1.805-.114c.1-.006.193-.013.29-.016s.188,0,.268,0a.3.3,0,0,1,.036.079c.022.322.045.644.061.967.007.162,0,.323,0,.485a.257.257,0,0,1-.1.227,1.012,1.012,0,0,0-.1.108,14.83,14.83,0,0,1-1.815.124c-1.138.061-2.28.094-3.421.136q-1.757.065-3.518.126c-.8.027-1.593.048-2.389.072l-1.938.055c-.968.026-1.938.055-2.906.072q-1.907.035-3.812.051-4.361.037-8.724.068c-3.047.025-6.095.02-9.141.134-1.291.049-2.584.064-3.876.074-1.551.012-3.1,0-4.691,0l-.03-.03v-.736c.13-.2.088-.437.139-.658C83.665,282.233,83.954,282.211,84.244,282.2Z" transform="translate(-69.598 -266.631)" fill="#ededed"/>
            <path id="Trazado_13274" data-name="Trazado 13274" d="M82.379,281.861c.15-.006.312-.016.472-.016a1.832,1.832,0,0,1,.522.019c.016.127.029.242.045.359a.476.476,0,0,0,.149.32.414.414,0,0,0,.038-.05v.736l-1.189-1.216C82.38,281.976,82.334,281.94,82.379,281.861Z" transform="translate(-69.98 -266.214)" fill="#e0e0e0"/>
          </g>
          <g id="woman_clean_dish" data-name="woman clean dish">
            <g id="Grupo_4525" data-name="Grupo 4525">
              <path id="Trazado_13275" data-name="Trazado 13275" d="M119.292,281.985v3.952h20.689v-3.952a2.6,2.6,0,0,0-2.6-2.6H121.892A2.6,2.6,0,0,0,119.292,281.985Zm1.224,0a1.379,1.379,0,0,1,1.377-1.378h15.487a1.38,1.38,0,0,1,1.378,1.378v2.729H120.516Z" transform="translate(-49.882 -256.286)" fill="#cacaca"/>
              <g id="Grupo_4524" data-name="Grupo 4524" transform="translate(13.591)">
                <g id="Grupo_4523" data-name="Grupo 4523">
                  <g id="Grupo_4522" data-name="Grupo 4522" transform="translate(0 2.724)">
                    <path id="Trazado_13276" data-name="Trazado 13276" d="M84.3,272.755l4.356.006.006-5.195a2.177,2.177,0,0,0-2.174-2.182h0a2.179,2.179,0,0,0-2.182,2.176Z" transform="translate(-78.972 -265.21)" fill="#767666"/>
                    <rect id="Rectángulo_1344" data-name="Rectángulo 1344" width="4.33" height="0.715" transform="translate(9.678 0.72) rotate(-179.926)" fill="#e4e4e4"/>
                    <rect id="Rectángulo_1345" data-name="Rectángulo 1345" width="5.353" height="1.28" transform="translate(10.18 7.809) rotate(-179.926)" fill="#e4e4e4"/>
                    <path id="Trazado_13277" data-name="Trazado 13277" d="M86.524,266.619H85.435a4.828,4.828,0,0,0-4.828,4.827v18.842h3.607V271.653c0-1.661,2.31-1.557,2.31-1.557Z" transform="translate(-80.607 -264.663)" fill="#767666"/>
                  </g>
                  <path id="Trazado_13278" data-name="Trazado 13278" d="M88.833,266.357l-1.15-2.288a1.124,1.124,0,0,0-.965-.685l-5.271-.007c-.219,0-.4.237-.4.528h0a.478.478,0,0,0,.4.528l4.065.006a1.123,1.123,0,0,1,.971.7l.6,1.221Z" transform="translate(-80.412 -263.376)" fill="#e4e4e4"/>
                </g>
                <path id="Trazado_13279" data-name="Trazado 13279" d="M84.618,270.674h2.6l19.8,17.819H84.722Z" transform="translate(-78.83 -260.144)" fill="#bfd3ea" opacity="0.62"/>
              </g>
              <path id="Trazado_13280" data-name="Trazado 13280" d="M73.248,287.287h90.284a2.1,2.1,0,0,0,2.059-2.133h0a2.1,2.1,0,0,0-2.059-2.133H73.248a2.1,2.1,0,0,0-2.06,2.133h0A2.1,2.1,0,0,0,73.248,287.287Z" transform="translate(-71.188 -254.674)" fill="#514f78"/>
            </g>
          </g>
        </g>
      </g>
      <g id="Grupo_4530" data-name="Grupo 4530" transform="translate(55.289 62.541)">
        <g id="Grupo_4528" data-name="Grupo 4528" transform="translate(0 1.152)">
          <path id="Trazado_13281" data-name="Trazado 13281" d="M40.578,317.843c.877.225,3.855-.411,7.181.465s7.981-.465,7.981-.465a4.813,4.813,0,0,0-.349-1.9c-.349-.519-1.489-.612-4.645-1.14a2.929,2.929,0,0,1-2.094-1.931,14.661,14.661,0,0,1-.885-5.336s-3.948-3.506-4.824.814a13.384,13.384,0,0,1-1.5,4.033c-.947,1.675-1.955,2.638-2.172,3.125A2.024,2.024,0,0,0,40.578,317.843Z" transform="translate(-38.926 -198.526)" fill="#f0d1b1"/>
          <path id="Trazado_13282" data-name="Trazado 13282" d="M47.591,307.533s-.176,6.749,2.98,7.274,4.294.615,4.645,1.14a4.764,4.764,0,0,1,.351,1.895s-4.649,1.348-7.978.472-6.307-.242-7.184-.472a2.03,2.03,0,0,1-1.315-2.333c.351-.788,2.805-2.837,3.681-7.158S47.591,307.533,47.591,307.533Z" transform="translate(-39.004 -198.527)" fill="#f0d1b1"/>
          <path id="Trazado_13283" data-name="Trazado 13283" d="M67.4,307.6a15.47,15.47,0,0,1,.892,4.994,6.148,6.148,0,0,1-.5,2.048c-.442,1.264-.6,3.653,0,4.056s3.249-.5,6.407-.147,7.274.62,9.1.179,1.684-2.629-.162-3.157a9.778,9.778,0,0,1-7.632-3.008,10.266,10.266,0,0,1-2.413-4.428l-1.519-4.389S65.968,302.777,67.4,307.6Z" transform="translate(-26.53 -199.645)" fill="#f0d1b1"/>
          <path id="Trazado_13284" data-name="Trazado 13284" d="M40.578,315.943c.877.225,3.855-.411,7.181.465s7.981-.465,7.981-.465a4.813,4.813,0,0,0-.349-1.9c-.349-.519-1.489-.612-4.645-1.14a2.929,2.929,0,0,1-2.094-1.931,11.513,11.513,0,0,0-4.515.961c-1.186.333-2.163-.674-2.7-1.45-.947,1.675-1.955,2.638-2.172,3.125A2.024,2.024,0,0,0,40.578,315.943Z" transform="translate(-38.926 -196.626)" fill="#2e2f68"/>
          <path id="Trazado_13285" data-name="Trazado 13285" d="M67.725,315.967c.6.4,3.249-.5,6.407-.147s7.274.62,9.1.179,1.684-2.629-.162-3.157a9.778,9.778,0,0,1-7.632-3.008A10.407,10.407,0,0,0,71.8,311.1c-1.124.48-2.583-.209-3.583-1.234a6.148,6.148,0,0,1-.5,2.048C67.284,313.175,67.121,315.564,67.725,315.967Z" transform="translate(-26.457 -196.914)" fill="#2e2f68"/>
          <path id="Trazado_13286" data-name="Trazado 13286" d="M68.034,261.9s9.357,20.784,10.849,30.684c.543,2.035-2.306,27.266-1.628,33.909-5.153,1.9-6.609.672-6.609.672s-6.411-17.8-.85-32.438c-.678-3.092-11.122-17.875-11.122-17.875Z" transform="translate(-30.291 -218.146)" fill="#2e2f68"/>
          <path id="Trazado_13287" data-name="Trazado 13287" d="M79.3,258.953c-.407.349-2.355,10.522-4.84,13.235-1.4,7.458-6.424,20.088-12.794,27.472-5.558,8.6-14.374,29.017-14.781,31.355-5.017-.645-5.7-1.742-5.7-1.742s3.8-23.841,8-29.478c3.933-4.552,5.561-6.18,5.561-6.18s4.476-19.221,4.747-24.462,4.075-9.395,4.075-9.395Z" transform="translate(-38.034 -219.45)" fill="#2e2f68"/>
          <path id="Trazado_13288" data-name="Trazado 13288" d="M78.755,249.783s-1.945,12.6-1.023,15.978c1.228,1.434,3.551,13.828,5,17.311L79.78,284.71s-6.863-9.629-8.194-17-.511-10.975-.511-10.975Z" transform="translate(-24.91 -223.512)" fill="#f0d1b1"/>
          <path id="Trazado_13289" data-name="Trazado 13289" d="M86.319,245.712c.128.229-.62,14.392-4.945,17.483s-9.733,7.982-11.278,10.945c-3.528.007-12.747-5.151-13.39-7.082,1.03-1.287,10.945-19.552,13.777-22.2s9.528-3.036,12.36-1.426A18.167,18.167,0,0,1,86.319,245.712Z" transform="translate(-31.163 -226.749)" fill="#e6ac4b"/>
          <path id="Trazado_13290" data-name="Trazado 13290" d="M67.755,270.558s-9.849-2.724-13.356-5.705a15.706,15.706,0,0,1,3.329-5.342S66.391,266.64,67.755,270.558Z" transform="translate(-32.185 -219.203)" fill="#e6ac4b"/>
          <path id="Trazado_13291" data-name="Trazado 13291" d="M87.8,248.944s-.952,8.62-2.476,9.1-.7-3.068-.381-6.561.358-4.681.084-5.834a9.483,9.483,0,0,1-.228-2.281,4.478,4.478,0,0,0-2.2-.743c-1.278-.167-1.908.792-1.209,1.237a13.065,13.065,0,0,1,2.349,2.335c.19.332.571,6.617-.889,10.3S68.788,271.406,59.5,265.666a18.385,18.385,0,0,1-1.075,1.6l1.848,1.456s-6.415,24.792-7.981,34.542c6.111,2.933,29.485,1.961,29.485,1.961a10.147,10.147,0,0,0,0-5.179c-.8-2.281-4.021-15.4-9.352-26.615,3.257-3.125,8.766-8.359,11.512-10.835,2.061-1.835,3.017-4.612,4.348-13.119C88.155,248.14,87.8,248.944,87.8,248.944Z" transform="translate(-33.117 -226.689)" fill="#5da39a"/>
          <path id="Trazado_13292" data-name="Trazado 13292" d="M77.973,248.94l1.151.856s-1.151,7.31-18.133,4.842c-.548-.025,1.147-2.7,2.257-4S77.973,248.94,77.973,248.94Z" transform="translate(-29.312 -223.885)" fill="#c89135"/>
          <path id="Trazado_13293" data-name="Trazado 13293" d="M55.391,250.24c-.367,10.5,10.947,19.264,10.947,19.264.049,0,.535-.061,3.154-2.4a28.248,28.248,0,0,1-6.2-13.395c1.327.633,4.1.182,8.549.255.8.013,1.668.036,2.593.1,6.674,2.326,7.927-2.923,7.428-6.223-.632-4.2-6.674-2.971-6.9-2.9,0,0-1.229.025-3.081.159h-.013C66.886,245.454,57.412,246.611,55.391,250.24Z" transform="translate(-31.75 -225.755)" fill="#f0d1b1"/>
          <path id="Trazado_13294" data-name="Trazado 13294" d="M97.066,242.956s-1.97,4.245-3.032,4.5a12.6,12.6,0,0,0-2.222.556c-.505.253-.151,4.294-.455,4.4a6.089,6.089,0,0,1-1.658-.3s-4.557,3.436-5.112,3.688-1.457-.768-2.316-1.482-2.376-1.886-2.376-1.886a8.853,8.853,0,0,0-2.61,2.923c-.4-4.081-1.921-8.225-3.991-7.972a22.854,22.854,0,0,0,6.959-6.091,64.508,64.508,0,0,1,6.658-7.016Z" transform="translate(-23.816 -230.384)" fill="#f0d1b1"/>
          <path id="Trazado_13295" data-name="Trazado 13295" d="M81.558,241.917s-4.26,4.589-1.076,9.176c-.936-.841-2.574-2.059-2.574-2.059S76.736,245.85,81.558,241.917Z" transform="translate(-21.828 -226.996)" fill="#cc9f7c"/>
          <path id="Trazado_13296" data-name="Trazado 13296" d="M80.661,238.011s-1.877,4.552.745,4.884c-2.808.378-2.622-3.172-1.779-4.7Z" transform="translate(-21.254 -228.726)" fill="#cc9f7c"/>
          <path id="Trazado_13297" data-name="Trazado 13297" d="M97.225,244s-2.439,3.773-7.835-1.277c-1.162,1.567-1.626,2.844-3.019,1.857-1.1-.638-2.264,1.162-2.264,1.162l-.87-.755s.929-1.684,1.625-3.019-2.322-3.946-4.352-.173c-.639,1.045-2.671.945-2.5,1s.87-3.26,1.1-5.523,3.541-5.223,6.153-5.687c2.089-.117,7.66.87,10.33,8.588C96.528,243.249,97.225,244,97.225,244Z" transform="translate(-21.73 -231.576)" fill="#2e2f68"/>
          <path id="Trazado_13298" data-name="Trazado 13298" d="M80.045,270.406c-.263.3-4.821,1.589-4.711,2.026a33.572,33.572,0,0,0,1.918,3.153,5.307,5.307,0,0,1,0,3.2c-.6,1.261-1.369,1.589-1.26,1.808s3.522,5.808,4.746,5.588,3.58-3.342,3.143-4.492-1.972-4.931-1.972-4.931S80.429,269.968,80.045,270.406Z" transform="translate(-22.913 -214.386)" fill="#ca2d78"/>
          <path id="Trazado_13299" data-name="Trazado 13299" d="M66.962,253.954c.012,0,.012.012.025.012.8.013,1.668.036,2.593.1,6.674,2.326,7.927-2.923,7.428-6.223-.632-4.2-6.674-2.971-6.9-2.9,0,0-1.229.025-3.081.159h-.013c-.085.049-.17.11-.242.159C65.719,248.984,66.962,253.954,66.962,253.954Z" transform="translate(-26.893 -225.755)" fill="#e6ac4b"/>
          <path id="Trazado_13300" data-name="Trazado 13300" d="M64.654,257.542s-3.73,2.661-4.309,2.716l-.413-.463s-.584.144.225,1.045,4.183,4.5,4.183,4.5,1.5,4.124,1.874,5.173a20.668,20.668,0,0,0,4.2,4.724c.3,0,3.375-4.124,2.024-6l-1.349-1.874s1.049-1.8.45-2.55a14.133,14.133,0,0,0-3.975-3.073c-.7-.9-2.164-5.586-3.107-4.818Z" transform="translate(-29.824 -220.387)" fill="#ca2d78"/>
        </g>
        <g id="Grupo_4529" data-name="Grupo 4529" transform="translate(57.856)">
          <path id="Trazado_13301" data-name="Trazado 13301" d="M94.855,233.488c1.8,1.278,2.8,2.006,3.389,4.053a9.2,9.2,0,0,1,.183,4.242,6.194,6.194,0,0,1-1.8,3.577,5.564,5.564,0,0,1-3.815.889c.423-1.447-1.939-2.625-3.06-3.267a31.469,31.469,0,0,0-4.5-1.886c-3.224-1.224-8.849-4.782-4.64-7.767a15.269,15.269,0,0,1,6.991-2.535C90.665,230.622,92.474,231.8,94.855,233.488Z" transform="translate(-79.1 -230.777)" opacity="0.6" fill="url(#linear-gradient)"/>
          <path id="Trazado_13302" data-name="Trazado 13302" d="M85.947,239.311a33.606,33.606,0,0,1,4.863,2.036c1.15.658,3.433,2.2,3.268,3.688-.341.326-1.6.82-1.669-.032.423-1.447-1.544-2.6-2.665-3.238a31.469,31.469,0,0,0-4.5-1.886c-2.726-1.036-7.145-3.739-5.909-6.355C79.407,235.985,83.378,238.334,85.947,239.311Z" transform="translate(-79.094 -229.561)" fill="#efefef"/>
          <path id="Trazado_13303" data-name="Trazado 13303" d="M95.034,234.826c.173,2.323.1,3.039-1.1,4.857Zm-1.522.685L89.984,239C91.66,238.313,92.529,236.857,93.512,235.511Zm-2.2-1.11c-2.1.162-3.756-.006-5.345,1.166Zm-6.417-1.076,5.215-.551C88.284,232.223,85.291,233.142,84.893,233.325Zm-4.525.573,7.76-1.98A15.915,15.915,0,0,0,80.368,233.9Zm14.425,6.513-1.332,2.942C94.4,242.926,94.6,241.007,94.793,240.411Zm-2.932,1.5c.579-.711,1.1-1.479,1.629-2.221Zm5.28-4.554-1.625,6.173C97.041,241.75,96.93,239.561,97.141,237.356Zm-9.054-.517a10.5,10.5,0,0,0-3.316,1.57Zm-2-2.4a33.847,33.847,0,0,0-3.161,1.873Zm3.848-.707,3.2.078A20.668,20.668,0,0,0,89.939,233.729Z" transform="translate(-78.539 -230.274)" fill="#fafdff" opacity="0.8"/>
        </g>
      </g>
    </g>
    <g id="Grupo_4612" data-name="Grupo 4612" transform="translate(515.746 -2739.761)">
      <circle id="Elipse_1325" data-name="Elipse 1325" cx="17.289" cy="17.289" r="17.289" transform="translate(0 0)" fill="#366064"/>
      <text id="_3" data-name="3" transform="translate(10.1 24.553)" fill="#fff" font-size="25" font-family="CerebriSans-Bold, Cerebri Sans" font-weight="700"><tspan x="0" y="0">3</tspan></text>
    </g>
  </g>
</svg>
