<svg xmlns="http://www.w3.org/2000/svg" xmlns:xlink="http://www.w3.org/1999/xlink" width="230" height="249.448" viewBox="0 0 230 249.448">
  <defs>
    <linearGradient id="linear-gradient" x1="345.492" y1="69.912" x2="346.489" y2="69.912" gradientUnits="objectBoundingBox">
      <stop offset="0" stop-color="#dcddde"/>
      <stop offset="1" stop-color="#fafdff"/>
    </linearGradient>
  </defs>
  <g id="Grupo_5436" data-name="Grupo 5436" transform="translate(-828.642 2313.388)">
    <g id="Grupo_4553" data-name="Grupo 4553" transform="translate(828.642 -2313.388)">
      <g id="Grupo_4547" data-name="Grupo 4547" transform="translate(0 0)">
        <g id="Grupo_4542" data-name="Grupo 4542">
          <rect id="Rectángulo_1346" data-name="Rectángulo 1346" width="35.303" height="1.493" transform="translate(193.457 106.573)" fill="#b8bddd"/>
          <rect id="Rectángulo_1347" data-name="Rectángulo 1347" width="40.112" height="112.561" transform="translate(97.657 12.983)" fill="#e4effb"/>
          <rect id="Rectángulo_1348" data-name="Rectángulo 1348" width="4.873" height="54.639" transform="translate(181.805)" fill="#e1e4f2"/>
          <circle id="Elipse_1312" data-name="Elipse 1312" cx="115" cy="115" r="115" transform="translate(0 19.448)" fill="#5863a8"/>
          <g id="Grupo_4532" data-name="Grupo 4532" transform="translate(113.92 2.719)">
            <path id="Trazado_13304" data-name="Trazado 13304" d="M561.846,213.309a3.494,3.494,0,0,1-1.709-.448,122.364,122.364,0,0,0-59.667-15.518,3.5,3.5,0,0,1,0-7.008,129.387,129.387,0,0,1,63.092,16.412,3.5,3.5,0,0,1-1.715,6.562Z" transform="translate(-496.966 -190.335)" fill="#e1e4f2"/>
          </g>
          <circle id="Elipse_1313" data-name="Elipse 1313" cx="101.218" cy="101.218" r="101.218" transform="translate(13.782 33.23)" fill="#999fcd"/>
          <g id="Grupo_4533" data-name="Grupo 4533" transform="translate(26.623 76.377)">
            <path id="Trazado_13305" data-name="Trazado 13305" d="M440.243,250.433a4.3,4.3,0,1,1,4.3-4.3A4.309,4.309,0,0,1,440.243,250.433Zm0-6.742a2.439,2.439,0,1,0,2.439,2.439A2.442,2.442,0,0,0,440.243,243.691Z" transform="translate(-435.94 -241.827)" fill="#e1e4f2"/>
          </g>
          <g id="Grupo_4534" data-name="Grupo 4534" transform="translate(21.187 71.731)">
            <path id="Trazado_13306" data-name="Trazado 13306" d="M435.088,244.477a2.949,2.949,0,1,1,2.948-2.95A2.953,2.953,0,0,1,435.088,244.477Zm0-4.62a1.672,1.672,0,1,0,1.672,1.671A1.673,1.673,0,0,0,435.088,239.856Z" transform="translate(-432.14 -238.579)" fill="#e1e4f2"/>
          </g>
          <g id="Grupo_4535" data-name="Grupo 4535" transform="translate(25.36 147.302)">
            <path id="Trazado_13307" data-name="Trazado 13307" d="M438.55,298.4a3.494,3.494,0,1,1,3.495-3.493A3.5,3.5,0,0,1,438.55,298.4Zm0-5.474a1.98,1.98,0,1,0,1.981,1.981A1.984,1.984,0,0,0,438.55,292.921Z" transform="translate(-435.057 -291.408)" fill="#e1e4f2"/>
          </g>
          <g id="Grupo_4536" data-name="Grupo 4536" transform="translate(16.861 161.454)">
            <path id="Trazado_13308" data-name="Trazado 13308" d="M432.611,308.29a3.495,3.495,0,1,1,3.495-3.495A3.5,3.5,0,0,1,432.611,308.29Zm0-5.476a1.981,1.981,0,1,0,1.981,1.981A1.984,1.984,0,0,0,432.611,302.814Z" transform="translate(-429.116 -301.301)" fill="#e1e4f2"/>
          </g>
          <g id="Grupo_4537" data-name="Grupo 4537" transform="translate(29.766 170.136)">
            <path id="Trazado_13309" data-name="Trazado 13309" d="M443.5,318.1a5.367,5.367,0,1,1,5.367-5.367A5.373,5.373,0,0,1,443.5,318.1Zm0-8.41a3.043,3.043,0,1,0,3.043,3.043A3.046,3.046,0,0,0,443.5,309.695Z" transform="translate(-438.137 -307.37)" fill="#e1e4f2"/>
          </g>
          <circle id="Elipse_1314" data-name="Elipse 1314" cx="80.998" cy="80.998" r="80.998" transform="translate(34.002 53.45)" fill="#f8f0d3"/>
          <rect id="Rectángulo_1349" data-name="Rectángulo 1349" width="40.603" height="125.544" transform="translate(141.202)" fill="#fff"/>
          <rect id="Rectángulo_1350" data-name="Rectángulo 1350" width="40.603" height="125.544" transform="translate(97.166)" fill="#e4effb"/>
          <rect id="Rectángulo_1351" data-name="Rectángulo 1351" width="40.603" height="125.544" transform="translate(53.284)" fill="#fff"/>
          <g id="Grupo_4538" data-name="Grupo 4538" transform="translate(172.423 35.75)">
            <path id="Trazado_13310" data-name="Trazado 13310" d="M541.358,220.415a3.495,3.495,0,1,1,3.495-3.495A3.5,3.5,0,0,1,541.358,220.415Zm0-5.476a1.981,1.981,0,1,0,1.981,1.981A1.984,1.984,0,0,0,541.358,214.939Z" transform="translate(-537.863 -213.426)" fill="#999fcd"/>
          </g>
          <g id="Grupo_4539" data-name="Grupo 4539" transform="translate(163.614 47.436)">
            <path id="Trazado_13311" data-name="Trazado 13311" d="M535.2,228.583a3.494,3.494,0,1,1,3.493-3.493A3.5,3.5,0,0,1,535.2,228.583Zm0-5.474a1.981,1.981,0,1,0,1.98,1.981A1.983,1.983,0,0,0,535.2,223.108Z" transform="translate(-531.705 -221.595)" fill="#999fcd"/>
          </g>
          <g id="Grupo_4540" data-name="Grupo 4540" transform="translate(173.352 56.427)">
            <path id="Trazado_13312" data-name="Trazado 13312" d="M543.57,237.995a5.057,5.057,0,1,1,5.058-5.058A5.063,5.063,0,0,1,543.57,237.995Zm0-8.41a3.352,3.352,0,1,0,3.353,3.352A3.355,3.355,0,0,0,543.57,229.585Z" transform="translate(-538.513 -227.88)" fill="#999fcd"/>
          </g>
          <g id="Grupo_4541" data-name="Grupo 4541" transform="translate(34.823 45.008)">
            <path id="Trazado_13313" data-name="Trazado 13313" d="M447.673,219.9l.671,3.133,2.455.671-2.455.671-.671,3.133L447,224.372l-2.455-.671,2.455-.671Z" transform="translate(-440.434 -219.898)" fill="#d4d6eb"/>
            <path id="Trazado_13314" data-name="Trazado 13314" d="M444.8,226.248l.671,3.133,2.455.671-2.455.671-.671,3.133-.671-3.133-2.455-.671,2.455-.671Z" transform="translate(-441.672 -217.164)" fill="#d4d6eb"/>
          </g>
        </g>
        <g id="Grupo_4544" data-name="Grupo 4544" transform="translate(104.825 125.161)">
          <rect id="Rectángulo_1352" data-name="Rectángulo 1352" width="72.807" height="42.722" transform="translate(2.46 14.51)" fill="#b8bddd"/>
          <path id="Trazado_13315" data-name="Trazado 13315" d="M552.949,277.158l-9.83,12.752v42.722l8.362-19.66Z" transform="translate(-468.003 -275.401)" fill="#999fcd"/>
          <g id="Grupo_4543" data-name="Grupo 4543">
            <path id="Trazado_13316" data-name="Trazado 13316" d="M545.75,276.518l0,.016c.006.083-.063.163-.182.192a.757.757,0,0,1-.227.02c-.5-.024-.991-.051-1.488-.08-.086,0-.172-.011-.257-.017-.554-.036-1.106-.074-1.658-.109-.429-.027-.858-.054-1.289-.076-.619-.031-1.24-.059-1.861-.087l-.258-.011c-1.013-.024-2.026-.041-3.038-.074-2.666-.087-5.333-.04-8-.027-1.625.007-3.25.033-4.875.054-.823.01-1.644.026-2.466.041q-1.562.032-3.124.067c-.621.014-1.242.03-1.862.052-.831.027-1.662.06-2.493.09l-.172.006c-.9.026-1.8.047-2.694.079-1,.033-2.006.076-3.008.113-.459.019-.917.033-1.375.053-.21.009-.421.024-.644.039a1.806,1.806,0,0,1-.525.554c-.5.362-1.008.725-1.518,1.08q-3.809,2.661-7.464,5.527-1.873,1.465-3.749,2.93c-.212.164-.409.345-.614.518a1.077,1.077,0,0,1-.11.09.137.137,0,0,1-.1.029c.029.16.177.259.358.318l-.01-.033a.175.175,0,0,1,.265-.046.572.572,0,0,0,.217.062c.14.021.283.037.426.047.6.046,1.2.092,1.8.132.525.036,1.05.062,1.573.093.049,0,.1.007.143.009.582.026,1.166.049,1.748.077.534.026,1.067.059,1.6.087l.057,0c.707.024,1.413.056,2.12.073,1.232.029,2.465.047,3.7.072.8.016,1.605.033,2.407.047l3.784.067,2.781.05,4.043.066q1.446.024,2.9.052,1.232.026,2.465.061.858.022,1.719.054c.735.026,1.47.056,2.2.084.049,0,.1.006.144.006.86.026,1.72.049,2.578.079.765.026,1.528.059,2.292.089l.145.006,2.606.076q.946.03,1.891.066a1.187,1.187,0,0,1,.282.047.127.127,0,0,1,.05.026,2.157,2.157,0,0,0,.3-.338.153.153,0,0,1-.127-.152.4.4,0,0,1,.053-.187,2.978,2.978,0,0,1,.21-.306c1.259-1.672,2.526-3.336,3.775-5.014q2.069-2.783,4.2-5.516c.059-.076.116-.152.176-.227a1.439,1.439,0,0,0,.368-.791.175.175,0,0,1,.1-.157A.56.56,0,0,0,545.75,276.518Zm-2.284,1.036a3.974,3.974,0,0,1-.342.528c-1.442,1.661-2.774,3.41-4.114,5.153-.81,1.053-1.659,2.073-2.51,3.094-.488.588-.967,1.184-1.448,1.778a1.134,1.134,0,0,1-.561.451c-.009-.036-.033-.074-.023-.1l.016-.031a.83.83,0,0,1-.506.054.2.2,0,0,1-.067.09.253.253,0,0,1-.132.047c-.325.024-.649.069-.973.062-.715-.013-1.432-.056-2.147-.082-.4-.014-.8-.021-1.2-.026q-3.1-.036-6.193-.07c-1.339-.017-2.676-.04-4.014-.06l-3.756-.054q-1.978-.03-3.957-.06-1.461-.026-2.924-.054-1.275-.028-2.551-.06c-.745-.019-1.491-.039-2.236-.056-1.682-.039-3.365-.072-5.045-.116-.631-.016-1.26-.056-1.89-.087-.468-.023-.936-.046-1.4-.077-.485-.033-.971-.074-1.456-.117a2.531,2.531,0,0,1-.661-.18.148.148,0,0,1-.08-.213,1.318,1.318,0,0,1,.2-.277c.207-.21.419-.418.638-.617,1.056-.958,2.164-1.853,3.29-2.724q3.049-2.36,6.1-4.719.794-.614,1.592-1.22c.152-.116.313-.219.474-.323a.963.963,0,0,1,.485-.155c.266-.017.532-.039.8-.073.521-.066,1.04-.134,1.566-.162.791-.041,1.582-.1,2.375-.146.037,0,.076-.006.114-.006l2.378-.072,3.181-.1.143,0c1.156-.026,2.313-.043,3.469-.079,3.077-.094,6.154-.1,9.232-.124,1.911-.013,3.822-.029,5.735-.021,1.136,0,2.273.049,3.41.076.22,0,.439.01.659.017.688.021,1.375.04,2.063.069.276.011.552.046.828.069.17.014.342.031.514.041a1.924,1.924,0,0,1,.692.163.461.461,0,0,1,.137.1.114.114,0,0,1,.006.139.211.211,0,0,1,.036.114.08.08,0,0,1,.063.036.188.188,0,0,1,.029.1A.142.142,0,0,1,543.466,277.554Z" transform="translate(-490.569 -275.796)" fill="#fff"/>
            <path id="Trazado_13317" data-name="Trazado 13317" d="M538.669,276.994a.11.11,0,0,1-.063.047.612.612,0,0,1-.169.019c-.362-.016-.725-.033-1.087-.056-.639-.037-1.277-.1-1.917-.117-1.107-.037-2.216-.047-3.324-.077-2.332-.063-4.663-.047-7-.029q-2.451.017-4.9.043c-1.3.016-2.6.04-3.9.064-.784.014-1.568.033-2.35.051l-2.666.061-2.15.053c-.774.02-1.548.037-2.322.061q-1.547.051-3.094.114c-.409.019-.818.061-1.229.087-.276.017-.554.027-.83.034l-.054,0,.013.349.02,0c.016,0,.046.037.049.06a1.7,1.7,0,0,1,.017.226c0,.133,0,.265,0,.438-.023-.021-.043-.041-.061-.061l.01.27a.368.368,0,0,1,.167-.043q.472-.019.944-.05c.5-.03.991-.063,1.488-.094l1.059-.066c.3-.019.611-.042.916-.053.678-.027,1.356-.057,2.034-.069,1.845-.031,3.689-.049,5.535-.083,3.04-.056,6.08-.052,9.118-.021,1.225.013,2.448.039,3.671.059l3.154.054q1.663.028,3.326.061c.621.013,1.242.026,1.862.054.544.023,1.087.066,1.631.1a1.092,1.092,0,0,1,.222.047.129.129,0,0,1,.092.132.193.193,0,0,1-.009.057l.226.02q.472-.566.956-1.123a2.975,2.975,0,0,1,.486-.442.429.429,0,0,1,.1-.059.136.136,0,0,1,.067-.01A.211.211,0,0,0,538.669,276.994Z" transform="translate(-485.87 -275.57)" fill="#d6d6d6"/>
            <path id="Trazado_13318" data-name="Trazado 13318" d="M494.876,286.95a.1.1,0,0,1,.017-.132c.047-.047.1-.089.15-.133,1.585-1.368,3.214-2.682,4.865-3.97,1.34-1.046,2.679-2.1,4.025-3.136.393-.3.811-.574,1.217-.86a.967.967,0,0,0,.223-.175.345.345,0,0,1,.1-.09l-.01-.27a.459.459,0,0,1-.1-.621.109.109,0,0,1,.072-.039l-.013-.349a.4.4,0,0,0-.216.072c-.506.375-1.024.737-1.523,1.121-2.472,1.911-4.947,3.818-7.407,5.745-1.106.865-2.18,1.772-3.269,2.661-.086.07-.167.149-.247.22.05.086.122.082.186.086.2.017.4.034.6.043l1.05.044.282-.212Z" transform="translate(-489.681 -275.393)" fill="#ccc"/>
            <path id="Trazado_13319" data-name="Trazado 13319" d="M540.13,278.179a.162.162,0,0,1-.072.084.628.628,0,0,1-.333.072c-.286,0-.572-.013-.86-.023-.143,0-.286-.02-.429-.024-.668-.019-1.337-.04-2.005-.052-1.7-.03-3.4-.053-5.1-.08q-1.92-.032-3.842-.063c-1.654-.026-3.307-.049-4.579-.067-2.35.016-4.32.026-6.29.043q-1.82.015-3.641.047c-.908.014-1.817.031-2.724.06-.621.019-1.24.067-1.861.087-.994.031-1.986.119-2.981.059a.509.509,0,0,0-.362.127q-3.388,2.626-6.781,5.246-1.781,1.378-3.556,2.761a2.445,2.445,0,0,1-.237.159.109.109,0,0,1-.144-.023l-.282.212c.27.012.541.02.811.029q1.691.051,3.383.09c.8.017,1.605.016,2.408.029,1.194.02,2.389.046,3.583.07.727.014,1.453.034,2.179.049q1.835.036,3.669.066,1.592.028,3.183.047l5.735.069q2.021.026,4.043.051c1.682.019,3.365.031,5.047.056.813.011,1.625.03,2.436.066a10.891,10.891,0,0,1,1.257.087c.122.02.248.009.372.02a1.746,1.746,0,0,1,.309.054.14.14,0,0,1,.077.1.113.113,0,0,1,0,.021.83.83,0,0,0,.506-.054,1.464,1.464,0,0,1,.094-.167,25.358,25.358,0,0,1,1.75-2.412c.432-.535.881-1.057,1.307-1.6.805-1.02,1.6-2.047,2.4-3.074.578-.745,1.164-1.482,1.767-2.207Z" transform="translate(-489.128 -275.027)" fill="#c2c2c2"/>
            <path id="Trazado_13320" data-name="Trazado 13320" d="M535.805,286.249a9.79,9.79,0,0,1-1.493,1.451,1.158,1.158,0,0,1-.561.193,1.356,1.356,0,0,1-.229.009c-1.462,0-2.924,0-4.387-.011-.735-.006-1.471-.026-2.207-.043-1.031-.026-2.063-.059-3.094-.084-.516-.013-1.033-.019-1.549-.021-1.156-.01-2.312-.014-3.469-.023q-3.755-.026-7.511-.056c-1.368-.013-2.734-.027-4.1-.053-.966-.017-1.93-.054-2.894-.083l-.2-.007c-1-.026-2.006-.046-3.008-.079-.688-.021-1.375-.059-2.063-.089-.047,0-.094-.006-.143-.007-.658-.024-1.318-.047-1.976-.076-.574-.026-1.146-.059-1.718-.09-.411-.023-.821-.042-1.23-.077-.285-.024-.568-.067-.85-.113a.513.513,0,0,1-.406-.237.108.108,0,0,0-.039-.042.505.505,0,0,1-.237-.488,4.219,4.219,0,0,1,.072-.827c.019-.142.053-.28.082-.431a.615.615,0,0,0-.295-.08c-.272-.049-.545-.087-.818-.132-.047-.007-.094-.019-.14-.027a.455.455,0,0,1-.4-.33.175.175,0,0,1,.265-.046.571.571,0,0,0,.217.062c.14.021.283.037.426.047.6.046,1.2.092,1.8.132.525.036,1.05.062,1.573.093.049,0,.1.007.143.009.582.026,1.166.049,1.748.077.534.026,1.067.059,1.6.087l.057,0c.707.024,1.413.056,2.12.073,1.232.029,2.465.047,3.7.072.8.016,1.605.033,2.407.047l3.784.067,2.781.05,4.043.066q1.446.024,2.9.052,1.232.026,2.465.061.858.022,1.719.054c.735.026,1.47.056,2.2.084.049,0,.1.006.144.006.86.026,1.72.049,2.578.079.765.026,1.528.059,2.292.089l.145.006,2.606.076q.946.03,1.891.066a1.189,1.189,0,0,1,.282.047.152.152,0,0,1,.107.153.166.166,0,0,1-.122.173,1.744,1.744,0,0,1-.31.046c-.192.009-.382.009-.574.013C535.891,286.239,535.853,286.245,535.805,286.249Zm-1.76,1.2,1.083-1.107c.031-.033.073-.066.033-.136-.134,0-.278-.013-.419-.013a1.59,1.59,0,0,0-.463.017c-.014.112-.026.215-.04.318a.431.431,0,0,1-.132.285c-.157-.182-.107-.416-.156-.629-.272-.016-.528-.036-.784-.044-1.1-.04-2.2-.076-3.294-.114q-1.706-.058-3.41-.116-1.734-.058-3.467-.112-1.262-.039-2.522-.063c-.918-.02-1.835-.034-2.752-.05l-4.1-.067q-1.362-.022-2.724-.047l-3.671-.067-2.522-.047q-1.764-.034-3.526-.07c-.5-.011-.994-.027-1.491-.049-.964-.043-1.927-.09-2.891-.136l-.172-.01-1.6-.094q-.8-.049-1.6-.1c-.086-.006-.172-.013-.258-.014s-.166,0-.239,0a.276.276,0,0,0-.031.07c-.02.286-.04.572-.054.858-.006.143,0,.286,0,.429a.229.229,0,0,0,.086.2.722.722,0,0,1,.092.1,13.324,13.324,0,0,0,1.611.109c1.011.054,2.024.083,3.036.12q1.562.058,3.124.112c.707.024,1.413.043,2.12.064.574.016,1.146.034,1.719.049.86.023,1.719.049,2.579.064q1.693.03,3.385.044,3.871.034,7.742.06c2.705.023,5.41.019,8.114.12,1.146.043,2.293.056,3.44.064C531.261,287.459,532.637,287.452,534.046,287.452Z" transform="translate(-490.465 -272.323)" fill="#c2c2c2"/>
            <path id="Trazado_13321" data-name="Trazado 13321" d="M492.878,287.307c.05.086.122.082.186.086.2.017.4.034.6.043.621.027,1.24.054,1.861.073q1.691.051,3.383.09c.8.017,1.605.016,2.408.029,1.194.02,2.389.046,3.583.07.727.014,1.453.034,2.179.049q1.835.036,3.669.066,1.592.028,3.183.047l5.735.069q2.021.026,4.043.051c1.682.019,3.365.031,5.047.056.813.011,1.625.03,2.436.066a10.891,10.891,0,0,1,1.257.087c.122.02.248.009.372.02a1.746,1.746,0,0,1,.309.054.14.14,0,0,1,.077.1.166.166,0,0,1-.07.112.253.253,0,0,1-.132.047c-.325.024-.649.069-.973.062-.715-.013-1.432-.056-2.147-.082-.4-.014-.8-.021-1.2-.026q-3.1-.036-6.193-.07c-1.339-.017-2.676-.04-4.014-.06l-3.756-.054q-1.978-.03-3.957-.06-1.461-.026-2.924-.054-1.275-.028-2.551-.06c-.745-.019-1.491-.039-2.236-.056-1.682-.039-3.365-.072-5.045-.116-.631-.016-1.26-.056-1.89-.087-.468-.023-.936-.046-1.4-.077-.485-.033-.971-.074-1.456-.117a2.531,2.531,0,0,1-.661-.18.148.148,0,0,1-.08-.213,1.318,1.318,0,0,1,.2-.277c.207-.21.419-.418.638-.617,1.056-.958,2.164-1.853,3.29-2.724q3.049-2.36,6.1-4.719.794-.614,1.592-1.22c.152-.116.313-.219.474-.323a.963.963,0,0,1,.485-.155c.266-.017.532-.039.8-.073.521-.066,1.04-.134,1.566-.162.791-.041,1.582-.1,2.375-.146.037,0,.076-.006.114-.006l2.378-.072,3.181-.1.143,0c1.156-.026,2.313-.043,3.469-.079,3.077-.094,6.154-.1,9.232-.124,1.911-.013,3.822-.029,5.735-.021,1.136,0,2.273.049,3.41.076.22,0,.439.01.659.017.688.021,1.375.04,2.063.069.276.011.552.046.828.069.17.014.342.031.514.041a1.924,1.924,0,0,1,.692.163.461.461,0,0,1,.137.1.117.117,0,0,1-.057.186.612.612,0,0,1-.169.019c-.362-.016-.725-.033-1.087-.056-.639-.037-1.277-.1-1.917-.117-1.107-.037-2.216-.047-3.324-.077-2.332-.063-4.663-.047-7-.029q-2.451.017-4.9.043c-1.3.016-2.6.04-3.9.064-.784.014-1.568.033-2.35.051l-2.666.061-2.15.053c-.774.02-1.548.037-2.322.061q-1.547.051-3.094.114c-.409.019-.818.061-1.229.087-.276.017-.554.027-.83.034a.453.453,0,0,0-.27.074c-.506.375-1.024.737-1.523,1.121-2.472,1.911-4.947,3.818-7.407,5.745-1.106.865-2.18,1.772-3.269,2.661C493.04,287.157,492.958,287.235,492.878,287.307Z" transform="translate(-489.796 -275.704)" fill="#c2c2c2"/>
            <path id="Trazado_13322" data-name="Trazado 13322" d="M504.821,276.99a1.806,1.806,0,0,1-.525.554c-.5.362-1.008.725-1.518,1.08q-3.809,2.661-7.464,5.527-1.873,1.465-3.749,2.93c-.212.164-.409.345-.614.518a1.077,1.077,0,0,1-.11.09.145.145,0,0,1-.229-.137.456.456,0,0,1,.1-.2c.19-.2.383-.4.591-.584.295-.257.6-.5.908-.745,2.239-1.775,4.483-3.543,6.788-5.234,1.479-1.084,2.985-2.134,4.476-3.2.3-.217.6-.442.9-.668a.761.761,0,0,1,.33-.152,15.431,15.431,0,0,1,2.446-.278c.611-.02,1.22-.062,1.831-.093l.114-.006c.678-.024,1.356-.047,2.034-.076s1.356-.06,2.034-.09l.115,0,2.838-.074,3.468-.092c.21-.006.421-.009.631-.011,2.4-.03,4.8-.064,7.2-.087q2.91-.026,5.821-.024c1.109,0,2.217.039,3.326.062q.845.019,1.691.05,1.1.041,2.206.093.687.032,1.373.077c.381.024.761.06,1.143.089.342.026.685.052,1.029.073.429.026.858.047,1.287.074a2.272,2.272,0,0,1,.312.042c.123.026.193.1.2.177s-.063.163-.182.192a.757.757,0,0,1-.227.02c-.5-.024-.991-.051-1.488-.08-.086,0-.172-.011-.257-.017-.554-.036-1.106-.074-1.658-.109-.429-.027-.858-.054-1.289-.076-.619-.031-1.24-.059-1.861-.087l-.257-.011c-1.013-.024-2.026-.041-3.038-.074-2.666-.087-5.333-.04-8-.027-1.625.007-3.25.033-4.875.054-.823.01-1.644.026-2.466.041q-1.562.032-3.124.067c-.621.014-1.242.03-1.863.052-.831.027-1.662.06-2.493.09l-.172.006c-.9.026-1.8.047-2.694.079-1,.033-2.006.076-3.008.113-.459.019-.917.033-1.375.053C505.255,276.96,505.044,276.976,504.821,276.99Z" transform="translate(-490.608 -275.93)" fill="#c2c2c2"/>
            <path id="Trazado_13323" data-name="Trazado 13323" d="M522.828,278.157c-2.35.016-4.32.026-6.29.043q-1.82.015-3.641.047c-.908.014-1.817.031-2.724.06-.621.019-1.24.067-1.861.087-.994.031-1.986.119-2.981.059a.509.509,0,0,0-.362.127q-3.388,2.626-6.781,5.246-1.781,1.378-3.556,2.761a2.45,2.45,0,0,1-.237.159.108.108,0,0,1-.15-.03.1.1,0,0,1,.017-.132c.047-.047.1-.089.15-.133,1.585-1.368,3.214-2.682,4.865-3.97,1.34-1.046,2.679-2.1,4.025-3.136.393-.3.811-.574,1.217-.86a.969.969,0,0,0,.223-.175.319.319,0,0,1,.268-.133q.472-.019.944-.05c.5-.03.991-.063,1.488-.094l1.059-.066c.3-.019.611-.042.916-.053.678-.027,1.356-.057,2.034-.069,1.845-.031,3.689-.049,5.535-.083,3.04-.056,6.08-.052,9.118-.021,1.225.013,2.448.039,3.671.059l3.154.054q1.663.028,3.326.061c.621.013,1.242.026,1.863.054.544.023,1.087.066,1.631.1a1.091,1.091,0,0,1,.222.047.129.129,0,0,1,.092.132.152.152,0,0,1-.08.142.628.628,0,0,1-.333.072c-.286,0-.572-.013-.86-.023-.143,0-.286-.02-.429-.024-.668-.019-1.337-.04-2.005-.052-1.7-.03-3.4-.053-5.1-.08q-1.92-.032-3.842-.063C525.753,278.2,524.1,278.176,522.828,278.157Z" transform="translate(-489.05 -275.159)" fill="#c2c2c2"/>
            <path id="Trazado_13324" data-name="Trazado 13324" d="M532.287,276.921a.787.787,0,0,1-.133.489c-.109.169-.219.336-.339.5-.811,1.064-1.631,2.121-2.435,3.189-1.2,1.588-2.377,3.184-3.572,4.772-.678.9-1.368,1.792-2.056,2.685a2.391,2.391,0,0,1-.253.272.351.351,0,0,1-.126.064.156.156,0,0,1-.2-.149.4.4,0,0,1,.053-.187,2.978,2.978,0,0,1,.21-.306c1.259-1.672,2.526-3.336,3.775-5.014q2.069-2.783,4.2-5.516c.059-.076.116-.152.176-.227a1.439,1.439,0,0,0,.368-.791c.01-.116.086-.177.16-.166.09.014.12.083.139.162.006.027.011.056.016.084C532.28,276.825,532.282,276.872,532.287,276.921Z" transform="translate(-476.588 -275.671)" fill="#c2c2c2"/>
            <path id="Trazado_13325" data-name="Trazado 13325" d="M521.32,288.228c-.009-.036-.033-.074-.023-.1a1.41,1.41,0,0,1,.11-.2,25.358,25.358,0,0,1,1.75-2.412c.432-.535.881-1.057,1.307-1.6.805-1.02,1.6-2.047,2.4-3.074.878-1.134,1.78-2.249,2.722-3.33a2.975,2.975,0,0,1,.486-.442.429.429,0,0,1,.1-.059.1.1,0,0,1,.13.026.188.188,0,0,1,.029.1.142.142,0,0,1-.03.079,3.974,3.974,0,0,1-.342.528c-1.442,1.661-2.774,3.41-4.114,5.153-.81,1.053-1.659,2.073-2.51,3.094-.488.588-.967,1.184-1.448,1.778A1.134,1.134,0,0,1,521.32,288.228Z" transform="translate(-477.398 -275.467)" fill="#c2c2c2"/>
            <path id="Trazado_13326" data-name="Trazado 13326" d="M501.757,278.143c-.26-.237-.3-.439-.159-.682a.126.126,0,0,1,.092-.041c.016,0,.046.037.049.06a1.7,1.7,0,0,1,.017.226C501.758,277.838,501.757,277.97,501.757,278.143Z" transform="translate(-485.912 -275.289)" fill="#c2c2c2"/>
            <path id="Trazado_13327" data-name="Trazado 13327" d="M532.6,285.939c-1.1-.04-2.2-.076-3.294-.114q-1.706-.058-3.41-.116-1.734-.058-3.467-.112-1.262-.039-2.522-.063c-.918-.02-1.835-.034-2.752-.05l-4.1-.067q-1.362-.022-2.724-.047l-3.671-.067-2.522-.047q-1.764-.034-3.526-.07c-.5-.011-.994-.027-1.491-.049-.964-.043-1.927-.09-2.891-.136l-.172-.01-1.6-.094q-.8-.049-1.6-.1c-.086-.006-.172-.013-.258-.014s-.166,0-.239,0a.274.274,0,0,0-.031.07c-.02.286-.04.572-.054.858-.006.143,0,.286,0,.429a.229.229,0,0,0,.086.2.718.718,0,0,1,.092.1,13.3,13.3,0,0,0,1.611.109c1.011.054,2.024.083,3.036.12q1.562.058,3.124.112c.707.024,1.413.043,2.12.064.574.016,1.146.034,1.719.049.86.023,1.719.049,2.579.064q1.693.03,3.385.044,3.871.034,7.742.06c2.705.023,5.41.019,8.114.12,1.146.043,2.293.056,3.44.064,1.376.01,2.752,0,4.161,0l.027-.029v-.652a1.645,1.645,0,0,1-.122-.585C533.109,285.967,532.853,285.947,532.6,285.939Z" transform="translate(-489.894 -272.12)" fill="#ededed"/>
            <path id="Trazado_13328" data-name="Trazado 13328" d="M522.182,285.643c-.134,0-.278-.013-.419-.013a1.59,1.59,0,0,0-.463.017c-.014.112-.026.215-.04.318a.431.431,0,0,1-.132.285.443.443,0,0,1-.034-.044v.652l1.056-1.079C522.18,285.746,522.222,285.714,522.182,285.643Z" transform="translate(-477.485 -271.757)" fill="#e0e0e0"/>
          </g>
          <path id="Trazado_13329" data-name="Trazado 13329" d="M564.222,277.4l-9.83,12.752-37.46-.315,17.119-13.245Z" transform="translate(-479.276 -275.644)" fill="#979793"/>
        </g>
        <g id="Grupo_4546" data-name="Grupo 4546" transform="translate(105.081 101.481)">
          <g id="Grupo_4545" data-name="Grupo 4545" transform="translate(5.629 16.517)">
            <path id="Trazado_13330" data-name="Trazado 13330" d="M560.627,271.625l0,.019c.006.1-.076.195-.217.229a.958.958,0,0,1-.27.024c-.594-.029-1.187-.063-1.78-.094-.1-.006-.2-.014-.307-.021q-.991-.067-1.983-.13c-.512-.033-1.026-.064-1.539-.09-.741-.039-1.482-.072-2.224-.106-.1,0-.2-.01-.307-.011-1.21-.03-2.422-.052-3.632-.09-3.186-.1-6.373-.049-9.56-.033-1.943.009-3.885.04-5.826.064-.983.013-1.965.031-2.947.05q-1.869.039-3.735.082c-.742.017-1.485.036-2.227.06-.993.033-1.985.073-2.978.109l-.206.007c-1.073.03-2.146.056-3.22.093-1.2.04-2.4.09-3.595.136-.548.021-1.1.039-1.644.061-.25.011-.5.03-.768.047a2.146,2.146,0,0,1-.628.662c-.6.432-1.206.865-1.814,1.29q-4.551,3.18-8.921,6.606-2.24,1.753-4.482,3.5c-.252.2-.489.412-.732.619a1.612,1.612,0,0,1-.133.107.162.162,0,0,1-.124.034c.036.192.213.309.428.379l-.011-.039a.208.208,0,0,1,.316-.056.679.679,0,0,0,.259.074c.169.024.339.043.511.057.717.054,1.433.109,2.151.156.627.042,1.253.074,1.88.112l.172.01c.7.03,1.392.057,2.087.092.639.031,1.277.07,1.915.106l.069,0c.845.029,1.689.067,2.533.087,1.473.034,2.947.057,4.42.086q1.438.028,2.878.056,2.26.043,4.522.082l3.323.059,4.831.079q1.732.028,3.46.062,1.474.032,2.947.073,1.028.028,2.054.066c.88.031,1.758.067,2.636.1l.172.007c1.027.03,2.054.057,3.081.093.914.03,1.827.07,2.739.106l.172.007c1.039.03,2.077.059,3.116.092.754.023,1.508.047,2.26.077a1.489,1.489,0,0,1,.336.056.174.174,0,0,1,.06.031,2.74,2.74,0,0,0,.363-.4.185.185,0,0,1-.153-.182.513.513,0,0,1,.063-.226,3.754,3.754,0,0,1,.252-.365c1.5-2,3.02-3.987,4.512-5.994q2.472-3.326,5.024-6.592c.07-.09.139-.182.209-.27a1.737,1.737,0,0,0,.441-.947.206.206,0,0,1,.116-.187A.675.675,0,0,0,560.627,271.625Zm-2.731,1.239a5.041,5.041,0,0,1-.408.629c-1.725,1.986-3.316,4.075-4.918,6.158-.968,1.259-1.984,2.478-3,3.7-.585.7-1.156,1.416-1.731,2.126a1.362,1.362,0,0,1-.671.538c-.01-.042-.039-.087-.027-.117l.019-.039a.985.985,0,0,1-.605.066.239.239,0,0,1-.08.109.3.3,0,0,1-.157.056c-.388.03-.775.082-1.161.074-.857-.017-1.712-.067-2.568-.1-.479-.017-.958-.026-1.439-.031q-3.7-.043-7.4-.083c-1.6-.02-3.2-.049-4.8-.072l-4.489-.064q-2.365-.036-4.729-.073-1.747-.03-3.495-.066-1.523-.032-3.048-.072-1.337-.032-2.672-.064c-2.01-.047-4.02-.086-6.029-.139-.754-.02-1.506-.069-2.259-.106-.559-.027-1.119-.053-1.677-.092-.581-.04-1.161-.09-1.741-.14a2.967,2.967,0,0,1-.79-.216.175.175,0,0,1-.1-.255,1.555,1.555,0,0,1,.239-.33c.247-.253.5-.5.762-.74,1.262-1.143,2.586-2.212,3.932-3.254l7.29-5.639q.948-.734,1.9-1.459c.182-.137.375-.26.567-.388a1.145,1.145,0,0,1,.579-.183c.318-.02.637-.046.954-.087.622-.079,1.243-.16,1.871-.193.947-.05,1.893-.116,2.838-.175l.137-.007,2.842-.086,3.8-.114.172,0c1.382-.031,2.764-.052,4.146-.093,3.676-.114,7.356-.126,11.033-.15,2.285-.016,4.569-.034,6.854-.026,1.359.006,2.718.059,4.077.09l.788.02c.822.027,1.644.05,2.466.083.329.014.66.054.989.083.2.017.409.037.615.05a2.268,2.268,0,0,1,.828.193.564.564,0,0,1,.162.117.133.133,0,0,1,.007.166.241.241,0,0,1,.043.136.1.1,0,0,1,.076.043.224.224,0,0,1,.034.124A.18.18,0,0,1,557.9,272.864Z" transform="translate(-494.675 -270.763)" fill="#fff"/>
            <path id="Trazado_13331" data-name="Trazado 13331" d="M552.162,272.195a.129.129,0,0,1-.074.056.736.736,0,0,1-.2.023c-.434-.02-.867-.04-1.3-.066-.764-.047-1.526-.116-2.292-.142-1.323-.044-2.649-.056-3.974-.091-2.787-.076-5.573-.056-8.361-.036-1.953.016-3.906.03-5.859.053-1.553.017-3.107.047-4.661.076-.937.017-1.873.04-2.81.062l-3.186.074q-1.285.03-2.569.063c-.926.023-1.851.044-2.775.074q-1.85.06-3.7.136c-.491.021-.98.073-1.469.1-.33.02-.662.031-.993.042l-.064,0,.016.418.024,0c.019,0,.053.044.057.072a2.146,2.146,0,0,1,.021.272c0,.157,0,.315,0,.521-.026-.024-.05-.047-.073-.072l.011.323a.434.434,0,0,1,.2-.053c.378-.014.754-.036,1.13-.059q.888-.054,1.777-.113l1.266-.079c.365-.023.728-.05,1.094-.064.81-.031,1.621-.067,2.43-.082,2.206-.037,4.41-.057,6.615-.1,3.633-.067,7.265-.062,10.9-.026,1.462.014,2.924.046,4.386.07l3.769.064q1.987.034,3.975.074c.742.016,1.485.031,2.226.064.651.029,1.3.079,1.948.124a1.128,1.128,0,0,1,.266.056.155.155,0,0,1,.11.156.208.208,0,0,1-.011.069l.272.024q.562-.676,1.14-1.342a3.57,3.57,0,0,1,.582-.528.5.5,0,0,1,.117-.072.167.167,0,0,1,.079-.011A.241.241,0,0,0,552.162,272.195Z" transform="translate(-489.058 -270.493)" fill="#d6d6d6"/>
            <path id="Trazado_13332" data-name="Trazado 13332" d="M499.823,284.093a.12.12,0,0,1,.02-.156c.057-.057.119-.107.18-.159,1.894-1.637,3.841-3.206,5.813-4.745,1.6-1.25,3.2-2.506,4.811-3.748.471-.362.97-.685,1.455-1.027a1.145,1.145,0,0,0,.267-.209.393.393,0,0,1,.119-.107l-.011-.323a.55.55,0,0,1-.116-.742.127.127,0,0,1,.086-.046l-.016-.418a.474.474,0,0,0-.257.086c-.607.448-1.225.88-1.821,1.34q-4.433,3.425-8.853,6.866c-1.322,1.034-2.606,2.117-3.907,3.179-.1.084-.2.177-.3.265.06.1.146.1.223.1.239.019.478.04.717.05.419.019.837.037,1.256.053l.336-.253Z" transform="translate(-493.613 -270.281)" fill="#ccc"/>
            <path id="Trazado_13333" data-name="Trazado 13333" d="M553.909,273.61a.178.178,0,0,1-.086.1.739.739,0,0,1-.4.087c-.343-.006-.685-.016-1.029-.027-.17-.006-.342-.024-.512-.029-.8-.023-1.6-.049-2.4-.063q-3.049-.051-6.1-.1l-4.592-.076c-1.975-.03-3.952-.057-5.473-.08-2.809.019-5.163.033-7.516.053q-2.178.017-4.353.056c-1.084.017-2.17.039-3.254.072-.742.023-1.483.08-2.224.1-1.187.039-2.373.142-3.562.07a.607.607,0,0,0-.435.153q-4.049,3.139-8.1,6.27-2.129,1.646-4.25,3.3a2.9,2.9,0,0,1-.283.192.132.132,0,0,1-.174-.029l-.336.253q.485.019.97.034c1.347.04,2.7.079,4.043.107.958.02,1.918.02,2.878.036,1.428.023,2.855.053,4.283.081.868.019,1.735.043,2.6.06q2.193.043,4.386.079,1.9.032,3.8.054,3.427.045,6.853.084c1.611.019,3.221.042,4.832.06,2.01.023,4.021.039,6.031.067.971.013,1.941.036,2.911.079a13.2,13.2,0,0,1,1.5.1c.146.023.3.01.445.024a2.011,2.011,0,0,1,.369.064.166.166,0,0,1,.092.124.082.082,0,0,1,0,.026.985.985,0,0,0,.605-.066,2.085,2.085,0,0,1,.113-.2,31.048,31.048,0,0,1,2.09-2.884c.518-.638,1.054-1.262,1.563-1.908.963-1.219,1.914-2.446,2.865-3.675.69-.891,1.391-1.771,2.111-2.638Z" transform="translate(-492.952 -269.844)" fill="#c2c2c2"/>
            <path id="Trazado_13334" data-name="Trazado 13334" d="M548.74,283.255a11.736,11.736,0,0,1-1.785,1.734,1.37,1.37,0,0,1-.669.232,1.753,1.753,0,0,1-.275.01c-1.747,0-3.495,0-5.243-.014-.88-.006-1.758-.03-2.638-.052-1.233-.03-2.466-.07-3.7-.1-.617-.014-1.233-.021-1.85-.026-1.383-.011-2.765-.017-4.147-.027q-4.489-.032-8.978-.067-2.45-.022-4.9-.063c-1.153-.02-2.306-.064-3.459-.1-.08,0-.159-.007-.239-.009-1.2-.031-2.4-.056-3.6-.093-.821-.027-1.642-.071-2.463-.107l-.172-.009c-.787-.03-1.575-.056-2.362-.092-.685-.03-1.369-.069-2.053-.106-.491-.029-.981-.05-1.469-.093-.34-.029-.68-.08-1.017-.136a.609.609,0,0,1-.485-.283.125.125,0,0,0-.046-.049.606.606,0,0,1-.285-.584,5.088,5.088,0,0,1,.086-.988c.021-.169.063-.336.1-.515a.728.728,0,0,0-.352-.094c-.325-.06-.652-.106-.978-.159-.057-.009-.112-.021-.167-.033a.54.54,0,0,1-.475-.393.208.208,0,0,1,.316-.056.68.68,0,0,0,.259.074c.169.024.339.043.511.057.717.054,1.433.109,2.151.156.627.042,1.253.074,1.88.112l.172.01c.7.03,1.392.057,2.087.092.639.031,1.277.07,1.915.106l.069,0c.845.029,1.689.067,2.533.087,1.473.034,2.947.057,4.42.086q1.438.028,2.878.056,2.259.043,4.522.082l3.323.059,4.831.079q1.732.028,3.46.062,1.474.032,2.947.073,1.028.028,2.054.066c.88.031,1.758.067,2.636.1l.172.007c1.027.03,2.054.057,3.081.093.914.03,1.827.07,2.739.106l.172.007c1.039.03,2.077.059,3.116.092.754.023,1.508.047,2.26.077a1.49,1.49,0,0,1,.336.056.185.185,0,0,1,.129.183.2.2,0,0,1-.144.207,2.2,2.2,0,0,1-.372.054c-.229.011-.458.01-.685.016C548.842,283.245,548.8,283.251,548.74,283.255Zm-2.1,1.438q.65-.663,1.295-1.323c.037-.039.086-.077.039-.162-.16-.006-.33-.016-.5-.016a1.921,1.921,0,0,0-.555.02c-.016.134-.03.257-.047.38a.5.5,0,0,1-.157.34c-.187-.217-.129-.5-.186-.752-.325-.019-.631-.041-.937-.053q-1.97-.071-3.938-.136l-4.076-.14q-2.071-.069-4.144-.133-1.506-.045-3.014-.074c-1.1-.024-2.193-.041-3.29-.06l-4.9-.08q-1.629-.026-3.256-.057l-4.386-.08-3.015-.056q-2.107-.041-4.214-.084-.89-.019-1.78-.059c-1.153-.05-2.3-.107-3.457-.162-.067,0-.136-.009-.2-.013L500,281.88c-.638-.039-1.276-.08-1.914-.12-.1-.007-.2-.016-.308-.017s-.2,0-.286,0a.343.343,0,0,0-.037.083c-.023.342-.047.684-.064,1.026-.009.172,0,.343,0,.515a.276.276,0,0,0,.1.24.9.9,0,0,1,.109.116,15.934,15.934,0,0,0,1.925.13c1.209.064,2.419.1,3.629.144q1.867.069,3.732.133c.845.029,1.691.052,2.535.076.685.02,1.37.042,2.056.059,1.027.027,2.056.059,3.083.077q2.021.034,4.044.053c3.084.027,6.168.046,9.252.072,3.233.027,6.466.023,9.7.143,1.37.051,2.741.067,4.113.077C543.307,284.7,544.952,284.693,546.638,284.693Z" transform="translate(-494.55 -266.612)" fill="#c2c2c2"/>
            <path id="Trazado_13335" data-name="Trazado 13335" d="M497.435,284.52c.06.1.146.1.223.1.239.019.478.04.717.05.742.033,1.483.066,2.226.087,1.347.04,2.7.079,4.043.107.958.02,1.918.02,2.878.036,1.428.023,2.855.053,4.283.081.868.019,1.735.043,2.6.06q2.193.043,4.386.079,1.9.032,3.8.054,3.427.045,6.853.084c1.611.019,3.221.042,4.832.06,2.01.023,4.021.039,6.031.067.971.013,1.941.036,2.911.079a13.2,13.2,0,0,1,1.5.1c.146.023.3.01.445.024a2.008,2.008,0,0,1,.369.064.166.166,0,0,1,.092.124.2.2,0,0,1-.083.134.3.3,0,0,1-.157.056c-.388.03-.775.081-1.162.074-.857-.017-1.712-.067-2.568-.1-.479-.017-.958-.026-1.439-.031q-3.7-.043-7.4-.083c-1.6-.02-3.2-.049-4.8-.071l-4.489-.064q-2.365-.037-4.729-.073-1.747-.03-3.495-.066-1.524-.032-3.048-.072-1.337-.032-2.672-.064c-2.01-.047-4.02-.086-6.029-.139-.754-.02-1.506-.069-2.259-.106-.559-.027-1.119-.053-1.677-.092-.581-.04-1.161-.09-1.741-.14a2.965,2.965,0,0,1-.79-.216.175.175,0,0,1-.1-.255,1.555,1.555,0,0,1,.239-.33c.247-.253.5-.5.762-.74,1.262-1.143,2.586-2.212,3.932-3.254l7.29-5.639q.948-.734,1.9-1.459c.182-.137.375-.26.567-.388a1.145,1.145,0,0,1,.579-.183c.318-.02.637-.046.954-.087.622-.079,1.243-.16,1.871-.193.947-.05,1.893-.116,2.838-.174l.137-.007,2.842-.086,3.8-.114.172,0c1.382-.031,2.764-.052,4.146-.093,3.676-.114,7.356-.126,11.033-.15,2.284-.016,4.569-.034,6.853-.026,1.359.006,2.718.059,4.077.09l.788.02c.822.027,1.644.05,2.466.083.329.014.659.054.988.083.2.017.409.037.615.05a2.269,2.269,0,0,1,.828.193.563.563,0,0,1,.162.117.139.139,0,0,1-.067.222.733.733,0,0,1-.2.023c-.434-.02-.867-.04-1.3-.066-.764-.047-1.526-.116-2.292-.142-1.323-.044-2.649-.056-3.974-.092-2.787-.076-5.573-.056-8.361-.036-1.953.016-3.907.03-5.859.053-1.553.017-3.107.047-4.661.076-.937.017-1.872.04-2.81.061l-3.186.074-2.569.063c-.926.023-1.851.044-2.775.074q-1.85.06-3.7.136c-.491.021-.98.073-1.469.1-.33.02-.662.031-.993.042a.526.526,0,0,0-.322.089c-.607.448-1.224.88-1.821,1.34q-4.433,3.425-8.853,6.866c-1.322,1.034-2.606,2.117-3.907,3.179C497.628,284.34,497.532,284.433,497.435,284.52Z" transform="translate(-493.751 -270.652)" fill="#c2c2c2"/>
            <path id="Trazado_13336" data-name="Trazado 13336" d="M511.709,272.189a2.147,2.147,0,0,1-.628.662c-.6.432-1.206.865-1.814,1.29q-4.551,3.18-8.921,6.606-2.24,1.753-4.482,3.5c-.252.2-.489.412-.732.619a1.625,1.625,0,0,1-.133.107.173.173,0,0,1-.273-.165.565.565,0,0,1,.114-.242c.229-.239.458-.479.707-.7.353-.308.718-.6,1.086-.891,2.676-2.121,5.359-4.236,8.112-6.255,1.768-1.3,3.568-2.551,5.35-3.827.362-.259.717-.528,1.071-.8a.912.912,0,0,1,.4-.18,18.392,18.392,0,0,1,2.921-.332c.731-.024,1.461-.073,2.19-.112l.137-.007c.81-.03,1.621-.057,2.43-.09s1.621-.072,2.43-.107c.046,0,.091,0,.137-.006l3.392-.089,4.144-.11c.252-.007.5-.01.754-.014,2.868-.034,5.735-.077,8.6-.1q3.478-.032,6.958-.029c1.325,0,2.649.044,3.974.073q1.011.021,2.021.059,1.317.049,2.635.113.822.039,1.642.092c.456.03.911.072,1.366.106.409.03.82.062,1.23.087.512.031,1.026.056,1.539.089a2.683,2.683,0,0,1,.372.05c.146.03.232.113.237.212s-.076.195-.217.229a.958.958,0,0,1-.27.024c-.594-.029-1.187-.063-1.78-.094-.1-.006-.2-.014-.307-.021q-.991-.066-1.983-.13c-.512-.033-1.026-.064-1.539-.09-.741-.039-1.482-.072-2.224-.106-.1,0-.2-.01-.307-.011-1.21-.03-2.422-.052-3.632-.09-3.186-.1-6.373-.049-9.56-.033-1.943.009-3.885.04-5.826.064-.983.013-1.965.031-2.947.05q-1.869.039-3.735.082c-.742.017-1.485.036-2.227.06-.993.033-1.986.073-2.978.109l-.206.007c-1.073.03-2.146.056-3.22.093-1.2.04-2.4.09-3.595.136-.548.021-1.1.039-1.644.062C512.227,272.153,511.977,272.172,511.709,272.189Z" transform="translate(-494.722 -270.922)" fill="#c2c2c2"/>
            <path id="Trazado_13337" data-name="Trazado 13337" d="M533.229,273.584c-2.809.019-5.163.033-7.516.053q-2.178.017-4.353.056c-1.084.017-2.17.039-3.254.072-.742.023-1.483.08-2.224.1-1.187.039-2.373.142-3.562.07a.607.607,0,0,0-.435.153q-4.049,3.139-8.1,6.27-2.129,1.646-4.25,3.3a2.9,2.9,0,0,1-.283.192.131.131,0,0,1-.18-.037.12.12,0,0,1,.02-.156c.057-.057.119-.107.18-.159,1.894-1.637,3.841-3.206,5.813-4.745,1.6-1.25,3.2-2.506,4.811-3.748.471-.362.97-.685,1.455-1.027a1.146,1.146,0,0,0,.268-.209.381.381,0,0,1,.319-.16c.378-.014.754-.036,1.13-.059q.888-.054,1.777-.113l1.266-.079c.365-.023.728-.05,1.094-.064.81-.031,1.621-.067,2.43-.082,2.206-.037,4.41-.057,6.615-.1,3.633-.067,7.265-.062,10.9-.026,1.462.014,2.924.046,4.386.07l3.769.064q1.987.034,3.975.074c.742.016,1.485.031,2.226.064.651.029,1.3.079,1.948.125a1.126,1.126,0,0,1,.266.056.155.155,0,0,1,.11.156.179.179,0,0,1-.1.169.739.739,0,0,1-.4.087c-.343-.006-.685-.016-1.029-.027-.17-.006-.342-.024-.512-.029-.8-.023-1.6-.049-2.4-.063q-3.049-.051-6.1-.1l-4.592-.076C536.727,273.634,534.75,273.607,533.229,273.584Z" transform="translate(-492.859 -270.001)" fill="#c2c2c2"/>
            <path id="Trazado_13338" data-name="Trazado 13338" d="M544.535,272.1a.936.936,0,0,1-.159.585c-.129.2-.26.4-.406.594-.968,1.272-1.947,2.535-2.908,3.812-1.429,1.9-2.842,3.805-4.27,5.7-.81,1.076-1.635,2.141-2.456,3.209a2.812,2.812,0,0,1-.3.323.376.376,0,0,1-.15.077.185.185,0,0,1-.236-.176.514.514,0,0,1,.063-.226,3.744,3.744,0,0,1,.252-.365c1.5-2,3.02-3.987,4.512-5.994q2.472-3.326,5.024-6.592c.07-.09.139-.182.209-.27a1.737,1.737,0,0,0,.441-.947c.011-.137.1-.212.192-.2.107.017.143.1.164.193.007.033.014.066.019.1C544.528,271.992,544.531,272.049,544.535,272.1Z" transform="translate(-477.965 -270.614)" fill="#c2c2c2"/>
            <path id="Trazado_13339" data-name="Trazado 13339" d="M531.427,285.62c-.01-.042-.039-.087-.027-.117a1.662,1.662,0,0,1,.132-.237,31.04,31.04,0,0,1,2.09-2.884c.518-.638,1.054-1.262,1.563-1.908.963-1.219,1.914-2.446,2.865-3.675,1.049-1.356,2.126-2.688,3.251-3.98a3.568,3.568,0,0,1,.582-.528.5.5,0,0,1,.117-.072.125.125,0,0,1,.155.031.224.224,0,0,1,.034.125.18.18,0,0,1-.036.1,5.044,5.044,0,0,1-.408.629c-1.725,1.986-3.316,4.075-4.918,6.158-.968,1.259-1.984,2.478-3,3.7-.585.7-1.156,1.416-1.731,2.126A1.362,1.362,0,0,1,531.427,285.62Z" transform="translate(-478.933 -270.37)" fill="#c2c2c2"/>
            <path id="Trazado_13340" data-name="Trazado 13340" d="M508.046,273.566c-.31-.283-.358-.524-.189-.814a.151.151,0,0,1,.11-.05c.019,0,.053.044.057.072a2.146,2.146,0,0,1,.021.272C508.049,273.2,508.046,273.36,508.046,273.566Z" transform="translate(-489.109 -270.156)" fill="#c2c2c2"/>
            <path id="Trazado_13341" data-name="Trazado 13341" d="M544.906,282.885q-1.97-.071-3.938-.136l-4.076-.14q-2.071-.069-4.144-.133-1.506-.045-3.014-.074c-1.1-.024-2.193-.041-3.29-.06l-4.9-.08q-1.629-.026-3.256-.057l-4.386-.08-3.015-.056q-2.107-.041-4.214-.084-.89-.019-1.78-.059c-1.153-.05-2.3-.107-3.457-.162-.067,0-.136-.009-.2-.013l-1.915-.113c-.638-.039-1.276-.08-1.914-.12-.1-.007-.2-.016-.308-.017s-.2,0-.286,0a.343.343,0,0,0-.037.083c-.023.342-.047.684-.064,1.026-.009.172,0,.343,0,.515a.276.276,0,0,0,.1.24.9.9,0,0,1,.109.116,15.947,15.947,0,0,0,1.925.13c1.209.064,2.419.1,3.629.144q1.867.069,3.732.133c.845.029,1.691.052,2.535.076.685.02,1.37.041,2.056.059,1.027.027,2.056.059,3.083.077q2.021.034,4.044.053c3.084.027,6.168.046,9.252.072,3.233.027,6.466.023,9.7.143,1.37.051,2.741.067,4.113.077,1.644.013,3.289,0,4.974,0l.033-.033v-.781c-.139-.209-.093-.464-.146-.7C545.518,282.919,545.212,282.9,544.906,282.885Z" transform="translate(-493.869 -266.369)" fill="#ededed"/>
            <path id="Trazado_13342" data-name="Trazado 13342" d="M532.457,282.532c-.16-.006-.33-.016-.5-.016a1.921,1.921,0,0,0-.555.02c-.016.134-.03.257-.047.38a.5.5,0,0,1-.157.34.353.353,0,0,1-.04-.054v.781c.422-.431.841-.86,1.262-1.29C532.456,282.655,532.5,282.616,532.457,282.532Z" transform="translate(-479.037 -265.936)" fill="#e0e0e0"/>
          </g>
          <path id="Trazado_13343" data-name="Trazado 13343" d="M494.685,295.02l-3.9-35.02,77.963-.624L563.556,294.5Z" transform="translate(-490.787 -259.376)" fill="#bed6f0" stroke="#fff" stroke-miterlimit="10" stroke-width="3" opacity="0.58"/>
          <path id="Trazado_13344" data-name="Trazado 13344" d="M496.019,259.906l4.694-.312L511,294.521l-5.055-.312Z" transform="translate(-488.534 -259.282)" fill="#fff" opacity="0.43"/>
          <path id="Trazado_13345" data-name="Trazado 13345" d="M501.9,259.906l4.694-.312,10.291,34.927-5.055-.312Z" transform="translate(-486 -259.282)" fill="#fff" opacity="0.43"/>
        </g>
        <path id="Trazado_13346" data-name="Trazado 13346" d="M546.85,261l6.18-5.389-6.739,33.915-4.634,6.6Z" transform="translate(-363.807 -159.517)" fill="#bed6f0" stroke="#fff" stroke-miterlimit="10" stroke-width="3" opacity="0.58"/>
        <path id="Trazado_13347" data-name="Trazado 13347" d="M574.929,255l-74.787.217-9.356,6.665,77.963-.624Z" transform="translate(-385.706 -159.778)" fill="#bed6f0" stroke="#fff" stroke-miterlimit="10" stroke-width="3" opacity="0.1"/>
        <path id="Trazado_13348" data-name="Trazado 13348" d="M575.152,288.62h-84.4a2.216,2.216,0,0,1-1.925-2.412h0a2.217,2.217,0,0,1,1.925-2.413h84.4a2.218,2.218,0,0,1,1.927,2.413h0A2.217,2.217,0,0,1,575.152,288.62Z" transform="translate(-386.551 -147.383)" fill="#514f78"/>
      </g>
      <g id="Grupo_4552" data-name="Grupo 4552" transform="translate(66.717 74.404)">
        <g id="Grupo_4550" data-name="Grupo 4550" transform="translate(0 2.901)">
          <g id="Grupo_4548" data-name="Grupo 4548" transform="translate(38.485 21.548)">
            <path id="Trazado_13349" data-name="Trazado 13349" d="M492.679,262.188c-.066-1.353-.448-2.961.067-4.213a2.133,2.133,0,0,1,.917-.436,73.048,73.048,0,0,0,7.471,2.645,30.986,30.986,0,0,0-1.491,3.642,13.7,13.7,0,0,1,.423,3.858.97.97,0,0,1-.352.865,5.008,5.008,0,0,1-1.166.509c-2.237-.2-3.861-.973-6.062-1.415a1.3,1.3,0,0,1-.84-.406,1.229,1.229,0,0,1-.019-1.081,9.078,9.078,0,0,1,1.247-2.466A9.466,9.466,0,0,1,492.679,262.188Z" transform="translate(-490.595 -257.539)" fill="#5fa69b"/>
            <path id="Trazado_13350" data-name="Trazado 13350" d="M492.039,262.493a9.165,9.165,0,0,1,.983-4.649,73.41,73.41,0,0,0,7.471,2.646A30.956,30.956,0,0,0,499,264.131a13.7,13.7,0,0,1,.423,3.859.74.74,0,0,1-.916.926,62.267,62.267,0,0,1-6.665-.967,1.29,1.29,0,0,1-.84-.406,1.224,1.224,0,0,1-.017-1.081A9.051,9.051,0,0,1,492.236,264,9.305,9.305,0,0,1,492.039,262.493Z" transform="translate(-490.871 -257.408)" fill="#8ac9c2"/>
            <path id="Trazado_13351" data-name="Trazado 13351" d="M490.99,266.461A9.051,9.051,0,0,1,492.236,264a9.305,9.305,0,0,1-.2-1.5,9.165,9.165,0,0,1,.983-4.649q1.045.436,2.106.837a3.929,3.929,0,0,0-1.177.283c-1.917.9-1.353,4.4.113,5.978-.564,0-1.24-.452-1.8-.113-.452.451-.79,1.353-.452,1.8,1.353,2.143,4.15,1.774,6.188,1.25.664-.17,1.143-1.363,1.03-2.04-.112-.9-1.127-1.24-1.917-1.578a2.081,2.081,0,0,0,2.084-.68c-.066.182-.129.363-.19.545a13.7,13.7,0,0,1,.423,3.859.74.74,0,0,1-.916.926,62.267,62.267,0,0,1-6.665-.967,1.29,1.29,0,0,1-.84-.406A1.224,1.224,0,0,1,490.99,266.461Z" transform="translate(-490.871 -257.408)" fill="#70b8af"/>
          </g>
          <g id="Grupo_4549" data-name="Grupo 4549">
            <path id="Trazado_13352" data-name="Trazado 13352" d="M470.917,311.27s-1.3,3.545.4,5.238,5.044,1.585,5.476,1.585,1.4,1.08.539,1.727-6.207.216-7.449,0-4.7.757-5.506-.053-.269-1.728.379-2.645a13.341,13.341,0,0,0,1.953-4.815c.476-2.256,3.39-1.958,3.39-1.958Z" transform="translate(-463.968 -213.263)" fill="#f0d1b1"/>
            <path id="Trazado_13353" data-name="Trazado 13353" d="M482.19,311.777l-.235,2.073a6.886,6.886,0,0,1,.235,3.011c-.27,1.512-.594,1.89-.539,2.051s.215,1.187,1.024,1.3,2.592-.27,3.887-.323,5.992,1.295,8.421-.216c.323-1.242-.973-1.566-1.512-1.512s-6.19-.881-7.926-5.65C483.323,310.979,482.19,311.777,482.19,311.777Z" transform="translate(-456.358 -212.732)" fill="#f0d1b1"/>
            <path id="Trazado_13354" data-name="Trazado 13354" d="M470.862,298.5c-.076.252,7.19.263,11.049.526C479.982,287.361,475.071,284.38,470.862,298.5Z" transform="translate(-461 -222.427)" fill="#4e8a81"/>
            <path id="Trazado_13355" data-name="Trazado 13355" d="M472.186,278.851s-.5,18.473-.9,19.974c-1.7,2.4-4.991,6.3-5,13.2s-.4,13.831-.4,13.831h3.934s4.1-15.732,7.387-23.135,4.254-20.962,4.254-20.962Z" transform="translate(-463.144 -226.817)" fill="#2e2f68"/>
            <path id="Trazado_13356" data-name="Trazado 13356" d="M477.333,318.168c-.865.648-6.211.219-7.453,0s-4.7.761-5.5-.053-.27-1.724.376-2.642c.133-.192.278-.416.423-.667a7.763,7.763,0,0,0,2.22.773c1.888.27,3.29-.119,3.429-1.408a2.6,2.6,0,0,0,.488.688c1.7,1.691,5.048,1.585,5.477,1.585S478.191,317.521,477.333,318.168Z" transform="translate(-463.968 -211.612)" fill="#2e2f68"/>
            <path id="Trazado_13357" data-name="Trazado 13357" d="M494.987,318.368c-2.432,1.512-7.128.164-8.423.217s-3.078.429-3.885.323-.971-1.129-1.03-1.295.27-.542.541-2.048a1.934,1.934,0,0,0,.04-.27,3.809,3.809,0,0,1,.845.323c1.315.694,4.473.978,4.9-1.037a10.5,10.5,0,0,0,5.5,2.28C494.008,316.8,495.31,317.133,494.987,318.368Z" transform="translate(-456.359 -211.435)" fill="#2e2f68"/>
            <path id="Trazado_13358" data-name="Trazado 13358" d="M479.637,281.764s-1.09,11.274-3.307,18.489c-.707-3.553-3.419-10.3-6.22-13.263.152-4.314.258-8.139.258-8.139Z" transform="translate(-461.324 -226.817)" fill="#211d4b"/>
            <path id="Trazado_13359" data-name="Trazado 13359" d="M474.758,271.723l-3.96,4.244s-2.8,4.319-1.2,8.121,7.5,10.259,10.4,19.784c-1.3,6.424-1.2,10.075,1.9,15.951S487.354,331,487.354,331s3.619-.592,3.685-1.6c-.834-2.2-4.683-18.654-4.659-25.534a103.426,103.426,0,0,0-2.777-21.153l.562-4.153Z" transform="translate(-461.757 -229.885)" fill="#2e2f68"/>
            <path id="Trazado_13360" data-name="Trazado 13360" d="M472.824,259.586l-1.8,2.294s-2.789,7.916-2.345,11.543c.369,3.478,14.724,5.031,14.724,5.031v-3.033s-6.391-1.708-9.929-4.221a64.222,64.222,0,0,1,1.642-8.137S476.154,259.735,472.824,259.586Z" transform="translate(-461.96 -235.11)" fill="#f0d1b1"/>
            <path id="Trazado_13361" data-name="Trazado 13361" d="M470.289,282.539s7.891,2.387,13.366,2.6c-.37-5.559-1.553-7.966,1.924-14.5.971-6.387-.84-9.683-.84-9.683a34,34,0,0,0-4.33-3.981c-1.491-.93-5.323-.33-5.323-.33a9.422,9.422,0,0,0-4.773,6.579c-.348,2.589,3.131,7.251,2.612,11.4A24.74,24.74,0,0,1,470.289,282.539Z" transform="translate(-461.247 -236.457)" fill="#ca2d78"/>
            <path id="Trazado_13362" data-name="Trazado 13362" d="M472.385,257.861s6.893-.112,9.822,1.442l-2.089-1.883a26.077,26.077,0,0,0-5.934-.83A21.45,21.45,0,0,0,472.385,257.861Z" transform="translate(-460.345 -236.399)" fill="#5da39a"/>
            <path id="Trazado_13363" data-name="Trazado 13363" d="M475.733,275.282s6.712,16.518,4.616,30.635c5.466-.122,5.434.458,5.434.458s-1.831-21.141-4.593-28.355a3.689,3.689,0,0,0,.082-1.531C479.488,275.1,475.733,275.282,475.733,275.282Z" transform="translate(-458.903 -228.357)" fill="#5da39a"/>
            <path id="Trazado_13364" data-name="Trazado 13364" d="M485.578,269.3c-3.475,6.527-2.293,8.932-1.923,14.5-5.477-.217-13.365-2.6-13.365-2.6s.31-.561.727-1.486c0,0,6.469,1.289,8.543,1.11s4.671-12.936,4.353-14.316.4-6.911.4-6.911.767,2.538,1.526,5.227A22.651,22.651,0,0,1,485.578,269.3Z" transform="translate(-461.246 -235.11)" fill="#5da39a"/>
            <path id="Trazado_13365" data-name="Trazado 13365" d="M497.6,269.139c-.215.267-6.862,4.8-11.955,4.051-2.516-1.265-6.7-7.911-6.7-7.911s-2.948-3.324-.8-5.254,4.6-.375,5.36,3.055a47.936,47.936,0,0,0,3.978,5.147s6.207-.054,8.727-1.717A4.823,4.823,0,0,1,497.6,269.139Z" transform="translate(-458.201 -235.282)" fill="#f0d1b1"/>
            <path id="Trazado_13366" data-name="Trazado 13366" d="M480.391,248.873a3.78,3.78,0,0,0,2.047,2.435c.385.8-1.31,1.307-1.31,1.307Z" transform="translate(-456.898 -239.722)" fill="#f0d1b1"/>
            <path id="Trazado_13367" data-name="Trazado 13367" d="M473.369,253.029l.608,4.017s1,3.745,0,4.819a39.318,39.318,0,0,1,5.934.83,6.852,6.852,0,0,1-.968-2.822c.041-1.132,3.038.242,3.858.19s2.676-2.3,2.187-5.862c-.682-1.611-.927-1.659-.634-3.076a6.369,6.369,0,0,0-.293-4.442c-.781-1.416-9.666-2.343-9.666-2.343S471.807,249.32,473.369,253.029Z" transform="translate(-460.137 -241.673)" fill="#f0d1b1"/>
            <path id="Trazado_13368" data-name="Trazado 13368" d="M474.218,249.265c-.176.044-2.332.352-1.761,2.991s3.538,9.209-1.056,11.923c-2.9,1.717-5.236-.176-5.236-.835,1.013.441,4.311-.044,3.741-4.4s-2.448-9.284,4.276-10.164C474.966,248.824,474.218,249.265,474.218,249.265Z" transform="translate(-463.022 -239.762)" fill="#2e2f68"/>
            <path id="Trazado_13369" data-name="Trazado 13369" d="M474.215,250.575a3.69,3.69,0,0,0,3.609,1.493,6.015,6.015,0,0,0,4.4,5.31c-1.784.415-3.609-.913-4,0a16.094,16.094,0,0,0-1.306-4.48C475.708,252.981,474.63,251.82,474.215,250.575Z" transform="translate(-459.557 -238.989)" fill="#cc9f7c"/>
            <path id="Trazado_13370" data-name="Trazado 13370" d="M487.8,266.635l.575-.106s1.522,2.877,1.459,3.436l-.494.243s-.029.546.687.2,3.236-2.232,3.236-2.232,3.778-.688,4.007-1.117-.687-4.608-1.316-4.922-1.346.343-1.546.429c-.2-.688-.343-.688-.343-.688a4.609,4.609,0,0,0-1.511.145c-.436.2-1.209,2.575-1.152,2.689a1.091,1.091,0,0,1,.057.36,23.874,23.874,0,0,1-3.435,1.182A.417.417,0,0,0,487.8,266.635Z" transform="translate(-453.706 -234.126)" fill="#ca2d78"/>
            <path id="Trazado_13371" data-name="Trazado 13371" d="M475.079,257.848a3.344,3.344,0,0,0,1.026-3.283c-.561-1.542-.883-3.257.582-3.686s2.5,1.751,2.466,2.9a1.237,1.237,0,0,0,.893-.036s-.714-1.787,0-2.323,2.788-2.43.751-4.217c1.286-1.107,3.824.25,4.861,1.358.857-2.572-1.109-4-3.5-4.645-1-1.822-9.506-2.9-11.65,3.073-.964,4.146,1.822,6.433,3.181,7.9A4.953,4.953,0,0,1,475.079,257.848Z" transform="translate(-461.24 -242.476)" fill="#2e2f68"/>
            <path id="Trazado_13372" data-name="Trazado 13372" d="M484.058,263.876c-1.061-3.55-2.307-5.658-5.3-4.475s-1.077,5.7.874,6.879C479.637,266.281,483,264.527,484.058,263.876Z" transform="translate(-458.267 -235.332)" fill="#d57496"/>
          </g>
        </g>
        <g id="Grupo_4551" data-name="Grupo 4551" transform="translate(8.151)">
          <path id="Trazado_13373" data-name="Trazado 13373" d="M477.012,241.211c1.864-.691,2.91-1.063,4.728-.461a8.234,8.234,0,0,1,3.243,2.014,5.565,5.565,0,0,1,1.742,3.151,5,5,0,0,1-1.275,3.283c-.861-1.047-2.932.11-3.977.617a28.239,28.239,0,0,0-3.685,2.389c-2.545,1.772-8.038,4.146-8.121-.492a13.714,13.714,0,0,1,1.664-6.477C472.759,242.869,474.553,242.122,477.012,241.211Z" transform="translate(-469.666 -240.448)" opacity="0.6" fill="url(#linear-gradient)"/>
          <path id="Trazado_13374" data-name="Trazado 13374" d="M477.6,249.149a30.507,30.507,0,0,1,3.977-2.578c1.071-.519,3.372-1.435,4.4-.556.07.419-.2,1.605-.87,1.223-.86-1.047-2.711-.169-3.755.338a28.239,28.239,0,0,0-3.685,2.389c-2.151,1.5-6.4,3.41-7.715,1.166C471.816,252.319,475.574,250.562,477.6,249.149Z" transform="translate(-469.543 -238.208)" fill="#efefef"/>
          <path id="Trazado_13375" data-name="Trazado 13375" d="M478.464,241.333c1.814,1.05,2.307,1.466,3.047,3.283Zm-.263,1.478.805,4.392C479.342,245.606,478.7,244.224,478.2,242.811Zm-1.941,1.073c-.944,1.641-1.908,2.785-1.844,4.559Zm-4.051,4.219,2.234-4.151C473.108,245.025,472.273,247.713,472.209,248.1Zm-1.87,3.649,2.465-6.765A14.32,14.32,0,0,0,470.339,251.752Zm12.151-7.406L484,246.825C484.159,245.908,482.833,244.792,482.49,244.346Zm-.373,2.935c-.236-.79-.541-1.565-.823-2.335Zm-.7-6.228,3.759,4.337C484.624,243.355,482.942,242.328,481.412,241.053Zm-4.975,6.46a9.419,9.419,0,0,0-.516,3.259Zm-2.8.263a30.776,30.776,0,0,0-.212,3.3Zm1.428-3.216,1.678-2.333A18.549,18.549,0,0,0,475.067,244.561Z" transform="translate(-469.376 -240.187)" fill="#fafdff" opacity="0.8"/>
        </g>
      </g>
    </g>
    <g id="Grupo_4613" data-name="Grupo 4613" transform="translate(931.56 -2306.265)">
      <circle id="Elipse_1326" data-name="Elipse 1326" cx="17.14" cy="17.14" r="17.14" transform="translate(0)" fill="#366064"/>
      <text id="_4" data-name="4" transform="translate(10.013 24.548)" fill="#fff" font-size="25" font-family="CerebriSans-Bold, Cerebri Sans" font-weight="700"><tspan x="0" y="0">4</tspan></text>
    </g>
  </g>
</svg>
