<svg xmlns="http://www.w3.org/2000/svg" xmlns:xlink="http://www.w3.org/1999/xlink" width="230" height="249.448" viewBox="0 0 230 249.448">
  <defs>
    <linearGradient id="linear-gradient" x1="421.246" y1="7.122" x2="422.316" y2="7.122" gradientUnits="objectBoundingBox">
      <stop offset="0" stop-color="#dcddde"/>
      <stop offset="1" stop-color="#fafdff"/>
    </linearGradient>
  </defs>
  <g id="Grupo_5437" data-name="Grupo 5437" transform="translate(-413.281 2119.4)">
    <g id="Grupo_4575" data-name="Grupo 4575" transform="translate(413.281 -2119.4)">
      <g id="Grupo_4567" data-name="Grupo 4567" transform="translate(0 0)">
        <g id="Grupo_4564" data-name="Grupo 4564">
          <rect id="Rectángulo_1355" data-name="Rectángulo 1355" width="35.303" height="1.493" transform="translate(193.457 106.573)" fill="#b8bddd"/>
          <rect id="Rectángulo_1356" data-name="Rectángulo 1356" width="40.112" height="112.561" transform="translate(97.657 12.983)" fill="#e4effb"/>
          <rect id="Rectángulo_1357" data-name="Rectángulo 1357" width="4.873" height="54.639" transform="translate(181.805)" fill="#e1e4f2"/>
          <circle id="Elipse_1315" data-name="Elipse 1315" cx="115" cy="115" r="115" transform="translate(0 19.448)" fill="#5863a8"/>
          <g id="Grupo_4554" data-name="Grupo 4554" transform="translate(113.92 2.72)">
            <path id="Trazado_13376" data-name="Trazado 13376" d="M146.485,407.3a3.478,3.478,0,0,1-1.709-.448,122.363,122.363,0,0,0-59.667-15.517,3.5,3.5,0,0,1,0-7.008A129.385,129.385,0,0,1,148.2,400.734a3.5,3.5,0,0,1-1.715,6.562Z" transform="translate(-81.605 -384.324)" fill="#e1e4f2"/>
          </g>
          <circle id="Elipse_1316" data-name="Elipse 1316" cx="101.218" cy="101.218" r="101.218" transform="translate(13.782 33.23)" fill="#999fcd"/>
          <g id="Grupo_4555" data-name="Grupo 4555" transform="translate(26.623 76.377)">
            <path id="Trazado_13377" data-name="Trazado 13377" d="M24.882,444.421a4.3,4.3,0,1,1,4.3-4.3A4.308,4.308,0,0,1,24.882,444.421Zm0-6.742a2.439,2.439,0,1,0,2.439,2.439A2.442,2.442,0,0,0,24.882,437.679Z" transform="translate(-20.579 -435.815)" fill="#e1e4f2"/>
          </g>
          <g id="Grupo_4556" data-name="Grupo 4556" transform="translate(21.187 71.732)">
            <path id="Trazado_13378" data-name="Trazado 13378" d="M19.727,438.464a2.948,2.948,0,1,1,2.948-2.948A2.952,2.952,0,0,1,19.727,438.464Zm0-4.62a1.672,1.672,0,1,0,1.672,1.672A1.673,1.673,0,0,0,19.727,433.844Z" transform="translate(-16.779 -432.568)" fill="#e1e4f2"/>
          </g>
          <g id="Grupo_4557" data-name="Grupo 4557" transform="translate(25.36 147.302)">
            <path id="Trazado_13379" data-name="Trazado 13379" d="M23.189,492.384a3.494,3.494,0,1,1,3.495-3.493A3.5,3.5,0,0,1,23.189,492.384Zm0-5.474a1.981,1.981,0,1,0,1.981,1.981A1.984,1.984,0,0,0,23.189,486.909Z" transform="translate(-19.696 -485.396)" fill="#e1e4f2"/>
          </g>
          <g id="Grupo_4558" data-name="Grupo 4558" transform="translate(16.862 161.455)">
            <path id="Trazado_13380" data-name="Trazado 13380" d="M17.25,502.278a3.494,3.494,0,1,1,3.493-3.495A3.5,3.5,0,0,1,17.25,502.278Zm0-5.476a1.981,1.981,0,1,0,1.981,1.981A1.984,1.984,0,0,0,17.25,496.8Z" transform="translate(-13.755 -495.29)" fill="#e1e4f2"/>
          </g>
          <g id="Grupo_4559" data-name="Grupo 4559" transform="translate(29.766 170.135)">
            <path id="Trazado_13381" data-name="Trazado 13381" d="M28.143,512.092a5.367,5.367,0,1,1,5.367-5.367A5.373,5.373,0,0,1,28.143,512.092Zm0-8.41a3.043,3.043,0,1,0,3.043,3.043A3.046,3.046,0,0,0,28.143,503.683Z" transform="translate(-22.776 -501.358)" fill="#e1e4f2"/>
          </g>
          <circle id="Elipse_1317" data-name="Elipse 1317" cx="80.998" cy="80.998" r="80.998" transform="translate(34.002 53.45)" fill="#f8f0d3"/>
          <rect id="Rectángulo_1358" data-name="Rectángulo 1358" width="40.603" height="125.544" transform="translate(141.202)" fill="#fff"/>
          <rect id="Rectángulo_1359" data-name="Rectángulo 1359" width="40.603" height="125.544" transform="translate(97.166)" fill="#f6df53"/>
          <rect id="Rectángulo_1360" data-name="Rectángulo 1360" width="40.603" height="125.544" transform="translate(53.284)" fill="#fff"/>
          <g id="Grupo_4560" data-name="Grupo 4560" transform="translate(172.423 35.751)">
            <path id="Trazado_13382" data-name="Trazado 13382" d="M126,414.4a3.494,3.494,0,1,1,3.495-3.495A3.5,3.5,0,0,1,126,414.4Zm0-5.476a1.981,1.981,0,1,0,1.981,1.981A1.984,1.984,0,0,0,126,408.927Z" transform="translate(-122.502 -407.415)" fill="#999fcd"/>
          </g>
          <g id="Grupo_4561" data-name="Grupo 4561" transform="translate(163.614 47.435)">
            <path id="Trazado_13383" data-name="Trazado 13383" d="M119.837,422.572a3.495,3.495,0,1,1,3.495-3.495A3.5,3.5,0,0,1,119.837,422.572Zm0-5.476a1.981,1.981,0,1,0,1.981,1.981A1.984,1.984,0,0,0,119.837,417.1Z" transform="translate(-116.344 -415.583)" fill="#999fcd"/>
          </g>
          <g id="Grupo_4562" data-name="Grupo 4562" transform="translate(173.353 56.426)">
            <path id="Trazado_13384" data-name="Trazado 13384" d="M128.209,431.983a5.057,5.057,0,1,1,5.058-5.057A5.063,5.063,0,0,1,128.209,431.983Zm0-8.41a3.352,3.352,0,1,0,3.353,3.353A3.357,3.357,0,0,0,128.209,423.573Z" transform="translate(-123.152 -421.868)" fill="#999fcd"/>
          </g>
          <g id="Grupo_4563" data-name="Grupo 4563" transform="translate(34.823 45.008)">
            <path id="Trazado_13385" data-name="Trazado 13385" d="M32.312,413.886l.671,3.133,2.455.671-2.455.671-.671,3.133-.671-3.133-2.455-.671,2.455-.671Z" transform="translate(-25.073 -413.886)" fill="#d4d6eb"/>
            <path id="Trazado_13386" data-name="Trazado 13386" d="M29.436,420.237l.671,3.133,2.455.671-2.455.671-.671,3.133-.671-3.133-2.455-.671,2.455-.671Z" transform="translate(-26.311 -411.153)" fill="#d4d6eb"/>
          </g>
        </g>
        <g id="Grupo_4566" data-name="Grupo 4566" transform="translate(99.333 7.77)">
          <g id="Grupo_4565" data-name="Grupo 4565">
            <path id="Trazado_13387" data-name="Trazado 13387" d="M82.027,397.435s-1.5-1.705.116-4.3c.963-1.546,2.548-3.366,1.287-5.283,2.017,1.831,2,3.41,1.064,5.713-.778,1.91,1.19,3.722,1.19,3.722Z" transform="translate(-67.109 -387.854)" fill="#ecb72d"/>
            <path id="Trazado_13388" data-name="Trazado 13388" d="M80.569,398.588s-2.149-.73-2.047-3.782c.059-1.82.524-4.187-1.529-5.217,2.664.578,3.44,1.953,3.781,4.416.28,2.04,2.891,2.626,2.891,2.626Z" transform="translate(-69.004 -387.107)" fill="#ecb72d"/>
            <path id="Trazado_13389" data-name="Trazado 13389" d="M80.416,400.108s-2.229.443-3.666-2.252c-.858-1.6-1.639-3.888-3.932-3.755,2.6-.831,3.957-.029,5.482,1.935,1.263,1.627,3.819.828,3.819.828Z" transform="translate(-70.801 -385.305)" fill="#ecb72d"/>
            <path id="Trazado_13390" data-name="Trazado 13390" d="M80.989,402s-1.705,1.5-4.3-.117c-1.548-.961-3.365-2.546-5.283-1.285,1.832-2.017,3.41-2,5.715-1.066,1.907.778,3.719-1.19,3.719-1.19Z" transform="translate(-71.408 -383.341)" fill="#ecb72d"/>
            <path id="Trazado_13391" data-name="Trazado 13391" d="M82.143,404.171s-.731,2.147-3.784,2.047c-1.818-.059-4.187-.522-5.216,1.529.576-2.662,1.95-3.44,4.414-3.779,2.041-.28,2.626-2.892,2.626-2.892Z" transform="translate(-70.661 -382.163)" fill="#ecb72d"/>
            <path id="Trazado_13392" data-name="Trazado 13392" d="M83.663,405.118s.442,2.224-2.254,3.663c-1.6.857-3.885,1.641-3.752,3.932-.831-2.594-.029-3.955,1.934-5.48,1.628-1.265.83-3.819.83-3.819Z" transform="translate(-68.858 -381.156)" fill="#ecb72d"/>
            <path id="Trazado_13393" data-name="Trazado 13393" d="M85.55,404.626s1.5,1.705-.116,4.3c-.963,1.546-2.548,3.365-1.286,5.283-2.017-1.83-2-3.41-1.064-5.713.777-1.91-1.193-3.721-1.193-3.721Z" transform="translate(-66.895 -380.634)" fill="#ecb72d"/>
            <path id="Trazado_13394" data-name="Trazado 13394" d="M87.725,403.3s2.149.728,2.048,3.782c-.059,1.82-.524,4.188,1.528,5.218-2.661-.578-3.442-1.954-3.781-4.417-.28-2.041-2.892-2.628-2.892-2.628Z" transform="translate(-65.717 -381.206)" fill="#ecb72d"/>
            <path id="Trazado_13395" data-name="Trazado 13395" d="M88.671,400.984s2.226-.443,3.666,2.252c.857,1.605,1.639,3.888,3.931,3.755-2.593.831-3.954.029-5.482-1.935-1.263-1.626-3.819-.828-3.819-.828Z" transform="translate(-64.71 -382.213)" fill="#ecb72d"/>
            <path id="Trazado_13396" data-name="Trazado 13396" d="M88.18,398.472s1.705-1.5,4.3.119c1.546.96,3.365,2.546,5.281,1.286-1.83,2.016-3.41,2-5.713,1.063-1.908-.775-3.721,1.193-3.721,1.193Z" transform="translate(-64.188 -383.555)" fill="#ecb72d"/>
            <path id="Trazado_13397" data-name="Trazado 13397" d="M86.852,397.016s.73-2.15,3.784-2.05c1.82.06,4.186.525,5.216-1.526-.576,2.661-1.951,3.437-4.416,3.778-2.043.282-2.626,2.892-2.626,2.892Z" transform="translate(-64.76 -385.449)" fill="#ecb72d"/>
            <path id="Trazado_13398" data-name="Trazado 13398" d="M84.538,396.858s-.443-2.224,2.253-3.665c1.6-.857,3.885-1.639,3.752-3.93.831,2.592.029,3.954-1.934,5.48-1.628,1.265-.83,3.818-.83,3.818Z" transform="translate(-65.767 -387.247)" fill="#ecb72d"/>
          </g>
          <path id="Trazado_13399" data-name="Trazado 13399" d="M93.569,401.75a8.018,8.018,0,1,0-7.76,8.265A8.017,8.017,0,0,0,93.569,401.75Z" transform="translate(-68.769 -385.215)" fill="#edc643"/>
        </g>
      </g>
      <g id="Grupo_4569" data-name="Grupo 4569" transform="translate(103.784 124.354)">
        <rect id="Rectángulo_1361" data-name="Rectángulo 1361" width="72.807" height="42.722" transform="translate(3.501 15.316)" fill="#b8bddd"/>
        <path id="Trazado_13400" data-name="Trazado 13400" d="M137.909,469.354,127.758,483.52v43.872L136.3,507.2Z" transform="translate(-51.6 -469.354)" fill="#999fcd"/>
        <g id="Grupo_4568" data-name="Grupo 4568" transform="translate(1.042 0.806)">
          <path id="Trazado_13401" data-name="Trazado 13401" d="M130.389,470.506l0,.016c.006.083-.064.163-.182.193a.862.862,0,0,1-.227.02c-.5-.024-.991-.053-1.488-.08l-.257-.017c-.554-.037-1.106-.076-1.659-.11q-.644-.041-1.287-.076c-.619-.031-1.24-.059-1.861-.087-.086,0-.172-.009-.257-.01-1.013-.026-2.026-.043-3.038-.076-2.666-.087-5.333-.04-8-.027-1.625.009-3.25.034-4.875.054-.823.01-1.644.026-2.466.041l-3.124.067c-.621.016-1.242.031-1.864.052-.83.027-1.661.06-2.492.092l-.172,0c-.9.026-1.8.049-2.7.079-1,.034-2,.076-3.007.114-.459.017-.917.031-1.376.051-.209.009-.419.024-.642.039a1.806,1.806,0,0,1-.525.554c-.5.362-1.01.725-1.519,1.08q-3.807,2.661-7.463,5.527-1.873,1.465-3.751,2.93c-.21.164-.408.345-.612.518a1.354,1.354,0,0,1-.11.092.151.151,0,0,1-.1.029c.029.159.177.258.358.316l-.01-.033a.175.175,0,0,1,.265-.046.573.573,0,0,0,.216.062c.142.021.285.037.428.049.6.044,1.2.09,1.8.13.525.036,1.05.063,1.574.093.049,0,.1.007.143.009.582.026,1.164.049,1.747.077.535.026,1.069.059,1.6.089l.057,0c.707.024,1.413.057,2.12.073,1.232.029,2.465.049,3.7.072.8.016,1.6.033,2.408.047q1.893.036,3.784.067l2.781.05,4.043.066q1.446.024,2.9.052,1.232.026,2.465.061.858.024,1.718.054c.735.027,1.471.057,2.206.086l.143.006c.86.026,1.719.047,2.579.077.764.026,1.528.059,2.292.089l.143.006q1.3.039,2.608.077.946.028,1.891.064a1.165,1.165,0,0,1,.28.047.146.146,0,0,1,.052.026,2.286,2.286,0,0,0,.3-.336.158.158,0,0,1-.129-.153.449.449,0,0,1,.053-.187,3.23,3.23,0,0,1,.212-.306c1.259-1.671,2.526-3.336,3.774-5.014q2.071-2.783,4.2-5.516c.059-.074.116-.152.175-.226a1.441,1.441,0,0,0,.369-.792.177.177,0,0,1,.1-.157A.57.57,0,0,0,130.389,470.506Zm-2.284,1.037a4.1,4.1,0,0,1-.342.526c-1.442,1.661-2.774,3.41-4.114,5.153-.81,1.053-1.661,2.074-2.51,3.094-.489.588-.967,1.184-1.448,1.78a1.146,1.146,0,0,1-.561.449c-.01-.034-.033-.073-.023-.1l.014-.033a.824.824,0,0,1-.5.054.2.2,0,0,1-.067.092.256.256,0,0,1-.133.046c-.323.026-.648.069-.971.063-.715-.014-1.432-.057-2.147-.083-.4-.014-.8-.021-1.2-.026q-3.1-.036-6.194-.07c-1.337-.017-2.675-.04-4.014-.06l-3.755-.054q-1.978-.028-3.957-.06-1.461-.024-2.924-.054-1.277-.028-2.552-.06l-2.234-.054c-1.682-.039-3.365-.072-5.045-.116-.631-.017-1.26-.057-1.89-.089-.468-.023-.936-.044-1.4-.077-.485-.033-.971-.074-1.456-.117a2.424,2.424,0,0,1-.661-.18.146.146,0,0,1-.08-.213,1.316,1.316,0,0,1,.2-.276c.207-.212.421-.419.639-.618,1.056-.957,2.163-1.851,3.29-2.724q3.049-2.36,6.1-4.718.794-.614,1.592-1.222c.152-.116.313-.217.472-.323a.972.972,0,0,1,.485-.155c.267-.017.534-.039.8-.071.521-.067,1.04-.136,1.566-.163.791-.042,1.582-.1,2.373-.146l.114-.006,2.379-.072,3.181-.1.143,0c1.156-.026,2.313-.042,3.469-.077,3.076-.1,6.154-.1,9.231-.126,1.913-.013,3.824-.029,5.735-.021,1.137,0,2.274.049,3.412.076.219,0,.439.01.659.017.687.021,1.375.04,2.063.069.276.013.552.046.828.07.17.014.342.03.514.042a1.892,1.892,0,0,1,.692.162.462.462,0,0,1,.136.1.112.112,0,0,1,.006.14.2.2,0,0,1,.037.113.087.087,0,0,1,.063.036.188.188,0,0,1,.029.1A.146.146,0,0,1,128.1,471.543Z" transform="translate(-75.208 -469.785)" fill="#fff"/>
          <path id="Trazado_13402" data-name="Trazado 13402" d="M123.306,470.983a.106.106,0,0,1-.062.046.616.616,0,0,1-.169.019c-.362-.016-.725-.033-1.087-.054-.639-.039-1.277-.1-1.917-.119-1.107-.036-2.217-.047-3.324-.077-2.332-.063-4.665-.046-7-.029-1.634.013-3.269.024-4.9.043-1.3.016-2.6.04-3.9.064-.784.014-1.568.034-2.35.052l-2.666.063q-1.075.024-2.15.051c-.774.02-1.548.037-2.322.063q-1.547.049-3.094.114c-.411.017-.818.06-1.229.086-.276.019-.554.027-.831.034l-.053,0,.013.349.02,0c.016,0,.046.037.049.06a1.719,1.719,0,0,1,.017.227c0,.132,0,.263,0,.436-.023-.02-.043-.04-.063-.06l.011.269a.367.367,0,0,1,.167-.043c.315-.013.629-.03.944-.049.5-.03.991-.063,1.488-.094l1.059-.067c.3-.019.609-.042.916-.053.678-.026,1.356-.057,2.034-.069,1.845-.031,3.689-.049,5.535-.083,3.038-.056,6.078-.052,9.118-.021,1.224.013,2.448.039,3.671.06l3.154.053q1.663.03,3.324.061c.622.013,1.243.027,1.864.054.544.024,1.087.066,1.629.1a1,1,0,0,1,.223.046.131.131,0,0,1,.092.132.184.184,0,0,1-.009.057l.226.02q.472-.567.954-1.123a2.963,2.963,0,0,1,.488-.441.436.436,0,0,1,.1-.06.135.135,0,0,1,.067-.01A.2.2,0,0,0,123.306,470.983Z" transform="translate(-70.509 -469.558)" fill="#d6d6d6"/>
          <path id="Trazado_13403" data-name="Trazado 13403" d="M79.515,480.938a.1.1,0,0,1,.017-.13c.047-.047.1-.09.15-.133,1.585-1.369,3.213-2.682,4.864-3.97,1.342-1.047,2.679-2.1,4.027-3.137.392-.3.811-.572,1.217-.858a1.048,1.048,0,0,0,.223-.174.316.316,0,0,1,.1-.092l-.011-.269a.46.46,0,0,1-.1-.622.11.11,0,0,1,.072-.039l-.013-.349a.4.4,0,0,0-.216.073c-.506.375-1.024.735-1.523,1.12q-3.708,2.867-7.407,5.745c-1.106.867-2.18,1.772-3.269,2.661-.087.072-.167.149-.247.22.05.087.122.082.186.087.2.016.4.033.6.042.349.016.7.031,1.05.044l.282-.212Z" transform="translate(-74.32 -469.381)" fill="#ccc"/>
          <path id="Trazado_13404" data-name="Trazado 13404" d="M124.769,472.167a.155.155,0,0,1-.073.084.634.634,0,0,1-.332.073q-.429-.009-.86-.024c-.143,0-.286-.02-.429-.023-.668-.02-1.338-.041-2.006-.053q-2.553-.043-5.1-.08l-3.842-.063c-1.654-.026-3.307-.049-4.58-.067-2.349.016-4.319.027-6.288.043q-1.82.017-3.641.047-1.363.022-2.724.06c-.621.02-1.242.067-1.861.087-.994.033-1.986.119-2.981.06a.509.509,0,0,0-.363.127q-3.386,2.626-6.779,5.246-1.781,1.378-3.556,2.759a2.673,2.673,0,0,1-.237.16.109.109,0,0,1-.144-.024l-.282.212q.406.017.811.029,1.691.051,3.382.09c.8.017,1.606.016,2.409.03q1.792.03,3.583.069c.727.014,1.452.036,2.179.05q1.835.034,3.669.066,1.592.026,3.183.046,2.867.036,5.735.069,2.021.026,4.043.051c1.682.019,3.364.031,5.047.056.811.011,1.624.03,2.436.067a10.883,10.883,0,0,1,1.257.086c.122.02.247.009.372.021a1.624,1.624,0,0,1,.309.053.14.14,0,0,1,.077.1.11.11,0,0,1,0,.021.824.824,0,0,0,.5-.054c.029-.057.062-.113.1-.167a25.808,25.808,0,0,1,1.748-2.412c.433-.535.883-1.057,1.309-1.6.805-1.02,1.6-2.048,2.4-3.076.578-.745,1.164-1.482,1.767-2.207Z" transform="translate(-73.767 -469.015)" fill="#c2c2c2"/>
          <path id="Trazado_13405" data-name="Trazado 13405" d="M120.444,480.237a9.735,9.735,0,0,1-1.495,1.451,1.132,1.132,0,0,1-.559.193,1.356,1.356,0,0,1-.229.009c-1.462,0-2.925,0-4.387-.011-.735,0-1.471-.024-2.207-.043-1.031-.026-2.063-.059-3.094-.083-.516-.013-1.033-.019-1.549-.023q-1.734-.013-3.469-.021-3.755-.028-7.511-.057-2.051-.017-4.1-.051c-.966-.019-1.93-.056-2.9-.084l-.2-.007c-1-.026-2.006-.046-3.01-.077-.687-.023-1.373-.059-2.061-.09l-.143-.007c-.659-.024-1.317-.046-1.977-.076-.572-.026-1.144-.057-1.717-.09-.411-.023-.821-.042-1.23-.076-.285-.026-.568-.069-.85-.114a.512.512,0,0,1-.406-.236.1.1,0,0,0-.039-.043.508.508,0,0,1-.239-.488,4.334,4.334,0,0,1,.073-.827c.019-.142.053-.28.082-.431a.614.614,0,0,0-.295-.079c-.272-.05-.545-.089-.818-.133-.047-.007-.094-.019-.142-.027a.455.455,0,0,1-.4-.33.175.175,0,0,1,.265-.046.572.572,0,0,0,.216.062c.142.021.285.037.428.049.6.044,1.2.09,1.8.13.525.036,1.05.063,1.574.093.049,0,.1.007.143.009.582.026,1.164.049,1.747.077.535.026,1.069.059,1.6.089l.057,0c.707.024,1.413.057,2.12.073,1.232.029,2.465.049,3.7.072.8.016,1.605.033,2.408.047q1.893.036,3.784.067l2.781.05,4.043.066q1.446.024,2.9.052,1.232.026,2.465.061.858.024,1.718.054c.735.027,1.471.057,2.206.086l.143.006c.86.026,1.719.047,2.579.077.764.026,1.528.059,2.292.089l.143.006q1.3.039,2.608.077.946.028,1.891.064a1.165,1.165,0,0,1,.28.047.153.153,0,0,1,.109.153.169.169,0,0,1-.122.174,1.882,1.882,0,0,1-.31.044c-.192.01-.383.009-.574.013C120.529,480.229,120.492,480.233,120.444,480.237Zm-1.76,1.2,1.083-1.107c.031-.033.073-.064.031-.134-.133-.006-.276-.014-.418-.014a1.6,1.6,0,0,0-.465.017c-.013.112-.024.215-.039.318a.425.425,0,0,1-.132.285c-.157-.182-.107-.415-.157-.629-.27-.016-.526-.034-.782-.044l-3.3-.113L111.1,479.9q-1.734-.058-3.468-.112-1.262-.036-2.522-.063-1.378-.028-2.752-.05-2.051-.034-4.1-.066l-2.724-.049-3.671-.066-2.522-.049q-1.764-.034-3.526-.07c-.5-.01-.994-.027-1.491-.049-.964-.041-1.928-.09-2.891-.136l-.172-.01c-.535-.031-1.069-.062-1.6-.094l-1.6-.1c-.086,0-.172-.011-.257-.014s-.166,0-.239,0c-.017.037-.031.053-.031.07-.02.286-.04.572-.054.858-.007.143,0,.286,0,.431a.227.227,0,0,0,.086.2.8.8,0,0,1,.09.1,13.379,13.379,0,0,0,1.612.109c1.011.054,2.024.083,3.035.122q1.562.056,3.123.112c.707.023,1.415.042,2.121.063.574.017,1.146.034,1.719.049.86.023,1.719.05,2.579.064q1.693.03,3.383.046,3.873.032,7.743.059c2.7.023,5.409.019,8.114.12,1.146.043,2.293.056,3.439.064C115.9,481.447,117.276,481.44,118.685,481.44Z" transform="translate(-75.104 -466.311)" fill="#c2c2c2"/>
          <path id="Trazado_13406" data-name="Trazado 13406" d="M77.517,481.295c.05.087.122.082.186.087.2.016.4.033.6.042.619.027,1.24.054,1.861.073q1.691.051,3.382.09c.8.017,1.606.016,2.409.03q1.792.03,3.583.069c.727.014,1.452.036,2.179.05q1.835.034,3.669.066,1.592.026,3.183.046,2.867.036,5.735.069,2.021.026,4.043.051c1.682.019,3.364.031,5.047.056.811.011,1.624.03,2.436.067a10.883,10.883,0,0,1,1.257.086c.122.02.247.009.372.021a1.624,1.624,0,0,1,.309.053.14.14,0,0,1,.077.1.172.172,0,0,1-.07.113.256.256,0,0,1-.133.046c-.323.026-.648.069-.971.063-.715-.014-1.432-.057-2.147-.083-.4-.014-.8-.021-1.2-.026q-3.1-.036-6.194-.07c-1.337-.017-2.675-.04-4.014-.06l-3.755-.054q-1.978-.028-3.957-.06-1.461-.024-2.924-.054-1.277-.028-2.552-.06l-2.234-.054c-1.682-.039-3.365-.072-5.045-.116-.631-.017-1.26-.057-1.89-.089-.468-.023-.936-.044-1.4-.077-.485-.033-.971-.074-1.456-.117a2.424,2.424,0,0,1-.661-.18.146.146,0,0,1-.08-.213,1.315,1.315,0,0,1,.2-.276c.207-.212.421-.419.639-.618,1.056-.957,2.163-1.851,3.29-2.724q3.049-2.36,6.1-4.718.794-.614,1.592-1.222c.152-.116.313-.217.472-.323a.972.972,0,0,1,.485-.155c.268-.017.534-.039.8-.071.521-.067,1.04-.136,1.566-.163.791-.042,1.582-.1,2.373-.146l.114-.006,2.379-.072,3.181-.1.143,0c1.156-.026,2.313-.042,3.469-.077,3.076-.1,6.154-.1,9.231-.126,1.913-.013,3.824-.029,5.735-.021,1.137,0,2.274.049,3.412.076.219,0,.439.01.659.017.687.021,1.375.04,2.063.069.276.013.552.046.828.07.17.014.342.03.514.042a1.892,1.892,0,0,1,.692.162.462.462,0,0,1,.136.1.117.117,0,0,1-.056.186.616.616,0,0,1-.169.019c-.362-.016-.725-.033-1.087-.054-.639-.039-1.277-.1-1.917-.119-1.107-.036-2.217-.047-3.324-.077-2.332-.063-4.665-.046-7-.029-1.634.013-3.269.024-4.9.043-1.3.016-2.6.04-3.9.064-.784.014-1.568.034-2.35.052l-2.666.063q-1.075.024-2.15.051c-.774.02-1.548.037-2.322.063q-1.547.049-3.094.114c-.411.017-.818.06-1.229.086-.276.019-.554.027-.831.034a.443.443,0,0,0-.269.076c-.506.375-1.024.735-1.523,1.12q-3.708,2.867-7.407,5.745c-1.106.867-2.18,1.772-3.269,2.661C77.678,481.146,77.6,481.223,77.517,481.295Z" transform="translate(-74.435 -469.692)" fill="#c2c2c2"/>
          <path id="Trazado_13407" data-name="Trazado 13407" d="M89.46,470.978a1.805,1.805,0,0,1-.525.554c-.5.362-1.01.725-1.519,1.08q-3.807,2.661-7.463,5.527-1.873,1.465-3.751,2.93c-.21.164-.408.345-.612.518a1.352,1.352,0,0,1-.11.092.145.145,0,0,1-.229-.139.456.456,0,0,1,.1-.2c.19-.2.383-.4.591-.582.295-.258.6-.5.908-.747,2.239-1.775,4.483-3.543,6.788-5.233,1.479-1.086,2.984-2.134,4.476-3.2.3-.216.6-.442.9-.668a.777.777,0,0,1,.33-.152,15.6,15.6,0,0,1,2.445-.278c.612-.019,1.222-.06,1.832-.093l.114-.006c.678-.024,1.356-.047,2.034-.074s1.356-.06,2.034-.092l.114,0,2.837-.074,3.469-.092c.21-.006.421-.009.631-.011,2.4-.03,4.8-.064,7.2-.086q2.91-.028,5.821-.026c1.109,0,2.217.039,3.326.063q.845.017,1.691.049c.735.027,1.471.06,2.2.094.459.021.917.046,1.375.076.381.026.761.06,1.143.089.342.026.685.052,1.029.073.429.027.858.047,1.287.074a2.274,2.274,0,0,1,.312.043c.122.024.193.094.2.176s-.064.163-.182.193a.862.862,0,0,1-.227.02c-.5-.024-.991-.053-1.488-.08l-.257-.017c-.554-.037-1.106-.076-1.659-.11q-.644-.041-1.287-.076c-.619-.031-1.24-.059-1.861-.087-.086,0-.172-.009-.257-.01-1.013-.026-2.026-.043-3.038-.076-2.666-.087-5.333-.04-8-.027-1.625.009-3.25.034-4.875.054-.823.01-1.644.026-2.466.041l-3.124.067c-.621.016-1.242.031-1.864.052-.83.027-1.661.06-2.492.092l-.172,0c-.9.026-1.8.049-2.7.079-1,.034-2,.076-3.007.114-.459.017-.917.031-1.376.051C89.894,470.948,89.683,470.964,89.46,470.978Z" transform="translate(-75.247 -469.918)" fill="#c2c2c2"/>
          <path id="Trazado_13408" data-name="Trazado 13408" d="M107.465,472.145c-2.349.016-4.319.027-6.288.043q-1.82.017-3.641.047-1.363.022-2.724.06c-.621.02-1.242.067-1.861.087-.994.033-1.986.119-2.981.06a.509.509,0,0,0-.363.127q-3.386,2.626-6.779,5.246-1.781,1.378-3.556,2.759a2.677,2.677,0,0,1-.237.16.109.109,0,0,1-.15-.031.1.1,0,0,1,.017-.13c.047-.047.1-.09.15-.133,1.585-1.369,3.213-2.682,4.864-3.97,1.342-1.047,2.679-2.1,4.027-3.137.392-.3.811-.572,1.217-.858a1.048,1.048,0,0,0,.223-.174.316.316,0,0,1,.268-.134c.315-.013.629-.03.944-.049.5-.03.991-.063,1.488-.094l1.059-.067c.3-.019.609-.042.916-.053.678-.026,1.356-.057,2.034-.069,1.845-.031,3.689-.049,5.535-.083,3.038-.056,6.078-.052,9.118-.021,1.224.013,2.448.039,3.671.06l3.154.053q1.663.03,3.324.061c.622.013,1.243.027,1.864.054.544.024,1.087.066,1.629.1a1,1,0,0,1,.223.046.131.131,0,0,1,.092.132.15.15,0,0,1-.082.142.634.634,0,0,1-.332.073q-.429-.009-.86-.024c-.143,0-.286-.02-.429-.023-.668-.02-1.338-.041-2.006-.053q-2.553-.043-5.1-.08l-3.842-.063C110.392,472.187,108.738,472.164,107.465,472.145Z" transform="translate(-73.689 -469.147)" fill="#c2c2c2"/>
          <path id="Trazado_13409" data-name="Trazado 13409" d="M116.926,470.909a.8.8,0,0,1-.133.489c-.109.169-.219.338-.34.5-.81,1.064-1.629,2.121-2.433,3.19-1.2,1.586-2.377,3.183-3.572,4.771-.678.9-1.369,1.792-2.056,2.686a2.511,2.511,0,0,1-.253.27.329.329,0,0,1-.126.064.157.157,0,0,1-.2-.149.449.449,0,0,1,.053-.187,3.23,3.23,0,0,1,.212-.306c1.259-1.671,2.526-3.336,3.774-5.014q2.071-2.783,4.2-5.516c.059-.074.116-.152.175-.226a1.441,1.441,0,0,0,.369-.792c.009-.116.084-.177.16-.166s.12.083.137.162a.585.585,0,0,1,.016.084C116.919,470.813,116.922,470.861,116.926,470.909Z" transform="translate(-61.228 -469.659)" fill="#c2c2c2"/>
          <path id="Trazado_13410" data-name="Trazado 13410" d="M105.959,482.216c-.01-.034-.033-.073-.023-.1a1.368,1.368,0,0,1,.11-.2,25.808,25.808,0,0,1,1.748-2.412c.433-.535.883-1.057,1.309-1.6.805-1.02,1.6-2.048,2.4-3.076.878-1.134,1.78-2.249,2.721-3.33a2.963,2.963,0,0,1,.488-.441.436.436,0,0,1,.1-.06.1.1,0,0,1,.13.026.188.188,0,0,1,.029.1.146.146,0,0,1-.03.08,4.1,4.1,0,0,1-.342.526c-1.442,1.661-2.774,3.41-4.114,5.153-.81,1.053-1.661,2.074-2.51,3.094-.489.588-.967,1.184-1.448,1.78A1.146,1.146,0,0,1,105.959,482.216Z" transform="translate(-62.037 -469.455)" fill="#c2c2c2"/>
          <path id="Trazado_13411" data-name="Trazado 13411" d="M86.4,472.131c-.26-.237-.3-.439-.159-.682a.131.131,0,0,1,.092-.041c.016,0,.046.037.049.06a1.721,1.721,0,0,1,.017.227C86.4,471.826,86.4,471.958,86.4,472.131Z" transform="translate(-70.551 -469.277)" fill="#c2c2c2"/>
          <path id="Trazado_13412" data-name="Trazado 13412" d="M117.236,479.927l-3.3-.113-3.409-.117q-1.734-.058-3.468-.112-1.262-.036-2.522-.063-1.378-.028-2.752-.05-2.051-.034-4.1-.066l-2.724-.049-3.671-.066-2.522-.049q-1.764-.034-3.526-.07c-.5-.01-.994-.027-1.491-.049-.964-.041-1.928-.09-2.891-.136l-.172-.01c-.535-.031-1.069-.062-1.6-.094l-1.6-.1c-.086,0-.172-.011-.257-.014s-.166,0-.239,0c-.017.037-.031.053-.031.07-.02.286-.04.572-.054.858-.007.143,0,.286,0,.431a.227.227,0,0,0,.086.2.8.8,0,0,1,.09.1,13.38,13.38,0,0,0,1.612.109c1.011.054,2.024.083,3.035.122q1.562.056,3.123.112c.707.023,1.415.042,2.121.063.574.017,1.146.034,1.719.049.86.023,1.719.05,2.579.064q1.693.03,3.383.046,3.873.032,7.743.059c2.7.023,5.409.019,8.114.12,1.146.043,2.293.056,3.439.064,1.378.01,2.754,0,4.163,0l.027-.029v-.652c-.116-.174-.077-.388-.123-.585C117.748,479.955,117.492,479.937,117.236,479.927Z" transform="translate(-74.534 -466.108)" fill="#ededed"/>
          <path id="Trazado_13413" data-name="Trazado 13413" d="M106.819,479.633c-.133-.006-.276-.014-.418-.014a1.6,1.6,0,0,0-.465.017c-.013.112-.024.215-.039.318a.425.425,0,0,1-.132.285.337.337,0,0,1-.034-.044v.652q.53-.539,1.056-1.079C106.819,479.735,106.861,479.7,106.819,479.633Z" transform="translate(-62.124 -465.745)" fill="#e0e0e0"/>
        </g>
        <path id="Trazado_13414" data-name="Trazado 13414" d="M160.611,469.354l-9.934,15.316-76.157-2.764,15.9-12.212Z" transform="translate(-74.519 -469.354)" fill="#979793"/>
      </g>
      <g id="woman_clean_dish" data-name="woman clean dish" transform="translate(103.392 95.224)">
        <g id="Grupo_4570" data-name="Grupo 4570" transform="translate(28.962)">
          <path id="Trazado_13415" data-name="Trazado 13415" d="M94.568,488.215a.227.227,0,0,1,.233.063,1.888,1.888,0,0,0,1.054.423c.123.017.245.04.368.059q4.459.7,8.9,1.486c2.679.481,5.364.93,8.046,1.395a4.033,4.033,0,0,1,.473.1.559.559,0,0,1,.217.132.2.2,0,0,1,.014.259,2.869,2.869,0,0,0,.588.049.187.187,0,0,1,.024-.07,1.621,1.621,0,0,1,.225-.295q.865-.878,1.737-1.745,1.2-1.2,2.4-2.4c.044-.044.087-.089.13-.133.7-.71,1.393-1.42,2.1-2.126.788-.794,1.584-1.581,2.376-2.372.044-.043.087-.089.132-.133q1.006-1.021,2.016-2.046.787-.794,1.582-1.582,1.139-1.131,2.284-2.254,1.345-1.318,2.7-2.628,1.886-1.832,3.776-3.663,1.3-1.26,2.592-2.523,1.766-1.719,3.529-3.435l2.243-2.19c1.147-1.121,2.3-2.237,3.443-3.363.655-.645,1.3-1.3,1.945-1.957l.052-.054c.481-.5.958-1.01,1.442-1.512.526-.545,1.059-1.086,1.588-1.628.044-.044.086-.092.127-.136.471-.5.944-.99,1.41-1.491.534-.572,1.063-1.15,1.591-1.728.126-.137.247-.279.362-.425a.719.719,0,0,0,.152-.252.227.227,0,0,1,.292-.192l.019.039a.6.6,0,0,0,.059-.618.194.194,0,0,1-.124.066c-.061.009-.124.01-.186.013-.348.017-.7.023-1.043.054-2.056.183-4.111.376-6.167.561q-6.021.543-12,1.406c-.8.116-1.6.222-2.4.328a2.333,2.333,0,0,1-.993-.057c-.225.186-.438.358-.644.536-.452.389-.9.784-1.35,1.176-.986.857-1.974,1.709-2.955,2.571-.878.771-1.749,1.551-2.625,2.326l-.167.149c-.815.711-1.634,1.419-2.446,2.134q-.91.8-1.812,1.611-1.513,1.358-3.024,2.719-1.191,1.075-2.376,2.157c-1.559,1.428-3.124,2.851-4.672,4.291-2.541,2.363-5.111,4.693-7.564,7.151-.93.934-1.875,1.852-2.814,2.778-.08.079-.157.16-.236.24-.562.579-1.127,1.159-1.687,1.741-.388.4-.772.811-1.154,1.219-.494.525-.984,1.054-1.476,1.581-.076.083-.152.166-.229.246-.445.468-.891.937-1.34,1.4a1.065,1.065,0,0,1-.232.183.27.27,0,0,1-.345-.02l-.011-.017A.746.746,0,0,0,94.568,488.215Zm3.134-1.5a.246.246,0,0,1-.066-.124.105.105,0,0,1,.029-.09.264.264,0,0,1-.067-.14.145.145,0,0,1-.119-.137.615.615,0,0,1,.041-.215,2.485,2.485,0,0,1,.514-.77c.153-.163.3-.332.451-.5.24-.268.472-.545.724-.8.627-.639,1.262-1.27,1.894-1.9q.3-.3.611-.6c1.054-1.039,2.093-2.093,3.169-3.11,1.807-1.709,3.633-3.4,5.459-5.088,2.937-2.722,5.865-5.454,8.868-8.105,1.129-1,2.24-2.01,3.36-3.015l.139-.125,3.1-2.742,2.32-2.051c.037-.033.074-.066.113-.1.8-.658,1.6-1.31,2.383-1.975.522-.442,1.077-.841,1.631-1.242.28-.2.554-.422.821-.642a1.253,1.253,0,0,1,.6-.286c.246-.042.491-.089.738-.115q1.3-.137,2.6-.26Q142,452.1,147,451.62c1.845-.176,3.694-.315,5.547-.348.385-.006.771,0,1.156.017a1.746,1.746,0,0,1,.436.086.19.19,0,0,1,.113.273,3.278,3.278,0,0,1-.465.76c-.423.472-.847.944-1.277,1.409-.415.446-.84.884-1.262,1.322-.569.591-1.132,1.19-1.715,1.767-1.555,1.541-3.121,3.07-4.682,4.6l-2.071,2.044q-1.182,1.165-2.367,2.329-1.358,1.33-2.725,2.656-1.847,1.794-3.7,3.582l-3.515,3.4q-1.878,1.817-3.754,3.632-2.9,2.8-5.812,5.583c-.378.363-.751.728-1.119,1.1-.657.662-1.3,1.339-1.965,1.991-.3.293-.647.542-.976.807a.343.343,0,0,1-.169.073.235.235,0,0,1-.143-.027,1.067,1.067,0,0,1-.529.4l.043.019c.031.013.043.072.066.113a1.479,1.479,0,0,1-.933.073c-.986-.136-1.971-.276-2.958-.4-1.715-.212-3.43-.422-5.138-.7-2.822-.458-5.643-.931-8.491-1.222a5.4,5.4,0,0,1-.794-.2A.2.2,0,0,1,97.7,486.717Z" transform="translate(-94.458 -448.868)" fill="#fff"/>
          <path id="Trazado_13416" data-name="Trazado 13416" d="M96.686,485.032a.132.132,0,0,0,.1-.011.814.814,0,0,0,.179-.132c.329-.339.658-.678.981-1.021.572-.607,1.126-1.229,1.714-1.82,1.017-1.021,2.06-2.018,3.084-3.034,2.156-2.139,4.383-4.2,6.61-6.261q2.343-2.165,4.689-4.326,1.871-1.714,3.756-3.413,1.133-1.026,2.276-2.044,1.29-1.159,2.583-2.316,1.043-.933,2.086-1.865c.751-.671,1.5-1.345,2.257-2.01q1.513-1.33,3.037-2.648c.4-.349.831-.671,1.243-1.011.278-.23.549-.468.818-.708.019-.016.036-.031.054-.046l.3.343-.021.016c-.016.013-.01.074.007.1a2.24,2.24,0,0,0,.186.232c.114.127.235.25.388.413,0-.039,0-.076.006-.112l.23.266a.449.449,0,0,0-.2.107c-.31.269-.625.532-.94.8-.5.413-1,.823-1.495,1.235q-.532.44-1.063.881c-.306.253-.617.5-.917.764-.667.579-1.336,1.154-1.99,1.748-1.778,1.614-3.543,3.24-5.323,4.851-2.934,2.655-5.812,5.367-8.669,8.1-1.15,1.1-2.287,2.216-3.429,3.324q-1.472,1.429-2.944,2.861-1.551,1.509-3.1,3.021c-.578.565-1.154,1.132-1.719,1.711-.494.506-.971,1.03-1.453,1.551a1.307,1.307,0,0,0-.169.242.168.168,0,0,0,.03.206.2.2,0,0,0,.059.047l-.2.22q-.953-.118-1.905-.215a3.9,3.9,0,0,0-.857.016.492.492,0,0,0-.145.03.185.185,0,0,0-.072.05A.264.264,0,0,1,96.686,485.032Z" transform="translate(-93.547 -447.537)" fill="#d6d6d6"/>
          <path id="Trazado_13417" data-name="Trazado 13417" d="M140.192,452.829a.133.133,0,0,0-.133-.109c-.087,0-.175,0-.262.007-2.721.114-5.437.319-8.149.568-2.2.2-4.409.4-6.613.612-.642.063-1.279.179-1.92.269a1.244,1.244,0,0,1-.368.033.417.417,0,0,0-.175,0l-.23-.266a.6.6,0,0,0-.463-.675.145.145,0,0,0-.1.027l-.3-.343a.514.514,0,0,1,.268-.123c.815-.1,1.628-.215,2.445-.293,4.047-.392,8.094-.785,12.143-1.15,1.821-.164,3.646-.262,5.47-.388.144-.01.29-.009.431-.011.03.126-.042.185-.1.247-.176.193-.349.388-.532.575q-.476.489-.957.977l-.456.05Z" transform="translate(-82.873 -448.129)" fill="#ccc"/>
          <path id="Trazado_13418" data-name="Trazado 13418" d="M99.011,485.12a.2.2,0,0,0,.143.016.825.825,0,0,0,.381-.228q.4-.39.794-.788c.132-.132.255-.273.386-.4.618-.614,1.233-1.23,1.857-1.837q2.382-2.315,4.769-4.623,1.8-1.74,3.589-3.482c1.545-1.5,3.093-2.993,4.284-4.143,2.243-2.078,4.12-3.824,6-5.562q1.74-1.607,3.495-3.2c.875-.794,1.752-1.586,2.638-2.367.607-.535,1.236-1.043,1.842-1.576.971-.854,1.99-1.657,2.88-2.6a.662.662,0,0,1,.459-.2q5.551-.526,11.1-1.064c1.943-.186,3.888-.365,5.831-.549a3.244,3.244,0,0,0,.368-.06.141.141,0,0,0,.116-.152l.456-.05c-.246.252-.495.5-.744.751q-1.558,1.553-3.128,3.1c-.745.731-1.508,1.446-2.257,2.174q-1.674,1.624-3.337,3.257c-.677.661-1.346,1.328-2.023,1.987q-1.708,1.669-3.422,3.332-1.487,1.442-2.978,2.88-2.686,2.588-5.377,5.174-1.895,1.824-3.789,3.649c-1.579,1.516-3.163,3.027-4.736,4.549-.761.734-1.515,1.475-2.252,2.233a14.074,14.074,0,0,0-1.116,1.2c-.1.127-.227.23-.335.352a2.089,2.089,0,0,0-.245.326.18.18,0,0,0,.019.167.069.069,0,0,0,.023.017,1.067,1.067,0,0,1-.529.4,2.3,2.3,0,0,0-.239-.073,33.492,33.492,0,0,0-3.808-.731c-.887-.122-1.778-.216-2.662-.349-1.674-.25-3.343-.515-5.014-.781q-1.815-.292-3.641-.521Z" transform="translate(-92.63 -447.587)" fill="#c2c2c2"/>
          <path id="Trazado_13419" data-name="Trazado 13419" d="M109.7,491.5c-.185.166-.365.338-.555.5a2.379,2.379,0,0,1-.335.235.218.218,0,0,1-.27-.057.2.2,0,0,1-.034-.242,1.621,1.621,0,0,1,.225-.295q.865-.878,1.737-1.745,1.2-1.2,2.4-2.4c.044-.044.087-.089.13-.133.7-.71,1.393-1.42,2.1-2.126.788-.794,1.584-1.581,2.376-2.372.044-.043.087-.089.132-.133q1.006-1.021,2.016-2.046.787-.794,1.582-1.582,1.139-1.131,2.284-2.254,1.345-1.318,2.7-2.628,1.886-1.832,3.776-3.663,1.3-1.26,2.592-2.523,1.766-1.719,3.529-3.435l2.243-2.19c1.147-1.121,2.3-2.237,3.443-3.363.655-.645,1.3-1.3,1.945-1.957l.052-.054c.481-.5.958-1.01,1.442-1.512.526-.545,1.059-1.086,1.588-1.628.044-.044.086-.092.127-.136.471-.5.944-.99,1.41-1.491.534-.572,1.063-1.15,1.591-1.728.126-.137.247-.279.362-.425a.719.719,0,0,0,.152-.252.227.227,0,0,1,.292-.192.591.591,0,0,1-.083.667c-.036.05-.07.1-.109.15-.22.286-.445.566-.659.855a.793.793,0,0,0-.207.338c.16.116.318.219.461.336a5.655,5.655,0,0,1,.805.72.663.663,0,0,1,.209.675.132.132,0,0,0,0,.074.663.663,0,0,1-.175.585c-.226.3-.456.589-.705.867-.356.4-.728.781-1.1,1.167-.515.541-1.029,1.081-1.549,1.615-.6.615-1.2,1.223-1.807,1.834-.044.044-.086.09-.13.134-.625.641-1.243,1.287-1.875,1.921-.924.923-1.857,1.837-2.785,2.754l-.185.186c-.89.887-1.771,1.781-2.671,2.658q-1.91,1.86-3.842,3.7-3.534,3.375-7.075,6.745-1.633,1.558-3.272,3.111c-.485.464-.97.928-1.448,1.4-.957.943-1.907,1.893-2.862,2.837-.681.672-1.362,1.346-2.054,2.007q-2.068,1.965-4.151,3.918a1.711,1.711,0,0,1-.225.2,1.489,1.489,0,0,1-.7.316,12.833,12.833,0,0,1-2.709-.044C109.773,491.442,109.733,491.471,109.7,491.5Zm6.812-4.236c1.08-1.03,2.157-2.064,3.206-3.126,2.475-2.5,5.044-4.911,7.589-7.341q3.643-3.48,7.291-6.954,1.592-1.521,3.169-3.057c.8-.78,1.6-1.571,2.39-2.359q.8-.787,1.588-1.578c.651-.649,1.3-1.3,1.954-1.95q1.436-1.442,2.864-2.888c.926-.937,1.861-1.867,2.772-2.819a17.221,17.221,0,0,0,1.43-1.538,1.165,1.165,0,0,1,0-.173.3.3,0,0,0-.1-.268c-.13-.134-.252-.276-.386-.406-.268-.259-.542-.512-.814-.767a.412.412,0,0,0-.093-.037c-.07.063-.152.134-.229.21s-.154.162-.232.243q-.715.762-1.429,1.522l-1.435,1.518c-.051.054-.1.109-.154.162q-1.309,1.354-2.622,2.705-.676.7-1.369,1.373-1.639,1.607-3.283,3.209l-2.35,2.292-3.422,3.333q-1.27,1.236-2.541,2.472l-3.829,3.715q-1.285,1.249-2.566,2.5-1.172,1.148-2.336,2.306-1.6,1.594-3.19,3.2-1.566,1.573-3.13,3.147-1.513,1.521-3.024,3.044c-.236.237-.461.484-.7.74.144.246.4.423.412.737a.553.553,0,0,1-.378-.153c-.106-.084-.209-.173-.322-.266a2.117,2.117,0,0,0-.455.4c-.134.127-.262.263-.385.386.024.1.092.1.15.1l2.013.087C113.9,489.723,115.211,488.5,116.507,487.268Z" transform="translate(-88.472 -448.695)" fill="#c2c2c2"/>
          <path id="Trazado_13420" data-name="Trazado 13420" d="M152.946,451.129c.03.126-.042.185-.1.247-.176.193-.349.388-.532.575-.564.578-1.129,1.157-1.7,1.728q-1.558,1.553-3.128,3.1c-.745.731-1.508,1.446-2.257,2.174q-1.674,1.624-3.337,3.257c-.677.661-1.346,1.328-2.023,1.987q-1.708,1.669-3.422,3.332-1.487,1.442-2.978,2.88-2.686,2.588-5.377,5.174Q126.2,477.4,124.3,479.23c-1.579,1.516-3.163,3.027-4.736,4.549-.761.734-1.515,1.475-2.252,2.233a14.074,14.074,0,0,0-1.116,1.2c-.1.127-.227.23-.335.352a2.089,2.089,0,0,0-.245.326.18.18,0,0,0,.019.167.218.218,0,0,0,.166.044.343.343,0,0,0,.169-.073c.329-.265.675-.514.976-.807.668-.652,1.309-1.329,1.965-1.991.368-.371.741-.735,1.119-1.1q2.9-2.792,5.812-5.583,1.882-1.811,3.754-3.632l3.515-3.4q1.85-1.789,3.7-3.582,1.367-1.326,2.725-2.656,1.187-1.161,2.367-2.329,1.036-1.021,2.071-2.044c1.561-1.535,3.127-3.064,4.682-4.6.584-.576,1.146-1.176,1.715-1.767.422-.438.847-.875,1.262-1.322.431-.464.854-.937,1.277-1.409a3.279,3.279,0,0,0,.465-.76.19.19,0,0,0-.113-.273,1.746,1.746,0,0,0-.436-.086c-.385-.016-.771-.023-1.156-.017-1.854.033-3.7.172-5.547.348q-4.993.478-9.988.958-1.3.124-2.6.26c-.247.026-.492.073-.738.115a1.254,1.254,0,0,0-.6.286c-.267.22-.541.438-.821.642-.554.4-1.109.8-1.631,1.242-.788.665-1.588,1.317-2.383,1.975-.039.031-.076.064-.113.1l-2.32,2.051-3.1,2.742-.139.125c-1.12,1.006-2.232,2.02-3.36,3.015-3,2.651-5.931,5.383-8.868,8.105-1.825,1.691-3.652,3.379-5.459,5.088-1.076,1.017-2.114,2.071-3.169,3.11q-.307.3-.611.6c-.632.634-1.267,1.265-1.894,1.9-.252.257-.483.535-.724.8-.15.166-.3.335-.451.5a2.485,2.485,0,0,0-.514.77.615.615,0,0,0-.041.215.151.151,0,0,0,.217.126.814.814,0,0,0,.179-.132c.329-.339.658-.678.981-1.021.572-.607,1.126-1.229,1.714-1.82,1.017-1.021,2.06-2.018,3.084-3.034,2.156-2.139,4.383-4.2,6.61-6.261q2.343-2.165,4.689-4.326,1.871-1.714,3.756-3.413,1.133-1.026,2.276-2.044,1.29-1.159,2.583-2.316,1.043-.933,2.086-1.865c.751-.671,1.5-1.345,2.257-2.01q1.513-1.33,3.037-2.648c.4-.349.831-.671,1.243-1.011.278-.23.549-.468.818-.708a.584.584,0,0,1,.322-.169c.815-.1,1.628-.215,2.445-.293,4.047-.392,8.094-.785,12.143-1.15,1.821-.164,3.646-.262,5.47-.388C152.659,451.131,152.805,451.132,152.946,451.129Z" transform="translate(-93.582 -448.267)" fill="#c2c2c2"/>
          <path id="Trazado_13421" data-name="Trazado 13421" d="M133.839,451.766a2.333,2.333,0,0,0,.993.057c.8-.106,1.6-.212,2.4-.328q5.982-.869,12-1.406c2.056-.186,4.111-.378,6.167-.561.346-.031.7-.037,1.043-.054.062,0,.124,0,.186-.013a.19.19,0,0,0,.093-.336.627.627,0,0,0-.27-.106c-.359-.019-.721-.039-1.08-.026-.509.019-1.019.059-1.526.1-3.7.31-7.408.632-11.1,1.083-2.369.289-4.732.634-7.1.95-.481.064-.963.116-1.445.166a.992.992,0,0,0-.449.15,20.176,20.176,0,0,0-2.566,1.915c-.6.525-1.213,1.03-1.821,1.543l-.113.1c-.665.579-1.329,1.162-2,1.74s-1.339,1.152-2.01,1.727l-.113.1-2.757,2.458-3.372,3c-.2.183-.408.366-.609.552q-3.452,3.163-6.9,6.328-2.783,2.568-5.543,5.163c-1.049.99-2.068,2.01-3.1,3.021q-.787.77-1.561,1.552-1.008,1.021-2.008,2.054-.622.642-1.235,1.3c-.339.363-.669.735-1.006,1.1-.3.33-.6.659-.911.986-.382.408-.771.811-1.154,1.219a2.915,2.915,0,0,0-.259.318.282.282,0,0,0-.03.345.27.27,0,0,0,.345.02,1.065,1.065,0,0,0,.232-.183c.449-.465.9-.934,1.34-1.4.077-.08.153-.163.229-.246.492-.526.983-1.056,1.476-1.581.382-.408.767-.815,1.154-1.219.559-.582,1.124-1.162,1.687-1.741.079-.08.156-.162.236-.24.938-.925,1.884-1.844,2.814-2.778,2.453-2.458,5.024-4.788,7.564-7.151,1.548-1.441,3.113-2.864,4.672-4.291q1.184-1.084,2.376-2.157,1.511-1.363,3.024-2.719.9-.809,1.812-1.611c.813-.715,1.631-1.423,2.446-2.134l.167-.149c.875-.775,1.747-1.555,2.625-2.326.981-.861,1.97-1.714,2.955-2.571.451-.392.9-.787,1.35-1.176C133.4,452.124,133.615,451.952,133.839,451.766Z" transform="translate(-94.426 -448.99)" fill="#c2c2c2"/>
          <path id="Trazado_13422" data-name="Trazado 13422" d="M115.189,469.652c2.243-2.078,4.12-3.824,6-5.562q1.74-1.607,3.495-3.2c.875-.794,1.752-1.586,2.638-2.367.607-.535,1.236-1.043,1.842-1.576.971-.854,1.99-1.657,2.88-2.6a.662.662,0,0,1,.459-.2q5.551-.526,11.1-1.064c1.943-.186,3.888-.365,5.831-.549a3.244,3.244,0,0,0,.368-.06.142.142,0,0,0,.116-.163.133.133,0,0,0-.133-.109c-.087,0-.175,0-.262.007-2.721.114-5.437.319-8.149.568-2.2.2-4.409.4-6.613.612-.642.063-1.279.179-1.92.269a1.244,1.244,0,0,1-.368.033.414.414,0,0,0-.372.112c-.31.269-.625.532-.94.8-.5.413-1,.823-1.495,1.235q-.532.44-1.063.881c-.306.253-.617.5-.917.764-.667.579-1.336,1.154-1.99,1.748-1.778,1.614-3.543,3.24-5.323,4.851-2.934,2.654-5.812,5.367-8.669,8.1-1.15,1.1-2.287,2.216-3.429,3.324q-1.472,1.429-2.944,2.861-1.551,1.509-3.1,3.021c-.578.565-1.154,1.132-1.719,1.711-.494.506-.971,1.03-1.453,1.551a1.307,1.307,0,0,0-.169.242.168.168,0,0,0,.03.206.2.2,0,0,0,.2.063.825.825,0,0,0,.381-.228q.4-.39.794-.788c.132-.132.255-.273.386-.4.618-.614,1.233-1.23,1.857-1.837q2.382-2.315,4.769-4.623,1.8-1.74,3.589-3.482C112.449,472.3,114,470.8,115.189,469.652Z" transform="translate(-92.605 -447.608)" fill="#c2c2c2"/>
          <path id="Trazado_13423" data-name="Trazado 13423" d="M94.723,477.065a1.022,1.022,0,0,0,.564.345c.252.064.506.126.764.169,1.715.288,3.435.561,5.15.857,2.548.441,5.091.9,7.639,1.345,1.445.25,2.894.481,4.342.717a3.169,3.169,0,0,0,.482.03.448.448,0,0,0,.177-.05.2.2,0,0,0,.054-.318.559.559,0,0,0-.217-.132,4.033,4.033,0,0,0-.473-.1c-2.682-.465-5.367-.914-8.046-1.395q-4.442-.8-8.9-1.486c-.123-.019-.245-.042-.368-.059a1.888,1.888,0,0,1-1.054-.423.2.2,0,0,0-.3-.014.226.226,0,0,0,.013.276c.019.031.039.064.06.094C94.644,476.967,94.684,477.016,94.723,477.065Z" transform="translate(-94.491 -437.153)" fill="#c2c2c2"/>
          <path id="Trazado_13424" data-name="Trazado 13424" d="M115.192,478.038c-.023-.041-.034-.1-.066-.113a1.712,1.712,0,0,0-.282-.092,33.492,33.492,0,0,0-3.808-.731c-.887-.122-1.778-.216-2.662-.349-1.674-.25-3.343-.515-5.014-.781-1.842-.295-3.689-.549-5.546-.735a3.9,3.9,0,0,0-.857.016.492.492,0,0,0-.145.03.136.136,0,0,0-.1.14.246.246,0,0,0,.066.124.2.2,0,0,0,.1.049,5.4,5.4,0,0,0,.794.2c2.848.29,5.669.764,8.491,1.222,1.708.278,3.423.488,5.138.7.987.122,1.973.262,2.958.4A1.479,1.479,0,0,0,115.192,478.038Z" transform="translate(-93.535 -437.698)" fill="#c2c2c2"/>
          <path id="Trazado_13425" data-name="Trazado 13425" d="M122.257,453.373c.036-.456-.106-.682-.458-.787a.163.163,0,0,0-.123.043c-.016.013-.01.074.007.1a2.24,2.24,0,0,0,.186.232C121.983,453.087,122.1,453.21,122.257,453.373Z" transform="translate(-82.793 -447.443)" fill="#c2c2c2"/>
          <path id="Trazado_13426" data-name="Trazado 13426" d="M111.311,488.251q1.508-1.523,3.024-3.044,1.564-1.573,3.13-3.147,1.594-1.6,3.19-3.2,1.163-1.159,2.336-2.306,1.279-1.253,2.566-2.5l3.829-3.715q1.272-1.236,2.541-2.472l3.422-3.333,2.35-2.292q1.641-1.6,3.283-3.209.691-.678,1.369-1.373,1.315-1.348,2.622-2.705c.053-.053.1-.107.154-.162l1.435-1.518q.717-.76,1.429-1.522c.077-.082.152-.166.232-.243s.159-.147.229-.21a.412.412,0,0,1,.093.037c.272.255.546.508.814.767.134.13.256.272.386.406a.3.3,0,0,1,.1.268,1.165,1.165,0,0,0,0,.173,17.221,17.221,0,0,1-1.43,1.538c-.911.953-1.847,1.883-2.772,2.819q-1.431,1.446-2.864,2.888c-.649.652-1.3,1.3-1.954,1.95q-.794.79-1.588,1.578c-.8.788-1.588,1.579-2.39,2.359q-1.577,1.536-3.169,3.057-3.643,3.48-7.291,6.954c-2.545,2.43-5.114,4.836-7.589,7.341-1.049,1.061-2.126,2.1-3.206,3.126-1.3,1.236-2.609,2.455-3.947,3.711l-.05,0-.581-.619c-.047-.269-.273-.438-.4-.664C110.85,488.735,111.075,488.489,111.311,488.251Z" transform="translate(-87.554 -447.993)" fill="#ededed"/>
          <path id="Trazado_13427" data-name="Trazado 13427" d="M109.819,478.654c.123-.123.25-.259.385-.386a2.117,2.117,0,0,1,.455-.4c.113.093.216.182.322.266a.553.553,0,0,0,.378.153.574.574,0,0,0-.007-.073l.581.619q-.983-.041-1.963-.084C109.911,478.752,109.843,478.758,109.819,478.654Z" transform="translate(-87.893 -436.557)" fill="#e0e0e0"/>
        </g>
        <g id="Grupo_4571" data-name="Grupo 4571" transform="translate(0 41.07)">
          <path id="Trazado_13428" data-name="Trazado 13428" d="M76.126,482.445h82.5a2.176,2.176,0,0,0,1.881-2.372h0a2.176,2.176,0,0,0-1.881-2.372h-82.5a2.176,2.176,0,0,0-1.881,2.372h0A2.176,2.176,0,0,0,76.126,482.445Z" transform="translate(-74.245 -477.701)" fill="#514f78"/>
        </g>
      </g>
      <g id="Grupo_4574" data-name="Grupo 4574" transform="translate(69.967 50.29)">
        <g id="Grupo_4572" data-name="Grupo 4572">
          <path id="Trazado_13429" data-name="Trazado 13429" d="M77.143,424.888l-.569,1.828a1.117,1.117,0,0,1-1.408.712l-1.867-.574a1.111,1.111,0,0,1-.758-1.379l.568-1.828a1.119,1.119,0,0,1,1.409-.712l1.867.574A1.112,1.112,0,0,1,77.143,424.888Z" transform="translate(-41.574 -415.295)" fill="#ca2d78"/>
          <rect id="Rectángulo_1362" data-name="Rectángulo 1362" width="6.207" height="2.771" rx="0.969" transform="translate(31.362 8.981) rotate(-72.749)" fill="#ca2d78"/>
          <path id="Trazado_13430" data-name="Trazado 13430" d="M81.23,428.852,77.664,430.3a1.942,1.942,0,0,1-2.531-1.071l-1.352-3.333a1.944,1.944,0,0,1,1.071-2.531l5.886-2.541a1.946,1.946,0,0,1,2.532,1.071l-.4,4.572C82.521,427.94,82.226,428.448,81.23,428.852Z" transform="translate(-41.08 -416.244)" fill="#ca2d78"/>
          <path id="Trazado_13431" data-name="Trazado 13431" d="M83.618,427.521a63.121,63.121,0,0,1-2.842,9.563.011.011,0,0,0-.011.011,86.23,86.23,0,0,1-5.09,11.006s-6.522,7.944-11.238,9.916-6.324-1.664-6.544-4.771c-.275-4.121,2.92-4.815,4.859-5.785,1.565-.781,3.911-2.325,7.007-4.319.717-.473,1.488-.958,2.292-1.476.914-2.192,7.514-16.536,7.514-16.536S82.638,425.152,83.618,427.521Z" transform="translate(-47.867 -414.327)" fill="#f0d1b1"/>
          <path id="Trazado_13432" data-name="Trazado 13432" d="M71.323,430.781s4.1.647,5.131,2.462l-.112.352s.293.252.452-.262,1.159-5.789,1.159-5.789-1.094-2.994-4.048-2.392c-1.256,2.024-2.712,5.1-2.872,5.379C71.033,430.531,70.991,430.72,71.323,430.781Z" transform="translate(-42.203 -414.353)" fill="#ca2d78"/>
          <path id="Trazado_13433" data-name="Trazado 13433" d="M62.035,489.127l11.305.369-6.756-18.133S62.121,485.762,62.035,489.127Z" transform="translate(-46.076 -394.425)" fill="#4e8a81"/>
          <path id="Trazado_13434" data-name="Trazado 13434" d="M65.779,515.9c-1.542.82-8.056.472-10.032.039a15.788,15.788,0,0,1-4.626-.087c-.79-1.04.578-4.741.887-5.4a.207.207,0,0,0,.049-.087.069.069,0,0,1,.019-.039c.2-.627.877-6.746.877-6.746s4.423-.336,5.31,3.884a8.972,8.972,0,0,0,1.31,3.257,5.974,5.974,0,0,0,3.3,2.38C64.15,513.541,65.356,513.964,65.779,515.9Z" transform="translate(-50.879 -380.557)" fill="#f0d1b1"/>
          <path id="Trazado_13435" data-name="Trazado 13435" d="M65.779,513.954c-1.542.82-8.056.472-10.032.039a15.787,15.787,0,0,1-4.626-.087c-.79-1.04.578-4.741.887-5.4a.207.207,0,0,0,.049-.087.069.069,0,0,1,.019-.039c.27-.366,2.775-.607,4.018.81,1.282,1.455,3.19,1.485,3.479-.415a5.974,5.974,0,0,0,3.3,2.38C64.15,511.594,65.356,512.017,65.779,513.954Z" transform="translate(-50.879 -378.609)" fill="#2e2f68"/>
          <path id="Trazado_13436" data-name="Trazado 13436" d="M77.532,516.021c-1.542.82-8.056.472-10.032.039a15.789,15.789,0,0,1-4.626-.087c-.791-1.04.578-4.741.887-5.4a.2.2,0,0,0,.047-.087.072.072,0,0,1,.02-.039c.2-.627.877-6.746.877-6.746s4.423-.338,5.31,3.884a8.973,8.973,0,0,0,1.31,3.257,5.981,5.981,0,0,0,3.3,2.38C75.9,513.66,77.107,514.085,77.532,516.021Z" transform="translate(-45.819 -380.505)" fill="#f0d1b1"/>
          <path id="Trazado_13437" data-name="Trazado 13437" d="M75.33,418.746a1.264,1.264,0,1,1-1.585-1.133A1.391,1.391,0,0,1,75.33,418.746Z" transform="translate(-41.411 -417.579)" fill="#aaa8d1"/>
          <path id="Trazado_13438" data-name="Trazado 13438" d="M83.721,424.3,83.1,426.31a1.188,1.188,0,0,1-1.439.86l-1.911-.6a1.193,1.193,0,0,1-.7-1.529l.625-2.007a1.188,1.188,0,0,1,1.439-.86l1.911.6A1.193,1.193,0,0,1,83.721,424.3Z" transform="translate(-38.779 -415.621)" fill="#ca2d78"/>
          <rect id="Rectángulo_1363" data-name="Rectángulo 1363" width="6.207" height="2.771" rx="0.969" transform="translate(40.628 8.369) rotate(-72.749)" fill="#ca2d78"/>
          <path id="Trazado_13439" data-name="Trazado 13439" d="M87.71,428.423l-3.568,1.445a1.942,1.942,0,0,1-2.531-1.071l-1.35-3.333a1.942,1.942,0,0,1,1.071-2.531l5.885-2.539a1.943,1.943,0,0,1,2.532,1.071l-.395,4.57C89,427.512,88.7,428.02,87.71,428.423Z" transform="translate(-38.292 -416.428)" fill="#ca2d78"/>
          <path id="Trazado_13440" data-name="Trazado 13440" d="M57.819,468.484s.609,16.574,0,21.888c-2.847,5.453-4.716,10.973-5.635,32.558a7.48,7.48,0,0,0,6.343.395s5.165-21.09,7.563-28.221,5.921-25.528,5.836-27.377S57.819,468.484,57.819,468.484Z" transform="translate(-50.317 -396.276)" fill="#2e2f68"/>
          <path id="Trazado_13441" data-name="Trazado 13441" d="M69.711,471.6c-.607,3.576-1.657,8.943-2.794,13.887-1.9-7.025-7.2-11.892-10.611-14.408-.106-1.628-.183-2.669-.183-2.669s4.164-.78,7.971-1.184C66.242,468.9,68.266,470.487,69.711,471.6Z" transform="translate(-48.621 -396.204)" fill="#1c1a40"/>
          <path id="Trazado_13442" data-name="Trazado 13442" d="M57.8,461.049s-2.593,8.438-1.443,10.721,5.326,2.109,8.776,2.641c4.6,6.276,4.6,20.68,4.6,20.68s-1.745,2.9-2.226,15.64c-.339,8.971-.741,15.183-.741,15.183s5.313,1.15,6.75,0c-.093-1.207,6-28.274,6.234-32.014,1.006-16.389-2.948-32.814-2.948-32.814Z" transform="translate(-48.646 -398.865)" fill="#2e2f68"/>
          <path id="Trazado_13443" data-name="Trazado 13443" d="M69.051,439.54a1.727,1.727,0,0,1-.318,1.086c-1.235,1.81-5.759,1.828-5.759,1.828a36.888,36.888,0,0,1-1.835-7.366c-.438-3.581-.029-7.212,3.286-7.653C64.424,427.435,68.516,434.336,69.051,439.54Z" transform="translate(-46.524 -413.336)" fill="#f0d1b1"/>
          <path id="Trazado_13444" data-name="Trazado 13444" d="M80.764,433.495a86.23,86.23,0,0,1-5.09,11.006s-6.522,7.944-11.238,9.916-6.324-1.664-6.544-4.771c-.275-4.121,2.92-4.815,4.859-5.785,1.565-.781,3.911-2.325,7.007-4.319A17.218,17.218,0,0,0,80.764,433.495Z" transform="translate(-47.867 -410.727)" fill="#cc9f7c"/>
          <path id="Trazado_13445" data-name="Trazado 13445" d="M68.689,438.322c-1.235,1.81-5.759,1.828-5.759,1.828a36.888,36.888,0,0,1-1.835-7.366l2.775.933C63.937,433.872,65.166,438.231,68.689,438.322Z" transform="translate(-46.481 -411.033)" fill="#cc9f7c"/>
          <path id="Trazado_13446" data-name="Trazado 13446" d="M57.8,436.607l.528,2.528s2.325,5.27-.466,9.2a99.9,99.9,0,0,0,12.723-2.553s-3.928-2.519-5.2-9.481S57.8,436.607,57.8,436.607Z" transform="translate(-47.899 -410.819)" fill="#f0d1b1"/>
          <path id="Trazado_13447" data-name="Trazado 13447" d="M60.567,443.851a8.425,8.425,0,0,1,5.145-1.714c.88-1.722,2.908-4.825,2.06-7.673-.275-2.064,1.493.781,1.609,2.024.481-.212.167-3.609-1.9-6.929,1.054-.349.98.661.98.661s1.481-2.978-3.714-4c-5.459-1.167-8.852,1.905-10.474,5.148-1.037,2.071-.392,4.709,1.677,7.632C57.125,440.651,59.513,442.548,60.567,443.851Z" transform="translate(-49.625 -413.969)" fill="#2e2f68"/>
          <path id="Trazado_13448" data-name="Trazado 13448" d="M78.159,460.415c-.066.926-.11,1.807-.166,2.622-.242,4.419-.263,7.217-.263,7.217-2.315.914-19.655-.1-19.655-.1s1.685-7.636.373-10.092c-1.4-2.611-7.117-11.095-3.15-14.9,5.409-5.178,16.162-6.268,19.588-4.836s2.877,5.233,2.877,5.233.087.618.186,1.708A85.553,85.553,0,0,1,78.159,460.415Z" transform="translate(-49.569 -408.033)" fill="#e6ac4b"/>
          <path id="Trazado_13449" data-name="Trazado 13449" d="M72.828,459.876c-.066.926-.11,1.807-.166,2.622-.077-.164-.164-.33-.263-.518-7-13.594-6.05-19.985-6.05-19.985L70.227,441c.607.177,1.509,2.535,2.39,5.729A85.553,85.553,0,0,1,72.828,459.876Z" transform="translate(-44.237 -407.494)" fill="#c89135"/>
          <path id="Trazado_13450" data-name="Trazado 13450" d="M89.572,426.959a55.788,55.788,0,0,1-5.783,18.266,66.691,66.691,0,0,1-5.256,6.346,21.856,21.856,0,0,1-5.277,4.32c-4.572,2.28-6.423-1.223-6.853-4.309-.572-4.1,2.579-5,4.44-6.1.574-.34,1.256-.792,2.038-1.355,1.752-1.245,4.033-3,6.842-5.078.76-2.237,5.64-14.19,5.64-14.19S88.426,424.668,89.572,426.959Z" transform="translate(-44.225 -414.448)" fill="#f0d1b1"/>
          <path id="Trazado_13451" data-name="Trazado 13451" d="M77.532,514.074c-1.542.82-8.056.472-10.032.039a15.792,15.792,0,0,1-4.626-.087c-.791-1.04.578-4.741.887-5.4a.2.2,0,0,0,.047-.087.072.072,0,0,1,.02-.039c.27-.366,2.775-.607,4.018.81,1.282,1.455,3.19,1.483,3.479-.415a5.981,5.981,0,0,0,3.3,2.38C75.9,511.712,77.107,512.137,77.532,514.074Z" transform="translate(-45.819 -378.558)" fill="#2e2f68"/>
          <path id="Trazado_13452" data-name="Trazado 13452" d="M77.74,431.817s3.848-.322,5.6,1.96a2.366,2.366,0,0,1-.07.466s.322.056.441-.425,1.043-6.835,1.043-6.835-1.443-2.712-4.2-2.107c-.944,1.711-2.878,6.369-3,6.566S77.74,431.817,77.74,431.817Z" transform="translate(-39.408 -414.475)" fill="#ca2d78"/>
          <path id="Trazado_13453" data-name="Trazado 13453" d="M58.657,458.8l-1.5,3.163-1.089,6.068a45.406,45.406,0,0,0,22.2,1.039c-1.392-7.234-1.456-7.011-1.456-7.011Z" transform="translate(-48.646 -399.835)" fill="#e6ac4b"/>
          <path id="Trazado_13454" data-name="Trazado 13454" d="M58.587,442.143a28.179,28.179,0,0,1,9.481-2.066l-.918-.873a11.6,11.6,0,0,0-8.258,1.728A2.429,2.429,0,0,0,58.587,442.143Z" transform="translate(-47.561 -408.34)" fill="#5da39a"/>
          <path id="Trazado_13455" data-name="Trazado 13455" d="M71.4,457.24s-.734,3.516-2.346,4.266a1.66,1.66,0,0,1,.519,1.6,69.379,69.379,0,0,1,2.9,19.862c-.177,10.32-.339,12.966.007,13.319s1.851.441,1.851.441a123.6,123.6,0,0,0-1.242-26.764C72.469,466.478,71.4,457.24,71.4,457.24Z" transform="translate(-43.057 -400.505)" fill="#5da39a"/>
          <path id="Trazado_13456" data-name="Trazado 13456" d="M56.827,461.581a24.223,24.223,0,0,0,19.651.1l-1.762-1.27s-10.63,3.147-17.529-.731Z" transform="translate(-48.318 -399.456)" fill="#5da39a"/>
          <path id="Trazado_13457" data-name="Trazado 13457" d="M78.533,445.771a21.856,21.856,0,0,1-5.277,4.32c-4.572,2.28-6.423-1.223-6.853-4.309-.572-4.1,2.579-5,4.44-6.1.574-.34,1.256-.792,2.038-1.355C72.881,438.324,77.376,441.3,78.533,445.771Z" transform="translate(-44.225 -408.648)" fill="#e6ac4b"/>
        </g>
        <g id="Grupo_4573" data-name="Grupo 4573" transform="translate(3.026 8.684)">
          <path id="Trazado_13458" data-name="Trazado 13458" d="M58.547,425.035c1.83-1.046,2.86-1.616,4.99-1.3a10.2,10.2,0,0,1,4.045,1.555,6.746,6.746,0,0,1,2.731,3.01,4.925,4.925,0,0,1-.5,3.666c-1.213-.951-3.141.621-4.136,1.332a27.448,27.448,0,0,0-3.344,3.143c-2.274,2.3-7.579,5.738-8.913.881a13.86,13.86,0,0,1,.062-7.085C54.393,427.51,56.133,426.417,58.547,425.035Z" transform="translate(-52.994 -423.649)" opacity="0.6" fill="url(#linear-gradient)"/>
          <path id="Trazado_13459" data-name="Trazado 13459" d="M61.655,433.493a29.413,29.413,0,0,1,3.609-3.392c1.019-.731,3.26-2.087,4.6-1.342.186.428.21,1.719-.612,1.435-1.213-.951-2.977.289-3.971,1a27.448,27.448,0,0,0-3.344,3.143c-1.923,1.945-6,4.683-8.028,2.552C56.249,437.817,59.842,435.325,61.655,433.493Z" transform="translate(-52.598 -421.543)" fill="#efefef"/>
          <path id="Trazado_13460" data-name="Trazado 13460" d="M60.12,424.933c2.243.788,2.888,1.141,4.176,2.92Zm.113,1.595L62.281,431C62.217,429.266,61.154,427.925,60.233,426.528Zm-1.811,1.461c-.581,1.885-1.317,3.253-.771,5.105Zm-3.25,5.127,1.3-4.742C55.319,429.731,55.137,432.7,55.172,433.115Zm-1.043,4.154.851-7.527A14.2,14.2,0,0,0,54.129,437.269ZM65.281,427.4l2.3,2.343C67.507,428.754,65.772,427.811,65.281,427.4Zm.383,3.147c-.466-.79-1-1.551-1.516-2.31Zm-2.432-6.419,5.228,3.905C67.322,425.993,65.228,425.2,63.233,424.129Zm-3.646,7.64a9.767,9.767,0,0,0,.316,3.509Zm-2.954.758a32.24,32.24,0,0,0,.655,3.5Zm.679-3.622,1.189-2.739A17.66,17.66,0,0,0,57.312,428.905Z" transform="translate(-52.579 -423.443)" fill="#fafdff" opacity="0.8"/>
        </g>
      </g>
    </g>
    <g id="Grupo_4614" data-name="Grupo 4614" transform="translate(514.3 -2110.847)">
      <circle id="Elipse_1327" data-name="Elipse 1327" cx="17.14" cy="17.14" r="17.14" transform="translate(0 0)" fill="#366064"/>
      <text id="_5" data-name="5" transform="translate(10.013 24.548)" fill="#fff" font-size="25" font-family="CerebriSans-Bold, Cerebri Sans" font-weight="700"><tspan x="0" y="0">5</tspan></text>
    </g>
  </g>
</svg>
